G04 #@! TF.FileFunction,Soldermask,Top*
%FSLAX46Y46*%
G04 Gerber Fmt 4.6, Leading zero omitted, Abs format (unit mm)*
G04 Created by KiCad (PCBNEW 4.0.7) date Sun Jul 15 15:44:11 2018*
%MOMM*%
%LPD*%
G01*
G04 APERTURE LIST*
%ADD10C,0.100000*%
%ADD11C,0.300000*%
%ADD12R,1.400000X2.000000*%
%ADD13R,2.200000X2.200000*%
%ADD14C,2.200000*%
%ADD15R,1.300000X1.200000*%
%ADD16R,1.300000X2.100000*%
%ADD17R,2.100000X1.300000*%
%ADD18R,2.100000X2.100000*%
%ADD19O,2.100000X2.100000*%
G04 APERTURE END LIST*
D10*
D11*
X195512571Y-98218356D02*
X196512571Y-97861213D01*
X195512571Y-97504071D01*
X196512571Y-96146928D02*
X196512571Y-97004071D01*
X196512571Y-96575499D02*
X195012571Y-96575499D01*
X195226857Y-96718356D01*
X195369714Y-96861214D01*
X195441143Y-97004071D01*
X196369714Y-95504071D02*
X196441143Y-95432643D01*
X196512571Y-95504071D01*
X196441143Y-95575500D01*
X196369714Y-95504071D01*
X196512571Y-95504071D01*
X195012571Y-94504071D02*
X195012571Y-94361214D01*
X195084000Y-94218357D01*
X195155429Y-94146928D01*
X195298286Y-94075499D01*
X195584000Y-94004071D01*
X195941143Y-94004071D01*
X196226857Y-94075499D01*
X196369714Y-94146928D01*
X196441143Y-94218357D01*
X196512571Y-94361214D01*
X196512571Y-94504071D01*
X196441143Y-94646928D01*
X196369714Y-94718357D01*
X196226857Y-94789785D01*
X195941143Y-94861214D01*
X195584000Y-94861214D01*
X195298286Y-94789785D01*
X195155429Y-94718357D01*
X195084000Y-94646928D01*
X195012571Y-94504071D01*
X192345571Y-99218428D02*
X192345571Y-99075571D01*
X192417000Y-98932714D01*
X192488429Y-98861285D01*
X192631286Y-98789856D01*
X192917000Y-98718428D01*
X193274143Y-98718428D01*
X193559857Y-98789856D01*
X193702714Y-98861285D01*
X193774143Y-98932714D01*
X193845571Y-99075571D01*
X193845571Y-99218428D01*
X193774143Y-99361285D01*
X193702714Y-99432714D01*
X193559857Y-99504142D01*
X193274143Y-99575571D01*
X192917000Y-99575571D01*
X192631286Y-99504142D01*
X192488429Y-99432714D01*
X192417000Y-99361285D01*
X192345571Y-99218428D01*
X193845571Y-98004143D02*
X193845571Y-97718428D01*
X193774143Y-97575571D01*
X193702714Y-97504143D01*
X193488429Y-97361285D01*
X193202714Y-97289857D01*
X192631286Y-97289857D01*
X192488429Y-97361285D01*
X192417000Y-97432714D01*
X192345571Y-97575571D01*
X192345571Y-97861285D01*
X192417000Y-98004143D01*
X192488429Y-98075571D01*
X192631286Y-98147000D01*
X192988429Y-98147000D01*
X193131286Y-98075571D01*
X193202714Y-98004143D01*
X193274143Y-97861285D01*
X193274143Y-97575571D01*
X193202714Y-97432714D01*
X193131286Y-97361285D01*
X192988429Y-97289857D01*
X193702714Y-96647000D02*
X193774143Y-96575572D01*
X193845571Y-96647000D01*
X193774143Y-96718429D01*
X193702714Y-96647000D01*
X193845571Y-96647000D01*
X193845571Y-95147000D02*
X193845571Y-96004143D01*
X193845571Y-95575571D02*
X192345571Y-95575571D01*
X192559857Y-95718428D01*
X192702714Y-95861286D01*
X192774143Y-96004143D01*
X192988429Y-94289857D02*
X192917000Y-94432715D01*
X192845571Y-94504143D01*
X192702714Y-94575572D01*
X192631286Y-94575572D01*
X192488429Y-94504143D01*
X192417000Y-94432715D01*
X192345571Y-94289857D01*
X192345571Y-94004143D01*
X192417000Y-93861286D01*
X192488429Y-93789857D01*
X192631286Y-93718429D01*
X192702714Y-93718429D01*
X192845571Y-93789857D01*
X192917000Y-93861286D01*
X192988429Y-94004143D01*
X192988429Y-94289857D01*
X193059857Y-94432715D01*
X193131286Y-94504143D01*
X193274143Y-94575572D01*
X193559857Y-94575572D01*
X193702714Y-94504143D01*
X193774143Y-94432715D01*
X193845571Y-94289857D01*
X193845571Y-94004143D01*
X193774143Y-93861286D01*
X193702714Y-93789857D01*
X193559857Y-93718429D01*
X193274143Y-93718429D01*
X193131286Y-93789857D01*
X193059857Y-93861286D01*
X192988429Y-94004143D01*
D12*
X185523000Y-113157000D03*
X182523000Y-113157000D03*
D13*
X191135000Y-117094000D03*
D14*
X193675000Y-117094000D03*
D15*
X178641500Y-110429000D03*
X178641500Y-112329000D03*
X180641500Y-111379000D03*
D16*
X189092500Y-106870500D03*
X186192500Y-106870500D03*
D17*
X187960000Y-115115000D03*
X187960000Y-112215000D03*
D18*
X192468500Y-104330500D03*
D19*
X192468500Y-106870500D03*
D16*
X181366500Y-106997500D03*
X184266500Y-106997500D03*
D13*
X178181000Y-117094000D03*
D14*
X180721000Y-117094000D03*
X183261000Y-117094000D03*
D13*
X193675000Y-111506000D03*
D14*
X191135000Y-111506000D03*
D17*
X193675000Y-92001000D03*
X193675000Y-89101000D03*
D18*
X173990000Y-87185500D03*
D19*
X173990000Y-89725500D03*
X173990000Y-92265500D03*
X173990000Y-94805500D03*
D18*
X179959000Y-103505000D03*
D19*
X182499000Y-103505000D03*
X185039000Y-103505000D03*
X187579000Y-103505000D03*
D18*
X196850000Y-91567000D03*
D19*
X196850000Y-89027000D03*
X196850000Y-86487000D03*
D18*
X196659500Y-100266500D03*
D19*
X196659500Y-102806500D03*
X196659500Y-105346500D03*
X196659500Y-107886500D03*
X196659500Y-110426500D03*
X196659500Y-112966500D03*
X196659500Y-115506500D03*
X196659500Y-118046500D03*
D18*
X173990000Y-118110000D03*
D19*
X173990000Y-115570000D03*
X173990000Y-113030000D03*
X173990000Y-110490000D03*
X173990000Y-107950000D03*
X173990000Y-105410000D03*
X173990000Y-102870000D03*
X173990000Y-100330000D03*
M02*
