G04 #@! TF.FileFunction,Copper,L1,Top,Signal*
%FSLAX46Y46*%
G04 Gerber Fmt 4.6, Leading zero omitted, Abs format (unit mm)*
G04 Created by KiCad (PCBNEW 4.0.7) date Sun Jul 15 15:38:45 2018*
%MOMM*%
%LPD*%
G01*
G04 APERTURE LIST*
%ADD10C,0.100000*%
%ADD11R,1.000000X1.600000*%
%ADD12R,1.800000X1.800000*%
%ADD13C,1.800000*%
%ADD14R,0.900000X0.800000*%
%ADD15R,0.900000X1.700000*%
%ADD16R,1.700000X0.900000*%
%ADD17R,1.700000X1.700000*%
%ADD18O,1.700000X1.700000*%
%ADD19C,0.600000*%
%ADD20C,0.850000*%
%ADD21C,0.400000*%
%ADD22C,0.300000*%
%ADD23C,0.500000*%
%ADD24C,0.520000*%
G04 APERTURE END LIST*
D10*
D11*
X185523000Y-113157000D03*
X182523000Y-113157000D03*
D12*
X191135000Y-117094000D03*
D13*
X193675000Y-117094000D03*
D14*
X178641500Y-110429000D03*
X178641500Y-112329000D03*
X180641500Y-111379000D03*
D15*
X189092500Y-106870500D03*
X186192500Y-106870500D03*
D16*
X187960000Y-115115000D03*
X187960000Y-112215000D03*
D17*
X192468500Y-104330500D03*
D18*
X192468500Y-106870500D03*
D15*
X181366500Y-106997500D03*
X184266500Y-106997500D03*
D12*
X178181000Y-117094000D03*
D13*
X180721000Y-117094000D03*
X183261000Y-117094000D03*
D12*
X193675000Y-111506000D03*
D13*
X191135000Y-111506000D03*
D16*
X193675000Y-92001000D03*
X193675000Y-89101000D03*
D17*
X173990000Y-87185500D03*
D18*
X173990000Y-89725500D03*
X173990000Y-92265500D03*
X173990000Y-94805500D03*
D17*
X179959000Y-103505000D03*
D18*
X182499000Y-103505000D03*
X185039000Y-103505000D03*
X187579000Y-103505000D03*
D17*
X196850000Y-91567000D03*
D18*
X196850000Y-89027000D03*
X196850000Y-86487000D03*
D17*
X196659500Y-100266500D03*
D18*
X196659500Y-102806500D03*
X196659500Y-105346500D03*
X196659500Y-107886500D03*
X196659500Y-110426500D03*
X196659500Y-112966500D03*
X196659500Y-115506500D03*
X196659500Y-118046500D03*
D17*
X173990000Y-118110000D03*
D18*
X173990000Y-115570000D03*
X173990000Y-113030000D03*
X173990000Y-110490000D03*
X173990000Y-107950000D03*
X173990000Y-105410000D03*
X173990000Y-102870000D03*
X173990000Y-100330000D03*
D19*
X191198500Y-89408000D03*
X184213500Y-108839000D03*
X185483500Y-111379000D03*
X178244500Y-100393500D03*
X176784000Y-108839000D03*
X194691000Y-101282500D03*
X194691000Y-99441000D03*
D20*
X177990500Y-107950000D03*
D21*
X192468500Y-106870500D02*
X192722500Y-106870500D01*
D22*
X192722500Y-106870500D02*
X195326000Y-109474000D01*
X195326000Y-109474000D02*
X195326000Y-114173000D01*
X195326000Y-114173000D02*
X196659500Y-115506500D01*
X189092500Y-106870500D02*
X192468500Y-106870500D01*
X192468500Y-106870500D02*
X192532000Y-106870500D01*
D21*
X192468500Y-104330500D02*
X192468500Y-101854000D01*
X194056000Y-100266500D02*
X196659500Y-100266500D01*
X192468500Y-101854000D02*
X194056000Y-100266500D01*
D23*
X191198500Y-89408000D02*
X191505500Y-89101000D01*
X191505500Y-89101000D02*
X193675000Y-89101000D01*
X193675000Y-89101000D02*
X196776000Y-89101000D01*
D21*
X185523000Y-113157000D02*
X185523000Y-111418500D01*
X184266500Y-108786000D02*
X184266500Y-106997500D01*
X184213500Y-108839000D02*
X184266500Y-108786000D01*
X185523000Y-111418500D02*
X185483500Y-111379000D01*
X183261000Y-117094000D02*
X184023000Y-117094000D01*
X184023000Y-117094000D02*
X185523000Y-115594000D01*
X185523000Y-115594000D02*
X185523000Y-113157000D01*
X184266500Y-106997500D02*
X184266500Y-107304500D01*
X183261000Y-117094000D02*
X183261000Y-116903500D01*
X180721000Y-117094000D02*
X180721000Y-114959000D01*
X180721000Y-114959000D02*
X182523000Y-113157000D01*
D22*
X182523000Y-113157000D02*
X182372000Y-113157000D01*
X180721000Y-117094000D02*
X180721000Y-116840000D01*
X180721000Y-116840000D02*
X178641500Y-114760500D01*
X178641500Y-114760500D02*
X178641500Y-112329000D01*
X186192500Y-106870500D02*
X186192500Y-104891500D01*
X186192500Y-104891500D02*
X187579000Y-103505000D01*
D23*
X181366500Y-106997500D02*
X181366500Y-108278000D01*
X181366500Y-108278000D02*
X182689500Y-109601000D01*
X182689500Y-109601000D02*
X189230000Y-109601000D01*
X189230000Y-109601000D02*
X191135000Y-111506000D01*
X179959000Y-103505000D02*
X179959000Y-105590000D01*
X179959000Y-105590000D02*
X181366500Y-106997500D01*
X179959000Y-102108000D02*
X179959000Y-103505000D01*
X178244500Y-100393500D02*
X179959000Y-102108000D01*
D21*
X193675000Y-111506000D02*
X193675000Y-117094000D01*
D22*
X176911000Y-90106500D02*
X173990000Y-87185500D01*
X176911000Y-108712000D02*
X176911000Y-90106500D01*
X176784000Y-108839000D02*
X176911000Y-108712000D01*
X173990000Y-113030000D02*
X174371000Y-113030000D01*
X174371000Y-113030000D02*
X176022000Y-111379000D01*
X176022000Y-111379000D02*
X176022000Y-91757500D01*
X176022000Y-91757500D02*
X173990000Y-89725500D01*
X173990000Y-89725500D02*
X174561500Y-89725500D01*
D21*
X180641500Y-111379000D02*
X180721000Y-111379000D01*
X180721000Y-111379000D02*
X181737000Y-110363000D01*
X187896500Y-111315500D02*
X187960000Y-112215000D01*
X186944000Y-110363000D02*
X187896500Y-111315500D01*
X181737000Y-110363000D02*
X186944000Y-110363000D01*
X180641500Y-111379000D02*
X180848000Y-111379000D01*
D22*
X194691000Y-106235500D02*
X196342000Y-107886500D01*
X194691000Y-101282500D02*
X194691000Y-106235500D01*
X196342000Y-107886500D02*
X196786500Y-107886500D01*
X193675000Y-92001000D02*
X193728000Y-92001000D01*
X193728000Y-92001000D02*
X194691000Y-92964000D01*
X194691000Y-92964000D02*
X194691000Y-99441000D01*
X193675000Y-92001000D02*
X196416000Y-92001000D01*
D24*
X196416000Y-92001000D02*
X196850000Y-91567000D01*
D21*
X187960000Y-115115000D02*
X187960000Y-115760500D01*
X187960000Y-115760500D02*
X189293500Y-117094000D01*
X189293500Y-117094000D02*
X191135000Y-117094000D01*
X188161000Y-115316000D02*
X187960000Y-115115000D01*
D24*
X188140000Y-114945500D02*
X187769500Y-114945500D01*
D22*
X178641500Y-110429000D02*
X178641500Y-108601000D01*
X178641500Y-108601000D02*
X177990500Y-107950000D01*
M02*
