M48
;DRILL file {KiCad 4.0.7} date Sun Jul 15 15:27:54 2018
;FORMAT={-:-/ absolute / metric / decimal}
FMAT,2
METRIC,TZ
T1C0.500
T2C0.820
T3C0.900
T4C1.000
%
G90
G05
M71
T1
X176.784Y-108.839
X178.244Y-100.393
X184.213Y-108.839
X185.483Y-111.379
X191.198Y-89.408
X194.691Y-99.441
X194.691Y-101.282
T2
X177.99Y-107.95
T3
X178.181Y-117.094
X180.721Y-117.094
X183.261Y-117.094
X191.135Y-111.506
X191.135Y-117.094
X193.675Y-111.506
X193.675Y-117.094
T4
X173.99Y-87.185
X173.99Y-89.725
X173.99Y-92.265
X173.99Y-94.805
X173.99Y-100.33
X173.99Y-102.87
X173.99Y-105.41
X173.99Y-107.95
X173.99Y-110.49
X173.99Y-113.03
X173.99Y-115.57
X173.99Y-118.11
X179.959Y-103.505
X182.499Y-103.505
X185.039Y-103.505
X187.579Y-103.505
X192.468Y-104.331
X192.468Y-106.87
X196.659Y-100.266
X196.659Y-102.806
X196.659Y-105.346
X196.659Y-107.886
X196.659Y-110.426
X196.659Y-112.966
X196.659Y-115.506
X196.659Y-118.046
X196.85Y-86.487
X196.85Y-89.027
X196.85Y-91.567
T0
M30
