G04 #@! TF.FileFunction,Legend,Top*
%FSLAX46Y46*%
G04 Gerber Fmt 4.6, Leading zero omitted, Abs format (unit mm)*
G04 Created by KiCad (PCBNEW 4.0.7) date Sun Jul 15 15:38:45 2018*
%MOMM*%
%LPD*%
G01*
G04 APERTURE LIST*
%ADD10C,0.100000*%
%ADD11C,0.200000*%
%ADD12C,0.120000*%
%ADD13C,0.150000*%
G04 APERTURE END LIST*
D10*
D11*
X190944500Y-82169000D02*
X190944500Y-101727000D01*
X175831500Y-101663500D02*
X175831500Y-82169000D01*
D12*
X183023000Y-114177000D02*
X185023000Y-114177000D01*
X185023000Y-112137000D02*
X183023000Y-112137000D01*
X194077335Y-116015392D02*
G75*
G03X190845000Y-115858484I-1672335J-1078608D01*
G01*
X194077335Y-118172608D02*
G75*
G02X190845000Y-118329516I-1672335J1078608D01*
G01*
X193446130Y-116014163D02*
G75*
G03X191364039Y-116014000I-1041130J-1079837D01*
G01*
X193446130Y-118173837D02*
G75*
G02X191364039Y-118174000I-1041130J1079837D01*
G01*
X190845000Y-115858000D02*
X190845000Y-116014000D01*
X190845000Y-118174000D02*
X190845000Y-118330000D01*
X180401500Y-112959000D02*
X180401500Y-112029000D01*
X180401500Y-109799000D02*
X180401500Y-110729000D01*
X180401500Y-109799000D02*
X178241500Y-109799000D01*
X180401500Y-112959000D02*
X178941500Y-112959000D01*
X186642500Y-105800500D02*
X188642500Y-105800500D01*
X188642500Y-107940500D02*
X186642500Y-107940500D01*
X189030000Y-112665000D02*
X189030000Y-114665000D01*
X186890000Y-114665000D02*
X186890000Y-112665000D01*
X191138500Y-105600500D02*
X191138500Y-108200500D01*
X191138500Y-108200500D02*
X193798500Y-108200500D01*
X193798500Y-108200500D02*
X193798500Y-105600500D01*
X193798500Y-105600500D02*
X191138500Y-105600500D01*
X191138500Y-104330500D02*
X191138500Y-103000500D01*
X191138500Y-103000500D02*
X192468500Y-103000500D01*
X183816500Y-108067500D02*
X181816500Y-108067500D01*
X181816500Y-105927500D02*
X183816500Y-105927500D01*
X183881000Y-119394000D02*
X183881000Y-118194000D01*
X183881000Y-115794000D02*
X183881000Y-115994000D01*
X177881000Y-115794000D02*
X177881000Y-115994000D01*
X183881000Y-119394000D02*
X177881000Y-119394000D01*
X177881000Y-119394000D02*
X177881000Y-118194000D01*
X183881000Y-115794000D02*
X177881000Y-115794000D01*
X178701000Y-120644000D02*
X178301000Y-120644000D01*
X178701000Y-120644000D02*
X178701000Y-121044000D01*
X178701000Y-120644000D02*
X177901000Y-121444000D01*
X179701000Y-121044000D02*
X178901000Y-121844000D01*
X179701000Y-121044000D02*
X179701000Y-121444000D01*
X179701000Y-121044000D02*
X179301000Y-121044000D01*
X178243315Y-119445321D02*
G75*
G03X183421000Y-119394000I2577685J1151321D01*
G01*
X194745000Y-89551000D02*
X194745000Y-91551000D01*
X192605000Y-91551000D02*
X192605000Y-89551000D01*
X172660000Y-96135500D02*
X175320000Y-96135500D01*
X172660000Y-88455500D02*
X172660000Y-96135500D01*
X175320000Y-88455500D02*
X175320000Y-96135500D01*
X172660000Y-88455500D02*
X175320000Y-88455500D01*
X172660000Y-87185500D02*
X172660000Y-85855500D01*
X172660000Y-85855500D02*
X173990000Y-85855500D01*
X181229000Y-104835000D02*
X188909000Y-104835000D01*
X188909000Y-104835000D02*
X188909000Y-102175000D01*
X188909000Y-102175000D02*
X181229000Y-102175000D01*
X181229000Y-102175000D02*
X181229000Y-104835000D01*
X179959000Y-104835000D02*
X178629000Y-104835000D01*
X178629000Y-104835000D02*
X178629000Y-103505000D01*
X198180000Y-90297000D02*
X198180000Y-85157000D01*
X198180000Y-85157000D02*
X195520000Y-85157000D01*
X195520000Y-85157000D02*
X195520000Y-90297000D01*
X195520000Y-90297000D02*
X198180000Y-90297000D01*
X198180000Y-91567000D02*
X198180000Y-92897000D01*
X198180000Y-92897000D02*
X196850000Y-92897000D01*
D13*
X183792834Y-111609143D02*
X183745215Y-111656762D01*
X183602358Y-111704381D01*
X183507120Y-111704381D01*
X183364262Y-111656762D01*
X183269024Y-111561524D01*
X183221405Y-111466286D01*
X183173786Y-111275810D01*
X183173786Y-111132952D01*
X183221405Y-110942476D01*
X183269024Y-110847238D01*
X183364262Y-110752000D01*
X183507120Y-110704381D01*
X183602358Y-110704381D01*
X183745215Y-110752000D01*
X183792834Y-110799619D01*
X184745215Y-111704381D02*
X184173786Y-111704381D01*
X184459500Y-111704381D02*
X184459500Y-110704381D01*
X184364262Y-110847238D01*
X184269024Y-110942476D01*
X184173786Y-110990095D01*
X191666905Y-114879381D02*
X191666905Y-113879381D01*
X191905000Y-113879381D01*
X192047858Y-113927000D01*
X192143096Y-114022238D01*
X192190715Y-114117476D01*
X192238334Y-114307952D01*
X192238334Y-114450810D01*
X192190715Y-114641286D01*
X192143096Y-114736524D01*
X192047858Y-114831762D01*
X191905000Y-114879381D01*
X191666905Y-114879381D01*
X193190715Y-114879381D02*
X192619286Y-114879381D01*
X192905000Y-114879381D02*
X192905000Y-113879381D01*
X192809762Y-114022238D01*
X192714524Y-114117476D01*
X192619286Y-114165095D01*
X179546262Y-109426619D02*
X179451024Y-109379000D01*
X179355786Y-109283762D01*
X179212929Y-109140905D01*
X179117690Y-109093286D01*
X179022452Y-109093286D01*
X179070071Y-109331381D02*
X178974833Y-109283762D01*
X178879595Y-109188524D01*
X178831976Y-108998048D01*
X178831976Y-108664714D01*
X178879595Y-108474238D01*
X178974833Y-108379000D01*
X179070071Y-108331381D01*
X179260548Y-108331381D01*
X179355786Y-108379000D01*
X179451024Y-108474238D01*
X179498643Y-108664714D01*
X179498643Y-108998048D01*
X179451024Y-109188524D01*
X179355786Y-109283762D01*
X179260548Y-109331381D01*
X179070071Y-109331381D01*
X180451024Y-109331381D02*
X179879595Y-109331381D01*
X180165309Y-109331381D02*
X180165309Y-108331381D01*
X180070071Y-108474238D01*
X179974833Y-108569476D01*
X179879595Y-108617095D01*
X187666334Y-109227881D02*
X187333000Y-108751690D01*
X187094905Y-109227881D02*
X187094905Y-108227881D01*
X187475858Y-108227881D01*
X187571096Y-108275500D01*
X187618715Y-108323119D01*
X187666334Y-108418357D01*
X187666334Y-108561214D01*
X187618715Y-108656452D01*
X187571096Y-108704071D01*
X187475858Y-108751690D01*
X187094905Y-108751690D01*
X188618715Y-109227881D02*
X188047286Y-109227881D01*
X188333000Y-109227881D02*
X188333000Y-108227881D01*
X188237762Y-108370738D01*
X188142524Y-108465976D01*
X188047286Y-108513595D01*
X187793334Y-111196381D02*
X187460000Y-110720190D01*
X187221905Y-111196381D02*
X187221905Y-110196381D01*
X187602858Y-110196381D01*
X187698096Y-110244000D01*
X187745715Y-110291619D01*
X187793334Y-110386857D01*
X187793334Y-110529714D01*
X187745715Y-110624952D01*
X187698096Y-110672571D01*
X187602858Y-110720190D01*
X187221905Y-110720190D01*
X188174286Y-110291619D02*
X188221905Y-110244000D01*
X188317143Y-110196381D01*
X188555239Y-110196381D01*
X188650477Y-110244000D01*
X188698096Y-110291619D01*
X188745715Y-110386857D01*
X188745715Y-110482095D01*
X188698096Y-110624952D01*
X188126667Y-111196381D01*
X188745715Y-111196381D01*
X191420905Y-102433381D02*
X191420905Y-101433381D01*
X191801858Y-101433381D01*
X191897096Y-101481000D01*
X191944715Y-101528619D01*
X191992334Y-101623857D01*
X191992334Y-101766714D01*
X191944715Y-101861952D01*
X191897096Y-101909571D01*
X191801858Y-101957190D01*
X191420905Y-101957190D01*
X192992334Y-102433381D02*
X192659000Y-101957190D01*
X192420905Y-102433381D02*
X192420905Y-101433381D01*
X192801858Y-101433381D01*
X192897096Y-101481000D01*
X192944715Y-101528619D01*
X192992334Y-101623857D01*
X192992334Y-101766714D01*
X192944715Y-101861952D01*
X192897096Y-101909571D01*
X192801858Y-101957190D01*
X192420905Y-101957190D01*
X193944715Y-102433381D02*
X193373286Y-102433381D01*
X193659000Y-102433381D02*
X193659000Y-101433381D01*
X193563762Y-101576238D01*
X193468524Y-101671476D01*
X193373286Y-101719095D01*
X182586334Y-109291381D02*
X182253000Y-108815190D01*
X182014905Y-109291381D02*
X182014905Y-108291381D01*
X182395858Y-108291381D01*
X182491096Y-108339000D01*
X182538715Y-108386619D01*
X182586334Y-108481857D01*
X182586334Y-108624714D01*
X182538715Y-108719952D01*
X182491096Y-108767571D01*
X182395858Y-108815190D01*
X182014905Y-108815190D01*
X183443477Y-108624714D02*
X183443477Y-109291381D01*
X183205381Y-108243762D02*
X182967286Y-108958048D01*
X183586334Y-108958048D01*
X179959095Y-114514381D02*
X179959095Y-115323905D01*
X180006714Y-115419143D01*
X180054333Y-115466762D01*
X180149571Y-115514381D01*
X180340048Y-115514381D01*
X180435286Y-115466762D01*
X180482905Y-115419143D01*
X180530524Y-115323905D01*
X180530524Y-114514381D01*
X181530524Y-115514381D02*
X180959095Y-115514381D01*
X181244809Y-115514381D02*
X181244809Y-114514381D01*
X181149571Y-114657238D01*
X181054333Y-114752476D01*
X180959095Y-114800095D01*
X192277381Y-90717666D02*
X191801190Y-91051000D01*
X192277381Y-91289095D02*
X191277381Y-91289095D01*
X191277381Y-90908142D01*
X191325000Y-90812904D01*
X191372619Y-90765285D01*
X191467857Y-90717666D01*
X191610714Y-90717666D01*
X191705952Y-90765285D01*
X191753571Y-90812904D01*
X191801190Y-90908142D01*
X191801190Y-91289095D01*
X191277381Y-89812904D02*
X191277381Y-90289095D01*
X191753571Y-90336714D01*
X191705952Y-90289095D01*
X191658333Y-90193857D01*
X191658333Y-89955761D01*
X191705952Y-89860523D01*
X191753571Y-89812904D01*
X191848810Y-89765285D01*
X192086905Y-89765285D01*
X192182143Y-89812904D01*
X192229762Y-89860523D01*
X192277381Y-89955761D01*
X192277381Y-90193857D01*
X192229762Y-90289095D01*
X192182143Y-90336714D01*
X177109381Y-92400095D02*
X176109381Y-92400095D01*
X176490333Y-92400095D02*
X176442714Y-92304857D01*
X176442714Y-92114380D01*
X176490333Y-92019142D01*
X176537952Y-91971523D01*
X176633190Y-91923904D01*
X176918905Y-91923904D01*
X177014143Y-91971523D01*
X177061762Y-92019142D01*
X177109381Y-92114380D01*
X177109381Y-92304857D01*
X177061762Y-92400095D01*
X177109381Y-91495333D02*
X176442714Y-91495333D01*
X176537952Y-91495333D02*
X176490333Y-91447714D01*
X176442714Y-91352476D01*
X176442714Y-91209618D01*
X176490333Y-91114380D01*
X176585571Y-91066761D01*
X177109381Y-91066761D01*
X176585571Y-91066761D02*
X176490333Y-91019142D01*
X176442714Y-90923904D01*
X176442714Y-90781047D01*
X176490333Y-90685809D01*
X176585571Y-90638190D01*
X177109381Y-90638190D01*
X177061762Y-89781047D02*
X177109381Y-89876285D01*
X177109381Y-90066762D01*
X177061762Y-90162000D01*
X176966524Y-90209619D01*
X176585571Y-90209619D01*
X176490333Y-90162000D01*
X176442714Y-90066762D01*
X176442714Y-89876285D01*
X176490333Y-89781047D01*
X176585571Y-89733428D01*
X176680810Y-89733428D01*
X176776048Y-90209619D01*
X176204619Y-89352476D02*
X176157000Y-89304857D01*
X176109381Y-89209619D01*
X176109381Y-88971523D01*
X176157000Y-88876285D01*
X176204619Y-88828666D01*
X176299857Y-88781047D01*
X176395095Y-88781047D01*
X176537952Y-88828666D01*
X177109381Y-89400095D01*
X177109381Y-88781047D01*
X176537952Y-88209619D02*
X176490333Y-88304857D01*
X176442714Y-88352476D01*
X176347476Y-88400095D01*
X176299857Y-88400095D01*
X176204619Y-88352476D01*
X176157000Y-88304857D01*
X176109381Y-88209619D01*
X176109381Y-88019142D01*
X176157000Y-87923904D01*
X176204619Y-87876285D01*
X176299857Y-87828666D01*
X176347476Y-87828666D01*
X176442714Y-87876285D01*
X176490333Y-87923904D01*
X176537952Y-88019142D01*
X176537952Y-88209619D01*
X176585571Y-88304857D01*
X176633190Y-88352476D01*
X176728429Y-88400095D01*
X176918905Y-88400095D01*
X177014143Y-88352476D01*
X177061762Y-88304857D01*
X177109381Y-88209619D01*
X177109381Y-88019142D01*
X177061762Y-87923904D01*
X177014143Y-87876285D01*
X176918905Y-87828666D01*
X176728429Y-87828666D01*
X176633190Y-87876285D01*
X176585571Y-87923904D01*
X176537952Y-88019142D01*
X176109381Y-87209619D02*
X176109381Y-87114380D01*
X176157000Y-87019142D01*
X176204619Y-86971523D01*
X176299857Y-86923904D01*
X176490333Y-86876285D01*
X176728429Y-86876285D01*
X176918905Y-86923904D01*
X177014143Y-86971523D01*
X177061762Y-87019142D01*
X177109381Y-87114380D01*
X177109381Y-87209619D01*
X177061762Y-87304857D01*
X177014143Y-87352476D01*
X176918905Y-87400095D01*
X176728429Y-87447714D01*
X176490333Y-87447714D01*
X176299857Y-87400095D01*
X176204619Y-87352476D01*
X176157000Y-87304857D01*
X176109381Y-87209619D01*
X181522952Y-98242381D02*
X181522952Y-97242381D01*
X181761047Y-97242381D01*
X181903905Y-97290000D01*
X181999143Y-97385238D01*
X182046762Y-97480476D01*
X182094381Y-97670952D01*
X182094381Y-97813810D01*
X182046762Y-98004286D01*
X181999143Y-98099524D01*
X181903905Y-98194762D01*
X181761047Y-98242381D01*
X181522952Y-98242381D01*
X182522952Y-98242381D02*
X182522952Y-97242381D01*
X182522952Y-97718571D02*
X183094381Y-97718571D01*
X183094381Y-98242381D02*
X183094381Y-97242381D01*
X183427714Y-97242381D02*
X183999143Y-97242381D01*
X183713428Y-98242381D02*
X183713428Y-97242381D01*
X184284857Y-97337619D02*
X184332476Y-97290000D01*
X184427714Y-97242381D01*
X184665810Y-97242381D01*
X184761048Y-97290000D01*
X184808667Y-97337619D01*
X184856286Y-97432857D01*
X184856286Y-97528095D01*
X184808667Y-97670952D01*
X184237238Y-98242381D01*
X184856286Y-98242381D01*
X185237238Y-97337619D02*
X185284857Y-97290000D01*
X185380095Y-97242381D01*
X185618191Y-97242381D01*
X185713429Y-97290000D01*
X185761048Y-97337619D01*
X185808667Y-97432857D01*
X185808667Y-97528095D01*
X185761048Y-97670952D01*
X185189619Y-98242381D01*
X185808667Y-98242381D01*
X194635381Y-87796476D02*
X193635381Y-87796476D01*
X193635381Y-87558381D01*
X193683000Y-87415523D01*
X193778238Y-87320285D01*
X193873476Y-87272666D01*
X194063952Y-87225047D01*
X194206810Y-87225047D01*
X194397286Y-87272666D01*
X194492524Y-87320285D01*
X194587762Y-87415523D01*
X194635381Y-87558381D01*
X194635381Y-87796476D01*
X194587762Y-86844095D02*
X194635381Y-86701238D01*
X194635381Y-86463142D01*
X194587762Y-86367904D01*
X194540143Y-86320285D01*
X194444905Y-86272666D01*
X194349667Y-86272666D01*
X194254429Y-86320285D01*
X194206810Y-86367904D01*
X194159190Y-86463142D01*
X194111571Y-86653619D01*
X194063952Y-86748857D01*
X194016333Y-86796476D01*
X193921095Y-86844095D01*
X193825857Y-86844095D01*
X193730619Y-86796476D01*
X193683000Y-86748857D01*
X193635381Y-86653619D01*
X193635381Y-86415523D01*
X193683000Y-86272666D01*
X194635381Y-85320285D02*
X194635381Y-85891714D01*
X194635381Y-85606000D02*
X193635381Y-85606000D01*
X193778238Y-85701238D01*
X193873476Y-85796476D01*
X193921095Y-85891714D01*
X194063952Y-84748857D02*
X194016333Y-84844095D01*
X193968714Y-84891714D01*
X193873476Y-84939333D01*
X193825857Y-84939333D01*
X193730619Y-84891714D01*
X193683000Y-84844095D01*
X193635381Y-84748857D01*
X193635381Y-84558380D01*
X193683000Y-84463142D01*
X193730619Y-84415523D01*
X193825857Y-84367904D01*
X193873476Y-84367904D01*
X193968714Y-84415523D01*
X194016333Y-84463142D01*
X194063952Y-84558380D01*
X194063952Y-84748857D01*
X194111571Y-84844095D01*
X194159190Y-84891714D01*
X194254429Y-84939333D01*
X194444905Y-84939333D01*
X194540143Y-84891714D01*
X194587762Y-84844095D01*
X194635381Y-84748857D01*
X194635381Y-84558380D01*
X194587762Y-84463142D01*
X194540143Y-84415523D01*
X194444905Y-84367904D01*
X194254429Y-84367904D01*
X194159190Y-84415523D01*
X194111571Y-84463142D01*
X194063952Y-84558380D01*
M02*
