G04 #@! TF.FileFunction,Legend,Bot*
%FSLAX46Y46*%
G04 Gerber Fmt 4.6, Leading zero omitted, Abs format (unit mm)*
G04 Created by KiCad (PCBNEW 4.0.7) date Sun Jul 15 15:38:45 2018*
%MOMM*%
%LPD*%
G01*
G04 APERTURE LIST*
%ADD10C,0.100000*%
%ADD11C,0.300000*%
%ADD12C,0.120000*%
%ADD13C,0.002540*%
%ADD14C,0.150000*%
G04 APERTURE END LIST*
D10*
D11*
X194114571Y-85133571D02*
X194114571Y-83633571D01*
X193543143Y-83633571D01*
X193400285Y-83705000D01*
X193328857Y-83776429D01*
X193257428Y-83919286D01*
X193257428Y-84133571D01*
X193328857Y-84276429D01*
X193400285Y-84347857D01*
X193543143Y-84419286D01*
X194114571Y-84419286D01*
X192828857Y-83633571D02*
X191971714Y-83633571D01*
X192400285Y-85133571D02*
X192400285Y-83633571D01*
X190757428Y-85133571D02*
X191471714Y-85133571D01*
X191471714Y-83633571D01*
X189114571Y-85133571D02*
X189114571Y-83633571D01*
X187543142Y-85133571D02*
X188043142Y-84419286D01*
X188400285Y-85133571D02*
X188400285Y-83633571D01*
X187828857Y-83633571D01*
X187685999Y-83705000D01*
X187614571Y-83776429D01*
X187543142Y-83919286D01*
X187543142Y-84133571D01*
X187614571Y-84276429D01*
X187685999Y-84347857D01*
X187828857Y-84419286D01*
X188400285Y-84419286D01*
X185757428Y-85133571D02*
X185757428Y-84133571D01*
X185757428Y-84419286D02*
X185686000Y-84276429D01*
X185614571Y-84205000D01*
X185471714Y-84133571D01*
X185328857Y-84133571D01*
X184257429Y-85062143D02*
X184400286Y-85133571D01*
X184686000Y-85133571D01*
X184828857Y-85062143D01*
X184900286Y-84919286D01*
X184900286Y-84347857D01*
X184828857Y-84205000D01*
X184686000Y-84133571D01*
X184400286Y-84133571D01*
X184257429Y-84205000D01*
X184186000Y-84347857D01*
X184186000Y-84490714D01*
X184900286Y-84633571D01*
X183543143Y-85133571D02*
X183543143Y-84133571D01*
X183543143Y-84276429D02*
X183471715Y-84205000D01*
X183328857Y-84133571D01*
X183114572Y-84133571D01*
X182971715Y-84205000D01*
X182900286Y-84347857D01*
X182900286Y-85133571D01*
X182900286Y-84347857D02*
X182828857Y-84205000D01*
X182686000Y-84133571D01*
X182471715Y-84133571D01*
X182328857Y-84205000D01*
X182257429Y-84347857D01*
X182257429Y-85133571D01*
X181328857Y-85133571D02*
X181471715Y-85062143D01*
X181543143Y-84990714D01*
X181614572Y-84847857D01*
X181614572Y-84419286D01*
X181543143Y-84276429D01*
X181471715Y-84205000D01*
X181328857Y-84133571D01*
X181114572Y-84133571D01*
X180971715Y-84205000D01*
X180900286Y-84276429D01*
X180828857Y-84419286D01*
X180828857Y-84847857D01*
X180900286Y-84990714D01*
X180971715Y-85062143D01*
X181114572Y-85133571D01*
X181328857Y-85133571D01*
X180400286Y-84133571D02*
X179828857Y-84133571D01*
X180186000Y-83633571D02*
X180186000Y-84919286D01*
X180114572Y-85062143D01*
X179971714Y-85133571D01*
X179828857Y-85133571D01*
X178757429Y-85062143D02*
X178900286Y-85133571D01*
X179186000Y-85133571D01*
X179328857Y-85062143D01*
X179400286Y-84919286D01*
X179400286Y-84347857D01*
X179328857Y-84205000D01*
X179186000Y-84133571D01*
X178900286Y-84133571D01*
X178757429Y-84205000D01*
X178686000Y-84347857D01*
X178686000Y-84490714D01*
X179400286Y-84633571D01*
X193788999Y-88753071D02*
X194503285Y-88753071D01*
X194503285Y-87253071D01*
X192717571Y-88681643D02*
X192860428Y-88753071D01*
X193146142Y-88753071D01*
X193288999Y-88681643D01*
X193360428Y-88538786D01*
X193360428Y-87967357D01*
X193288999Y-87824500D01*
X193146142Y-87753071D01*
X192860428Y-87753071D01*
X192717571Y-87824500D01*
X192646142Y-87967357D01*
X192646142Y-88110214D01*
X193360428Y-88253071D01*
X192003285Y-88753071D02*
X192003285Y-87753071D01*
X192003285Y-87895929D02*
X191931857Y-87824500D01*
X191788999Y-87753071D01*
X191574714Y-87753071D01*
X191431857Y-87824500D01*
X191360428Y-87967357D01*
X191360428Y-88753071D01*
X191360428Y-87967357D02*
X191288999Y-87824500D01*
X191146142Y-87753071D01*
X190931857Y-87753071D01*
X190788999Y-87824500D01*
X190717571Y-87967357D01*
X190717571Y-88753071D01*
X189360428Y-88753071D02*
X189360428Y-87967357D01*
X189431857Y-87824500D01*
X189574714Y-87753071D01*
X189860428Y-87753071D01*
X190003285Y-87824500D01*
X189360428Y-88681643D02*
X189503285Y-88753071D01*
X189860428Y-88753071D01*
X190003285Y-88681643D01*
X190074714Y-88538786D01*
X190074714Y-88395929D01*
X190003285Y-88253071D01*
X189860428Y-88181643D01*
X189503285Y-88181643D01*
X189360428Y-88110214D01*
X188646142Y-87753071D02*
X188646142Y-88753071D01*
X188646142Y-87895929D02*
X188574714Y-87824500D01*
X188431856Y-87753071D01*
X188217571Y-87753071D01*
X188074714Y-87824500D01*
X188003285Y-87967357D01*
X188003285Y-88753071D01*
X187288999Y-88753071D02*
X187288999Y-87253071D01*
X186788999Y-88324500D01*
X186288999Y-87253071D01*
X186288999Y-88753071D01*
X184931856Y-88753071D02*
X184931856Y-87967357D01*
X185003285Y-87824500D01*
X185146142Y-87753071D01*
X185431856Y-87753071D01*
X185574713Y-87824500D01*
X184931856Y-88681643D02*
X185074713Y-88753071D01*
X185431856Y-88753071D01*
X185574713Y-88681643D01*
X185646142Y-88538786D01*
X185646142Y-88395929D01*
X185574713Y-88253071D01*
X185431856Y-88181643D01*
X185074713Y-88181643D01*
X184931856Y-88110214D01*
X184217570Y-88753071D02*
X184217570Y-87253071D01*
X184074713Y-88181643D02*
X183646142Y-88753071D01*
X183646142Y-87753071D02*
X184217570Y-88324500D01*
X182431856Y-88681643D02*
X182574713Y-88753071D01*
X182860427Y-88753071D01*
X183003284Y-88681643D01*
X183074713Y-88538786D01*
X183074713Y-87967357D01*
X183003284Y-87824500D01*
X182860427Y-87753071D01*
X182574713Y-87753071D01*
X182431856Y-87824500D01*
X182360427Y-87967357D01*
X182360427Y-88110214D01*
X183074713Y-88253071D01*
X180646142Y-87395929D02*
X180574713Y-87324500D01*
X180431856Y-87253071D01*
X180074713Y-87253071D01*
X179931856Y-87324500D01*
X179860427Y-87395929D01*
X179788999Y-87538786D01*
X179788999Y-87681643D01*
X179860427Y-87895929D01*
X180717570Y-88753071D01*
X179788999Y-88753071D01*
X178860428Y-87253071D02*
X178717571Y-87253071D01*
X178574714Y-87324500D01*
X178503285Y-87395929D01*
X178431856Y-87538786D01*
X178360428Y-87824500D01*
X178360428Y-88181643D01*
X178431856Y-88467357D01*
X178503285Y-88610214D01*
X178574714Y-88681643D01*
X178717571Y-88753071D01*
X178860428Y-88753071D01*
X179003285Y-88681643D01*
X179074714Y-88610214D01*
X179146142Y-88467357D01*
X179217571Y-88181643D01*
X179217571Y-87824500D01*
X179146142Y-87538786D01*
X179074714Y-87395929D01*
X179003285Y-87324500D01*
X178860428Y-87253071D01*
X176931857Y-88753071D02*
X177789000Y-88753071D01*
X177360428Y-88753071D02*
X177360428Y-87253071D01*
X177503285Y-87467357D01*
X177646143Y-87610214D01*
X177789000Y-87681643D01*
X176074714Y-87895929D02*
X176217572Y-87824500D01*
X176289000Y-87753071D01*
X176360429Y-87610214D01*
X176360429Y-87538786D01*
X176289000Y-87395929D01*
X176217572Y-87324500D01*
X176074714Y-87253071D01*
X175789000Y-87253071D01*
X175646143Y-87324500D01*
X175574714Y-87395929D01*
X175503286Y-87538786D01*
X175503286Y-87610214D01*
X175574714Y-87753071D01*
X175646143Y-87824500D01*
X175789000Y-87895929D01*
X176074714Y-87895929D01*
X176217572Y-87967357D01*
X176289000Y-88038786D01*
X176360429Y-88181643D01*
X176360429Y-88467357D01*
X176289000Y-88610214D01*
X176217572Y-88681643D01*
X176074714Y-88753071D01*
X175789000Y-88753071D01*
X175646143Y-88681643D01*
X175574714Y-88610214D01*
X175503286Y-88467357D01*
X175503286Y-88181643D01*
X175574714Y-88038786D01*
X175646143Y-87967357D01*
X175789000Y-87895929D01*
D12*
X190732665Y-110427392D02*
G75*
G02X193965000Y-110270484I1672335J-1078608D01*
G01*
X190732665Y-112584608D02*
G75*
G03X193965000Y-112741516I1672335J1078608D01*
G01*
X191363870Y-110426163D02*
G75*
G02X193445961Y-110426000I1041130J-1079837D01*
G01*
X191363870Y-112585837D02*
G75*
G03X193445961Y-112586000I1041130J1079837D01*
G01*
X193965000Y-110270000D02*
X193965000Y-110426000D01*
X193965000Y-112586000D02*
X193965000Y-112742000D01*
X197989500Y-101536500D02*
X197989500Y-119376500D01*
X197989500Y-119376500D02*
X195329500Y-119376500D01*
X195329500Y-119376500D02*
X195329500Y-101536500D01*
X195329500Y-101536500D02*
X197989500Y-101536500D01*
X197989500Y-100266500D02*
X197989500Y-98936500D01*
X197989500Y-98936500D02*
X196659500Y-98936500D01*
X172660000Y-116840000D02*
X172660000Y-99000000D01*
X172660000Y-99000000D02*
X175320000Y-99000000D01*
X175320000Y-99000000D02*
X175320000Y-116840000D01*
X175320000Y-116840000D02*
X172660000Y-116840000D01*
X172660000Y-118110000D02*
X172660000Y-119440000D01*
X172660000Y-119440000D02*
X173990000Y-119440000D01*
D13*
G36*
X176921160Y-113611660D02*
X177035460Y-113611660D01*
X177035460Y-112270540D01*
X177035460Y-110804960D01*
X177035460Y-109334300D01*
X177073560Y-109296200D01*
X177111660Y-109260640D01*
X181922420Y-109260640D01*
X186730640Y-109260640D01*
X186768740Y-109296200D01*
X186806840Y-109334300D01*
X186806840Y-110804960D01*
X186804300Y-112270540D01*
X186578240Y-112273080D01*
X186352180Y-112273080D01*
X186268360Y-112402620D01*
X186146440Y-112570260D01*
X186004200Y-112722660D01*
X185844180Y-112859820D01*
X185668920Y-112979200D01*
X185480960Y-113078260D01*
X185282840Y-113157000D01*
X185077100Y-113212880D01*
X184912000Y-113240820D01*
X184825640Y-113248440D01*
X184724040Y-113250980D01*
X184612280Y-113248440D01*
X184503060Y-113240820D01*
X184404000Y-113228120D01*
X184343040Y-113217960D01*
X184127140Y-113162080D01*
X183923940Y-113083340D01*
X183735980Y-112986820D01*
X183558180Y-112864900D01*
X183393080Y-112720120D01*
X183324500Y-112651540D01*
X183268620Y-112590580D01*
X183212740Y-112519460D01*
X183159400Y-112448340D01*
X183126380Y-112402620D01*
X183045100Y-112273080D01*
X180042820Y-112273080D01*
X177035460Y-112270540D01*
X177035460Y-113611660D01*
X177050700Y-113611660D01*
X177050700Y-113510060D01*
X177050700Y-112948720D01*
X177050700Y-112387380D01*
X180007260Y-112387380D01*
X182961280Y-112387380D01*
X183040020Y-112504220D01*
X183136540Y-112641380D01*
X183233060Y-112760760D01*
X183332120Y-112859820D01*
X183436260Y-112948720D01*
X183553100Y-113027460D01*
X183639460Y-113078260D01*
X183779160Y-113149380D01*
X183903620Y-113207800D01*
X184020460Y-113256060D01*
X184139840Y-113294160D01*
X184264300Y-113324640D01*
X184269380Y-113324640D01*
X184452260Y-113360200D01*
X184624980Y-113375440D01*
X184790080Y-113375440D01*
X184957720Y-113357660D01*
X185127900Y-113324640D01*
X185323480Y-113266220D01*
X185519060Y-113184940D01*
X185719720Y-113075720D01*
X185920380Y-112943640D01*
X185988960Y-112895380D01*
X186039760Y-112852200D01*
X186100720Y-112793780D01*
X186164220Y-112727740D01*
X186230260Y-112659160D01*
X186293760Y-112585500D01*
X186347100Y-112519460D01*
X186390280Y-112461040D01*
X186413140Y-112425480D01*
X186433460Y-112387380D01*
X186626500Y-112387380D01*
X186819540Y-112387380D01*
X186819540Y-112948720D01*
X186819540Y-113510060D01*
X181932580Y-113510060D01*
X177050700Y-113510060D01*
X177050700Y-113611660D01*
X181914800Y-113611660D01*
X186905900Y-113611660D01*
X186913520Y-113431320D01*
X186916060Y-113393220D01*
X186916060Y-113334800D01*
X186916060Y-113253520D01*
X186916060Y-113154460D01*
X186918600Y-113037620D01*
X186918600Y-112905540D01*
X186918600Y-112758220D01*
X186918600Y-112598200D01*
X186918600Y-112428020D01*
X186918600Y-112247680D01*
X186918600Y-112059720D01*
X186918600Y-111866680D01*
X186918600Y-111668560D01*
X186918600Y-111467900D01*
X186918600Y-111267240D01*
X186918600Y-111064040D01*
X186916060Y-110863380D01*
X186916060Y-110667800D01*
X186916060Y-110474760D01*
X186916060Y-110289340D01*
X186913520Y-110114080D01*
X186913520Y-109946440D01*
X186910980Y-109791500D01*
X186910980Y-109649260D01*
X186910980Y-109522260D01*
X186908440Y-109413040D01*
X186908440Y-109319060D01*
X186905900Y-109247940D01*
X186905900Y-109194600D01*
X186903360Y-109166660D01*
X186903360Y-109161580D01*
X186890660Y-109161580D01*
X186852560Y-109161580D01*
X186791600Y-109159040D01*
X186707780Y-109159040D01*
X186603640Y-109159040D01*
X186476640Y-109159040D01*
X186334400Y-109156500D01*
X186171840Y-109156500D01*
X185991500Y-109156500D01*
X185795920Y-109156500D01*
X185585100Y-109153960D01*
X185361580Y-109153960D01*
X185122820Y-109153960D01*
X184873900Y-109153960D01*
X184614820Y-109153960D01*
X184345580Y-109151420D01*
X184068720Y-109151420D01*
X183781700Y-109151420D01*
X183492140Y-109151420D01*
X183194960Y-109151420D01*
X182892700Y-109151420D01*
X182587900Y-109148880D01*
X182280560Y-109148880D01*
X181970680Y-109148880D01*
X181665880Y-109148880D01*
X181358540Y-109148880D01*
X181053740Y-109148880D01*
X180751480Y-109148880D01*
X180451760Y-109148880D01*
X180159660Y-109148880D01*
X179872640Y-109148880D01*
X179593240Y-109148880D01*
X179321460Y-109148880D01*
X179059840Y-109148880D01*
X178808380Y-109148880D01*
X178569620Y-109148880D01*
X178343560Y-109148880D01*
X178130200Y-109148880D01*
X177932080Y-109148880D01*
X177749200Y-109148880D01*
X177581560Y-109148880D01*
X177434240Y-109151420D01*
X177304700Y-109151420D01*
X177198020Y-109151420D01*
X177109120Y-109151420D01*
X177043080Y-109153960D01*
X176999900Y-109153960D01*
X176982120Y-109153960D01*
X176921160Y-109161580D01*
X176921160Y-111386620D01*
X176921160Y-113611660D01*
X176921160Y-113611660D01*
X176921160Y-113611660D01*
G37*
X176921160Y-113611660D02*
X177035460Y-113611660D01*
X177035460Y-112270540D01*
X177035460Y-110804960D01*
X177035460Y-109334300D01*
X177073560Y-109296200D01*
X177111660Y-109260640D01*
X181922420Y-109260640D01*
X186730640Y-109260640D01*
X186768740Y-109296200D01*
X186806840Y-109334300D01*
X186806840Y-110804960D01*
X186804300Y-112270540D01*
X186578240Y-112273080D01*
X186352180Y-112273080D01*
X186268360Y-112402620D01*
X186146440Y-112570260D01*
X186004200Y-112722660D01*
X185844180Y-112859820D01*
X185668920Y-112979200D01*
X185480960Y-113078260D01*
X185282840Y-113157000D01*
X185077100Y-113212880D01*
X184912000Y-113240820D01*
X184825640Y-113248440D01*
X184724040Y-113250980D01*
X184612280Y-113248440D01*
X184503060Y-113240820D01*
X184404000Y-113228120D01*
X184343040Y-113217960D01*
X184127140Y-113162080D01*
X183923940Y-113083340D01*
X183735980Y-112986820D01*
X183558180Y-112864900D01*
X183393080Y-112720120D01*
X183324500Y-112651540D01*
X183268620Y-112590580D01*
X183212740Y-112519460D01*
X183159400Y-112448340D01*
X183126380Y-112402620D01*
X183045100Y-112273080D01*
X180042820Y-112273080D01*
X177035460Y-112270540D01*
X177035460Y-113611660D01*
X177050700Y-113611660D01*
X177050700Y-113510060D01*
X177050700Y-112948720D01*
X177050700Y-112387380D01*
X180007260Y-112387380D01*
X182961280Y-112387380D01*
X183040020Y-112504220D01*
X183136540Y-112641380D01*
X183233060Y-112760760D01*
X183332120Y-112859820D01*
X183436260Y-112948720D01*
X183553100Y-113027460D01*
X183639460Y-113078260D01*
X183779160Y-113149380D01*
X183903620Y-113207800D01*
X184020460Y-113256060D01*
X184139840Y-113294160D01*
X184264300Y-113324640D01*
X184269380Y-113324640D01*
X184452260Y-113360200D01*
X184624980Y-113375440D01*
X184790080Y-113375440D01*
X184957720Y-113357660D01*
X185127900Y-113324640D01*
X185323480Y-113266220D01*
X185519060Y-113184940D01*
X185719720Y-113075720D01*
X185920380Y-112943640D01*
X185988960Y-112895380D01*
X186039760Y-112852200D01*
X186100720Y-112793780D01*
X186164220Y-112727740D01*
X186230260Y-112659160D01*
X186293760Y-112585500D01*
X186347100Y-112519460D01*
X186390280Y-112461040D01*
X186413140Y-112425480D01*
X186433460Y-112387380D01*
X186626500Y-112387380D01*
X186819540Y-112387380D01*
X186819540Y-112948720D01*
X186819540Y-113510060D01*
X181932580Y-113510060D01*
X177050700Y-113510060D01*
X177050700Y-113611660D01*
X181914800Y-113611660D01*
X186905900Y-113611660D01*
X186913520Y-113431320D01*
X186916060Y-113393220D01*
X186916060Y-113334800D01*
X186916060Y-113253520D01*
X186916060Y-113154460D01*
X186918600Y-113037620D01*
X186918600Y-112905540D01*
X186918600Y-112758220D01*
X186918600Y-112598200D01*
X186918600Y-112428020D01*
X186918600Y-112247680D01*
X186918600Y-112059720D01*
X186918600Y-111866680D01*
X186918600Y-111668560D01*
X186918600Y-111467900D01*
X186918600Y-111267240D01*
X186918600Y-111064040D01*
X186916060Y-110863380D01*
X186916060Y-110667800D01*
X186916060Y-110474760D01*
X186916060Y-110289340D01*
X186913520Y-110114080D01*
X186913520Y-109946440D01*
X186910980Y-109791500D01*
X186910980Y-109649260D01*
X186910980Y-109522260D01*
X186908440Y-109413040D01*
X186908440Y-109319060D01*
X186905900Y-109247940D01*
X186905900Y-109194600D01*
X186903360Y-109166660D01*
X186903360Y-109161580D01*
X186890660Y-109161580D01*
X186852560Y-109161580D01*
X186791600Y-109159040D01*
X186707780Y-109159040D01*
X186603640Y-109159040D01*
X186476640Y-109159040D01*
X186334400Y-109156500D01*
X186171840Y-109156500D01*
X185991500Y-109156500D01*
X185795920Y-109156500D01*
X185585100Y-109153960D01*
X185361580Y-109153960D01*
X185122820Y-109153960D01*
X184873900Y-109153960D01*
X184614820Y-109153960D01*
X184345580Y-109151420D01*
X184068720Y-109151420D01*
X183781700Y-109151420D01*
X183492140Y-109151420D01*
X183194960Y-109151420D01*
X182892700Y-109151420D01*
X182587900Y-109148880D01*
X182280560Y-109148880D01*
X181970680Y-109148880D01*
X181665880Y-109148880D01*
X181358540Y-109148880D01*
X181053740Y-109148880D01*
X180751480Y-109148880D01*
X180451760Y-109148880D01*
X180159660Y-109148880D01*
X179872640Y-109148880D01*
X179593240Y-109148880D01*
X179321460Y-109148880D01*
X179059840Y-109148880D01*
X178808380Y-109148880D01*
X178569620Y-109148880D01*
X178343560Y-109148880D01*
X178130200Y-109148880D01*
X177932080Y-109148880D01*
X177749200Y-109148880D01*
X177581560Y-109148880D01*
X177434240Y-109151420D01*
X177304700Y-109151420D01*
X177198020Y-109151420D01*
X177109120Y-109151420D01*
X177043080Y-109153960D01*
X176999900Y-109153960D01*
X176982120Y-109153960D01*
X176921160Y-109161580D01*
X176921160Y-111386620D01*
X176921160Y-113611660D01*
X176921160Y-113611660D01*
G36*
X178788060Y-113154460D02*
X178800760Y-113202720D01*
X178828700Y-113248440D01*
X178838860Y-113261140D01*
X178889660Y-113301780D01*
X178958240Y-113332260D01*
X179036980Y-113347500D01*
X179115720Y-113350040D01*
X179125880Y-113347500D01*
X179214780Y-113327180D01*
X179285900Y-113289080D01*
X179339240Y-113238280D01*
X179372260Y-113172240D01*
X179374800Y-113164620D01*
X179382420Y-113126520D01*
X179374800Y-113103660D01*
X179351940Y-113090960D01*
X179308760Y-113090960D01*
X179298600Y-113090960D01*
X179257960Y-113096040D01*
X179235100Y-113103660D01*
X179224940Y-113118900D01*
X179217320Y-113139220D01*
X179189380Y-113184940D01*
X179146200Y-113212880D01*
X179092860Y-113228120D01*
X179031900Y-113223040D01*
X178996340Y-113210340D01*
X178958240Y-113187480D01*
X178943000Y-113159540D01*
X178945540Y-113123980D01*
X178953160Y-113106200D01*
X178970940Y-113088420D01*
X179003960Y-113073180D01*
X179052220Y-113052860D01*
X179120800Y-113032540D01*
X179158900Y-113019840D01*
X179217320Y-112999520D01*
X179260500Y-112981740D01*
X179290980Y-112961420D01*
X179308760Y-112943640D01*
X179344320Y-112885220D01*
X179357020Y-112829340D01*
X179351940Y-112770920D01*
X179326540Y-112720120D01*
X179283360Y-112674400D01*
X179230020Y-112638840D01*
X179163980Y-112615980D01*
X179090320Y-112608360D01*
X179019200Y-112615980D01*
X178935380Y-112638840D01*
X178874420Y-112676940D01*
X178836320Y-112727740D01*
X178816000Y-112791240D01*
X178816000Y-112793780D01*
X178808380Y-112847120D01*
X178882040Y-112847120D01*
X178922680Y-112844580D01*
X178945540Y-112839500D01*
X178958240Y-112829340D01*
X178968400Y-112806480D01*
X178993800Y-112768380D01*
X179034440Y-112742980D01*
X179082700Y-112732820D01*
X179130960Y-112737900D01*
X179174140Y-112760760D01*
X179176680Y-112763300D01*
X179202080Y-112791240D01*
X179204620Y-112811560D01*
X179191920Y-112836960D01*
X179186840Y-112844580D01*
X179158900Y-112862360D01*
X179105560Y-112885220D01*
X179029360Y-112908080D01*
X179024280Y-112908080D01*
X178937920Y-112936020D01*
X178876960Y-112963960D01*
X178833780Y-112994440D01*
X178805840Y-113035080D01*
X178790600Y-113083340D01*
X178790600Y-113093500D01*
X178788060Y-113154460D01*
X178788060Y-113154460D01*
X178788060Y-113154460D01*
G37*
X178788060Y-113154460D02*
X178800760Y-113202720D01*
X178828700Y-113248440D01*
X178838860Y-113261140D01*
X178889660Y-113301780D01*
X178958240Y-113332260D01*
X179036980Y-113347500D01*
X179115720Y-113350040D01*
X179125880Y-113347500D01*
X179214780Y-113327180D01*
X179285900Y-113289080D01*
X179339240Y-113238280D01*
X179372260Y-113172240D01*
X179374800Y-113164620D01*
X179382420Y-113126520D01*
X179374800Y-113103660D01*
X179351940Y-113090960D01*
X179308760Y-113090960D01*
X179298600Y-113090960D01*
X179257960Y-113096040D01*
X179235100Y-113103660D01*
X179224940Y-113118900D01*
X179217320Y-113139220D01*
X179189380Y-113184940D01*
X179146200Y-113212880D01*
X179092860Y-113228120D01*
X179031900Y-113223040D01*
X178996340Y-113210340D01*
X178958240Y-113187480D01*
X178943000Y-113159540D01*
X178945540Y-113123980D01*
X178953160Y-113106200D01*
X178970940Y-113088420D01*
X179003960Y-113073180D01*
X179052220Y-113052860D01*
X179120800Y-113032540D01*
X179158900Y-113019840D01*
X179217320Y-112999520D01*
X179260500Y-112981740D01*
X179290980Y-112961420D01*
X179308760Y-112943640D01*
X179344320Y-112885220D01*
X179357020Y-112829340D01*
X179351940Y-112770920D01*
X179326540Y-112720120D01*
X179283360Y-112674400D01*
X179230020Y-112638840D01*
X179163980Y-112615980D01*
X179090320Y-112608360D01*
X179019200Y-112615980D01*
X178935380Y-112638840D01*
X178874420Y-112676940D01*
X178836320Y-112727740D01*
X178816000Y-112791240D01*
X178816000Y-112793780D01*
X178808380Y-112847120D01*
X178882040Y-112847120D01*
X178922680Y-112844580D01*
X178945540Y-112839500D01*
X178958240Y-112829340D01*
X178968400Y-112806480D01*
X178993800Y-112768380D01*
X179034440Y-112742980D01*
X179082700Y-112732820D01*
X179130960Y-112737900D01*
X179174140Y-112760760D01*
X179176680Y-112763300D01*
X179202080Y-112791240D01*
X179204620Y-112811560D01*
X179191920Y-112836960D01*
X179186840Y-112844580D01*
X179158900Y-112862360D01*
X179105560Y-112885220D01*
X179029360Y-112908080D01*
X179024280Y-112908080D01*
X178937920Y-112936020D01*
X178876960Y-112963960D01*
X178833780Y-112994440D01*
X178805840Y-113035080D01*
X178790600Y-113083340D01*
X178790600Y-113093500D01*
X178788060Y-113154460D01*
X178788060Y-113154460D01*
G36*
X181510940Y-113154460D02*
X181531260Y-113220500D01*
X181571900Y-113273840D01*
X181627780Y-113306860D01*
X181650640Y-113317020D01*
X181673500Y-113322100D01*
X181673500Y-113113820D01*
X181678580Y-113075720D01*
X181693820Y-113050320D01*
X181698900Y-113047780D01*
X181698900Y-112821720D01*
X181711600Y-112786160D01*
X181719220Y-112776000D01*
X181739540Y-112765840D01*
X181772560Y-112760760D01*
X181828440Y-112758220D01*
X181838600Y-112758220D01*
X181935120Y-112758220D01*
X181940200Y-112798860D01*
X181942740Y-112839500D01*
X181942740Y-112875060D01*
X181937660Y-112892840D01*
X181930040Y-112903000D01*
X181914800Y-112908080D01*
X181879240Y-112910620D01*
X181848760Y-112910620D01*
X181782720Y-112908080D01*
X181739540Y-112897920D01*
X181726840Y-112890300D01*
X181703980Y-112859820D01*
X181698900Y-112821720D01*
X181698900Y-113047780D01*
X181724300Y-113035080D01*
X181775100Y-113027460D01*
X181836060Y-113024920D01*
X181937660Y-113024920D01*
X181937660Y-113113820D01*
X181937660Y-113205260D01*
X181830980Y-113205260D01*
X181770020Y-113202720D01*
X181731920Y-113197640D01*
X181706520Y-113190020D01*
X181696360Y-113182400D01*
X181678580Y-113149380D01*
X181673500Y-113113820D01*
X181673500Y-113322100D01*
X181678580Y-113322100D01*
X181714140Y-113327180D01*
X181764940Y-113329720D01*
X181830980Y-113332260D01*
X181894480Y-113332260D01*
X182105300Y-113332260D01*
X182105300Y-112981740D01*
X182105300Y-112628680D01*
X181897020Y-112628680D01*
X181803040Y-112631220D01*
X181734460Y-112633760D01*
X181681120Y-112638840D01*
X181643020Y-112649000D01*
X181612540Y-112661700D01*
X181589680Y-112682020D01*
X181579520Y-112689640D01*
X181561740Y-112725200D01*
X181549040Y-112776000D01*
X181546500Y-112826800D01*
X181551580Y-112852200D01*
X181566820Y-112885220D01*
X181592220Y-112918240D01*
X181594760Y-112920780D01*
X181615080Y-112941100D01*
X181617620Y-112953800D01*
X181610000Y-112958880D01*
X181574440Y-112981740D01*
X181541420Y-113019840D01*
X181518560Y-113063020D01*
X181513480Y-113080800D01*
X181510940Y-113154460D01*
X181510940Y-113154460D01*
X181510940Y-113154460D01*
G37*
X181510940Y-113154460D02*
X181531260Y-113220500D01*
X181571900Y-113273840D01*
X181627780Y-113306860D01*
X181650640Y-113317020D01*
X181673500Y-113322100D01*
X181673500Y-113113820D01*
X181678580Y-113075720D01*
X181693820Y-113050320D01*
X181698900Y-113047780D01*
X181698900Y-112821720D01*
X181711600Y-112786160D01*
X181719220Y-112776000D01*
X181739540Y-112765840D01*
X181772560Y-112760760D01*
X181828440Y-112758220D01*
X181838600Y-112758220D01*
X181935120Y-112758220D01*
X181940200Y-112798860D01*
X181942740Y-112839500D01*
X181942740Y-112875060D01*
X181937660Y-112892840D01*
X181930040Y-112903000D01*
X181914800Y-112908080D01*
X181879240Y-112910620D01*
X181848760Y-112910620D01*
X181782720Y-112908080D01*
X181739540Y-112897920D01*
X181726840Y-112890300D01*
X181703980Y-112859820D01*
X181698900Y-112821720D01*
X181698900Y-113047780D01*
X181724300Y-113035080D01*
X181775100Y-113027460D01*
X181836060Y-113024920D01*
X181937660Y-113024920D01*
X181937660Y-113113820D01*
X181937660Y-113205260D01*
X181830980Y-113205260D01*
X181770020Y-113202720D01*
X181731920Y-113197640D01*
X181706520Y-113190020D01*
X181696360Y-113182400D01*
X181678580Y-113149380D01*
X181673500Y-113113820D01*
X181673500Y-113322100D01*
X181678580Y-113322100D01*
X181714140Y-113327180D01*
X181764940Y-113329720D01*
X181830980Y-113332260D01*
X181894480Y-113332260D01*
X182105300Y-113332260D01*
X182105300Y-112981740D01*
X182105300Y-112628680D01*
X181897020Y-112628680D01*
X181803040Y-112631220D01*
X181734460Y-112633760D01*
X181681120Y-112638840D01*
X181643020Y-112649000D01*
X181612540Y-112661700D01*
X181589680Y-112682020D01*
X181579520Y-112689640D01*
X181561740Y-112725200D01*
X181549040Y-112776000D01*
X181546500Y-112826800D01*
X181551580Y-112852200D01*
X181566820Y-112885220D01*
X181592220Y-112918240D01*
X181594760Y-112920780D01*
X181615080Y-112941100D01*
X181617620Y-112953800D01*
X181610000Y-112958880D01*
X181574440Y-112981740D01*
X181541420Y-113019840D01*
X181518560Y-113063020D01*
X181513480Y-113080800D01*
X181510940Y-113154460D01*
X181510940Y-113154460D01*
G36*
X180804820Y-112628680D02*
X180939440Y-112852200D01*
X181074060Y-113075720D01*
X181074060Y-113202720D01*
X181074060Y-113332260D01*
X181150260Y-113332260D01*
X181226460Y-113332260D01*
X181226460Y-113197640D01*
X181226460Y-113060480D01*
X181350920Y-112854740D01*
X181389020Y-112788700D01*
X181422040Y-112730280D01*
X181449980Y-112684560D01*
X181470300Y-112654080D01*
X181477920Y-112638840D01*
X181467760Y-112633760D01*
X181439820Y-112631220D01*
X181399180Y-112628680D01*
X181394100Y-112628680D01*
X181305200Y-112628680D01*
X181226460Y-112765840D01*
X181188360Y-112826800D01*
X181162960Y-112864900D01*
X181145180Y-112885220D01*
X181135020Y-112882680D01*
X181124860Y-112864900D01*
X181104540Y-112831880D01*
X181079140Y-112786160D01*
X181056280Y-112750600D01*
X180990240Y-112636300D01*
X180898800Y-112631220D01*
X180804820Y-112628680D01*
X180804820Y-112628680D01*
X180804820Y-112628680D01*
G37*
X180804820Y-112628680D02*
X180939440Y-112852200D01*
X181074060Y-113075720D01*
X181074060Y-113202720D01*
X181074060Y-113332260D01*
X181150260Y-113332260D01*
X181226460Y-113332260D01*
X181226460Y-113197640D01*
X181226460Y-113060480D01*
X181350920Y-112854740D01*
X181389020Y-112788700D01*
X181422040Y-112730280D01*
X181449980Y-112684560D01*
X181470300Y-112654080D01*
X181477920Y-112638840D01*
X181467760Y-112633760D01*
X181439820Y-112631220D01*
X181399180Y-112628680D01*
X181394100Y-112628680D01*
X181305200Y-112628680D01*
X181226460Y-112765840D01*
X181188360Y-112826800D01*
X181162960Y-112864900D01*
X181145180Y-112885220D01*
X181135020Y-112882680D01*
X181124860Y-112864900D01*
X181104540Y-112831880D01*
X181079140Y-112786160D01*
X181056280Y-112750600D01*
X180990240Y-112636300D01*
X180898800Y-112631220D01*
X180804820Y-112628680D01*
X180804820Y-112628680D01*
G36*
X178084480Y-113322100D02*
X178094640Y-113327180D01*
X178127660Y-113329720D01*
X178165760Y-113332260D01*
X178247040Y-113332260D01*
X178269900Y-113256060D01*
X178292760Y-113179860D01*
X178341020Y-113179860D01*
X178341020Y-113050320D01*
X178381660Y-112936020D01*
X178396900Y-112887760D01*
X178414680Y-112849660D01*
X178424840Y-112831880D01*
X178427380Y-112829340D01*
X178437540Y-112844580D01*
X178450240Y-112877600D01*
X178465480Y-112920780D01*
X178480720Y-112966500D01*
X178495960Y-113007140D01*
X178503580Y-113035080D01*
X178506120Y-113042700D01*
X178493420Y-113047780D01*
X178462940Y-113050320D01*
X178424840Y-113050320D01*
X178341020Y-113050320D01*
X178341020Y-113179860D01*
X178424840Y-113179860D01*
X178554380Y-113179860D01*
X178582320Y-113256060D01*
X178610260Y-113332260D01*
X178691540Y-113332260D01*
X178770280Y-113332260D01*
X178638200Y-112984280D01*
X178508660Y-112636300D01*
X178422300Y-112636300D01*
X178338480Y-112636300D01*
X178211480Y-112974120D01*
X178178460Y-113063020D01*
X178147980Y-113141760D01*
X178122580Y-113210340D01*
X178104800Y-113266220D01*
X178089560Y-113304320D01*
X178084480Y-113322100D01*
X178084480Y-113322100D01*
X178084480Y-113322100D01*
X178084480Y-113322100D01*
G37*
X178084480Y-113322100D02*
X178094640Y-113327180D01*
X178127660Y-113329720D01*
X178165760Y-113332260D01*
X178247040Y-113332260D01*
X178269900Y-113256060D01*
X178292760Y-113179860D01*
X178341020Y-113179860D01*
X178341020Y-113050320D01*
X178381660Y-112936020D01*
X178396900Y-112887760D01*
X178414680Y-112849660D01*
X178424840Y-112831880D01*
X178427380Y-112829340D01*
X178437540Y-112844580D01*
X178450240Y-112877600D01*
X178465480Y-112920780D01*
X178480720Y-112966500D01*
X178495960Y-113007140D01*
X178503580Y-113035080D01*
X178506120Y-113042700D01*
X178493420Y-113047780D01*
X178462940Y-113050320D01*
X178424840Y-113050320D01*
X178341020Y-113050320D01*
X178341020Y-113179860D01*
X178424840Y-113179860D01*
X178554380Y-113179860D01*
X178582320Y-113256060D01*
X178610260Y-113332260D01*
X178691540Y-113332260D01*
X178770280Y-113332260D01*
X178638200Y-112984280D01*
X178508660Y-112636300D01*
X178422300Y-112636300D01*
X178338480Y-112636300D01*
X178211480Y-112974120D01*
X178178460Y-113063020D01*
X178147980Y-113141760D01*
X178122580Y-113210340D01*
X178104800Y-113266220D01*
X178089560Y-113304320D01*
X178084480Y-113322100D01*
X178084480Y-113322100D01*
X178084480Y-113322100D01*
G36*
X183040020Y-111203740D02*
X183040020Y-111295180D01*
X183045100Y-111417100D01*
X183055260Y-111523780D01*
X183073040Y-111617760D01*
X183095900Y-111709200D01*
X183126380Y-111803180D01*
X183151780Y-111869220D01*
X183230520Y-112034320D01*
X183332120Y-112191800D01*
X183334660Y-112194340D01*
X183334660Y-111203740D01*
X183347360Y-111025940D01*
X183385460Y-110853220D01*
X183443880Y-110685580D01*
X183522620Y-110528100D01*
X183624220Y-110383320D01*
X183743600Y-110248700D01*
X183883300Y-110129320D01*
X184040780Y-110027720D01*
X184048400Y-110022640D01*
X184200800Y-109951520D01*
X184365900Y-109900720D01*
X184536080Y-109872780D01*
X184711340Y-109862620D01*
X184884060Y-109875320D01*
X185054240Y-109908340D01*
X185216800Y-109964220D01*
X185320940Y-110012480D01*
X185465720Y-110103920D01*
X185600340Y-110215680D01*
X185724800Y-110342680D01*
X185831480Y-110482380D01*
X185917840Y-110632240D01*
X185986420Y-110787180D01*
X186011820Y-110876080D01*
X186049920Y-111061500D01*
X186060080Y-111241840D01*
X186047380Y-111419640D01*
X186006740Y-111592360D01*
X185945780Y-111760000D01*
X185859420Y-111920020D01*
X185752740Y-112069880D01*
X185623200Y-112207040D01*
X185478420Y-112328960D01*
X185323480Y-112428020D01*
X185163460Y-112501680D01*
X184993280Y-112552480D01*
X184815480Y-112577880D01*
X184630060Y-112580420D01*
X184462420Y-112562640D01*
X184304940Y-112527080D01*
X184152540Y-112468660D01*
X184002680Y-112389920D01*
X183862980Y-112293400D01*
X183735980Y-112184180D01*
X183621680Y-112059720D01*
X183525160Y-111927640D01*
X183451500Y-111787940D01*
X183433720Y-111744760D01*
X183375300Y-111564420D01*
X183342280Y-111381540D01*
X183334660Y-111203740D01*
X183334660Y-112194340D01*
X183451500Y-112336580D01*
X183586120Y-112468660D01*
X183735980Y-112585500D01*
X183896000Y-112687100D01*
X184063640Y-112768380D01*
X184238900Y-112829340D01*
X184414160Y-112867440D01*
X184500520Y-112877600D01*
X184581800Y-112885220D01*
X184645300Y-112887760D01*
X184698640Y-112890300D01*
X184749440Y-112890300D01*
X184800240Y-112887760D01*
X184845960Y-112885220D01*
X185041540Y-112857280D01*
X185226960Y-112809020D01*
X185402220Y-112735360D01*
X185572400Y-112641380D01*
X185732420Y-112522000D01*
X185889900Y-112377220D01*
X185892440Y-112372140D01*
X186029600Y-112217200D01*
X186141360Y-112057180D01*
X186227720Y-111889540D01*
X186293760Y-111714280D01*
X186334400Y-111526320D01*
X186354720Y-111330740D01*
X186359800Y-111226600D01*
X186349640Y-111043720D01*
X186326780Y-110873540D01*
X186286140Y-110713520D01*
X186225180Y-110556040D01*
X186176920Y-110459520D01*
X186072780Y-110284260D01*
X185950860Y-110126780D01*
X185811160Y-109984540D01*
X185656220Y-109860080D01*
X185491120Y-109755940D01*
X185313320Y-109669580D01*
X185127900Y-109608620D01*
X185011060Y-109583220D01*
X184927240Y-109570520D01*
X184825640Y-109565440D01*
X184713880Y-109562900D01*
X184602120Y-109562900D01*
X184497980Y-109570520D01*
X184406540Y-109580680D01*
X184386220Y-109583220D01*
X184193180Y-109631480D01*
X184007760Y-109700060D01*
X183832500Y-109791500D01*
X183672480Y-109903260D01*
X183525160Y-110032800D01*
X183393080Y-110177580D01*
X183278780Y-110337600D01*
X183184800Y-110510320D01*
X183111140Y-110695740D01*
X183095900Y-110741460D01*
X183073040Y-110830360D01*
X183057800Y-110914180D01*
X183045100Y-111000540D01*
X183040020Y-111094520D01*
X183040020Y-111203740D01*
X183040020Y-111203740D01*
X183040020Y-111203740D01*
G37*
X183040020Y-111203740D02*
X183040020Y-111295180D01*
X183045100Y-111417100D01*
X183055260Y-111523780D01*
X183073040Y-111617760D01*
X183095900Y-111709200D01*
X183126380Y-111803180D01*
X183151780Y-111869220D01*
X183230520Y-112034320D01*
X183332120Y-112191800D01*
X183334660Y-112194340D01*
X183334660Y-111203740D01*
X183347360Y-111025940D01*
X183385460Y-110853220D01*
X183443880Y-110685580D01*
X183522620Y-110528100D01*
X183624220Y-110383320D01*
X183743600Y-110248700D01*
X183883300Y-110129320D01*
X184040780Y-110027720D01*
X184048400Y-110022640D01*
X184200800Y-109951520D01*
X184365900Y-109900720D01*
X184536080Y-109872780D01*
X184711340Y-109862620D01*
X184884060Y-109875320D01*
X185054240Y-109908340D01*
X185216800Y-109964220D01*
X185320940Y-110012480D01*
X185465720Y-110103920D01*
X185600340Y-110215680D01*
X185724800Y-110342680D01*
X185831480Y-110482380D01*
X185917840Y-110632240D01*
X185986420Y-110787180D01*
X186011820Y-110876080D01*
X186049920Y-111061500D01*
X186060080Y-111241840D01*
X186047380Y-111419640D01*
X186006740Y-111592360D01*
X185945780Y-111760000D01*
X185859420Y-111920020D01*
X185752740Y-112069880D01*
X185623200Y-112207040D01*
X185478420Y-112328960D01*
X185323480Y-112428020D01*
X185163460Y-112501680D01*
X184993280Y-112552480D01*
X184815480Y-112577880D01*
X184630060Y-112580420D01*
X184462420Y-112562640D01*
X184304940Y-112527080D01*
X184152540Y-112468660D01*
X184002680Y-112389920D01*
X183862980Y-112293400D01*
X183735980Y-112184180D01*
X183621680Y-112059720D01*
X183525160Y-111927640D01*
X183451500Y-111787940D01*
X183433720Y-111744760D01*
X183375300Y-111564420D01*
X183342280Y-111381540D01*
X183334660Y-111203740D01*
X183334660Y-112194340D01*
X183451500Y-112336580D01*
X183586120Y-112468660D01*
X183735980Y-112585500D01*
X183896000Y-112687100D01*
X184063640Y-112768380D01*
X184238900Y-112829340D01*
X184414160Y-112867440D01*
X184500520Y-112877600D01*
X184581800Y-112885220D01*
X184645300Y-112887760D01*
X184698640Y-112890300D01*
X184749440Y-112890300D01*
X184800240Y-112887760D01*
X184845960Y-112885220D01*
X185041540Y-112857280D01*
X185226960Y-112809020D01*
X185402220Y-112735360D01*
X185572400Y-112641380D01*
X185732420Y-112522000D01*
X185889900Y-112377220D01*
X185892440Y-112372140D01*
X186029600Y-112217200D01*
X186141360Y-112057180D01*
X186227720Y-111889540D01*
X186293760Y-111714280D01*
X186334400Y-111526320D01*
X186354720Y-111330740D01*
X186359800Y-111226600D01*
X186349640Y-111043720D01*
X186326780Y-110873540D01*
X186286140Y-110713520D01*
X186225180Y-110556040D01*
X186176920Y-110459520D01*
X186072780Y-110284260D01*
X185950860Y-110126780D01*
X185811160Y-109984540D01*
X185656220Y-109860080D01*
X185491120Y-109755940D01*
X185313320Y-109669580D01*
X185127900Y-109608620D01*
X185011060Y-109583220D01*
X184927240Y-109570520D01*
X184825640Y-109565440D01*
X184713880Y-109562900D01*
X184602120Y-109562900D01*
X184497980Y-109570520D01*
X184406540Y-109580680D01*
X184386220Y-109583220D01*
X184193180Y-109631480D01*
X184007760Y-109700060D01*
X183832500Y-109791500D01*
X183672480Y-109903260D01*
X183525160Y-110032800D01*
X183393080Y-110177580D01*
X183278780Y-110337600D01*
X183184800Y-110510320D01*
X183111140Y-110695740D01*
X183095900Y-110741460D01*
X183073040Y-110830360D01*
X183057800Y-110914180D01*
X183045100Y-111000540D01*
X183040020Y-111094520D01*
X183040020Y-111203740D01*
X183040020Y-111203740D01*
G36*
X180174900Y-110741460D02*
X180185060Y-110914180D01*
X180213000Y-111071660D01*
X180261260Y-111216440D01*
X180329840Y-111353600D01*
X180408580Y-111462820D01*
X180408580Y-110741460D01*
X180416200Y-110604300D01*
X180436520Y-110482380D01*
X180474620Y-110365540D01*
X180502560Y-110302040D01*
X180576220Y-110175040D01*
X180672740Y-110058200D01*
X180784500Y-109954060D01*
X180908960Y-109865160D01*
X181043580Y-109799120D01*
X181124860Y-109768640D01*
X181165500Y-109755940D01*
X181206140Y-109748320D01*
X181251860Y-109743240D01*
X181305200Y-109740700D01*
X181376320Y-109738160D01*
X181411880Y-109738160D01*
X181490620Y-109740700D01*
X181551580Y-109740700D01*
X181599840Y-109745780D01*
X181640480Y-109753400D01*
X181681120Y-109763560D01*
X181698900Y-109768640D01*
X181846220Y-109827060D01*
X181978300Y-109908340D01*
X182100220Y-110007400D01*
X182206900Y-110124240D01*
X182295800Y-110256320D01*
X182361840Y-110401100D01*
X182389780Y-110482380D01*
X182405020Y-110563660D01*
X182415180Y-110660180D01*
X182417720Y-110761780D01*
X182412640Y-110860840D01*
X182402480Y-110949740D01*
X182394860Y-110982760D01*
X182338980Y-111132620D01*
X182262780Y-111272320D01*
X182166260Y-111399320D01*
X182051960Y-111511080D01*
X181983380Y-111561880D01*
X181851300Y-111643160D01*
X181706520Y-111701580D01*
X181554120Y-111737140D01*
X181396640Y-111744760D01*
X181267100Y-111734600D01*
X181150260Y-111709200D01*
X181030880Y-111668560D01*
X180919120Y-111615220D01*
X180891180Y-111599980D01*
X180850540Y-111572040D01*
X180799740Y-111531400D01*
X180743860Y-111480600D01*
X180690520Y-111429800D01*
X180690520Y-111429800D01*
X180632100Y-111373920D01*
X180588920Y-111323120D01*
X180555900Y-111277400D01*
X180527960Y-111229140D01*
X180512720Y-111201200D01*
X180464460Y-111089440D01*
X180431440Y-110977680D01*
X180413660Y-110863380D01*
X180408580Y-110741460D01*
X180408580Y-111462820D01*
X180418740Y-111480600D01*
X180517800Y-111589820D01*
X180654960Y-111711740D01*
X180797200Y-111810800D01*
X180949600Y-111887000D01*
X181109620Y-111937800D01*
X181112160Y-111940340D01*
X181188360Y-111953040D01*
X181277260Y-111963200D01*
X181373780Y-111970820D01*
X181467760Y-111973360D01*
X181549040Y-111970820D01*
X181602380Y-111965740D01*
X181770020Y-111925100D01*
X181930040Y-111861600D01*
X182079900Y-111775240D01*
X182222140Y-111668560D01*
X182283100Y-111610140D01*
X182402480Y-111472980D01*
X182499000Y-111330740D01*
X182572660Y-111173260D01*
X182613300Y-111048800D01*
X182626000Y-110992920D01*
X182636160Y-110939580D01*
X182641240Y-110886240D01*
X182643780Y-110822740D01*
X182646320Y-110749080D01*
X182641240Y-110629700D01*
X182633620Y-110533180D01*
X182623460Y-110477300D01*
X182575200Y-110312200D01*
X182504080Y-110157260D01*
X182412640Y-110015020D01*
X182303420Y-109882940D01*
X182178960Y-109768640D01*
X182041800Y-109672120D01*
X181894480Y-109595920D01*
X181734460Y-109540040D01*
X181703980Y-109532420D01*
X181625240Y-109519720D01*
X181528720Y-109512100D01*
X181427120Y-109509560D01*
X181320440Y-109509560D01*
X181221380Y-109517180D01*
X181135020Y-109529880D01*
X181091840Y-109540040D01*
X180926740Y-109595920D01*
X180771800Y-109677200D01*
X180627020Y-109781340D01*
X180497480Y-109905800D01*
X180383180Y-110048040D01*
X180370480Y-110063280D01*
X180296820Y-110185200D01*
X180243480Y-110304580D01*
X180205380Y-110431580D01*
X180182520Y-110571280D01*
X180174900Y-110726220D01*
X180174900Y-110741460D01*
X180174900Y-110741460D01*
X180174900Y-110741460D01*
G37*
X180174900Y-110741460D02*
X180185060Y-110914180D01*
X180213000Y-111071660D01*
X180261260Y-111216440D01*
X180329840Y-111353600D01*
X180408580Y-111462820D01*
X180408580Y-110741460D01*
X180416200Y-110604300D01*
X180436520Y-110482380D01*
X180474620Y-110365540D01*
X180502560Y-110302040D01*
X180576220Y-110175040D01*
X180672740Y-110058200D01*
X180784500Y-109954060D01*
X180908960Y-109865160D01*
X181043580Y-109799120D01*
X181124860Y-109768640D01*
X181165500Y-109755940D01*
X181206140Y-109748320D01*
X181251860Y-109743240D01*
X181305200Y-109740700D01*
X181376320Y-109738160D01*
X181411880Y-109738160D01*
X181490620Y-109740700D01*
X181551580Y-109740700D01*
X181599840Y-109745780D01*
X181640480Y-109753400D01*
X181681120Y-109763560D01*
X181698900Y-109768640D01*
X181846220Y-109827060D01*
X181978300Y-109908340D01*
X182100220Y-110007400D01*
X182206900Y-110124240D01*
X182295800Y-110256320D01*
X182361840Y-110401100D01*
X182389780Y-110482380D01*
X182405020Y-110563660D01*
X182415180Y-110660180D01*
X182417720Y-110761780D01*
X182412640Y-110860840D01*
X182402480Y-110949740D01*
X182394860Y-110982760D01*
X182338980Y-111132620D01*
X182262780Y-111272320D01*
X182166260Y-111399320D01*
X182051960Y-111511080D01*
X181983380Y-111561880D01*
X181851300Y-111643160D01*
X181706520Y-111701580D01*
X181554120Y-111737140D01*
X181396640Y-111744760D01*
X181267100Y-111734600D01*
X181150260Y-111709200D01*
X181030880Y-111668560D01*
X180919120Y-111615220D01*
X180891180Y-111599980D01*
X180850540Y-111572040D01*
X180799740Y-111531400D01*
X180743860Y-111480600D01*
X180690520Y-111429800D01*
X180690520Y-111429800D01*
X180632100Y-111373920D01*
X180588920Y-111323120D01*
X180555900Y-111277400D01*
X180527960Y-111229140D01*
X180512720Y-111201200D01*
X180464460Y-111089440D01*
X180431440Y-110977680D01*
X180413660Y-110863380D01*
X180408580Y-110741460D01*
X180408580Y-111462820D01*
X180418740Y-111480600D01*
X180517800Y-111589820D01*
X180654960Y-111711740D01*
X180797200Y-111810800D01*
X180949600Y-111887000D01*
X181109620Y-111937800D01*
X181112160Y-111940340D01*
X181188360Y-111953040D01*
X181277260Y-111963200D01*
X181373780Y-111970820D01*
X181467760Y-111973360D01*
X181549040Y-111970820D01*
X181602380Y-111965740D01*
X181770020Y-111925100D01*
X181930040Y-111861600D01*
X182079900Y-111775240D01*
X182222140Y-111668560D01*
X182283100Y-111610140D01*
X182402480Y-111472980D01*
X182499000Y-111330740D01*
X182572660Y-111173260D01*
X182613300Y-111048800D01*
X182626000Y-110992920D01*
X182636160Y-110939580D01*
X182641240Y-110886240D01*
X182643780Y-110822740D01*
X182646320Y-110749080D01*
X182641240Y-110629700D01*
X182633620Y-110533180D01*
X182623460Y-110477300D01*
X182575200Y-110312200D01*
X182504080Y-110157260D01*
X182412640Y-110015020D01*
X182303420Y-109882940D01*
X182178960Y-109768640D01*
X182041800Y-109672120D01*
X181894480Y-109595920D01*
X181734460Y-109540040D01*
X181703980Y-109532420D01*
X181625240Y-109519720D01*
X181528720Y-109512100D01*
X181427120Y-109509560D01*
X181320440Y-109509560D01*
X181221380Y-109517180D01*
X181135020Y-109529880D01*
X181091840Y-109540040D01*
X180926740Y-109595920D01*
X180771800Y-109677200D01*
X180627020Y-109781340D01*
X180497480Y-109905800D01*
X180383180Y-110048040D01*
X180370480Y-110063280D01*
X180296820Y-110185200D01*
X180243480Y-110304580D01*
X180205380Y-110431580D01*
X180182520Y-110571280D01*
X180174900Y-110726220D01*
X180174900Y-110741460D01*
X180174900Y-110741460D01*
G36*
X177401220Y-110769400D02*
X177403760Y-110868460D01*
X177411380Y-110957360D01*
X177421540Y-111028480D01*
X177424080Y-111038640D01*
X177477420Y-111206280D01*
X177556160Y-111361220D01*
X177627280Y-111462820D01*
X177627280Y-110779560D01*
X177627280Y-110703360D01*
X177634900Y-110599220D01*
X177647600Y-110512860D01*
X177665380Y-110434120D01*
X177695860Y-110355380D01*
X177726340Y-110289340D01*
X177805080Y-110159800D01*
X177901600Y-110042960D01*
X178018440Y-109938820D01*
X178145440Y-109852460D01*
X178282600Y-109788960D01*
X178325780Y-109773720D01*
X178414680Y-109750860D01*
X178518820Y-109738160D01*
X178630580Y-109733080D01*
X178739800Y-109735620D01*
X178836320Y-109748320D01*
X178846480Y-109750860D01*
X178993800Y-109796580D01*
X179130960Y-109865160D01*
X179257960Y-109951520D01*
X179369720Y-110058200D01*
X179466240Y-110182660D01*
X179544980Y-110319820D01*
X179593240Y-110434120D01*
X179611020Y-110484920D01*
X179621180Y-110528100D01*
X179628800Y-110566200D01*
X179633880Y-110609380D01*
X179636420Y-110665260D01*
X179636420Y-110736380D01*
X179633880Y-110845600D01*
X179623720Y-110939580D01*
X179603400Y-111023400D01*
X179575460Y-111104680D01*
X179544980Y-111168180D01*
X179484020Y-111269780D01*
X179407820Y-111371380D01*
X179318920Y-111462820D01*
X179224940Y-111546640D01*
X179138580Y-111605060D01*
X179006500Y-111671100D01*
X178864260Y-111714280D01*
X178714400Y-111739680D01*
X178562000Y-111742220D01*
X178414680Y-111721900D01*
X178366420Y-111709200D01*
X178231800Y-111660940D01*
X178099720Y-111589820D01*
X177980340Y-111503460D01*
X177871120Y-111399320D01*
X177782220Y-111290100D01*
X177713640Y-111170720D01*
X177706020Y-111155480D01*
X177662840Y-111036100D01*
X177637440Y-110914180D01*
X177627280Y-110779560D01*
X177627280Y-111462820D01*
X177655220Y-111503460D01*
X177774600Y-111633000D01*
X177883820Y-111724440D01*
X178033680Y-111820960D01*
X178191160Y-111894620D01*
X178358800Y-111945420D01*
X178531520Y-111970820D01*
X178709320Y-111973360D01*
X178838860Y-111958120D01*
X179001420Y-111920020D01*
X179156360Y-111859060D01*
X179303680Y-111772700D01*
X179443380Y-111666020D01*
X179567840Y-111539020D01*
X179585620Y-111518700D01*
X179689760Y-111379000D01*
X179768500Y-111229140D01*
X179826920Y-111069120D01*
X179859940Y-110904020D01*
X179870100Y-110736380D01*
X179857400Y-110566200D01*
X179821840Y-110398560D01*
X179760880Y-110233460D01*
X179743100Y-110197900D01*
X179659280Y-110050580D01*
X179552600Y-109913420D01*
X179430680Y-109794040D01*
X179293520Y-109692440D01*
X179146200Y-109608620D01*
X178988720Y-109550200D01*
X178953160Y-109537500D01*
X178907440Y-109527340D01*
X178864260Y-109519720D01*
X178818540Y-109514640D01*
X178762660Y-109512100D01*
X178691540Y-109509560D01*
X178628040Y-109509560D01*
X178539140Y-109512100D01*
X178473100Y-109514640D01*
X178419760Y-109517180D01*
X178374040Y-109524800D01*
X178330860Y-109532420D01*
X178308000Y-109540040D01*
X178203860Y-109573060D01*
X178094640Y-109621320D01*
X177990500Y-109674660D01*
X177911760Y-109725460D01*
X177858420Y-109768640D01*
X177794920Y-109827060D01*
X177728880Y-109890560D01*
X177667920Y-109956600D01*
X177619660Y-110015020D01*
X177601880Y-110042960D01*
X177553620Y-110119160D01*
X177507900Y-110210600D01*
X177467260Y-110304580D01*
X177436780Y-110396020D01*
X177431700Y-110416340D01*
X177416460Y-110484920D01*
X177408840Y-110571280D01*
X177401220Y-110667800D01*
X177401220Y-110769400D01*
X177401220Y-110769400D01*
X177401220Y-110769400D01*
G37*
X177401220Y-110769400D02*
X177403760Y-110868460D01*
X177411380Y-110957360D01*
X177421540Y-111028480D01*
X177424080Y-111038640D01*
X177477420Y-111206280D01*
X177556160Y-111361220D01*
X177627280Y-111462820D01*
X177627280Y-110779560D01*
X177627280Y-110703360D01*
X177634900Y-110599220D01*
X177647600Y-110512860D01*
X177665380Y-110434120D01*
X177695860Y-110355380D01*
X177726340Y-110289340D01*
X177805080Y-110159800D01*
X177901600Y-110042960D01*
X178018440Y-109938820D01*
X178145440Y-109852460D01*
X178282600Y-109788960D01*
X178325780Y-109773720D01*
X178414680Y-109750860D01*
X178518820Y-109738160D01*
X178630580Y-109733080D01*
X178739800Y-109735620D01*
X178836320Y-109748320D01*
X178846480Y-109750860D01*
X178993800Y-109796580D01*
X179130960Y-109865160D01*
X179257960Y-109951520D01*
X179369720Y-110058200D01*
X179466240Y-110182660D01*
X179544980Y-110319820D01*
X179593240Y-110434120D01*
X179611020Y-110484920D01*
X179621180Y-110528100D01*
X179628800Y-110566200D01*
X179633880Y-110609380D01*
X179636420Y-110665260D01*
X179636420Y-110736380D01*
X179633880Y-110845600D01*
X179623720Y-110939580D01*
X179603400Y-111023400D01*
X179575460Y-111104680D01*
X179544980Y-111168180D01*
X179484020Y-111269780D01*
X179407820Y-111371380D01*
X179318920Y-111462820D01*
X179224940Y-111546640D01*
X179138580Y-111605060D01*
X179006500Y-111671100D01*
X178864260Y-111714280D01*
X178714400Y-111739680D01*
X178562000Y-111742220D01*
X178414680Y-111721900D01*
X178366420Y-111709200D01*
X178231800Y-111660940D01*
X178099720Y-111589820D01*
X177980340Y-111503460D01*
X177871120Y-111399320D01*
X177782220Y-111290100D01*
X177713640Y-111170720D01*
X177706020Y-111155480D01*
X177662840Y-111036100D01*
X177637440Y-110914180D01*
X177627280Y-110779560D01*
X177627280Y-111462820D01*
X177655220Y-111503460D01*
X177774600Y-111633000D01*
X177883820Y-111724440D01*
X178033680Y-111820960D01*
X178191160Y-111894620D01*
X178358800Y-111945420D01*
X178531520Y-111970820D01*
X178709320Y-111973360D01*
X178838860Y-111958120D01*
X179001420Y-111920020D01*
X179156360Y-111859060D01*
X179303680Y-111772700D01*
X179443380Y-111666020D01*
X179567840Y-111539020D01*
X179585620Y-111518700D01*
X179689760Y-111379000D01*
X179768500Y-111229140D01*
X179826920Y-111069120D01*
X179859940Y-110904020D01*
X179870100Y-110736380D01*
X179857400Y-110566200D01*
X179821840Y-110398560D01*
X179760880Y-110233460D01*
X179743100Y-110197900D01*
X179659280Y-110050580D01*
X179552600Y-109913420D01*
X179430680Y-109794040D01*
X179293520Y-109692440D01*
X179146200Y-109608620D01*
X178988720Y-109550200D01*
X178953160Y-109537500D01*
X178907440Y-109527340D01*
X178864260Y-109519720D01*
X178818540Y-109514640D01*
X178762660Y-109512100D01*
X178691540Y-109509560D01*
X178628040Y-109509560D01*
X178539140Y-109512100D01*
X178473100Y-109514640D01*
X178419760Y-109517180D01*
X178374040Y-109524800D01*
X178330860Y-109532420D01*
X178308000Y-109540040D01*
X178203860Y-109573060D01*
X178094640Y-109621320D01*
X177990500Y-109674660D01*
X177911760Y-109725460D01*
X177858420Y-109768640D01*
X177794920Y-109827060D01*
X177728880Y-109890560D01*
X177667920Y-109956600D01*
X177619660Y-110015020D01*
X177601880Y-110042960D01*
X177553620Y-110119160D01*
X177507900Y-110210600D01*
X177467260Y-110304580D01*
X177436780Y-110396020D01*
X177431700Y-110416340D01*
X177416460Y-110484920D01*
X177408840Y-110571280D01*
X177401220Y-110667800D01*
X177401220Y-110769400D01*
X177401220Y-110769400D01*
G36*
X184711340Y-111483140D02*
X184734200Y-111521240D01*
X184767220Y-111566960D01*
X184818020Y-111615220D01*
X184871360Y-111660940D01*
X184924700Y-111693960D01*
X184937400Y-111699040D01*
X185028840Y-111726980D01*
X185135520Y-111737140D01*
X185216800Y-111734600D01*
X185326020Y-111711740D01*
X185420000Y-111671100D01*
X185498740Y-111610140D01*
X185562240Y-111531400D01*
X185607960Y-111437420D01*
X185635900Y-111333280D01*
X185640980Y-111211360D01*
X185638440Y-111178340D01*
X185623200Y-111066580D01*
X185587640Y-110972600D01*
X185534300Y-110888780D01*
X185513980Y-110863380D01*
X185432700Y-110792260D01*
X185336180Y-110741460D01*
X185232040Y-110713520D01*
X185117740Y-110710980D01*
X185066940Y-110716060D01*
X185008520Y-110728760D01*
X184947560Y-110744000D01*
X184906920Y-110761780D01*
X184868820Y-110784640D01*
X184825640Y-110817660D01*
X184785000Y-110855760D01*
X184751980Y-110891320D01*
X184729120Y-110924340D01*
X184724040Y-110939580D01*
X184734200Y-110954820D01*
X184762140Y-110975140D01*
X184805320Y-110998000D01*
X184825640Y-111010700D01*
X184927240Y-111061500D01*
X184988200Y-110998000D01*
X185023760Y-110962440D01*
X185049160Y-110944660D01*
X185072020Y-110934500D01*
X185105040Y-110931960D01*
X185122820Y-110931960D01*
X185193940Y-110944660D01*
X185252360Y-110975140D01*
X185300620Y-111028480D01*
X185303160Y-111036100D01*
X185320940Y-111079280D01*
X185331100Y-111142780D01*
X185336180Y-111211360D01*
X185333640Y-111285020D01*
X185326020Y-111348520D01*
X185318400Y-111379000D01*
X185287920Y-111439960D01*
X185244740Y-111483140D01*
X185186320Y-111506000D01*
X185125360Y-111511080D01*
X185056780Y-111506000D01*
X185008520Y-111485680D01*
X184965340Y-111445040D01*
X184947560Y-111419640D01*
X184927240Y-111391700D01*
X184912000Y-111379000D01*
X184912000Y-111379000D01*
X184896760Y-111384080D01*
X184863740Y-111399320D01*
X184823100Y-111422180D01*
X184805320Y-111429800D01*
X184711340Y-111483140D01*
X184711340Y-111483140D01*
X184711340Y-111483140D01*
G37*
X184711340Y-111483140D02*
X184734200Y-111521240D01*
X184767220Y-111566960D01*
X184818020Y-111615220D01*
X184871360Y-111660940D01*
X184924700Y-111693960D01*
X184937400Y-111699040D01*
X185028840Y-111726980D01*
X185135520Y-111737140D01*
X185216800Y-111734600D01*
X185326020Y-111711740D01*
X185420000Y-111671100D01*
X185498740Y-111610140D01*
X185562240Y-111531400D01*
X185607960Y-111437420D01*
X185635900Y-111333280D01*
X185640980Y-111211360D01*
X185638440Y-111178340D01*
X185623200Y-111066580D01*
X185587640Y-110972600D01*
X185534300Y-110888780D01*
X185513980Y-110863380D01*
X185432700Y-110792260D01*
X185336180Y-110741460D01*
X185232040Y-110713520D01*
X185117740Y-110710980D01*
X185066940Y-110716060D01*
X185008520Y-110728760D01*
X184947560Y-110744000D01*
X184906920Y-110761780D01*
X184868820Y-110784640D01*
X184825640Y-110817660D01*
X184785000Y-110855760D01*
X184751980Y-110891320D01*
X184729120Y-110924340D01*
X184724040Y-110939580D01*
X184734200Y-110954820D01*
X184762140Y-110975140D01*
X184805320Y-110998000D01*
X184825640Y-111010700D01*
X184927240Y-111061500D01*
X184988200Y-110998000D01*
X185023760Y-110962440D01*
X185049160Y-110944660D01*
X185072020Y-110934500D01*
X185105040Y-110931960D01*
X185122820Y-110931960D01*
X185193940Y-110944660D01*
X185252360Y-110975140D01*
X185300620Y-111028480D01*
X185303160Y-111036100D01*
X185320940Y-111079280D01*
X185331100Y-111142780D01*
X185336180Y-111211360D01*
X185333640Y-111285020D01*
X185326020Y-111348520D01*
X185318400Y-111379000D01*
X185287920Y-111439960D01*
X185244740Y-111483140D01*
X185186320Y-111506000D01*
X185125360Y-111511080D01*
X185056780Y-111506000D01*
X185008520Y-111485680D01*
X184965340Y-111445040D01*
X184947560Y-111419640D01*
X184927240Y-111391700D01*
X184912000Y-111379000D01*
X184912000Y-111379000D01*
X184896760Y-111384080D01*
X184863740Y-111399320D01*
X184823100Y-111422180D01*
X184805320Y-111429800D01*
X184711340Y-111483140D01*
X184711340Y-111483140D01*
G36*
X183761380Y-111480600D02*
X183761380Y-111495840D01*
X183776620Y-111523780D01*
X183791860Y-111546640D01*
X183865520Y-111627920D01*
X183946800Y-111683800D01*
X184038240Y-111721900D01*
X184142380Y-111737140D01*
X184259220Y-111734600D01*
X184355740Y-111716820D01*
X184439560Y-111681260D01*
X184515760Y-111627920D01*
X184528460Y-111615220D01*
X184594500Y-111536480D01*
X184642760Y-111445040D01*
X184670700Y-111338360D01*
X184673240Y-111318040D01*
X184678320Y-111198660D01*
X184665620Y-111089440D01*
X184632600Y-110985300D01*
X184581800Y-110896400D01*
X184515760Y-110822740D01*
X184434480Y-110764320D01*
X184386220Y-110741460D01*
X184287160Y-110718600D01*
X184180480Y-110710980D01*
X184073800Y-110721140D01*
X183974740Y-110749080D01*
X183962040Y-110754160D01*
X183916320Y-110779560D01*
X183865520Y-110817660D01*
X183819800Y-110860840D01*
X183784240Y-110901480D01*
X183771540Y-110919260D01*
X183763920Y-110937040D01*
X183763920Y-110949740D01*
X183776620Y-110959900D01*
X183802020Y-110975140D01*
X183845200Y-110998000D01*
X183862980Y-111008160D01*
X183969660Y-111061500D01*
X184030620Y-110998000D01*
X184066180Y-110962440D01*
X184089040Y-110944660D01*
X184114440Y-110934500D01*
X184147460Y-110931960D01*
X184162700Y-110931960D01*
X184233820Y-110942120D01*
X184289700Y-110970060D01*
X184332880Y-111020860D01*
X184353200Y-111053880D01*
X184373520Y-111119920D01*
X184383680Y-111198660D01*
X184383680Y-111282480D01*
X184368440Y-111358680D01*
X184355740Y-111394240D01*
X184317640Y-111452660D01*
X184266840Y-111493300D01*
X184205880Y-111513620D01*
X184139840Y-111516160D01*
X184076340Y-111495840D01*
X184020460Y-111455200D01*
X183992520Y-111424720D01*
X183972200Y-111399320D01*
X183967120Y-111389160D01*
X183959500Y-111384080D01*
X183941720Y-111384080D01*
X183911240Y-111396780D01*
X183865520Y-111422180D01*
X183822340Y-111445040D01*
X183784240Y-111465360D01*
X183763920Y-111478060D01*
X183761380Y-111480600D01*
X183761380Y-111480600D01*
X183761380Y-111480600D01*
G37*
X183761380Y-111480600D02*
X183761380Y-111495840D01*
X183776620Y-111523780D01*
X183791860Y-111546640D01*
X183865520Y-111627920D01*
X183946800Y-111683800D01*
X184038240Y-111721900D01*
X184142380Y-111737140D01*
X184259220Y-111734600D01*
X184355740Y-111716820D01*
X184439560Y-111681260D01*
X184515760Y-111627920D01*
X184528460Y-111615220D01*
X184594500Y-111536480D01*
X184642760Y-111445040D01*
X184670700Y-111338360D01*
X184673240Y-111318040D01*
X184678320Y-111198660D01*
X184665620Y-111089440D01*
X184632600Y-110985300D01*
X184581800Y-110896400D01*
X184515760Y-110822740D01*
X184434480Y-110764320D01*
X184386220Y-110741460D01*
X184287160Y-110718600D01*
X184180480Y-110710980D01*
X184073800Y-110721140D01*
X183974740Y-110749080D01*
X183962040Y-110754160D01*
X183916320Y-110779560D01*
X183865520Y-110817660D01*
X183819800Y-110860840D01*
X183784240Y-110901480D01*
X183771540Y-110919260D01*
X183763920Y-110937040D01*
X183763920Y-110949740D01*
X183776620Y-110959900D01*
X183802020Y-110975140D01*
X183845200Y-110998000D01*
X183862980Y-111008160D01*
X183969660Y-111061500D01*
X184030620Y-110998000D01*
X184066180Y-110962440D01*
X184089040Y-110944660D01*
X184114440Y-110934500D01*
X184147460Y-110931960D01*
X184162700Y-110931960D01*
X184233820Y-110942120D01*
X184289700Y-110970060D01*
X184332880Y-111020860D01*
X184353200Y-111053880D01*
X184373520Y-111119920D01*
X184383680Y-111198660D01*
X184383680Y-111282480D01*
X184368440Y-111358680D01*
X184355740Y-111394240D01*
X184317640Y-111452660D01*
X184266840Y-111493300D01*
X184205880Y-111513620D01*
X184139840Y-111516160D01*
X184076340Y-111495840D01*
X184020460Y-111455200D01*
X183992520Y-111424720D01*
X183972200Y-111399320D01*
X183967120Y-111389160D01*
X183959500Y-111384080D01*
X183941720Y-111384080D01*
X183911240Y-111396780D01*
X183865520Y-111422180D01*
X183822340Y-111445040D01*
X183784240Y-111465360D01*
X183763920Y-111478060D01*
X183761380Y-111480600D01*
X183761380Y-111480600D01*
G36*
X181081680Y-110472220D02*
X181084220Y-110512860D01*
X181084220Y-110568740D01*
X181084220Y-110637320D01*
X181084220Y-110703360D01*
X181086760Y-110931960D01*
X181152800Y-110937040D01*
X181218840Y-110939580D01*
X181223920Y-111236760D01*
X181226460Y-111531400D01*
X181416960Y-111531400D01*
X181610000Y-111531400D01*
X181610000Y-111231680D01*
X181610000Y-110931960D01*
X181663340Y-110934500D01*
X181701440Y-110934500D01*
X181729380Y-110934500D01*
X181734460Y-110934500D01*
X181739540Y-110926880D01*
X181744620Y-110906560D01*
X181747160Y-110871000D01*
X181749700Y-110815120D01*
X181749700Y-110738920D01*
X181749700Y-110672880D01*
X181749700Y-110583980D01*
X181749700Y-110512860D01*
X181747160Y-110462060D01*
X181742080Y-110429040D01*
X181739540Y-110403640D01*
X181731920Y-110388400D01*
X181729380Y-110385860D01*
X181721760Y-110378240D01*
X181714140Y-110370620D01*
X181698900Y-110365540D01*
X181676040Y-110363000D01*
X181643020Y-110360460D01*
X181592220Y-110357920D01*
X181523640Y-110357920D01*
X181432200Y-110357920D01*
X181416960Y-110357920D01*
X181317900Y-110357920D01*
X181239160Y-110360460D01*
X181180740Y-110363000D01*
X181137560Y-110368080D01*
X181109620Y-110375700D01*
X181094380Y-110388400D01*
X181086760Y-110406180D01*
X181084220Y-110429040D01*
X181081680Y-110454440D01*
X181081680Y-110472220D01*
X181081680Y-110472220D01*
X181081680Y-110472220D01*
G37*
X181081680Y-110472220D02*
X181084220Y-110512860D01*
X181084220Y-110568740D01*
X181084220Y-110637320D01*
X181084220Y-110703360D01*
X181086760Y-110931960D01*
X181152800Y-110937040D01*
X181218840Y-110939580D01*
X181223920Y-111236760D01*
X181226460Y-111531400D01*
X181416960Y-111531400D01*
X181610000Y-111531400D01*
X181610000Y-111231680D01*
X181610000Y-110931960D01*
X181663340Y-110934500D01*
X181701440Y-110934500D01*
X181729380Y-110934500D01*
X181734460Y-110934500D01*
X181739540Y-110926880D01*
X181744620Y-110906560D01*
X181747160Y-110871000D01*
X181749700Y-110815120D01*
X181749700Y-110738920D01*
X181749700Y-110672880D01*
X181749700Y-110583980D01*
X181749700Y-110512860D01*
X181747160Y-110462060D01*
X181742080Y-110429040D01*
X181739540Y-110403640D01*
X181731920Y-110388400D01*
X181729380Y-110385860D01*
X181721760Y-110378240D01*
X181714140Y-110370620D01*
X181698900Y-110365540D01*
X181676040Y-110363000D01*
X181643020Y-110360460D01*
X181592220Y-110357920D01*
X181523640Y-110357920D01*
X181432200Y-110357920D01*
X181416960Y-110357920D01*
X181317900Y-110357920D01*
X181239160Y-110360460D01*
X181180740Y-110363000D01*
X181137560Y-110368080D01*
X181109620Y-110375700D01*
X181094380Y-110388400D01*
X181086760Y-110406180D01*
X181084220Y-110429040D01*
X181081680Y-110454440D01*
X181081680Y-110472220D01*
X181081680Y-110472220D01*
G36*
X181244240Y-110129320D02*
X181254400Y-110180120D01*
X181282340Y-110225840D01*
X181322980Y-110263940D01*
X181381400Y-110286800D01*
X181386480Y-110286800D01*
X181422040Y-110286800D01*
X181465220Y-110279180D01*
X181475380Y-110274100D01*
X181508400Y-110263940D01*
X181526180Y-110256320D01*
X181528720Y-110256320D01*
X181536340Y-110246160D01*
X181551580Y-110223300D01*
X181556660Y-110213140D01*
X181582060Y-110152180D01*
X181584600Y-110091220D01*
X181566820Y-110037880D01*
X181531260Y-109992160D01*
X181480460Y-109959140D01*
X181419500Y-109946440D01*
X181409340Y-109946440D01*
X181348380Y-109956600D01*
X181300120Y-109987080D01*
X181267100Y-110027720D01*
X181249320Y-110075980D01*
X181244240Y-110129320D01*
X181244240Y-110129320D01*
X181244240Y-110129320D01*
G37*
X181244240Y-110129320D02*
X181254400Y-110180120D01*
X181282340Y-110225840D01*
X181322980Y-110263940D01*
X181381400Y-110286800D01*
X181386480Y-110286800D01*
X181422040Y-110286800D01*
X181465220Y-110279180D01*
X181475380Y-110274100D01*
X181508400Y-110263940D01*
X181526180Y-110256320D01*
X181528720Y-110256320D01*
X181536340Y-110246160D01*
X181551580Y-110223300D01*
X181556660Y-110213140D01*
X181582060Y-110152180D01*
X181584600Y-110091220D01*
X181566820Y-110037880D01*
X181531260Y-109992160D01*
X181480460Y-109959140D01*
X181419500Y-109946440D01*
X181409340Y-109946440D01*
X181348380Y-109956600D01*
X181300120Y-109987080D01*
X181267100Y-110027720D01*
X181249320Y-110075980D01*
X181244240Y-110129320D01*
X181244240Y-110129320D01*
G36*
X178005740Y-110733840D02*
X178013360Y-110855760D01*
X178038760Y-110975140D01*
X178079400Y-111086900D01*
X178107340Y-111130080D01*
X178145440Y-111180880D01*
X178186080Y-111229140D01*
X178191160Y-111234220D01*
X178287680Y-111312960D01*
X178396900Y-111371380D01*
X178513740Y-111401860D01*
X178638200Y-111414560D01*
X178765200Y-111404400D01*
X178772820Y-111401860D01*
X178879500Y-111371380D01*
X178976020Y-111315500D01*
X179054760Y-111241840D01*
X179120800Y-111147860D01*
X179169060Y-111036100D01*
X179186840Y-110967520D01*
X179197000Y-110931960D01*
X179036980Y-110931960D01*
X178876960Y-110931960D01*
X178869340Y-110985300D01*
X178851560Y-111038640D01*
X178818540Y-111086900D01*
X178777900Y-111122460D01*
X178772820Y-111125000D01*
X178744880Y-111135160D01*
X178704240Y-111145320D01*
X178673760Y-111150400D01*
X178587400Y-111155480D01*
X178511200Y-111135160D01*
X178445160Y-111094520D01*
X178391820Y-111031020D01*
X178353720Y-110947200D01*
X178328320Y-110843060D01*
X178328320Y-110843060D01*
X178320700Y-110751620D01*
X178325780Y-110657640D01*
X178341020Y-110568740D01*
X178368960Y-110492540D01*
X178371500Y-110484920D01*
X178414680Y-110426500D01*
X178473100Y-110380780D01*
X178534060Y-110357920D01*
X178612800Y-110347760D01*
X178691540Y-110357920D01*
X178760120Y-110385860D01*
X178816000Y-110429040D01*
X178849020Y-110477300D01*
X178869340Y-110520480D01*
X178874420Y-110545880D01*
X178864260Y-110558580D01*
X178838860Y-110563660D01*
X178828700Y-110563660D01*
X178780440Y-110563660D01*
X178904900Y-110688120D01*
X179029360Y-110812580D01*
X179153820Y-110688120D01*
X179278280Y-110563660D01*
X179232560Y-110563660D01*
X179194460Y-110556040D01*
X179174140Y-110535720D01*
X179169060Y-110500160D01*
X179163980Y-110469680D01*
X179143660Y-110423960D01*
X179115720Y-110370620D01*
X179085240Y-110317280D01*
X179052220Y-110271560D01*
X179024280Y-110238540D01*
X178940460Y-110172500D01*
X178843940Y-110124240D01*
X178737260Y-110096300D01*
X178622960Y-110088680D01*
X178506120Y-110098840D01*
X178391820Y-110131860D01*
X178325780Y-110162340D01*
X178234340Y-110220760D01*
X178158140Y-110299500D01*
X178094640Y-110393480D01*
X178048920Y-110500160D01*
X178018440Y-110614460D01*
X178005740Y-110733840D01*
X178005740Y-110733840D01*
X178005740Y-110733840D01*
G37*
X178005740Y-110733840D02*
X178013360Y-110855760D01*
X178038760Y-110975140D01*
X178079400Y-111086900D01*
X178107340Y-111130080D01*
X178145440Y-111180880D01*
X178186080Y-111229140D01*
X178191160Y-111234220D01*
X178287680Y-111312960D01*
X178396900Y-111371380D01*
X178513740Y-111401860D01*
X178638200Y-111414560D01*
X178765200Y-111404400D01*
X178772820Y-111401860D01*
X178879500Y-111371380D01*
X178976020Y-111315500D01*
X179054760Y-111241840D01*
X179120800Y-111147860D01*
X179169060Y-111036100D01*
X179186840Y-110967520D01*
X179197000Y-110931960D01*
X179036980Y-110931960D01*
X178876960Y-110931960D01*
X178869340Y-110985300D01*
X178851560Y-111038640D01*
X178818540Y-111086900D01*
X178777900Y-111122460D01*
X178772820Y-111125000D01*
X178744880Y-111135160D01*
X178704240Y-111145320D01*
X178673760Y-111150400D01*
X178587400Y-111155480D01*
X178511200Y-111135160D01*
X178445160Y-111094520D01*
X178391820Y-111031020D01*
X178353720Y-110947200D01*
X178328320Y-110843060D01*
X178328320Y-110843060D01*
X178320700Y-110751620D01*
X178325780Y-110657640D01*
X178341020Y-110568740D01*
X178368960Y-110492540D01*
X178371500Y-110484920D01*
X178414680Y-110426500D01*
X178473100Y-110380780D01*
X178534060Y-110357920D01*
X178612800Y-110347760D01*
X178691540Y-110357920D01*
X178760120Y-110385860D01*
X178816000Y-110429040D01*
X178849020Y-110477300D01*
X178869340Y-110520480D01*
X178874420Y-110545880D01*
X178864260Y-110558580D01*
X178838860Y-110563660D01*
X178828700Y-110563660D01*
X178780440Y-110563660D01*
X178904900Y-110688120D01*
X179029360Y-110812580D01*
X179153820Y-110688120D01*
X179278280Y-110563660D01*
X179232560Y-110563660D01*
X179194460Y-110556040D01*
X179174140Y-110535720D01*
X179169060Y-110500160D01*
X179163980Y-110469680D01*
X179143660Y-110423960D01*
X179115720Y-110370620D01*
X179085240Y-110317280D01*
X179052220Y-110271560D01*
X179024280Y-110238540D01*
X178940460Y-110172500D01*
X178843940Y-110124240D01*
X178737260Y-110096300D01*
X178622960Y-110088680D01*
X178506120Y-110098840D01*
X178391820Y-110131860D01*
X178325780Y-110162340D01*
X178234340Y-110220760D01*
X178158140Y-110299500D01*
X178094640Y-110393480D01*
X178048920Y-110500160D01*
X178018440Y-110614460D01*
X178005740Y-110733840D01*
X178005740Y-110733840D01*
D14*
X189904595Y-112085381D02*
X189904595Y-111085381D01*
X189666500Y-111085381D01*
X189523642Y-111133000D01*
X189428404Y-111228238D01*
X189380785Y-111323476D01*
X189333166Y-111513952D01*
X189333166Y-111656810D01*
X189380785Y-111847286D01*
X189428404Y-111942524D01*
X189523642Y-112037762D01*
X189666500Y-112085381D01*
X189904595Y-112085381D01*
X188952214Y-111180619D02*
X188904595Y-111133000D01*
X188809357Y-111085381D01*
X188571261Y-111085381D01*
X188476023Y-111133000D01*
X188428404Y-111180619D01*
X188380785Y-111275857D01*
X188380785Y-111371095D01*
X188428404Y-111513952D01*
X188999833Y-112085381D01*
X188380785Y-112085381D01*
X196992833Y-97388881D02*
X196992833Y-98103167D01*
X197040453Y-98246024D01*
X197135691Y-98341262D01*
X197278548Y-98388881D01*
X197373786Y-98388881D01*
X195992833Y-98388881D02*
X196564262Y-98388881D01*
X196278548Y-98388881D02*
X196278548Y-97388881D01*
X196373786Y-97531738D01*
X196469024Y-97626976D01*
X196564262Y-97674595D01*
X174577333Y-97305881D02*
X174577333Y-98020167D01*
X174624953Y-98163024D01*
X174720191Y-98258262D01*
X174863048Y-98305881D01*
X174958286Y-98305881D01*
X174148762Y-97401119D02*
X174101143Y-97353500D01*
X174005905Y-97305881D01*
X173767809Y-97305881D01*
X173672571Y-97353500D01*
X173624952Y-97401119D01*
X173577333Y-97496357D01*
X173577333Y-97591595D01*
X173624952Y-97734452D01*
X174196381Y-98305881D01*
X173577333Y-98305881D01*
M02*
