G04 #@! TF.FileFunction,Soldermask,Bot*
%FSLAX46Y46*%
G04 Gerber Fmt 4.6, Leading zero omitted, Abs format (unit mm)*
G04 Created by KiCad (PCBNEW 4.0.7) date Sun Jul 15 15:44:11 2018*
%MOMM*%
%LPD*%
G01*
G04 APERTURE LIST*
%ADD10C,0.100000*%
%ADD11C,0.300000*%
%ADD12C,0.000120*%
%ADD13R,2.200000X2.200000*%
%ADD14C,2.200000*%
%ADD15R,2.100000X2.100000*%
%ADD16O,2.100000X2.100000*%
G04 APERTURE END LIST*
D10*
D11*
X195575071Y-76053071D02*
X195575071Y-74553071D01*
X195003643Y-74553071D01*
X194860785Y-74624500D01*
X194789357Y-74695929D01*
X194717928Y-74838786D01*
X194717928Y-75053071D01*
X194789357Y-75195929D01*
X194860785Y-75267357D01*
X195003643Y-75338786D01*
X195575071Y-75338786D01*
X194289357Y-74553071D02*
X193432214Y-74553071D01*
X193860785Y-76053071D02*
X193860785Y-74553071D01*
X192217928Y-76053071D02*
X192932214Y-76053071D01*
X192932214Y-74553071D01*
X190575071Y-76053071D02*
X190575071Y-74553071D01*
X189003642Y-76053071D02*
X189503642Y-75338786D01*
X189860785Y-76053071D02*
X189860785Y-74553071D01*
X189289357Y-74553071D01*
X189146499Y-74624500D01*
X189075071Y-74695929D01*
X189003642Y-74838786D01*
X189003642Y-75053071D01*
X189075071Y-75195929D01*
X189146499Y-75267357D01*
X189289357Y-75338786D01*
X189860785Y-75338786D01*
X187217928Y-76053071D02*
X187217928Y-75053071D01*
X187217928Y-75338786D02*
X187146500Y-75195929D01*
X187075071Y-75124500D01*
X186932214Y-75053071D01*
X186789357Y-75053071D01*
X185717929Y-75981643D02*
X185860786Y-76053071D01*
X186146500Y-76053071D01*
X186289357Y-75981643D01*
X186360786Y-75838786D01*
X186360786Y-75267357D01*
X186289357Y-75124500D01*
X186146500Y-75053071D01*
X185860786Y-75053071D01*
X185717929Y-75124500D01*
X185646500Y-75267357D01*
X185646500Y-75410214D01*
X186360786Y-75553071D01*
X185003643Y-76053071D02*
X185003643Y-75053071D01*
X185003643Y-75195929D02*
X184932215Y-75124500D01*
X184789357Y-75053071D01*
X184575072Y-75053071D01*
X184432215Y-75124500D01*
X184360786Y-75267357D01*
X184360786Y-76053071D01*
X184360786Y-75267357D02*
X184289357Y-75124500D01*
X184146500Y-75053071D01*
X183932215Y-75053071D01*
X183789357Y-75124500D01*
X183717929Y-75267357D01*
X183717929Y-76053071D01*
X182789357Y-76053071D02*
X182932215Y-75981643D01*
X183003643Y-75910214D01*
X183075072Y-75767357D01*
X183075072Y-75338786D01*
X183003643Y-75195929D01*
X182932215Y-75124500D01*
X182789357Y-75053071D01*
X182575072Y-75053071D01*
X182432215Y-75124500D01*
X182360786Y-75195929D01*
X182289357Y-75338786D01*
X182289357Y-75767357D01*
X182360786Y-75910214D01*
X182432215Y-75981643D01*
X182575072Y-76053071D01*
X182789357Y-76053071D01*
X181860786Y-75053071D02*
X181289357Y-75053071D01*
X181646500Y-74553071D02*
X181646500Y-75838786D01*
X181575072Y-75981643D01*
X181432214Y-76053071D01*
X181289357Y-76053071D01*
X180217929Y-75981643D02*
X180360786Y-76053071D01*
X180646500Y-76053071D01*
X180789357Y-75981643D01*
X180860786Y-75838786D01*
X180860786Y-75267357D01*
X180789357Y-75124500D01*
X180646500Y-75053071D01*
X180360786Y-75053071D01*
X180217929Y-75124500D01*
X180146500Y-75267357D01*
X180146500Y-75410214D01*
X180860786Y-75553071D01*
D12*
G36*
X184402430Y-96731129D02*
X184153304Y-96482394D01*
X183158365Y-97477333D01*
X182163100Y-96482394D01*
X181914365Y-96731129D01*
X183158365Y-97975194D01*
X184402430Y-96731129D01*
G37*
X184402430Y-96731129D02*
X184153304Y-96482394D01*
X183158365Y-97477333D01*
X182163100Y-96482394D01*
X181914365Y-96731129D01*
X183158365Y-97975194D01*
X184402430Y-96731129D01*
G36*
X185248024Y-98074584D02*
X185745885Y-98572053D01*
X185994620Y-98323318D01*
X184750555Y-97079318D01*
X184501820Y-97328379D01*
X184999289Y-97825849D01*
X184004350Y-98820853D01*
X184253085Y-99069914D01*
X185248024Y-98074584D01*
G37*
X185248024Y-98074584D02*
X185745885Y-98572053D01*
X185994620Y-98323318D01*
X184750555Y-97079318D01*
X184501820Y-97328379D01*
X184999289Y-97825849D01*
X184004350Y-98820853D01*
X184253085Y-99069914D01*
X185248024Y-98074584D01*
G36*
X187586810Y-99915899D02*
X186343136Y-98671834D01*
X185596540Y-99418430D01*
X186591870Y-100413369D01*
X186840605Y-100164634D01*
X186094401Y-99418430D01*
X186343136Y-99169304D01*
X187089340Y-99915899D01*
X186840605Y-100164634D01*
X186591870Y-100413369D01*
X186094401Y-100910839D01*
X186343136Y-101159899D01*
X187586810Y-99915899D01*
G37*
X187586810Y-99915899D02*
X186343136Y-98671834D01*
X185596540Y-99418430D01*
X186591870Y-100413369D01*
X186840605Y-100164634D01*
X186094401Y-99418430D01*
X186343136Y-99169304D01*
X187089340Y-99915899D01*
X186840605Y-100164634D01*
X186591870Y-100413369D01*
X186094401Y-100910839D01*
X186343136Y-101159899D01*
X187586810Y-99915899D01*
G36*
X184453038Y-100963207D02*
X184456886Y-100307914D01*
X184375170Y-100256263D01*
X184730403Y-99896465D01*
X185132005Y-100298393D01*
X184453038Y-100963207D01*
G37*
X184453038Y-100963207D02*
X184456886Y-100307914D01*
X184375170Y-100256263D01*
X184730403Y-99896465D01*
X185132005Y-100298393D01*
X184453038Y-100963207D01*
G36*
X184253085Y-100176308D02*
X183917678Y-99921899D01*
X184335584Y-99501907D01*
X184628861Y-99795249D01*
X184253085Y-100176308D01*
G37*
X184253085Y-100176308D02*
X183917678Y-99921899D01*
X184335584Y-99501907D01*
X184628861Y-99795249D01*
X184253085Y-100176308D01*
G36*
X189647448Y-98749376D02*
X189750424Y-98774093D01*
X189838531Y-98756420D01*
X189910334Y-98707964D01*
X189958855Y-98636096D01*
X189976855Y-98547988D01*
X189958855Y-98460273D01*
X189910334Y-98388469D01*
X189838531Y-98339622D01*
X189750424Y-98321949D01*
X189662317Y-98339622D01*
X189590514Y-98388469D01*
X189541993Y-98460273D01*
X189524319Y-98547988D01*
X189529993Y-98598596D01*
X189547341Y-98646726D01*
X188126735Y-100025202D01*
X187659721Y-99558188D01*
X189679991Y-97542484D01*
X189714686Y-97559114D01*
X189751468Y-97571505D01*
X189789684Y-97578549D01*
X189828619Y-97581027D01*
X189946790Y-97557288D01*
X190043376Y-97491876D01*
X190108853Y-97395291D01*
X190132918Y-97277119D01*
X190108853Y-97158556D01*
X190043376Y-97061971D01*
X189946790Y-96996494D01*
X189828619Y-96972820D01*
X189710055Y-96996494D01*
X189613470Y-97061971D01*
X189548058Y-97158556D01*
X189524319Y-97277119D01*
X189527515Y-97321336D01*
X189537428Y-97364118D01*
X189553341Y-97405204D01*
X189575645Y-97444073D01*
X187558832Y-99457364D01*
X187269793Y-99168260D01*
X188265776Y-98182190D01*
X188303667Y-98205147D01*
X188343253Y-98222168D01*
X188384665Y-98232798D01*
X188427512Y-98237363D01*
X188433838Y-98237363D01*
X188548163Y-98213625D01*
X188642270Y-98149256D01*
X188707029Y-98053714D01*
X188732138Y-97936586D01*
X188727507Y-97876848D01*
X188711986Y-97819849D01*
X188685769Y-97766763D01*
X188649704Y-97719351D01*
X188604770Y-97680090D01*
X188554162Y-97650743D01*
X188498924Y-97631961D01*
X188440230Y-97624526D01*
X188433512Y-97624526D01*
X188319580Y-97648265D01*
X188225472Y-97712633D01*
X188161039Y-97807849D01*
X188135604Y-97924586D01*
X188136974Y-97964238D01*
X188143691Y-98002454D01*
X188154713Y-98039562D01*
X188170626Y-98074975D01*
X187168578Y-99067045D01*
X186955255Y-98853722D01*
X187035537Y-98831418D01*
X187100688Y-98782963D01*
X187144513Y-98714681D01*
X187161534Y-98632574D01*
X187145948Y-98543749D01*
X187099970Y-98470511D01*
X187030580Y-98419969D01*
X186944625Y-98400143D01*
X186858670Y-98417099D01*
X186787911Y-98463468D01*
X186739064Y-98532467D01*
X186718520Y-98617378D01*
X186100075Y-97998868D01*
X186226725Y-98042041D01*
X186358331Y-98073931D01*
X186494177Y-98093692D01*
X186634000Y-98100409D01*
X186770889Y-98094083D01*
X186904256Y-98075301D01*
X187033776Y-98044910D01*
X187158339Y-98003498D01*
X187277554Y-97951129D01*
X187391161Y-97888848D01*
X187497985Y-97817371D01*
X187598157Y-97736698D01*
X187690504Y-97647548D01*
X187775024Y-97550571D01*
X187850740Y-97446551D01*
X187917652Y-97335814D01*
X187974259Y-97219077D01*
X188020954Y-97096992D01*
X188056302Y-96969625D01*
X188080758Y-96838018D01*
X188314232Y-96849692D01*
X188340775Y-96899908D01*
X188379383Y-96938516D01*
X188427512Y-96963233D01*
X188482294Y-96971777D01*
X188553119Y-96957233D01*
X188610770Y-96917256D01*
X188650030Y-96857844D01*
X188664182Y-96785258D01*
X188650030Y-96712412D01*
X188610770Y-96652608D01*
X188553119Y-96612631D01*
X188482294Y-96597761D01*
X188431034Y-96605522D01*
X188385383Y-96627109D01*
X188347166Y-96661086D01*
X188318862Y-96706412D01*
X188093149Y-96694738D01*
X188095953Y-96638782D01*
X188093149Y-96547545D01*
X188084605Y-96457677D01*
X188070845Y-96369570D01*
X188052062Y-96283550D01*
X188027998Y-96199355D01*
X187999368Y-96117248D01*
X187965781Y-96037293D01*
X187927891Y-95959816D01*
X188043584Y-95965099D01*
X188074366Y-96022424D01*
X188119692Y-96066314D01*
X188175582Y-96094618D01*
X188238907Y-96104857D01*
X188320297Y-96087901D01*
X188386817Y-96042249D01*
X188431751Y-95974359D01*
X188447990Y-95891209D01*
X188431751Y-95807666D01*
X188386817Y-95739385D01*
X188320297Y-95693408D01*
X188238907Y-95676777D01*
X188174473Y-95687016D01*
X188117866Y-95716755D01*
X188072279Y-95762015D01*
X188041432Y-95820449D01*
X187838740Y-95811188D01*
X187669243Y-95607387D01*
X187571223Y-95517911D01*
X187465768Y-95437564D01*
X187352553Y-95366805D01*
X187233338Y-95306284D01*
X187107731Y-95256785D01*
X186976842Y-95218894D01*
X184157217Y-92312271D01*
X184462560Y-92121187D01*
X184528754Y-92173947D01*
X187630309Y-95371044D01*
X188837201Y-95430130D01*
X188873983Y-95512237D01*
X188933069Y-95576605D01*
X189009176Y-95618735D01*
X189096175Y-95633930D01*
X189200586Y-95612344D01*
X189286215Y-95552932D01*
X189343866Y-95465151D01*
X189365127Y-95357609D01*
X189343866Y-95250394D01*
X189286215Y-95162678D01*
X189200586Y-95103592D01*
X189096175Y-95082005D01*
X189008133Y-95096874D01*
X188932025Y-95138613D01*
X188873657Y-95202981D01*
X188837201Y-95285806D01*
X187693308Y-95229524D01*
X185181504Y-92640635D01*
X185558715Y-92521028D01*
X187620396Y-94646100D01*
X187610157Y-94671208D01*
X187602722Y-94696708D01*
X187598157Y-94722859D01*
X187596723Y-94749011D01*
X187615114Y-94842466D01*
X187665330Y-94919225D01*
X187740003Y-94970551D01*
X187830914Y-94989659D01*
X187922217Y-94970551D01*
X187996498Y-94919225D01*
X188047106Y-94842466D01*
X188065497Y-94749011D01*
X188047106Y-94655621D01*
X187996498Y-94579188D01*
X187922217Y-94527928D01*
X187830914Y-94508820D01*
X187801567Y-94510906D01*
X187772937Y-94516580D01*
X187744633Y-94526493D01*
X187717699Y-94539928D01*
X185721429Y-92482485D01*
X186015815Y-92425877D01*
X186059380Y-92315140D01*
X187879044Y-94191086D01*
X187891826Y-94191803D01*
X188628835Y-94215868D01*
X188660269Y-94270324D01*
X188704877Y-94312453D01*
X188759398Y-94339322D01*
X188820571Y-94348909D01*
X188901243Y-94332279D01*
X188967047Y-94286628D01*
X189011654Y-94218998D01*
X189027893Y-94136239D01*
X189011654Y-94053414D01*
X188967047Y-93985524D01*
X188901243Y-93939873D01*
X188820571Y-93923243D01*
X188755094Y-93933808D01*
X188698160Y-93964264D01*
X188652509Y-94011350D01*
X188623161Y-94071479D01*
X187940999Y-94049175D01*
X186116314Y-92168665D01*
X186271659Y-91771237D01*
X188029758Y-93583205D01*
X188042541Y-93583205D01*
X189216173Y-93601987D01*
X189248716Y-93651161D01*
X189292215Y-93688660D01*
X189344257Y-93712725D01*
X189401909Y-93721203D01*
X189482581Y-93704247D01*
X189548710Y-93658595D01*
X189592992Y-93590966D01*
X189609622Y-93508206D01*
X189592992Y-93425382D01*
X189548710Y-93357818D01*
X189482581Y-93312166D01*
X189401909Y-93295536D01*
X189340018Y-93305123D01*
X189285171Y-93332318D01*
X189240564Y-93374839D01*
X189209455Y-93430012D01*
X188101953Y-93412991D01*
X186372483Y-91630500D01*
X187429704Y-91679347D01*
X187677395Y-92503354D01*
X187937086Y-92575875D01*
X188189734Y-92664308D01*
X188434947Y-92767676D01*
X188672008Y-92885848D01*
X189399104Y-92433638D01*
X190251089Y-93134909D01*
X189955986Y-93943395D01*
X190065680Y-94083153D01*
X190169700Y-94228194D01*
X190267328Y-94377213D01*
X190359348Y-94530732D01*
X191217007Y-94533536D01*
X191566567Y-95580192D01*
X190886883Y-96108770D01*
X190901752Y-96241811D01*
X190912708Y-96375896D01*
X190919426Y-96511089D01*
X190921904Y-96647326D01*
X190921578Y-96690434D01*
X190920534Y-96733607D01*
X190919100Y-96776780D01*
X190917339Y-96820279D01*
X191643000Y-97277445D01*
X191383635Y-98350253D01*
X190528128Y-98437642D01*
X190449608Y-98598596D01*
X190364631Y-98755702D01*
X190273393Y-98908569D01*
X190176091Y-99057523D01*
X190547563Y-99829944D01*
X189758576Y-100601583D01*
X188986546Y-100221242D01*
X188564793Y-100463259D01*
X188227951Y-100126744D01*
X189647448Y-98749376D01*
G37*
X189647448Y-98749376D02*
X189750424Y-98774093D01*
X189838531Y-98756420D01*
X189910334Y-98707964D01*
X189958855Y-98636096D01*
X189976855Y-98547988D01*
X189958855Y-98460273D01*
X189910334Y-98388469D01*
X189838531Y-98339622D01*
X189750424Y-98321949D01*
X189662317Y-98339622D01*
X189590514Y-98388469D01*
X189541993Y-98460273D01*
X189524319Y-98547988D01*
X189529993Y-98598596D01*
X189547341Y-98646726D01*
X188126735Y-100025202D01*
X187659721Y-99558188D01*
X189679991Y-97542484D01*
X189714686Y-97559114D01*
X189751468Y-97571505D01*
X189789684Y-97578549D01*
X189828619Y-97581027D01*
X189946790Y-97557288D01*
X190043376Y-97491876D01*
X190108853Y-97395291D01*
X190132918Y-97277119D01*
X190108853Y-97158556D01*
X190043376Y-97061971D01*
X189946790Y-96996494D01*
X189828619Y-96972820D01*
X189710055Y-96996494D01*
X189613470Y-97061971D01*
X189548058Y-97158556D01*
X189524319Y-97277119D01*
X189527515Y-97321336D01*
X189537428Y-97364118D01*
X189553341Y-97405204D01*
X189575645Y-97444073D01*
X187558832Y-99457364D01*
X187269793Y-99168260D01*
X188265776Y-98182190D01*
X188303667Y-98205147D01*
X188343253Y-98222168D01*
X188384665Y-98232798D01*
X188427512Y-98237363D01*
X188433838Y-98237363D01*
X188548163Y-98213625D01*
X188642270Y-98149256D01*
X188707029Y-98053714D01*
X188732138Y-97936586D01*
X188727507Y-97876848D01*
X188711986Y-97819849D01*
X188685769Y-97766763D01*
X188649704Y-97719351D01*
X188604770Y-97680090D01*
X188554162Y-97650743D01*
X188498924Y-97631961D01*
X188440230Y-97624526D01*
X188433512Y-97624526D01*
X188319580Y-97648265D01*
X188225472Y-97712633D01*
X188161039Y-97807849D01*
X188135604Y-97924586D01*
X188136974Y-97964238D01*
X188143691Y-98002454D01*
X188154713Y-98039562D01*
X188170626Y-98074975D01*
X187168578Y-99067045D01*
X186955255Y-98853722D01*
X187035537Y-98831418D01*
X187100688Y-98782963D01*
X187144513Y-98714681D01*
X187161534Y-98632574D01*
X187145948Y-98543749D01*
X187099970Y-98470511D01*
X187030580Y-98419969D01*
X186944625Y-98400143D01*
X186858670Y-98417099D01*
X186787911Y-98463468D01*
X186739064Y-98532467D01*
X186718520Y-98617378D01*
X186100075Y-97998868D01*
X186226725Y-98042041D01*
X186358331Y-98073931D01*
X186494177Y-98093692D01*
X186634000Y-98100409D01*
X186770889Y-98094083D01*
X186904256Y-98075301D01*
X187033776Y-98044910D01*
X187158339Y-98003498D01*
X187277554Y-97951129D01*
X187391161Y-97888848D01*
X187497985Y-97817371D01*
X187598157Y-97736698D01*
X187690504Y-97647548D01*
X187775024Y-97550571D01*
X187850740Y-97446551D01*
X187917652Y-97335814D01*
X187974259Y-97219077D01*
X188020954Y-97096992D01*
X188056302Y-96969625D01*
X188080758Y-96838018D01*
X188314232Y-96849692D01*
X188340775Y-96899908D01*
X188379383Y-96938516D01*
X188427512Y-96963233D01*
X188482294Y-96971777D01*
X188553119Y-96957233D01*
X188610770Y-96917256D01*
X188650030Y-96857844D01*
X188664182Y-96785258D01*
X188650030Y-96712412D01*
X188610770Y-96652608D01*
X188553119Y-96612631D01*
X188482294Y-96597761D01*
X188431034Y-96605522D01*
X188385383Y-96627109D01*
X188347166Y-96661086D01*
X188318862Y-96706412D01*
X188093149Y-96694738D01*
X188095953Y-96638782D01*
X188093149Y-96547545D01*
X188084605Y-96457677D01*
X188070845Y-96369570D01*
X188052062Y-96283550D01*
X188027998Y-96199355D01*
X187999368Y-96117248D01*
X187965781Y-96037293D01*
X187927891Y-95959816D01*
X188043584Y-95965099D01*
X188074366Y-96022424D01*
X188119692Y-96066314D01*
X188175582Y-96094618D01*
X188238907Y-96104857D01*
X188320297Y-96087901D01*
X188386817Y-96042249D01*
X188431751Y-95974359D01*
X188447990Y-95891209D01*
X188431751Y-95807666D01*
X188386817Y-95739385D01*
X188320297Y-95693408D01*
X188238907Y-95676777D01*
X188174473Y-95687016D01*
X188117866Y-95716755D01*
X188072279Y-95762015D01*
X188041432Y-95820449D01*
X187838740Y-95811188D01*
X187669243Y-95607387D01*
X187571223Y-95517911D01*
X187465768Y-95437564D01*
X187352553Y-95366805D01*
X187233338Y-95306284D01*
X187107731Y-95256785D01*
X186976842Y-95218894D01*
X184157217Y-92312271D01*
X184462560Y-92121187D01*
X184528754Y-92173947D01*
X187630309Y-95371044D01*
X188837201Y-95430130D01*
X188873983Y-95512237D01*
X188933069Y-95576605D01*
X189009176Y-95618735D01*
X189096175Y-95633930D01*
X189200586Y-95612344D01*
X189286215Y-95552932D01*
X189343866Y-95465151D01*
X189365127Y-95357609D01*
X189343866Y-95250394D01*
X189286215Y-95162678D01*
X189200586Y-95103592D01*
X189096175Y-95082005D01*
X189008133Y-95096874D01*
X188932025Y-95138613D01*
X188873657Y-95202981D01*
X188837201Y-95285806D01*
X187693308Y-95229524D01*
X185181504Y-92640635D01*
X185558715Y-92521028D01*
X187620396Y-94646100D01*
X187610157Y-94671208D01*
X187602722Y-94696708D01*
X187598157Y-94722859D01*
X187596723Y-94749011D01*
X187615114Y-94842466D01*
X187665330Y-94919225D01*
X187740003Y-94970551D01*
X187830914Y-94989659D01*
X187922217Y-94970551D01*
X187996498Y-94919225D01*
X188047106Y-94842466D01*
X188065497Y-94749011D01*
X188047106Y-94655621D01*
X187996498Y-94579188D01*
X187922217Y-94527928D01*
X187830914Y-94508820D01*
X187801567Y-94510906D01*
X187772937Y-94516580D01*
X187744633Y-94526493D01*
X187717699Y-94539928D01*
X185721429Y-92482485D01*
X186015815Y-92425877D01*
X186059380Y-92315140D01*
X187879044Y-94191086D01*
X187891826Y-94191803D01*
X188628835Y-94215868D01*
X188660269Y-94270324D01*
X188704877Y-94312453D01*
X188759398Y-94339322D01*
X188820571Y-94348909D01*
X188901243Y-94332279D01*
X188967047Y-94286628D01*
X189011654Y-94218998D01*
X189027893Y-94136239D01*
X189011654Y-94053414D01*
X188967047Y-93985524D01*
X188901243Y-93939873D01*
X188820571Y-93923243D01*
X188755094Y-93933808D01*
X188698160Y-93964264D01*
X188652509Y-94011350D01*
X188623161Y-94071479D01*
X187940999Y-94049175D01*
X186116314Y-92168665D01*
X186271659Y-91771237D01*
X188029758Y-93583205D01*
X188042541Y-93583205D01*
X189216173Y-93601987D01*
X189248716Y-93651161D01*
X189292215Y-93688660D01*
X189344257Y-93712725D01*
X189401909Y-93721203D01*
X189482581Y-93704247D01*
X189548710Y-93658595D01*
X189592992Y-93590966D01*
X189609622Y-93508206D01*
X189592992Y-93425382D01*
X189548710Y-93357818D01*
X189482581Y-93312166D01*
X189401909Y-93295536D01*
X189340018Y-93305123D01*
X189285171Y-93332318D01*
X189240564Y-93374839D01*
X189209455Y-93430012D01*
X188101953Y-93412991D01*
X186372483Y-91630500D01*
X187429704Y-91679347D01*
X187677395Y-92503354D01*
X187937086Y-92575875D01*
X188189734Y-92664308D01*
X188434947Y-92767676D01*
X188672008Y-92885848D01*
X189399104Y-92433638D01*
X190251089Y-93134909D01*
X189955986Y-93943395D01*
X190065680Y-94083153D01*
X190169700Y-94228194D01*
X190267328Y-94377213D01*
X190359348Y-94530732D01*
X191217007Y-94533536D01*
X191566567Y-95580192D01*
X190886883Y-96108770D01*
X190901752Y-96241811D01*
X190912708Y-96375896D01*
X190919426Y-96511089D01*
X190921904Y-96647326D01*
X190921578Y-96690434D01*
X190920534Y-96733607D01*
X190919100Y-96776780D01*
X190917339Y-96820279D01*
X191643000Y-97277445D01*
X191383635Y-98350253D01*
X190528128Y-98437642D01*
X190449608Y-98598596D01*
X190364631Y-98755702D01*
X190273393Y-98908569D01*
X190176091Y-99057523D01*
X190547563Y-99829944D01*
X189758576Y-100601583D01*
X188986546Y-100221242D01*
X188564793Y-100463259D01*
X188227951Y-100126744D01*
X189647448Y-98749376D01*
G36*
X185187177Y-96439612D02*
X182838153Y-94024067D01*
X183249994Y-94071153D01*
X183473294Y-93800441D01*
X185427108Y-95814384D01*
X185341088Y-95957012D01*
X185272089Y-96109487D01*
X185220438Y-96270832D01*
X185187177Y-96439612D01*
G37*
X185187177Y-96439612D02*
X182838153Y-94024067D01*
X183249994Y-94071153D01*
X183473294Y-93800441D01*
X185427108Y-95814384D01*
X185341088Y-95957012D01*
X185272089Y-96109487D01*
X185220438Y-96270832D01*
X185187177Y-96439612D01*
G36*
X186037076Y-95304914D02*
X185889557Y-95381348D01*
X185752602Y-95473303D01*
X185627322Y-95579475D01*
X185514498Y-95699081D01*
X183571314Y-93695703D01*
X183725942Y-93541467D01*
X183530945Y-92721633D01*
X186037076Y-95304914D01*
G37*
X186037076Y-95304914D02*
X185889557Y-95381348D01*
X185752602Y-95473303D01*
X185627322Y-95579475D01*
X185514498Y-95699081D01*
X183571314Y-93695703D01*
X183725942Y-93541467D01*
X183530945Y-92721633D01*
X186037076Y-95304914D01*
G36*
X186634000Y-95176438D02*
X186516872Y-95181395D01*
X186402222Y-95195221D01*
X186290376Y-95217851D01*
X186181791Y-95248633D01*
X183644552Y-92633526D01*
X184032654Y-92390465D01*
X186741150Y-95182112D01*
X186714281Y-95180025D01*
X186687738Y-95178199D01*
X186660869Y-95177156D01*
X186634000Y-95176438D01*
G37*
X186634000Y-95176438D02*
X186516872Y-95181395D01*
X186402222Y-95195221D01*
X186290376Y-95217851D01*
X186181791Y-95248633D01*
X183644552Y-92633526D01*
X184032654Y-92390465D01*
X186741150Y-95182112D01*
X186714281Y-95180025D01*
X186687738Y-95178199D01*
X186660869Y-95177156D01*
X186634000Y-95176438D01*
G36*
X181983298Y-97382900D02*
X182017993Y-97380748D01*
X182052362Y-97373704D01*
X182085231Y-97362031D01*
X182117122Y-97345727D01*
X183328905Y-98594031D01*
X183291797Y-98638248D01*
X183264537Y-98688464D01*
X183247907Y-98742985D01*
X183241907Y-98800636D01*
X183243994Y-98832527D01*
X183249342Y-98863961D01*
X183258146Y-98894743D01*
X183270863Y-98924873D01*
X183263102Y-98932634D01*
X183255668Y-98940395D01*
X183248233Y-98947829D01*
X183240798Y-98955590D01*
X182819045Y-98520793D01*
X182578853Y-97923869D01*
X182146078Y-97827610D01*
X181812497Y-97483724D01*
X181715847Y-97483724D01*
X181682978Y-97177338D01*
X181722890Y-97177338D01*
X181759737Y-97260815D01*
X181818432Y-97325575D01*
X181894930Y-97368031D01*
X181983298Y-97382900D01*
G37*
X181983298Y-97382900D02*
X182017993Y-97380748D01*
X182052362Y-97373704D01*
X182085231Y-97362031D01*
X182117122Y-97345727D01*
X183328905Y-98594031D01*
X183291797Y-98638248D01*
X183264537Y-98688464D01*
X183247907Y-98742985D01*
X183241907Y-98800636D01*
X183243994Y-98832527D01*
X183249342Y-98863961D01*
X183258146Y-98894743D01*
X183270863Y-98924873D01*
X183263102Y-98932634D01*
X183255668Y-98940395D01*
X183248233Y-98947829D01*
X183240798Y-98955590D01*
X182819045Y-98520793D01*
X182578853Y-97923869D01*
X182146078Y-97827610D01*
X181812497Y-97483724D01*
X181715847Y-97483724D01*
X181682978Y-97177338D01*
X181722890Y-97177338D01*
X181759737Y-97260815D01*
X181818432Y-97325575D01*
X181894930Y-97368031D01*
X181983298Y-97382900D01*
G36*
X183523185Y-98943916D02*
X183469381Y-98932634D01*
X183425491Y-98901852D01*
X183395817Y-98856527D01*
X183384861Y-98800636D01*
X183393339Y-98751463D01*
X183415969Y-98709725D01*
X183450664Y-98678225D01*
X183493837Y-98660160D01*
X183657987Y-98824375D01*
X183642074Y-98871396D01*
X183612009Y-98909613D01*
X183571314Y-98934721D01*
X183523185Y-98943916D01*
G37*
X183523185Y-98943916D02*
X183469381Y-98932634D01*
X183425491Y-98901852D01*
X183395817Y-98856527D01*
X183384861Y-98800636D01*
X183393339Y-98751463D01*
X183415969Y-98709725D01*
X183450664Y-98678225D01*
X183493837Y-98660160D01*
X183657987Y-98824375D01*
X183642074Y-98871396D01*
X183612009Y-98909613D01*
X183571314Y-98934721D01*
X183523185Y-98943916D01*
G36*
X183672856Y-99964355D02*
X183129018Y-100157200D01*
X183854353Y-99409560D01*
X183879852Y-99421625D01*
X183906395Y-99430103D01*
X183933982Y-99435060D01*
X183961894Y-99436821D01*
X184021698Y-99429060D01*
X184075827Y-99406365D01*
X184122196Y-99371018D01*
X184159369Y-99325366D01*
X184177760Y-99344148D01*
X184233977Y-99400365D01*
X183672856Y-99964355D01*
G37*
X183672856Y-99964355D02*
X183129018Y-100157200D01*
X183854353Y-99409560D01*
X183879852Y-99421625D01*
X183906395Y-99430103D01*
X183933982Y-99435060D01*
X183961894Y-99436821D01*
X184021698Y-99429060D01*
X184075827Y-99406365D01*
X184122196Y-99371018D01*
X184159369Y-99325366D01*
X184177760Y-99344148D01*
X184233977Y-99400365D01*
X183672856Y-99964355D01*
G36*
X181769976Y-96936038D02*
X181722890Y-97032950D01*
X181667000Y-97032950D01*
X181643000Y-96809323D01*
X181769976Y-96936038D01*
G37*
X181769976Y-96936038D02*
X181722890Y-97032950D01*
X181667000Y-97032950D01*
X181643000Y-96809323D01*
X181769976Y-96936038D01*
G36*
X183726985Y-99195129D02*
X183728420Y-99224542D01*
X183733703Y-99253172D01*
X183742181Y-99280758D01*
X183753529Y-99307301D01*
X182998455Y-100086049D01*
X182388096Y-99310497D01*
X182490746Y-99148826D01*
X182872522Y-99541884D01*
X183362883Y-99036328D01*
X183399665Y-99058566D01*
X183439317Y-99074871D01*
X183480729Y-99084783D01*
X183523185Y-99088305D01*
X183599944Y-99077349D01*
X183668617Y-99045849D01*
X183725942Y-98997720D01*
X183769441Y-98935438D01*
X183784311Y-98950699D01*
X183814701Y-98981090D01*
X183829571Y-98996285D01*
X183787506Y-99033784D01*
X183754898Y-99080870D01*
X183734029Y-99135391D01*
X183726985Y-99195129D01*
G37*
X183726985Y-99195129D02*
X183728420Y-99224542D01*
X183733703Y-99253172D01*
X183742181Y-99280758D01*
X183753529Y-99307301D01*
X182998455Y-100086049D01*
X182388096Y-99310497D01*
X182490746Y-99148826D01*
X182872522Y-99541884D01*
X183362883Y-99036328D01*
X183399665Y-99058566D01*
X183439317Y-99074871D01*
X183480729Y-99084783D01*
X183523185Y-99088305D01*
X183599944Y-99077349D01*
X183668617Y-99045849D01*
X183725942Y-98997720D01*
X183769441Y-98935438D01*
X183784311Y-98950699D01*
X183814701Y-98981090D01*
X183829571Y-98996285D01*
X183787506Y-99033784D01*
X183754898Y-99080870D01*
X183734029Y-99135391D01*
X183726985Y-99195129D01*
G36*
X184427865Y-96326397D02*
X182290076Y-94188608D01*
X182394422Y-93973459D01*
X182613483Y-93998568D01*
X185172308Y-96629587D01*
X185172308Y-96634217D01*
X185171982Y-96636304D01*
X185171982Y-96638456D01*
X185178699Y-96777889D01*
X185198134Y-96913343D01*
X185229633Y-97044623D01*
X185272480Y-97170947D01*
X184427865Y-96326397D01*
G37*
X184427865Y-96326397D02*
X182290076Y-94188608D01*
X182394422Y-93973459D01*
X182613483Y-93998568D01*
X185172308Y-96629587D01*
X185172308Y-96634217D01*
X185171982Y-96636304D01*
X185171982Y-96638456D01*
X185178699Y-96777889D01*
X185198134Y-96913343D01*
X185229633Y-97044623D01*
X185272480Y-97170947D01*
X184427865Y-96326397D01*
D13*
X191135000Y-117094000D03*
D14*
X193675000Y-117094000D03*
D15*
X192468500Y-104330500D03*
D16*
X192468500Y-106870500D03*
D13*
X178181000Y-117094000D03*
D14*
X180721000Y-117094000D03*
X183261000Y-117094000D03*
D13*
X193675000Y-111506000D03*
D14*
X191135000Y-111506000D03*
D15*
X173990000Y-87185500D03*
D16*
X173990000Y-89725500D03*
X173990000Y-92265500D03*
X173990000Y-94805500D03*
D15*
X179959000Y-103505000D03*
D16*
X182499000Y-103505000D03*
X185039000Y-103505000D03*
X187579000Y-103505000D03*
D15*
X196850000Y-91567000D03*
D16*
X196850000Y-89027000D03*
X196850000Y-86487000D03*
D15*
X196659500Y-100266500D03*
D16*
X196659500Y-102806500D03*
X196659500Y-105346500D03*
X196659500Y-107886500D03*
X196659500Y-110426500D03*
X196659500Y-112966500D03*
X196659500Y-115506500D03*
X196659500Y-118046500D03*
D15*
X173990000Y-118110000D03*
D16*
X173990000Y-115570000D03*
X173990000Y-113030000D03*
X173990000Y-110490000D03*
X173990000Y-107950000D03*
X173990000Y-105410000D03*
X173990000Y-102870000D03*
X173990000Y-100330000D03*
M02*
