G04 #@! TF.GenerationSoftware,KiCad,Pcbnew,5.0.0*
G04 #@! TF.CreationDate,2018-08-02T12:49:40+02:00*
G04 #@! TF.ProjectId,PTL-IR_remote,50544C2D49525F72656D6F74652E6B69,v1.1*
G04 #@! TF.SameCoordinates,PXa4b7f80PY71d9820*
G04 #@! TF.FileFunction,Soldermask,Top*
G04 #@! TF.FilePolarity,Negative*
%FSLAX46Y46*%
G04 Gerber Fmt 4.6, Leading zero omitted, Abs format (unit mm)*
G04 Created by KiCad (PCBNEW 5.0.0) date Thu Aug  2 12:49:40 2018*
%MOMM*%
%LPD*%
G01*
G04 APERTURE LIST*
%ADD10R,2.100000X2.100000*%
%ADD11O,2.100000X2.100000*%
%ADD12C,3.100000*%
%ADD13R,2.200000X2.200000*%
%ADD14C,2.200000*%
%ADD15R,1.300000X1.200000*%
%ADD16C,0.100000*%
%ADD17C,1.375000*%
%ADD18R,1.400000X1.900000*%
%ADD19C,2.000000*%
%ADD20C,1.350000*%
%ADD21R,1.900000X2.800000*%
%ADD22R,1.900000X1.450000*%
%ADD23C,1.294426*%
G04 APERTURE END LIST*
D10*
G04 #@! TO.C,J3*
X1300000Y32200000D03*
D11*
X1300000Y29660000D03*
X1300000Y27120000D03*
X1300000Y24580000D03*
G04 #@! TD*
D12*
G04 #@! TO.C,bscrew*
X9700000Y25900000D03*
G04 #@! TD*
G04 #@! TO.C,dscrew*
X11100000Y36800000D03*
G04 #@! TD*
D13*
G04 #@! TO.C,U1*
X5461000Y2286000D03*
D14*
X8001000Y2286000D03*
X10541000Y2286000D03*
G04 #@! TD*
D15*
G04 #@! TO.C,Q1*
X13900000Y8950000D03*
X13900000Y7050000D03*
X15900000Y8000000D03*
G04 #@! TD*
D16*
G04 #@! TO.C,R5*
G36*
X21502443Y33398345D02*
X21535812Y33393395D01*
X21568535Y33385198D01*
X21600297Y33373834D01*
X21630793Y33359410D01*
X21659727Y33342068D01*
X21686823Y33321972D01*
X21711818Y33299318D01*
X21734472Y33274323D01*
X21754568Y33247227D01*
X21771910Y33218293D01*
X21786334Y33187797D01*
X21797698Y33156035D01*
X21805895Y33123312D01*
X21810845Y33089943D01*
X21812500Y33056250D01*
X21812500Y31943750D01*
X21810845Y31910057D01*
X21805895Y31876688D01*
X21797698Y31843965D01*
X21786334Y31812203D01*
X21771910Y31781707D01*
X21754568Y31752773D01*
X21734472Y31725677D01*
X21711818Y31700682D01*
X21686823Y31678028D01*
X21659727Y31657932D01*
X21630793Y31640590D01*
X21600297Y31626166D01*
X21568535Y31614802D01*
X21535812Y31606605D01*
X21502443Y31601655D01*
X21468750Y31600000D01*
X20781250Y31600000D01*
X20747557Y31601655D01*
X20714188Y31606605D01*
X20681465Y31614802D01*
X20649703Y31626166D01*
X20619207Y31640590D01*
X20590273Y31657932D01*
X20563177Y31678028D01*
X20538182Y31700682D01*
X20515528Y31725677D01*
X20495432Y31752773D01*
X20478090Y31781707D01*
X20463666Y31812203D01*
X20452302Y31843965D01*
X20444105Y31876688D01*
X20439155Y31910057D01*
X20437500Y31943750D01*
X20437500Y33056250D01*
X20439155Y33089943D01*
X20444105Y33123312D01*
X20452302Y33156035D01*
X20463666Y33187797D01*
X20478090Y33218293D01*
X20495432Y33247227D01*
X20515528Y33274323D01*
X20538182Y33299318D01*
X20563177Y33321972D01*
X20590273Y33342068D01*
X20619207Y33359410D01*
X20649703Y33373834D01*
X20681465Y33385198D01*
X20714188Y33393395D01*
X20747557Y33398345D01*
X20781250Y33400000D01*
X21468750Y33400000D01*
X21502443Y33398345D01*
X21502443Y33398345D01*
G37*
D17*
X21125000Y32500000D03*
D16*
G36*
X23377443Y33398345D02*
X23410812Y33393395D01*
X23443535Y33385198D01*
X23475297Y33373834D01*
X23505793Y33359410D01*
X23534727Y33342068D01*
X23561823Y33321972D01*
X23586818Y33299318D01*
X23609472Y33274323D01*
X23629568Y33247227D01*
X23646910Y33218293D01*
X23661334Y33187797D01*
X23672698Y33156035D01*
X23680895Y33123312D01*
X23685845Y33089943D01*
X23687500Y33056250D01*
X23687500Y31943750D01*
X23685845Y31910057D01*
X23680895Y31876688D01*
X23672698Y31843965D01*
X23661334Y31812203D01*
X23646910Y31781707D01*
X23629568Y31752773D01*
X23609472Y31725677D01*
X23586818Y31700682D01*
X23561823Y31678028D01*
X23534727Y31657932D01*
X23505793Y31640590D01*
X23475297Y31626166D01*
X23443535Y31614802D01*
X23410812Y31606605D01*
X23377443Y31601655D01*
X23343750Y31600000D01*
X22656250Y31600000D01*
X22622557Y31601655D01*
X22589188Y31606605D01*
X22556465Y31614802D01*
X22524703Y31626166D01*
X22494207Y31640590D01*
X22465273Y31657932D01*
X22438177Y31678028D01*
X22413182Y31700682D01*
X22390528Y31725677D01*
X22370432Y31752773D01*
X22353090Y31781707D01*
X22338666Y31812203D01*
X22327302Y31843965D01*
X22319105Y31876688D01*
X22314155Y31910057D01*
X22312500Y31943750D01*
X22312500Y33056250D01*
X22314155Y33089943D01*
X22319105Y33123312D01*
X22327302Y33156035D01*
X22338666Y33187797D01*
X22353090Y33218293D01*
X22370432Y33247227D01*
X22390528Y33274323D01*
X22413182Y33299318D01*
X22438177Y33321972D01*
X22465273Y33342068D01*
X22494207Y33359410D01*
X22524703Y33373834D01*
X22556465Y33385198D01*
X22589188Y33393395D01*
X22622557Y33398345D01*
X22656250Y33400000D01*
X23343750Y33400000D01*
X23377443Y33398345D01*
X23377443Y33398345D01*
G37*
D17*
X23000000Y32500000D03*
G04 #@! TD*
D16*
G04 #@! TO.C,R1*
G36*
X16064943Y11798345D02*
X16098312Y11793395D01*
X16131035Y11785198D01*
X16162797Y11773834D01*
X16193293Y11759410D01*
X16222227Y11742068D01*
X16249323Y11721972D01*
X16274318Y11699318D01*
X16296972Y11674323D01*
X16317068Y11647227D01*
X16334410Y11618293D01*
X16348834Y11587797D01*
X16360198Y11556035D01*
X16368395Y11523312D01*
X16373345Y11489943D01*
X16375000Y11456250D01*
X16375000Y10343750D01*
X16373345Y10310057D01*
X16368395Y10276688D01*
X16360198Y10243965D01*
X16348834Y10212203D01*
X16334410Y10181707D01*
X16317068Y10152773D01*
X16296972Y10125677D01*
X16274318Y10100682D01*
X16249323Y10078028D01*
X16222227Y10057932D01*
X16193293Y10040590D01*
X16162797Y10026166D01*
X16131035Y10014802D01*
X16098312Y10006605D01*
X16064943Y10001655D01*
X16031250Y10000000D01*
X15343750Y10000000D01*
X15310057Y10001655D01*
X15276688Y10006605D01*
X15243965Y10014802D01*
X15212203Y10026166D01*
X15181707Y10040590D01*
X15152773Y10057932D01*
X15125677Y10078028D01*
X15100682Y10100682D01*
X15078028Y10125677D01*
X15057932Y10152773D01*
X15040590Y10181707D01*
X15026166Y10212203D01*
X15014802Y10243965D01*
X15006605Y10276688D01*
X15001655Y10310057D01*
X15000000Y10343750D01*
X15000000Y11456250D01*
X15001655Y11489943D01*
X15006605Y11523312D01*
X15014802Y11556035D01*
X15026166Y11587797D01*
X15040590Y11618293D01*
X15057932Y11647227D01*
X15078028Y11674323D01*
X15100682Y11699318D01*
X15125677Y11721972D01*
X15152773Y11742068D01*
X15181707Y11759410D01*
X15212203Y11773834D01*
X15243965Y11785198D01*
X15276688Y11793395D01*
X15310057Y11798345D01*
X15343750Y11800000D01*
X16031250Y11800000D01*
X16064943Y11798345D01*
X16064943Y11798345D01*
G37*
D17*
X15687500Y10900000D03*
D16*
G36*
X14189943Y11798345D02*
X14223312Y11793395D01*
X14256035Y11785198D01*
X14287797Y11773834D01*
X14318293Y11759410D01*
X14347227Y11742068D01*
X14374323Y11721972D01*
X14399318Y11699318D01*
X14421972Y11674323D01*
X14442068Y11647227D01*
X14459410Y11618293D01*
X14473834Y11587797D01*
X14485198Y11556035D01*
X14493395Y11523312D01*
X14498345Y11489943D01*
X14500000Y11456250D01*
X14500000Y10343750D01*
X14498345Y10310057D01*
X14493395Y10276688D01*
X14485198Y10243965D01*
X14473834Y10212203D01*
X14459410Y10181707D01*
X14442068Y10152773D01*
X14421972Y10125677D01*
X14399318Y10100682D01*
X14374323Y10078028D01*
X14347227Y10057932D01*
X14318293Y10040590D01*
X14287797Y10026166D01*
X14256035Y10014802D01*
X14223312Y10006605D01*
X14189943Y10001655D01*
X14156250Y10000000D01*
X13468750Y10000000D01*
X13435057Y10001655D01*
X13401688Y10006605D01*
X13368965Y10014802D01*
X13337203Y10026166D01*
X13306707Y10040590D01*
X13277773Y10057932D01*
X13250677Y10078028D01*
X13225682Y10100682D01*
X13203028Y10125677D01*
X13182932Y10152773D01*
X13165590Y10181707D01*
X13151166Y10212203D01*
X13139802Y10243965D01*
X13131605Y10276688D01*
X13126655Y10310057D01*
X13125000Y10343750D01*
X13125000Y11456250D01*
X13126655Y11489943D01*
X13131605Y11523312D01*
X13139802Y11556035D01*
X13151166Y11587797D01*
X13165590Y11618293D01*
X13182932Y11647227D01*
X13203028Y11674323D01*
X13225682Y11699318D01*
X13250677Y11721972D01*
X13277773Y11742068D01*
X13306707Y11759410D01*
X13337203Y11773834D01*
X13368965Y11785198D01*
X13401688Y11793395D01*
X13435057Y11798345D01*
X13468750Y11800000D01*
X14156250Y11800000D01*
X14189943Y11798345D01*
X14189943Y11798345D01*
G37*
D17*
X13812500Y10900000D03*
G04 #@! TD*
D16*
G04 #@! TO.C,R2*
G36*
X14171943Y5724345D02*
X14205312Y5719395D01*
X14238035Y5711198D01*
X14269797Y5699834D01*
X14300293Y5685410D01*
X14329227Y5668068D01*
X14356323Y5647972D01*
X14381318Y5625318D01*
X14403972Y5600323D01*
X14424068Y5573227D01*
X14441410Y5544293D01*
X14455834Y5513797D01*
X14467198Y5482035D01*
X14475395Y5449312D01*
X14480345Y5415943D01*
X14482000Y5382250D01*
X14482000Y4269750D01*
X14480345Y4236057D01*
X14475395Y4202688D01*
X14467198Y4169965D01*
X14455834Y4138203D01*
X14441410Y4107707D01*
X14424068Y4078773D01*
X14403972Y4051677D01*
X14381318Y4026682D01*
X14356323Y4004028D01*
X14329227Y3983932D01*
X14300293Y3966590D01*
X14269797Y3952166D01*
X14238035Y3940802D01*
X14205312Y3932605D01*
X14171943Y3927655D01*
X14138250Y3926000D01*
X13450750Y3926000D01*
X13417057Y3927655D01*
X13383688Y3932605D01*
X13350965Y3940802D01*
X13319203Y3952166D01*
X13288707Y3966590D01*
X13259773Y3983932D01*
X13232677Y4004028D01*
X13207682Y4026682D01*
X13185028Y4051677D01*
X13164932Y4078773D01*
X13147590Y4107707D01*
X13133166Y4138203D01*
X13121802Y4169965D01*
X13113605Y4202688D01*
X13108655Y4236057D01*
X13107000Y4269750D01*
X13107000Y5382250D01*
X13108655Y5415943D01*
X13113605Y5449312D01*
X13121802Y5482035D01*
X13133166Y5513797D01*
X13147590Y5544293D01*
X13164932Y5573227D01*
X13185028Y5600323D01*
X13207682Y5625318D01*
X13232677Y5647972D01*
X13259773Y5668068D01*
X13288707Y5685410D01*
X13319203Y5699834D01*
X13350965Y5711198D01*
X13383688Y5719395D01*
X13417057Y5724345D01*
X13450750Y5726000D01*
X14138250Y5726000D01*
X14171943Y5724345D01*
X14171943Y5724345D01*
G37*
D17*
X13794500Y4826000D03*
D16*
G36*
X16046943Y5724345D02*
X16080312Y5719395D01*
X16113035Y5711198D01*
X16144797Y5699834D01*
X16175293Y5685410D01*
X16204227Y5668068D01*
X16231323Y5647972D01*
X16256318Y5625318D01*
X16278972Y5600323D01*
X16299068Y5573227D01*
X16316410Y5544293D01*
X16330834Y5513797D01*
X16342198Y5482035D01*
X16350395Y5449312D01*
X16355345Y5415943D01*
X16357000Y5382250D01*
X16357000Y4269750D01*
X16355345Y4236057D01*
X16350395Y4202688D01*
X16342198Y4169965D01*
X16330834Y4138203D01*
X16316410Y4107707D01*
X16299068Y4078773D01*
X16278972Y4051677D01*
X16256318Y4026682D01*
X16231323Y4004028D01*
X16204227Y3983932D01*
X16175293Y3966590D01*
X16144797Y3952166D01*
X16113035Y3940802D01*
X16080312Y3932605D01*
X16046943Y3927655D01*
X16013250Y3926000D01*
X15325750Y3926000D01*
X15292057Y3927655D01*
X15258688Y3932605D01*
X15225965Y3940802D01*
X15194203Y3952166D01*
X15163707Y3966590D01*
X15134773Y3983932D01*
X15107677Y4004028D01*
X15082682Y4026682D01*
X15060028Y4051677D01*
X15039932Y4078773D01*
X15022590Y4107707D01*
X15008166Y4138203D01*
X14996802Y4169965D01*
X14988605Y4202688D01*
X14983655Y4236057D01*
X14982000Y4269750D01*
X14982000Y5382250D01*
X14983655Y5415943D01*
X14988605Y5449312D01*
X14996802Y5482035D01*
X15008166Y5513797D01*
X15022590Y5544293D01*
X15039932Y5573227D01*
X15060028Y5600323D01*
X15082682Y5625318D01*
X15107677Y5647972D01*
X15134773Y5668068D01*
X15163707Y5685410D01*
X15194203Y5699834D01*
X15225965Y5711198D01*
X15258688Y5719395D01*
X15292057Y5724345D01*
X15325750Y5726000D01*
X16013250Y5726000D01*
X16046943Y5724345D01*
X16046943Y5724345D01*
G37*
D17*
X15669500Y4826000D03*
G04 #@! TD*
D16*
G04 #@! TO.C,R4*
G36*
X16046943Y2549345D02*
X16080312Y2544395D01*
X16113035Y2536198D01*
X16144797Y2524834D01*
X16175293Y2510410D01*
X16204227Y2493068D01*
X16231323Y2472972D01*
X16256318Y2450318D01*
X16278972Y2425323D01*
X16299068Y2398227D01*
X16316410Y2369293D01*
X16330834Y2338797D01*
X16342198Y2307035D01*
X16350395Y2274312D01*
X16355345Y2240943D01*
X16357000Y2207250D01*
X16357000Y1094750D01*
X16355345Y1061057D01*
X16350395Y1027688D01*
X16342198Y994965D01*
X16330834Y963203D01*
X16316410Y932707D01*
X16299068Y903773D01*
X16278972Y876677D01*
X16256318Y851682D01*
X16231323Y829028D01*
X16204227Y808932D01*
X16175293Y791590D01*
X16144797Y777166D01*
X16113035Y765802D01*
X16080312Y757605D01*
X16046943Y752655D01*
X16013250Y751000D01*
X15325750Y751000D01*
X15292057Y752655D01*
X15258688Y757605D01*
X15225965Y765802D01*
X15194203Y777166D01*
X15163707Y791590D01*
X15134773Y808932D01*
X15107677Y829028D01*
X15082682Y851682D01*
X15060028Y876677D01*
X15039932Y903773D01*
X15022590Y932707D01*
X15008166Y963203D01*
X14996802Y994965D01*
X14988605Y1027688D01*
X14983655Y1061057D01*
X14982000Y1094750D01*
X14982000Y2207250D01*
X14983655Y2240943D01*
X14988605Y2274312D01*
X14996802Y2307035D01*
X15008166Y2338797D01*
X15022590Y2369293D01*
X15039932Y2398227D01*
X15060028Y2425323D01*
X15082682Y2450318D01*
X15107677Y2472972D01*
X15134773Y2493068D01*
X15163707Y2510410D01*
X15194203Y2524834D01*
X15225965Y2536198D01*
X15258688Y2544395D01*
X15292057Y2549345D01*
X15325750Y2551000D01*
X16013250Y2551000D01*
X16046943Y2549345D01*
X16046943Y2549345D01*
G37*
D17*
X15669500Y1651000D03*
D16*
G36*
X14171943Y2549345D02*
X14205312Y2544395D01*
X14238035Y2536198D01*
X14269797Y2524834D01*
X14300293Y2510410D01*
X14329227Y2493068D01*
X14356323Y2472972D01*
X14381318Y2450318D01*
X14403972Y2425323D01*
X14424068Y2398227D01*
X14441410Y2369293D01*
X14455834Y2338797D01*
X14467198Y2307035D01*
X14475395Y2274312D01*
X14480345Y2240943D01*
X14482000Y2207250D01*
X14482000Y1094750D01*
X14480345Y1061057D01*
X14475395Y1027688D01*
X14467198Y994965D01*
X14455834Y963203D01*
X14441410Y932707D01*
X14424068Y903773D01*
X14403972Y876677D01*
X14381318Y851682D01*
X14356323Y829028D01*
X14329227Y808932D01*
X14300293Y791590D01*
X14269797Y777166D01*
X14238035Y765802D01*
X14205312Y757605D01*
X14171943Y752655D01*
X14138250Y751000D01*
X13450750Y751000D01*
X13417057Y752655D01*
X13383688Y757605D01*
X13350965Y765802D01*
X13319203Y777166D01*
X13288707Y791590D01*
X13259773Y808932D01*
X13232677Y829028D01*
X13207682Y851682D01*
X13185028Y876677D01*
X13164932Y903773D01*
X13147590Y932707D01*
X13133166Y963203D01*
X13121802Y994965D01*
X13113605Y1027688D01*
X13108655Y1061057D01*
X13107000Y1094750D01*
X13107000Y2207250D01*
X13108655Y2240943D01*
X13113605Y2274312D01*
X13121802Y2307035D01*
X13133166Y2338797D01*
X13147590Y2369293D01*
X13164932Y2398227D01*
X13185028Y2425323D01*
X13207682Y2450318D01*
X13232677Y2472972D01*
X13259773Y2493068D01*
X13288707Y2510410D01*
X13319203Y2524834D01*
X13350965Y2536198D01*
X13383688Y2544395D01*
X13417057Y2549345D01*
X13450750Y2551000D01*
X14138250Y2551000D01*
X14171943Y2549345D01*
X14171943Y2549345D01*
G37*
D17*
X13794500Y1651000D03*
G04 #@! TD*
D10*
G04 #@! TO.C,DHT22*
X7239000Y13900000D03*
D11*
X9779000Y13900000D03*
X12319000Y13900000D03*
X14859000Y13900000D03*
G04 #@! TD*
G04 #@! TO.C,J1*
X23939500Y1333500D03*
X23939500Y3873500D03*
X23939500Y6413500D03*
X23939500Y8953500D03*
X23939500Y11493500D03*
X23939500Y14033500D03*
X23939500Y16573500D03*
D10*
X23939500Y19113500D03*
G04 #@! TD*
G04 #@! TO.C,J2*
X1270000Y1270000D03*
D11*
X1270000Y3810000D03*
X1270000Y6350000D03*
X1270000Y8890000D03*
X1270000Y11430000D03*
X1270000Y13970000D03*
X1270000Y16510000D03*
X1270000Y19050000D03*
G04 #@! TD*
D18*
G04 #@! TO.C,D4*
X4900000Y5550000D03*
X6500000Y5550000D03*
X8100000Y5550000D03*
X4900000Y10450000D03*
X6500000Y10450000D03*
X8100000Y10450000D03*
G04 #@! TD*
D19*
G04 #@! TO.C,PR1*
X20840000Y10900000D03*
X18300000Y10900000D03*
G04 #@! TD*
D16*
G04 #@! TO.C,C1*
G36*
X12595581Y5473375D02*
X12628343Y5468515D01*
X12660471Y5460467D01*
X12691656Y5449309D01*
X12721596Y5435148D01*
X12750005Y5418121D01*
X12776608Y5398391D01*
X12801149Y5376149D01*
X12823391Y5351608D01*
X12843121Y5325005D01*
X12860148Y5296596D01*
X12874309Y5266656D01*
X12885467Y5235471D01*
X12893515Y5203343D01*
X12898375Y5170581D01*
X12900000Y5137500D01*
X12900000Y4462500D01*
X12898375Y4429419D01*
X12893515Y4396657D01*
X12885467Y4364529D01*
X12874309Y4333344D01*
X12860148Y4303404D01*
X12843121Y4274995D01*
X12823391Y4248392D01*
X12801149Y4223851D01*
X12776608Y4201609D01*
X12750005Y4181879D01*
X12721596Y4164852D01*
X12691656Y4150691D01*
X12660471Y4139533D01*
X12628343Y4131485D01*
X12595581Y4126625D01*
X12562500Y4125000D01*
X11787500Y4125000D01*
X11754419Y4126625D01*
X11721657Y4131485D01*
X11689529Y4139533D01*
X11658344Y4150691D01*
X11628404Y4164852D01*
X11599995Y4181879D01*
X11573392Y4201609D01*
X11548851Y4223851D01*
X11526609Y4248392D01*
X11506879Y4274995D01*
X11489852Y4303404D01*
X11475691Y4333344D01*
X11464533Y4364529D01*
X11456485Y4396657D01*
X11451625Y4429419D01*
X11450000Y4462500D01*
X11450000Y5137500D01*
X11451625Y5170581D01*
X11456485Y5203343D01*
X11464533Y5235471D01*
X11475691Y5266656D01*
X11489852Y5296596D01*
X11506879Y5325005D01*
X11526609Y5351608D01*
X11548851Y5376149D01*
X11573392Y5398391D01*
X11599995Y5418121D01*
X11628404Y5435148D01*
X11658344Y5449309D01*
X11689529Y5460467D01*
X11721657Y5468515D01*
X11754419Y5473375D01*
X11787500Y5475000D01*
X12562500Y5475000D01*
X12595581Y5473375D01*
X12595581Y5473375D01*
G37*
D20*
X12175000Y4800000D03*
D16*
G36*
X10845581Y5473375D02*
X10878343Y5468515D01*
X10910471Y5460467D01*
X10941656Y5449309D01*
X10971596Y5435148D01*
X11000005Y5418121D01*
X11026608Y5398391D01*
X11051149Y5376149D01*
X11073391Y5351608D01*
X11093121Y5325005D01*
X11110148Y5296596D01*
X11124309Y5266656D01*
X11135467Y5235471D01*
X11143515Y5203343D01*
X11148375Y5170581D01*
X11150000Y5137500D01*
X11150000Y4462500D01*
X11148375Y4429419D01*
X11143515Y4396657D01*
X11135467Y4364529D01*
X11124309Y4333344D01*
X11110148Y4303404D01*
X11093121Y4274995D01*
X11073391Y4248392D01*
X11051149Y4223851D01*
X11026608Y4201609D01*
X11000005Y4181879D01*
X10971596Y4164852D01*
X10941656Y4150691D01*
X10910471Y4139533D01*
X10878343Y4131485D01*
X10845581Y4126625D01*
X10812500Y4125000D01*
X10037500Y4125000D01*
X10004419Y4126625D01*
X9971657Y4131485D01*
X9939529Y4139533D01*
X9908344Y4150691D01*
X9878404Y4164852D01*
X9849995Y4181879D01*
X9823392Y4201609D01*
X9798851Y4223851D01*
X9776609Y4248392D01*
X9756879Y4274995D01*
X9739852Y4303404D01*
X9725691Y4333344D01*
X9714533Y4364529D01*
X9706485Y4396657D01*
X9701625Y4429419D01*
X9700000Y4462500D01*
X9700000Y5137500D01*
X9701625Y5170581D01*
X9706485Y5203343D01*
X9714533Y5235471D01*
X9725691Y5266656D01*
X9739852Y5296596D01*
X9756879Y5325005D01*
X9776609Y5351608D01*
X9798851Y5376149D01*
X9823392Y5398391D01*
X9849995Y5418121D01*
X9878404Y5435148D01*
X9908344Y5449309D01*
X9939529Y5460467D01*
X9971657Y5468515D01*
X10004419Y5473375D01*
X10037500Y5475000D01*
X10812500Y5475000D01*
X10845581Y5473375D01*
X10845581Y5473375D01*
G37*
D20*
X10425000Y4800000D03*
G04 #@! TD*
D14*
G04 #@! TO.C,D1*
X20574000Y2540000D03*
D13*
X18034000Y2540000D03*
G04 #@! TD*
G04 #@! TO.C,D2*
X20574000Y7112000D03*
D14*
X18034000Y7112000D03*
G04 #@! TD*
D21*
G04 #@! TO.C,D3*
X10900000Y9300000D03*
D22*
X10900000Y6925000D03*
G04 #@! TD*
D23*
G04 #@! TO.C,JP1*
X4200000Y14400000D03*
D16*
G36*
X5273607Y13700000D02*
X3126393Y13700000D01*
X3826393Y15100000D01*
X4573607Y15100000D01*
X5273607Y13700000D01*
X5273607Y13700000D01*
G37*
D23*
X4200000Y12900000D03*
D16*
G36*
X4573607Y12200000D02*
X3826393Y12200000D01*
X3126393Y13600000D01*
X5273607Y13600000D01*
X4573607Y12200000D01*
X4573607Y12200000D01*
G37*
G04 #@! TD*
D10*
G04 #@! TO.C,J4*
X23900000Y24600000D03*
D11*
X23900000Y27140000D03*
X23900000Y29680000D03*
G04 #@! TD*
M02*
