G04 #@! TF.GenerationSoftware,KiCad,Pcbnew,5.0.0*
G04 #@! TF.CreationDate,2018-07-30T20:29:51+02:00*
G04 #@! TF.ProjectId,PTL-IR_remote,50544C2D49525F72656D6F74652E6B69,v1.1*
G04 #@! TF.SameCoordinates,PXa4b7f80PY71d9820*
G04 #@! TF.FileFunction,Copper,L2,Bot,Signal*
G04 #@! TF.FilePolarity,Positive*
%FSLAX46Y46*%
G04 Gerber Fmt 4.6, Leading zero omitted, Abs format (unit mm)*
G04 Created by KiCad (PCBNEW 5.0.0) date Mon Jul 30 20:29:51 2018*
%MOMM*%
%LPD*%
G01*
G04 APERTURE LIST*
G04 #@! TA.AperFunction,ComponentPad*
%ADD10R,1.700000X1.700000*%
G04 #@! TD*
G04 #@! TA.AperFunction,ComponentPad*
%ADD11O,1.700000X1.700000*%
G04 #@! TD*
G04 #@! TA.AperFunction,ComponentPad*
%ADD12C,4.000500*%
G04 #@! TD*
G04 #@! TA.AperFunction,ComponentPad*
%ADD13R,1.800000X1.800000*%
G04 #@! TD*
G04 #@! TA.AperFunction,ComponentPad*
%ADD14C,1.800000*%
G04 #@! TD*
G04 #@! TA.AperFunction,ComponentPad*
%ADD15C,1.600000*%
G04 #@! TD*
G04 #@! TA.AperFunction,ViaPad*
%ADD16C,0.600000*%
G04 #@! TD*
G04 #@! TA.AperFunction,Conductor*
%ADD17C,0.500000*%
G04 #@! TD*
G04 #@! TA.AperFunction,Conductor*
%ADD18C,0.300000*%
G04 #@! TD*
G04 #@! TA.AperFunction,Conductor*
%ADD19C,0.400000*%
G04 #@! TD*
G04 #@! TA.AperFunction,Conductor*
%ADD20C,0.254000*%
G04 #@! TD*
G04 APERTURE END LIST*
D10*
G04 #@! TO.P,J3,1*
G04 #@! TO.N,SDA*
X1300000Y32200000D03*
D11*
G04 #@! TO.P,J3,2*
G04 #@! TO.N,/SCL*
X1300000Y29660000D03*
G04 #@! TO.P,J3,3*
G04 #@! TO.N,GNDREF*
X1300000Y27120000D03*
G04 #@! TO.P,J3,4*
G04 #@! TO.N,+3V3*
X1300000Y24580000D03*
G04 #@! TD*
D12*
G04 #@! TO.P,3V3,1*
G04 #@! TO.N,+3V3*
X22600000Y33500000D03*
G04 #@! TD*
G04 #@! TO.P,D,1*
G04 #@! TO.N,OneW*
X22600000Y28700000D03*
G04 #@! TD*
G04 #@! TO.P,Gnd,1*
G04 #@! TO.N,GNDREF*
X22600000Y23900000D03*
G04 #@! TD*
D13*
G04 #@! TO.P,U1,1*
G04 #@! TO.N,IRM*
X5461000Y2286000D03*
D14*
G04 #@! TO.P,U1,2*
G04 #@! TO.N,GNDREF*
X8001000Y2286000D03*
G04 #@! TO.P,U1,3*
G04 #@! TO.N,Net-(C1-Pad1)*
X10541000Y2286000D03*
G04 #@! TD*
D10*
G04 #@! TO.P,DHT22,1*
G04 #@! TO.N,+3V3*
X7239000Y13900000D03*
D11*
G04 #@! TO.P,DHT22,2*
G04 #@! TO.N,DHT*
X9779000Y13900000D03*
G04 #@! TO.P,DHT22,3*
G04 #@! TO.N,N/C*
X12319000Y13900000D03*
G04 #@! TO.P,DHT22,4*
G04 #@! TO.N,GNDREF*
X14859000Y13900000D03*
G04 #@! TD*
G04 #@! TO.P,J1,8*
G04 #@! TO.N,N/C*
X23939500Y1333500D03*
G04 #@! TO.P,J1,7*
G04 #@! TO.N,PhR*
X23939500Y3873500D03*
G04 #@! TO.P,J1,6*
G04 #@! TO.N,N/C*
X23939500Y6413500D03*
G04 #@! TO.P,J1,5*
G04 #@! TO.N,IRM*
X23939500Y8953500D03*
G04 #@! TO.P,J1,4*
G04 #@! TO.N,OneW*
X23939500Y11493500D03*
G04 #@! TO.P,J1,3*
G04 #@! TO.N,N/C*
X23939500Y14033500D03*
G04 #@! TO.P,J1,2*
X23939500Y16573500D03*
D10*
G04 #@! TO.P,J1,1*
G04 #@! TO.N,+3V3*
X23939500Y19113500D03*
G04 #@! TD*
G04 #@! TO.P,J2,1*
G04 #@! TO.N,N/C*
X1270000Y1270000D03*
D11*
G04 #@! TO.P,J2,2*
X1270000Y3810000D03*
G04 #@! TO.P,J2,3*
G04 #@! TO.N,D2*
X1270000Y6350000D03*
G04 #@! TO.P,J2,4*
G04 #@! TO.N,SDA*
X1270000Y8890000D03*
G04 #@! TO.P,J2,5*
G04 #@! TO.N,IR*
X1270000Y11430000D03*
G04 #@! TO.P,J2,6*
G04 #@! TO.N,DHT*
X1270000Y13970000D03*
G04 #@! TO.P,J2,7*
G04 #@! TO.N,+5V*
X1270000Y16510000D03*
G04 #@! TO.P,J2,8*
G04 #@! TO.N,GNDREF*
X1270000Y19050000D03*
G04 #@! TD*
D15*
G04 #@! TO.P,PR1,1*
G04 #@! TO.N,+3V3*
X19700000Y13740000D03*
G04 #@! TO.P,PR1,2*
G04 #@! TO.N,PhR*
X19700000Y11200000D03*
G04 #@! TD*
D14*
G04 #@! TO.P,D1,2*
G04 #@! TO.N,Net-(D1-Pad2)*
X20574000Y2540000D03*
D13*
G04 #@! TO.P,D1,1*
G04 #@! TO.N,Net-(D1-Pad1)*
X18034000Y2540000D03*
G04 #@! TD*
G04 #@! TO.P,D2,1*
G04 #@! TO.N,Net-(D1-Pad2)*
X20574000Y7112000D03*
D14*
G04 #@! TO.P,D2,2*
G04 #@! TO.N,+5V*
X18034000Y7112000D03*
G04 #@! TD*
D16*
G04 #@! TO.N,+3V3*
X4841000Y20066000D03*
G04 #@! TO.N,+5V*
X5200000Y16500000D03*
X10500006Y11700000D03*
G04 #@! TO.N,OneW*
X21500000Y20900000D03*
G04 #@! TO.N,IR*
X11600000Y11399998D03*
G04 #@! TO.N,/SCL*
X5500000Y36100000D03*
G04 #@! TD*
D17*
G04 #@! TO.N,+3V3*
X1270000Y24574500D02*
X1270000Y23372419D01*
X1270000Y23372419D02*
X1270000Y22352000D01*
X1270000Y22352000D02*
X3556000Y20066000D01*
X3556000Y20066000D02*
X4841000Y20066000D01*
G04 #@! TO.N,+5V*
X1280000Y16500000D02*
X1270000Y16510000D01*
X5200000Y16500000D02*
X1280000Y16500000D01*
X18034000Y7112000D02*
X12946001Y12199999D01*
X11000005Y12199999D02*
X10800005Y11999999D01*
X10800005Y11999999D02*
X10500006Y11700000D01*
X12946001Y12199999D02*
X11000005Y12199999D01*
D18*
G04 #@! TO.N,DHT*
X9600000Y12200000D02*
X9000000Y12200000D01*
X1270000Y13970000D02*
X3040000Y12200000D01*
X3040000Y12200000D02*
X9600000Y12200000D01*
X9779000Y12379000D02*
X9779000Y13900000D01*
X9600000Y12200000D02*
X9779000Y12379000D01*
G04 #@! TO.N,OneW*
X23939500Y11493500D02*
X21500000Y13933000D01*
X21500000Y13933000D02*
X21500000Y20900000D01*
G04 #@! TO.N,PhR*
X22200000Y8860000D02*
X22200000Y5613000D01*
X19800000Y11260000D02*
X22200000Y8860000D01*
X22200000Y5613000D02*
X23939500Y3873500D01*
G04 #@! TO.N,IR*
X10780003Y10580001D02*
X11300001Y11099999D01*
X11300001Y11099999D02*
X11600000Y11399998D01*
X2119999Y10580001D02*
X10780003Y10580001D01*
X1270000Y11430000D02*
X2119999Y10580001D01*
D17*
G04 #@! TO.N,GNDREF*
X2320000Y18000000D02*
X1270000Y19050000D01*
X7800000Y18000000D02*
X2320000Y18000000D01*
X7800000Y20620000D02*
X7800000Y18000000D01*
X1300000Y27120000D02*
X7800000Y20620000D01*
X13600000Y15159000D02*
X14859000Y13900000D01*
X7800000Y18000000D02*
X10200000Y15600000D01*
X13600000Y15600000D02*
X13600000Y15159000D01*
X10200000Y15600000D02*
X13600000Y15600000D01*
X13600000Y15600000D02*
X17500000Y15600000D01*
X17500000Y15600000D02*
X19900000Y18000000D01*
X19900000Y21200000D02*
X22600000Y23900000D01*
X19900000Y18000000D02*
X19900000Y21200000D01*
D19*
G04 #@! TO.N,/SCL*
X5500000Y33600000D02*
X1300000Y29660000D01*
X5500000Y36100000D02*
X5500000Y33600000D01*
G04 #@! TD*
D20*
G04 #@! TO.N,GNDREF*
G36*
X16499000Y7395421D02*
X16499000Y6806670D01*
X16732690Y6242493D01*
X17164493Y5810690D01*
X17728670Y5577000D01*
X18339330Y5577000D01*
X18903507Y5810690D01*
X19072725Y5979908D01*
X19075843Y5964235D01*
X19216191Y5754191D01*
X19426235Y5613843D01*
X19674000Y5564560D01*
X21409257Y5564560D01*
X21460546Y5306709D01*
X21590251Y5112592D01*
X21590254Y5112589D01*
X21634048Y5047047D01*
X21699590Y5003253D01*
X22492425Y4210418D01*
X22425408Y3873500D01*
X22540661Y3294082D01*
X22868875Y2802875D01*
X23167261Y2603500D01*
X22868875Y2404125D01*
X22540661Y1912918D01*
X22425408Y1333500D01*
X22540661Y754082D01*
X22570116Y710000D01*
X2767440Y710000D01*
X2767440Y2120000D01*
X2718157Y2367765D01*
X2577809Y2577809D01*
X2367765Y2718157D01*
X2322381Y2727184D01*
X2340625Y2739375D01*
X2639050Y3186000D01*
X3913560Y3186000D01*
X3913560Y1386000D01*
X3962843Y1138235D01*
X4103191Y928191D01*
X4313235Y787843D01*
X4561000Y738560D01*
X6361000Y738560D01*
X6608765Y787843D01*
X6818809Y928191D01*
X6951058Y1126114D01*
X6985890Y1091282D01*
X7100447Y1205839D01*
X7186852Y949357D01*
X7760336Y739542D01*
X8370460Y765161D01*
X8815148Y949357D01*
X8901554Y1205841D01*
X8001000Y2106395D01*
X7986858Y2092252D01*
X7807253Y2271857D01*
X7821395Y2286000D01*
X8180605Y2286000D01*
X9081159Y1385446D01*
X9231562Y1436115D01*
X9239690Y1416493D01*
X9671493Y984690D01*
X10235670Y751000D01*
X10846330Y751000D01*
X11410507Y984690D01*
X11842310Y1416493D01*
X12076000Y1980670D01*
X12076000Y2591330D01*
X11842310Y3155507D01*
X11557817Y3440000D01*
X16486560Y3440000D01*
X16486560Y1640000D01*
X16535843Y1392235D01*
X16676191Y1182191D01*
X16886235Y1041843D01*
X17134000Y992560D01*
X18934000Y992560D01*
X19181765Y1041843D01*
X19391809Y1182191D01*
X19532157Y1392235D01*
X19535275Y1407908D01*
X19704493Y1238690D01*
X20268670Y1005000D01*
X20879330Y1005000D01*
X21443507Y1238690D01*
X21875310Y1670493D01*
X22109000Y2234670D01*
X22109000Y2845330D01*
X21875310Y3409507D01*
X21443507Y3841310D01*
X20879330Y4075000D01*
X20268670Y4075000D01*
X19704493Y3841310D01*
X19535275Y3672092D01*
X19532157Y3687765D01*
X19391809Y3897809D01*
X19181765Y4038157D01*
X18934000Y4087440D01*
X17134000Y4087440D01*
X16886235Y4038157D01*
X16676191Y3897809D01*
X16535843Y3687765D01*
X16486560Y3440000D01*
X11557817Y3440000D01*
X11410507Y3587310D01*
X10846330Y3821000D01*
X10235670Y3821000D01*
X9671493Y3587310D01*
X9239690Y3155507D01*
X9231562Y3135885D01*
X9081159Y3186554D01*
X8180605Y2286000D01*
X7821395Y2286000D01*
X7807253Y2300142D01*
X7986858Y2479747D01*
X8001000Y2465605D01*
X8901554Y3366159D01*
X8815148Y3622643D01*
X8241664Y3832458D01*
X7631540Y3806839D01*
X7186852Y3622643D01*
X7100447Y3366161D01*
X6985890Y3480718D01*
X6951058Y3445886D01*
X6818809Y3643809D01*
X6608765Y3784157D01*
X6361000Y3833440D01*
X4561000Y3833440D01*
X4313235Y3784157D01*
X4103191Y3643809D01*
X3962843Y3433765D01*
X3913560Y3186000D01*
X2639050Y3186000D01*
X2668839Y3230582D01*
X2784092Y3810000D01*
X2668839Y4389418D01*
X2340625Y4880625D01*
X2042239Y5080000D01*
X2340625Y5279375D01*
X2668839Y5770582D01*
X2784092Y6350000D01*
X2668839Y6929418D01*
X2340625Y7420625D01*
X2042239Y7620000D01*
X2340625Y7819375D01*
X2668839Y8310582D01*
X2784092Y8890000D01*
X2668839Y9469418D01*
X2451291Y9795001D01*
X10702691Y9795001D01*
X10780003Y9779623D01*
X10857315Y9795001D01*
X10857319Y9795001D01*
X11086295Y9840547D01*
X11345956Y10014048D01*
X11389752Y10079593D01*
X11775158Y10464998D01*
X11785983Y10464998D01*
X12129635Y10607343D01*
X12392655Y10870363D01*
X12535000Y11214015D01*
X12535000Y11314999D01*
X12579423Y11314999D01*
X16499000Y7395421D01*
X16499000Y7395421D01*
G37*
X16499000Y7395421D02*
X16499000Y6806670D01*
X16732690Y6242493D01*
X17164493Y5810690D01*
X17728670Y5577000D01*
X18339330Y5577000D01*
X18903507Y5810690D01*
X19072725Y5979908D01*
X19075843Y5964235D01*
X19216191Y5754191D01*
X19426235Y5613843D01*
X19674000Y5564560D01*
X21409257Y5564560D01*
X21460546Y5306709D01*
X21590251Y5112592D01*
X21590254Y5112589D01*
X21634048Y5047047D01*
X21699590Y5003253D01*
X22492425Y4210418D01*
X22425408Y3873500D01*
X22540661Y3294082D01*
X22868875Y2802875D01*
X23167261Y2603500D01*
X22868875Y2404125D01*
X22540661Y1912918D01*
X22425408Y1333500D01*
X22540661Y754082D01*
X22570116Y710000D01*
X2767440Y710000D01*
X2767440Y2120000D01*
X2718157Y2367765D01*
X2577809Y2577809D01*
X2367765Y2718157D01*
X2322381Y2727184D01*
X2340625Y2739375D01*
X2639050Y3186000D01*
X3913560Y3186000D01*
X3913560Y1386000D01*
X3962843Y1138235D01*
X4103191Y928191D01*
X4313235Y787843D01*
X4561000Y738560D01*
X6361000Y738560D01*
X6608765Y787843D01*
X6818809Y928191D01*
X6951058Y1126114D01*
X6985890Y1091282D01*
X7100447Y1205839D01*
X7186852Y949357D01*
X7760336Y739542D01*
X8370460Y765161D01*
X8815148Y949357D01*
X8901554Y1205841D01*
X8001000Y2106395D01*
X7986858Y2092252D01*
X7807253Y2271857D01*
X7821395Y2286000D01*
X8180605Y2286000D01*
X9081159Y1385446D01*
X9231562Y1436115D01*
X9239690Y1416493D01*
X9671493Y984690D01*
X10235670Y751000D01*
X10846330Y751000D01*
X11410507Y984690D01*
X11842310Y1416493D01*
X12076000Y1980670D01*
X12076000Y2591330D01*
X11842310Y3155507D01*
X11557817Y3440000D01*
X16486560Y3440000D01*
X16486560Y1640000D01*
X16535843Y1392235D01*
X16676191Y1182191D01*
X16886235Y1041843D01*
X17134000Y992560D01*
X18934000Y992560D01*
X19181765Y1041843D01*
X19391809Y1182191D01*
X19532157Y1392235D01*
X19535275Y1407908D01*
X19704493Y1238690D01*
X20268670Y1005000D01*
X20879330Y1005000D01*
X21443507Y1238690D01*
X21875310Y1670493D01*
X22109000Y2234670D01*
X22109000Y2845330D01*
X21875310Y3409507D01*
X21443507Y3841310D01*
X20879330Y4075000D01*
X20268670Y4075000D01*
X19704493Y3841310D01*
X19535275Y3672092D01*
X19532157Y3687765D01*
X19391809Y3897809D01*
X19181765Y4038157D01*
X18934000Y4087440D01*
X17134000Y4087440D01*
X16886235Y4038157D01*
X16676191Y3897809D01*
X16535843Y3687765D01*
X16486560Y3440000D01*
X11557817Y3440000D01*
X11410507Y3587310D01*
X10846330Y3821000D01*
X10235670Y3821000D01*
X9671493Y3587310D01*
X9239690Y3155507D01*
X9231562Y3135885D01*
X9081159Y3186554D01*
X8180605Y2286000D01*
X7821395Y2286000D01*
X7807253Y2300142D01*
X7986858Y2479747D01*
X8001000Y2465605D01*
X8901554Y3366159D01*
X8815148Y3622643D01*
X8241664Y3832458D01*
X7631540Y3806839D01*
X7186852Y3622643D01*
X7100447Y3366161D01*
X6985890Y3480718D01*
X6951058Y3445886D01*
X6818809Y3643809D01*
X6608765Y3784157D01*
X6361000Y3833440D01*
X4561000Y3833440D01*
X4313235Y3784157D01*
X4103191Y3643809D01*
X3962843Y3433765D01*
X3913560Y3186000D01*
X2639050Y3186000D01*
X2668839Y3230582D01*
X2784092Y3810000D01*
X2668839Y4389418D01*
X2340625Y4880625D01*
X2042239Y5080000D01*
X2340625Y5279375D01*
X2668839Y5770582D01*
X2784092Y6350000D01*
X2668839Y6929418D01*
X2340625Y7420625D01*
X2042239Y7620000D01*
X2340625Y7819375D01*
X2668839Y8310582D01*
X2784092Y8890000D01*
X2668839Y9469418D01*
X2451291Y9795001D01*
X10702691Y9795001D01*
X10780003Y9779623D01*
X10857315Y9795001D01*
X10857319Y9795001D01*
X11086295Y9840547D01*
X11345956Y10014048D01*
X11389752Y10079593D01*
X11775158Y10464998D01*
X11785983Y10464998D01*
X12129635Y10607343D01*
X12392655Y10870363D01*
X12535000Y11214015D01*
X12535000Y11314999D01*
X12579423Y11314999D01*
X16499000Y7395421D01*
G36*
X20312517Y39374239D02*
X23618513Y35930492D01*
X23124184Y36135250D01*
X22075816Y36135250D01*
X21107251Y35734057D01*
X20365943Y34992749D01*
X19964750Y34024184D01*
X19964750Y32975816D01*
X20365943Y32007251D01*
X21107251Y31265943D01*
X21507873Y31100000D01*
X21107251Y30934057D01*
X20365943Y30192749D01*
X19964750Y29224184D01*
X19964750Y28175816D01*
X20365943Y27207251D01*
X21107251Y26465943D01*
X21502494Y26302228D01*
X21125203Y26145949D01*
X20904403Y25775202D01*
X22600000Y24079605D01*
X24295597Y25775202D01*
X24074797Y26145949D01*
X23693195Y26300442D01*
X24092749Y26465943D01*
X24690000Y27063194D01*
X24690000Y25467673D01*
X24475202Y25595597D01*
X22779605Y23900000D01*
X24475202Y22204403D01*
X24690000Y22332327D01*
X24690000Y20610940D01*
X23089500Y20610940D01*
X22841735Y20561657D01*
X22631691Y20421309D01*
X22491343Y20211265D01*
X22442060Y19963500D01*
X22442060Y18263500D01*
X22491343Y18015735D01*
X22631691Y17805691D01*
X22841735Y17665343D01*
X22887119Y17656316D01*
X22868875Y17644125D01*
X22540661Y17152918D01*
X22425408Y16573500D01*
X22540661Y15994082D01*
X22868875Y15502875D01*
X23167261Y15303500D01*
X22868875Y15104125D01*
X22540661Y14612918D01*
X22439386Y14103771D01*
X22285000Y14258157D01*
X22285000Y20362710D01*
X22292655Y20370365D01*
X22435000Y20714017D01*
X22435000Y21085983D01*
X22361779Y21262755D01*
X23145287Y21269035D01*
X24074797Y21654051D01*
X24295597Y22024798D01*
X22600000Y23720395D01*
X20904403Y22024798D01*
X21076123Y21736461D01*
X20970365Y21692655D01*
X20707345Y21429635D01*
X20565000Y21085983D01*
X20565000Y20714017D01*
X20707345Y20370365D01*
X20715001Y20362709D01*
X20715000Y14754396D01*
X20512862Y14956534D01*
X19985439Y15175000D01*
X19414561Y15175000D01*
X18887138Y14956534D01*
X18483466Y14552862D01*
X18265000Y14025439D01*
X18265000Y13454561D01*
X18483466Y12927138D01*
X18887138Y12523466D01*
X19016216Y12470000D01*
X18887138Y12416534D01*
X18483466Y12012862D01*
X18265000Y11485439D01*
X18265000Y10914561D01*
X18483466Y10387138D01*
X18887138Y9983466D01*
X19414561Y9765000D01*
X19985439Y9765000D01*
X20126439Y9823404D01*
X21290403Y8659440D01*
X19674000Y8659440D01*
X19426235Y8610157D01*
X19216191Y8469809D01*
X19075843Y8259765D01*
X19072725Y8244092D01*
X18903507Y8413310D01*
X18339330Y8647000D01*
X17750579Y8647000D01*
X13633426Y12764152D01*
X13584050Y12838048D01*
X13453643Y12925184D01*
X13602843Y13148478D01*
X13663817Y13018642D01*
X14092076Y12628355D01*
X14502110Y12458524D01*
X14732000Y12579845D01*
X14732000Y13773000D01*
X14986000Y13773000D01*
X14986000Y12579845D01*
X15215890Y12458524D01*
X15625924Y12628355D01*
X16054183Y13018642D01*
X16300486Y13543108D01*
X16179819Y13773000D01*
X14986000Y13773000D01*
X14732000Y13773000D01*
X14712000Y13773000D01*
X14712000Y14027000D01*
X14732000Y14027000D01*
X14732000Y15220155D01*
X14986000Y15220155D01*
X14986000Y14027000D01*
X16179819Y14027000D01*
X16300486Y14256892D01*
X16054183Y14781358D01*
X15625924Y15171645D01*
X15215890Y15341476D01*
X14986000Y15220155D01*
X14732000Y15220155D01*
X14502110Y15341476D01*
X14092076Y15171645D01*
X13663817Y14781358D01*
X13602843Y14651522D01*
X13389625Y14970625D01*
X12898418Y15298839D01*
X12465256Y15385000D01*
X12172744Y15385000D01*
X11739582Y15298839D01*
X11248375Y14970625D01*
X11049000Y14672239D01*
X10849625Y14970625D01*
X10358418Y15298839D01*
X9925256Y15385000D01*
X9632744Y15385000D01*
X9199582Y15298839D01*
X8708375Y14970625D01*
X8696184Y14952381D01*
X8687157Y14997765D01*
X8546809Y15207809D01*
X8336765Y15348157D01*
X8089000Y15397440D01*
X6389000Y15397440D01*
X6141235Y15348157D01*
X5931191Y15207809D01*
X5790843Y14997765D01*
X5741560Y14750000D01*
X5741560Y13050000D01*
X5754489Y12985000D01*
X3365158Y12985000D01*
X2717075Y13633082D01*
X2784092Y13970000D01*
X2668839Y14549418D01*
X2340625Y15040625D01*
X2042239Y15240000D01*
X2340625Y15439375D01*
X2457974Y15615000D01*
X4893306Y15615000D01*
X5014017Y15565000D01*
X5385983Y15565000D01*
X5729635Y15707345D01*
X5992655Y15970365D01*
X6135000Y16314017D01*
X6135000Y16685983D01*
X5992655Y17029635D01*
X5729635Y17292655D01*
X5385983Y17435000D01*
X5014017Y17435000D01*
X4893306Y17385000D01*
X2471337Y17385000D01*
X2340625Y17580625D01*
X2021522Y17793843D01*
X2151358Y17854817D01*
X2541645Y18283076D01*
X2711476Y18693110D01*
X2590155Y18923000D01*
X1397000Y18923000D01*
X1397000Y18903000D01*
X1143000Y18903000D01*
X1143000Y18923000D01*
X1123000Y18923000D01*
X1123000Y19177000D01*
X1143000Y19177000D01*
X1143000Y20370819D01*
X913108Y20491486D01*
X710000Y20396101D01*
X710000Y21660422D01*
X2102110Y20268311D01*
X1626892Y20491486D01*
X1397000Y20370819D01*
X1397000Y19177000D01*
X2590155Y19177000D01*
X2711476Y19406890D01*
X2541645Y19816924D01*
X2419824Y19950597D01*
X2868577Y19501844D01*
X2917951Y19427951D01*
X2991844Y19378577D01*
X2991845Y19378576D01*
X3102880Y19304385D01*
X3210690Y19232348D01*
X3468835Y19181000D01*
X3468839Y19181000D01*
X3555999Y19163663D01*
X3643159Y19181000D01*
X4534306Y19181000D01*
X4655017Y19131000D01*
X5026983Y19131000D01*
X5370635Y19273345D01*
X5633655Y19536365D01*
X5776000Y19880017D01*
X5776000Y20251983D01*
X5633655Y20595635D01*
X5370635Y20858655D01*
X5026983Y21001000D01*
X4655017Y21001000D01*
X4534306Y20951000D01*
X3922579Y20951000D01*
X2155000Y22718578D01*
X2155000Y23365299D01*
X2370625Y23509375D01*
X2698839Y24000582D01*
X2814092Y24580000D01*
X2698839Y25159418D01*
X2370625Y25650625D01*
X2051522Y25863843D01*
X2181358Y25924817D01*
X2518573Y26294841D01*
X7715000Y26294841D01*
X7715000Y25505159D01*
X8017199Y24775588D01*
X8575588Y24217199D01*
X9305159Y23915000D01*
X10094841Y23915000D01*
X10824412Y24217199D01*
X11010260Y24403047D01*
X19960633Y24403047D01*
X19969035Y23354713D01*
X20354051Y22425203D01*
X20724798Y22204403D01*
X22420395Y23900000D01*
X20724798Y25595597D01*
X20354051Y25374797D01*
X19960633Y24403047D01*
X11010260Y24403047D01*
X11382801Y24775588D01*
X11685000Y25505159D01*
X11685000Y26294841D01*
X11382801Y27024412D01*
X10824412Y27582801D01*
X10094841Y27885000D01*
X9305159Y27885000D01*
X8575588Y27582801D01*
X8017199Y27024412D01*
X7715000Y26294841D01*
X2518573Y26294841D01*
X2571645Y26353076D01*
X2741476Y26763110D01*
X2620155Y26993000D01*
X1427000Y26993000D01*
X1427000Y26973000D01*
X1173000Y26973000D01*
X1173000Y26993000D01*
X1153000Y26993000D01*
X1153000Y27247000D01*
X1173000Y27247000D01*
X1173000Y27267000D01*
X1427000Y27267000D01*
X1427000Y27247000D01*
X2620155Y27247000D01*
X2741476Y27476890D01*
X2571645Y27886924D01*
X2181358Y28315183D01*
X2051522Y28376157D01*
X2370625Y28589375D01*
X2698839Y29080582D01*
X2814092Y29660000D01*
X2767916Y29892145D01*
X6021112Y32943950D01*
X6102001Y32997999D01*
X6186867Y33125009D01*
X6275750Y33249255D01*
X6278876Y33262712D01*
X6286552Y33274199D01*
X6316354Y33424023D01*
X6350924Y33572820D01*
X6335000Y33668795D01*
X6335000Y35672595D01*
X6435000Y35914017D01*
X6435000Y36285983D01*
X6292655Y36629635D01*
X6029635Y36892655D01*
X5685983Y37035000D01*
X5314017Y37035000D01*
X4970365Y36892655D01*
X4707345Y36629635D01*
X4565000Y36285983D01*
X4565000Y35914017D01*
X4665000Y35672595D01*
X4665001Y33961593D01*
X2797440Y32209642D01*
X2797440Y33050000D01*
X2748157Y33297765D01*
X2607809Y33507809D01*
X2397765Y33648157D01*
X2150000Y33697440D01*
X710000Y33697440D01*
X710000Y34517948D01*
X1612651Y35474758D01*
X3265279Y37194841D01*
X9115000Y37194841D01*
X9115000Y36405159D01*
X9417199Y35675588D01*
X9975588Y35117199D01*
X10705159Y34815000D01*
X11494841Y34815000D01*
X12224412Y35117199D01*
X12782801Y35675588D01*
X13085000Y36405159D01*
X13085000Y37194841D01*
X12782801Y37924412D01*
X12224412Y38482801D01*
X11494841Y38785000D01*
X10705159Y38785000D01*
X9975588Y38482801D01*
X9417199Y37924412D01*
X9115000Y37194841D01*
X3265279Y37194841D01*
X5374354Y39390000D01*
X17932621Y39390000D01*
X20312517Y39374239D01*
X20312517Y39374239D01*
G37*
X20312517Y39374239D02*
X23618513Y35930492D01*
X23124184Y36135250D01*
X22075816Y36135250D01*
X21107251Y35734057D01*
X20365943Y34992749D01*
X19964750Y34024184D01*
X19964750Y32975816D01*
X20365943Y32007251D01*
X21107251Y31265943D01*
X21507873Y31100000D01*
X21107251Y30934057D01*
X20365943Y30192749D01*
X19964750Y29224184D01*
X19964750Y28175816D01*
X20365943Y27207251D01*
X21107251Y26465943D01*
X21502494Y26302228D01*
X21125203Y26145949D01*
X20904403Y25775202D01*
X22600000Y24079605D01*
X24295597Y25775202D01*
X24074797Y26145949D01*
X23693195Y26300442D01*
X24092749Y26465943D01*
X24690000Y27063194D01*
X24690000Y25467673D01*
X24475202Y25595597D01*
X22779605Y23900000D01*
X24475202Y22204403D01*
X24690000Y22332327D01*
X24690000Y20610940D01*
X23089500Y20610940D01*
X22841735Y20561657D01*
X22631691Y20421309D01*
X22491343Y20211265D01*
X22442060Y19963500D01*
X22442060Y18263500D01*
X22491343Y18015735D01*
X22631691Y17805691D01*
X22841735Y17665343D01*
X22887119Y17656316D01*
X22868875Y17644125D01*
X22540661Y17152918D01*
X22425408Y16573500D01*
X22540661Y15994082D01*
X22868875Y15502875D01*
X23167261Y15303500D01*
X22868875Y15104125D01*
X22540661Y14612918D01*
X22439386Y14103771D01*
X22285000Y14258157D01*
X22285000Y20362710D01*
X22292655Y20370365D01*
X22435000Y20714017D01*
X22435000Y21085983D01*
X22361779Y21262755D01*
X23145287Y21269035D01*
X24074797Y21654051D01*
X24295597Y22024798D01*
X22600000Y23720395D01*
X20904403Y22024798D01*
X21076123Y21736461D01*
X20970365Y21692655D01*
X20707345Y21429635D01*
X20565000Y21085983D01*
X20565000Y20714017D01*
X20707345Y20370365D01*
X20715001Y20362709D01*
X20715000Y14754396D01*
X20512862Y14956534D01*
X19985439Y15175000D01*
X19414561Y15175000D01*
X18887138Y14956534D01*
X18483466Y14552862D01*
X18265000Y14025439D01*
X18265000Y13454561D01*
X18483466Y12927138D01*
X18887138Y12523466D01*
X19016216Y12470000D01*
X18887138Y12416534D01*
X18483466Y12012862D01*
X18265000Y11485439D01*
X18265000Y10914561D01*
X18483466Y10387138D01*
X18887138Y9983466D01*
X19414561Y9765000D01*
X19985439Y9765000D01*
X20126439Y9823404D01*
X21290403Y8659440D01*
X19674000Y8659440D01*
X19426235Y8610157D01*
X19216191Y8469809D01*
X19075843Y8259765D01*
X19072725Y8244092D01*
X18903507Y8413310D01*
X18339330Y8647000D01*
X17750579Y8647000D01*
X13633426Y12764152D01*
X13584050Y12838048D01*
X13453643Y12925184D01*
X13602843Y13148478D01*
X13663817Y13018642D01*
X14092076Y12628355D01*
X14502110Y12458524D01*
X14732000Y12579845D01*
X14732000Y13773000D01*
X14986000Y13773000D01*
X14986000Y12579845D01*
X15215890Y12458524D01*
X15625924Y12628355D01*
X16054183Y13018642D01*
X16300486Y13543108D01*
X16179819Y13773000D01*
X14986000Y13773000D01*
X14732000Y13773000D01*
X14712000Y13773000D01*
X14712000Y14027000D01*
X14732000Y14027000D01*
X14732000Y15220155D01*
X14986000Y15220155D01*
X14986000Y14027000D01*
X16179819Y14027000D01*
X16300486Y14256892D01*
X16054183Y14781358D01*
X15625924Y15171645D01*
X15215890Y15341476D01*
X14986000Y15220155D01*
X14732000Y15220155D01*
X14502110Y15341476D01*
X14092076Y15171645D01*
X13663817Y14781358D01*
X13602843Y14651522D01*
X13389625Y14970625D01*
X12898418Y15298839D01*
X12465256Y15385000D01*
X12172744Y15385000D01*
X11739582Y15298839D01*
X11248375Y14970625D01*
X11049000Y14672239D01*
X10849625Y14970625D01*
X10358418Y15298839D01*
X9925256Y15385000D01*
X9632744Y15385000D01*
X9199582Y15298839D01*
X8708375Y14970625D01*
X8696184Y14952381D01*
X8687157Y14997765D01*
X8546809Y15207809D01*
X8336765Y15348157D01*
X8089000Y15397440D01*
X6389000Y15397440D01*
X6141235Y15348157D01*
X5931191Y15207809D01*
X5790843Y14997765D01*
X5741560Y14750000D01*
X5741560Y13050000D01*
X5754489Y12985000D01*
X3365158Y12985000D01*
X2717075Y13633082D01*
X2784092Y13970000D01*
X2668839Y14549418D01*
X2340625Y15040625D01*
X2042239Y15240000D01*
X2340625Y15439375D01*
X2457974Y15615000D01*
X4893306Y15615000D01*
X5014017Y15565000D01*
X5385983Y15565000D01*
X5729635Y15707345D01*
X5992655Y15970365D01*
X6135000Y16314017D01*
X6135000Y16685983D01*
X5992655Y17029635D01*
X5729635Y17292655D01*
X5385983Y17435000D01*
X5014017Y17435000D01*
X4893306Y17385000D01*
X2471337Y17385000D01*
X2340625Y17580625D01*
X2021522Y17793843D01*
X2151358Y17854817D01*
X2541645Y18283076D01*
X2711476Y18693110D01*
X2590155Y18923000D01*
X1397000Y18923000D01*
X1397000Y18903000D01*
X1143000Y18903000D01*
X1143000Y18923000D01*
X1123000Y18923000D01*
X1123000Y19177000D01*
X1143000Y19177000D01*
X1143000Y20370819D01*
X913108Y20491486D01*
X710000Y20396101D01*
X710000Y21660422D01*
X2102110Y20268311D01*
X1626892Y20491486D01*
X1397000Y20370819D01*
X1397000Y19177000D01*
X2590155Y19177000D01*
X2711476Y19406890D01*
X2541645Y19816924D01*
X2419824Y19950597D01*
X2868577Y19501844D01*
X2917951Y19427951D01*
X2991844Y19378577D01*
X2991845Y19378576D01*
X3102880Y19304385D01*
X3210690Y19232348D01*
X3468835Y19181000D01*
X3468839Y19181000D01*
X3555999Y19163663D01*
X3643159Y19181000D01*
X4534306Y19181000D01*
X4655017Y19131000D01*
X5026983Y19131000D01*
X5370635Y19273345D01*
X5633655Y19536365D01*
X5776000Y19880017D01*
X5776000Y20251983D01*
X5633655Y20595635D01*
X5370635Y20858655D01*
X5026983Y21001000D01*
X4655017Y21001000D01*
X4534306Y20951000D01*
X3922579Y20951000D01*
X2155000Y22718578D01*
X2155000Y23365299D01*
X2370625Y23509375D01*
X2698839Y24000582D01*
X2814092Y24580000D01*
X2698839Y25159418D01*
X2370625Y25650625D01*
X2051522Y25863843D01*
X2181358Y25924817D01*
X2518573Y26294841D01*
X7715000Y26294841D01*
X7715000Y25505159D01*
X8017199Y24775588D01*
X8575588Y24217199D01*
X9305159Y23915000D01*
X10094841Y23915000D01*
X10824412Y24217199D01*
X11010260Y24403047D01*
X19960633Y24403047D01*
X19969035Y23354713D01*
X20354051Y22425203D01*
X20724798Y22204403D01*
X22420395Y23900000D01*
X20724798Y25595597D01*
X20354051Y25374797D01*
X19960633Y24403047D01*
X11010260Y24403047D01*
X11382801Y24775588D01*
X11685000Y25505159D01*
X11685000Y26294841D01*
X11382801Y27024412D01*
X10824412Y27582801D01*
X10094841Y27885000D01*
X9305159Y27885000D01*
X8575588Y27582801D01*
X8017199Y27024412D01*
X7715000Y26294841D01*
X2518573Y26294841D01*
X2571645Y26353076D01*
X2741476Y26763110D01*
X2620155Y26993000D01*
X1427000Y26993000D01*
X1427000Y26973000D01*
X1173000Y26973000D01*
X1173000Y26993000D01*
X1153000Y26993000D01*
X1153000Y27247000D01*
X1173000Y27247000D01*
X1173000Y27267000D01*
X1427000Y27267000D01*
X1427000Y27247000D01*
X2620155Y27247000D01*
X2741476Y27476890D01*
X2571645Y27886924D01*
X2181358Y28315183D01*
X2051522Y28376157D01*
X2370625Y28589375D01*
X2698839Y29080582D01*
X2814092Y29660000D01*
X2767916Y29892145D01*
X6021112Y32943950D01*
X6102001Y32997999D01*
X6186867Y33125009D01*
X6275750Y33249255D01*
X6278876Y33262712D01*
X6286552Y33274199D01*
X6316354Y33424023D01*
X6350924Y33572820D01*
X6335000Y33668795D01*
X6335000Y35672595D01*
X6435000Y35914017D01*
X6435000Y36285983D01*
X6292655Y36629635D01*
X6029635Y36892655D01*
X5685983Y37035000D01*
X5314017Y37035000D01*
X4970365Y36892655D01*
X4707345Y36629635D01*
X4565000Y36285983D01*
X4565000Y35914017D01*
X4665000Y35672595D01*
X4665001Y33961593D01*
X2797440Y32209642D01*
X2797440Y33050000D01*
X2748157Y33297765D01*
X2607809Y33507809D01*
X2397765Y33648157D01*
X2150000Y33697440D01*
X710000Y33697440D01*
X710000Y34517948D01*
X1612651Y35474758D01*
X3265279Y37194841D01*
X9115000Y37194841D01*
X9115000Y36405159D01*
X9417199Y35675588D01*
X9975588Y35117199D01*
X10705159Y34815000D01*
X11494841Y34815000D01*
X12224412Y35117199D01*
X12782801Y35675588D01*
X13085000Y36405159D01*
X13085000Y37194841D01*
X12782801Y37924412D01*
X12224412Y38482801D01*
X11494841Y38785000D01*
X10705159Y38785000D01*
X9975588Y38482801D01*
X9417199Y37924412D01*
X9115000Y37194841D01*
X3265279Y37194841D01*
X5374354Y39390000D01*
X17932621Y39390000D01*
X20312517Y39374239D01*
G04 #@! TD*
M02*
