G04 #@! TF.GenerationSoftware,KiCad,Pcbnew,(5.0.0-3-g5ebb6b6)*
G04 #@! TF.CreationDate,2018-08-17T00:10:27+02:00*
G04 #@! TF.ProjectId,PTL-IR_remote,50544C2D49525F72656D6F74652E6B69,v1.1*
G04 #@! TF.SameCoordinates,PXa4b7f80PY71d9820*
G04 #@! TF.FileFunction,Legend,Bot*
G04 #@! TF.FilePolarity,Positive*
%FSLAX46Y46*%
G04 Gerber Fmt 4.6, Leading zero omitted, Abs format (unit mm)*
G04 Created by KiCad (PCBNEW (5.0.0-3-g5ebb6b6)) date 2018 August 17, Friday 00:10:27*
%MOMM*%
%LPD*%
G01*
G04 APERTURE LIST*
%ADD10C,0.150000*%
%ADD11C,0.300000*%
%ADD12C,0.120000*%
G04 APERTURE END LIST*
D10*
X3103619Y13231905D02*
X4103619Y13231905D01*
X4103619Y13470000D01*
X4056000Y13612858D01*
X3960761Y13708096D01*
X3865523Y13755715D01*
X3675047Y13803334D01*
X3532190Y13803334D01*
X3341714Y13755715D01*
X3246476Y13708096D01*
X3151238Y13612858D01*
X3103619Y13470000D01*
X3103619Y13231905D01*
X3770285Y14660477D02*
X3103619Y14660477D01*
X4151238Y14422381D02*
X3436952Y14184286D01*
X3436952Y14803334D01*
X21733333Y3385715D02*
X21733333Y3861905D01*
X21447619Y3290477D02*
X22447619Y3623810D01*
X21447619Y3957143D01*
X22447619Y4480953D02*
X22447619Y4576191D01*
X22400000Y4671429D01*
X22352380Y4719048D01*
X22257142Y4766667D01*
X22066666Y4814286D01*
X21828571Y4814286D01*
X21638095Y4766667D01*
X21542857Y4719048D01*
X21495238Y4671429D01*
X21447619Y4576191D01*
X21447619Y4480953D01*
X21495238Y4385715D01*
X21542857Y4338096D01*
X21638095Y4290477D01*
X21828571Y4242858D01*
X22066666Y4242858D01*
X22257142Y4290477D01*
X22352380Y4338096D01*
X22400000Y4385715D01*
X22447619Y4480953D01*
X22147619Y17811905D02*
X22147619Y18430953D01*
X21766666Y18097620D01*
X21766666Y18240477D01*
X21719047Y18335715D01*
X21671428Y18383334D01*
X21576190Y18430953D01*
X21338095Y18430953D01*
X21242857Y18383334D01*
X21195238Y18335715D01*
X21147619Y18240477D01*
X21147619Y17954762D01*
X21195238Y17859524D01*
X21242857Y17811905D01*
X22147619Y18716667D02*
X21147619Y19050000D01*
X22147619Y19383334D01*
X22147619Y19621429D02*
X22147619Y20240477D01*
X21766666Y19907143D01*
X21766666Y20050000D01*
X21719047Y20145239D01*
X21671428Y20192858D01*
X21576190Y20240477D01*
X21338095Y20240477D01*
X21242857Y20192858D01*
X21195238Y20145239D01*
X21147619Y20050000D01*
X21147619Y19764286D01*
X21195238Y19669048D01*
X21242857Y19621429D01*
X4103619Y18605524D02*
X4103619Y18129334D01*
X3627428Y18081715D01*
X3675047Y18129334D01*
X3722666Y18224572D01*
X3722666Y18462667D01*
X3675047Y18557905D01*
X3627428Y18605524D01*
X3532190Y18653143D01*
X3294095Y18653143D01*
X3198857Y18605524D01*
X3151238Y18557905D01*
X3103619Y18462667D01*
X3103619Y18224572D01*
X3151238Y18129334D01*
X3198857Y18081715D01*
X4103619Y18938858D02*
X3103619Y19272191D01*
X4103619Y19605524D01*
X4056000Y16771905D02*
X4103619Y16676667D01*
X4103619Y16533810D01*
X4056000Y16390953D01*
X3960761Y16295715D01*
X3865523Y16248096D01*
X3675047Y16200477D01*
X3532190Y16200477D01*
X3341714Y16248096D01*
X3246476Y16295715D01*
X3151238Y16390953D01*
X3103619Y16533810D01*
X3103619Y16629048D01*
X3151238Y16771905D01*
X3198857Y16819524D01*
X3532190Y16819524D01*
X3532190Y16629048D01*
D11*
X18633571Y32421429D02*
X19347857Y32421429D01*
X19347857Y33921429D01*
X17562142Y32492858D02*
X17705000Y32421429D01*
X17990714Y32421429D01*
X18133571Y32492858D01*
X18205000Y32635715D01*
X18205000Y33207143D01*
X18133571Y33350000D01*
X17990714Y33421429D01*
X17705000Y33421429D01*
X17562142Y33350000D01*
X17490714Y33207143D01*
X17490714Y33064286D01*
X18205000Y32921429D01*
X16847857Y32421429D02*
X16847857Y33421429D01*
X16847857Y33278572D02*
X16776428Y33350000D01*
X16633571Y33421429D01*
X16419285Y33421429D01*
X16276428Y33350000D01*
X16205000Y33207143D01*
X16205000Y32421429D01*
X16205000Y33207143D02*
X16133571Y33350000D01*
X15990714Y33421429D01*
X15776428Y33421429D01*
X15633571Y33350000D01*
X15562142Y33207143D01*
X15562142Y32421429D01*
X14205000Y32421429D02*
X14205000Y33207143D01*
X14276428Y33350000D01*
X14419285Y33421429D01*
X14705000Y33421429D01*
X14847857Y33350000D01*
X14205000Y32492858D02*
X14347857Y32421429D01*
X14705000Y32421429D01*
X14847857Y32492858D01*
X14919285Y32635715D01*
X14919285Y32778572D01*
X14847857Y32921429D01*
X14705000Y32992858D01*
X14347857Y32992858D01*
X14205000Y33064286D01*
X13490714Y33421429D02*
X13490714Y32421429D01*
X13490714Y33278572D02*
X13419285Y33350000D01*
X13276428Y33421429D01*
X13062142Y33421429D01*
X12919285Y33350000D01*
X12847857Y33207143D01*
X12847857Y32421429D01*
X12133571Y32421429D02*
X12133571Y33921429D01*
X11633571Y32850000D01*
X11133571Y33921429D01*
X11133571Y32421429D01*
X9776428Y32421429D02*
X9776428Y33207143D01*
X9847857Y33350000D01*
X9990714Y33421429D01*
X10276428Y33421429D01*
X10419285Y33350000D01*
X9776428Y32492858D02*
X9919285Y32421429D01*
X10276428Y32421429D01*
X10419285Y32492858D01*
X10490714Y32635715D01*
X10490714Y32778572D01*
X10419285Y32921429D01*
X10276428Y32992858D01*
X9919285Y32992858D01*
X9776428Y33064286D01*
X9062142Y32421429D02*
X9062142Y33921429D01*
X8919285Y32992858D02*
X8490714Y32421429D01*
X8490714Y33421429D02*
X9062142Y32850000D01*
X7276428Y32492858D02*
X7419285Y32421429D01*
X7705000Y32421429D01*
X7847857Y32492858D01*
X7919285Y32635715D01*
X7919285Y33207143D01*
X7847857Y33350000D01*
X7705000Y33421429D01*
X7419285Y33421429D01*
X7276428Y33350000D01*
X7205000Y33207143D01*
X7205000Y33064286D01*
X7919285Y32921429D01*
X4633571Y32421429D02*
X5490714Y32421429D01*
X5062142Y32421429D02*
X5062142Y33921429D01*
X5205000Y33707143D01*
X5347857Y33564286D01*
X5490714Y33492858D01*
X3776428Y33278572D02*
X3919285Y33350000D01*
X3990714Y33421429D01*
X4062142Y33564286D01*
X4062142Y33635715D01*
X3990714Y33778572D01*
X3919285Y33850000D01*
X3776428Y33921429D01*
X3490714Y33921429D01*
X3347857Y33850000D01*
X3276428Y33778572D01*
X3205000Y33635715D01*
X3205000Y33564286D01*
X3276428Y33421429D01*
X3347857Y33350000D01*
X3490714Y33278572D01*
X3776428Y33278572D01*
X3919285Y33207143D01*
X3990714Y33135715D01*
X4062142Y32992858D01*
X4062142Y32707143D01*
X3990714Y32564286D01*
X3919285Y32492858D01*
X3776428Y32421429D01*
X3490714Y32421429D01*
X3347857Y32492858D01*
X3276428Y32564286D01*
X3205000Y32707143D01*
X3205000Y32992858D01*
X3276428Y33135715D01*
X3347857Y33207143D01*
X3490714Y33278572D01*
X8542857Y37921429D02*
X8185714Y36921429D01*
X7828571Y37921429D01*
X6471428Y36921429D02*
X7328571Y36921429D01*
X6900000Y36921429D02*
X6900000Y38421429D01*
X7042857Y38207143D01*
X7185714Y38064286D01*
X7328571Y37992858D01*
X5828571Y37064286D02*
X5757142Y36992858D01*
X5828571Y36921429D01*
X5900000Y36992858D01*
X5828571Y37064286D01*
X5828571Y36921429D01*
X5185714Y38278572D02*
X5114285Y38350000D01*
X4971428Y38421429D01*
X4614285Y38421429D01*
X4471428Y38350000D01*
X4400000Y38278572D01*
X4328571Y38135715D01*
X4328571Y37992858D01*
X4400000Y37778572D01*
X5257142Y36921429D01*
X4328571Y36921429D01*
X19447857Y29121429D02*
X19447857Y30621429D01*
X18876428Y30621429D01*
X18733571Y30550000D01*
X18662142Y30478572D01*
X18590714Y30335715D01*
X18590714Y30121429D01*
X18662142Y29978572D01*
X18733571Y29907143D01*
X18876428Y29835715D01*
X19447857Y29835715D01*
X18162142Y30621429D02*
X17305000Y30621429D01*
X17733571Y29121429D02*
X17733571Y30621429D01*
X16090714Y29121429D02*
X16805000Y29121429D01*
X16805000Y30621429D01*
X14447857Y29121429D02*
X14447857Y30621429D01*
X12876428Y29121429D02*
X13376428Y29835715D01*
X13733571Y29121429D02*
X13733571Y30621429D01*
X13162142Y30621429D01*
X13019285Y30550000D01*
X12947857Y30478572D01*
X12876428Y30335715D01*
X12876428Y30121429D01*
X12947857Y29978572D01*
X13019285Y29907143D01*
X13162142Y29835715D01*
X13733571Y29835715D01*
X11090714Y29121429D02*
X11090714Y30121429D01*
X11090714Y29835715D02*
X11019285Y29978572D01*
X10947857Y30050000D01*
X10805000Y30121429D01*
X10662142Y30121429D01*
X9590714Y29192858D02*
X9733571Y29121429D01*
X10019285Y29121429D01*
X10162142Y29192858D01*
X10233571Y29335715D01*
X10233571Y29907143D01*
X10162142Y30050000D01*
X10019285Y30121429D01*
X9733571Y30121429D01*
X9590714Y30050000D01*
X9519285Y29907143D01*
X9519285Y29764286D01*
X10233571Y29621429D01*
X8876428Y29121429D02*
X8876428Y30121429D01*
X8876428Y29978572D02*
X8805000Y30050000D01*
X8662142Y30121429D01*
X8447857Y30121429D01*
X8305000Y30050000D01*
X8233571Y29907143D01*
X8233571Y29121429D01*
X8233571Y29907143D02*
X8162142Y30050000D01*
X8019285Y30121429D01*
X7805000Y30121429D01*
X7662142Y30050000D01*
X7590714Y29907143D01*
X7590714Y29121429D01*
X6662142Y29121429D02*
X6805000Y29192858D01*
X6876428Y29264286D01*
X6947857Y29407143D01*
X6947857Y29835715D01*
X6876428Y29978572D01*
X6805000Y30050000D01*
X6662142Y30121429D01*
X6447857Y30121429D01*
X6305000Y30050000D01*
X6233571Y29978572D01*
X6162142Y29835715D01*
X6162142Y29407143D01*
X6233571Y29264286D01*
X6305000Y29192858D01*
X6447857Y29121429D01*
X6662142Y29121429D01*
X5733571Y30121429D02*
X5162142Y30121429D01*
X5519285Y30621429D02*
X5519285Y29335715D01*
X5447857Y29192858D01*
X5305000Y29121429D01*
X5162142Y29121429D01*
X4090714Y29192858D02*
X4233571Y29121429D01*
X4519285Y29121429D01*
X4662142Y29192858D01*
X4733571Y29335715D01*
X4733571Y29907143D01*
X4662142Y30050000D01*
X4519285Y30121429D01*
X4233571Y30121429D01*
X4090714Y30050000D01*
X4019285Y29907143D01*
X4019285Y29764286D01*
X4733571Y29621429D01*
X20171428Y38221429D02*
X20028571Y38221429D01*
X19885714Y38150000D01*
X19814285Y38078572D01*
X19742857Y37935715D01*
X19671428Y37650000D01*
X19671428Y37292858D01*
X19742857Y37007143D01*
X19814285Y36864286D01*
X19885714Y36792858D01*
X20028571Y36721429D01*
X20171428Y36721429D01*
X20314285Y36792858D01*
X20385714Y36864286D01*
X20457142Y37007143D01*
X20528571Y37292858D01*
X20528571Y37650000D01*
X20457142Y37935715D01*
X20385714Y38078572D01*
X20314285Y38150000D01*
X20171428Y38221429D01*
X18957142Y36721429D02*
X18671428Y36721429D01*
X18528571Y36792858D01*
X18457142Y36864286D01*
X18314285Y37078572D01*
X18242857Y37364286D01*
X18242857Y37935715D01*
X18314285Y38078572D01*
X18385714Y38150000D01*
X18528571Y38221429D01*
X18814285Y38221429D01*
X18957142Y38150000D01*
X19028571Y38078572D01*
X19100000Y37935715D01*
X19100000Y37578572D01*
X19028571Y37435715D01*
X18957142Y37364286D01*
X18814285Y37292858D01*
X18528571Y37292858D01*
X18385714Y37364286D01*
X18314285Y37435715D01*
X18242857Y37578572D01*
X17600000Y36864286D02*
X17528571Y36792858D01*
X17600000Y36721429D01*
X17671428Y36792858D01*
X17600000Y36864286D01*
X17600000Y36721429D01*
X16100000Y36721429D02*
X16957142Y36721429D01*
X16528571Y36721429D02*
X16528571Y38221429D01*
X16671428Y38007143D01*
X16814285Y37864286D01*
X16957142Y37792858D01*
X15242857Y37578572D02*
X15385714Y37650000D01*
X15457142Y37721429D01*
X15528571Y37864286D01*
X15528571Y37935715D01*
X15457142Y38078572D01*
X15385714Y38150000D01*
X15242857Y38221429D01*
X14957142Y38221429D01*
X14814285Y38150000D01*
X14742857Y38078572D01*
X14671428Y37935715D01*
X14671428Y37864286D01*
X14742857Y37721429D01*
X14814285Y37650000D01*
X14957142Y37578572D01*
X15242857Y37578572D01*
X15385714Y37507143D01*
X15457142Y37435715D01*
X15528571Y37292858D01*
X15528571Y37007143D01*
X15457142Y36864286D01*
X15385714Y36792858D01*
X15242857Y36721429D01*
X14957142Y36721429D01*
X14814285Y36792858D01*
X14742857Y36864286D01*
X14671428Y37007143D01*
X14671428Y37292858D01*
X14742857Y37435715D01*
X14814285Y37507143D01*
X14957142Y37578572D01*
D12*
G04 #@! TO.C,J1*
X25269500Y20443500D02*
X23939500Y20443500D01*
X25269500Y19113500D02*
X25269500Y20443500D01*
X25269500Y17843500D02*
X22609500Y17843500D01*
X22609500Y17843500D02*
X22609500Y3500D01*
X25269500Y17843500D02*
X25269500Y3500D01*
X25269500Y3500D02*
X22609500Y3500D01*
G04 #@! TO.C,J2*
X-60000Y20380000D02*
X2600000Y20380000D01*
X-60000Y2540000D02*
X-60000Y20380000D01*
X2600000Y2540000D02*
X2600000Y20380000D01*
X-60000Y2540000D02*
X2600000Y2540000D01*
X-60000Y1270000D02*
X-60000Y-60000D01*
X-60000Y-60000D02*
X1270000Y-60000D01*
G04 #@! TO.C,D2*
X21864000Y8657000D02*
X21864000Y5567000D01*
X21804000Y7112000D02*
G75*
G03X21804000Y7112000I-2500000J0D01*
G01*
X16314000Y7111538D02*
G75*
G02X21864000Y8656830I2990000J462D01*
G01*
X16314000Y7112462D02*
G75*
G03X21864000Y5567170I2990000J-462D01*
G01*
G04 #@! TO.C,J1*
D10*
X24272833Y21991120D02*
X24272833Y21276834D01*
X24320452Y21133977D01*
X24415690Y21038739D01*
X24558547Y20991120D01*
X24653785Y20991120D01*
X23272833Y20991120D02*
X23844261Y20991120D01*
X23558547Y20991120D02*
X23558547Y21991120D01*
X23653785Y21848262D01*
X23749023Y21753024D01*
X23844261Y21705405D01*
G04 #@! TO.C,J2*
X1733333Y22247620D02*
X1733333Y21533334D01*
X1780952Y21390477D01*
X1876190Y21295239D01*
X2019047Y21247620D01*
X2114285Y21247620D01*
X1304761Y22152381D02*
X1257142Y22200000D01*
X1161904Y22247620D01*
X923809Y22247620D01*
X828571Y22200000D01*
X780952Y22152381D01*
X733333Y22057143D01*
X733333Y21961905D01*
X780952Y21819048D01*
X1352380Y21247620D01*
X733333Y21247620D01*
G04 #@! TO.C,D2*
X15952380Y7342096D02*
X14952380Y7342096D01*
X14952380Y7104000D01*
X15000000Y6961143D01*
X15095238Y6865905D01*
X15190476Y6818286D01*
X15380952Y6770667D01*
X15523809Y6770667D01*
X15714285Y6818286D01*
X15809523Y6865905D01*
X15904761Y6961143D01*
X15952380Y7104000D01*
X15952380Y7342096D01*
X15047619Y6389715D02*
X15000000Y6342096D01*
X14952380Y6246858D01*
X14952380Y6008762D01*
X15000000Y5913524D01*
X15047619Y5865905D01*
X15142857Y5818286D01*
X15238095Y5818286D01*
X15380952Y5865905D01*
X15952380Y6437334D01*
X15952380Y5818286D01*
G04 #@! TO.C,J4*
X24233333Y32687620D02*
X24233333Y31973334D01*
X24280952Y31830477D01*
X24376190Y31735239D01*
X24519047Y31687620D01*
X24614285Y31687620D01*
X23328571Y32354286D02*
X23328571Y31687620D01*
X23566666Y32735239D02*
X23804761Y32020953D01*
X23185714Y32020953D01*
G04 #@! TD*
M02*
