M48
;DRILL file {KiCad 5.0.0} date Sun Jul 29 15:04:20 2018
;FORMAT={-:-/ absolute / inch / decimal}
FMAT,2
INCH,TZ
T1C0.0197
T2C0.0315
T3C0.0354
T4C0.0394
T5C0.0591
%
G90
G05
M72
T1
X0.1339Y0.3858
X0.1906Y0.79
X0.2047Y0.6496
X0.4134Y0.4606
X0.4567Y0.4488
X0.8031Y0.7559
T2
X0.7756Y0.5409
X0.7756Y0.4409
T3
X0.71Y0.1
X0.81Y0.1
X0.215Y0.09
X0.315Y0.09
X0.415Y0.09
X0.71Y0.28
X0.81Y0.28
T4
X0.0512Y1.2677
X0.0512Y1.1677
X0.0512Y1.0677
X0.0512Y0.9677
X0.285Y0.5472
X0.385Y0.5472
X0.485Y0.5472
X0.585Y0.5472
X0.05Y0.75
X0.05Y0.65
X0.05Y0.55
X0.05Y0.45
X0.05Y0.35
X0.05Y0.25
X0.05Y0.15
X0.05Y0.05
X0.9425Y0.7525
X0.9425Y0.6525
X0.9425Y0.5525
X0.9425Y0.4525
X0.9425Y0.3525
X0.9425Y0.2525
X0.9425Y0.1525
X0.9425Y0.0525
T5
X0.8898Y1.0512
X0.8898Y1.252
X0.8898Y1.4488
T0
M30
