G04 #@! TF.GenerationSoftware,KiCad,Pcbnew,5.0.0*
G04 #@! TF.CreationDate,2018-07-30T20:29:51+02:00*
G04 #@! TF.ProjectId,PTL-IR_remote,50544C2D49525F72656D6F74652E6B69,v1.1*
G04 #@! TF.SameCoordinates,PXa4b7f80PY71d9820*
G04 #@! TF.FileFunction,Soldermask,Bot*
G04 #@! TF.FilePolarity,Negative*
%FSLAX46Y46*%
G04 Gerber Fmt 4.6, Leading zero omitted, Abs format (unit mm)*
G04 Created by KiCad (PCBNEW 5.0.0) date Mon Jul 30 20:29:51 2018*
%MOMM*%
%LPD*%
G01*
G04 APERTURE LIST*
%ADD10C,0.000120*%
%ADD11R,2.100000X2.100000*%
%ADD12O,2.100000X2.100000*%
%ADD13C,3.100000*%
%ADD14C,4.400500*%
%ADD15R,2.200000X2.200000*%
%ADD16C,2.200000*%
%ADD17C,2.000000*%
G04 APERTURE END LIST*
D10*
G04 #@! TO.C,*
G36*
X11884865Y20404103D02*
X9747076Y22541892D01*
X9851422Y22757041D01*
X10070483Y22731932D01*
X12629308Y20100913D01*
X12629308Y20096283D01*
X12628982Y20094196D01*
X12628982Y20092044D01*
X12635699Y19952611D01*
X12655134Y19817157D01*
X12686633Y19685877D01*
X12729480Y19559553D01*
X11884865Y20404103D01*
G37*
X11884865Y20404103D02*
X9747076Y22541892D01*
X9851422Y22757041D01*
X10070483Y22731932D01*
X12629308Y20100913D01*
X12629308Y20096283D01*
X12628982Y20094196D01*
X12628982Y20092044D01*
X12635699Y19952611D01*
X12655134Y19817157D01*
X12686633Y19685877D01*
X12729480Y19559553D01*
X11884865Y20404103D01*
G36*
X11183985Y17535371D02*
X11185420Y17505958D01*
X11190703Y17477328D01*
X11199181Y17449742D01*
X11210529Y17423199D01*
X10455455Y16644451D01*
X9845096Y17420003D01*
X9947746Y17581674D01*
X10329522Y17188616D01*
X10819883Y17694172D01*
X10856665Y17671934D01*
X10896317Y17655629D01*
X10937729Y17645717D01*
X10980185Y17642195D01*
X11056944Y17653151D01*
X11125617Y17684651D01*
X11182942Y17732780D01*
X11226441Y17795062D01*
X11241311Y17779801D01*
X11271701Y17749410D01*
X11286571Y17734215D01*
X11244506Y17696716D01*
X11211898Y17649630D01*
X11191029Y17595109D01*
X11183985Y17535371D01*
G37*
X11183985Y17535371D02*
X11185420Y17505958D01*
X11190703Y17477328D01*
X11199181Y17449742D01*
X11210529Y17423199D01*
X10455455Y16644451D01*
X9845096Y17420003D01*
X9947746Y17581674D01*
X10329522Y17188616D01*
X10819883Y17694172D01*
X10856665Y17671934D01*
X10896317Y17655629D01*
X10937729Y17645717D01*
X10980185Y17642195D01*
X11056944Y17653151D01*
X11125617Y17684651D01*
X11182942Y17732780D01*
X11226441Y17795062D01*
X11241311Y17779801D01*
X11271701Y17749410D01*
X11286571Y17734215D01*
X11244506Y17696716D01*
X11211898Y17649630D01*
X11191029Y17595109D01*
X11183985Y17535371D01*
G36*
X9226976Y19794462D02*
X9179890Y19697550D01*
X9124000Y19697550D01*
X9100000Y19921177D01*
X9226976Y19794462D01*
G37*
X9226976Y19794462D02*
X9179890Y19697550D01*
X9124000Y19697550D01*
X9100000Y19921177D01*
X9226976Y19794462D01*
G36*
X11129856Y16766145D02*
X10586018Y16573300D01*
X11311353Y17320940D01*
X11336852Y17308875D01*
X11363395Y17300397D01*
X11390982Y17295440D01*
X11418894Y17293679D01*
X11478698Y17301440D01*
X11532827Y17324135D01*
X11579196Y17359482D01*
X11616369Y17405134D01*
X11634760Y17386352D01*
X11690977Y17330135D01*
X11129856Y16766145D01*
G37*
X11129856Y16766145D02*
X10586018Y16573300D01*
X11311353Y17320940D01*
X11336852Y17308875D01*
X11363395Y17300397D01*
X11390982Y17295440D01*
X11418894Y17293679D01*
X11478698Y17301440D01*
X11532827Y17324135D01*
X11579196Y17359482D01*
X11616369Y17405134D01*
X11634760Y17386352D01*
X11690977Y17330135D01*
X11129856Y16766145D01*
G36*
X10980185Y17786584D02*
X10926381Y17797866D01*
X10882491Y17828648D01*
X10852817Y17873973D01*
X10841861Y17929864D01*
X10850339Y17979037D01*
X10872969Y18020775D01*
X10907664Y18052275D01*
X10950837Y18070340D01*
X11114987Y17906125D01*
X11099074Y17859104D01*
X11069009Y17820887D01*
X11028314Y17795779D01*
X10980185Y17786584D01*
G37*
X10980185Y17786584D02*
X10926381Y17797866D01*
X10882491Y17828648D01*
X10852817Y17873973D01*
X10841861Y17929864D01*
X10850339Y17979037D01*
X10872969Y18020775D01*
X10907664Y18052275D01*
X10950837Y18070340D01*
X11114987Y17906125D01*
X11099074Y17859104D01*
X11069009Y17820887D01*
X11028314Y17795779D01*
X10980185Y17786584D01*
G36*
X9440298Y19347600D02*
X9474993Y19349752D01*
X9509362Y19356796D01*
X9542231Y19368469D01*
X9574122Y19384773D01*
X10785905Y18136469D01*
X10748797Y18092252D01*
X10721537Y18042036D01*
X10704907Y17987515D01*
X10698907Y17929864D01*
X10700994Y17897973D01*
X10706342Y17866539D01*
X10715146Y17835757D01*
X10727863Y17805627D01*
X10720102Y17797866D01*
X10712668Y17790105D01*
X10705233Y17782671D01*
X10697798Y17774910D01*
X10276045Y18209707D01*
X10035853Y18806631D01*
X9603078Y18902890D01*
X9269497Y19246776D01*
X9172847Y19246776D01*
X9139978Y19553162D01*
X9179890Y19553162D01*
X9216737Y19469685D01*
X9275432Y19404925D01*
X9351930Y19362469D01*
X9440298Y19347600D01*
G37*
X9440298Y19347600D02*
X9474993Y19349752D01*
X9509362Y19356796D01*
X9542231Y19368469D01*
X9574122Y19384773D01*
X10785905Y18136469D01*
X10748797Y18092252D01*
X10721537Y18042036D01*
X10704907Y17987515D01*
X10698907Y17929864D01*
X10700994Y17897973D01*
X10706342Y17866539D01*
X10715146Y17835757D01*
X10727863Y17805627D01*
X10720102Y17797866D01*
X10712668Y17790105D01*
X10705233Y17782671D01*
X10697798Y17774910D01*
X10276045Y18209707D01*
X10035853Y18806631D01*
X9603078Y18902890D01*
X9269497Y19246776D01*
X9172847Y19246776D01*
X9139978Y19553162D01*
X9179890Y19553162D01*
X9216737Y19469685D01*
X9275432Y19404925D01*
X9351930Y19362469D01*
X9440298Y19347600D01*
G36*
X14091000Y21554062D02*
X13973872Y21549105D01*
X13859222Y21535279D01*
X13747376Y21512649D01*
X13638791Y21481867D01*
X11101552Y24096974D01*
X11489654Y24340035D01*
X14198150Y21548388D01*
X14171281Y21550475D01*
X14144738Y21552301D01*
X14117869Y21553344D01*
X14091000Y21554062D01*
G37*
X14091000Y21554062D02*
X13973872Y21549105D01*
X13859222Y21535279D01*
X13747376Y21512649D01*
X13638791Y21481867D01*
X11101552Y24096974D01*
X11489654Y24340035D01*
X14198150Y21548388D01*
X14171281Y21550475D01*
X14144738Y21552301D01*
X14117869Y21553344D01*
X14091000Y21554062D01*
G36*
X13494076Y21425586D02*
X13346557Y21349152D01*
X13209602Y21257197D01*
X13084322Y21151025D01*
X12971498Y21031419D01*
X11028314Y23034797D01*
X11182942Y23189033D01*
X10987945Y24008867D01*
X13494076Y21425586D01*
G37*
X13494076Y21425586D02*
X13346557Y21349152D01*
X13209602Y21257197D01*
X13084322Y21151025D01*
X12971498Y21031419D01*
X11028314Y23034797D01*
X11182942Y23189033D01*
X10987945Y24008867D01*
X13494076Y21425586D01*
G36*
X12644177Y20290888D02*
X10295153Y22706433D01*
X10706994Y22659347D01*
X10930294Y22930059D01*
X12884108Y20916116D01*
X12798088Y20773488D01*
X12729089Y20621013D01*
X12677438Y20459668D01*
X12644177Y20290888D01*
G37*
X12644177Y20290888D02*
X10295153Y22706433D01*
X10706994Y22659347D01*
X10930294Y22930059D01*
X12884108Y20916116D01*
X12798088Y20773488D01*
X12729089Y20621013D01*
X12677438Y20459668D01*
X12644177Y20290888D01*
G36*
X17104448Y17981124D02*
X17207424Y17956407D01*
X17295531Y17974080D01*
X17367334Y18022536D01*
X17415855Y18094404D01*
X17433855Y18182512D01*
X17415855Y18270227D01*
X17367334Y18342031D01*
X17295531Y18390878D01*
X17207424Y18408551D01*
X17119317Y18390878D01*
X17047514Y18342031D01*
X16998993Y18270227D01*
X16981319Y18182512D01*
X16986993Y18131904D01*
X17004341Y18083774D01*
X15583735Y16705298D01*
X15116721Y17172312D01*
X17136991Y19188016D01*
X17171686Y19171386D01*
X17208468Y19158995D01*
X17246684Y19151951D01*
X17285619Y19149473D01*
X17403790Y19173212D01*
X17500376Y19238624D01*
X17565853Y19335209D01*
X17589918Y19453381D01*
X17565853Y19571944D01*
X17500376Y19668529D01*
X17403790Y19734006D01*
X17285619Y19757680D01*
X17167055Y19734006D01*
X17070470Y19668529D01*
X17005058Y19571944D01*
X16981319Y19453381D01*
X16984515Y19409164D01*
X16994428Y19366382D01*
X17010341Y19325296D01*
X17032645Y19286427D01*
X15015832Y17273136D01*
X14726793Y17562240D01*
X15722776Y18548310D01*
X15760667Y18525353D01*
X15800253Y18508332D01*
X15841665Y18497702D01*
X15884512Y18493137D01*
X15890838Y18493137D01*
X16005163Y18516875D01*
X16099270Y18581244D01*
X16164029Y18676786D01*
X16189138Y18793914D01*
X16184507Y18853652D01*
X16168986Y18910651D01*
X16142769Y18963737D01*
X16106704Y19011149D01*
X16061770Y19050410D01*
X16011162Y19079757D01*
X15955924Y19098539D01*
X15897230Y19105974D01*
X15890512Y19105974D01*
X15776580Y19082235D01*
X15682472Y19017867D01*
X15618039Y18922651D01*
X15592604Y18805914D01*
X15593974Y18766262D01*
X15600691Y18728046D01*
X15611713Y18690938D01*
X15627626Y18655525D01*
X14625578Y17663455D01*
X14412255Y17876778D01*
X14492537Y17899082D01*
X14557688Y17947537D01*
X14601513Y18015819D01*
X14618534Y18097926D01*
X14602948Y18186751D01*
X14556970Y18259989D01*
X14487580Y18310531D01*
X14401625Y18330357D01*
X14315670Y18313401D01*
X14244911Y18267032D01*
X14196064Y18198033D01*
X14175520Y18113122D01*
X13557075Y18731632D01*
X13683725Y18688459D01*
X13815331Y18656569D01*
X13951177Y18636808D01*
X14091000Y18630091D01*
X14227889Y18636417D01*
X14361256Y18655199D01*
X14490776Y18685590D01*
X14615339Y18727002D01*
X14734554Y18779371D01*
X14848161Y18841652D01*
X14954985Y18913129D01*
X15055157Y18993802D01*
X15147504Y19082952D01*
X15232024Y19179929D01*
X15307740Y19283949D01*
X15374652Y19394686D01*
X15431259Y19511423D01*
X15477954Y19633508D01*
X15513302Y19760875D01*
X15537758Y19892482D01*
X15771232Y19880808D01*
X15797775Y19830592D01*
X15836383Y19791984D01*
X15884512Y19767267D01*
X15939294Y19758723D01*
X16010119Y19773267D01*
X16067770Y19813244D01*
X16107030Y19872656D01*
X16121182Y19945242D01*
X16107030Y20018088D01*
X16067770Y20077892D01*
X16010119Y20117869D01*
X15939294Y20132739D01*
X15888034Y20124978D01*
X15842383Y20103391D01*
X15804166Y20069414D01*
X15775862Y20024088D01*
X15550149Y20035762D01*
X15552953Y20091718D01*
X15550149Y20182955D01*
X15541605Y20272823D01*
X15527845Y20360930D01*
X15509062Y20446950D01*
X15484998Y20531145D01*
X15456368Y20613252D01*
X15422781Y20693207D01*
X15384891Y20770684D01*
X15500584Y20765401D01*
X15531366Y20708076D01*
X15576692Y20664186D01*
X15632582Y20635882D01*
X15695907Y20625643D01*
X15777297Y20642599D01*
X15843817Y20688251D01*
X15888751Y20756141D01*
X15904990Y20839291D01*
X15888751Y20922834D01*
X15843817Y20991115D01*
X15777297Y21037092D01*
X15695907Y21053723D01*
X15631473Y21043484D01*
X15574866Y21013745D01*
X15529279Y20968485D01*
X15498432Y20910051D01*
X15295740Y20919312D01*
X15126243Y21123113D01*
X15028223Y21212589D01*
X14922768Y21292936D01*
X14809553Y21363695D01*
X14690338Y21424216D01*
X14564731Y21473715D01*
X14433842Y21511606D01*
X11614217Y24418229D01*
X11919560Y24609313D01*
X11985754Y24556553D01*
X15087309Y21359456D01*
X16294201Y21300370D01*
X16330983Y21218263D01*
X16390069Y21153895D01*
X16466176Y21111765D01*
X16553175Y21096570D01*
X16657586Y21118156D01*
X16743215Y21177568D01*
X16800866Y21265349D01*
X16822127Y21372891D01*
X16800866Y21480106D01*
X16743215Y21567822D01*
X16657586Y21626908D01*
X16553175Y21648495D01*
X16465133Y21633626D01*
X16389025Y21591887D01*
X16330657Y21527519D01*
X16294201Y21444694D01*
X15150308Y21500976D01*
X12638504Y24089865D01*
X13015715Y24209472D01*
X15077396Y22084400D01*
X15067157Y22059292D01*
X15059722Y22033792D01*
X15055157Y22007641D01*
X15053723Y21981489D01*
X15072114Y21888034D01*
X15122330Y21811275D01*
X15197003Y21759949D01*
X15287914Y21740841D01*
X15379217Y21759949D01*
X15453498Y21811275D01*
X15504106Y21888034D01*
X15522497Y21981489D01*
X15504106Y22074879D01*
X15453498Y22151312D01*
X15379217Y22202572D01*
X15287914Y22221680D01*
X15258567Y22219594D01*
X15229937Y22213920D01*
X15201633Y22204007D01*
X15174699Y22190572D01*
X13178429Y24248015D01*
X13472815Y24304623D01*
X13516380Y24415360D01*
X15336044Y22539414D01*
X15348826Y22538697D01*
X16085835Y22514632D01*
X16117269Y22460176D01*
X16161877Y22418047D01*
X16216398Y22391178D01*
X16277571Y22381591D01*
X16358243Y22398221D01*
X16424047Y22443872D01*
X16468654Y22511502D01*
X16484893Y22594261D01*
X16468654Y22677086D01*
X16424047Y22744976D01*
X16358243Y22790627D01*
X16277571Y22807257D01*
X16212094Y22796692D01*
X16155160Y22766236D01*
X16109509Y22719150D01*
X16080161Y22659021D01*
X15397999Y22681325D01*
X13573314Y24561835D01*
X13728659Y24959263D01*
X15486758Y23147295D01*
X15499541Y23147295D01*
X16673173Y23128513D01*
X16705716Y23079339D01*
X16749215Y23041840D01*
X16801257Y23017775D01*
X16858909Y23009297D01*
X16939581Y23026253D01*
X17005710Y23071905D01*
X17049992Y23139534D01*
X17066622Y23222294D01*
X17049992Y23305118D01*
X17005710Y23372682D01*
X16939581Y23418334D01*
X16858909Y23434964D01*
X16797018Y23425377D01*
X16742171Y23398182D01*
X16697564Y23355661D01*
X16666455Y23300488D01*
X15558953Y23317509D01*
X13829483Y25100000D01*
X14886704Y25051153D01*
X15134395Y24227146D01*
X15394086Y24154625D01*
X15646734Y24066192D01*
X15891947Y23962824D01*
X16129008Y23844652D01*
X16856104Y24296862D01*
X17708089Y23595591D01*
X17412986Y22787105D01*
X17522680Y22647347D01*
X17626700Y22502306D01*
X17724328Y22353287D01*
X17816348Y22199768D01*
X18674007Y22196964D01*
X19023567Y21150308D01*
X18343883Y20621730D01*
X18358752Y20488689D01*
X18369708Y20354604D01*
X18376426Y20219411D01*
X18378904Y20083174D01*
X18378578Y20040066D01*
X18377534Y19996893D01*
X18376100Y19953720D01*
X18374339Y19910221D01*
X19100000Y19453055D01*
X18840635Y18380247D01*
X17985128Y18292858D01*
X17906608Y18131904D01*
X17821631Y17974798D01*
X17730393Y17821931D01*
X17633091Y17672977D01*
X18004563Y16900556D01*
X17215576Y16128917D01*
X16443546Y16509258D01*
X16021793Y16267241D01*
X15684951Y16603756D01*
X17104448Y17981124D01*
G37*
X17104448Y17981124D02*
X17207424Y17956407D01*
X17295531Y17974080D01*
X17367334Y18022536D01*
X17415855Y18094404D01*
X17433855Y18182512D01*
X17415855Y18270227D01*
X17367334Y18342031D01*
X17295531Y18390878D01*
X17207424Y18408551D01*
X17119317Y18390878D01*
X17047514Y18342031D01*
X16998993Y18270227D01*
X16981319Y18182512D01*
X16986993Y18131904D01*
X17004341Y18083774D01*
X15583735Y16705298D01*
X15116721Y17172312D01*
X17136991Y19188016D01*
X17171686Y19171386D01*
X17208468Y19158995D01*
X17246684Y19151951D01*
X17285619Y19149473D01*
X17403790Y19173212D01*
X17500376Y19238624D01*
X17565853Y19335209D01*
X17589918Y19453381D01*
X17565853Y19571944D01*
X17500376Y19668529D01*
X17403790Y19734006D01*
X17285619Y19757680D01*
X17167055Y19734006D01*
X17070470Y19668529D01*
X17005058Y19571944D01*
X16981319Y19453381D01*
X16984515Y19409164D01*
X16994428Y19366382D01*
X17010341Y19325296D01*
X17032645Y19286427D01*
X15015832Y17273136D01*
X14726793Y17562240D01*
X15722776Y18548310D01*
X15760667Y18525353D01*
X15800253Y18508332D01*
X15841665Y18497702D01*
X15884512Y18493137D01*
X15890838Y18493137D01*
X16005163Y18516875D01*
X16099270Y18581244D01*
X16164029Y18676786D01*
X16189138Y18793914D01*
X16184507Y18853652D01*
X16168986Y18910651D01*
X16142769Y18963737D01*
X16106704Y19011149D01*
X16061770Y19050410D01*
X16011162Y19079757D01*
X15955924Y19098539D01*
X15897230Y19105974D01*
X15890512Y19105974D01*
X15776580Y19082235D01*
X15682472Y19017867D01*
X15618039Y18922651D01*
X15592604Y18805914D01*
X15593974Y18766262D01*
X15600691Y18728046D01*
X15611713Y18690938D01*
X15627626Y18655525D01*
X14625578Y17663455D01*
X14412255Y17876778D01*
X14492537Y17899082D01*
X14557688Y17947537D01*
X14601513Y18015819D01*
X14618534Y18097926D01*
X14602948Y18186751D01*
X14556970Y18259989D01*
X14487580Y18310531D01*
X14401625Y18330357D01*
X14315670Y18313401D01*
X14244911Y18267032D01*
X14196064Y18198033D01*
X14175520Y18113122D01*
X13557075Y18731632D01*
X13683725Y18688459D01*
X13815331Y18656569D01*
X13951177Y18636808D01*
X14091000Y18630091D01*
X14227889Y18636417D01*
X14361256Y18655199D01*
X14490776Y18685590D01*
X14615339Y18727002D01*
X14734554Y18779371D01*
X14848161Y18841652D01*
X14954985Y18913129D01*
X15055157Y18993802D01*
X15147504Y19082952D01*
X15232024Y19179929D01*
X15307740Y19283949D01*
X15374652Y19394686D01*
X15431259Y19511423D01*
X15477954Y19633508D01*
X15513302Y19760875D01*
X15537758Y19892482D01*
X15771232Y19880808D01*
X15797775Y19830592D01*
X15836383Y19791984D01*
X15884512Y19767267D01*
X15939294Y19758723D01*
X16010119Y19773267D01*
X16067770Y19813244D01*
X16107030Y19872656D01*
X16121182Y19945242D01*
X16107030Y20018088D01*
X16067770Y20077892D01*
X16010119Y20117869D01*
X15939294Y20132739D01*
X15888034Y20124978D01*
X15842383Y20103391D01*
X15804166Y20069414D01*
X15775862Y20024088D01*
X15550149Y20035762D01*
X15552953Y20091718D01*
X15550149Y20182955D01*
X15541605Y20272823D01*
X15527845Y20360930D01*
X15509062Y20446950D01*
X15484998Y20531145D01*
X15456368Y20613252D01*
X15422781Y20693207D01*
X15384891Y20770684D01*
X15500584Y20765401D01*
X15531366Y20708076D01*
X15576692Y20664186D01*
X15632582Y20635882D01*
X15695907Y20625643D01*
X15777297Y20642599D01*
X15843817Y20688251D01*
X15888751Y20756141D01*
X15904990Y20839291D01*
X15888751Y20922834D01*
X15843817Y20991115D01*
X15777297Y21037092D01*
X15695907Y21053723D01*
X15631473Y21043484D01*
X15574866Y21013745D01*
X15529279Y20968485D01*
X15498432Y20910051D01*
X15295740Y20919312D01*
X15126243Y21123113D01*
X15028223Y21212589D01*
X14922768Y21292936D01*
X14809553Y21363695D01*
X14690338Y21424216D01*
X14564731Y21473715D01*
X14433842Y21511606D01*
X11614217Y24418229D01*
X11919560Y24609313D01*
X11985754Y24556553D01*
X15087309Y21359456D01*
X16294201Y21300370D01*
X16330983Y21218263D01*
X16390069Y21153895D01*
X16466176Y21111765D01*
X16553175Y21096570D01*
X16657586Y21118156D01*
X16743215Y21177568D01*
X16800866Y21265349D01*
X16822127Y21372891D01*
X16800866Y21480106D01*
X16743215Y21567822D01*
X16657586Y21626908D01*
X16553175Y21648495D01*
X16465133Y21633626D01*
X16389025Y21591887D01*
X16330657Y21527519D01*
X16294201Y21444694D01*
X15150308Y21500976D01*
X12638504Y24089865D01*
X13015715Y24209472D01*
X15077396Y22084400D01*
X15067157Y22059292D01*
X15059722Y22033792D01*
X15055157Y22007641D01*
X15053723Y21981489D01*
X15072114Y21888034D01*
X15122330Y21811275D01*
X15197003Y21759949D01*
X15287914Y21740841D01*
X15379217Y21759949D01*
X15453498Y21811275D01*
X15504106Y21888034D01*
X15522497Y21981489D01*
X15504106Y22074879D01*
X15453498Y22151312D01*
X15379217Y22202572D01*
X15287914Y22221680D01*
X15258567Y22219594D01*
X15229937Y22213920D01*
X15201633Y22204007D01*
X15174699Y22190572D01*
X13178429Y24248015D01*
X13472815Y24304623D01*
X13516380Y24415360D01*
X15336044Y22539414D01*
X15348826Y22538697D01*
X16085835Y22514632D01*
X16117269Y22460176D01*
X16161877Y22418047D01*
X16216398Y22391178D01*
X16277571Y22381591D01*
X16358243Y22398221D01*
X16424047Y22443872D01*
X16468654Y22511502D01*
X16484893Y22594261D01*
X16468654Y22677086D01*
X16424047Y22744976D01*
X16358243Y22790627D01*
X16277571Y22807257D01*
X16212094Y22796692D01*
X16155160Y22766236D01*
X16109509Y22719150D01*
X16080161Y22659021D01*
X15397999Y22681325D01*
X13573314Y24561835D01*
X13728659Y24959263D01*
X15486758Y23147295D01*
X15499541Y23147295D01*
X16673173Y23128513D01*
X16705716Y23079339D01*
X16749215Y23041840D01*
X16801257Y23017775D01*
X16858909Y23009297D01*
X16939581Y23026253D01*
X17005710Y23071905D01*
X17049992Y23139534D01*
X17066622Y23222294D01*
X17049992Y23305118D01*
X17005710Y23372682D01*
X16939581Y23418334D01*
X16858909Y23434964D01*
X16797018Y23425377D01*
X16742171Y23398182D01*
X16697564Y23355661D01*
X16666455Y23300488D01*
X15558953Y23317509D01*
X13829483Y25100000D01*
X14886704Y25051153D01*
X15134395Y24227146D01*
X15394086Y24154625D01*
X15646734Y24066192D01*
X15891947Y23962824D01*
X16129008Y23844652D01*
X16856104Y24296862D01*
X17708089Y23595591D01*
X17412986Y22787105D01*
X17522680Y22647347D01*
X17626700Y22502306D01*
X17724328Y22353287D01*
X17816348Y22199768D01*
X18674007Y22196964D01*
X19023567Y21150308D01*
X18343883Y20621730D01*
X18358752Y20488689D01*
X18369708Y20354604D01*
X18376426Y20219411D01*
X18378904Y20083174D01*
X18378578Y20040066D01*
X18377534Y19996893D01*
X18376100Y19953720D01*
X18374339Y19910221D01*
X19100000Y19453055D01*
X18840635Y18380247D01*
X17985128Y18292858D01*
X17906608Y18131904D01*
X17821631Y17974798D01*
X17730393Y17821931D01*
X17633091Y17672977D01*
X18004563Y16900556D01*
X17215576Y16128917D01*
X16443546Y16509258D01*
X16021793Y16267241D01*
X15684951Y16603756D01*
X17104448Y17981124D01*
G36*
X11710085Y16554192D02*
X11374678Y16808601D01*
X11792584Y17228593D01*
X12085861Y16935251D01*
X11710085Y16554192D01*
G37*
X11710085Y16554192D02*
X11374678Y16808601D01*
X11792584Y17228593D01*
X12085861Y16935251D01*
X11710085Y16554192D01*
G36*
X11910038Y15767293D02*
X11913886Y16422586D01*
X11832170Y16474237D01*
X12187403Y16834035D01*
X12589005Y16432107D01*
X11910038Y15767293D01*
G37*
X11910038Y15767293D02*
X11913886Y16422586D01*
X11832170Y16474237D01*
X12187403Y16834035D01*
X12589005Y16432107D01*
X11910038Y15767293D01*
G36*
X15043810Y16814601D02*
X13800136Y18058666D01*
X13053540Y17312070D01*
X14048870Y16317131D01*
X14297605Y16565866D01*
X13551401Y17312070D01*
X13800136Y17561196D01*
X14546340Y16814601D01*
X14297605Y16565866D01*
X14048870Y16317131D01*
X13551401Y15819661D01*
X13800136Y15570601D01*
X15043810Y16814601D01*
G37*
X15043810Y16814601D02*
X13800136Y18058666D01*
X13053540Y17312070D01*
X14048870Y16317131D01*
X14297605Y16565866D01*
X13551401Y17312070D01*
X13800136Y17561196D01*
X14546340Y16814601D01*
X14297605Y16565866D01*
X14048870Y16317131D01*
X13551401Y15819661D01*
X13800136Y15570601D01*
X15043810Y16814601D01*
G36*
X12705024Y18655916D02*
X13202885Y18158447D01*
X13451620Y18407182D01*
X12207555Y19651182D01*
X11958820Y19402121D01*
X12456289Y18904651D01*
X11461350Y17909647D01*
X11710085Y17660586D01*
X12705024Y18655916D01*
G37*
X12705024Y18655916D02*
X13202885Y18158447D01*
X13451620Y18407182D01*
X12207555Y19651182D01*
X11958820Y19402121D01*
X12456289Y18904651D01*
X11461350Y17909647D01*
X11710085Y17660586D01*
X12705024Y18655916D01*
G36*
X11859430Y19999371D02*
X11610304Y20248106D01*
X10615365Y19253167D01*
X9620100Y20248106D01*
X9371365Y19999371D01*
X10615365Y18755306D01*
X11859430Y19999371D01*
G37*
X11859430Y19999371D02*
X11610304Y20248106D01*
X10615365Y19253167D01*
X9620100Y20248106D01*
X9371365Y19999371D01*
X10615365Y18755306D01*
X11859430Y19999371D01*
G04 #@! TD*
D11*
G04 #@! TO.C,J3*
X1300000Y32200000D03*
D12*
X1300000Y29660000D03*
X1300000Y27120000D03*
X1300000Y24580000D03*
G04 #@! TD*
D13*
G04 #@! TO.C,bscrew*
X9700000Y25900000D03*
G04 #@! TD*
D14*
G04 #@! TO.C,3V3*
X22600000Y33500000D03*
G04 #@! TD*
G04 #@! TO.C,D*
X22600000Y28700000D03*
G04 #@! TD*
G04 #@! TO.C,Gnd*
X22600000Y23900000D03*
G04 #@! TD*
D13*
G04 #@! TO.C,dscrew*
X11100000Y36800000D03*
G04 #@! TD*
D15*
G04 #@! TO.C,U1*
X5461000Y2286000D03*
D16*
X8001000Y2286000D03*
X10541000Y2286000D03*
G04 #@! TD*
D11*
G04 #@! TO.C,DHT22*
X7239000Y13900000D03*
D12*
X9779000Y13900000D03*
X12319000Y13900000D03*
X14859000Y13900000D03*
G04 #@! TD*
G04 #@! TO.C,J1*
X23939500Y1333500D03*
X23939500Y3873500D03*
X23939500Y6413500D03*
X23939500Y8953500D03*
X23939500Y11493500D03*
X23939500Y14033500D03*
X23939500Y16573500D03*
D11*
X23939500Y19113500D03*
G04 #@! TD*
G04 #@! TO.C,J2*
X1270000Y1270000D03*
D12*
X1270000Y3810000D03*
X1270000Y6350000D03*
X1270000Y8890000D03*
X1270000Y11430000D03*
X1270000Y13970000D03*
X1270000Y16510000D03*
X1270000Y19050000D03*
G04 #@! TD*
D17*
G04 #@! TO.C,PR1*
X19700000Y13740000D03*
X19700000Y11200000D03*
G04 #@! TD*
D16*
G04 #@! TO.C,D1*
X20574000Y2540000D03*
D15*
X18034000Y2540000D03*
G04 #@! TD*
G04 #@! TO.C,D2*
X20574000Y7112000D03*
D16*
X18034000Y7112000D03*
G04 #@! TD*
M02*
