G04 #@! TF.GenerationSoftware,KiCad,Pcbnew,5.0.0*
G04 #@! TF.CreationDate,2018-08-02T12:49:40+02:00*
G04 #@! TF.ProjectId,PTL-IR_remote,50544C2D49525F72656D6F74652E6B69,v1.1*
G04 #@! TF.SameCoordinates,PXa4b7f80PY71d9820*
G04 #@! TF.FileFunction,Legend,Top*
G04 #@! TF.FilePolarity,Positive*
%FSLAX46Y46*%
G04 Gerber Fmt 4.6, Leading zero omitted, Abs format (unit mm)*
G04 Created by KiCad (PCBNEW 5.0.0) date Thu Aug  2 12:49:40 2018*
%MOMM*%
%LPD*%
G01*
G04 APERTURE LIST*
%ADD10C,0.150000*%
%ADD11C,0.200000*%
%ADD12C,0.120000*%
G04 APERTURE END LIST*
D10*
X20257142Y25000000D02*
X20161904Y25047620D01*
X20019047Y25047620D01*
X19876190Y25000000D01*
X19780952Y24904762D01*
X19733333Y24809524D01*
X19685714Y24619048D01*
X19685714Y24476191D01*
X19733333Y24285715D01*
X19780952Y24190477D01*
X19876190Y24095239D01*
X20019047Y24047620D01*
X20114285Y24047620D01*
X20257142Y24095239D01*
X20304761Y24142858D01*
X20304761Y24476191D01*
X20114285Y24476191D01*
X20733333Y24714286D02*
X20733333Y24047620D01*
X20733333Y24619048D02*
X20780952Y24666667D01*
X20876190Y24714286D01*
X21019047Y24714286D01*
X21114285Y24666667D01*
X21161904Y24571429D01*
X21161904Y24047620D01*
X22066666Y24047620D02*
X22066666Y25047620D01*
X22066666Y24095239D02*
X21971428Y24047620D01*
X21780952Y24047620D01*
X21685714Y24095239D01*
X21638095Y24142858D01*
X21590476Y24238096D01*
X21590476Y24523810D01*
X21638095Y24619048D01*
X21685714Y24666667D01*
X21780952Y24714286D01*
X21971428Y24714286D01*
X22066666Y24666667D01*
X19661904Y27647620D02*
X20280952Y27647620D01*
X19947619Y27266667D01*
X20090476Y27266667D01*
X20185714Y27219048D01*
X20233333Y27171429D01*
X20280952Y27076191D01*
X20280952Y26838096D01*
X20233333Y26742858D01*
X20185714Y26695239D01*
X20090476Y26647620D01*
X19804761Y26647620D01*
X19709523Y26695239D01*
X19661904Y26742858D01*
X20566666Y27647620D02*
X20900000Y26647620D01*
X21233333Y27647620D01*
X21471428Y27647620D02*
X22090476Y27647620D01*
X21757142Y27266667D01*
X21900000Y27266667D01*
X21995238Y27219048D01*
X22042857Y27171429D01*
X22090476Y27076191D01*
X22090476Y26838096D01*
X22042857Y26742858D01*
X21995238Y26695239D01*
X21900000Y26647620D01*
X21614285Y26647620D01*
X21519047Y26695239D01*
X21471428Y26742858D01*
X20261904Y29247620D02*
X20261904Y30247620D01*
X20500000Y30247620D01*
X20642857Y30200000D01*
X20738095Y30104762D01*
X20785714Y30009524D01*
X20833333Y29819048D01*
X20833333Y29676191D01*
X20785714Y29485715D01*
X20738095Y29390477D01*
X20642857Y29295239D01*
X20500000Y29247620D01*
X20261904Y29247620D01*
X21690476Y30247620D02*
X21500000Y30247620D01*
X21404761Y30200000D01*
X21357142Y30152381D01*
X21261904Y30009524D01*
X21214285Y29819048D01*
X21214285Y29438096D01*
X21261904Y29342858D01*
X21309523Y29295239D01*
X21404761Y29247620D01*
X21595238Y29247620D01*
X21690476Y29295239D01*
X21738095Y29342858D01*
X21785714Y29438096D01*
X21785714Y29676191D01*
X21738095Y29771429D01*
X21690476Y29819048D01*
X21595238Y29866667D01*
X21404761Y29866667D01*
X21309523Y29819048D01*
X21261904Y29771429D01*
X21214285Y29676191D01*
X16752380Y26576191D02*
X16752380Y26766667D01*
X16800000Y26861905D01*
X16895238Y26957143D01*
X17085714Y27004762D01*
X17419047Y27004762D01*
X17609523Y26957143D01*
X17704761Y26861905D01*
X17752380Y26766667D01*
X17752380Y26576191D01*
X17704761Y26480953D01*
X17609523Y26385715D01*
X17419047Y26338096D01*
X17085714Y26338096D01*
X16895238Y26385715D01*
X16800000Y26480953D01*
X16752380Y26576191D01*
X17085714Y27433334D02*
X17752380Y27433334D01*
X17180952Y27433334D02*
X17133333Y27480953D01*
X17085714Y27576191D01*
X17085714Y27719048D01*
X17133333Y27814286D01*
X17228571Y27861905D01*
X17752380Y27861905D01*
X17704761Y28719048D02*
X17752380Y28623810D01*
X17752380Y28433334D01*
X17704761Y28338096D01*
X17609523Y28290477D01*
X17228571Y28290477D01*
X17133333Y28338096D01*
X17085714Y28433334D01*
X17085714Y28623810D01*
X17133333Y28719048D01*
X17228571Y28766667D01*
X17323809Y28766667D01*
X17419047Y28290477D01*
X16752380Y29100000D02*
X17752380Y29338096D01*
X17038095Y29528572D01*
X17752380Y29719048D01*
X16752380Y29957143D01*
X17752380Y30338096D02*
X17085714Y30338096D01*
X16752380Y30338096D02*
X16800000Y30290477D01*
X16847619Y30338096D01*
X16800000Y30385715D01*
X16752380Y30338096D01*
X16847619Y30338096D01*
X17752380Y30814286D02*
X17085714Y30814286D01*
X17276190Y30814286D02*
X17180952Y30861905D01*
X17133333Y30909524D01*
X17085714Y31004762D01*
X17085714Y31100000D01*
X17704761Y31814286D02*
X17752380Y31719048D01*
X17752380Y31528572D01*
X17704761Y31433334D01*
X17609523Y31385715D01*
X17228571Y31385715D01*
X17133333Y31433334D01*
X17085714Y31528572D01*
X17085714Y31719048D01*
X17133333Y31814286D01*
X17228571Y31861905D01*
X17323809Y31861905D01*
X17419047Y31385715D01*
X4952380Y28023810D02*
X3952380Y28023810D01*
X4047619Y28452381D02*
X4000000Y28500000D01*
X3952380Y28595239D01*
X3952380Y28833334D01*
X4000000Y28928572D01*
X4047619Y28976191D01*
X4142857Y29023810D01*
X4238095Y29023810D01*
X4380952Y28976191D01*
X4952380Y28404762D01*
X4952380Y29023810D01*
X4857142Y30023810D02*
X4904761Y29976191D01*
X4952380Y29833334D01*
X4952380Y29738096D01*
X4904761Y29595239D01*
X4809523Y29500000D01*
X4714285Y29452381D01*
X4523809Y29404762D01*
X4380952Y29404762D01*
X4190476Y29452381D01*
X4095238Y29500000D01*
X4000000Y29595239D01*
X3952380Y29738096D01*
X3952380Y29833334D01*
X4000000Y29976191D01*
X4047619Y30023810D01*
D11*
X18224500Y37211000D02*
X18224500Y17653000D01*
X3111500Y17716500D02*
X3111500Y37211000D01*
D12*
G04 #@! TO.C,U1*
X3861000Y1786000D02*
X4261000Y2286000D01*
X3861000Y2786000D02*
X3861000Y1786000D01*
X4261000Y2286000D02*
X3861000Y2786000D01*
X10561000Y886000D02*
X10561000Y1086000D01*
X5361000Y886000D02*
X5361000Y1086000D01*
X10701000Y1136000D02*
X5301000Y1136000D01*
X10701000Y3386000D02*
X5301000Y3386000D01*
X5981000Y-1264000D02*
X5581000Y-1264000D01*
X5981000Y-1264000D02*
X5981000Y-1664000D01*
X5981000Y-1264000D02*
X5181000Y-2064000D01*
X6981000Y-1664000D02*
X6181000Y-2464000D01*
X6981000Y-1664000D02*
X6981000Y-2064000D01*
X6981000Y-1664000D02*
X6581000Y-1664000D01*
X5361000Y886000D02*
G75*
G03X10561000Y886000I2600000J0D01*
G01*
G04 #@! TO.C,Q1*
X15660000Y6420000D02*
X15660000Y7350000D01*
X15660000Y9580000D02*
X15660000Y8650000D01*
X15660000Y9580000D02*
X13500000Y9580000D01*
X15660000Y6420000D02*
X14200000Y6420000D01*
G04 #@! TO.C,R5*
X22321078Y33210000D02*
X21803922Y33210000D01*
X22321078Y31790000D02*
X21803922Y31790000D01*
G04 #@! TO.C,R1*
X15008578Y10190000D02*
X14491422Y10190000D01*
X15008578Y11610000D02*
X14491422Y11610000D01*
G04 #@! TO.C,R2*
X14990578Y5536000D02*
X14473422Y5536000D01*
X14990578Y4116000D02*
X14473422Y4116000D01*
G04 #@! TO.C,R4*
X14990578Y941000D02*
X14473422Y941000D01*
X14990578Y2361000D02*
X14473422Y2361000D01*
G04 #@! TO.C,DHT22*
X16189000Y12570000D02*
X16189000Y15230000D01*
X8509000Y12570000D02*
X16189000Y12570000D01*
X8509000Y15230000D02*
X16189000Y15230000D01*
X8509000Y12570000D02*
X8509000Y15230000D01*
X7239000Y12570000D02*
X5909000Y12570000D01*
X5909000Y12570000D02*
X5909000Y13900000D01*
G04 #@! TO.C,D4*
X3750000Y11650000D02*
X3750000Y4350000D01*
X8100000Y11650000D02*
X9250000Y11650000D01*
X9250000Y11650000D02*
X9250000Y4350000D01*
G04 #@! TO.C,PR1*
X20890000Y13050000D02*
X18240000Y13050000D01*
X20890000Y8750000D02*
X18240000Y8750000D01*
X20915476Y8765612D02*
G75*
G03X20890000Y13050000I-1325476J2134388D01*
G01*
X18211973Y13032144D02*
G75*
G03X18240000Y8750000I1378027J-2132144D01*
G01*
G04 #@! TO.C,C1*
X11471267Y4290000D02*
X11128733Y4290000D01*
X11471267Y5310000D02*
X11128733Y5310000D01*
G04 #@! TO.C,D1*
X22294000Y2540462D02*
G75*
G02X16744000Y995170I-2990000J-462D01*
G01*
X22294000Y2539538D02*
G75*
G03X16744000Y4084830I-2990000J462D01*
G01*
X21804000Y2540000D02*
G75*
G03X21804000Y2540000I-2500000J0D01*
G01*
X16744000Y4085000D02*
X16744000Y995000D01*
G04 #@! TO.C,D3*
X11900000Y7450000D02*
X11900000Y10650000D01*
X9900000Y10650000D02*
X9900000Y7450000D01*
X9900000Y10650000D02*
X11900000Y10650000D01*
G04 #@! TO.C,J4*
X25230000Y31010000D02*
X22570000Y31010000D01*
X25230000Y25870000D02*
X25230000Y31010000D01*
X22570000Y25870000D02*
X22570000Y31010000D01*
X25230000Y25870000D02*
X22570000Y25870000D01*
X25230000Y24600000D02*
X25230000Y23270000D01*
X25230000Y23270000D02*
X23900000Y23270000D01*
G04 #@! TO.C,U1*
D10*
X7299095Y4733620D02*
X7299095Y3924096D01*
X7346714Y3828858D01*
X7394333Y3781239D01*
X7489571Y3733620D01*
X7680047Y3733620D01*
X7775285Y3781239D01*
X7822904Y3828858D01*
X7870523Y3924096D01*
X7870523Y4733620D01*
X8870523Y3733620D02*
X8299095Y3733620D01*
X8584809Y3733620D02*
X8584809Y4733620D01*
X8489571Y4590762D01*
X8394333Y4495524D01*
X8299095Y4447905D01*
G04 #@! TO.C,Q1*
X17347619Y9304762D02*
X17300000Y9209524D01*
X17204761Y9114286D01*
X17061904Y8971429D01*
X17014285Y8876191D01*
X17014285Y8780953D01*
X17252380Y8828572D02*
X17204761Y8733334D01*
X17109523Y8638096D01*
X16919047Y8590477D01*
X16585714Y8590477D01*
X16395238Y8638096D01*
X16300000Y8733334D01*
X16252380Y8828572D01*
X16252380Y9019048D01*
X16300000Y9114286D01*
X16395238Y9209524D01*
X16585714Y9257143D01*
X16919047Y9257143D01*
X17109523Y9209524D01*
X17204761Y9114286D01*
X17252380Y9019048D01*
X17252380Y8828572D01*
X17252380Y10209524D02*
X17252380Y9638096D01*
X17252380Y9923810D02*
X16252380Y9923810D01*
X16395238Y9828572D01*
X16490476Y9733334D01*
X16538095Y9638096D01*
G04 #@! TO.C,R5*
X21733333Y33647620D02*
X21400000Y34123810D01*
X21161904Y33647620D02*
X21161904Y34647620D01*
X21542857Y34647620D01*
X21638095Y34600000D01*
X21685714Y34552381D01*
X21733333Y34457143D01*
X21733333Y34314286D01*
X21685714Y34219048D01*
X21638095Y34171429D01*
X21542857Y34123810D01*
X21161904Y34123810D01*
X22638095Y34647620D02*
X22161904Y34647620D01*
X22114285Y34171429D01*
X22161904Y34219048D01*
X22257142Y34266667D01*
X22495238Y34266667D01*
X22590476Y34219048D01*
X22638095Y34171429D01*
X22685714Y34076191D01*
X22685714Y33838096D01*
X22638095Y33742858D01*
X22590476Y33695239D01*
X22495238Y33647620D01*
X22257142Y33647620D01*
X22161904Y33695239D01*
X22114285Y33742858D01*
G04 #@! TO.C,R1*
X13052380Y10933334D02*
X12576190Y10600000D01*
X13052380Y10361905D02*
X12052380Y10361905D01*
X12052380Y10742858D01*
X12100000Y10838096D01*
X12147619Y10885715D01*
X12242857Y10933334D01*
X12385714Y10933334D01*
X12480952Y10885715D01*
X12528571Y10838096D01*
X12576190Y10742858D01*
X12576190Y10361905D01*
X13052380Y11885715D02*
X13052380Y11314286D01*
X13052380Y11600000D02*
X12052380Y11600000D01*
X12195238Y11504762D01*
X12290476Y11409524D01*
X12338095Y11314286D01*
G04 #@! TO.C,R2*
X14433333Y2747620D02*
X14100000Y3223810D01*
X13861904Y2747620D02*
X13861904Y3747620D01*
X14242857Y3747620D01*
X14338095Y3700000D01*
X14385714Y3652381D01*
X14433333Y3557143D01*
X14433333Y3414286D01*
X14385714Y3319048D01*
X14338095Y3271429D01*
X14242857Y3223810D01*
X13861904Y3223810D01*
X14814285Y3652381D02*
X14861904Y3700000D01*
X14957142Y3747620D01*
X15195238Y3747620D01*
X15290476Y3700000D01*
X15338095Y3652381D01*
X15385714Y3557143D01*
X15385714Y3461905D01*
X15338095Y3319048D01*
X14766666Y2747620D01*
X15385714Y2747620D01*
G04 #@! TO.C,R4*
X12852380Y1333334D02*
X12376190Y1000000D01*
X12852380Y761905D02*
X11852380Y761905D01*
X11852380Y1142858D01*
X11900000Y1238096D01*
X11947619Y1285715D01*
X12042857Y1333334D01*
X12185714Y1333334D01*
X12280952Y1285715D01*
X12328571Y1238096D01*
X12376190Y1142858D01*
X12376190Y761905D01*
X12185714Y2190477D02*
X12852380Y2190477D01*
X11804761Y1952381D02*
X12519047Y1714286D01*
X12519047Y2333334D01*
G04 #@! TO.C,DHT22*
X9080952Y19347620D02*
X9080952Y20347620D01*
X9319047Y20347620D01*
X9461904Y20300000D01*
X9557142Y20204762D01*
X9604761Y20109524D01*
X9652380Y19919048D01*
X9652380Y19776191D01*
X9604761Y19585715D01*
X9557142Y19490477D01*
X9461904Y19395239D01*
X9319047Y19347620D01*
X9080952Y19347620D01*
X10080952Y19347620D02*
X10080952Y20347620D01*
X10080952Y19871429D02*
X10652380Y19871429D01*
X10652380Y19347620D02*
X10652380Y20347620D01*
X10985714Y20347620D02*
X11557142Y20347620D01*
X11271428Y19347620D02*
X11271428Y20347620D01*
X11842857Y20252381D02*
X11890476Y20300000D01*
X11985714Y20347620D01*
X12223809Y20347620D01*
X12319047Y20300000D01*
X12366666Y20252381D01*
X12414285Y20157143D01*
X12414285Y20061905D01*
X12366666Y19919048D01*
X11795238Y19347620D01*
X12414285Y19347620D01*
X12795238Y20252381D02*
X12842857Y20300000D01*
X12938095Y20347620D01*
X13176190Y20347620D01*
X13271428Y20300000D01*
X13319047Y20252381D01*
X13366666Y20157143D01*
X13366666Y20061905D01*
X13319047Y19919048D01*
X12747619Y19347620D01*
X13366666Y19347620D01*
G04 #@! TO.C,D4*
X6952380Y7161905D02*
X5952380Y7161905D01*
X5952380Y7400000D01*
X6000000Y7542858D01*
X6095238Y7638096D01*
X6190476Y7685715D01*
X6380952Y7733334D01*
X6523809Y7733334D01*
X6714285Y7685715D01*
X6809523Y7638096D01*
X6904761Y7542858D01*
X6952380Y7400000D01*
X6952380Y7161905D01*
X6285714Y8590477D02*
X6952380Y8590477D01*
X5904761Y8352381D02*
X6619047Y8114286D01*
X6619047Y8733334D01*
G04 #@! TO.C,PR1*
X18761904Y13347620D02*
X18761904Y14347620D01*
X19142857Y14347620D01*
X19238095Y14300000D01*
X19285714Y14252381D01*
X19333333Y14157143D01*
X19333333Y14014286D01*
X19285714Y13919048D01*
X19238095Y13871429D01*
X19142857Y13823810D01*
X18761904Y13823810D01*
X20333333Y13347620D02*
X20000000Y13823810D01*
X19761904Y13347620D02*
X19761904Y14347620D01*
X20142857Y14347620D01*
X20238095Y14300000D01*
X20285714Y14252381D01*
X20333333Y14157143D01*
X20333333Y14014286D01*
X20285714Y13919048D01*
X20238095Y13871429D01*
X20142857Y13823810D01*
X19761904Y13823810D01*
X21285714Y13347620D02*
X20714285Y13347620D01*
X21000000Y13347620D02*
X21000000Y14347620D01*
X20904761Y14204762D01*
X20809523Y14109524D01*
X20714285Y14061905D01*
G04 #@! TO.C,C1*
X11733333Y3042858D02*
X11685714Y2995239D01*
X11542857Y2947620D01*
X11447619Y2947620D01*
X11304761Y2995239D01*
X11209523Y3090477D01*
X11161904Y3185715D01*
X11114285Y3376191D01*
X11114285Y3519048D01*
X11161904Y3709524D01*
X11209523Y3804762D01*
X11304761Y3900000D01*
X11447619Y3947620D01*
X11542857Y3947620D01*
X11685714Y3900000D01*
X11733333Y3852381D01*
X12685714Y2947620D02*
X12114285Y2947620D01*
X12400000Y2947620D02*
X12400000Y3947620D01*
X12304761Y3804762D01*
X12209523Y3709524D01*
X12114285Y3661905D01*
G04 #@! TO.C,D1*
X18565904Y3847620D02*
X18565904Y4847620D01*
X18804000Y4847620D01*
X18946857Y4800000D01*
X19042095Y4704762D01*
X19089714Y4609524D01*
X19137333Y4419048D01*
X19137333Y4276191D01*
X19089714Y4085715D01*
X19042095Y3990477D01*
X18946857Y3895239D01*
X18804000Y3847620D01*
X18565904Y3847620D01*
X20089714Y3847620D02*
X19518285Y3847620D01*
X19804000Y3847620D02*
X19804000Y4847620D01*
X19708761Y4704762D01*
X19613523Y4609524D01*
X19518285Y4561905D01*
G04 #@! TO.C,D3*
X13252380Y7161905D02*
X12252380Y7161905D01*
X12252380Y7400000D01*
X12300000Y7542858D01*
X12395238Y7638096D01*
X12490476Y7685715D01*
X12680952Y7733334D01*
X12823809Y7733334D01*
X13014285Y7685715D01*
X13109523Y7638096D01*
X13204761Y7542858D01*
X13252380Y7400000D01*
X13252380Y7161905D01*
X12252380Y8066667D02*
X12252380Y8685715D01*
X12633333Y8352381D01*
X12633333Y8495239D01*
X12680952Y8590477D01*
X12728571Y8638096D01*
X12823809Y8685715D01*
X13061904Y8685715D01*
X13157142Y8638096D01*
X13204761Y8590477D01*
X13252380Y8495239D01*
X13252380Y8209524D01*
X13204761Y8114286D01*
X13157142Y8066667D01*
G04 #@! TO.C,JP1*
D11*
X3266666Y16397620D02*
X3266666Y15683334D01*
X3219047Y15540477D01*
X3123809Y15445239D01*
X2980952Y15397620D01*
X2885714Y15397620D01*
X3742857Y15397620D02*
X3742857Y16397620D01*
X4123809Y16397620D01*
X4219047Y16350000D01*
X4266666Y16302381D01*
X4314285Y16207143D01*
X4314285Y16064286D01*
X4266666Y15969048D01*
X4219047Y15921429D01*
X4123809Y15873810D01*
X3742857Y15873810D01*
X5266666Y15397620D02*
X4695238Y15397620D01*
X4980952Y15397620D02*
X4980952Y16397620D01*
X4885714Y16254762D01*
X4790476Y16159524D01*
X4695238Y16111905D01*
G04 #@! TD*
M02*
