G04 #@! TF.GenerationSoftware,KiCad,Pcbnew,5.0.0*
G04 #@! TF.CreationDate,2018-07-28T11:39:45+02:00*
G04 #@! TF.ProjectId,PTL-IR_remote,50544C2D49525F72656D6F74652E6B69,v1.1*
G04 #@! TF.SameCoordinates,Original*
G04 #@! TF.FileFunction,Soldermask,Bot*
G04 #@! TF.FilePolarity,Negative*
%FSLAX46Y46*%
G04 Gerber Fmt 4.6, Leading zero omitted, Abs format (unit mm)*
G04 Created by KiCad (PCBNEW 5.0.0) date Sat Jul 28 11:39:45 2018*
%MOMM*%
%LPD*%
G01*
G04 APERTURE LIST*
%ADD10C,0.300000*%
%ADD11C,0.000120*%
%ADD12C,4.400500*%
%ADD13R,2.200000X2.200000*%
%ADD14C,2.200000*%
%ADD15R,2.100000X2.100000*%
%ADD16O,2.100000X2.100000*%
G04 APERTURE END LIST*
D10*
X191265571Y-84752571D02*
X191979857Y-84752571D01*
X191979857Y-83252571D01*
X190194142Y-84681142D02*
X190337000Y-84752571D01*
X190622714Y-84752571D01*
X190765571Y-84681142D01*
X190837000Y-84538285D01*
X190837000Y-83966857D01*
X190765571Y-83824000D01*
X190622714Y-83752571D01*
X190337000Y-83752571D01*
X190194142Y-83824000D01*
X190122714Y-83966857D01*
X190122714Y-84109714D01*
X190837000Y-84252571D01*
X189479857Y-84752571D02*
X189479857Y-83752571D01*
X189479857Y-83895428D02*
X189408428Y-83824000D01*
X189265571Y-83752571D01*
X189051285Y-83752571D01*
X188908428Y-83824000D01*
X188837000Y-83966857D01*
X188837000Y-84752571D01*
X188837000Y-83966857D02*
X188765571Y-83824000D01*
X188622714Y-83752571D01*
X188408428Y-83752571D01*
X188265571Y-83824000D01*
X188194142Y-83966857D01*
X188194142Y-84752571D01*
X186837000Y-84752571D02*
X186837000Y-83966857D01*
X186908428Y-83824000D01*
X187051285Y-83752571D01*
X187337000Y-83752571D01*
X187479857Y-83824000D01*
X186837000Y-84681142D02*
X186979857Y-84752571D01*
X187337000Y-84752571D01*
X187479857Y-84681142D01*
X187551285Y-84538285D01*
X187551285Y-84395428D01*
X187479857Y-84252571D01*
X187337000Y-84181142D01*
X186979857Y-84181142D01*
X186837000Y-84109714D01*
X186122714Y-83752571D02*
X186122714Y-84752571D01*
X186122714Y-83895428D02*
X186051285Y-83824000D01*
X185908428Y-83752571D01*
X185694142Y-83752571D01*
X185551285Y-83824000D01*
X185479857Y-83966857D01*
X185479857Y-84752571D01*
X184765571Y-84752571D02*
X184765571Y-83252571D01*
X184265571Y-84324000D01*
X183765571Y-83252571D01*
X183765571Y-84752571D01*
X182408428Y-84752571D02*
X182408428Y-83966857D01*
X182479857Y-83824000D01*
X182622714Y-83752571D01*
X182908428Y-83752571D01*
X183051285Y-83824000D01*
X182408428Y-84681142D02*
X182551285Y-84752571D01*
X182908428Y-84752571D01*
X183051285Y-84681142D01*
X183122714Y-84538285D01*
X183122714Y-84395428D01*
X183051285Y-84252571D01*
X182908428Y-84181142D01*
X182551285Y-84181142D01*
X182408428Y-84109714D01*
X181694142Y-84752571D02*
X181694142Y-83252571D01*
X181551285Y-84181142D02*
X181122714Y-84752571D01*
X181122714Y-83752571D02*
X181694142Y-84324000D01*
X179908428Y-84681142D02*
X180051285Y-84752571D01*
X180337000Y-84752571D01*
X180479857Y-84681142D01*
X180551285Y-84538285D01*
X180551285Y-83966857D01*
X180479857Y-83824000D01*
X180337000Y-83752571D01*
X180051285Y-83752571D01*
X179908428Y-83824000D01*
X179837000Y-83966857D01*
X179837000Y-84109714D01*
X180551285Y-84252571D01*
X177265571Y-84752571D02*
X178122714Y-84752571D01*
X177694142Y-84752571D02*
X177694142Y-83252571D01*
X177837000Y-83466857D01*
X177979857Y-83609714D01*
X178122714Y-83681142D01*
X176408428Y-83895428D02*
X176551285Y-83824000D01*
X176622714Y-83752571D01*
X176694142Y-83609714D01*
X176694142Y-83538285D01*
X176622714Y-83395428D01*
X176551285Y-83324000D01*
X176408428Y-83252571D01*
X176122714Y-83252571D01*
X175979857Y-83324000D01*
X175908428Y-83395428D01*
X175837000Y-83538285D01*
X175837000Y-83609714D01*
X175908428Y-83752571D01*
X175979857Y-83824000D01*
X176122714Y-83895428D01*
X176408428Y-83895428D01*
X176551285Y-83966857D01*
X176622714Y-84038285D01*
X176694142Y-84181142D01*
X176694142Y-84466857D01*
X176622714Y-84609714D01*
X176551285Y-84681142D01*
X176408428Y-84752571D01*
X176122714Y-84752571D01*
X175979857Y-84681142D01*
X175908428Y-84609714D01*
X175837000Y-84466857D01*
X175837000Y-84181142D01*
X175908428Y-84038285D01*
X175979857Y-83966857D01*
X176122714Y-83895428D01*
X180704857Y-94420571D02*
X180347714Y-95420571D01*
X179990571Y-94420571D01*
X178633428Y-95420571D02*
X179490571Y-95420571D01*
X179062000Y-95420571D02*
X179062000Y-93920571D01*
X179204857Y-94134857D01*
X179347714Y-94277714D01*
X179490571Y-94349142D01*
X177990571Y-95277714D02*
X177919142Y-95349142D01*
X177990571Y-95420571D01*
X178062000Y-95349142D01*
X177990571Y-95277714D01*
X177990571Y-95420571D01*
X176490571Y-95420571D02*
X177347714Y-95420571D01*
X176919142Y-95420571D02*
X176919142Y-93920571D01*
X177062000Y-94134857D01*
X177204857Y-94277714D01*
X177347714Y-94349142D01*
X191979857Y-87546571D02*
X191979857Y-86046571D01*
X191408428Y-86046571D01*
X191265571Y-86118000D01*
X191194142Y-86189428D01*
X191122714Y-86332285D01*
X191122714Y-86546571D01*
X191194142Y-86689428D01*
X191265571Y-86760857D01*
X191408428Y-86832285D01*
X191979857Y-86832285D01*
X190694142Y-86046571D02*
X189837000Y-86046571D01*
X190265571Y-87546571D02*
X190265571Y-86046571D01*
X188622714Y-87546571D02*
X189337000Y-87546571D01*
X189337000Y-86046571D01*
X186979857Y-87546571D02*
X186979857Y-86046571D01*
X185408428Y-87546571D02*
X185908428Y-86832285D01*
X186265571Y-87546571D02*
X186265571Y-86046571D01*
X185694142Y-86046571D01*
X185551285Y-86118000D01*
X185479857Y-86189428D01*
X185408428Y-86332285D01*
X185408428Y-86546571D01*
X185479857Y-86689428D01*
X185551285Y-86760857D01*
X185694142Y-86832285D01*
X186265571Y-86832285D01*
X183622714Y-87546571D02*
X183622714Y-86546571D01*
X183622714Y-86832285D02*
X183551285Y-86689428D01*
X183479857Y-86618000D01*
X183337000Y-86546571D01*
X183194142Y-86546571D01*
X182122714Y-87475142D02*
X182265571Y-87546571D01*
X182551285Y-87546571D01*
X182694142Y-87475142D01*
X182765571Y-87332285D01*
X182765571Y-86760857D01*
X182694142Y-86618000D01*
X182551285Y-86546571D01*
X182265571Y-86546571D01*
X182122714Y-86618000D01*
X182051285Y-86760857D01*
X182051285Y-86903714D01*
X182765571Y-87046571D01*
X181408428Y-87546571D02*
X181408428Y-86546571D01*
X181408428Y-86689428D02*
X181337000Y-86618000D01*
X181194142Y-86546571D01*
X180979857Y-86546571D01*
X180837000Y-86618000D01*
X180765571Y-86760857D01*
X180765571Y-87546571D01*
X180765571Y-86760857D02*
X180694142Y-86618000D01*
X180551285Y-86546571D01*
X180337000Y-86546571D01*
X180194142Y-86618000D01*
X180122714Y-86760857D01*
X180122714Y-87546571D01*
X179194142Y-87546571D02*
X179337000Y-87475142D01*
X179408428Y-87403714D01*
X179479857Y-87260857D01*
X179479857Y-86832285D01*
X179408428Y-86689428D01*
X179337000Y-86618000D01*
X179194142Y-86546571D01*
X178979857Y-86546571D01*
X178837000Y-86618000D01*
X178765571Y-86689428D01*
X178694142Y-86832285D01*
X178694142Y-87260857D01*
X178765571Y-87403714D01*
X178837000Y-87475142D01*
X178979857Y-87546571D01*
X179194142Y-87546571D01*
X178265571Y-86546571D02*
X177694142Y-86546571D01*
X178051285Y-86046571D02*
X178051285Y-87332285D01*
X177979857Y-87475142D01*
X177837000Y-87546571D01*
X177694142Y-87546571D01*
X176622714Y-87475142D02*
X176765571Y-87546571D01*
X177051285Y-87546571D01*
X177194142Y-87475142D01*
X177265571Y-87332285D01*
X177265571Y-86760857D01*
X177194142Y-86618000D01*
X177051285Y-86546571D01*
X176765571Y-86546571D01*
X176622714Y-86618000D01*
X176551285Y-86760857D01*
X176551285Y-86903714D01*
X177265571Y-87046571D01*
X181641428Y-96460571D02*
X181498571Y-96460571D01*
X181355714Y-96532000D01*
X181284285Y-96603428D01*
X181212857Y-96746285D01*
X181141428Y-97032000D01*
X181141428Y-97389142D01*
X181212857Y-97674857D01*
X181284285Y-97817714D01*
X181355714Y-97889142D01*
X181498571Y-97960571D01*
X181641428Y-97960571D01*
X181784285Y-97889142D01*
X181855714Y-97817714D01*
X181927142Y-97674857D01*
X181998571Y-97389142D01*
X181998571Y-97032000D01*
X181927142Y-96746285D01*
X181855714Y-96603428D01*
X181784285Y-96532000D01*
X181641428Y-96460571D01*
X180427142Y-97960571D02*
X180141428Y-97960571D01*
X179998571Y-97889142D01*
X179927142Y-97817714D01*
X179784285Y-97603428D01*
X179712857Y-97317714D01*
X179712857Y-96746285D01*
X179784285Y-96603428D01*
X179855714Y-96532000D01*
X179998571Y-96460571D01*
X180284285Y-96460571D01*
X180427142Y-96532000D01*
X180498571Y-96603428D01*
X180570000Y-96746285D01*
X180570000Y-97103428D01*
X180498571Y-97246285D01*
X180427142Y-97317714D01*
X180284285Y-97389142D01*
X179998571Y-97389142D01*
X179855714Y-97317714D01*
X179784285Y-97246285D01*
X179712857Y-97103428D01*
X179070000Y-97817714D02*
X178998571Y-97889142D01*
X179070000Y-97960571D01*
X179141428Y-97889142D01*
X179070000Y-97817714D01*
X179070000Y-97960571D01*
X177570000Y-97960571D02*
X178427142Y-97960571D01*
X177998571Y-97960571D02*
X177998571Y-96460571D01*
X178141428Y-96674857D01*
X178284285Y-96817714D01*
X178427142Y-96889142D01*
X176712857Y-97103428D02*
X176855714Y-97032000D01*
X176927142Y-96960571D01*
X176998571Y-96817714D01*
X176998571Y-96746285D01*
X176927142Y-96603428D01*
X176855714Y-96532000D01*
X176712857Y-96460571D01*
X176427142Y-96460571D01*
X176284285Y-96532000D01*
X176212857Y-96603428D01*
X176141428Y-96746285D01*
X176141428Y-96817714D01*
X176212857Y-96960571D01*
X176284285Y-97032000D01*
X176427142Y-97103428D01*
X176712857Y-97103428D01*
X176855714Y-97174857D01*
X176927142Y-97246285D01*
X176998571Y-97389142D01*
X176998571Y-97674857D01*
X176927142Y-97817714D01*
X176855714Y-97889142D01*
X176712857Y-97960571D01*
X176427142Y-97960571D01*
X176284285Y-97889142D01*
X176212857Y-97817714D01*
X176141428Y-97674857D01*
X176141428Y-97389142D01*
X176212857Y-97246285D01*
X176284285Y-97174857D01*
X176427142Y-97103428D01*
D11*
G04 #@! TO.C,*
G36*
X185316865Y-93849897D02*
X183179076Y-91712108D01*
X183283422Y-91496959D01*
X183502483Y-91522068D01*
X186061308Y-94153087D01*
X186061308Y-94157717D01*
X186060982Y-94159804D01*
X186060982Y-94161956D01*
X186067699Y-94301389D01*
X186087134Y-94436843D01*
X186118633Y-94568123D01*
X186161480Y-94694447D01*
X185316865Y-93849897D01*
G37*
X185316865Y-93849897D02*
X183179076Y-91712108D01*
X183283422Y-91496959D01*
X183502483Y-91522068D01*
X186061308Y-94153087D01*
X186061308Y-94157717D01*
X186060982Y-94159804D01*
X186060982Y-94161956D01*
X186067699Y-94301389D01*
X186087134Y-94436843D01*
X186118633Y-94568123D01*
X186161480Y-94694447D01*
X185316865Y-93849897D01*
G36*
X184615985Y-96718629D02*
X184617420Y-96748042D01*
X184622703Y-96776672D01*
X184631181Y-96804258D01*
X184642529Y-96830801D01*
X183887455Y-97609549D01*
X183277096Y-96833997D01*
X183379746Y-96672326D01*
X183761522Y-97065384D01*
X184251883Y-96559828D01*
X184288665Y-96582066D01*
X184328317Y-96598371D01*
X184369729Y-96608283D01*
X184412185Y-96611805D01*
X184488944Y-96600849D01*
X184557617Y-96569349D01*
X184614942Y-96521220D01*
X184658441Y-96458938D01*
X184673311Y-96474199D01*
X184703701Y-96504590D01*
X184718571Y-96519785D01*
X184676506Y-96557284D01*
X184643898Y-96604370D01*
X184623029Y-96658891D01*
X184615985Y-96718629D01*
G37*
X184615985Y-96718629D02*
X184617420Y-96748042D01*
X184622703Y-96776672D01*
X184631181Y-96804258D01*
X184642529Y-96830801D01*
X183887455Y-97609549D01*
X183277096Y-96833997D01*
X183379746Y-96672326D01*
X183761522Y-97065384D01*
X184251883Y-96559828D01*
X184288665Y-96582066D01*
X184328317Y-96598371D01*
X184369729Y-96608283D01*
X184412185Y-96611805D01*
X184488944Y-96600849D01*
X184557617Y-96569349D01*
X184614942Y-96521220D01*
X184658441Y-96458938D01*
X184673311Y-96474199D01*
X184703701Y-96504590D01*
X184718571Y-96519785D01*
X184676506Y-96557284D01*
X184643898Y-96604370D01*
X184623029Y-96658891D01*
X184615985Y-96718629D01*
G36*
X182658976Y-94459538D02*
X182611890Y-94556450D01*
X182556000Y-94556450D01*
X182532000Y-94332823D01*
X182658976Y-94459538D01*
G37*
X182658976Y-94459538D02*
X182611890Y-94556450D01*
X182556000Y-94556450D01*
X182532000Y-94332823D01*
X182658976Y-94459538D01*
G36*
X184561856Y-97487855D02*
X184018018Y-97680700D01*
X184743353Y-96933060D01*
X184768852Y-96945125D01*
X184795395Y-96953603D01*
X184822982Y-96958560D01*
X184850894Y-96960321D01*
X184910698Y-96952560D01*
X184964827Y-96929865D01*
X185011196Y-96894518D01*
X185048369Y-96848866D01*
X185066760Y-96867648D01*
X185122977Y-96923865D01*
X184561856Y-97487855D01*
G37*
X184561856Y-97487855D02*
X184018018Y-97680700D01*
X184743353Y-96933060D01*
X184768852Y-96945125D01*
X184795395Y-96953603D01*
X184822982Y-96958560D01*
X184850894Y-96960321D01*
X184910698Y-96952560D01*
X184964827Y-96929865D01*
X185011196Y-96894518D01*
X185048369Y-96848866D01*
X185066760Y-96867648D01*
X185122977Y-96923865D01*
X184561856Y-97487855D01*
G36*
X184412185Y-96467416D02*
X184358381Y-96456134D01*
X184314491Y-96425352D01*
X184284817Y-96380027D01*
X184273861Y-96324136D01*
X184282339Y-96274963D01*
X184304969Y-96233225D01*
X184339664Y-96201725D01*
X184382837Y-96183660D01*
X184546987Y-96347875D01*
X184531074Y-96394896D01*
X184501009Y-96433113D01*
X184460314Y-96458221D01*
X184412185Y-96467416D01*
G37*
X184412185Y-96467416D02*
X184358381Y-96456134D01*
X184314491Y-96425352D01*
X184284817Y-96380027D01*
X184273861Y-96324136D01*
X184282339Y-96274963D01*
X184304969Y-96233225D01*
X184339664Y-96201725D01*
X184382837Y-96183660D01*
X184546987Y-96347875D01*
X184531074Y-96394896D01*
X184501009Y-96433113D01*
X184460314Y-96458221D01*
X184412185Y-96467416D01*
G36*
X182872298Y-94906400D02*
X182906993Y-94904248D01*
X182941362Y-94897204D01*
X182974231Y-94885531D01*
X183006122Y-94869227D01*
X184217905Y-96117531D01*
X184180797Y-96161748D01*
X184153537Y-96211964D01*
X184136907Y-96266485D01*
X184130907Y-96324136D01*
X184132994Y-96356027D01*
X184138342Y-96387461D01*
X184147146Y-96418243D01*
X184159863Y-96448373D01*
X184152102Y-96456134D01*
X184144668Y-96463895D01*
X184137233Y-96471329D01*
X184129798Y-96479090D01*
X183708045Y-96044293D01*
X183467853Y-95447369D01*
X183035078Y-95351110D01*
X182701497Y-95007224D01*
X182604847Y-95007224D01*
X182571978Y-94700838D01*
X182611890Y-94700838D01*
X182648737Y-94784315D01*
X182707432Y-94849075D01*
X182783930Y-94891531D01*
X182872298Y-94906400D01*
G37*
X182872298Y-94906400D02*
X182906993Y-94904248D01*
X182941362Y-94897204D01*
X182974231Y-94885531D01*
X183006122Y-94869227D01*
X184217905Y-96117531D01*
X184180797Y-96161748D01*
X184153537Y-96211964D01*
X184136907Y-96266485D01*
X184130907Y-96324136D01*
X184132994Y-96356027D01*
X184138342Y-96387461D01*
X184147146Y-96418243D01*
X184159863Y-96448373D01*
X184152102Y-96456134D01*
X184144668Y-96463895D01*
X184137233Y-96471329D01*
X184129798Y-96479090D01*
X183708045Y-96044293D01*
X183467853Y-95447369D01*
X183035078Y-95351110D01*
X182701497Y-95007224D01*
X182604847Y-95007224D01*
X182571978Y-94700838D01*
X182611890Y-94700838D01*
X182648737Y-94784315D01*
X182707432Y-94849075D01*
X182783930Y-94891531D01*
X182872298Y-94906400D01*
G36*
X187523000Y-92699938D02*
X187405872Y-92704895D01*
X187291222Y-92718721D01*
X187179376Y-92741351D01*
X187070791Y-92772133D01*
X184533552Y-90157026D01*
X184921654Y-89913965D01*
X187630150Y-92705612D01*
X187603281Y-92703525D01*
X187576738Y-92701699D01*
X187549869Y-92700656D01*
X187523000Y-92699938D01*
G37*
X187523000Y-92699938D02*
X187405872Y-92704895D01*
X187291222Y-92718721D01*
X187179376Y-92741351D01*
X187070791Y-92772133D01*
X184533552Y-90157026D01*
X184921654Y-89913965D01*
X187630150Y-92705612D01*
X187603281Y-92703525D01*
X187576738Y-92701699D01*
X187549869Y-92700656D01*
X187523000Y-92699938D01*
G36*
X186926076Y-92828414D02*
X186778557Y-92904848D01*
X186641602Y-92996803D01*
X186516322Y-93102975D01*
X186403498Y-93222581D01*
X184460314Y-91219203D01*
X184614942Y-91064967D01*
X184419945Y-90245133D01*
X186926076Y-92828414D01*
G37*
X186926076Y-92828414D02*
X186778557Y-92904848D01*
X186641602Y-92996803D01*
X186516322Y-93102975D01*
X186403498Y-93222581D01*
X184460314Y-91219203D01*
X184614942Y-91064967D01*
X184419945Y-90245133D01*
X186926076Y-92828414D01*
G36*
X186076177Y-93963112D02*
X183727153Y-91547567D01*
X184138994Y-91594653D01*
X184362294Y-91323941D01*
X186316108Y-93337884D01*
X186230088Y-93480512D01*
X186161089Y-93632987D01*
X186109438Y-93794332D01*
X186076177Y-93963112D01*
G37*
X186076177Y-93963112D02*
X183727153Y-91547567D01*
X184138994Y-91594653D01*
X184362294Y-91323941D01*
X186316108Y-93337884D01*
X186230088Y-93480512D01*
X186161089Y-93632987D01*
X186109438Y-93794332D01*
X186076177Y-93963112D01*
G36*
X190536448Y-96272876D02*
X190639424Y-96297593D01*
X190727531Y-96279920D01*
X190799334Y-96231464D01*
X190847855Y-96159596D01*
X190865855Y-96071488D01*
X190847855Y-95983773D01*
X190799334Y-95911969D01*
X190727531Y-95863122D01*
X190639424Y-95845449D01*
X190551317Y-95863122D01*
X190479514Y-95911969D01*
X190430993Y-95983773D01*
X190413319Y-96071488D01*
X190418993Y-96122096D01*
X190436341Y-96170226D01*
X189015735Y-97548702D01*
X188548721Y-97081688D01*
X190568991Y-95065984D01*
X190603686Y-95082614D01*
X190640468Y-95095005D01*
X190678684Y-95102049D01*
X190717619Y-95104527D01*
X190835790Y-95080788D01*
X190932376Y-95015376D01*
X190997853Y-94918791D01*
X191021918Y-94800619D01*
X190997853Y-94682056D01*
X190932376Y-94585471D01*
X190835790Y-94519994D01*
X190717619Y-94496320D01*
X190599055Y-94519994D01*
X190502470Y-94585471D01*
X190437058Y-94682056D01*
X190413319Y-94800619D01*
X190416515Y-94844836D01*
X190426428Y-94887618D01*
X190442341Y-94928704D01*
X190464645Y-94967573D01*
X188447832Y-96980864D01*
X188158793Y-96691760D01*
X189154776Y-95705690D01*
X189192667Y-95728647D01*
X189232253Y-95745668D01*
X189273665Y-95756298D01*
X189316512Y-95760863D01*
X189322838Y-95760863D01*
X189437163Y-95737125D01*
X189531270Y-95672756D01*
X189596029Y-95577214D01*
X189621138Y-95460086D01*
X189616507Y-95400348D01*
X189600986Y-95343349D01*
X189574769Y-95290263D01*
X189538704Y-95242851D01*
X189493770Y-95203590D01*
X189443162Y-95174243D01*
X189387924Y-95155461D01*
X189329230Y-95148026D01*
X189322512Y-95148026D01*
X189208580Y-95171765D01*
X189114472Y-95236133D01*
X189050039Y-95331349D01*
X189024604Y-95448086D01*
X189025974Y-95487738D01*
X189032691Y-95525954D01*
X189043713Y-95563062D01*
X189059626Y-95598475D01*
X188057578Y-96590545D01*
X187844255Y-96377222D01*
X187924537Y-96354918D01*
X187989688Y-96306463D01*
X188033513Y-96238181D01*
X188050534Y-96156074D01*
X188034948Y-96067249D01*
X187988970Y-95994011D01*
X187919580Y-95943469D01*
X187833625Y-95923643D01*
X187747670Y-95940599D01*
X187676911Y-95986968D01*
X187628064Y-96055967D01*
X187607520Y-96140878D01*
X186989075Y-95522368D01*
X187115725Y-95565541D01*
X187247331Y-95597431D01*
X187383177Y-95617192D01*
X187523000Y-95623909D01*
X187659889Y-95617583D01*
X187793256Y-95598801D01*
X187922776Y-95568410D01*
X188047339Y-95526998D01*
X188166554Y-95474629D01*
X188280161Y-95412348D01*
X188386985Y-95340871D01*
X188487157Y-95260198D01*
X188579504Y-95171048D01*
X188664024Y-95074071D01*
X188739740Y-94970051D01*
X188806652Y-94859314D01*
X188863259Y-94742577D01*
X188909954Y-94620492D01*
X188945302Y-94493125D01*
X188969758Y-94361518D01*
X189203232Y-94373192D01*
X189229775Y-94423408D01*
X189268383Y-94462016D01*
X189316512Y-94486733D01*
X189371294Y-94495277D01*
X189442119Y-94480733D01*
X189499770Y-94440756D01*
X189539030Y-94381344D01*
X189553182Y-94308758D01*
X189539030Y-94235912D01*
X189499770Y-94176108D01*
X189442119Y-94136131D01*
X189371294Y-94121261D01*
X189320034Y-94129022D01*
X189274383Y-94150609D01*
X189236166Y-94184586D01*
X189207862Y-94229912D01*
X188982149Y-94218238D01*
X188984953Y-94162282D01*
X188982149Y-94071045D01*
X188973605Y-93981177D01*
X188959845Y-93893070D01*
X188941062Y-93807050D01*
X188916998Y-93722855D01*
X188888368Y-93640748D01*
X188854781Y-93560793D01*
X188816891Y-93483316D01*
X188932584Y-93488599D01*
X188963366Y-93545924D01*
X189008692Y-93589814D01*
X189064582Y-93618118D01*
X189127907Y-93628357D01*
X189209297Y-93611401D01*
X189275817Y-93565749D01*
X189320751Y-93497859D01*
X189336990Y-93414709D01*
X189320751Y-93331166D01*
X189275817Y-93262885D01*
X189209297Y-93216908D01*
X189127907Y-93200277D01*
X189063473Y-93210516D01*
X189006866Y-93240255D01*
X188961279Y-93285515D01*
X188930432Y-93343949D01*
X188727740Y-93334688D01*
X188558243Y-93130887D01*
X188460223Y-93041411D01*
X188354768Y-92961064D01*
X188241553Y-92890305D01*
X188122338Y-92829784D01*
X187996731Y-92780285D01*
X187865842Y-92742394D01*
X185046217Y-89835771D01*
X185351560Y-89644687D01*
X185417754Y-89697447D01*
X188519309Y-92894544D01*
X189726201Y-92953630D01*
X189762983Y-93035737D01*
X189822069Y-93100105D01*
X189898176Y-93142235D01*
X189985175Y-93157430D01*
X190089586Y-93135844D01*
X190175215Y-93076432D01*
X190232866Y-92988651D01*
X190254127Y-92881109D01*
X190232866Y-92773894D01*
X190175215Y-92686178D01*
X190089586Y-92627092D01*
X189985175Y-92605505D01*
X189897133Y-92620374D01*
X189821025Y-92662113D01*
X189762657Y-92726481D01*
X189726201Y-92809306D01*
X188582308Y-92753024D01*
X186070504Y-90164135D01*
X186447715Y-90044528D01*
X188509396Y-92169600D01*
X188499157Y-92194708D01*
X188491722Y-92220208D01*
X188487157Y-92246359D01*
X188485723Y-92272511D01*
X188504114Y-92365966D01*
X188554330Y-92442725D01*
X188629003Y-92494051D01*
X188719914Y-92513159D01*
X188811217Y-92494051D01*
X188885498Y-92442725D01*
X188936106Y-92365966D01*
X188954497Y-92272511D01*
X188936106Y-92179121D01*
X188885498Y-92102688D01*
X188811217Y-92051428D01*
X188719914Y-92032320D01*
X188690567Y-92034406D01*
X188661937Y-92040080D01*
X188633633Y-92049993D01*
X188606699Y-92063428D01*
X186610429Y-90005985D01*
X186904815Y-89949377D01*
X186948380Y-89838640D01*
X188768044Y-91714586D01*
X188780826Y-91715303D01*
X189517835Y-91739368D01*
X189549269Y-91793824D01*
X189593877Y-91835953D01*
X189648398Y-91862822D01*
X189709571Y-91872409D01*
X189790243Y-91855779D01*
X189856047Y-91810128D01*
X189900654Y-91742498D01*
X189916893Y-91659739D01*
X189900654Y-91576914D01*
X189856047Y-91509024D01*
X189790243Y-91463373D01*
X189709571Y-91446743D01*
X189644094Y-91457308D01*
X189587160Y-91487764D01*
X189541509Y-91534850D01*
X189512161Y-91594979D01*
X188829999Y-91572675D01*
X187005314Y-89692165D01*
X187160659Y-89294737D01*
X188918758Y-91106705D01*
X188931541Y-91106705D01*
X190105173Y-91125487D01*
X190137716Y-91174661D01*
X190181215Y-91212160D01*
X190233257Y-91236225D01*
X190290909Y-91244703D01*
X190371581Y-91227747D01*
X190437710Y-91182095D01*
X190481992Y-91114466D01*
X190498622Y-91031706D01*
X190481992Y-90948882D01*
X190437710Y-90881318D01*
X190371581Y-90835666D01*
X190290909Y-90819036D01*
X190229018Y-90828623D01*
X190174171Y-90855818D01*
X190129564Y-90898339D01*
X190098455Y-90953512D01*
X188990953Y-90936491D01*
X187261483Y-89154000D01*
X188318704Y-89202847D01*
X188566395Y-90026854D01*
X188826086Y-90099375D01*
X189078734Y-90187808D01*
X189323947Y-90291176D01*
X189561008Y-90409348D01*
X190288104Y-89957138D01*
X191140089Y-90658409D01*
X190844986Y-91466895D01*
X190954680Y-91606653D01*
X191058700Y-91751694D01*
X191156328Y-91900713D01*
X191248348Y-92054232D01*
X192106007Y-92057036D01*
X192455567Y-93103692D01*
X191775883Y-93632270D01*
X191790752Y-93765311D01*
X191801708Y-93899396D01*
X191808426Y-94034589D01*
X191810904Y-94170826D01*
X191810578Y-94213934D01*
X191809534Y-94257107D01*
X191808100Y-94300280D01*
X191806339Y-94343779D01*
X192532000Y-94800945D01*
X192272635Y-95873753D01*
X191417128Y-95961142D01*
X191338608Y-96122096D01*
X191253631Y-96279202D01*
X191162393Y-96432069D01*
X191065091Y-96581023D01*
X191436563Y-97353444D01*
X190647576Y-98125083D01*
X189875546Y-97744742D01*
X189453793Y-97986759D01*
X189116951Y-97650244D01*
X190536448Y-96272876D01*
G37*
X190536448Y-96272876D02*
X190639424Y-96297593D01*
X190727531Y-96279920D01*
X190799334Y-96231464D01*
X190847855Y-96159596D01*
X190865855Y-96071488D01*
X190847855Y-95983773D01*
X190799334Y-95911969D01*
X190727531Y-95863122D01*
X190639424Y-95845449D01*
X190551317Y-95863122D01*
X190479514Y-95911969D01*
X190430993Y-95983773D01*
X190413319Y-96071488D01*
X190418993Y-96122096D01*
X190436341Y-96170226D01*
X189015735Y-97548702D01*
X188548721Y-97081688D01*
X190568991Y-95065984D01*
X190603686Y-95082614D01*
X190640468Y-95095005D01*
X190678684Y-95102049D01*
X190717619Y-95104527D01*
X190835790Y-95080788D01*
X190932376Y-95015376D01*
X190997853Y-94918791D01*
X191021918Y-94800619D01*
X190997853Y-94682056D01*
X190932376Y-94585471D01*
X190835790Y-94519994D01*
X190717619Y-94496320D01*
X190599055Y-94519994D01*
X190502470Y-94585471D01*
X190437058Y-94682056D01*
X190413319Y-94800619D01*
X190416515Y-94844836D01*
X190426428Y-94887618D01*
X190442341Y-94928704D01*
X190464645Y-94967573D01*
X188447832Y-96980864D01*
X188158793Y-96691760D01*
X189154776Y-95705690D01*
X189192667Y-95728647D01*
X189232253Y-95745668D01*
X189273665Y-95756298D01*
X189316512Y-95760863D01*
X189322838Y-95760863D01*
X189437163Y-95737125D01*
X189531270Y-95672756D01*
X189596029Y-95577214D01*
X189621138Y-95460086D01*
X189616507Y-95400348D01*
X189600986Y-95343349D01*
X189574769Y-95290263D01*
X189538704Y-95242851D01*
X189493770Y-95203590D01*
X189443162Y-95174243D01*
X189387924Y-95155461D01*
X189329230Y-95148026D01*
X189322512Y-95148026D01*
X189208580Y-95171765D01*
X189114472Y-95236133D01*
X189050039Y-95331349D01*
X189024604Y-95448086D01*
X189025974Y-95487738D01*
X189032691Y-95525954D01*
X189043713Y-95563062D01*
X189059626Y-95598475D01*
X188057578Y-96590545D01*
X187844255Y-96377222D01*
X187924537Y-96354918D01*
X187989688Y-96306463D01*
X188033513Y-96238181D01*
X188050534Y-96156074D01*
X188034948Y-96067249D01*
X187988970Y-95994011D01*
X187919580Y-95943469D01*
X187833625Y-95923643D01*
X187747670Y-95940599D01*
X187676911Y-95986968D01*
X187628064Y-96055967D01*
X187607520Y-96140878D01*
X186989075Y-95522368D01*
X187115725Y-95565541D01*
X187247331Y-95597431D01*
X187383177Y-95617192D01*
X187523000Y-95623909D01*
X187659889Y-95617583D01*
X187793256Y-95598801D01*
X187922776Y-95568410D01*
X188047339Y-95526998D01*
X188166554Y-95474629D01*
X188280161Y-95412348D01*
X188386985Y-95340871D01*
X188487157Y-95260198D01*
X188579504Y-95171048D01*
X188664024Y-95074071D01*
X188739740Y-94970051D01*
X188806652Y-94859314D01*
X188863259Y-94742577D01*
X188909954Y-94620492D01*
X188945302Y-94493125D01*
X188969758Y-94361518D01*
X189203232Y-94373192D01*
X189229775Y-94423408D01*
X189268383Y-94462016D01*
X189316512Y-94486733D01*
X189371294Y-94495277D01*
X189442119Y-94480733D01*
X189499770Y-94440756D01*
X189539030Y-94381344D01*
X189553182Y-94308758D01*
X189539030Y-94235912D01*
X189499770Y-94176108D01*
X189442119Y-94136131D01*
X189371294Y-94121261D01*
X189320034Y-94129022D01*
X189274383Y-94150609D01*
X189236166Y-94184586D01*
X189207862Y-94229912D01*
X188982149Y-94218238D01*
X188984953Y-94162282D01*
X188982149Y-94071045D01*
X188973605Y-93981177D01*
X188959845Y-93893070D01*
X188941062Y-93807050D01*
X188916998Y-93722855D01*
X188888368Y-93640748D01*
X188854781Y-93560793D01*
X188816891Y-93483316D01*
X188932584Y-93488599D01*
X188963366Y-93545924D01*
X189008692Y-93589814D01*
X189064582Y-93618118D01*
X189127907Y-93628357D01*
X189209297Y-93611401D01*
X189275817Y-93565749D01*
X189320751Y-93497859D01*
X189336990Y-93414709D01*
X189320751Y-93331166D01*
X189275817Y-93262885D01*
X189209297Y-93216908D01*
X189127907Y-93200277D01*
X189063473Y-93210516D01*
X189006866Y-93240255D01*
X188961279Y-93285515D01*
X188930432Y-93343949D01*
X188727740Y-93334688D01*
X188558243Y-93130887D01*
X188460223Y-93041411D01*
X188354768Y-92961064D01*
X188241553Y-92890305D01*
X188122338Y-92829784D01*
X187996731Y-92780285D01*
X187865842Y-92742394D01*
X185046217Y-89835771D01*
X185351560Y-89644687D01*
X185417754Y-89697447D01*
X188519309Y-92894544D01*
X189726201Y-92953630D01*
X189762983Y-93035737D01*
X189822069Y-93100105D01*
X189898176Y-93142235D01*
X189985175Y-93157430D01*
X190089586Y-93135844D01*
X190175215Y-93076432D01*
X190232866Y-92988651D01*
X190254127Y-92881109D01*
X190232866Y-92773894D01*
X190175215Y-92686178D01*
X190089586Y-92627092D01*
X189985175Y-92605505D01*
X189897133Y-92620374D01*
X189821025Y-92662113D01*
X189762657Y-92726481D01*
X189726201Y-92809306D01*
X188582308Y-92753024D01*
X186070504Y-90164135D01*
X186447715Y-90044528D01*
X188509396Y-92169600D01*
X188499157Y-92194708D01*
X188491722Y-92220208D01*
X188487157Y-92246359D01*
X188485723Y-92272511D01*
X188504114Y-92365966D01*
X188554330Y-92442725D01*
X188629003Y-92494051D01*
X188719914Y-92513159D01*
X188811217Y-92494051D01*
X188885498Y-92442725D01*
X188936106Y-92365966D01*
X188954497Y-92272511D01*
X188936106Y-92179121D01*
X188885498Y-92102688D01*
X188811217Y-92051428D01*
X188719914Y-92032320D01*
X188690567Y-92034406D01*
X188661937Y-92040080D01*
X188633633Y-92049993D01*
X188606699Y-92063428D01*
X186610429Y-90005985D01*
X186904815Y-89949377D01*
X186948380Y-89838640D01*
X188768044Y-91714586D01*
X188780826Y-91715303D01*
X189517835Y-91739368D01*
X189549269Y-91793824D01*
X189593877Y-91835953D01*
X189648398Y-91862822D01*
X189709571Y-91872409D01*
X189790243Y-91855779D01*
X189856047Y-91810128D01*
X189900654Y-91742498D01*
X189916893Y-91659739D01*
X189900654Y-91576914D01*
X189856047Y-91509024D01*
X189790243Y-91463373D01*
X189709571Y-91446743D01*
X189644094Y-91457308D01*
X189587160Y-91487764D01*
X189541509Y-91534850D01*
X189512161Y-91594979D01*
X188829999Y-91572675D01*
X187005314Y-89692165D01*
X187160659Y-89294737D01*
X188918758Y-91106705D01*
X188931541Y-91106705D01*
X190105173Y-91125487D01*
X190137716Y-91174661D01*
X190181215Y-91212160D01*
X190233257Y-91236225D01*
X190290909Y-91244703D01*
X190371581Y-91227747D01*
X190437710Y-91182095D01*
X190481992Y-91114466D01*
X190498622Y-91031706D01*
X190481992Y-90948882D01*
X190437710Y-90881318D01*
X190371581Y-90835666D01*
X190290909Y-90819036D01*
X190229018Y-90828623D01*
X190174171Y-90855818D01*
X190129564Y-90898339D01*
X190098455Y-90953512D01*
X188990953Y-90936491D01*
X187261483Y-89154000D01*
X188318704Y-89202847D01*
X188566395Y-90026854D01*
X188826086Y-90099375D01*
X189078734Y-90187808D01*
X189323947Y-90291176D01*
X189561008Y-90409348D01*
X190288104Y-89957138D01*
X191140089Y-90658409D01*
X190844986Y-91466895D01*
X190954680Y-91606653D01*
X191058700Y-91751694D01*
X191156328Y-91900713D01*
X191248348Y-92054232D01*
X192106007Y-92057036D01*
X192455567Y-93103692D01*
X191775883Y-93632270D01*
X191790752Y-93765311D01*
X191801708Y-93899396D01*
X191808426Y-94034589D01*
X191810904Y-94170826D01*
X191810578Y-94213934D01*
X191809534Y-94257107D01*
X191808100Y-94300280D01*
X191806339Y-94343779D01*
X192532000Y-94800945D01*
X192272635Y-95873753D01*
X191417128Y-95961142D01*
X191338608Y-96122096D01*
X191253631Y-96279202D01*
X191162393Y-96432069D01*
X191065091Y-96581023D01*
X191436563Y-97353444D01*
X190647576Y-98125083D01*
X189875546Y-97744742D01*
X189453793Y-97986759D01*
X189116951Y-97650244D01*
X190536448Y-96272876D01*
G36*
X185142085Y-97699808D02*
X184806678Y-97445399D01*
X185224584Y-97025407D01*
X185517861Y-97318749D01*
X185142085Y-97699808D01*
G37*
X185142085Y-97699808D02*
X184806678Y-97445399D01*
X185224584Y-97025407D01*
X185517861Y-97318749D01*
X185142085Y-97699808D01*
G36*
X185342038Y-98486707D02*
X185345886Y-97831414D01*
X185264170Y-97779763D01*
X185619403Y-97419965D01*
X186021005Y-97821893D01*
X185342038Y-98486707D01*
G37*
X185342038Y-98486707D02*
X185345886Y-97831414D01*
X185264170Y-97779763D01*
X185619403Y-97419965D01*
X186021005Y-97821893D01*
X185342038Y-98486707D01*
G36*
X188475810Y-97439399D02*
X187232136Y-96195334D01*
X186485540Y-96941930D01*
X187480870Y-97936869D01*
X187729605Y-97688134D01*
X186983401Y-96941930D01*
X187232136Y-96692804D01*
X187978340Y-97439399D01*
X187729605Y-97688134D01*
X187480870Y-97936869D01*
X186983401Y-98434339D01*
X187232136Y-98683399D01*
X188475810Y-97439399D01*
G37*
X188475810Y-97439399D02*
X187232136Y-96195334D01*
X186485540Y-96941930D01*
X187480870Y-97936869D01*
X187729605Y-97688134D01*
X186983401Y-96941930D01*
X187232136Y-96692804D01*
X187978340Y-97439399D01*
X187729605Y-97688134D01*
X187480870Y-97936869D01*
X186983401Y-98434339D01*
X187232136Y-98683399D01*
X188475810Y-97439399D01*
G36*
X186137024Y-95598084D02*
X186634885Y-96095553D01*
X186883620Y-95846818D01*
X185639555Y-94602818D01*
X185390820Y-94851879D01*
X185888289Y-95349349D01*
X184893350Y-96344353D01*
X185142085Y-96593414D01*
X186137024Y-95598084D01*
G37*
X186137024Y-95598084D02*
X186634885Y-96095553D01*
X186883620Y-95846818D01*
X185639555Y-94602818D01*
X185390820Y-94851879D01*
X185888289Y-95349349D01*
X184893350Y-96344353D01*
X185142085Y-96593414D01*
X186137024Y-95598084D01*
G36*
X185291430Y-94254629D02*
X185042304Y-94005894D01*
X184047365Y-95000833D01*
X183052100Y-94005894D01*
X182803365Y-94254629D01*
X184047365Y-95498694D01*
X185291430Y-94254629D01*
G37*
X185291430Y-94254629D02*
X185042304Y-94005894D01*
X184047365Y-95000833D01*
X183052100Y-94005894D01*
X182803365Y-94254629D01*
X184047365Y-95498694D01*
X185291430Y-94254629D01*
G04 #@! TD*
D12*
G04 #@! TO.C,3V3*
X195580000Y-82550000D03*
G04 #@! TD*
G04 #@! TO.C,D6*
X195580000Y-87630000D03*
G04 #@! TD*
G04 #@! TO.C,Gnd*
X195580000Y-92710000D03*
G04 #@! TD*
D13*
G04 #@! TO.C,D1*
X190754000Y-116840000D03*
D14*
X193294000Y-116840000D03*
G04 #@! TD*
D15*
G04 #@! TO.C,PR1*
X193040000Y-105410000D03*
D16*
X193040000Y-107950000D03*
G04 #@! TD*
D13*
G04 #@! TO.C,U1*
X178181000Y-117094000D03*
D14*
X180721000Y-117094000D03*
X183261000Y-117094000D03*
G04 #@! TD*
D13*
G04 #@! TO.C,D2*
X193294000Y-112268000D03*
D14*
X190754000Y-112268000D03*
G04 #@! TD*
D15*
G04 #@! TO.C,bme280*
X173990000Y-87185500D03*
D16*
X173990000Y-89725500D03*
X173990000Y-92265500D03*
X173990000Y-94805500D03*
G04 #@! TD*
D15*
G04 #@! TO.C,DHT22*
X179959000Y-103505000D03*
D16*
X182499000Y-103505000D03*
X185039000Y-103505000D03*
X187579000Y-103505000D03*
G04 #@! TD*
D15*
G04 #@! TO.C,J1*
X196659500Y-100266500D03*
D16*
X196659500Y-102806500D03*
X196659500Y-105346500D03*
X196659500Y-107886500D03*
X196659500Y-110426500D03*
X196659500Y-112966500D03*
X196659500Y-115506500D03*
X196659500Y-118046500D03*
G04 #@! TD*
D15*
G04 #@! TO.C,J2*
X173990000Y-118110000D03*
D16*
X173990000Y-115570000D03*
X173990000Y-113030000D03*
X173990000Y-110490000D03*
X173990000Y-107950000D03*
X173990000Y-105410000D03*
X173990000Y-102870000D03*
X173990000Y-100330000D03*
G04 #@! TD*
D12*
G04 #@! TO.C,screw*
X183896000Y-80264000D03*
G04 #@! TD*
M02*
