G04 #@! TF.GenerationSoftware,KiCad,Pcbnew,5.0.0*
G04 #@! TF.CreationDate,2018-07-28T19:03:07+02:00*
G04 #@! TF.ProjectId,PTL-IR_remote,50544C2D49525F72656D6F74652E6B69,v1.1*
G04 #@! TF.SameCoordinates,PXa4b7f80PY71d9820*
G04 #@! TF.FileFunction,Copper,L1,Top,Signal*
G04 #@! TF.FilePolarity,Positive*
%FSLAX46Y46*%
G04 Gerber Fmt 4.6, Leading zero omitted, Abs format (unit mm)*
G04 Created by KiCad (PCBNEW 5.0.0) date Sat Jul 28 19:03:07 2018*
%MOMM*%
%LPD*%
G01*
G04 APERTURE LIST*
G04 #@! TA.AperFunction,SMDPad,CuDef*
%ADD10R,0.700000X1.300000*%
G04 #@! TD*
G04 #@! TA.AperFunction,SMDPad,CuDef*
%ADD11R,1.000000X1.600000*%
G04 #@! TD*
G04 #@! TA.AperFunction,ComponentPad*
%ADD12C,4.000500*%
G04 #@! TD*
G04 #@! TA.AperFunction,SMDPad,CuDef*
%ADD13R,0.750000X1.200000*%
G04 #@! TD*
G04 #@! TA.AperFunction,SMDPad,CuDef*
%ADD14C,0.894426*%
G04 #@! TD*
G04 #@! TA.AperFunction,Conductor*
%ADD15C,0.100000*%
G04 #@! TD*
G04 #@! TA.AperFunction,SMDPad,CuDef*
%ADD16R,1.300000X0.700000*%
G04 #@! TD*
G04 #@! TA.AperFunction,ComponentPad*
%ADD17R,1.800000X1.800000*%
G04 #@! TD*
G04 #@! TA.AperFunction,ComponentPad*
%ADD18C,1.800000*%
G04 #@! TD*
G04 #@! TA.AperFunction,SMDPad,CuDef*
%ADD19R,0.900000X0.800000*%
G04 #@! TD*
G04 #@! TA.AperFunction,ComponentPad*
%ADD20R,1.700000X1.700000*%
G04 #@! TD*
G04 #@! TA.AperFunction,ComponentPad*
%ADD21O,1.700000X1.700000*%
G04 #@! TD*
G04 #@! TA.AperFunction,ViaPad*
%ADD22C,0.600000*%
G04 #@! TD*
G04 #@! TA.AperFunction,Conductor*
%ADD23C,0.300000*%
G04 #@! TD*
G04 #@! TA.AperFunction,Conductor*
%ADD24C,0.500000*%
G04 #@! TD*
G04 #@! TA.AperFunction,Conductor*
%ADD25C,0.400000*%
G04 #@! TD*
G04 APERTURE END LIST*
D10*
G04 #@! TO.P,D3,2*
G04 #@! TO.N,Net-(D3-Pad2)*
X11176000Y12700000D03*
G04 #@! TO.P,D3,1*
G04 #@! TO.N,+5V*
X13076000Y12700000D03*
G04 #@! TD*
D11*
G04 #@! TO.P,D4,1*
G04 #@! TO.N,Net-(D3-Pad2)*
X8966000Y11898000D03*
G04 #@! TO.P,D4,2*
G04 #@! TO.N,Net-(D4-Pad2)*
X7366000Y11898000D03*
G04 #@! TO.P,D4,3*
G04 #@! TO.N,Net-(D4-Pad3)*
X5766000Y11898000D03*
G04 #@! TO.P,D4,6*
G04 #@! TO.N,Net-(D4-Pad6)*
X8966000Y6898000D03*
G04 #@! TO.P,D4,5*
G04 #@! TO.N,GND*
X7366000Y6898000D03*
G04 #@! TO.P,D4,4*
G04 #@! TO.N,/RX*
X5766000Y6898000D03*
G04 #@! TD*
D12*
G04 #@! TO.P,3V3,1*
G04 #@! TO.N,+3V3*
X22860000Y36830000D03*
G04 #@! TD*
G04 #@! TO.P,D6,1*
G04 #@! TO.N,Net-(J5-Pad1)*
X22860000Y31750000D03*
G04 #@! TD*
G04 #@! TO.P,Gnd,1*
G04 #@! TO.N,GND*
X22860000Y26670000D03*
G04 #@! TD*
D13*
G04 #@! TO.P,C1,2*
G04 #@! TO.N,GND*
X12192000Y6284000D03*
G04 #@! TO.P,C1,1*
G04 #@! TO.N,Net-(C1-Pad1)*
X12192000Y4384000D03*
G04 #@! TD*
D14*
G04 #@! TO.P,JP1,2*
G04 #@! TO.N,/D6*
X20701000Y21463000D03*
D15*
G04 #@! TD*
G04 #@! TO.N,/D6*
G04 #@! TO.C,JP1*
G36*
X19951000Y21963000D02*
X21451000Y21963000D01*
X20951000Y20963000D01*
X20451000Y20963000D01*
X19951000Y21963000D01*
X19951000Y21963000D01*
G37*
D14*
G04 #@! TO.P,JP1,1*
G04 #@! TO.N,Net-(J5-Pad1)*
X20701000Y22963000D03*
D15*
G04 #@! TD*
G04 #@! TO.N,Net-(J5-Pad1)*
G04 #@! TO.C,JP1*
G36*
X20451000Y23463000D02*
X20951000Y23463000D01*
X21451000Y22463000D01*
X19951000Y22463000D01*
X20451000Y23463000D01*
X20451000Y23463000D01*
G37*
D16*
G04 #@! TO.P,R5,1*
G04 #@! TO.N,Net-(J5-Pad1)*
X19304000Y33274000D03*
G04 #@! TO.P,R5,2*
G04 #@! TO.N,+3V3*
X19304000Y35174000D03*
G04 #@! TD*
D10*
G04 #@! TO.P,R4,2*
G04 #@! TO.N,Net-(C1-Pad1)*
X13782000Y1651000D03*
G04 #@! TO.P,R4,1*
G04 #@! TO.N,+3V3*
X15682000Y1651000D03*
G04 #@! TD*
G04 #@! TO.P,R1,1*
G04 #@! TO.N,/ADC*
X17140000Y12700000D03*
G04 #@! TO.P,R1,2*
G04 #@! TO.N,GND*
X15240000Y12700000D03*
G04 #@! TD*
G04 #@! TO.P,R2,2*
G04 #@! TO.N,Net-(Q1-Pad3)*
X13782000Y4826000D03*
G04 #@! TO.P,R2,1*
G04 #@! TO.N,Net-(D1-Pad1)*
X15682000Y4826000D03*
G04 #@! TD*
D17*
G04 #@! TO.P,D1,1*
G04 #@! TO.N,Net-(D1-Pad1)*
X18034000Y2540000D03*
D18*
G04 #@! TO.P,D1,2*
G04 #@! TO.N,Net-(D1-Pad2)*
X20574000Y2540000D03*
G04 #@! TD*
D19*
G04 #@! TO.P,Q1,1*
G04 #@! TO.N,Net-(J2-Pad5)*
X13478000Y10348000D03*
G04 #@! TO.P,Q1,2*
G04 #@! TO.N,GND*
X13478000Y8448000D03*
G04 #@! TO.P,Q1,3*
G04 #@! TO.N,Net-(Q1-Pad3)*
X15478000Y9398000D03*
G04 #@! TD*
D20*
G04 #@! TO.P,PR1,1*
G04 #@! TO.N,+3V3*
X20320000Y13970000D03*
D21*
G04 #@! TO.P,PR1,2*
G04 #@! TO.N,/ADC*
X20320000Y11430000D03*
G04 #@! TD*
D17*
G04 #@! TO.P,U1,1*
G04 #@! TO.N,/D5*
X5461000Y2286000D03*
D18*
G04 #@! TO.P,U1,2*
G04 #@! TO.N,GND*
X8001000Y2286000D03*
G04 #@! TO.P,U1,3*
G04 #@! TO.N,Net-(C1-Pad1)*
X10541000Y2286000D03*
G04 #@! TD*
D17*
G04 #@! TO.P,D2,1*
G04 #@! TO.N,Net-(D1-Pad2)*
X20574000Y7112000D03*
D18*
G04 #@! TO.P,D2,2*
G04 #@! TO.N,+5V*
X18034000Y7112000D03*
G04 #@! TD*
D20*
G04 #@! TO.P,bme280,1*
G04 #@! TO.N,/SDA*
X1270000Y32194500D03*
D21*
G04 #@! TO.P,bme280,2*
G04 #@! TO.N,/SCL*
X1270000Y29654500D03*
G04 #@! TO.P,bme280,3*
G04 #@! TO.N,GND*
X1270000Y27114500D03*
G04 #@! TO.P,bme280,4*
G04 #@! TO.N,+3V3*
X1270000Y24574500D03*
G04 #@! TD*
D20*
G04 #@! TO.P,DHT22,1*
G04 #@! TO.N,+3V3*
X7239000Y15875000D03*
D21*
G04 #@! TO.P,DHT22,2*
G04 #@! TO.N,/D4*
X9779000Y15875000D03*
G04 #@! TO.P,DHT22,3*
G04 #@! TO.N,Net-(DHT22-Pad3)*
X12319000Y15875000D03*
G04 #@! TO.P,DHT22,4*
G04 #@! TO.N,GND*
X14859000Y15875000D03*
G04 #@! TD*
D20*
G04 #@! TO.P,J1,1*
G04 #@! TO.N,+3V3*
X23939500Y19113500D03*
D21*
G04 #@! TO.P,J1,2*
G04 #@! TO.N,Net-(J1-Pad2)*
X23939500Y16573500D03*
G04 #@! TO.P,J1,3*
G04 #@! TO.N,Net-(J1-Pad3)*
X23939500Y14033500D03*
G04 #@! TO.P,J1,4*
G04 #@! TO.N,/D6*
X23939500Y11493500D03*
G04 #@! TO.P,J1,5*
G04 #@! TO.N,/D5*
X23939500Y8953500D03*
G04 #@! TO.P,J1,6*
G04 #@! TO.N,Net-(J1-Pad6)*
X23939500Y6413500D03*
G04 #@! TO.P,J1,7*
G04 #@! TO.N,/ADC*
X23939500Y3873500D03*
G04 #@! TO.P,J1,8*
G04 #@! TO.N,Net-(J1-Pad8)*
X23939500Y1333500D03*
G04 #@! TD*
D20*
G04 #@! TO.P,J2,1*
G04 #@! TO.N,Net-(J2-Pad1)*
X1270000Y1270000D03*
D21*
G04 #@! TO.P,J2,2*
G04 #@! TO.N,/RX*
X1270000Y3810000D03*
G04 #@! TO.P,J2,3*
G04 #@! TO.N,/SCL*
X1270000Y6350000D03*
G04 #@! TO.P,J2,4*
G04 #@! TO.N,/SDA*
X1270000Y8890000D03*
G04 #@! TO.P,J2,5*
G04 #@! TO.N,Net-(J2-Pad5)*
X1270000Y11430000D03*
G04 #@! TO.P,J2,6*
G04 #@! TO.N,/D4*
X1270000Y13970000D03*
G04 #@! TO.P,J2,7*
G04 #@! TO.N,GND*
X1270000Y16510000D03*
G04 #@! TO.P,J2,8*
G04 #@! TO.N,+5V*
X1270000Y19050000D03*
G04 #@! TD*
D12*
G04 #@! TO.P,screw,1*
G04 #@! TO.N,N/C*
X11176000Y39116000D03*
G04 #@! TD*
D22*
G04 #@! TO.N,+3V3*
X4841000Y20066000D03*
G04 #@! TO.N,GND*
X16764000Y20574000D03*
G04 #@! TO.N,+5V*
X17018000Y14224000D03*
G04 #@! TO.N,/SDA*
X3825000Y10287000D03*
G04 #@! TO.N,/D6*
X21336000Y19431000D03*
G04 #@! TO.N,Net-(J2-Pad5)*
X11938000Y9906000D03*
G04 #@! TD*
D23*
G04 #@! TO.N,/ADC*
X19117919Y11430000D02*
X20320000Y11430000D01*
X17460000Y11430000D02*
X19117919Y11430000D01*
X17140000Y11750000D02*
X17460000Y11430000D01*
X17140000Y12700000D02*
X17140000Y11750000D01*
G04 #@! TO.N,/D5*
X5461000Y1086000D02*
X6039000Y508000D01*
X5461000Y2286000D02*
X5461000Y1086000D01*
X6039000Y508000D02*
X21590000Y508000D01*
X22739499Y7753499D02*
X23089501Y8103501D01*
X22739499Y1657499D02*
X22739499Y7753499D01*
X23089501Y8103501D02*
X23939500Y8953500D01*
X21590000Y508000D02*
X22739499Y1657499D01*
D24*
G04 #@! TO.N,+3V3*
X22589500Y19113500D02*
X23939500Y19113500D01*
X20320000Y16844000D02*
X22589500Y19113500D01*
X20320000Y13970000D02*
X20320000Y16844000D01*
X7239000Y17225000D02*
X12112000Y22098000D01*
X7239000Y15875000D02*
X7239000Y17225000D01*
X12112000Y22098000D02*
X16669998Y22098000D01*
X20320000Y18447998D02*
X20320000Y16844000D01*
X4841000Y20066000D02*
X5588000Y20066000D01*
X5588000Y18876000D02*
X7239000Y17225000D01*
X5588000Y20066000D02*
X5588000Y18876000D01*
D23*
X15682000Y2032000D02*
X15682000Y1732000D01*
D24*
X22098000Y11811000D02*
X22098000Y1905000D01*
X16143001Y1189999D02*
X15682000Y1651000D01*
X21336000Y1143000D02*
X16143001Y1189999D01*
X22098000Y1905000D02*
X21336000Y1143000D01*
X20320000Y13970000D02*
X20320000Y13354002D01*
X20320000Y13354002D02*
X22098000Y11811000D01*
X17812998Y20955000D02*
X20320000Y18447998D01*
X16669998Y22098000D02*
X17812998Y20955000D01*
X18161000Y36830000D02*
X22860000Y36830000D01*
X17812998Y36481998D02*
X18161000Y36830000D01*
X17812998Y34832998D02*
X17812998Y34417000D01*
X18154000Y35174000D02*
X17812998Y34832998D01*
X19304000Y35174000D02*
X18154000Y35174000D01*
X17812998Y20955000D02*
X17812998Y34417000D01*
X17812998Y34417000D02*
X17812998Y36481998D01*
D25*
G04 #@! TO.N,Net-(C1-Pad1)*
X10541000Y2286000D02*
X10541000Y2476500D01*
D24*
X13147000Y2286000D02*
X13782000Y1651000D01*
X12192000Y3284000D02*
X12192000Y2286000D01*
X10541000Y2286000D02*
X12192000Y2286000D01*
X12192000Y4384000D02*
X12192000Y3284000D01*
X12192000Y2286000D02*
X13147000Y2286000D01*
G04 #@! TO.N,GND*
X13478000Y8448000D02*
X13274000Y8448000D01*
X12192000Y6509000D02*
X12192000Y6284000D01*
X13274000Y7591000D02*
X12192000Y6509000D01*
X13274000Y8448000D02*
X13274000Y7591000D01*
X7366000Y2921000D02*
X8001000Y2286000D01*
X11317000Y6284000D02*
X10414000Y5381000D01*
X12192000Y6284000D02*
X11317000Y6284000D01*
X7921000Y5381000D02*
X7366000Y4826000D01*
X10414000Y5381000D02*
X7921000Y5381000D01*
X7366000Y6898000D02*
X7366000Y4826000D01*
X7366000Y4826000D02*
X7366000Y2921000D01*
X10922000Y6679000D02*
X11317000Y6284000D01*
X10922000Y10160000D02*
X10922000Y6679000D01*
X14859000Y17077081D02*
X14859000Y15875000D01*
X16339736Y20574000D02*
X14859000Y19093264D01*
X14859000Y19093264D02*
X14859000Y17077081D01*
X16764000Y20574000D02*
X16339736Y20574000D01*
X14859000Y15875000D02*
X13208000Y14224000D01*
X12700000Y14224000D02*
X12065000Y13589000D01*
X13208000Y14224000D02*
X12700000Y14224000D01*
X12065000Y11303000D02*
X10922000Y10160000D01*
X12065000Y13589000D02*
X12065000Y11303000D01*
X14143000Y11303000D02*
X15240000Y12400000D01*
X15240000Y12400000D02*
X15240000Y12700000D01*
X12065000Y11303000D02*
X14143000Y11303000D01*
G04 #@! TO.N,+5V*
X13396000Y12700000D02*
X14920000Y14224000D01*
X14920000Y14224000D02*
X17018000Y14224000D01*
G04 #@! TO.N,Net-(D1-Pad2)*
X20574000Y2540000D02*
X20574000Y7112000D01*
D23*
G04 #@! TO.N,/SDA*
X2420000Y32194500D02*
X3810000Y30804500D01*
X1270000Y32194500D02*
X2420000Y32194500D01*
X3810000Y30804500D02*
X3810000Y10302000D01*
X3810000Y10302000D02*
X3825000Y10287000D01*
G04 #@! TO.N,/SCL*
X1270000Y6350000D02*
X1651000Y6350000D01*
X1270000Y29654500D02*
X1841500Y29654500D01*
X2119999Y28804501D02*
X2691499Y28804501D01*
X1270000Y29654500D02*
X2119999Y28804501D01*
X2691499Y28804501D02*
X3175000Y28321000D01*
X3175000Y8255000D02*
X1270000Y6350000D01*
X3175000Y28321000D02*
X3175000Y8255000D01*
D24*
G04 #@! TO.N,Net-(Q1-Pad3)*
X15478000Y9398000D02*
X15478000Y7604000D01*
X15478000Y7604000D02*
X14605000Y6731000D01*
X13782000Y5976000D02*
X13782000Y4826000D01*
X14537000Y6731000D02*
X13782000Y5976000D01*
X14605000Y6731000D02*
X14537000Y6731000D01*
D23*
G04 #@! TO.N,/D6*
X20701000Y21463000D02*
X20701000Y20066000D01*
X20701000Y20066000D02*
X21336000Y19431000D01*
D24*
G04 #@! TO.N,Net-(D1-Pad1)*
X15616000Y5334000D02*
X15616000Y4958000D01*
X18034000Y3940000D02*
X18034000Y2540000D01*
X17148000Y4826000D02*
X18034000Y3940000D01*
X15682000Y4826000D02*
X17148000Y4826000D01*
G04 #@! TO.N,Net-(J2-Pad5)*
X11938000Y9906000D02*
X12446000Y10414000D01*
X12512000Y10348000D02*
X13478000Y10348000D01*
X12446000Y10414000D02*
X12512000Y10348000D01*
D23*
G04 #@! TO.N,/RX*
X2978000Y3810000D02*
X5766000Y6598000D01*
X5766000Y6598000D02*
X5766000Y6898000D01*
X1270000Y3810000D02*
X2978000Y3810000D01*
G04 #@! TO.N,Net-(J5-Pad1)*
X19304000Y24360000D02*
X20701000Y22963000D01*
X19304000Y33274000D02*
X19304000Y24360000D01*
X21336000Y33274000D02*
X22860000Y31750000D01*
X19304000Y33274000D02*
X21336000Y33274000D01*
D24*
G04 #@! TO.N,Net-(D3-Pad2)*
X10374000Y11898000D02*
X11176000Y12700000D01*
X8966000Y11898000D02*
X10374000Y11898000D01*
G04 #@! TD*
M02*
