G04 #@! TF.GenerationSoftware,KiCad,Pcbnew,5.0.0*
G04 #@! TF.CreationDate,2018-07-28T19:03:07+02:00*
G04 #@! TF.ProjectId,PTL-IR_remote,50544C2D49525F72656D6F74652E6B69,v1.1*
G04 #@! TF.SameCoordinates,PXa4b7f80PY71d9820*
G04 #@! TF.FileFunction,Legend,Bot*
G04 #@! TF.FilePolarity,Positive*
%FSLAX46Y46*%
G04 Gerber Fmt 4.6, Leading zero omitted, Abs format (unit mm)*
G04 Created by KiCad (PCBNEW 5.0.0) date Sat Jul 28 19:03:07 2018*
%MOMM*%
%LPD*%
G01*
G04 APERTURE LIST*
%ADD10C,0.150000*%
%ADD11C,0.120000*%
%ADD12C,0.002540*%
G04 APERTURE END LIST*
D10*
X3103619Y13231905D02*
X4103619Y13231905D01*
X4103619Y13470000D01*
X4056000Y13612858D01*
X3960761Y13708096D01*
X3865523Y13755715D01*
X3675047Y13803334D01*
X3532190Y13803334D01*
X3341714Y13755715D01*
X3246476Y13708096D01*
X3151238Y13612858D01*
X3103619Y13470000D01*
X3103619Y13231905D01*
X3770285Y14660477D02*
X3103619Y14660477D01*
X4151238Y14422381D02*
X3436952Y14184286D01*
X3436952Y14803334D01*
X21423333Y3095715D02*
X21423333Y3571905D01*
X21137619Y3000477D02*
X22137619Y3333810D01*
X21137619Y3667143D01*
X22137619Y4190953D02*
X22137619Y4286191D01*
X22090000Y4381429D01*
X22042380Y4429048D01*
X21947142Y4476667D01*
X21756666Y4524286D01*
X21518571Y4524286D01*
X21328095Y4476667D01*
X21232857Y4429048D01*
X21185238Y4381429D01*
X21137619Y4286191D01*
X21137619Y4190953D01*
X21185238Y4095715D01*
X21232857Y4048096D01*
X21328095Y4000477D01*
X21518571Y3952858D01*
X21756666Y3952858D01*
X21947142Y4000477D01*
X22042380Y4048096D01*
X22090000Y4095715D01*
X22137619Y4190953D01*
X22574095Y19597620D02*
X21955047Y19597620D01*
X22288380Y19216667D01*
X22145523Y19216667D01*
X22050285Y19169048D01*
X22002666Y19121429D01*
X21955047Y19026191D01*
X21955047Y18788096D01*
X22002666Y18692858D01*
X22050285Y18645239D01*
X22145523Y18597620D01*
X22431238Y18597620D01*
X22526476Y18645239D01*
X22574095Y18692858D01*
X21669333Y19597620D02*
X21336000Y18597620D01*
X21002666Y19597620D01*
X20764571Y19597620D02*
X20145523Y19597620D01*
X20478857Y19216667D01*
X20336000Y19216667D01*
X20240761Y19169048D01*
X20193142Y19121429D01*
X20145523Y19026191D01*
X20145523Y18788096D01*
X20193142Y18692858D01*
X20240761Y18645239D01*
X20336000Y18597620D01*
X20621714Y18597620D01*
X20716952Y18645239D01*
X20764571Y18692858D01*
X4103619Y18605524D02*
X4103619Y18129334D01*
X3627428Y18081715D01*
X3675047Y18129334D01*
X3722666Y18224572D01*
X3722666Y18462667D01*
X3675047Y18557905D01*
X3627428Y18605524D01*
X3532190Y18653143D01*
X3294095Y18653143D01*
X3198857Y18605524D01*
X3151238Y18557905D01*
X3103619Y18462667D01*
X3103619Y18224572D01*
X3151238Y18129334D01*
X3198857Y18081715D01*
X4103619Y18938858D02*
X3103619Y19272191D01*
X4103619Y19605524D01*
X4056000Y16771905D02*
X4103619Y16676667D01*
X4103619Y16533810D01*
X4056000Y16390953D01*
X3960761Y16295715D01*
X3865523Y16248096D01*
X3675047Y16200477D01*
X3532190Y16200477D01*
X3341714Y16248096D01*
X3246476Y16295715D01*
X3151238Y16390953D01*
X3103619Y16533810D01*
X3103619Y16629048D01*
X3151238Y16771905D01*
X3198857Y16819524D01*
X3532190Y16819524D01*
X3532190Y16629048D01*
D11*
G04 #@! TO.C,D2*
X17631665Y8190608D02*
G75*
G02X20864000Y8347516I1672335J-1078608D01*
G01*
X17631665Y6033392D02*
G75*
G03X20864000Y5876484I1672335J1078608D01*
G01*
X18262870Y8191837D02*
G75*
G02X20344961Y8192000I1041130J-1079837D01*
G01*
X18262870Y6032163D02*
G75*
G03X20344961Y6032000I1041130J1079837D01*
G01*
X20864000Y8348000D02*
X20864000Y8192000D01*
X20864000Y6032000D02*
X20864000Y5876000D01*
G04 #@! TO.C,J1*
X25269500Y17843500D02*
X25269500Y3500D01*
X25269500Y3500D02*
X22609500Y3500D01*
X22609500Y3500D02*
X22609500Y17843500D01*
X22609500Y17843500D02*
X25269500Y17843500D01*
X25269500Y19113500D02*
X25269500Y20443500D01*
X25269500Y20443500D02*
X23939500Y20443500D01*
G04 #@! TO.C,J2*
X-60000Y2540000D02*
X-60000Y20380000D01*
X-60000Y20380000D02*
X2600000Y20380000D01*
X2600000Y20380000D02*
X2600000Y2540000D01*
X2600000Y2540000D02*
X-60000Y2540000D01*
X-60000Y1270000D02*
X-60000Y-60000D01*
X-60000Y-60000D02*
X1270000Y-60000D01*
D12*
G04 #@! TO.C,G\002A\002A\002A*
G36*
X5984240Y7249160D02*
X5991860Y7127240D01*
X6017260Y7007860D01*
X6057900Y6896100D01*
X6085840Y6852920D01*
X6123940Y6802120D01*
X6164580Y6753860D01*
X6169660Y6748780D01*
X6266180Y6670040D01*
X6375400Y6611620D01*
X6492240Y6581140D01*
X6616700Y6568440D01*
X6743700Y6578600D01*
X6751320Y6581140D01*
X6858000Y6611620D01*
X6954520Y6667500D01*
X7033260Y6741160D01*
X7099300Y6835140D01*
X7147560Y6946900D01*
X7165340Y7015480D01*
X7175500Y7051040D01*
X7015480Y7051040D01*
X6855460Y7051040D01*
X6847840Y6997700D01*
X6830060Y6944360D01*
X6797040Y6896100D01*
X6756400Y6860540D01*
X6751320Y6858000D01*
X6723380Y6847840D01*
X6682740Y6837680D01*
X6652260Y6832600D01*
X6565900Y6827520D01*
X6489700Y6847840D01*
X6423660Y6888480D01*
X6370320Y6951980D01*
X6332220Y7035800D01*
X6306820Y7139940D01*
X6299200Y7231380D01*
X6304280Y7325360D01*
X6319520Y7414260D01*
X6347460Y7490460D01*
X6350000Y7498080D01*
X6393180Y7556500D01*
X6451600Y7602220D01*
X6512560Y7625080D01*
X6591300Y7635240D01*
X6670040Y7625080D01*
X6738620Y7597140D01*
X6794500Y7553960D01*
X6827520Y7505700D01*
X6847840Y7462520D01*
X6852920Y7437120D01*
X6842760Y7424420D01*
X6817360Y7419340D01*
X6807200Y7419340D01*
X6758940Y7419340D01*
X6883400Y7294880D01*
X7007860Y7170420D01*
X7132320Y7294880D01*
X7256780Y7419340D01*
X7211060Y7419340D01*
X7172960Y7426960D01*
X7152640Y7447280D01*
X7147560Y7482840D01*
X7142480Y7513320D01*
X7122160Y7559040D01*
X7094220Y7612380D01*
X7063740Y7665720D01*
X7030720Y7711440D01*
X7002780Y7744460D01*
X6918960Y7810500D01*
X6822440Y7858760D01*
X6715760Y7886700D01*
X6601460Y7894320D01*
X6484620Y7884160D01*
X6370320Y7851140D01*
X6304280Y7820660D01*
X6212840Y7762240D01*
X6136640Y7683500D01*
X6073140Y7589520D01*
X6027420Y7482840D01*
X5996940Y7368540D01*
X5984240Y7249160D01*
X5984240Y7249160D01*
G37*
X5984240Y7249160D02*
X5991860Y7127240D01*
X6017260Y7007860D01*
X6057900Y6896100D01*
X6085840Y6852920D01*
X6123940Y6802120D01*
X6164580Y6753860D01*
X6169660Y6748780D01*
X6266180Y6670040D01*
X6375400Y6611620D01*
X6492240Y6581140D01*
X6616700Y6568440D01*
X6743700Y6578600D01*
X6751320Y6581140D01*
X6858000Y6611620D01*
X6954520Y6667500D01*
X7033260Y6741160D01*
X7099300Y6835140D01*
X7147560Y6946900D01*
X7165340Y7015480D01*
X7175500Y7051040D01*
X7015480Y7051040D01*
X6855460Y7051040D01*
X6847840Y6997700D01*
X6830060Y6944360D01*
X6797040Y6896100D01*
X6756400Y6860540D01*
X6751320Y6858000D01*
X6723380Y6847840D01*
X6682740Y6837680D01*
X6652260Y6832600D01*
X6565900Y6827520D01*
X6489700Y6847840D01*
X6423660Y6888480D01*
X6370320Y6951980D01*
X6332220Y7035800D01*
X6306820Y7139940D01*
X6299200Y7231380D01*
X6304280Y7325360D01*
X6319520Y7414260D01*
X6347460Y7490460D01*
X6350000Y7498080D01*
X6393180Y7556500D01*
X6451600Y7602220D01*
X6512560Y7625080D01*
X6591300Y7635240D01*
X6670040Y7625080D01*
X6738620Y7597140D01*
X6794500Y7553960D01*
X6827520Y7505700D01*
X6847840Y7462520D01*
X6852920Y7437120D01*
X6842760Y7424420D01*
X6817360Y7419340D01*
X6807200Y7419340D01*
X6758940Y7419340D01*
X6883400Y7294880D01*
X7007860Y7170420D01*
X7132320Y7294880D01*
X7256780Y7419340D01*
X7211060Y7419340D01*
X7172960Y7426960D01*
X7152640Y7447280D01*
X7147560Y7482840D01*
X7142480Y7513320D01*
X7122160Y7559040D01*
X7094220Y7612380D01*
X7063740Y7665720D01*
X7030720Y7711440D01*
X7002780Y7744460D01*
X6918960Y7810500D01*
X6822440Y7858760D01*
X6715760Y7886700D01*
X6601460Y7894320D01*
X6484620Y7884160D01*
X6370320Y7851140D01*
X6304280Y7820660D01*
X6212840Y7762240D01*
X6136640Y7683500D01*
X6073140Y7589520D01*
X6027420Y7482840D01*
X5996940Y7368540D01*
X5984240Y7249160D01*
G36*
X9222740Y7853680D02*
X9232900Y7802880D01*
X9260840Y7757160D01*
X9301480Y7719060D01*
X9359900Y7696200D01*
X9364980Y7696200D01*
X9400540Y7696200D01*
X9443720Y7703820D01*
X9453880Y7708900D01*
X9486900Y7719060D01*
X9504680Y7726680D01*
X9507220Y7726680D01*
X9514840Y7736840D01*
X9530080Y7759700D01*
X9535160Y7769860D01*
X9560560Y7830820D01*
X9563100Y7891780D01*
X9545320Y7945120D01*
X9509760Y7990840D01*
X9458960Y8023860D01*
X9398000Y8036560D01*
X9387840Y8036560D01*
X9326880Y8026400D01*
X9278620Y7995920D01*
X9245600Y7955280D01*
X9227820Y7907020D01*
X9222740Y7853680D01*
X9222740Y7853680D01*
G37*
X9222740Y7853680D02*
X9232900Y7802880D01*
X9260840Y7757160D01*
X9301480Y7719060D01*
X9359900Y7696200D01*
X9364980Y7696200D01*
X9400540Y7696200D01*
X9443720Y7703820D01*
X9453880Y7708900D01*
X9486900Y7719060D01*
X9504680Y7726680D01*
X9507220Y7726680D01*
X9514840Y7736840D01*
X9530080Y7759700D01*
X9535160Y7769860D01*
X9560560Y7830820D01*
X9563100Y7891780D01*
X9545320Y7945120D01*
X9509760Y7990840D01*
X9458960Y8023860D01*
X9398000Y8036560D01*
X9387840Y8036560D01*
X9326880Y8026400D01*
X9278620Y7995920D01*
X9245600Y7955280D01*
X9227820Y7907020D01*
X9222740Y7853680D01*
G36*
X9060180Y7510780D02*
X9062720Y7470140D01*
X9062720Y7414260D01*
X9062720Y7345680D01*
X9062720Y7279640D01*
X9065260Y7051040D01*
X9131300Y7045960D01*
X9197340Y7043420D01*
X9202420Y6746240D01*
X9204960Y6451600D01*
X9395460Y6451600D01*
X9588500Y6451600D01*
X9588500Y6751320D01*
X9588500Y7051040D01*
X9641840Y7048500D01*
X9679940Y7048500D01*
X9707880Y7048500D01*
X9712960Y7048500D01*
X9718040Y7056120D01*
X9723120Y7076440D01*
X9725660Y7112000D01*
X9728200Y7167880D01*
X9728200Y7244080D01*
X9728200Y7310120D01*
X9728200Y7399020D01*
X9728200Y7470140D01*
X9725660Y7520940D01*
X9720580Y7553960D01*
X9718040Y7579360D01*
X9710420Y7594600D01*
X9707880Y7597140D01*
X9700260Y7604760D01*
X9692640Y7612380D01*
X9677400Y7617460D01*
X9654540Y7620000D01*
X9621520Y7622540D01*
X9570720Y7625080D01*
X9502140Y7625080D01*
X9410700Y7625080D01*
X9395460Y7625080D01*
X9296400Y7625080D01*
X9217660Y7622540D01*
X9159240Y7620000D01*
X9116060Y7614920D01*
X9088120Y7607300D01*
X9072880Y7594600D01*
X9065260Y7576820D01*
X9062720Y7553960D01*
X9060180Y7528560D01*
X9060180Y7510780D01*
X9060180Y7510780D01*
G37*
X9060180Y7510780D02*
X9062720Y7470140D01*
X9062720Y7414260D01*
X9062720Y7345680D01*
X9062720Y7279640D01*
X9065260Y7051040D01*
X9131300Y7045960D01*
X9197340Y7043420D01*
X9202420Y6746240D01*
X9204960Y6451600D01*
X9395460Y6451600D01*
X9588500Y6451600D01*
X9588500Y6751320D01*
X9588500Y7051040D01*
X9641840Y7048500D01*
X9679940Y7048500D01*
X9707880Y7048500D01*
X9712960Y7048500D01*
X9718040Y7056120D01*
X9723120Y7076440D01*
X9725660Y7112000D01*
X9728200Y7167880D01*
X9728200Y7244080D01*
X9728200Y7310120D01*
X9728200Y7399020D01*
X9728200Y7470140D01*
X9725660Y7520940D01*
X9720580Y7553960D01*
X9718040Y7579360D01*
X9710420Y7594600D01*
X9707880Y7597140D01*
X9700260Y7604760D01*
X9692640Y7612380D01*
X9677400Y7617460D01*
X9654540Y7620000D01*
X9621520Y7622540D01*
X9570720Y7625080D01*
X9502140Y7625080D01*
X9410700Y7625080D01*
X9395460Y7625080D01*
X9296400Y7625080D01*
X9217660Y7622540D01*
X9159240Y7620000D01*
X9116060Y7614920D01*
X9088120Y7607300D01*
X9072880Y7594600D01*
X9065260Y7576820D01*
X9062720Y7553960D01*
X9060180Y7528560D01*
X9060180Y7510780D01*
G36*
X11739880Y6502400D02*
X11739880Y6487160D01*
X11755120Y6459220D01*
X11770360Y6436360D01*
X11844020Y6355080D01*
X11925300Y6299200D01*
X12016740Y6261100D01*
X12120880Y6245860D01*
X12237720Y6248400D01*
X12334240Y6266180D01*
X12418060Y6301740D01*
X12494260Y6355080D01*
X12506960Y6367780D01*
X12573000Y6446520D01*
X12621260Y6537960D01*
X12649200Y6644640D01*
X12651740Y6664960D01*
X12656820Y6784340D01*
X12644120Y6893560D01*
X12611100Y6997700D01*
X12560300Y7086600D01*
X12494260Y7160260D01*
X12412980Y7218680D01*
X12364720Y7241540D01*
X12265660Y7264400D01*
X12158980Y7272020D01*
X12052300Y7261860D01*
X11953240Y7233920D01*
X11940540Y7228840D01*
X11894820Y7203440D01*
X11844020Y7165340D01*
X11798300Y7122160D01*
X11762740Y7081520D01*
X11750040Y7063740D01*
X11742420Y7045960D01*
X11742420Y7033260D01*
X11755120Y7023100D01*
X11780520Y7007860D01*
X11823700Y6985000D01*
X11841480Y6974840D01*
X11948160Y6921500D01*
X12009120Y6985000D01*
X12044680Y7020560D01*
X12067540Y7038340D01*
X12092940Y7048500D01*
X12125960Y7051040D01*
X12141200Y7051040D01*
X12212320Y7040880D01*
X12268200Y7012940D01*
X12311380Y6962140D01*
X12331700Y6929120D01*
X12352020Y6863080D01*
X12362180Y6784340D01*
X12362180Y6700520D01*
X12346940Y6624320D01*
X12334240Y6588760D01*
X12296140Y6530340D01*
X12245340Y6489700D01*
X12184380Y6469380D01*
X12118340Y6466840D01*
X12054840Y6487160D01*
X11998960Y6527800D01*
X11971020Y6558280D01*
X11950700Y6583680D01*
X11945620Y6593840D01*
X11938000Y6598920D01*
X11920220Y6598920D01*
X11889740Y6586220D01*
X11844020Y6560820D01*
X11800840Y6537960D01*
X11762740Y6517640D01*
X11742420Y6504940D01*
X11739880Y6502400D01*
X11739880Y6502400D01*
G37*
X11739880Y6502400D02*
X11739880Y6487160D01*
X11755120Y6459220D01*
X11770360Y6436360D01*
X11844020Y6355080D01*
X11925300Y6299200D01*
X12016740Y6261100D01*
X12120880Y6245860D01*
X12237720Y6248400D01*
X12334240Y6266180D01*
X12418060Y6301740D01*
X12494260Y6355080D01*
X12506960Y6367780D01*
X12573000Y6446520D01*
X12621260Y6537960D01*
X12649200Y6644640D01*
X12651740Y6664960D01*
X12656820Y6784340D01*
X12644120Y6893560D01*
X12611100Y6997700D01*
X12560300Y7086600D01*
X12494260Y7160260D01*
X12412980Y7218680D01*
X12364720Y7241540D01*
X12265660Y7264400D01*
X12158980Y7272020D01*
X12052300Y7261860D01*
X11953240Y7233920D01*
X11940540Y7228840D01*
X11894820Y7203440D01*
X11844020Y7165340D01*
X11798300Y7122160D01*
X11762740Y7081520D01*
X11750040Y7063740D01*
X11742420Y7045960D01*
X11742420Y7033260D01*
X11755120Y7023100D01*
X11780520Y7007860D01*
X11823700Y6985000D01*
X11841480Y6974840D01*
X11948160Y6921500D01*
X12009120Y6985000D01*
X12044680Y7020560D01*
X12067540Y7038340D01*
X12092940Y7048500D01*
X12125960Y7051040D01*
X12141200Y7051040D01*
X12212320Y7040880D01*
X12268200Y7012940D01*
X12311380Y6962140D01*
X12331700Y6929120D01*
X12352020Y6863080D01*
X12362180Y6784340D01*
X12362180Y6700520D01*
X12346940Y6624320D01*
X12334240Y6588760D01*
X12296140Y6530340D01*
X12245340Y6489700D01*
X12184380Y6469380D01*
X12118340Y6466840D01*
X12054840Y6487160D01*
X11998960Y6527800D01*
X11971020Y6558280D01*
X11950700Y6583680D01*
X11945620Y6593840D01*
X11938000Y6598920D01*
X11920220Y6598920D01*
X11889740Y6586220D01*
X11844020Y6560820D01*
X11800840Y6537960D01*
X11762740Y6517640D01*
X11742420Y6504940D01*
X11739880Y6502400D01*
G36*
X12689840Y6499860D02*
X12712700Y6461760D01*
X12745720Y6416040D01*
X12796520Y6367780D01*
X12849860Y6322060D01*
X12903200Y6289040D01*
X12915900Y6283960D01*
X13007340Y6256020D01*
X13114020Y6245860D01*
X13195300Y6248400D01*
X13304520Y6271260D01*
X13398500Y6311900D01*
X13477240Y6372860D01*
X13540740Y6451600D01*
X13586460Y6545580D01*
X13614400Y6649720D01*
X13619480Y6771640D01*
X13616940Y6804660D01*
X13601700Y6916420D01*
X13566140Y7010400D01*
X13512800Y7094220D01*
X13492480Y7119620D01*
X13411200Y7190740D01*
X13314680Y7241540D01*
X13210540Y7269480D01*
X13096240Y7272020D01*
X13045440Y7266940D01*
X12987020Y7254240D01*
X12926060Y7239000D01*
X12885420Y7221220D01*
X12847320Y7198360D01*
X12804140Y7165340D01*
X12763500Y7127240D01*
X12730480Y7091680D01*
X12707620Y7058660D01*
X12702540Y7043420D01*
X12712700Y7028180D01*
X12740640Y7007860D01*
X12783820Y6985000D01*
X12804140Y6972300D01*
X12905740Y6921500D01*
X12966700Y6985000D01*
X13002260Y7020560D01*
X13027660Y7038340D01*
X13050520Y7048500D01*
X13083540Y7051040D01*
X13101320Y7051040D01*
X13172440Y7038340D01*
X13230860Y7007860D01*
X13279120Y6954520D01*
X13281660Y6946900D01*
X13299440Y6903720D01*
X13309600Y6840220D01*
X13314680Y6771640D01*
X13312140Y6697980D01*
X13304520Y6634480D01*
X13296900Y6604000D01*
X13266420Y6543040D01*
X13223240Y6499860D01*
X13164820Y6477000D01*
X13103860Y6471920D01*
X13035280Y6477000D01*
X12987020Y6497320D01*
X12943840Y6537960D01*
X12926060Y6563360D01*
X12905740Y6591300D01*
X12890500Y6604000D01*
X12875260Y6598920D01*
X12842240Y6583680D01*
X12801600Y6560820D01*
X12783820Y6553200D01*
X12689840Y6499860D01*
X12689840Y6499860D01*
G37*
X12689840Y6499860D02*
X12712700Y6461760D01*
X12745720Y6416040D01*
X12796520Y6367780D01*
X12849860Y6322060D01*
X12903200Y6289040D01*
X12915900Y6283960D01*
X13007340Y6256020D01*
X13114020Y6245860D01*
X13195300Y6248400D01*
X13304520Y6271260D01*
X13398500Y6311900D01*
X13477240Y6372860D01*
X13540740Y6451600D01*
X13586460Y6545580D01*
X13614400Y6649720D01*
X13619480Y6771640D01*
X13616940Y6804660D01*
X13601700Y6916420D01*
X13566140Y7010400D01*
X13512800Y7094220D01*
X13492480Y7119620D01*
X13411200Y7190740D01*
X13314680Y7241540D01*
X13210540Y7269480D01*
X13096240Y7272020D01*
X13045440Y7266940D01*
X12987020Y7254240D01*
X12926060Y7239000D01*
X12885420Y7221220D01*
X12847320Y7198360D01*
X12804140Y7165340D01*
X12763500Y7127240D01*
X12730480Y7091680D01*
X12707620Y7058660D01*
X12702540Y7043420D01*
X12712700Y7028180D01*
X12740640Y7007860D01*
X12783820Y6985000D01*
X12804140Y6972300D01*
X12905740Y6921500D01*
X12966700Y6985000D01*
X13002260Y7020560D01*
X13027660Y7038340D01*
X13050520Y7048500D01*
X13083540Y7051040D01*
X13101320Y7051040D01*
X13172440Y7038340D01*
X13230860Y7007860D01*
X13279120Y6954520D01*
X13281660Y6946900D01*
X13299440Y6903720D01*
X13309600Y6840220D01*
X13314680Y6771640D01*
X13312140Y6697980D01*
X13304520Y6634480D01*
X13296900Y6604000D01*
X13266420Y6543040D01*
X13223240Y6499860D01*
X13164820Y6477000D01*
X13103860Y6471920D01*
X13035280Y6477000D01*
X12987020Y6497320D01*
X12943840Y6537960D01*
X12926060Y6563360D01*
X12905740Y6591300D01*
X12890500Y6604000D01*
X12875260Y6598920D01*
X12842240Y6583680D01*
X12801600Y6560820D01*
X12783820Y6553200D01*
X12689840Y6499860D01*
G36*
X5379720Y7213600D02*
X5382260Y7114540D01*
X5389880Y7025640D01*
X5400040Y6954520D01*
X5402580Y6944360D01*
X5455920Y6776720D01*
X5534660Y6621780D01*
X5605780Y6520180D01*
X5605780Y7203440D01*
X5605780Y7279640D01*
X5613400Y7383780D01*
X5626100Y7470140D01*
X5643880Y7548880D01*
X5674360Y7627620D01*
X5704840Y7693660D01*
X5783580Y7823200D01*
X5880100Y7940040D01*
X5996940Y8044180D01*
X6123940Y8130540D01*
X6261100Y8194040D01*
X6304280Y8209280D01*
X6393180Y8232140D01*
X6497320Y8244840D01*
X6609080Y8249920D01*
X6718300Y8247380D01*
X6814820Y8234680D01*
X6824980Y8232140D01*
X6972300Y8186420D01*
X7109460Y8117840D01*
X7236460Y8031480D01*
X7348220Y7924800D01*
X7444740Y7800340D01*
X7523480Y7663180D01*
X7571740Y7548880D01*
X7589520Y7498080D01*
X7599680Y7454900D01*
X7607300Y7416800D01*
X7612380Y7373620D01*
X7614920Y7317740D01*
X7614920Y7246620D01*
X7612380Y7137400D01*
X7602220Y7043420D01*
X7581900Y6959600D01*
X7553960Y6878320D01*
X7523480Y6814820D01*
X7462520Y6713220D01*
X7386320Y6611620D01*
X7297420Y6520180D01*
X7203440Y6436360D01*
X7117080Y6377940D01*
X6985000Y6311900D01*
X6842760Y6268720D01*
X6692900Y6243320D01*
X6540500Y6240780D01*
X6393180Y6261100D01*
X6344920Y6273800D01*
X6210300Y6322060D01*
X6078220Y6393180D01*
X5958840Y6479540D01*
X5849620Y6583680D01*
X5760720Y6692900D01*
X5692140Y6812280D01*
X5684520Y6827520D01*
X5641340Y6946900D01*
X5615940Y7068820D01*
X5605780Y7203440D01*
X5605780Y6520180D01*
X5633720Y6479540D01*
X5753100Y6350000D01*
X5862320Y6258560D01*
X6012180Y6162040D01*
X6169660Y6088380D01*
X6337300Y6037580D01*
X6510020Y6012180D01*
X6687820Y6009640D01*
X6817360Y6024880D01*
X6979920Y6062980D01*
X7134860Y6123940D01*
X7282180Y6210300D01*
X7421880Y6316980D01*
X7546340Y6443980D01*
X7564120Y6464300D01*
X7668260Y6604000D01*
X7747000Y6753860D01*
X7805420Y6913880D01*
X7838440Y7078980D01*
X7848600Y7246620D01*
X7835900Y7416800D01*
X7800340Y7584440D01*
X7739380Y7749540D01*
X7721600Y7785100D01*
X7637780Y7932420D01*
X7531100Y8069580D01*
X7409180Y8188960D01*
X7272020Y8290560D01*
X7124700Y8374380D01*
X6967220Y8432800D01*
X6931660Y8445500D01*
X6885940Y8455660D01*
X6842760Y8463280D01*
X6797040Y8468360D01*
X6741160Y8470900D01*
X6670040Y8473440D01*
X6606540Y8473440D01*
X6517640Y8470900D01*
X6451600Y8468360D01*
X6398260Y8465820D01*
X6352540Y8458200D01*
X6309360Y8450580D01*
X6286500Y8442960D01*
X6182360Y8409940D01*
X6073140Y8361680D01*
X5969000Y8308340D01*
X5890260Y8257540D01*
X5836920Y8214360D01*
X5773420Y8155940D01*
X5707380Y8092440D01*
X5646420Y8026400D01*
X5598160Y7967980D01*
X5580380Y7940040D01*
X5532120Y7863840D01*
X5486400Y7772400D01*
X5445760Y7678420D01*
X5415280Y7586980D01*
X5410200Y7566660D01*
X5394960Y7498080D01*
X5387340Y7411720D01*
X5379720Y7315200D01*
X5379720Y7213600D01*
X5379720Y7213600D01*
G37*
X5379720Y7213600D02*
X5382260Y7114540D01*
X5389880Y7025640D01*
X5400040Y6954520D01*
X5402580Y6944360D01*
X5455920Y6776720D01*
X5534660Y6621780D01*
X5605780Y6520180D01*
X5605780Y7203440D01*
X5605780Y7279640D01*
X5613400Y7383780D01*
X5626100Y7470140D01*
X5643880Y7548880D01*
X5674360Y7627620D01*
X5704840Y7693660D01*
X5783580Y7823200D01*
X5880100Y7940040D01*
X5996940Y8044180D01*
X6123940Y8130540D01*
X6261100Y8194040D01*
X6304280Y8209280D01*
X6393180Y8232140D01*
X6497320Y8244840D01*
X6609080Y8249920D01*
X6718300Y8247380D01*
X6814820Y8234680D01*
X6824980Y8232140D01*
X6972300Y8186420D01*
X7109460Y8117840D01*
X7236460Y8031480D01*
X7348220Y7924800D01*
X7444740Y7800340D01*
X7523480Y7663180D01*
X7571740Y7548880D01*
X7589520Y7498080D01*
X7599680Y7454900D01*
X7607300Y7416800D01*
X7612380Y7373620D01*
X7614920Y7317740D01*
X7614920Y7246620D01*
X7612380Y7137400D01*
X7602220Y7043420D01*
X7581900Y6959600D01*
X7553960Y6878320D01*
X7523480Y6814820D01*
X7462520Y6713220D01*
X7386320Y6611620D01*
X7297420Y6520180D01*
X7203440Y6436360D01*
X7117080Y6377940D01*
X6985000Y6311900D01*
X6842760Y6268720D01*
X6692900Y6243320D01*
X6540500Y6240780D01*
X6393180Y6261100D01*
X6344920Y6273800D01*
X6210300Y6322060D01*
X6078220Y6393180D01*
X5958840Y6479540D01*
X5849620Y6583680D01*
X5760720Y6692900D01*
X5692140Y6812280D01*
X5684520Y6827520D01*
X5641340Y6946900D01*
X5615940Y7068820D01*
X5605780Y7203440D01*
X5605780Y6520180D01*
X5633720Y6479540D01*
X5753100Y6350000D01*
X5862320Y6258560D01*
X6012180Y6162040D01*
X6169660Y6088380D01*
X6337300Y6037580D01*
X6510020Y6012180D01*
X6687820Y6009640D01*
X6817360Y6024880D01*
X6979920Y6062980D01*
X7134860Y6123940D01*
X7282180Y6210300D01*
X7421880Y6316980D01*
X7546340Y6443980D01*
X7564120Y6464300D01*
X7668260Y6604000D01*
X7747000Y6753860D01*
X7805420Y6913880D01*
X7838440Y7078980D01*
X7848600Y7246620D01*
X7835900Y7416800D01*
X7800340Y7584440D01*
X7739380Y7749540D01*
X7721600Y7785100D01*
X7637780Y7932420D01*
X7531100Y8069580D01*
X7409180Y8188960D01*
X7272020Y8290560D01*
X7124700Y8374380D01*
X6967220Y8432800D01*
X6931660Y8445500D01*
X6885940Y8455660D01*
X6842760Y8463280D01*
X6797040Y8468360D01*
X6741160Y8470900D01*
X6670040Y8473440D01*
X6606540Y8473440D01*
X6517640Y8470900D01*
X6451600Y8468360D01*
X6398260Y8465820D01*
X6352540Y8458200D01*
X6309360Y8450580D01*
X6286500Y8442960D01*
X6182360Y8409940D01*
X6073140Y8361680D01*
X5969000Y8308340D01*
X5890260Y8257540D01*
X5836920Y8214360D01*
X5773420Y8155940D01*
X5707380Y8092440D01*
X5646420Y8026400D01*
X5598160Y7967980D01*
X5580380Y7940040D01*
X5532120Y7863840D01*
X5486400Y7772400D01*
X5445760Y7678420D01*
X5415280Y7586980D01*
X5410200Y7566660D01*
X5394960Y7498080D01*
X5387340Y7411720D01*
X5379720Y7315200D01*
X5379720Y7213600D01*
G36*
X8153400Y7241540D02*
X8163560Y7068820D01*
X8191500Y6911340D01*
X8239760Y6766560D01*
X8308340Y6629400D01*
X8387080Y6520180D01*
X8387080Y7241540D01*
X8394700Y7378700D01*
X8415020Y7500620D01*
X8453120Y7617460D01*
X8481060Y7680960D01*
X8554720Y7807960D01*
X8651240Y7924800D01*
X8763000Y8028940D01*
X8887460Y8117840D01*
X9022080Y8183880D01*
X9103360Y8214360D01*
X9144000Y8227060D01*
X9184640Y8234680D01*
X9230360Y8239760D01*
X9283700Y8242300D01*
X9354820Y8244840D01*
X9390380Y8244840D01*
X9469120Y8242300D01*
X9530080Y8242300D01*
X9578340Y8237220D01*
X9618980Y8229600D01*
X9659620Y8219440D01*
X9677400Y8214360D01*
X9824720Y8155940D01*
X9956800Y8074660D01*
X10078720Y7975600D01*
X10185400Y7858760D01*
X10274300Y7726680D01*
X10340340Y7581900D01*
X10368280Y7500620D01*
X10383520Y7419340D01*
X10393680Y7322820D01*
X10396220Y7221220D01*
X10391140Y7122160D01*
X10380980Y7033260D01*
X10373360Y7000240D01*
X10317480Y6850380D01*
X10241280Y6710680D01*
X10144760Y6583680D01*
X10030460Y6471920D01*
X9961880Y6421120D01*
X9829800Y6339840D01*
X9685020Y6281420D01*
X9532620Y6245860D01*
X9375140Y6238240D01*
X9245600Y6248400D01*
X9128760Y6273800D01*
X9009380Y6314440D01*
X8897620Y6367780D01*
X8869680Y6383020D01*
X8829040Y6410960D01*
X8778240Y6451600D01*
X8722360Y6502400D01*
X8669020Y6553200D01*
X8610600Y6609080D01*
X8567420Y6659880D01*
X8534400Y6705600D01*
X8506460Y6753860D01*
X8491220Y6781800D01*
X8442960Y6893560D01*
X8409940Y7005320D01*
X8392160Y7119620D01*
X8387080Y7241540D01*
X8387080Y6520180D01*
X8397240Y6502400D01*
X8496300Y6393180D01*
X8633460Y6271260D01*
X8775700Y6172200D01*
X8928100Y6096000D01*
X9088120Y6045200D01*
X9090660Y6042660D01*
X9166860Y6029960D01*
X9255760Y6019800D01*
X9352280Y6012180D01*
X9446260Y6009640D01*
X9527540Y6012180D01*
X9580880Y6017260D01*
X9748520Y6057900D01*
X9908540Y6121400D01*
X10058400Y6207760D01*
X10200640Y6314440D01*
X10261600Y6372860D01*
X10380980Y6510020D01*
X10477500Y6652260D01*
X10551160Y6809740D01*
X10591800Y6934200D01*
X10604500Y6990080D01*
X10614660Y7043420D01*
X10619740Y7096760D01*
X10622280Y7160260D01*
X10624820Y7233920D01*
X10619740Y7353300D01*
X10612120Y7449820D01*
X10601960Y7505700D01*
X10553700Y7670800D01*
X10482580Y7825740D01*
X10391140Y7967980D01*
X10281920Y8100060D01*
X10157460Y8214360D01*
X10020300Y8310880D01*
X9872980Y8387080D01*
X9712960Y8442960D01*
X9682480Y8450580D01*
X9603740Y8463280D01*
X9507220Y8470900D01*
X9405620Y8473440D01*
X9298940Y8473440D01*
X9199880Y8465820D01*
X9113520Y8453120D01*
X9070340Y8442960D01*
X8905240Y8387080D01*
X8750300Y8305800D01*
X8605520Y8201660D01*
X8475980Y8077200D01*
X8361680Y7934960D01*
X8348980Y7919720D01*
X8275320Y7797800D01*
X8221980Y7678420D01*
X8183880Y7551420D01*
X8161020Y7411720D01*
X8153400Y7256780D01*
X8153400Y7241540D01*
X8153400Y7241540D01*
G37*
X8153400Y7241540D02*
X8163560Y7068820D01*
X8191500Y6911340D01*
X8239760Y6766560D01*
X8308340Y6629400D01*
X8387080Y6520180D01*
X8387080Y7241540D01*
X8394700Y7378700D01*
X8415020Y7500620D01*
X8453120Y7617460D01*
X8481060Y7680960D01*
X8554720Y7807960D01*
X8651240Y7924800D01*
X8763000Y8028940D01*
X8887460Y8117840D01*
X9022080Y8183880D01*
X9103360Y8214360D01*
X9144000Y8227060D01*
X9184640Y8234680D01*
X9230360Y8239760D01*
X9283700Y8242300D01*
X9354820Y8244840D01*
X9390380Y8244840D01*
X9469120Y8242300D01*
X9530080Y8242300D01*
X9578340Y8237220D01*
X9618980Y8229600D01*
X9659620Y8219440D01*
X9677400Y8214360D01*
X9824720Y8155940D01*
X9956800Y8074660D01*
X10078720Y7975600D01*
X10185400Y7858760D01*
X10274300Y7726680D01*
X10340340Y7581900D01*
X10368280Y7500620D01*
X10383520Y7419340D01*
X10393680Y7322820D01*
X10396220Y7221220D01*
X10391140Y7122160D01*
X10380980Y7033260D01*
X10373360Y7000240D01*
X10317480Y6850380D01*
X10241280Y6710680D01*
X10144760Y6583680D01*
X10030460Y6471920D01*
X9961880Y6421120D01*
X9829800Y6339840D01*
X9685020Y6281420D01*
X9532620Y6245860D01*
X9375140Y6238240D01*
X9245600Y6248400D01*
X9128760Y6273800D01*
X9009380Y6314440D01*
X8897620Y6367780D01*
X8869680Y6383020D01*
X8829040Y6410960D01*
X8778240Y6451600D01*
X8722360Y6502400D01*
X8669020Y6553200D01*
X8610600Y6609080D01*
X8567420Y6659880D01*
X8534400Y6705600D01*
X8506460Y6753860D01*
X8491220Y6781800D01*
X8442960Y6893560D01*
X8409940Y7005320D01*
X8392160Y7119620D01*
X8387080Y7241540D01*
X8387080Y6520180D01*
X8397240Y6502400D01*
X8496300Y6393180D01*
X8633460Y6271260D01*
X8775700Y6172200D01*
X8928100Y6096000D01*
X9088120Y6045200D01*
X9090660Y6042660D01*
X9166860Y6029960D01*
X9255760Y6019800D01*
X9352280Y6012180D01*
X9446260Y6009640D01*
X9527540Y6012180D01*
X9580880Y6017260D01*
X9748520Y6057900D01*
X9908540Y6121400D01*
X10058400Y6207760D01*
X10200640Y6314440D01*
X10261600Y6372860D01*
X10380980Y6510020D01*
X10477500Y6652260D01*
X10551160Y6809740D01*
X10591800Y6934200D01*
X10604500Y6990080D01*
X10614660Y7043420D01*
X10619740Y7096760D01*
X10622280Y7160260D01*
X10624820Y7233920D01*
X10619740Y7353300D01*
X10612120Y7449820D01*
X10601960Y7505700D01*
X10553700Y7670800D01*
X10482580Y7825740D01*
X10391140Y7967980D01*
X10281920Y8100060D01*
X10157460Y8214360D01*
X10020300Y8310880D01*
X9872980Y8387080D01*
X9712960Y8442960D01*
X9682480Y8450580D01*
X9603740Y8463280D01*
X9507220Y8470900D01*
X9405620Y8473440D01*
X9298940Y8473440D01*
X9199880Y8465820D01*
X9113520Y8453120D01*
X9070340Y8442960D01*
X8905240Y8387080D01*
X8750300Y8305800D01*
X8605520Y8201660D01*
X8475980Y8077200D01*
X8361680Y7934960D01*
X8348980Y7919720D01*
X8275320Y7797800D01*
X8221980Y7678420D01*
X8183880Y7551420D01*
X8161020Y7411720D01*
X8153400Y7256780D01*
X8153400Y7241540D01*
G36*
X11018520Y6779260D02*
X11018520Y6687820D01*
X11023600Y6565900D01*
X11033760Y6459220D01*
X11051540Y6365240D01*
X11074400Y6273800D01*
X11104880Y6179820D01*
X11130280Y6113780D01*
X11209020Y5948680D01*
X11310620Y5791200D01*
X11313160Y5788660D01*
X11313160Y6779260D01*
X11325860Y6957060D01*
X11363960Y7129780D01*
X11422380Y7297420D01*
X11501120Y7454900D01*
X11602720Y7599680D01*
X11722100Y7734300D01*
X11861800Y7853680D01*
X12019280Y7955280D01*
X12026900Y7960360D01*
X12179300Y8031480D01*
X12344400Y8082280D01*
X12514580Y8110220D01*
X12689840Y8120380D01*
X12862560Y8107680D01*
X13032740Y8074660D01*
X13195300Y8018780D01*
X13299440Y7970520D01*
X13444220Y7879080D01*
X13578840Y7767320D01*
X13703300Y7640320D01*
X13809980Y7500620D01*
X13896340Y7350760D01*
X13964920Y7195820D01*
X13990320Y7106920D01*
X14028420Y6921500D01*
X14038580Y6741160D01*
X14025880Y6563360D01*
X13985240Y6390640D01*
X13924280Y6223000D01*
X13837920Y6062980D01*
X13731240Y5913120D01*
X13601700Y5775960D01*
X13456920Y5654040D01*
X13301980Y5554980D01*
X13141960Y5481320D01*
X12971780Y5430520D01*
X12793980Y5405120D01*
X12608560Y5402580D01*
X12440920Y5420360D01*
X12283440Y5455920D01*
X12131040Y5514340D01*
X11981180Y5593080D01*
X11841480Y5689600D01*
X11714480Y5798820D01*
X11600180Y5923280D01*
X11503660Y6055360D01*
X11430000Y6195060D01*
X11412220Y6238240D01*
X11353800Y6418580D01*
X11320780Y6601460D01*
X11313160Y6779260D01*
X11313160Y5788660D01*
X11430000Y5646420D01*
X11564620Y5514340D01*
X11714480Y5397500D01*
X11874500Y5295900D01*
X12042140Y5214620D01*
X12217400Y5153660D01*
X12392660Y5115560D01*
X12479020Y5105400D01*
X12560300Y5097780D01*
X12623800Y5095240D01*
X12677140Y5092700D01*
X12727940Y5092700D01*
X12778740Y5095240D01*
X12824460Y5097780D01*
X13020040Y5125720D01*
X13205460Y5173980D01*
X13380720Y5247640D01*
X13550900Y5341620D01*
X13710920Y5461000D01*
X13868400Y5605780D01*
X13870940Y5610860D01*
X14008100Y5765800D01*
X14119860Y5925820D01*
X14206220Y6093460D01*
X14272260Y6268720D01*
X14312900Y6456680D01*
X14333220Y6652260D01*
X14338300Y6756400D01*
X14328140Y6939280D01*
X14305280Y7109460D01*
X14264640Y7269480D01*
X14203680Y7426960D01*
X14155420Y7523480D01*
X14051280Y7698740D01*
X13929360Y7856220D01*
X13789660Y7998460D01*
X13634720Y8122920D01*
X13469620Y8227060D01*
X13291820Y8313420D01*
X13106400Y8374380D01*
X12989560Y8399780D01*
X12905740Y8412480D01*
X12804140Y8417560D01*
X12692380Y8420100D01*
X12580620Y8420100D01*
X12476480Y8412480D01*
X12385040Y8402320D01*
X12364720Y8399780D01*
X12171680Y8351520D01*
X11986260Y8282940D01*
X11811000Y8191500D01*
X11650980Y8079740D01*
X11503660Y7950200D01*
X11371580Y7805420D01*
X11257280Y7645400D01*
X11163300Y7472680D01*
X11089640Y7287260D01*
X11074400Y7241540D01*
X11051540Y7152640D01*
X11036300Y7068820D01*
X11023600Y6982460D01*
X11018520Y6888480D01*
X11018520Y6779260D01*
X11018520Y6779260D01*
G37*
X11018520Y6779260D02*
X11018520Y6687820D01*
X11023600Y6565900D01*
X11033760Y6459220D01*
X11051540Y6365240D01*
X11074400Y6273800D01*
X11104880Y6179820D01*
X11130280Y6113780D01*
X11209020Y5948680D01*
X11310620Y5791200D01*
X11313160Y5788660D01*
X11313160Y6779260D01*
X11325860Y6957060D01*
X11363960Y7129780D01*
X11422380Y7297420D01*
X11501120Y7454900D01*
X11602720Y7599680D01*
X11722100Y7734300D01*
X11861800Y7853680D01*
X12019280Y7955280D01*
X12026900Y7960360D01*
X12179300Y8031480D01*
X12344400Y8082280D01*
X12514580Y8110220D01*
X12689840Y8120380D01*
X12862560Y8107680D01*
X13032740Y8074660D01*
X13195300Y8018780D01*
X13299440Y7970520D01*
X13444220Y7879080D01*
X13578840Y7767320D01*
X13703300Y7640320D01*
X13809980Y7500620D01*
X13896340Y7350760D01*
X13964920Y7195820D01*
X13990320Y7106920D01*
X14028420Y6921500D01*
X14038580Y6741160D01*
X14025880Y6563360D01*
X13985240Y6390640D01*
X13924280Y6223000D01*
X13837920Y6062980D01*
X13731240Y5913120D01*
X13601700Y5775960D01*
X13456920Y5654040D01*
X13301980Y5554980D01*
X13141960Y5481320D01*
X12971780Y5430520D01*
X12793980Y5405120D01*
X12608560Y5402580D01*
X12440920Y5420360D01*
X12283440Y5455920D01*
X12131040Y5514340D01*
X11981180Y5593080D01*
X11841480Y5689600D01*
X11714480Y5798820D01*
X11600180Y5923280D01*
X11503660Y6055360D01*
X11430000Y6195060D01*
X11412220Y6238240D01*
X11353800Y6418580D01*
X11320780Y6601460D01*
X11313160Y6779260D01*
X11313160Y5788660D01*
X11430000Y5646420D01*
X11564620Y5514340D01*
X11714480Y5397500D01*
X11874500Y5295900D01*
X12042140Y5214620D01*
X12217400Y5153660D01*
X12392660Y5115560D01*
X12479020Y5105400D01*
X12560300Y5097780D01*
X12623800Y5095240D01*
X12677140Y5092700D01*
X12727940Y5092700D01*
X12778740Y5095240D01*
X12824460Y5097780D01*
X13020040Y5125720D01*
X13205460Y5173980D01*
X13380720Y5247640D01*
X13550900Y5341620D01*
X13710920Y5461000D01*
X13868400Y5605780D01*
X13870940Y5610860D01*
X14008100Y5765800D01*
X14119860Y5925820D01*
X14206220Y6093460D01*
X14272260Y6268720D01*
X14312900Y6456680D01*
X14333220Y6652260D01*
X14338300Y6756400D01*
X14328140Y6939280D01*
X14305280Y7109460D01*
X14264640Y7269480D01*
X14203680Y7426960D01*
X14155420Y7523480D01*
X14051280Y7698740D01*
X13929360Y7856220D01*
X13789660Y7998460D01*
X13634720Y8122920D01*
X13469620Y8227060D01*
X13291820Y8313420D01*
X13106400Y8374380D01*
X12989560Y8399780D01*
X12905740Y8412480D01*
X12804140Y8417560D01*
X12692380Y8420100D01*
X12580620Y8420100D01*
X12476480Y8412480D01*
X12385040Y8402320D01*
X12364720Y8399780D01*
X12171680Y8351520D01*
X11986260Y8282940D01*
X11811000Y8191500D01*
X11650980Y8079740D01*
X11503660Y7950200D01*
X11371580Y7805420D01*
X11257280Y7645400D01*
X11163300Y7472680D01*
X11089640Y7287260D01*
X11074400Y7241540D01*
X11051540Y7152640D01*
X11036300Y7068820D01*
X11023600Y6982460D01*
X11018520Y6888480D01*
X11018520Y6779260D01*
G36*
X6062980Y4660900D02*
X6073140Y4655820D01*
X6106160Y4653280D01*
X6144260Y4650740D01*
X6225540Y4650740D01*
X6248400Y4726940D01*
X6271260Y4803140D01*
X6319520Y4803140D01*
X6319520Y4932680D01*
X6360160Y5046980D01*
X6375400Y5095240D01*
X6393180Y5133340D01*
X6403340Y5151120D01*
X6405880Y5153660D01*
X6416040Y5138420D01*
X6428740Y5105400D01*
X6443980Y5062220D01*
X6459220Y5016500D01*
X6474460Y4975860D01*
X6482080Y4947920D01*
X6484620Y4940300D01*
X6471920Y4935220D01*
X6441440Y4932680D01*
X6403340Y4932680D01*
X6319520Y4932680D01*
X6319520Y4803140D01*
X6403340Y4803140D01*
X6532880Y4803140D01*
X6560820Y4726940D01*
X6588760Y4650740D01*
X6670040Y4650740D01*
X6748780Y4650740D01*
X6616700Y4998720D01*
X6487160Y5346700D01*
X6400800Y5346700D01*
X6316980Y5346700D01*
X6189980Y5008880D01*
X6156960Y4919980D01*
X6126480Y4841240D01*
X6101080Y4772660D01*
X6083300Y4716780D01*
X6068060Y4678680D01*
X6062980Y4660900D01*
X6062980Y4660900D01*
G37*
X6062980Y4660900D02*
X6073140Y4655820D01*
X6106160Y4653280D01*
X6144260Y4650740D01*
X6225540Y4650740D01*
X6248400Y4726940D01*
X6271260Y4803140D01*
X6319520Y4803140D01*
X6319520Y4932680D01*
X6360160Y5046980D01*
X6375400Y5095240D01*
X6393180Y5133340D01*
X6403340Y5151120D01*
X6405880Y5153660D01*
X6416040Y5138420D01*
X6428740Y5105400D01*
X6443980Y5062220D01*
X6459220Y5016500D01*
X6474460Y4975860D01*
X6482080Y4947920D01*
X6484620Y4940300D01*
X6471920Y4935220D01*
X6441440Y4932680D01*
X6403340Y4932680D01*
X6319520Y4932680D01*
X6319520Y4803140D01*
X6403340Y4803140D01*
X6532880Y4803140D01*
X6560820Y4726940D01*
X6588760Y4650740D01*
X6670040Y4650740D01*
X6748780Y4650740D01*
X6616700Y4998720D01*
X6487160Y5346700D01*
X6400800Y5346700D01*
X6316980Y5346700D01*
X6189980Y5008880D01*
X6156960Y4919980D01*
X6126480Y4841240D01*
X6101080Y4772660D01*
X6083300Y4716780D01*
X6068060Y4678680D01*
X6062980Y4660900D01*
G36*
X8783320Y5354320D02*
X8917940Y5130800D01*
X9052560Y4907280D01*
X9052560Y4780280D01*
X9052560Y4650740D01*
X9128760Y4650740D01*
X9204960Y4650740D01*
X9204960Y4785360D01*
X9204960Y4922520D01*
X9329420Y5128260D01*
X9367520Y5194300D01*
X9400540Y5252720D01*
X9428480Y5298440D01*
X9448800Y5328920D01*
X9456420Y5344160D01*
X9446260Y5349240D01*
X9418320Y5351780D01*
X9377680Y5354320D01*
X9372600Y5354320D01*
X9283700Y5354320D01*
X9204960Y5217160D01*
X9166860Y5156200D01*
X9141460Y5118100D01*
X9123680Y5097780D01*
X9113520Y5100320D01*
X9103360Y5118100D01*
X9083040Y5151120D01*
X9057640Y5196840D01*
X9034780Y5232400D01*
X8968740Y5346700D01*
X8877300Y5351780D01*
X8783320Y5354320D01*
X8783320Y5354320D01*
G37*
X8783320Y5354320D02*
X8917940Y5130800D01*
X9052560Y4907280D01*
X9052560Y4780280D01*
X9052560Y4650740D01*
X9128760Y4650740D01*
X9204960Y4650740D01*
X9204960Y4785360D01*
X9204960Y4922520D01*
X9329420Y5128260D01*
X9367520Y5194300D01*
X9400540Y5252720D01*
X9428480Y5298440D01*
X9448800Y5328920D01*
X9456420Y5344160D01*
X9446260Y5349240D01*
X9418320Y5351780D01*
X9377680Y5354320D01*
X9372600Y5354320D01*
X9283700Y5354320D01*
X9204960Y5217160D01*
X9166860Y5156200D01*
X9141460Y5118100D01*
X9123680Y5097780D01*
X9113520Y5100320D01*
X9103360Y5118100D01*
X9083040Y5151120D01*
X9057640Y5196840D01*
X9034780Y5232400D01*
X8968740Y5346700D01*
X8877300Y5351780D01*
X8783320Y5354320D01*
G36*
X9489440Y4828540D02*
X9509760Y4762500D01*
X9550400Y4709160D01*
X9606280Y4676140D01*
X9629140Y4665980D01*
X9652000Y4660900D01*
X9652000Y4869180D01*
X9657080Y4907280D01*
X9672320Y4932680D01*
X9677400Y4935220D01*
X9677400Y5161280D01*
X9690100Y5196840D01*
X9697720Y5207000D01*
X9718040Y5217160D01*
X9751060Y5222240D01*
X9806940Y5224780D01*
X9817100Y5224780D01*
X9913620Y5224780D01*
X9918700Y5184140D01*
X9921240Y5143500D01*
X9921240Y5107940D01*
X9916160Y5090160D01*
X9908540Y5080000D01*
X9893300Y5074920D01*
X9857740Y5072380D01*
X9827260Y5072380D01*
X9761220Y5074920D01*
X9718040Y5085080D01*
X9705340Y5092700D01*
X9682480Y5123180D01*
X9677400Y5161280D01*
X9677400Y4935220D01*
X9702800Y4947920D01*
X9753600Y4955540D01*
X9814560Y4958080D01*
X9916160Y4958080D01*
X9916160Y4869180D01*
X9916160Y4777740D01*
X9809480Y4777740D01*
X9748520Y4780280D01*
X9710420Y4785360D01*
X9685020Y4792980D01*
X9674860Y4800600D01*
X9657080Y4833620D01*
X9652000Y4869180D01*
X9652000Y4660900D01*
X9657080Y4660900D01*
X9692640Y4655820D01*
X9743440Y4653280D01*
X9809480Y4650740D01*
X9872980Y4650740D01*
X10083800Y4650740D01*
X10083800Y5001260D01*
X10083800Y5354320D01*
X9875520Y5354320D01*
X9781540Y5351780D01*
X9712960Y5349240D01*
X9659620Y5344160D01*
X9621520Y5334000D01*
X9591040Y5321300D01*
X9568180Y5300980D01*
X9558020Y5293360D01*
X9540240Y5257800D01*
X9527540Y5207000D01*
X9525000Y5156200D01*
X9530080Y5130800D01*
X9545320Y5097780D01*
X9570720Y5064760D01*
X9573260Y5062220D01*
X9593580Y5041900D01*
X9596120Y5029200D01*
X9588500Y5024120D01*
X9552940Y5001260D01*
X9519920Y4963160D01*
X9497060Y4919980D01*
X9491980Y4902200D01*
X9489440Y4828540D01*
X9489440Y4828540D01*
G37*
X9489440Y4828540D02*
X9509760Y4762500D01*
X9550400Y4709160D01*
X9606280Y4676140D01*
X9629140Y4665980D01*
X9652000Y4660900D01*
X9652000Y4869180D01*
X9657080Y4907280D01*
X9672320Y4932680D01*
X9677400Y4935220D01*
X9677400Y5161280D01*
X9690100Y5196840D01*
X9697720Y5207000D01*
X9718040Y5217160D01*
X9751060Y5222240D01*
X9806940Y5224780D01*
X9817100Y5224780D01*
X9913620Y5224780D01*
X9918700Y5184140D01*
X9921240Y5143500D01*
X9921240Y5107940D01*
X9916160Y5090160D01*
X9908540Y5080000D01*
X9893300Y5074920D01*
X9857740Y5072380D01*
X9827260Y5072380D01*
X9761220Y5074920D01*
X9718040Y5085080D01*
X9705340Y5092700D01*
X9682480Y5123180D01*
X9677400Y5161280D01*
X9677400Y4935220D01*
X9702800Y4947920D01*
X9753600Y4955540D01*
X9814560Y4958080D01*
X9916160Y4958080D01*
X9916160Y4869180D01*
X9916160Y4777740D01*
X9809480Y4777740D01*
X9748520Y4780280D01*
X9710420Y4785360D01*
X9685020Y4792980D01*
X9674860Y4800600D01*
X9657080Y4833620D01*
X9652000Y4869180D01*
X9652000Y4660900D01*
X9657080Y4660900D01*
X9692640Y4655820D01*
X9743440Y4653280D01*
X9809480Y4650740D01*
X9872980Y4650740D01*
X10083800Y4650740D01*
X10083800Y5001260D01*
X10083800Y5354320D01*
X9875520Y5354320D01*
X9781540Y5351780D01*
X9712960Y5349240D01*
X9659620Y5344160D01*
X9621520Y5334000D01*
X9591040Y5321300D01*
X9568180Y5300980D01*
X9558020Y5293360D01*
X9540240Y5257800D01*
X9527540Y5207000D01*
X9525000Y5156200D01*
X9530080Y5130800D01*
X9545320Y5097780D01*
X9570720Y5064760D01*
X9573260Y5062220D01*
X9593580Y5041900D01*
X9596120Y5029200D01*
X9588500Y5024120D01*
X9552940Y5001260D01*
X9519920Y4963160D01*
X9497060Y4919980D01*
X9491980Y4902200D01*
X9489440Y4828540D01*
G36*
X6766560Y4828540D02*
X6779260Y4780280D01*
X6807200Y4734560D01*
X6817360Y4721860D01*
X6868160Y4681220D01*
X6936740Y4650740D01*
X7015480Y4635500D01*
X7094220Y4632960D01*
X7104380Y4635500D01*
X7193280Y4655820D01*
X7264400Y4693920D01*
X7317740Y4744720D01*
X7350760Y4810760D01*
X7353300Y4818380D01*
X7360920Y4856480D01*
X7353300Y4879340D01*
X7330440Y4892040D01*
X7287260Y4892040D01*
X7277100Y4892040D01*
X7236460Y4886960D01*
X7213600Y4879340D01*
X7203440Y4864100D01*
X7195820Y4843780D01*
X7167880Y4798060D01*
X7124700Y4770120D01*
X7071360Y4754880D01*
X7010400Y4759960D01*
X6974840Y4772660D01*
X6936740Y4795520D01*
X6921500Y4823460D01*
X6924040Y4859020D01*
X6931660Y4876800D01*
X6949440Y4894580D01*
X6982460Y4909820D01*
X7030720Y4930140D01*
X7099300Y4950460D01*
X7137400Y4963160D01*
X7195820Y4983480D01*
X7239000Y5001260D01*
X7269480Y5021580D01*
X7287260Y5039360D01*
X7322820Y5097780D01*
X7335520Y5153660D01*
X7330440Y5212080D01*
X7305040Y5262880D01*
X7261860Y5308600D01*
X7208520Y5344160D01*
X7142480Y5367020D01*
X7068820Y5374640D01*
X6997700Y5367020D01*
X6913880Y5344160D01*
X6852920Y5306060D01*
X6814820Y5255260D01*
X6794500Y5191760D01*
X6794500Y5189220D01*
X6786880Y5135880D01*
X6860540Y5135880D01*
X6901180Y5138420D01*
X6924040Y5143500D01*
X6936740Y5153660D01*
X6946900Y5176520D01*
X6972300Y5214620D01*
X7012940Y5240020D01*
X7061200Y5250180D01*
X7109460Y5245100D01*
X7152640Y5222240D01*
X7155180Y5219700D01*
X7180580Y5191760D01*
X7183120Y5171440D01*
X7170420Y5146040D01*
X7165340Y5138420D01*
X7137400Y5120640D01*
X7084060Y5097780D01*
X7007860Y5074920D01*
X7002780Y5074920D01*
X6916420Y5046980D01*
X6855460Y5019040D01*
X6812280Y4988560D01*
X6784340Y4947920D01*
X6769100Y4899660D01*
X6769100Y4889500D01*
X6766560Y4828540D01*
X6766560Y4828540D01*
G37*
X6766560Y4828540D02*
X6779260Y4780280D01*
X6807200Y4734560D01*
X6817360Y4721860D01*
X6868160Y4681220D01*
X6936740Y4650740D01*
X7015480Y4635500D01*
X7094220Y4632960D01*
X7104380Y4635500D01*
X7193280Y4655820D01*
X7264400Y4693920D01*
X7317740Y4744720D01*
X7350760Y4810760D01*
X7353300Y4818380D01*
X7360920Y4856480D01*
X7353300Y4879340D01*
X7330440Y4892040D01*
X7287260Y4892040D01*
X7277100Y4892040D01*
X7236460Y4886960D01*
X7213600Y4879340D01*
X7203440Y4864100D01*
X7195820Y4843780D01*
X7167880Y4798060D01*
X7124700Y4770120D01*
X7071360Y4754880D01*
X7010400Y4759960D01*
X6974840Y4772660D01*
X6936740Y4795520D01*
X6921500Y4823460D01*
X6924040Y4859020D01*
X6931660Y4876800D01*
X6949440Y4894580D01*
X6982460Y4909820D01*
X7030720Y4930140D01*
X7099300Y4950460D01*
X7137400Y4963160D01*
X7195820Y4983480D01*
X7239000Y5001260D01*
X7269480Y5021580D01*
X7287260Y5039360D01*
X7322820Y5097780D01*
X7335520Y5153660D01*
X7330440Y5212080D01*
X7305040Y5262880D01*
X7261860Y5308600D01*
X7208520Y5344160D01*
X7142480Y5367020D01*
X7068820Y5374640D01*
X6997700Y5367020D01*
X6913880Y5344160D01*
X6852920Y5306060D01*
X6814820Y5255260D01*
X6794500Y5191760D01*
X6794500Y5189220D01*
X6786880Y5135880D01*
X6860540Y5135880D01*
X6901180Y5138420D01*
X6924040Y5143500D01*
X6936740Y5153660D01*
X6946900Y5176520D01*
X6972300Y5214620D01*
X7012940Y5240020D01*
X7061200Y5250180D01*
X7109460Y5245100D01*
X7152640Y5222240D01*
X7155180Y5219700D01*
X7180580Y5191760D01*
X7183120Y5171440D01*
X7170420Y5146040D01*
X7165340Y5138420D01*
X7137400Y5120640D01*
X7084060Y5097780D01*
X7007860Y5074920D01*
X7002780Y5074920D01*
X6916420Y5046980D01*
X6855460Y5019040D01*
X6812280Y4988560D01*
X6784340Y4947920D01*
X6769100Y4899660D01*
X6769100Y4889500D01*
X6766560Y4828540D01*
G36*
X4899660Y4371340D02*
X5013960Y4371340D01*
X5013960Y5712460D01*
X5013960Y7178040D01*
X5013960Y8648700D01*
X5052060Y8686800D01*
X5090160Y8722360D01*
X9900920Y8722360D01*
X14709140Y8722360D01*
X14747240Y8686800D01*
X14785340Y8648700D01*
X14785340Y7178040D01*
X14782800Y5712460D01*
X14556740Y5709920D01*
X14330680Y5709920D01*
X14246860Y5580380D01*
X14124940Y5412740D01*
X13982700Y5260340D01*
X13822680Y5123180D01*
X13647420Y5003800D01*
X13459460Y4904740D01*
X13261340Y4826000D01*
X13055600Y4770120D01*
X12890500Y4742180D01*
X12804140Y4734560D01*
X12702540Y4732020D01*
X12590780Y4734560D01*
X12481560Y4742180D01*
X12382500Y4754880D01*
X12321540Y4765040D01*
X12105640Y4820920D01*
X11902440Y4899660D01*
X11714480Y4996180D01*
X11536680Y5118100D01*
X11371580Y5262880D01*
X11303000Y5331460D01*
X11247120Y5392420D01*
X11191240Y5463540D01*
X11137900Y5534660D01*
X11104880Y5580380D01*
X11023600Y5709920D01*
X8021320Y5709920D01*
X5013960Y5712460D01*
X5013960Y4371340D01*
X5029200Y4371340D01*
X5029200Y4472940D01*
X5029200Y5034280D01*
X5029200Y5595620D01*
X7985760Y5595620D01*
X10939780Y5595620D01*
X11018520Y5478780D01*
X11115040Y5341620D01*
X11211560Y5222240D01*
X11310620Y5123180D01*
X11414760Y5034280D01*
X11531600Y4955540D01*
X11617960Y4904740D01*
X11757660Y4833620D01*
X11882120Y4775200D01*
X11998960Y4726940D01*
X12118340Y4688840D01*
X12242800Y4658360D01*
X12247880Y4658360D01*
X12430760Y4622800D01*
X12603480Y4607560D01*
X12768580Y4607560D01*
X12936220Y4625340D01*
X13106400Y4658360D01*
X13301980Y4716780D01*
X13497560Y4798060D01*
X13698220Y4907280D01*
X13898880Y5039360D01*
X13967460Y5087620D01*
X14018260Y5130800D01*
X14079220Y5189220D01*
X14142720Y5255260D01*
X14208760Y5323840D01*
X14272260Y5397500D01*
X14325600Y5463540D01*
X14368780Y5521960D01*
X14391640Y5557520D01*
X14411960Y5595620D01*
X14605000Y5595620D01*
X14798040Y5595620D01*
X14798040Y5034280D01*
X14798040Y4472940D01*
X9911080Y4472940D01*
X5029200Y4472940D01*
X5029200Y4371340D01*
X9893300Y4371340D01*
X14884400Y4371340D01*
X14892020Y4551680D01*
X14894560Y4589780D01*
X14894560Y4648200D01*
X14894560Y4729480D01*
X14894560Y4828540D01*
X14897100Y4945380D01*
X14897100Y5077460D01*
X14897100Y5224780D01*
X14897100Y5384800D01*
X14897100Y5554980D01*
X14897100Y5735320D01*
X14897100Y5923280D01*
X14897100Y6116320D01*
X14897100Y6314440D01*
X14897100Y6515100D01*
X14897100Y6715760D01*
X14897100Y6918960D01*
X14894560Y7119620D01*
X14894560Y7315200D01*
X14894560Y7508240D01*
X14894560Y7693660D01*
X14892020Y7868920D01*
X14892020Y8036560D01*
X14889480Y8191500D01*
X14889480Y8333740D01*
X14889480Y8460740D01*
X14886940Y8569960D01*
X14886940Y8663940D01*
X14884400Y8735060D01*
X14884400Y8788400D01*
X14881860Y8816340D01*
X14881860Y8821420D01*
X14869160Y8821420D01*
X14831060Y8821420D01*
X14770100Y8823960D01*
X14686280Y8823960D01*
X14582140Y8823960D01*
X14455140Y8823960D01*
X14312900Y8826500D01*
X14150340Y8826500D01*
X13970000Y8826500D01*
X13774420Y8826500D01*
X13563600Y8829040D01*
X13340080Y8829040D01*
X13101320Y8829040D01*
X12852400Y8829040D01*
X12593320Y8829040D01*
X12324080Y8831580D01*
X12047220Y8831580D01*
X11760200Y8831580D01*
X11470640Y8831580D01*
X11173460Y8831580D01*
X10871200Y8831580D01*
X10566400Y8834120D01*
X10259060Y8834120D01*
X9949180Y8834120D01*
X9644380Y8834120D01*
X9337040Y8834120D01*
X9032240Y8834120D01*
X8729980Y8834120D01*
X8430260Y8834120D01*
X8138160Y8834120D01*
X7851140Y8834120D01*
X7571740Y8834120D01*
X7299960Y8834120D01*
X7038340Y8834120D01*
X6786880Y8834120D01*
X6548120Y8834120D01*
X6322060Y8834120D01*
X6108700Y8834120D01*
X5910580Y8834120D01*
X5727700Y8834120D01*
X5560060Y8834120D01*
X5412740Y8831580D01*
X5283200Y8831580D01*
X5176520Y8831580D01*
X5087620Y8831580D01*
X5021580Y8829040D01*
X4978400Y8829040D01*
X4960620Y8829040D01*
X4899660Y8821420D01*
X4899660Y6596380D01*
X4899660Y4371340D01*
X4899660Y4371340D01*
G37*
X4899660Y4371340D02*
X5013960Y4371340D01*
X5013960Y5712460D01*
X5013960Y7178040D01*
X5013960Y8648700D01*
X5052060Y8686800D01*
X5090160Y8722360D01*
X9900920Y8722360D01*
X14709140Y8722360D01*
X14747240Y8686800D01*
X14785340Y8648700D01*
X14785340Y7178040D01*
X14782800Y5712460D01*
X14556740Y5709920D01*
X14330680Y5709920D01*
X14246860Y5580380D01*
X14124940Y5412740D01*
X13982700Y5260340D01*
X13822680Y5123180D01*
X13647420Y5003800D01*
X13459460Y4904740D01*
X13261340Y4826000D01*
X13055600Y4770120D01*
X12890500Y4742180D01*
X12804140Y4734560D01*
X12702540Y4732020D01*
X12590780Y4734560D01*
X12481560Y4742180D01*
X12382500Y4754880D01*
X12321540Y4765040D01*
X12105640Y4820920D01*
X11902440Y4899660D01*
X11714480Y4996180D01*
X11536680Y5118100D01*
X11371580Y5262880D01*
X11303000Y5331460D01*
X11247120Y5392420D01*
X11191240Y5463540D01*
X11137900Y5534660D01*
X11104880Y5580380D01*
X11023600Y5709920D01*
X8021320Y5709920D01*
X5013960Y5712460D01*
X5013960Y4371340D01*
X5029200Y4371340D01*
X5029200Y4472940D01*
X5029200Y5034280D01*
X5029200Y5595620D01*
X7985760Y5595620D01*
X10939780Y5595620D01*
X11018520Y5478780D01*
X11115040Y5341620D01*
X11211560Y5222240D01*
X11310620Y5123180D01*
X11414760Y5034280D01*
X11531600Y4955540D01*
X11617960Y4904740D01*
X11757660Y4833620D01*
X11882120Y4775200D01*
X11998960Y4726940D01*
X12118340Y4688840D01*
X12242800Y4658360D01*
X12247880Y4658360D01*
X12430760Y4622800D01*
X12603480Y4607560D01*
X12768580Y4607560D01*
X12936220Y4625340D01*
X13106400Y4658360D01*
X13301980Y4716780D01*
X13497560Y4798060D01*
X13698220Y4907280D01*
X13898880Y5039360D01*
X13967460Y5087620D01*
X14018260Y5130800D01*
X14079220Y5189220D01*
X14142720Y5255260D01*
X14208760Y5323840D01*
X14272260Y5397500D01*
X14325600Y5463540D01*
X14368780Y5521960D01*
X14391640Y5557520D01*
X14411960Y5595620D01*
X14605000Y5595620D01*
X14798040Y5595620D01*
X14798040Y5034280D01*
X14798040Y4472940D01*
X9911080Y4472940D01*
X5029200Y4472940D01*
X5029200Y4371340D01*
X9893300Y4371340D01*
X14884400Y4371340D01*
X14892020Y4551680D01*
X14894560Y4589780D01*
X14894560Y4648200D01*
X14894560Y4729480D01*
X14894560Y4828540D01*
X14897100Y4945380D01*
X14897100Y5077460D01*
X14897100Y5224780D01*
X14897100Y5384800D01*
X14897100Y5554980D01*
X14897100Y5735320D01*
X14897100Y5923280D01*
X14897100Y6116320D01*
X14897100Y6314440D01*
X14897100Y6515100D01*
X14897100Y6715760D01*
X14897100Y6918960D01*
X14894560Y7119620D01*
X14894560Y7315200D01*
X14894560Y7508240D01*
X14894560Y7693660D01*
X14892020Y7868920D01*
X14892020Y8036560D01*
X14889480Y8191500D01*
X14889480Y8333740D01*
X14889480Y8460740D01*
X14886940Y8569960D01*
X14886940Y8663940D01*
X14884400Y8735060D01*
X14884400Y8788400D01*
X14881860Y8816340D01*
X14881860Y8821420D01*
X14869160Y8821420D01*
X14831060Y8821420D01*
X14770100Y8823960D01*
X14686280Y8823960D01*
X14582140Y8823960D01*
X14455140Y8823960D01*
X14312900Y8826500D01*
X14150340Y8826500D01*
X13970000Y8826500D01*
X13774420Y8826500D01*
X13563600Y8829040D01*
X13340080Y8829040D01*
X13101320Y8829040D01*
X12852400Y8829040D01*
X12593320Y8829040D01*
X12324080Y8831580D01*
X12047220Y8831580D01*
X11760200Y8831580D01*
X11470640Y8831580D01*
X11173460Y8831580D01*
X10871200Y8831580D01*
X10566400Y8834120D01*
X10259060Y8834120D01*
X9949180Y8834120D01*
X9644380Y8834120D01*
X9337040Y8834120D01*
X9032240Y8834120D01*
X8729980Y8834120D01*
X8430260Y8834120D01*
X8138160Y8834120D01*
X7851140Y8834120D01*
X7571740Y8834120D01*
X7299960Y8834120D01*
X7038340Y8834120D01*
X6786880Y8834120D01*
X6548120Y8834120D01*
X6322060Y8834120D01*
X6108700Y8834120D01*
X5910580Y8834120D01*
X5727700Y8834120D01*
X5560060Y8834120D01*
X5412740Y8831580D01*
X5283200Y8831580D01*
X5176520Y8831580D01*
X5087620Y8831580D01*
X5021580Y8829040D01*
X4978400Y8829040D01*
X4960620Y8829040D01*
X4899660Y8821420D01*
X4899660Y6596380D01*
X4899660Y4371340D01*
G04 #@! TO.C,D2*
D10*
X17756095Y4373620D02*
X17756095Y5373620D01*
X17518000Y5373620D01*
X17375142Y5326000D01*
X17279904Y5230762D01*
X17232285Y5135524D01*
X17184666Y4945048D01*
X17184666Y4802191D01*
X17232285Y4611715D01*
X17279904Y4516477D01*
X17375142Y4421239D01*
X17518000Y4373620D01*
X17756095Y4373620D01*
X16803714Y5278381D02*
X16756095Y5326000D01*
X16660857Y5373620D01*
X16422761Y5373620D01*
X16327523Y5326000D01*
X16279904Y5278381D01*
X16232285Y5183143D01*
X16232285Y5087905D01*
X16279904Y4945048D01*
X16851333Y4373620D01*
X16232285Y4373620D01*
G04 #@! TO.C,J1*
X23701333Y21991120D02*
X23701333Y21276834D01*
X23748952Y21133977D01*
X23844190Y21038739D01*
X23987047Y20991120D01*
X24082285Y20991120D01*
X22701333Y20991120D02*
X23272761Y20991120D01*
X22987047Y20991120D02*
X22987047Y21991120D01*
X23082285Y21848262D01*
X23177523Y21753024D01*
X23272761Y21705405D01*
G04 #@! TO.C,J2*
X1857333Y22074120D02*
X1857333Y21359834D01*
X1904952Y21216977D01*
X2000190Y21121739D01*
X2143047Y21074120D01*
X2238285Y21074120D01*
X1428761Y21978881D02*
X1381142Y22026500D01*
X1285904Y22074120D01*
X1047809Y22074120D01*
X952571Y22026500D01*
X904952Y21978881D01*
X857333Y21883643D01*
X857333Y21788405D01*
X904952Y21645548D01*
X1476380Y21074120D01*
X857333Y21074120D01*
G04 #@! TO.C,*
G04 #@! TD*
M02*
