G04 #@! TF.GenerationSoftware,KiCad,Pcbnew,5.0.0*
G04 #@! TF.CreationDate,2018-07-29T13:09:23+02:00*
G04 #@! TF.ProjectId,PTL-IR_remote,50544C2D49525F72656D6F74652E6B69,v1.1*
G04 #@! TF.SameCoordinates,PXa4b7f80PY71d9820*
G04 #@! TF.FileFunction,Legend,Top*
G04 #@! TF.FilePolarity,Positive*
%FSLAX46Y46*%
G04 Gerber Fmt 4.6, Leading zero omitted, Abs format (unit mm)*
G04 Created by KiCad (PCBNEW 5.0.0) date Sun Jul 29 13:09:23 2018*
%MOMM*%
%LPD*%
G01*
G04 APERTURE LIST*
%ADD10C,0.150000*%
%ADD11C,0.200000*%
%ADD12C,0.120000*%
G04 APERTURE END LIST*
D10*
X16652380Y26676191D02*
X16652380Y26866667D01*
X16700000Y26961905D01*
X16795238Y27057143D01*
X16985714Y27104762D01*
X17319047Y27104762D01*
X17509523Y27057143D01*
X17604761Y26961905D01*
X17652380Y26866667D01*
X17652380Y26676191D01*
X17604761Y26580953D01*
X17509523Y26485715D01*
X17319047Y26438096D01*
X16985714Y26438096D01*
X16795238Y26485715D01*
X16700000Y26580953D01*
X16652380Y26676191D01*
X16985714Y27533334D02*
X17652380Y27533334D01*
X17080952Y27533334D02*
X17033333Y27580953D01*
X16985714Y27676191D01*
X16985714Y27819048D01*
X17033333Y27914286D01*
X17128571Y27961905D01*
X17652380Y27961905D01*
X17604761Y28819048D02*
X17652380Y28723810D01*
X17652380Y28533334D01*
X17604761Y28438096D01*
X17509523Y28390477D01*
X17128571Y28390477D01*
X17033333Y28438096D01*
X16985714Y28533334D01*
X16985714Y28723810D01*
X17033333Y28819048D01*
X17128571Y28866667D01*
X17223809Y28866667D01*
X17319047Y28390477D01*
X16652380Y29200000D02*
X17652380Y29438096D01*
X16938095Y29628572D01*
X17652380Y29819048D01*
X16652380Y30057143D01*
X17652380Y30438096D02*
X16985714Y30438096D01*
X16652380Y30438096D02*
X16700000Y30390477D01*
X16747619Y30438096D01*
X16700000Y30485715D01*
X16652380Y30438096D01*
X16747619Y30438096D01*
X17652380Y30914286D02*
X16985714Y30914286D01*
X17176190Y30914286D02*
X17080952Y30961905D01*
X17033333Y31009524D01*
X16985714Y31104762D01*
X16985714Y31200000D01*
X17604761Y31914286D02*
X17652380Y31819048D01*
X17652380Y31628572D01*
X17604761Y31533334D01*
X17509523Y31485715D01*
X17128571Y31485715D01*
X17033333Y31533334D01*
X16985714Y31628572D01*
X16985714Y31819048D01*
X17033333Y31914286D01*
X17128571Y31961905D01*
X17223809Y31961905D01*
X17319047Y31485715D01*
X4952380Y26261905D02*
X3952380Y26261905D01*
X4333333Y26261905D02*
X4285714Y26357143D01*
X4285714Y26547620D01*
X4333333Y26642858D01*
X4380952Y26690477D01*
X4476190Y26738096D01*
X4761904Y26738096D01*
X4857142Y26690477D01*
X4904761Y26642858D01*
X4952380Y26547620D01*
X4952380Y26357143D01*
X4904761Y26261905D01*
X4952380Y27166667D02*
X4285714Y27166667D01*
X4380952Y27166667D02*
X4333333Y27214286D01*
X4285714Y27309524D01*
X4285714Y27452381D01*
X4333333Y27547620D01*
X4428571Y27595239D01*
X4952380Y27595239D01*
X4428571Y27595239D02*
X4333333Y27642858D01*
X4285714Y27738096D01*
X4285714Y27880953D01*
X4333333Y27976191D01*
X4428571Y28023810D01*
X4952380Y28023810D01*
X4904761Y28880953D02*
X4952380Y28785715D01*
X4952380Y28595239D01*
X4904761Y28500000D01*
X4809523Y28452381D01*
X4428571Y28452381D01*
X4333333Y28500000D01*
X4285714Y28595239D01*
X4285714Y28785715D01*
X4333333Y28880953D01*
X4428571Y28928572D01*
X4523809Y28928572D01*
X4619047Y28452381D01*
X4047619Y29309524D02*
X4000000Y29357143D01*
X3952380Y29452381D01*
X3952380Y29690477D01*
X4000000Y29785715D01*
X4047619Y29833334D01*
X4142857Y29880953D01*
X4238095Y29880953D01*
X4380952Y29833334D01*
X4952380Y29261905D01*
X4952380Y29880953D01*
X4380952Y30452381D02*
X4333333Y30357143D01*
X4285714Y30309524D01*
X4190476Y30261905D01*
X4142857Y30261905D01*
X4047619Y30309524D01*
X4000000Y30357143D01*
X3952380Y30452381D01*
X3952380Y30642858D01*
X4000000Y30738096D01*
X4047619Y30785715D01*
X4142857Y30833334D01*
X4190476Y30833334D01*
X4285714Y30785715D01*
X4333333Y30738096D01*
X4380952Y30642858D01*
X4380952Y30452381D01*
X4428571Y30357143D01*
X4476190Y30309524D01*
X4571428Y30261905D01*
X4761904Y30261905D01*
X4857142Y30309524D01*
X4904761Y30357143D01*
X4952380Y30452381D01*
X4952380Y30642858D01*
X4904761Y30738096D01*
X4857142Y30785715D01*
X4761904Y30833334D01*
X4571428Y30833334D01*
X4476190Y30785715D01*
X4428571Y30738096D01*
X4380952Y30642858D01*
X3952380Y31452381D02*
X3952380Y31547620D01*
X4000000Y31642858D01*
X4047619Y31690477D01*
X4142857Y31738096D01*
X4333333Y31785715D01*
X4571428Y31785715D01*
X4761904Y31738096D01*
X4857142Y31690477D01*
X4904761Y31642858D01*
X4952380Y31547620D01*
X4952380Y31452381D01*
X4904761Y31357143D01*
X4857142Y31309524D01*
X4761904Y31261905D01*
X4571428Y31214286D01*
X4333333Y31214286D01*
X4142857Y31261905D01*
X4047619Y31309524D01*
X4000000Y31357143D01*
X3952380Y31452381D01*
D11*
X18224500Y37211000D02*
X18224500Y17653000D01*
X3111500Y17716500D02*
X3111500Y37211000D01*
D12*
G04 #@! TO.C,U1*
X3861000Y1786000D02*
X4261000Y2286000D01*
X3861000Y2786000D02*
X3861000Y1786000D01*
X4261000Y2286000D02*
X3861000Y2786000D01*
X10561000Y886000D02*
X10561000Y1086000D01*
X5361000Y886000D02*
X5361000Y1086000D01*
X10701000Y1136000D02*
X5301000Y1136000D01*
X10701000Y3386000D02*
X5301000Y3386000D01*
X5981000Y-1264000D02*
X5581000Y-1264000D01*
X5981000Y-1264000D02*
X5981000Y-1664000D01*
X5981000Y-1264000D02*
X5181000Y-2064000D01*
X6981000Y-1664000D02*
X6181000Y-2464000D01*
X6981000Y-1664000D02*
X6981000Y-2064000D01*
X6981000Y-1664000D02*
X6581000Y-1664000D01*
X5361000Y886000D02*
G75*
G03X10561000Y886000I2600000J0D01*
G01*
G04 #@! TO.C,Q1*
X15660000Y6420000D02*
X15660000Y7350000D01*
X15660000Y9580000D02*
X15660000Y8650000D01*
X15660000Y9580000D02*
X13500000Y9580000D01*
X15660000Y6420000D02*
X14200000Y6420000D01*
G04 #@! TO.C,R5*
X20014000Y33965422D02*
X20014000Y34482578D01*
X18594000Y33965422D02*
X18594000Y34482578D01*
G04 #@! TO.C,R1*
X15008578Y10190000D02*
X14491422Y10190000D01*
X15008578Y11610000D02*
X14491422Y11610000D01*
G04 #@! TO.C,R2*
X14990578Y5536000D02*
X14473422Y5536000D01*
X14990578Y4116000D02*
X14473422Y4116000D01*
G04 #@! TO.C,R4*
X14990578Y941000D02*
X14473422Y941000D01*
X14990578Y2361000D02*
X14473422Y2361000D01*
G04 #@! TO.C,DHT22*
X16189000Y12570000D02*
X16189000Y15230000D01*
X8509000Y12570000D02*
X16189000Y12570000D01*
X8509000Y15230000D02*
X16189000Y15230000D01*
X8509000Y12570000D02*
X8509000Y15230000D01*
X7239000Y12570000D02*
X5909000Y12570000D01*
X5909000Y12570000D02*
X5909000Y13900000D01*
G04 #@! TO.C,D4*
X3750000Y11650000D02*
X3750000Y4350000D01*
X8100000Y11650000D02*
X9250000Y11650000D01*
X9250000Y11650000D02*
X9250000Y4350000D01*
G04 #@! TO.C,PR1*
X17550000Y13790000D02*
X17550000Y11140000D01*
X21850000Y13790000D02*
X21850000Y11140000D01*
X21834388Y13815476D02*
G75*
G03X17550000Y13790000I-2134388J-1325476D01*
G01*
X17567856Y11111973D02*
G75*
G03X21850000Y11140000I2132144J1378027D01*
G01*
G04 #@! TO.C,C1*
X11471267Y4290000D02*
X11128733Y4290000D01*
X11471267Y5310000D02*
X11128733Y5310000D01*
G04 #@! TO.C,D1*
X22294000Y2540462D02*
G75*
G02X16744000Y995170I-2990000J-462D01*
G01*
X22294000Y2539538D02*
G75*
G03X16744000Y4084830I-2990000J462D01*
G01*
X21804000Y2540000D02*
G75*
G03X21804000Y2540000I-2500000J0D01*
G01*
X16744000Y4085000D02*
X16744000Y995000D01*
G04 #@! TO.C,D3*
X11900000Y7450000D02*
X11900000Y10650000D01*
X9900000Y10650000D02*
X9900000Y7450000D01*
X9900000Y10650000D02*
X11900000Y10650000D01*
G04 #@! TO.C,bscrew*
D10*
X7352380Y23490477D02*
X6352380Y23490477D01*
X6733333Y23490477D02*
X6685714Y23585715D01*
X6685714Y23776191D01*
X6733333Y23871429D01*
X6780952Y23919048D01*
X6876190Y23966667D01*
X7161904Y23966667D01*
X7257142Y23919048D01*
X7304761Y23871429D01*
X7352380Y23776191D01*
X7352380Y23585715D01*
X7304761Y23490477D01*
X7304761Y24347620D02*
X7352380Y24442858D01*
X7352380Y24633334D01*
X7304761Y24728572D01*
X7209523Y24776191D01*
X7161904Y24776191D01*
X7066666Y24728572D01*
X7019047Y24633334D01*
X7019047Y24490477D01*
X6971428Y24395239D01*
X6876190Y24347620D01*
X6828571Y24347620D01*
X6733333Y24395239D01*
X6685714Y24490477D01*
X6685714Y24633334D01*
X6733333Y24728572D01*
X7304761Y25633334D02*
X7352380Y25538096D01*
X7352380Y25347620D01*
X7304761Y25252381D01*
X7257142Y25204762D01*
X7161904Y25157143D01*
X6876190Y25157143D01*
X6780952Y25204762D01*
X6733333Y25252381D01*
X6685714Y25347620D01*
X6685714Y25538096D01*
X6733333Y25633334D01*
X7352380Y26061905D02*
X6685714Y26061905D01*
X6876190Y26061905D02*
X6780952Y26109524D01*
X6733333Y26157143D01*
X6685714Y26252381D01*
X6685714Y26347620D01*
X7304761Y27061905D02*
X7352380Y26966667D01*
X7352380Y26776191D01*
X7304761Y26680953D01*
X7209523Y26633334D01*
X6828571Y26633334D01*
X6733333Y26680953D01*
X6685714Y26776191D01*
X6685714Y26966667D01*
X6733333Y27061905D01*
X6828571Y27109524D01*
X6923809Y27109524D01*
X7019047Y26633334D01*
X6685714Y27442858D02*
X7352380Y27633334D01*
X6876190Y27823810D01*
X7352380Y28014286D01*
X6685714Y28204762D01*
G04 #@! TO.C,3V3*
X18752380Y35961905D02*
X18752380Y36580953D01*
X19133333Y36247620D01*
X19133333Y36390477D01*
X19180952Y36485715D01*
X19228571Y36533334D01*
X19323809Y36580953D01*
X19561904Y36580953D01*
X19657142Y36533334D01*
X19704761Y36485715D01*
X19752380Y36390477D01*
X19752380Y36104762D01*
X19704761Y36009524D01*
X19657142Y35961905D01*
X18752380Y36866667D02*
X19752380Y37200000D01*
X18752380Y37533334D01*
X18752380Y37771429D02*
X18752380Y38390477D01*
X19133333Y38057143D01*
X19133333Y38200000D01*
X19180952Y38295239D01*
X19228571Y38342858D01*
X19323809Y38390477D01*
X19561904Y38390477D01*
X19657142Y38342858D01*
X19704761Y38295239D01*
X19752380Y38200000D01*
X19752380Y37914286D01*
X19704761Y37819048D01*
X19657142Y37771429D01*
G04 #@! TO.C,Din*
X19852380Y30247620D02*
X18852380Y30247620D01*
X18852380Y30485715D01*
X18900000Y30628572D01*
X18995238Y30723810D01*
X19090476Y30771429D01*
X19280952Y30819048D01*
X19423809Y30819048D01*
X19614285Y30771429D01*
X19709523Y30723810D01*
X19804761Y30628572D01*
X19852380Y30485715D01*
X19852380Y30247620D01*
X19852380Y31247620D02*
X19185714Y31247620D01*
X18852380Y31247620D02*
X18900000Y31200000D01*
X18947619Y31247620D01*
X18900000Y31295239D01*
X18852380Y31247620D01*
X18947619Y31247620D01*
X19185714Y31723810D02*
X19852380Y31723810D01*
X19280952Y31723810D02*
X19233333Y31771429D01*
X19185714Y31866667D01*
X19185714Y32009524D01*
X19233333Y32104762D01*
X19328571Y32152381D01*
X19852380Y32152381D01*
G04 #@! TO.C,GND*
X18800000Y26038096D02*
X18752380Y25942858D01*
X18752380Y25800000D01*
X18800000Y25657143D01*
X18895238Y25561905D01*
X18990476Y25514286D01*
X19180952Y25466667D01*
X19323809Y25466667D01*
X19514285Y25514286D01*
X19609523Y25561905D01*
X19704761Y25657143D01*
X19752380Y25800000D01*
X19752380Y25895239D01*
X19704761Y26038096D01*
X19657142Y26085715D01*
X19323809Y26085715D01*
X19323809Y25895239D01*
X19752380Y26514286D02*
X18752380Y26514286D01*
X19752380Y27085715D01*
X18752380Y27085715D01*
X19752380Y27561905D02*
X18752380Y27561905D01*
X18752380Y27800000D01*
X18800000Y27942858D01*
X18895238Y28038096D01*
X18990476Y28085715D01*
X19180952Y28133334D01*
X19323809Y28133334D01*
X19514285Y28085715D01*
X19609523Y28038096D01*
X19704761Y27942858D01*
X19752380Y27800000D01*
X19752380Y27561905D01*
G04 #@! TO.C,U1*
X7299095Y4733620D02*
X7299095Y3924096D01*
X7346714Y3828858D01*
X7394333Y3781239D01*
X7489571Y3733620D01*
X7680047Y3733620D01*
X7775285Y3781239D01*
X7822904Y3828858D01*
X7870523Y3924096D01*
X7870523Y4733620D01*
X8870523Y3733620D02*
X8299095Y3733620D01*
X8584809Y3733620D02*
X8584809Y4733620D01*
X8489571Y4590762D01*
X8394333Y4495524D01*
X8299095Y4447905D01*
G04 #@! TO.C,Q1*
X17647619Y9204762D02*
X17600000Y9109524D01*
X17504761Y9014286D01*
X17361904Y8871429D01*
X17314285Y8776191D01*
X17314285Y8680953D01*
X17552380Y8728572D02*
X17504761Y8633334D01*
X17409523Y8538096D01*
X17219047Y8490477D01*
X16885714Y8490477D01*
X16695238Y8538096D01*
X16600000Y8633334D01*
X16552380Y8728572D01*
X16552380Y8919048D01*
X16600000Y9014286D01*
X16695238Y9109524D01*
X16885714Y9157143D01*
X17219047Y9157143D01*
X17409523Y9109524D01*
X17504761Y9014286D01*
X17552380Y8919048D01*
X17552380Y8728572D01*
X17552380Y10109524D02*
X17552380Y9538096D01*
X17552380Y9823810D02*
X16552380Y9823810D01*
X16695238Y9728572D01*
X16790476Y9633334D01*
X16838095Y9538096D01*
G04 #@! TO.C,R5*
X17652380Y34233334D02*
X17176190Y33900000D01*
X17652380Y33661905D02*
X16652380Y33661905D01*
X16652380Y34042858D01*
X16700000Y34138096D01*
X16747619Y34185715D01*
X16842857Y34233334D01*
X16985714Y34233334D01*
X17080952Y34185715D01*
X17128571Y34138096D01*
X17176190Y34042858D01*
X17176190Y33661905D01*
X16652380Y35138096D02*
X16652380Y34661905D01*
X17128571Y34614286D01*
X17080952Y34661905D01*
X17033333Y34757143D01*
X17033333Y34995239D01*
X17080952Y35090477D01*
X17128571Y35138096D01*
X17223809Y35185715D01*
X17461904Y35185715D01*
X17557142Y35138096D01*
X17604761Y35090477D01*
X17652380Y34995239D01*
X17652380Y34757143D01*
X17604761Y34661905D01*
X17557142Y34614286D01*
G04 #@! TO.C,R1*
X13052380Y10933334D02*
X12576190Y10600000D01*
X13052380Y10361905D02*
X12052380Y10361905D01*
X12052380Y10742858D01*
X12100000Y10838096D01*
X12147619Y10885715D01*
X12242857Y10933334D01*
X12385714Y10933334D01*
X12480952Y10885715D01*
X12528571Y10838096D01*
X12576190Y10742858D01*
X12576190Y10361905D01*
X13052380Y11885715D02*
X13052380Y11314286D01*
X13052380Y11600000D02*
X12052380Y11600000D01*
X12195238Y11504762D01*
X12290476Y11409524D01*
X12338095Y11314286D01*
G04 #@! TO.C,R2*
X14433333Y2747620D02*
X14100000Y3223810D01*
X13861904Y2747620D02*
X13861904Y3747620D01*
X14242857Y3747620D01*
X14338095Y3700000D01*
X14385714Y3652381D01*
X14433333Y3557143D01*
X14433333Y3414286D01*
X14385714Y3319048D01*
X14338095Y3271429D01*
X14242857Y3223810D01*
X13861904Y3223810D01*
X14814285Y3652381D02*
X14861904Y3700000D01*
X14957142Y3747620D01*
X15195238Y3747620D01*
X15290476Y3700000D01*
X15338095Y3652381D01*
X15385714Y3557143D01*
X15385714Y3461905D01*
X15338095Y3319048D01*
X14766666Y2747620D01*
X15385714Y2747620D01*
G04 #@! TO.C,R4*
X12852380Y1333334D02*
X12376190Y1000000D01*
X12852380Y761905D02*
X11852380Y761905D01*
X11852380Y1142858D01*
X11900000Y1238096D01*
X11947619Y1285715D01*
X12042857Y1333334D01*
X12185714Y1333334D01*
X12280952Y1285715D01*
X12328571Y1238096D01*
X12376190Y1142858D01*
X12376190Y761905D01*
X12185714Y2190477D02*
X12852380Y2190477D01*
X11804761Y1952381D02*
X12519047Y1714286D01*
X12519047Y2333334D01*
G04 #@! TO.C,DHT22*
X9080952Y19347620D02*
X9080952Y20347620D01*
X9319047Y20347620D01*
X9461904Y20300000D01*
X9557142Y20204762D01*
X9604761Y20109524D01*
X9652380Y19919048D01*
X9652380Y19776191D01*
X9604761Y19585715D01*
X9557142Y19490477D01*
X9461904Y19395239D01*
X9319047Y19347620D01*
X9080952Y19347620D01*
X10080952Y19347620D02*
X10080952Y20347620D01*
X10080952Y19871429D02*
X10652380Y19871429D01*
X10652380Y19347620D02*
X10652380Y20347620D01*
X10985714Y20347620D02*
X11557142Y20347620D01*
X11271428Y19347620D02*
X11271428Y20347620D01*
X11842857Y20252381D02*
X11890476Y20300000D01*
X11985714Y20347620D01*
X12223809Y20347620D01*
X12319047Y20300000D01*
X12366666Y20252381D01*
X12414285Y20157143D01*
X12414285Y20061905D01*
X12366666Y19919048D01*
X11795238Y19347620D01*
X12414285Y19347620D01*
X12795238Y20252381D02*
X12842857Y20300000D01*
X12938095Y20347620D01*
X13176190Y20347620D01*
X13271428Y20300000D01*
X13319047Y20252381D01*
X13366666Y20157143D01*
X13366666Y20061905D01*
X13319047Y19919048D01*
X12747619Y19347620D01*
X13366666Y19347620D01*
G04 #@! TO.C,D4*
X6952380Y7161905D02*
X5952380Y7161905D01*
X5952380Y7400000D01*
X6000000Y7542858D01*
X6095238Y7638096D01*
X6190476Y7685715D01*
X6380952Y7733334D01*
X6523809Y7733334D01*
X6714285Y7685715D01*
X6809523Y7638096D01*
X6904761Y7542858D01*
X6952380Y7400000D01*
X6952380Y7161905D01*
X6285714Y8590477D02*
X6952380Y8590477D01*
X5904761Y8352381D02*
X6619047Y8114286D01*
X6619047Y8733334D01*
G04 #@! TO.C,PR1*
X18461904Y15347620D02*
X18461904Y16347620D01*
X18842857Y16347620D01*
X18938095Y16300000D01*
X18985714Y16252381D01*
X19033333Y16157143D01*
X19033333Y16014286D01*
X18985714Y15919048D01*
X18938095Y15871429D01*
X18842857Y15823810D01*
X18461904Y15823810D01*
X20033333Y15347620D02*
X19700000Y15823810D01*
X19461904Y15347620D02*
X19461904Y16347620D01*
X19842857Y16347620D01*
X19938095Y16300000D01*
X19985714Y16252381D01*
X20033333Y16157143D01*
X20033333Y16014286D01*
X19985714Y15919048D01*
X19938095Y15871429D01*
X19842857Y15823810D01*
X19461904Y15823810D01*
X20985714Y15347620D02*
X20414285Y15347620D01*
X20700000Y15347620D02*
X20700000Y16347620D01*
X20604761Y16204762D01*
X20509523Y16109524D01*
X20414285Y16061905D01*
G04 #@! TO.C,C1*
X11733333Y3042858D02*
X11685714Y2995239D01*
X11542857Y2947620D01*
X11447619Y2947620D01*
X11304761Y2995239D01*
X11209523Y3090477D01*
X11161904Y3185715D01*
X11114285Y3376191D01*
X11114285Y3519048D01*
X11161904Y3709524D01*
X11209523Y3804762D01*
X11304761Y3900000D01*
X11447619Y3947620D01*
X11542857Y3947620D01*
X11685714Y3900000D01*
X11733333Y3852381D01*
X12685714Y2947620D02*
X12114285Y2947620D01*
X12400000Y2947620D02*
X12400000Y3947620D01*
X12304761Y3804762D01*
X12209523Y3709524D01*
X12114285Y3661905D01*
G04 #@! TO.C,D1*
X18565904Y3847620D02*
X18565904Y4847620D01*
X18804000Y4847620D01*
X18946857Y4800000D01*
X19042095Y4704762D01*
X19089714Y4609524D01*
X19137333Y4419048D01*
X19137333Y4276191D01*
X19089714Y4085715D01*
X19042095Y3990477D01*
X18946857Y3895239D01*
X18804000Y3847620D01*
X18565904Y3847620D01*
X20089714Y3847620D02*
X19518285Y3847620D01*
X19804000Y3847620D02*
X19804000Y4847620D01*
X19708761Y4704762D01*
X19613523Y4609524D01*
X19518285Y4561905D01*
G04 #@! TO.C,D3*
X13252380Y7161905D02*
X12252380Y7161905D01*
X12252380Y7400000D01*
X12300000Y7542858D01*
X12395238Y7638096D01*
X12490476Y7685715D01*
X12680952Y7733334D01*
X12823809Y7733334D01*
X13014285Y7685715D01*
X13109523Y7638096D01*
X13204761Y7542858D01*
X13252380Y7400000D01*
X13252380Y7161905D01*
X12252380Y8066667D02*
X12252380Y8685715D01*
X12633333Y8352381D01*
X12633333Y8495239D01*
X12680952Y8590477D01*
X12728571Y8638096D01*
X12823809Y8685715D01*
X13061904Y8685715D01*
X13157142Y8638096D01*
X13204761Y8590477D01*
X13252380Y8495239D01*
X13252380Y8209524D01*
X13204761Y8114286D01*
X13157142Y8066667D01*
G04 #@! TO.C,JP1*
D11*
X22152380Y21466667D02*
X22866666Y21466667D01*
X23009523Y21419048D01*
X23104761Y21323810D01*
X23152380Y21180953D01*
X23152380Y21085715D01*
X23152380Y21942858D02*
X22152380Y21942858D01*
X22152380Y22323810D01*
X22200000Y22419048D01*
X22247619Y22466667D01*
X22342857Y22514286D01*
X22485714Y22514286D01*
X22580952Y22466667D01*
X22628571Y22419048D01*
X22676190Y22323810D01*
X22676190Y21942858D01*
X23152380Y23466667D02*
X23152380Y22895239D01*
X23152380Y23180953D02*
X22152380Y23180953D01*
X22295238Y23085715D01*
X22390476Y22990477D01*
X22438095Y22895239D01*
G04 #@! TO.C,dscrew*
D10*
X9019047Y33347620D02*
X9019047Y34347620D01*
X9019047Y33395239D02*
X8923809Y33347620D01*
X8733333Y33347620D01*
X8638095Y33395239D01*
X8590476Y33442858D01*
X8542857Y33538096D01*
X8542857Y33823810D01*
X8590476Y33919048D01*
X8638095Y33966667D01*
X8733333Y34014286D01*
X8923809Y34014286D01*
X9019047Y33966667D01*
X9447619Y33395239D02*
X9542857Y33347620D01*
X9733333Y33347620D01*
X9828571Y33395239D01*
X9876190Y33490477D01*
X9876190Y33538096D01*
X9828571Y33633334D01*
X9733333Y33680953D01*
X9590476Y33680953D01*
X9495238Y33728572D01*
X9447619Y33823810D01*
X9447619Y33871429D01*
X9495238Y33966667D01*
X9590476Y34014286D01*
X9733333Y34014286D01*
X9828571Y33966667D01*
X10733333Y33395239D02*
X10638095Y33347620D01*
X10447619Y33347620D01*
X10352380Y33395239D01*
X10304761Y33442858D01*
X10257142Y33538096D01*
X10257142Y33823810D01*
X10304761Y33919048D01*
X10352380Y33966667D01*
X10447619Y34014286D01*
X10638095Y34014286D01*
X10733333Y33966667D01*
X11161904Y33347620D02*
X11161904Y34014286D01*
X11161904Y33823810D02*
X11209523Y33919048D01*
X11257142Y33966667D01*
X11352380Y34014286D01*
X11447619Y34014286D01*
X12161904Y33395239D02*
X12066666Y33347620D01*
X11876190Y33347620D01*
X11780952Y33395239D01*
X11733333Y33490477D01*
X11733333Y33871429D01*
X11780952Y33966667D01*
X11876190Y34014286D01*
X12066666Y34014286D01*
X12161904Y33966667D01*
X12209523Y33871429D01*
X12209523Y33776191D01*
X11733333Y33680953D01*
X12542857Y34014286D02*
X12733333Y33347620D01*
X12923809Y33823810D01*
X13114285Y33347620D01*
X13304761Y34014286D01*
G04 #@! TD*
M02*
