M48
;DRILL file {KiCad 5.0.0} date Sat Jul 28 19:02:57 2018
;FORMAT={-:-/ absolute / inch / decimal}
FMAT,2
INCH,TZ
T1C0.0197
T2C0.0354
T3C0.0394
T4C0.0591
%
G90
G05
M72
T1
X0.1506Y0.405
X0.1906Y0.79
X0.47Y0.39
X0.66Y0.81
X0.67Y0.56
X0.84Y0.765
T2
X0.71Y0.28
X0.81Y0.28
X0.71Y0.1
X0.81Y0.1
X0.215Y0.09
X0.315Y0.09
X0.415Y0.09
T3
X0.8Y0.55
X0.8Y0.45
X0.285Y0.625
X0.385Y0.625
X0.485Y0.625
X0.585Y0.625
X0.05Y1.2675
X0.05Y1.1675
X0.05Y1.0675
X0.05Y0.9675
X0.05Y0.75
X0.05Y0.65
X0.05Y0.55
X0.05Y0.45
X0.05Y0.35
X0.05Y0.25
X0.05Y0.15
X0.05Y0.05
X0.9425Y0.7525
X0.9425Y0.6525
X0.9425Y0.5525
X0.9425Y0.4525
X0.9425Y0.3525
X0.9425Y0.2525
X0.9425Y0.1525
X0.9425Y0.0525
T4
X0.44Y1.54
X0.9Y1.25
X0.9Y1.45
X0.9Y1.05
T0
M30
