G04 #@! TF.GenerationSoftware,KiCad,Pcbnew,5.0.0*
G04 #@! TF.CreationDate,2018-07-28T11:39:45+02:00*
G04 #@! TF.ProjectId,PTL-IR_remote,50544C2D49525F72656D6F74652E6B69,v1.1*
G04 #@! TF.SameCoordinates,Original*
G04 #@! TF.FileFunction,Copper,L2,Bot,Signal*
G04 #@! TF.FilePolarity,Positive*
%FSLAX46Y46*%
G04 Gerber Fmt 4.6, Leading zero omitted, Abs format (unit mm)*
G04 Created by KiCad (PCBNEW 5.0.0) date Sat Jul 28 11:39:45 2018*
%MOMM*%
%LPD*%
G01*
G04 APERTURE LIST*
G04 #@! TA.AperFunction,ComponentPad*
%ADD10C,4.000500*%
G04 #@! TD*
G04 #@! TA.AperFunction,ComponentPad*
%ADD11R,1.800000X1.800000*%
G04 #@! TD*
G04 #@! TA.AperFunction,ComponentPad*
%ADD12C,1.800000*%
G04 #@! TD*
G04 #@! TA.AperFunction,ComponentPad*
%ADD13R,1.700000X1.700000*%
G04 #@! TD*
G04 #@! TA.AperFunction,ComponentPad*
%ADD14O,1.700000X1.700000*%
G04 #@! TD*
G04 #@! TA.AperFunction,ViaPad*
%ADD15C,0.600000*%
G04 #@! TD*
G04 #@! TA.AperFunction,Conductor*
%ADD16C,0.300000*%
G04 #@! TD*
G04 #@! TA.AperFunction,Conductor*
%ADD17C,0.500000*%
G04 #@! TD*
G04 #@! TA.AperFunction,Conductor*
%ADD18C,0.400000*%
G04 #@! TD*
G04 #@! TA.AperFunction,Conductor*
%ADD19C,0.254000*%
G04 #@! TD*
G04 APERTURE END LIST*
D10*
G04 #@! TO.P,3V3,1*
G04 #@! TO.N,+3V3*
X195580000Y-82550000D03*
G04 #@! TD*
G04 #@! TO.P,D6,1*
G04 #@! TO.N,Net-(J5-Pad1)*
X195580000Y-87630000D03*
G04 #@! TD*
G04 #@! TO.P,Gnd,1*
G04 #@! TO.N,GND*
X195580000Y-92710000D03*
G04 #@! TD*
D11*
G04 #@! TO.P,D1,1*
G04 #@! TO.N,Net-(D1-Pad1)*
X190754000Y-116840000D03*
D12*
G04 #@! TO.P,D1,2*
G04 #@! TO.N,Net-(D1-Pad2)*
X193294000Y-116840000D03*
G04 #@! TD*
D13*
G04 #@! TO.P,PR1,1*
G04 #@! TO.N,+3V3*
X193040000Y-105410000D03*
D14*
G04 #@! TO.P,PR1,2*
G04 #@! TO.N,/ADC*
X193040000Y-107950000D03*
G04 #@! TD*
D11*
G04 #@! TO.P,U1,1*
G04 #@! TO.N,/D5*
X178181000Y-117094000D03*
D12*
G04 #@! TO.P,U1,2*
G04 #@! TO.N,GND*
X180721000Y-117094000D03*
G04 #@! TO.P,U1,3*
G04 #@! TO.N,Net-(C1-Pad1)*
X183261000Y-117094000D03*
G04 #@! TD*
D11*
G04 #@! TO.P,D2,1*
G04 #@! TO.N,Net-(D1-Pad2)*
X193294000Y-112268000D03*
D12*
G04 #@! TO.P,D2,2*
G04 #@! TO.N,+5V*
X190754000Y-112268000D03*
G04 #@! TD*
D13*
G04 #@! TO.P,bme280,1*
G04 #@! TO.N,/SDA*
X173990000Y-87185500D03*
D14*
G04 #@! TO.P,bme280,2*
G04 #@! TO.N,/SCL*
X173990000Y-89725500D03*
G04 #@! TO.P,bme280,3*
G04 #@! TO.N,GND*
X173990000Y-92265500D03*
G04 #@! TO.P,bme280,4*
G04 #@! TO.N,+3V3*
X173990000Y-94805500D03*
G04 #@! TD*
D13*
G04 #@! TO.P,DHT22,1*
G04 #@! TO.N,+3V3*
X179959000Y-103505000D03*
D14*
G04 #@! TO.P,DHT22,2*
G04 #@! TO.N,/D4*
X182499000Y-103505000D03*
G04 #@! TO.P,DHT22,3*
G04 #@! TO.N,Net-(DHT22-Pad3)*
X185039000Y-103505000D03*
G04 #@! TO.P,DHT22,4*
G04 #@! TO.N,GND*
X187579000Y-103505000D03*
G04 #@! TD*
D13*
G04 #@! TO.P,J1,1*
G04 #@! TO.N,+3V3*
X196659500Y-100266500D03*
D14*
G04 #@! TO.P,J1,2*
G04 #@! TO.N,Net-(J1-Pad2)*
X196659500Y-102806500D03*
G04 #@! TO.P,J1,3*
G04 #@! TO.N,Net-(J1-Pad3)*
X196659500Y-105346500D03*
G04 #@! TO.P,J1,4*
G04 #@! TO.N,/D6*
X196659500Y-107886500D03*
G04 #@! TO.P,J1,5*
G04 #@! TO.N,/D5*
X196659500Y-110426500D03*
G04 #@! TO.P,J1,6*
G04 #@! TO.N,Net-(J1-Pad6)*
X196659500Y-112966500D03*
G04 #@! TO.P,J1,7*
G04 #@! TO.N,/ADC*
X196659500Y-115506500D03*
G04 #@! TO.P,J1,8*
G04 #@! TO.N,Net-(J1-Pad8)*
X196659500Y-118046500D03*
G04 #@! TD*
D13*
G04 #@! TO.P,J2,1*
G04 #@! TO.N,Net-(J2-Pad1)*
X173990000Y-118110000D03*
D14*
G04 #@! TO.P,J2,2*
G04 #@! TO.N,/RX*
X173990000Y-115570000D03*
G04 #@! TO.P,J2,3*
G04 #@! TO.N,/SCL*
X173990000Y-113030000D03*
G04 #@! TO.P,J2,4*
G04 #@! TO.N,/SDA*
X173990000Y-110490000D03*
G04 #@! TO.P,J2,5*
G04 #@! TO.N,Net-(J2-Pad5)*
X173990000Y-107950000D03*
G04 #@! TO.P,J2,6*
G04 #@! TO.N,/D4*
X173990000Y-105410000D03*
G04 #@! TO.P,J2,7*
G04 #@! TO.N,GND*
X173990000Y-102870000D03*
G04 #@! TO.P,J2,8*
G04 #@! TO.N,+5V*
X173990000Y-100330000D03*
G04 #@! TD*
D10*
G04 #@! TO.P,screw,1*
G04 #@! TO.N,N/C*
X183896000Y-80264000D03*
G04 #@! TD*
D15*
G04 #@! TO.N,+3V3*
X177561000Y-99314000D03*
G04 #@! TO.N,GND*
X189484000Y-98806000D03*
G04 #@! TO.N,+5V*
X189738000Y-105156000D03*
G04 #@! TO.N,/SDA*
X176545000Y-109093000D03*
G04 #@! TO.N,/D6*
X194056000Y-99949000D03*
G04 #@! TO.N,Net-(J2-Pad5)*
X184658000Y-109474000D03*
G04 #@! TD*
D16*
G04 #@! TO.N,/ADC*
X193040000Y-107950000D02*
X193040000Y-109152081D01*
X195072000Y-113919000D02*
X196659500Y-115506500D01*
X195072000Y-111184081D02*
X195072000Y-113919000D01*
X193040000Y-109152081D02*
X195072000Y-111184081D01*
D17*
G04 #@! TO.N,+3V3*
X173990000Y-94805500D02*
X173990000Y-96007581D01*
X173990000Y-96007581D02*
X173990000Y-97028000D01*
X173990000Y-97028000D02*
X176276000Y-99314000D01*
X176276000Y-99314000D02*
X177561000Y-99314000D01*
D18*
G04 #@! TO.N,GND*
X173990000Y-102870000D02*
X174815500Y-102044500D01*
X174815500Y-102044500D02*
X186118500Y-102044500D01*
X186118500Y-102044500D02*
X187579000Y-103505000D01*
D17*
X191770000Y-96520000D02*
X189484000Y-98806000D01*
X195580000Y-92710000D02*
X191770000Y-96520000D01*
X174434500Y-92710000D02*
X173990000Y-92265500D01*
X195580000Y-92710000D02*
X174434500Y-92710000D01*
G04 #@! TO.N,+5V*
X189738000Y-100330000D02*
X173990000Y-100330000D01*
X190754000Y-101346000D02*
X189738000Y-100330000D01*
X190037999Y-104856001D02*
X190754000Y-104140000D01*
X189738000Y-105156000D02*
X190037999Y-104856001D01*
X190754000Y-112268000D02*
X190754000Y-104140000D01*
X190754000Y-104140000D02*
X190754000Y-101346000D01*
D16*
G04 #@! TO.N,/D4*
X182499000Y-103505000D02*
X182499000Y-103568500D01*
X182499000Y-103568500D02*
X180657500Y-105410000D01*
X180657500Y-105410000D02*
X173990000Y-105410000D01*
G04 #@! TO.N,/SDA*
X175148000Y-110490000D02*
X173990000Y-110490000D01*
X176545000Y-109093000D02*
X175148000Y-110490000D01*
G04 #@! TO.N,/D6*
X194056000Y-99949000D02*
X194818000Y-100711000D01*
X194818000Y-106045000D02*
X196659500Y-107886500D01*
X194818000Y-100711000D02*
X194818000Y-106045000D01*
D17*
G04 #@! TO.N,Net-(J2-Pad5)*
X173990000Y-107950000D02*
X183134000Y-107950000D01*
X183134000Y-107950000D02*
X184658000Y-109474000D01*
G04 #@! TD*
D19*
G04 #@! TO.N,GND*
G36*
X189869001Y-101712580D02*
X189869000Y-103773421D01*
X189473845Y-104168577D01*
X189329078Y-104313344D01*
X189208365Y-104363345D01*
X188945345Y-104626365D01*
X188803000Y-104970017D01*
X188803000Y-105341983D01*
X188945345Y-105685635D01*
X189208365Y-105948655D01*
X189552017Y-106091000D01*
X189869001Y-106091000D01*
X189869000Y-110982183D01*
X189452690Y-111398493D01*
X189219000Y-111962670D01*
X189219000Y-112573330D01*
X189452690Y-113137507D01*
X189884493Y-113569310D01*
X190448670Y-113803000D01*
X191059330Y-113803000D01*
X191623507Y-113569310D01*
X191792725Y-113400092D01*
X191795843Y-113415765D01*
X191936191Y-113625809D01*
X192146235Y-113766157D01*
X192394000Y-113815440D01*
X194194000Y-113815440D01*
X194287001Y-113796941D01*
X194287001Y-113841683D01*
X194271622Y-113919000D01*
X194332546Y-114225291D01*
X194462251Y-114419408D01*
X194462254Y-114419411D01*
X194506048Y-114484953D01*
X194571590Y-114528747D01*
X195212425Y-115169582D01*
X195145408Y-115506500D01*
X195260661Y-116085918D01*
X195588875Y-116577125D01*
X195887261Y-116776500D01*
X195588875Y-116975875D01*
X195260661Y-117467082D01*
X195145408Y-118046500D01*
X195260661Y-118625918D01*
X195290116Y-118670000D01*
X175487440Y-118670000D01*
X175487440Y-117260000D01*
X175438157Y-117012235D01*
X175297809Y-116802191D01*
X175087765Y-116661843D01*
X175042381Y-116652816D01*
X175060625Y-116640625D01*
X175359050Y-116194000D01*
X176633560Y-116194000D01*
X176633560Y-117994000D01*
X176682843Y-118241765D01*
X176823191Y-118451809D01*
X177033235Y-118592157D01*
X177281000Y-118641440D01*
X179081000Y-118641440D01*
X179328765Y-118592157D01*
X179538809Y-118451809D01*
X179671058Y-118253886D01*
X179705890Y-118288718D01*
X179820447Y-118174161D01*
X179906852Y-118430643D01*
X180480336Y-118640458D01*
X181090460Y-118614839D01*
X181535148Y-118430643D01*
X181621554Y-118174159D01*
X180721000Y-117273605D01*
X180706858Y-117287748D01*
X180527253Y-117108143D01*
X180541395Y-117094000D01*
X180900605Y-117094000D01*
X181801159Y-117994554D01*
X181951562Y-117943885D01*
X181959690Y-117963507D01*
X182391493Y-118395310D01*
X182955670Y-118629000D01*
X183566330Y-118629000D01*
X184130507Y-118395310D01*
X184562310Y-117963507D01*
X184796000Y-117399330D01*
X184796000Y-116788670D01*
X184562310Y-116224493D01*
X184277817Y-115940000D01*
X189206560Y-115940000D01*
X189206560Y-117740000D01*
X189255843Y-117987765D01*
X189396191Y-118197809D01*
X189606235Y-118338157D01*
X189854000Y-118387440D01*
X191654000Y-118387440D01*
X191901765Y-118338157D01*
X192111809Y-118197809D01*
X192252157Y-117987765D01*
X192255275Y-117972092D01*
X192424493Y-118141310D01*
X192988670Y-118375000D01*
X193599330Y-118375000D01*
X194163507Y-118141310D01*
X194595310Y-117709507D01*
X194829000Y-117145330D01*
X194829000Y-116534670D01*
X194595310Y-115970493D01*
X194163507Y-115538690D01*
X193599330Y-115305000D01*
X192988670Y-115305000D01*
X192424493Y-115538690D01*
X192255275Y-115707908D01*
X192252157Y-115692235D01*
X192111809Y-115482191D01*
X191901765Y-115341843D01*
X191654000Y-115292560D01*
X189854000Y-115292560D01*
X189606235Y-115341843D01*
X189396191Y-115482191D01*
X189255843Y-115692235D01*
X189206560Y-115940000D01*
X184277817Y-115940000D01*
X184130507Y-115792690D01*
X183566330Y-115559000D01*
X182955670Y-115559000D01*
X182391493Y-115792690D01*
X181959690Y-116224493D01*
X181951562Y-116244115D01*
X181801159Y-116193446D01*
X180900605Y-117094000D01*
X180541395Y-117094000D01*
X180527253Y-117079858D01*
X180706858Y-116900253D01*
X180721000Y-116914395D01*
X181621554Y-116013841D01*
X181535148Y-115757357D01*
X180961664Y-115547542D01*
X180351540Y-115573161D01*
X179906852Y-115757357D01*
X179820447Y-116013839D01*
X179705890Y-115899282D01*
X179671058Y-115934114D01*
X179538809Y-115736191D01*
X179328765Y-115595843D01*
X179081000Y-115546560D01*
X177281000Y-115546560D01*
X177033235Y-115595843D01*
X176823191Y-115736191D01*
X176682843Y-115946235D01*
X176633560Y-116194000D01*
X175359050Y-116194000D01*
X175388839Y-116149418D01*
X175504092Y-115570000D01*
X175388839Y-114990582D01*
X175060625Y-114499375D01*
X174762239Y-114300000D01*
X175060625Y-114100625D01*
X175388839Y-113609418D01*
X175504092Y-113030000D01*
X175388839Y-112450582D01*
X175060625Y-111959375D01*
X174762239Y-111760000D01*
X175060625Y-111560625D01*
X175255483Y-111268999D01*
X175454292Y-111229454D01*
X175713953Y-111055953D01*
X175757749Y-110990408D01*
X176720158Y-110028000D01*
X176730983Y-110028000D01*
X177074635Y-109885655D01*
X177337655Y-109622635D01*
X177480000Y-109278983D01*
X177480000Y-108907017D01*
X177450170Y-108835000D01*
X182767422Y-108835000D01*
X183815345Y-109882924D01*
X183865345Y-110003635D01*
X184128365Y-110266655D01*
X184472017Y-110409000D01*
X184843983Y-110409000D01*
X185187635Y-110266655D01*
X185450655Y-110003635D01*
X185593000Y-109659983D01*
X185593000Y-109288017D01*
X185450655Y-108944365D01*
X185187635Y-108681345D01*
X185066924Y-108631345D01*
X183821425Y-107385847D01*
X183772049Y-107311951D01*
X183479310Y-107116348D01*
X183221165Y-107065000D01*
X183221161Y-107065000D01*
X183134000Y-107047663D01*
X183046839Y-107065000D01*
X175184656Y-107065000D01*
X175060625Y-106879375D01*
X174762239Y-106680000D01*
X175060625Y-106480625D01*
X175251474Y-106195000D01*
X180580188Y-106195000D01*
X180657500Y-106210378D01*
X180734812Y-106195000D01*
X180734816Y-106195000D01*
X180963792Y-106149454D01*
X181223453Y-105975953D01*
X181267249Y-105910408D01*
X182215047Y-104962610D01*
X182352744Y-104990000D01*
X182645256Y-104990000D01*
X183078418Y-104903839D01*
X183569625Y-104575625D01*
X183769000Y-104277239D01*
X183968375Y-104575625D01*
X184459582Y-104903839D01*
X184892744Y-104990000D01*
X185185256Y-104990000D01*
X185618418Y-104903839D01*
X186109625Y-104575625D01*
X186322843Y-104256522D01*
X186383817Y-104386358D01*
X186812076Y-104776645D01*
X187222110Y-104946476D01*
X187452000Y-104825155D01*
X187452000Y-103632000D01*
X187706000Y-103632000D01*
X187706000Y-104825155D01*
X187935890Y-104946476D01*
X188345924Y-104776645D01*
X188774183Y-104386358D01*
X189020486Y-103861892D01*
X188899819Y-103632000D01*
X187706000Y-103632000D01*
X187452000Y-103632000D01*
X187432000Y-103632000D01*
X187432000Y-103378000D01*
X187452000Y-103378000D01*
X187452000Y-102184845D01*
X187706000Y-102184845D01*
X187706000Y-103378000D01*
X188899819Y-103378000D01*
X189020486Y-103148108D01*
X188774183Y-102623642D01*
X188345924Y-102233355D01*
X187935890Y-102063524D01*
X187706000Y-102184845D01*
X187452000Y-102184845D01*
X187222110Y-102063524D01*
X186812076Y-102233355D01*
X186383817Y-102623642D01*
X186322843Y-102753478D01*
X186109625Y-102434375D01*
X185618418Y-102106161D01*
X185185256Y-102020000D01*
X184892744Y-102020000D01*
X184459582Y-102106161D01*
X183968375Y-102434375D01*
X183769000Y-102732761D01*
X183569625Y-102434375D01*
X183078418Y-102106161D01*
X182645256Y-102020000D01*
X182352744Y-102020000D01*
X181919582Y-102106161D01*
X181428375Y-102434375D01*
X181416184Y-102452619D01*
X181407157Y-102407235D01*
X181266809Y-102197191D01*
X181056765Y-102056843D01*
X180809000Y-102007560D01*
X179109000Y-102007560D01*
X178861235Y-102056843D01*
X178651191Y-102197191D01*
X178510843Y-102407235D01*
X178461560Y-102655000D01*
X178461560Y-104355000D01*
X178510843Y-104602765D01*
X178525700Y-104625000D01*
X175251474Y-104625000D01*
X175060625Y-104339375D01*
X174741522Y-104126157D01*
X174871358Y-104065183D01*
X175261645Y-103636924D01*
X175431476Y-103226890D01*
X175310155Y-102997000D01*
X174117000Y-102997000D01*
X174117000Y-103017000D01*
X173863000Y-103017000D01*
X173863000Y-102997000D01*
X173843000Y-102997000D01*
X173843000Y-102743000D01*
X173863000Y-102743000D01*
X173863000Y-102723000D01*
X174117000Y-102723000D01*
X174117000Y-102743000D01*
X175310155Y-102743000D01*
X175431476Y-102513110D01*
X175261645Y-102103076D01*
X174871358Y-101674817D01*
X174741522Y-101613843D01*
X175060625Y-101400625D01*
X175184656Y-101215000D01*
X189371422Y-101215000D01*
X189869001Y-101712580D01*
X189869001Y-101712580D01*
G37*
X189869001Y-101712580D02*
X189869000Y-103773421D01*
X189473845Y-104168577D01*
X189329078Y-104313344D01*
X189208365Y-104363345D01*
X188945345Y-104626365D01*
X188803000Y-104970017D01*
X188803000Y-105341983D01*
X188945345Y-105685635D01*
X189208365Y-105948655D01*
X189552017Y-106091000D01*
X189869001Y-106091000D01*
X189869000Y-110982183D01*
X189452690Y-111398493D01*
X189219000Y-111962670D01*
X189219000Y-112573330D01*
X189452690Y-113137507D01*
X189884493Y-113569310D01*
X190448670Y-113803000D01*
X191059330Y-113803000D01*
X191623507Y-113569310D01*
X191792725Y-113400092D01*
X191795843Y-113415765D01*
X191936191Y-113625809D01*
X192146235Y-113766157D01*
X192394000Y-113815440D01*
X194194000Y-113815440D01*
X194287001Y-113796941D01*
X194287001Y-113841683D01*
X194271622Y-113919000D01*
X194332546Y-114225291D01*
X194462251Y-114419408D01*
X194462254Y-114419411D01*
X194506048Y-114484953D01*
X194571590Y-114528747D01*
X195212425Y-115169582D01*
X195145408Y-115506500D01*
X195260661Y-116085918D01*
X195588875Y-116577125D01*
X195887261Y-116776500D01*
X195588875Y-116975875D01*
X195260661Y-117467082D01*
X195145408Y-118046500D01*
X195260661Y-118625918D01*
X195290116Y-118670000D01*
X175487440Y-118670000D01*
X175487440Y-117260000D01*
X175438157Y-117012235D01*
X175297809Y-116802191D01*
X175087765Y-116661843D01*
X175042381Y-116652816D01*
X175060625Y-116640625D01*
X175359050Y-116194000D01*
X176633560Y-116194000D01*
X176633560Y-117994000D01*
X176682843Y-118241765D01*
X176823191Y-118451809D01*
X177033235Y-118592157D01*
X177281000Y-118641440D01*
X179081000Y-118641440D01*
X179328765Y-118592157D01*
X179538809Y-118451809D01*
X179671058Y-118253886D01*
X179705890Y-118288718D01*
X179820447Y-118174161D01*
X179906852Y-118430643D01*
X180480336Y-118640458D01*
X181090460Y-118614839D01*
X181535148Y-118430643D01*
X181621554Y-118174159D01*
X180721000Y-117273605D01*
X180706858Y-117287748D01*
X180527253Y-117108143D01*
X180541395Y-117094000D01*
X180900605Y-117094000D01*
X181801159Y-117994554D01*
X181951562Y-117943885D01*
X181959690Y-117963507D01*
X182391493Y-118395310D01*
X182955670Y-118629000D01*
X183566330Y-118629000D01*
X184130507Y-118395310D01*
X184562310Y-117963507D01*
X184796000Y-117399330D01*
X184796000Y-116788670D01*
X184562310Y-116224493D01*
X184277817Y-115940000D01*
X189206560Y-115940000D01*
X189206560Y-117740000D01*
X189255843Y-117987765D01*
X189396191Y-118197809D01*
X189606235Y-118338157D01*
X189854000Y-118387440D01*
X191654000Y-118387440D01*
X191901765Y-118338157D01*
X192111809Y-118197809D01*
X192252157Y-117987765D01*
X192255275Y-117972092D01*
X192424493Y-118141310D01*
X192988670Y-118375000D01*
X193599330Y-118375000D01*
X194163507Y-118141310D01*
X194595310Y-117709507D01*
X194829000Y-117145330D01*
X194829000Y-116534670D01*
X194595310Y-115970493D01*
X194163507Y-115538690D01*
X193599330Y-115305000D01*
X192988670Y-115305000D01*
X192424493Y-115538690D01*
X192255275Y-115707908D01*
X192252157Y-115692235D01*
X192111809Y-115482191D01*
X191901765Y-115341843D01*
X191654000Y-115292560D01*
X189854000Y-115292560D01*
X189606235Y-115341843D01*
X189396191Y-115482191D01*
X189255843Y-115692235D01*
X189206560Y-115940000D01*
X184277817Y-115940000D01*
X184130507Y-115792690D01*
X183566330Y-115559000D01*
X182955670Y-115559000D01*
X182391493Y-115792690D01*
X181959690Y-116224493D01*
X181951562Y-116244115D01*
X181801159Y-116193446D01*
X180900605Y-117094000D01*
X180541395Y-117094000D01*
X180527253Y-117079858D01*
X180706858Y-116900253D01*
X180721000Y-116914395D01*
X181621554Y-116013841D01*
X181535148Y-115757357D01*
X180961664Y-115547542D01*
X180351540Y-115573161D01*
X179906852Y-115757357D01*
X179820447Y-116013839D01*
X179705890Y-115899282D01*
X179671058Y-115934114D01*
X179538809Y-115736191D01*
X179328765Y-115595843D01*
X179081000Y-115546560D01*
X177281000Y-115546560D01*
X177033235Y-115595843D01*
X176823191Y-115736191D01*
X176682843Y-115946235D01*
X176633560Y-116194000D01*
X175359050Y-116194000D01*
X175388839Y-116149418D01*
X175504092Y-115570000D01*
X175388839Y-114990582D01*
X175060625Y-114499375D01*
X174762239Y-114300000D01*
X175060625Y-114100625D01*
X175388839Y-113609418D01*
X175504092Y-113030000D01*
X175388839Y-112450582D01*
X175060625Y-111959375D01*
X174762239Y-111760000D01*
X175060625Y-111560625D01*
X175255483Y-111268999D01*
X175454292Y-111229454D01*
X175713953Y-111055953D01*
X175757749Y-110990408D01*
X176720158Y-110028000D01*
X176730983Y-110028000D01*
X177074635Y-109885655D01*
X177337655Y-109622635D01*
X177480000Y-109278983D01*
X177480000Y-108907017D01*
X177450170Y-108835000D01*
X182767422Y-108835000D01*
X183815345Y-109882924D01*
X183865345Y-110003635D01*
X184128365Y-110266655D01*
X184472017Y-110409000D01*
X184843983Y-110409000D01*
X185187635Y-110266655D01*
X185450655Y-110003635D01*
X185593000Y-109659983D01*
X185593000Y-109288017D01*
X185450655Y-108944365D01*
X185187635Y-108681345D01*
X185066924Y-108631345D01*
X183821425Y-107385847D01*
X183772049Y-107311951D01*
X183479310Y-107116348D01*
X183221165Y-107065000D01*
X183221161Y-107065000D01*
X183134000Y-107047663D01*
X183046839Y-107065000D01*
X175184656Y-107065000D01*
X175060625Y-106879375D01*
X174762239Y-106680000D01*
X175060625Y-106480625D01*
X175251474Y-106195000D01*
X180580188Y-106195000D01*
X180657500Y-106210378D01*
X180734812Y-106195000D01*
X180734816Y-106195000D01*
X180963792Y-106149454D01*
X181223453Y-105975953D01*
X181267249Y-105910408D01*
X182215047Y-104962610D01*
X182352744Y-104990000D01*
X182645256Y-104990000D01*
X183078418Y-104903839D01*
X183569625Y-104575625D01*
X183769000Y-104277239D01*
X183968375Y-104575625D01*
X184459582Y-104903839D01*
X184892744Y-104990000D01*
X185185256Y-104990000D01*
X185618418Y-104903839D01*
X186109625Y-104575625D01*
X186322843Y-104256522D01*
X186383817Y-104386358D01*
X186812076Y-104776645D01*
X187222110Y-104946476D01*
X187452000Y-104825155D01*
X187452000Y-103632000D01*
X187706000Y-103632000D01*
X187706000Y-104825155D01*
X187935890Y-104946476D01*
X188345924Y-104776645D01*
X188774183Y-104386358D01*
X189020486Y-103861892D01*
X188899819Y-103632000D01*
X187706000Y-103632000D01*
X187452000Y-103632000D01*
X187432000Y-103632000D01*
X187432000Y-103378000D01*
X187452000Y-103378000D01*
X187452000Y-102184845D01*
X187706000Y-102184845D01*
X187706000Y-103378000D01*
X188899819Y-103378000D01*
X189020486Y-103148108D01*
X188774183Y-102623642D01*
X188345924Y-102233355D01*
X187935890Y-102063524D01*
X187706000Y-102184845D01*
X187452000Y-102184845D01*
X187222110Y-102063524D01*
X186812076Y-102233355D01*
X186383817Y-102623642D01*
X186322843Y-102753478D01*
X186109625Y-102434375D01*
X185618418Y-102106161D01*
X185185256Y-102020000D01*
X184892744Y-102020000D01*
X184459582Y-102106161D01*
X183968375Y-102434375D01*
X183769000Y-102732761D01*
X183569625Y-102434375D01*
X183078418Y-102106161D01*
X182645256Y-102020000D01*
X182352744Y-102020000D01*
X181919582Y-102106161D01*
X181428375Y-102434375D01*
X181416184Y-102452619D01*
X181407157Y-102407235D01*
X181266809Y-102197191D01*
X181056765Y-102056843D01*
X180809000Y-102007560D01*
X179109000Y-102007560D01*
X178861235Y-102056843D01*
X178651191Y-102197191D01*
X178510843Y-102407235D01*
X178461560Y-102655000D01*
X178461560Y-104355000D01*
X178510843Y-104602765D01*
X178525700Y-104625000D01*
X175251474Y-104625000D01*
X175060625Y-104339375D01*
X174741522Y-104126157D01*
X174871358Y-104065183D01*
X175261645Y-103636924D01*
X175431476Y-103226890D01*
X175310155Y-102997000D01*
X174117000Y-102997000D01*
X174117000Y-103017000D01*
X173863000Y-103017000D01*
X173863000Y-102997000D01*
X173843000Y-102997000D01*
X173843000Y-102743000D01*
X173863000Y-102743000D01*
X173863000Y-102723000D01*
X174117000Y-102723000D01*
X174117000Y-102743000D01*
X175310155Y-102743000D01*
X175431476Y-102513110D01*
X175261645Y-102103076D01*
X174871358Y-101674817D01*
X174741522Y-101613843D01*
X175060625Y-101400625D01*
X175184656Y-101215000D01*
X189371422Y-101215000D01*
X189869001Y-101712580D01*
G36*
X181661943Y-78771251D02*
X181260750Y-79739816D01*
X181260750Y-80788184D01*
X181661943Y-81756749D01*
X182403251Y-82498057D01*
X183371816Y-82899250D01*
X184420184Y-82899250D01*
X185388749Y-82498057D01*
X186130057Y-81756749D01*
X186531250Y-80788184D01*
X186531250Y-79739816D01*
X186130057Y-78771251D01*
X185792806Y-78434000D01*
X196047910Y-78434000D01*
X197410000Y-79796092D01*
X197410000Y-80653194D01*
X197072749Y-80315943D01*
X196104184Y-79914750D01*
X195055816Y-79914750D01*
X194087251Y-80315943D01*
X193345943Y-81057251D01*
X192944750Y-82025816D01*
X192944750Y-83074184D01*
X193345943Y-84042749D01*
X194087251Y-84784057D01*
X194825862Y-85090000D01*
X194087251Y-85395943D01*
X193345943Y-86137251D01*
X192944750Y-87105816D01*
X192944750Y-88154184D01*
X193345943Y-89122749D01*
X194087251Y-89864057D01*
X194820483Y-90167772D01*
X194105203Y-90464051D01*
X193884403Y-90834798D01*
X195580000Y-92530395D01*
X195594143Y-92516253D01*
X195773748Y-92695858D01*
X195759605Y-92710000D01*
X195773748Y-92724143D01*
X195594143Y-92903748D01*
X195580000Y-92889605D01*
X193884403Y-94585202D01*
X194105203Y-94955949D01*
X195076953Y-95349367D01*
X196125287Y-95340965D01*
X197054797Y-94955949D01*
X197275596Y-94585204D01*
X197388346Y-94697954D01*
X197410000Y-94676300D01*
X197410000Y-98769060D01*
X195809500Y-98769060D01*
X195561735Y-98818343D01*
X195351691Y-98958691D01*
X195211343Y-99168735D01*
X195162060Y-99416500D01*
X195162060Y-99944903D01*
X194991000Y-99773843D01*
X194991000Y-99763017D01*
X194848655Y-99419365D01*
X194585635Y-99156345D01*
X194241983Y-99014000D01*
X193870017Y-99014000D01*
X193526365Y-99156345D01*
X193263345Y-99419365D01*
X193121000Y-99763017D01*
X193121000Y-100134983D01*
X193263345Y-100478635D01*
X193526365Y-100741655D01*
X193870017Y-100884000D01*
X193880843Y-100884000D01*
X194033000Y-101036157D01*
X194033001Y-103941004D01*
X193890000Y-103912560D01*
X192190000Y-103912560D01*
X191942235Y-103961843D01*
X191732191Y-104102191D01*
X191639000Y-104241660D01*
X191639000Y-104227161D01*
X191656337Y-104140001D01*
X191639000Y-104052841D01*
X191639000Y-101433161D01*
X191656337Y-101346000D01*
X191639000Y-101258839D01*
X191639000Y-101258835D01*
X191587652Y-101000690D01*
X191392049Y-100707951D01*
X191318156Y-100658577D01*
X190425425Y-99765847D01*
X190376049Y-99691951D01*
X190083310Y-99496348D01*
X189825165Y-99445000D01*
X189825161Y-99445000D01*
X189738000Y-99427663D01*
X189650839Y-99445000D01*
X178496000Y-99445000D01*
X178496000Y-99128017D01*
X178353655Y-98784365D01*
X178090635Y-98521345D01*
X177746983Y-98379000D01*
X177375017Y-98379000D01*
X177254306Y-98429000D01*
X176642579Y-98429000D01*
X174875000Y-96661422D01*
X174875000Y-96000156D01*
X175060625Y-95876125D01*
X175388839Y-95384918D01*
X175504092Y-94805500D01*
X175388839Y-94226082D01*
X175060625Y-93734875D01*
X174741522Y-93521657D01*
X174871358Y-93460683D01*
X175261645Y-93032424D01*
X175431476Y-92622390D01*
X175310155Y-92392500D01*
X174117000Y-92392500D01*
X174117000Y-92412500D01*
X173863000Y-92412500D01*
X173863000Y-92392500D01*
X173843000Y-92392500D01*
X173843000Y-92206953D01*
X192940633Y-92206953D01*
X192949035Y-93255287D01*
X193334051Y-94184797D01*
X193704798Y-94405597D01*
X195400395Y-92710000D01*
X193704798Y-91014403D01*
X193334051Y-91235203D01*
X192940633Y-92206953D01*
X173843000Y-92206953D01*
X173843000Y-92138500D01*
X173863000Y-92138500D01*
X173863000Y-92118500D01*
X174117000Y-92118500D01*
X174117000Y-92138500D01*
X175310155Y-92138500D01*
X175431476Y-91908610D01*
X175261645Y-91498576D01*
X174871358Y-91070317D01*
X174741522Y-91009343D01*
X175060625Y-90796125D01*
X175388839Y-90304918D01*
X175504092Y-89725500D01*
X175388839Y-89146082D01*
X175060625Y-88654875D01*
X175042381Y-88642684D01*
X175087765Y-88633657D01*
X175297809Y-88493309D01*
X175438157Y-88283265D01*
X175487440Y-88035500D01*
X175487440Y-86335500D01*
X175438157Y-86087735D01*
X175297809Y-85877691D01*
X175087765Y-85737343D01*
X174840000Y-85688060D01*
X173430000Y-85688060D01*
X173430000Y-80542022D01*
X175379921Y-78434000D01*
X181999194Y-78434000D01*
X181661943Y-78771251D01*
X181661943Y-78771251D01*
G37*
X181661943Y-78771251D02*
X181260750Y-79739816D01*
X181260750Y-80788184D01*
X181661943Y-81756749D01*
X182403251Y-82498057D01*
X183371816Y-82899250D01*
X184420184Y-82899250D01*
X185388749Y-82498057D01*
X186130057Y-81756749D01*
X186531250Y-80788184D01*
X186531250Y-79739816D01*
X186130057Y-78771251D01*
X185792806Y-78434000D01*
X196047910Y-78434000D01*
X197410000Y-79796092D01*
X197410000Y-80653194D01*
X197072749Y-80315943D01*
X196104184Y-79914750D01*
X195055816Y-79914750D01*
X194087251Y-80315943D01*
X193345943Y-81057251D01*
X192944750Y-82025816D01*
X192944750Y-83074184D01*
X193345943Y-84042749D01*
X194087251Y-84784057D01*
X194825862Y-85090000D01*
X194087251Y-85395943D01*
X193345943Y-86137251D01*
X192944750Y-87105816D01*
X192944750Y-88154184D01*
X193345943Y-89122749D01*
X194087251Y-89864057D01*
X194820483Y-90167772D01*
X194105203Y-90464051D01*
X193884403Y-90834798D01*
X195580000Y-92530395D01*
X195594143Y-92516253D01*
X195773748Y-92695858D01*
X195759605Y-92710000D01*
X195773748Y-92724143D01*
X195594143Y-92903748D01*
X195580000Y-92889605D01*
X193884403Y-94585202D01*
X194105203Y-94955949D01*
X195076953Y-95349367D01*
X196125287Y-95340965D01*
X197054797Y-94955949D01*
X197275596Y-94585204D01*
X197388346Y-94697954D01*
X197410000Y-94676300D01*
X197410000Y-98769060D01*
X195809500Y-98769060D01*
X195561735Y-98818343D01*
X195351691Y-98958691D01*
X195211343Y-99168735D01*
X195162060Y-99416500D01*
X195162060Y-99944903D01*
X194991000Y-99773843D01*
X194991000Y-99763017D01*
X194848655Y-99419365D01*
X194585635Y-99156345D01*
X194241983Y-99014000D01*
X193870017Y-99014000D01*
X193526365Y-99156345D01*
X193263345Y-99419365D01*
X193121000Y-99763017D01*
X193121000Y-100134983D01*
X193263345Y-100478635D01*
X193526365Y-100741655D01*
X193870017Y-100884000D01*
X193880843Y-100884000D01*
X194033000Y-101036157D01*
X194033001Y-103941004D01*
X193890000Y-103912560D01*
X192190000Y-103912560D01*
X191942235Y-103961843D01*
X191732191Y-104102191D01*
X191639000Y-104241660D01*
X191639000Y-104227161D01*
X191656337Y-104140001D01*
X191639000Y-104052841D01*
X191639000Y-101433161D01*
X191656337Y-101346000D01*
X191639000Y-101258839D01*
X191639000Y-101258835D01*
X191587652Y-101000690D01*
X191392049Y-100707951D01*
X191318156Y-100658577D01*
X190425425Y-99765847D01*
X190376049Y-99691951D01*
X190083310Y-99496348D01*
X189825165Y-99445000D01*
X189825161Y-99445000D01*
X189738000Y-99427663D01*
X189650839Y-99445000D01*
X178496000Y-99445000D01*
X178496000Y-99128017D01*
X178353655Y-98784365D01*
X178090635Y-98521345D01*
X177746983Y-98379000D01*
X177375017Y-98379000D01*
X177254306Y-98429000D01*
X176642579Y-98429000D01*
X174875000Y-96661422D01*
X174875000Y-96000156D01*
X175060625Y-95876125D01*
X175388839Y-95384918D01*
X175504092Y-94805500D01*
X175388839Y-94226082D01*
X175060625Y-93734875D01*
X174741522Y-93521657D01*
X174871358Y-93460683D01*
X175261645Y-93032424D01*
X175431476Y-92622390D01*
X175310155Y-92392500D01*
X174117000Y-92392500D01*
X174117000Y-92412500D01*
X173863000Y-92412500D01*
X173863000Y-92392500D01*
X173843000Y-92392500D01*
X173843000Y-92206953D01*
X192940633Y-92206953D01*
X192949035Y-93255287D01*
X193334051Y-94184797D01*
X193704798Y-94405597D01*
X195400395Y-92710000D01*
X193704798Y-91014403D01*
X193334051Y-91235203D01*
X192940633Y-92206953D01*
X173843000Y-92206953D01*
X173843000Y-92138500D01*
X173863000Y-92138500D01*
X173863000Y-92118500D01*
X174117000Y-92118500D01*
X174117000Y-92138500D01*
X175310155Y-92138500D01*
X175431476Y-91908610D01*
X175261645Y-91498576D01*
X174871358Y-91070317D01*
X174741522Y-91009343D01*
X175060625Y-90796125D01*
X175388839Y-90304918D01*
X175504092Y-89725500D01*
X175388839Y-89146082D01*
X175060625Y-88654875D01*
X175042381Y-88642684D01*
X175087765Y-88633657D01*
X175297809Y-88493309D01*
X175438157Y-88283265D01*
X175487440Y-88035500D01*
X175487440Y-86335500D01*
X175438157Y-86087735D01*
X175297809Y-85877691D01*
X175087765Y-85737343D01*
X174840000Y-85688060D01*
X173430000Y-85688060D01*
X173430000Y-80542022D01*
X175379921Y-78434000D01*
X181999194Y-78434000D01*
X181661943Y-78771251D01*
G04 #@! TD*
M02*
