G04 #@! TF.GenerationSoftware,KiCad,Pcbnew,5.0.0*
G04 #@! TF.CreationDate,2018-07-28T11:39:45+02:00*
G04 #@! TF.ProjectId,PTL-IR_remote,50544C2D49525F72656D6F74652E6B69,v1.1*
G04 #@! TF.SameCoordinates,Original*
G04 #@! TF.FileFunction,Legend,Bot*
G04 #@! TF.FilePolarity,Positive*
%FSLAX46Y46*%
G04 Gerber Fmt 4.6, Leading zero omitted, Abs format (unit mm)*
G04 Created by KiCad (PCBNEW 5.0.0) date Sat Jul 28 11:39:45 2018*
%MOMM*%
%LPD*%
G01*
G04 APERTURE LIST*
%ADD10C,0.150000*%
%ADD11C,0.120000*%
%ADD12C,0.002540*%
G04 APERTURE END LIST*
D10*
X175823619Y-106148095D02*
X176823619Y-106148095D01*
X176823619Y-105910000D01*
X176776000Y-105767142D01*
X176680761Y-105671904D01*
X176585523Y-105624285D01*
X176395047Y-105576666D01*
X176252190Y-105576666D01*
X176061714Y-105624285D01*
X175966476Y-105671904D01*
X175871238Y-105767142D01*
X175823619Y-105910000D01*
X175823619Y-106148095D01*
X176490285Y-104719523D02*
X175823619Y-104719523D01*
X176871238Y-104957619D02*
X176156952Y-105195714D01*
X176156952Y-104576666D01*
X194143333Y-116284285D02*
X194143333Y-115808095D01*
X193857619Y-116379523D02*
X194857619Y-116046190D01*
X193857619Y-115712857D01*
X194857619Y-115189047D02*
X194857619Y-115093809D01*
X194810000Y-114998571D01*
X194762380Y-114950952D01*
X194667142Y-114903333D01*
X194476666Y-114855714D01*
X194238571Y-114855714D01*
X194048095Y-114903333D01*
X193952857Y-114950952D01*
X193905238Y-114998571D01*
X193857619Y-115093809D01*
X193857619Y-115189047D01*
X193905238Y-115284285D01*
X193952857Y-115331904D01*
X194048095Y-115379523D01*
X194238571Y-115427142D01*
X194476666Y-115427142D01*
X194667142Y-115379523D01*
X194762380Y-115331904D01*
X194810000Y-115284285D01*
X194857619Y-115189047D01*
X195294095Y-99782380D02*
X194675047Y-99782380D01*
X195008380Y-100163333D01*
X194865523Y-100163333D01*
X194770285Y-100210952D01*
X194722666Y-100258571D01*
X194675047Y-100353809D01*
X194675047Y-100591904D01*
X194722666Y-100687142D01*
X194770285Y-100734761D01*
X194865523Y-100782380D01*
X195151238Y-100782380D01*
X195246476Y-100734761D01*
X195294095Y-100687142D01*
X194389333Y-99782380D02*
X194056000Y-100782380D01*
X193722666Y-99782380D01*
X193484571Y-99782380D02*
X192865523Y-99782380D01*
X193198857Y-100163333D01*
X193056000Y-100163333D01*
X192960761Y-100210952D01*
X192913142Y-100258571D01*
X192865523Y-100353809D01*
X192865523Y-100591904D01*
X192913142Y-100687142D01*
X192960761Y-100734761D01*
X193056000Y-100782380D01*
X193341714Y-100782380D01*
X193436952Y-100734761D01*
X193484571Y-100687142D01*
X176823619Y-100774476D02*
X176823619Y-101250666D01*
X176347428Y-101298285D01*
X176395047Y-101250666D01*
X176442666Y-101155428D01*
X176442666Y-100917333D01*
X176395047Y-100822095D01*
X176347428Y-100774476D01*
X176252190Y-100726857D01*
X176014095Y-100726857D01*
X175918857Y-100774476D01*
X175871238Y-100822095D01*
X175823619Y-100917333D01*
X175823619Y-101155428D01*
X175871238Y-101250666D01*
X175918857Y-101298285D01*
X176823619Y-100441142D02*
X175823619Y-100107809D01*
X176823619Y-99774476D01*
X176776000Y-102608095D02*
X176823619Y-102703333D01*
X176823619Y-102846190D01*
X176776000Y-102989047D01*
X176680761Y-103084285D01*
X176585523Y-103131904D01*
X176395047Y-103179523D01*
X176252190Y-103179523D01*
X176061714Y-103131904D01*
X175966476Y-103084285D01*
X175871238Y-102989047D01*
X175823619Y-102846190D01*
X175823619Y-102750952D01*
X175871238Y-102608095D01*
X175918857Y-102560476D01*
X176252190Y-102560476D01*
X176252190Y-102750952D01*
D11*
G04 #@! TO.C,D2*
X190351665Y-111189392D02*
G75*
G02X193584000Y-111032484I1672335J-1078608D01*
G01*
X190351665Y-113346608D02*
G75*
G03X193584000Y-113503516I1672335J1078608D01*
G01*
X190982870Y-111188163D02*
G75*
G02X193064961Y-111188000I1041130J-1079837D01*
G01*
X190982870Y-113347837D02*
G75*
G03X193064961Y-113348000I1041130J1079837D01*
G01*
X193584000Y-111032000D02*
X193584000Y-111188000D01*
X193584000Y-113348000D02*
X193584000Y-113504000D01*
G04 #@! TO.C,J1*
X197989500Y-101536500D02*
X197989500Y-119376500D01*
X197989500Y-119376500D02*
X195329500Y-119376500D01*
X195329500Y-119376500D02*
X195329500Y-101536500D01*
X195329500Y-101536500D02*
X197989500Y-101536500D01*
X197989500Y-100266500D02*
X197989500Y-98936500D01*
X197989500Y-98936500D02*
X196659500Y-98936500D01*
G04 #@! TO.C,J2*
X172660000Y-116840000D02*
X172660000Y-99000000D01*
X172660000Y-99000000D02*
X175320000Y-99000000D01*
X175320000Y-99000000D02*
X175320000Y-116840000D01*
X175320000Y-116840000D02*
X172660000Y-116840000D01*
X172660000Y-118110000D02*
X172660000Y-119440000D01*
X172660000Y-119440000D02*
X173990000Y-119440000D01*
D12*
G04 #@! TO.C,G\002A\002A\002A*
G36*
X178704240Y-112130840D02*
X178711860Y-112252760D01*
X178737260Y-112372140D01*
X178777900Y-112483900D01*
X178805840Y-112527080D01*
X178843940Y-112577880D01*
X178884580Y-112626140D01*
X178889660Y-112631220D01*
X178986180Y-112709960D01*
X179095400Y-112768380D01*
X179212240Y-112798860D01*
X179336700Y-112811560D01*
X179463700Y-112801400D01*
X179471320Y-112798860D01*
X179578000Y-112768380D01*
X179674520Y-112712500D01*
X179753260Y-112638840D01*
X179819300Y-112544860D01*
X179867560Y-112433100D01*
X179885340Y-112364520D01*
X179895500Y-112328960D01*
X179735480Y-112328960D01*
X179575460Y-112328960D01*
X179567840Y-112382300D01*
X179550060Y-112435640D01*
X179517040Y-112483900D01*
X179476400Y-112519460D01*
X179471320Y-112522000D01*
X179443380Y-112532160D01*
X179402740Y-112542320D01*
X179372260Y-112547400D01*
X179285900Y-112552480D01*
X179209700Y-112532160D01*
X179143660Y-112491520D01*
X179090320Y-112428020D01*
X179052220Y-112344200D01*
X179026820Y-112240060D01*
X179019200Y-112148620D01*
X179024280Y-112054640D01*
X179039520Y-111965740D01*
X179067460Y-111889540D01*
X179070000Y-111881920D01*
X179113180Y-111823500D01*
X179171600Y-111777780D01*
X179232560Y-111754920D01*
X179311300Y-111744760D01*
X179390040Y-111754920D01*
X179458620Y-111782860D01*
X179514500Y-111826040D01*
X179547520Y-111874300D01*
X179567840Y-111917480D01*
X179572920Y-111942880D01*
X179562760Y-111955580D01*
X179537360Y-111960660D01*
X179527200Y-111960660D01*
X179478940Y-111960660D01*
X179603400Y-112085120D01*
X179727860Y-112209580D01*
X179852320Y-112085120D01*
X179976780Y-111960660D01*
X179931060Y-111960660D01*
X179892960Y-111953040D01*
X179872640Y-111932720D01*
X179867560Y-111897160D01*
X179862480Y-111866680D01*
X179842160Y-111820960D01*
X179814220Y-111767620D01*
X179783740Y-111714280D01*
X179750720Y-111668560D01*
X179722780Y-111635540D01*
X179638960Y-111569500D01*
X179542440Y-111521240D01*
X179435760Y-111493300D01*
X179321460Y-111485680D01*
X179204620Y-111495840D01*
X179090320Y-111528860D01*
X179024280Y-111559340D01*
X178932840Y-111617760D01*
X178856640Y-111696500D01*
X178793140Y-111790480D01*
X178747420Y-111897160D01*
X178716940Y-112011460D01*
X178704240Y-112130840D01*
X178704240Y-112130840D01*
G37*
X178704240Y-112130840D02*
X178711860Y-112252760D01*
X178737260Y-112372140D01*
X178777900Y-112483900D01*
X178805840Y-112527080D01*
X178843940Y-112577880D01*
X178884580Y-112626140D01*
X178889660Y-112631220D01*
X178986180Y-112709960D01*
X179095400Y-112768380D01*
X179212240Y-112798860D01*
X179336700Y-112811560D01*
X179463700Y-112801400D01*
X179471320Y-112798860D01*
X179578000Y-112768380D01*
X179674520Y-112712500D01*
X179753260Y-112638840D01*
X179819300Y-112544860D01*
X179867560Y-112433100D01*
X179885340Y-112364520D01*
X179895500Y-112328960D01*
X179735480Y-112328960D01*
X179575460Y-112328960D01*
X179567840Y-112382300D01*
X179550060Y-112435640D01*
X179517040Y-112483900D01*
X179476400Y-112519460D01*
X179471320Y-112522000D01*
X179443380Y-112532160D01*
X179402740Y-112542320D01*
X179372260Y-112547400D01*
X179285900Y-112552480D01*
X179209700Y-112532160D01*
X179143660Y-112491520D01*
X179090320Y-112428020D01*
X179052220Y-112344200D01*
X179026820Y-112240060D01*
X179019200Y-112148620D01*
X179024280Y-112054640D01*
X179039520Y-111965740D01*
X179067460Y-111889540D01*
X179070000Y-111881920D01*
X179113180Y-111823500D01*
X179171600Y-111777780D01*
X179232560Y-111754920D01*
X179311300Y-111744760D01*
X179390040Y-111754920D01*
X179458620Y-111782860D01*
X179514500Y-111826040D01*
X179547520Y-111874300D01*
X179567840Y-111917480D01*
X179572920Y-111942880D01*
X179562760Y-111955580D01*
X179537360Y-111960660D01*
X179527200Y-111960660D01*
X179478940Y-111960660D01*
X179603400Y-112085120D01*
X179727860Y-112209580D01*
X179852320Y-112085120D01*
X179976780Y-111960660D01*
X179931060Y-111960660D01*
X179892960Y-111953040D01*
X179872640Y-111932720D01*
X179867560Y-111897160D01*
X179862480Y-111866680D01*
X179842160Y-111820960D01*
X179814220Y-111767620D01*
X179783740Y-111714280D01*
X179750720Y-111668560D01*
X179722780Y-111635540D01*
X179638960Y-111569500D01*
X179542440Y-111521240D01*
X179435760Y-111493300D01*
X179321460Y-111485680D01*
X179204620Y-111495840D01*
X179090320Y-111528860D01*
X179024280Y-111559340D01*
X178932840Y-111617760D01*
X178856640Y-111696500D01*
X178793140Y-111790480D01*
X178747420Y-111897160D01*
X178716940Y-112011460D01*
X178704240Y-112130840D01*
G36*
X181942740Y-111526320D02*
X181952900Y-111577120D01*
X181980840Y-111622840D01*
X182021480Y-111660940D01*
X182079900Y-111683800D01*
X182084980Y-111683800D01*
X182120540Y-111683800D01*
X182163720Y-111676180D01*
X182173880Y-111671100D01*
X182206900Y-111660940D01*
X182224680Y-111653320D01*
X182227220Y-111653320D01*
X182234840Y-111643160D01*
X182250080Y-111620300D01*
X182255160Y-111610140D01*
X182280560Y-111549180D01*
X182283100Y-111488220D01*
X182265320Y-111434880D01*
X182229760Y-111389160D01*
X182178960Y-111356140D01*
X182118000Y-111343440D01*
X182107840Y-111343440D01*
X182046880Y-111353600D01*
X181998620Y-111384080D01*
X181965600Y-111424720D01*
X181947820Y-111472980D01*
X181942740Y-111526320D01*
X181942740Y-111526320D01*
G37*
X181942740Y-111526320D02*
X181952900Y-111577120D01*
X181980840Y-111622840D01*
X182021480Y-111660940D01*
X182079900Y-111683800D01*
X182084980Y-111683800D01*
X182120540Y-111683800D01*
X182163720Y-111676180D01*
X182173880Y-111671100D01*
X182206900Y-111660940D01*
X182224680Y-111653320D01*
X182227220Y-111653320D01*
X182234840Y-111643160D01*
X182250080Y-111620300D01*
X182255160Y-111610140D01*
X182280560Y-111549180D01*
X182283100Y-111488220D01*
X182265320Y-111434880D01*
X182229760Y-111389160D01*
X182178960Y-111356140D01*
X182118000Y-111343440D01*
X182107840Y-111343440D01*
X182046880Y-111353600D01*
X181998620Y-111384080D01*
X181965600Y-111424720D01*
X181947820Y-111472980D01*
X181942740Y-111526320D01*
G36*
X181780180Y-111869220D02*
X181782720Y-111909860D01*
X181782720Y-111965740D01*
X181782720Y-112034320D01*
X181782720Y-112100360D01*
X181785260Y-112328960D01*
X181851300Y-112334040D01*
X181917340Y-112336580D01*
X181922420Y-112633760D01*
X181924960Y-112928400D01*
X182115460Y-112928400D01*
X182308500Y-112928400D01*
X182308500Y-112628680D01*
X182308500Y-112328960D01*
X182361840Y-112331500D01*
X182399940Y-112331500D01*
X182427880Y-112331500D01*
X182432960Y-112331500D01*
X182438040Y-112323880D01*
X182443120Y-112303560D01*
X182445660Y-112268000D01*
X182448200Y-112212120D01*
X182448200Y-112135920D01*
X182448200Y-112069880D01*
X182448200Y-111980980D01*
X182448200Y-111909860D01*
X182445660Y-111859060D01*
X182440580Y-111826040D01*
X182438040Y-111800640D01*
X182430420Y-111785400D01*
X182427880Y-111782860D01*
X182420260Y-111775240D01*
X182412640Y-111767620D01*
X182397400Y-111762540D01*
X182374540Y-111760000D01*
X182341520Y-111757460D01*
X182290720Y-111754920D01*
X182222140Y-111754920D01*
X182130700Y-111754920D01*
X182115460Y-111754920D01*
X182016400Y-111754920D01*
X181937660Y-111757460D01*
X181879240Y-111760000D01*
X181836060Y-111765080D01*
X181808120Y-111772700D01*
X181792880Y-111785400D01*
X181785260Y-111803180D01*
X181782720Y-111826040D01*
X181780180Y-111851440D01*
X181780180Y-111869220D01*
X181780180Y-111869220D01*
G37*
X181780180Y-111869220D02*
X181782720Y-111909860D01*
X181782720Y-111965740D01*
X181782720Y-112034320D01*
X181782720Y-112100360D01*
X181785260Y-112328960D01*
X181851300Y-112334040D01*
X181917340Y-112336580D01*
X181922420Y-112633760D01*
X181924960Y-112928400D01*
X182115460Y-112928400D01*
X182308500Y-112928400D01*
X182308500Y-112628680D01*
X182308500Y-112328960D01*
X182361840Y-112331500D01*
X182399940Y-112331500D01*
X182427880Y-112331500D01*
X182432960Y-112331500D01*
X182438040Y-112323880D01*
X182443120Y-112303560D01*
X182445660Y-112268000D01*
X182448200Y-112212120D01*
X182448200Y-112135920D01*
X182448200Y-112069880D01*
X182448200Y-111980980D01*
X182448200Y-111909860D01*
X182445660Y-111859060D01*
X182440580Y-111826040D01*
X182438040Y-111800640D01*
X182430420Y-111785400D01*
X182427880Y-111782860D01*
X182420260Y-111775240D01*
X182412640Y-111767620D01*
X182397400Y-111762540D01*
X182374540Y-111760000D01*
X182341520Y-111757460D01*
X182290720Y-111754920D01*
X182222140Y-111754920D01*
X182130700Y-111754920D01*
X182115460Y-111754920D01*
X182016400Y-111754920D01*
X181937660Y-111757460D01*
X181879240Y-111760000D01*
X181836060Y-111765080D01*
X181808120Y-111772700D01*
X181792880Y-111785400D01*
X181785260Y-111803180D01*
X181782720Y-111826040D01*
X181780180Y-111851440D01*
X181780180Y-111869220D01*
G36*
X184459880Y-112877600D02*
X184459880Y-112892840D01*
X184475120Y-112920780D01*
X184490360Y-112943640D01*
X184564020Y-113024920D01*
X184645300Y-113080800D01*
X184736740Y-113118900D01*
X184840880Y-113134140D01*
X184957720Y-113131600D01*
X185054240Y-113113820D01*
X185138060Y-113078260D01*
X185214260Y-113024920D01*
X185226960Y-113012220D01*
X185293000Y-112933480D01*
X185341260Y-112842040D01*
X185369200Y-112735360D01*
X185371740Y-112715040D01*
X185376820Y-112595660D01*
X185364120Y-112486440D01*
X185331100Y-112382300D01*
X185280300Y-112293400D01*
X185214260Y-112219740D01*
X185132980Y-112161320D01*
X185084720Y-112138460D01*
X184985660Y-112115600D01*
X184878980Y-112107980D01*
X184772300Y-112118140D01*
X184673240Y-112146080D01*
X184660540Y-112151160D01*
X184614820Y-112176560D01*
X184564020Y-112214660D01*
X184518300Y-112257840D01*
X184482740Y-112298480D01*
X184470040Y-112316260D01*
X184462420Y-112334040D01*
X184462420Y-112346740D01*
X184475120Y-112356900D01*
X184500520Y-112372140D01*
X184543700Y-112395000D01*
X184561480Y-112405160D01*
X184668160Y-112458500D01*
X184729120Y-112395000D01*
X184764680Y-112359440D01*
X184787540Y-112341660D01*
X184812940Y-112331500D01*
X184845960Y-112328960D01*
X184861200Y-112328960D01*
X184932320Y-112339120D01*
X184988200Y-112367060D01*
X185031380Y-112417860D01*
X185051700Y-112450880D01*
X185072020Y-112516920D01*
X185082180Y-112595660D01*
X185082180Y-112679480D01*
X185066940Y-112755680D01*
X185054240Y-112791240D01*
X185016140Y-112849660D01*
X184965340Y-112890300D01*
X184904380Y-112910620D01*
X184838340Y-112913160D01*
X184774840Y-112892840D01*
X184718960Y-112852200D01*
X184691020Y-112821720D01*
X184670700Y-112796320D01*
X184665620Y-112786160D01*
X184658000Y-112781080D01*
X184640220Y-112781080D01*
X184609740Y-112793780D01*
X184564020Y-112819180D01*
X184520840Y-112842040D01*
X184482740Y-112862360D01*
X184462420Y-112875060D01*
X184459880Y-112877600D01*
X184459880Y-112877600D01*
G37*
X184459880Y-112877600D02*
X184459880Y-112892840D01*
X184475120Y-112920780D01*
X184490360Y-112943640D01*
X184564020Y-113024920D01*
X184645300Y-113080800D01*
X184736740Y-113118900D01*
X184840880Y-113134140D01*
X184957720Y-113131600D01*
X185054240Y-113113820D01*
X185138060Y-113078260D01*
X185214260Y-113024920D01*
X185226960Y-113012220D01*
X185293000Y-112933480D01*
X185341260Y-112842040D01*
X185369200Y-112735360D01*
X185371740Y-112715040D01*
X185376820Y-112595660D01*
X185364120Y-112486440D01*
X185331100Y-112382300D01*
X185280300Y-112293400D01*
X185214260Y-112219740D01*
X185132980Y-112161320D01*
X185084720Y-112138460D01*
X184985660Y-112115600D01*
X184878980Y-112107980D01*
X184772300Y-112118140D01*
X184673240Y-112146080D01*
X184660540Y-112151160D01*
X184614820Y-112176560D01*
X184564020Y-112214660D01*
X184518300Y-112257840D01*
X184482740Y-112298480D01*
X184470040Y-112316260D01*
X184462420Y-112334040D01*
X184462420Y-112346740D01*
X184475120Y-112356900D01*
X184500520Y-112372140D01*
X184543700Y-112395000D01*
X184561480Y-112405160D01*
X184668160Y-112458500D01*
X184729120Y-112395000D01*
X184764680Y-112359440D01*
X184787540Y-112341660D01*
X184812940Y-112331500D01*
X184845960Y-112328960D01*
X184861200Y-112328960D01*
X184932320Y-112339120D01*
X184988200Y-112367060D01*
X185031380Y-112417860D01*
X185051700Y-112450880D01*
X185072020Y-112516920D01*
X185082180Y-112595660D01*
X185082180Y-112679480D01*
X185066940Y-112755680D01*
X185054240Y-112791240D01*
X185016140Y-112849660D01*
X184965340Y-112890300D01*
X184904380Y-112910620D01*
X184838340Y-112913160D01*
X184774840Y-112892840D01*
X184718960Y-112852200D01*
X184691020Y-112821720D01*
X184670700Y-112796320D01*
X184665620Y-112786160D01*
X184658000Y-112781080D01*
X184640220Y-112781080D01*
X184609740Y-112793780D01*
X184564020Y-112819180D01*
X184520840Y-112842040D01*
X184482740Y-112862360D01*
X184462420Y-112875060D01*
X184459880Y-112877600D01*
G36*
X185409840Y-112880140D02*
X185432700Y-112918240D01*
X185465720Y-112963960D01*
X185516520Y-113012220D01*
X185569860Y-113057940D01*
X185623200Y-113090960D01*
X185635900Y-113096040D01*
X185727340Y-113123980D01*
X185834020Y-113134140D01*
X185915300Y-113131600D01*
X186024520Y-113108740D01*
X186118500Y-113068100D01*
X186197240Y-113007140D01*
X186260740Y-112928400D01*
X186306460Y-112834420D01*
X186334400Y-112730280D01*
X186339480Y-112608360D01*
X186336940Y-112575340D01*
X186321700Y-112463580D01*
X186286140Y-112369600D01*
X186232800Y-112285780D01*
X186212480Y-112260380D01*
X186131200Y-112189260D01*
X186034680Y-112138460D01*
X185930540Y-112110520D01*
X185816240Y-112107980D01*
X185765440Y-112113060D01*
X185707020Y-112125760D01*
X185646060Y-112141000D01*
X185605420Y-112158780D01*
X185567320Y-112181640D01*
X185524140Y-112214660D01*
X185483500Y-112252760D01*
X185450480Y-112288320D01*
X185427620Y-112321340D01*
X185422540Y-112336580D01*
X185432700Y-112351820D01*
X185460640Y-112372140D01*
X185503820Y-112395000D01*
X185524140Y-112407700D01*
X185625740Y-112458500D01*
X185686700Y-112395000D01*
X185722260Y-112359440D01*
X185747660Y-112341660D01*
X185770520Y-112331500D01*
X185803540Y-112328960D01*
X185821320Y-112328960D01*
X185892440Y-112341660D01*
X185950860Y-112372140D01*
X185999120Y-112425480D01*
X186001660Y-112433100D01*
X186019440Y-112476280D01*
X186029600Y-112539780D01*
X186034680Y-112608360D01*
X186032140Y-112682020D01*
X186024520Y-112745520D01*
X186016900Y-112776000D01*
X185986420Y-112836960D01*
X185943240Y-112880140D01*
X185884820Y-112903000D01*
X185823860Y-112908080D01*
X185755280Y-112903000D01*
X185707020Y-112882680D01*
X185663840Y-112842040D01*
X185646060Y-112816640D01*
X185625740Y-112788700D01*
X185610500Y-112776000D01*
X185595260Y-112781080D01*
X185562240Y-112796320D01*
X185521600Y-112819180D01*
X185503820Y-112826800D01*
X185409840Y-112880140D01*
X185409840Y-112880140D01*
G37*
X185409840Y-112880140D02*
X185432700Y-112918240D01*
X185465720Y-112963960D01*
X185516520Y-113012220D01*
X185569860Y-113057940D01*
X185623200Y-113090960D01*
X185635900Y-113096040D01*
X185727340Y-113123980D01*
X185834020Y-113134140D01*
X185915300Y-113131600D01*
X186024520Y-113108740D01*
X186118500Y-113068100D01*
X186197240Y-113007140D01*
X186260740Y-112928400D01*
X186306460Y-112834420D01*
X186334400Y-112730280D01*
X186339480Y-112608360D01*
X186336940Y-112575340D01*
X186321700Y-112463580D01*
X186286140Y-112369600D01*
X186232800Y-112285780D01*
X186212480Y-112260380D01*
X186131200Y-112189260D01*
X186034680Y-112138460D01*
X185930540Y-112110520D01*
X185816240Y-112107980D01*
X185765440Y-112113060D01*
X185707020Y-112125760D01*
X185646060Y-112141000D01*
X185605420Y-112158780D01*
X185567320Y-112181640D01*
X185524140Y-112214660D01*
X185483500Y-112252760D01*
X185450480Y-112288320D01*
X185427620Y-112321340D01*
X185422540Y-112336580D01*
X185432700Y-112351820D01*
X185460640Y-112372140D01*
X185503820Y-112395000D01*
X185524140Y-112407700D01*
X185625740Y-112458500D01*
X185686700Y-112395000D01*
X185722260Y-112359440D01*
X185747660Y-112341660D01*
X185770520Y-112331500D01*
X185803540Y-112328960D01*
X185821320Y-112328960D01*
X185892440Y-112341660D01*
X185950860Y-112372140D01*
X185999120Y-112425480D01*
X186001660Y-112433100D01*
X186019440Y-112476280D01*
X186029600Y-112539780D01*
X186034680Y-112608360D01*
X186032140Y-112682020D01*
X186024520Y-112745520D01*
X186016900Y-112776000D01*
X185986420Y-112836960D01*
X185943240Y-112880140D01*
X185884820Y-112903000D01*
X185823860Y-112908080D01*
X185755280Y-112903000D01*
X185707020Y-112882680D01*
X185663840Y-112842040D01*
X185646060Y-112816640D01*
X185625740Y-112788700D01*
X185610500Y-112776000D01*
X185595260Y-112781080D01*
X185562240Y-112796320D01*
X185521600Y-112819180D01*
X185503820Y-112826800D01*
X185409840Y-112880140D01*
G36*
X178099720Y-112166400D02*
X178102260Y-112265460D01*
X178109880Y-112354360D01*
X178120040Y-112425480D01*
X178122580Y-112435640D01*
X178175920Y-112603280D01*
X178254660Y-112758220D01*
X178325780Y-112859820D01*
X178325780Y-112176560D01*
X178325780Y-112100360D01*
X178333400Y-111996220D01*
X178346100Y-111909860D01*
X178363880Y-111831120D01*
X178394360Y-111752380D01*
X178424840Y-111686340D01*
X178503580Y-111556800D01*
X178600100Y-111439960D01*
X178716940Y-111335820D01*
X178843940Y-111249460D01*
X178981100Y-111185960D01*
X179024280Y-111170720D01*
X179113180Y-111147860D01*
X179217320Y-111135160D01*
X179329080Y-111130080D01*
X179438300Y-111132620D01*
X179534820Y-111145320D01*
X179544980Y-111147860D01*
X179692300Y-111193580D01*
X179829460Y-111262160D01*
X179956460Y-111348520D01*
X180068220Y-111455200D01*
X180164740Y-111579660D01*
X180243480Y-111716820D01*
X180291740Y-111831120D01*
X180309520Y-111881920D01*
X180319680Y-111925100D01*
X180327300Y-111963200D01*
X180332380Y-112006380D01*
X180334920Y-112062260D01*
X180334920Y-112133380D01*
X180332380Y-112242600D01*
X180322220Y-112336580D01*
X180301900Y-112420400D01*
X180273960Y-112501680D01*
X180243480Y-112565180D01*
X180182520Y-112666780D01*
X180106320Y-112768380D01*
X180017420Y-112859820D01*
X179923440Y-112943640D01*
X179837080Y-113002060D01*
X179705000Y-113068100D01*
X179562760Y-113111280D01*
X179412900Y-113136680D01*
X179260500Y-113139220D01*
X179113180Y-113118900D01*
X179064920Y-113106200D01*
X178930300Y-113057940D01*
X178798220Y-112986820D01*
X178678840Y-112900460D01*
X178569620Y-112796320D01*
X178480720Y-112687100D01*
X178412140Y-112567720D01*
X178404520Y-112552480D01*
X178361340Y-112433100D01*
X178335940Y-112311180D01*
X178325780Y-112176560D01*
X178325780Y-112859820D01*
X178353720Y-112900460D01*
X178473100Y-113030000D01*
X178582320Y-113121440D01*
X178732180Y-113217960D01*
X178889660Y-113291620D01*
X179057300Y-113342420D01*
X179230020Y-113367820D01*
X179407820Y-113370360D01*
X179537360Y-113355120D01*
X179699920Y-113317020D01*
X179854860Y-113256060D01*
X180002180Y-113169700D01*
X180141880Y-113063020D01*
X180266340Y-112936020D01*
X180284120Y-112915700D01*
X180388260Y-112776000D01*
X180467000Y-112626140D01*
X180525420Y-112466120D01*
X180558440Y-112301020D01*
X180568600Y-112133380D01*
X180555900Y-111963200D01*
X180520340Y-111795560D01*
X180459380Y-111630460D01*
X180441600Y-111594900D01*
X180357780Y-111447580D01*
X180251100Y-111310420D01*
X180129180Y-111191040D01*
X179992020Y-111089440D01*
X179844700Y-111005620D01*
X179687220Y-110947200D01*
X179651660Y-110934500D01*
X179605940Y-110924340D01*
X179562760Y-110916720D01*
X179517040Y-110911640D01*
X179461160Y-110909100D01*
X179390040Y-110906560D01*
X179326540Y-110906560D01*
X179237640Y-110909100D01*
X179171600Y-110911640D01*
X179118260Y-110914180D01*
X179072540Y-110921800D01*
X179029360Y-110929420D01*
X179006500Y-110937040D01*
X178902360Y-110970060D01*
X178793140Y-111018320D01*
X178689000Y-111071660D01*
X178610260Y-111122460D01*
X178556920Y-111165640D01*
X178493420Y-111224060D01*
X178427380Y-111287560D01*
X178366420Y-111353600D01*
X178318160Y-111412020D01*
X178300380Y-111439960D01*
X178252120Y-111516160D01*
X178206400Y-111607600D01*
X178165760Y-111701580D01*
X178135280Y-111793020D01*
X178130200Y-111813340D01*
X178114960Y-111881920D01*
X178107340Y-111968280D01*
X178099720Y-112064800D01*
X178099720Y-112166400D01*
X178099720Y-112166400D01*
G37*
X178099720Y-112166400D02*
X178102260Y-112265460D01*
X178109880Y-112354360D01*
X178120040Y-112425480D01*
X178122580Y-112435640D01*
X178175920Y-112603280D01*
X178254660Y-112758220D01*
X178325780Y-112859820D01*
X178325780Y-112176560D01*
X178325780Y-112100360D01*
X178333400Y-111996220D01*
X178346100Y-111909860D01*
X178363880Y-111831120D01*
X178394360Y-111752380D01*
X178424840Y-111686340D01*
X178503580Y-111556800D01*
X178600100Y-111439960D01*
X178716940Y-111335820D01*
X178843940Y-111249460D01*
X178981100Y-111185960D01*
X179024280Y-111170720D01*
X179113180Y-111147860D01*
X179217320Y-111135160D01*
X179329080Y-111130080D01*
X179438300Y-111132620D01*
X179534820Y-111145320D01*
X179544980Y-111147860D01*
X179692300Y-111193580D01*
X179829460Y-111262160D01*
X179956460Y-111348520D01*
X180068220Y-111455200D01*
X180164740Y-111579660D01*
X180243480Y-111716820D01*
X180291740Y-111831120D01*
X180309520Y-111881920D01*
X180319680Y-111925100D01*
X180327300Y-111963200D01*
X180332380Y-112006380D01*
X180334920Y-112062260D01*
X180334920Y-112133380D01*
X180332380Y-112242600D01*
X180322220Y-112336580D01*
X180301900Y-112420400D01*
X180273960Y-112501680D01*
X180243480Y-112565180D01*
X180182520Y-112666780D01*
X180106320Y-112768380D01*
X180017420Y-112859820D01*
X179923440Y-112943640D01*
X179837080Y-113002060D01*
X179705000Y-113068100D01*
X179562760Y-113111280D01*
X179412900Y-113136680D01*
X179260500Y-113139220D01*
X179113180Y-113118900D01*
X179064920Y-113106200D01*
X178930300Y-113057940D01*
X178798220Y-112986820D01*
X178678840Y-112900460D01*
X178569620Y-112796320D01*
X178480720Y-112687100D01*
X178412140Y-112567720D01*
X178404520Y-112552480D01*
X178361340Y-112433100D01*
X178335940Y-112311180D01*
X178325780Y-112176560D01*
X178325780Y-112859820D01*
X178353720Y-112900460D01*
X178473100Y-113030000D01*
X178582320Y-113121440D01*
X178732180Y-113217960D01*
X178889660Y-113291620D01*
X179057300Y-113342420D01*
X179230020Y-113367820D01*
X179407820Y-113370360D01*
X179537360Y-113355120D01*
X179699920Y-113317020D01*
X179854860Y-113256060D01*
X180002180Y-113169700D01*
X180141880Y-113063020D01*
X180266340Y-112936020D01*
X180284120Y-112915700D01*
X180388260Y-112776000D01*
X180467000Y-112626140D01*
X180525420Y-112466120D01*
X180558440Y-112301020D01*
X180568600Y-112133380D01*
X180555900Y-111963200D01*
X180520340Y-111795560D01*
X180459380Y-111630460D01*
X180441600Y-111594900D01*
X180357780Y-111447580D01*
X180251100Y-111310420D01*
X180129180Y-111191040D01*
X179992020Y-111089440D01*
X179844700Y-111005620D01*
X179687220Y-110947200D01*
X179651660Y-110934500D01*
X179605940Y-110924340D01*
X179562760Y-110916720D01*
X179517040Y-110911640D01*
X179461160Y-110909100D01*
X179390040Y-110906560D01*
X179326540Y-110906560D01*
X179237640Y-110909100D01*
X179171600Y-110911640D01*
X179118260Y-110914180D01*
X179072540Y-110921800D01*
X179029360Y-110929420D01*
X179006500Y-110937040D01*
X178902360Y-110970060D01*
X178793140Y-111018320D01*
X178689000Y-111071660D01*
X178610260Y-111122460D01*
X178556920Y-111165640D01*
X178493420Y-111224060D01*
X178427380Y-111287560D01*
X178366420Y-111353600D01*
X178318160Y-111412020D01*
X178300380Y-111439960D01*
X178252120Y-111516160D01*
X178206400Y-111607600D01*
X178165760Y-111701580D01*
X178135280Y-111793020D01*
X178130200Y-111813340D01*
X178114960Y-111881920D01*
X178107340Y-111968280D01*
X178099720Y-112064800D01*
X178099720Y-112166400D01*
G36*
X180873400Y-112138460D02*
X180883560Y-112311180D01*
X180911500Y-112468660D01*
X180959760Y-112613440D01*
X181028340Y-112750600D01*
X181107080Y-112859820D01*
X181107080Y-112138460D01*
X181114700Y-112001300D01*
X181135020Y-111879380D01*
X181173120Y-111762540D01*
X181201060Y-111699040D01*
X181274720Y-111572040D01*
X181371240Y-111455200D01*
X181483000Y-111351060D01*
X181607460Y-111262160D01*
X181742080Y-111196120D01*
X181823360Y-111165640D01*
X181864000Y-111152940D01*
X181904640Y-111145320D01*
X181950360Y-111140240D01*
X182003700Y-111137700D01*
X182074820Y-111135160D01*
X182110380Y-111135160D01*
X182189120Y-111137700D01*
X182250080Y-111137700D01*
X182298340Y-111142780D01*
X182338980Y-111150400D01*
X182379620Y-111160560D01*
X182397400Y-111165640D01*
X182544720Y-111224060D01*
X182676800Y-111305340D01*
X182798720Y-111404400D01*
X182905400Y-111521240D01*
X182994300Y-111653320D01*
X183060340Y-111798100D01*
X183088280Y-111879380D01*
X183103520Y-111960660D01*
X183113680Y-112057180D01*
X183116220Y-112158780D01*
X183111140Y-112257840D01*
X183100980Y-112346740D01*
X183093360Y-112379760D01*
X183037480Y-112529620D01*
X182961280Y-112669320D01*
X182864760Y-112796320D01*
X182750460Y-112908080D01*
X182681880Y-112958880D01*
X182549800Y-113040160D01*
X182405020Y-113098580D01*
X182252620Y-113134140D01*
X182095140Y-113141760D01*
X181965600Y-113131600D01*
X181848760Y-113106200D01*
X181729380Y-113065560D01*
X181617620Y-113012220D01*
X181589680Y-112996980D01*
X181549040Y-112969040D01*
X181498240Y-112928400D01*
X181442360Y-112877600D01*
X181389020Y-112826800D01*
X181330600Y-112770920D01*
X181287420Y-112720120D01*
X181254400Y-112674400D01*
X181226460Y-112626140D01*
X181211220Y-112598200D01*
X181162960Y-112486440D01*
X181129940Y-112374680D01*
X181112160Y-112260380D01*
X181107080Y-112138460D01*
X181107080Y-112859820D01*
X181117240Y-112877600D01*
X181216300Y-112986820D01*
X181353460Y-113108740D01*
X181495700Y-113207800D01*
X181648100Y-113284000D01*
X181808120Y-113334800D01*
X181810660Y-113337340D01*
X181886860Y-113350040D01*
X181975760Y-113360200D01*
X182072280Y-113367820D01*
X182166260Y-113370360D01*
X182247540Y-113367820D01*
X182300880Y-113362740D01*
X182468520Y-113322100D01*
X182628540Y-113258600D01*
X182778400Y-113172240D01*
X182920640Y-113065560D01*
X182981600Y-113007140D01*
X183100980Y-112869980D01*
X183197500Y-112727740D01*
X183271160Y-112570260D01*
X183311800Y-112445800D01*
X183324500Y-112389920D01*
X183334660Y-112336580D01*
X183339740Y-112283240D01*
X183342280Y-112219740D01*
X183344820Y-112146080D01*
X183339740Y-112026700D01*
X183332120Y-111930180D01*
X183321960Y-111874300D01*
X183273700Y-111709200D01*
X183202580Y-111554260D01*
X183111140Y-111412020D01*
X183001920Y-111279940D01*
X182877460Y-111165640D01*
X182740300Y-111069120D01*
X182592980Y-110992920D01*
X182432960Y-110937040D01*
X182402480Y-110929420D01*
X182323740Y-110916720D01*
X182227220Y-110909100D01*
X182125620Y-110906560D01*
X182018940Y-110906560D01*
X181919880Y-110914180D01*
X181833520Y-110926880D01*
X181790340Y-110937040D01*
X181625240Y-110992920D01*
X181470300Y-111074200D01*
X181325520Y-111178340D01*
X181195980Y-111302800D01*
X181081680Y-111445040D01*
X181068980Y-111460280D01*
X180995320Y-111582200D01*
X180941980Y-111701580D01*
X180903880Y-111828580D01*
X180881020Y-111968280D01*
X180873400Y-112123220D01*
X180873400Y-112138460D01*
X180873400Y-112138460D01*
G37*
X180873400Y-112138460D02*
X180883560Y-112311180D01*
X180911500Y-112468660D01*
X180959760Y-112613440D01*
X181028340Y-112750600D01*
X181107080Y-112859820D01*
X181107080Y-112138460D01*
X181114700Y-112001300D01*
X181135020Y-111879380D01*
X181173120Y-111762540D01*
X181201060Y-111699040D01*
X181274720Y-111572040D01*
X181371240Y-111455200D01*
X181483000Y-111351060D01*
X181607460Y-111262160D01*
X181742080Y-111196120D01*
X181823360Y-111165640D01*
X181864000Y-111152940D01*
X181904640Y-111145320D01*
X181950360Y-111140240D01*
X182003700Y-111137700D01*
X182074820Y-111135160D01*
X182110380Y-111135160D01*
X182189120Y-111137700D01*
X182250080Y-111137700D01*
X182298340Y-111142780D01*
X182338980Y-111150400D01*
X182379620Y-111160560D01*
X182397400Y-111165640D01*
X182544720Y-111224060D01*
X182676800Y-111305340D01*
X182798720Y-111404400D01*
X182905400Y-111521240D01*
X182994300Y-111653320D01*
X183060340Y-111798100D01*
X183088280Y-111879380D01*
X183103520Y-111960660D01*
X183113680Y-112057180D01*
X183116220Y-112158780D01*
X183111140Y-112257840D01*
X183100980Y-112346740D01*
X183093360Y-112379760D01*
X183037480Y-112529620D01*
X182961280Y-112669320D01*
X182864760Y-112796320D01*
X182750460Y-112908080D01*
X182681880Y-112958880D01*
X182549800Y-113040160D01*
X182405020Y-113098580D01*
X182252620Y-113134140D01*
X182095140Y-113141760D01*
X181965600Y-113131600D01*
X181848760Y-113106200D01*
X181729380Y-113065560D01*
X181617620Y-113012220D01*
X181589680Y-112996980D01*
X181549040Y-112969040D01*
X181498240Y-112928400D01*
X181442360Y-112877600D01*
X181389020Y-112826800D01*
X181330600Y-112770920D01*
X181287420Y-112720120D01*
X181254400Y-112674400D01*
X181226460Y-112626140D01*
X181211220Y-112598200D01*
X181162960Y-112486440D01*
X181129940Y-112374680D01*
X181112160Y-112260380D01*
X181107080Y-112138460D01*
X181107080Y-112859820D01*
X181117240Y-112877600D01*
X181216300Y-112986820D01*
X181353460Y-113108740D01*
X181495700Y-113207800D01*
X181648100Y-113284000D01*
X181808120Y-113334800D01*
X181810660Y-113337340D01*
X181886860Y-113350040D01*
X181975760Y-113360200D01*
X182072280Y-113367820D01*
X182166260Y-113370360D01*
X182247540Y-113367820D01*
X182300880Y-113362740D01*
X182468520Y-113322100D01*
X182628540Y-113258600D01*
X182778400Y-113172240D01*
X182920640Y-113065560D01*
X182981600Y-113007140D01*
X183100980Y-112869980D01*
X183197500Y-112727740D01*
X183271160Y-112570260D01*
X183311800Y-112445800D01*
X183324500Y-112389920D01*
X183334660Y-112336580D01*
X183339740Y-112283240D01*
X183342280Y-112219740D01*
X183344820Y-112146080D01*
X183339740Y-112026700D01*
X183332120Y-111930180D01*
X183321960Y-111874300D01*
X183273700Y-111709200D01*
X183202580Y-111554260D01*
X183111140Y-111412020D01*
X183001920Y-111279940D01*
X182877460Y-111165640D01*
X182740300Y-111069120D01*
X182592980Y-110992920D01*
X182432960Y-110937040D01*
X182402480Y-110929420D01*
X182323740Y-110916720D01*
X182227220Y-110909100D01*
X182125620Y-110906560D01*
X182018940Y-110906560D01*
X181919880Y-110914180D01*
X181833520Y-110926880D01*
X181790340Y-110937040D01*
X181625240Y-110992920D01*
X181470300Y-111074200D01*
X181325520Y-111178340D01*
X181195980Y-111302800D01*
X181081680Y-111445040D01*
X181068980Y-111460280D01*
X180995320Y-111582200D01*
X180941980Y-111701580D01*
X180903880Y-111828580D01*
X180881020Y-111968280D01*
X180873400Y-112123220D01*
X180873400Y-112138460D01*
G36*
X183738520Y-112600740D02*
X183738520Y-112692180D01*
X183743600Y-112814100D01*
X183753760Y-112920780D01*
X183771540Y-113014760D01*
X183794400Y-113106200D01*
X183824880Y-113200180D01*
X183850280Y-113266220D01*
X183929020Y-113431320D01*
X184030620Y-113588800D01*
X184033160Y-113591340D01*
X184033160Y-112600740D01*
X184045860Y-112422940D01*
X184083960Y-112250220D01*
X184142380Y-112082580D01*
X184221120Y-111925100D01*
X184322720Y-111780320D01*
X184442100Y-111645700D01*
X184581800Y-111526320D01*
X184739280Y-111424720D01*
X184746900Y-111419640D01*
X184899300Y-111348520D01*
X185064400Y-111297720D01*
X185234580Y-111269780D01*
X185409840Y-111259620D01*
X185582560Y-111272320D01*
X185752740Y-111305340D01*
X185915300Y-111361220D01*
X186019440Y-111409480D01*
X186164220Y-111500920D01*
X186298840Y-111612680D01*
X186423300Y-111739680D01*
X186529980Y-111879380D01*
X186616340Y-112029240D01*
X186684920Y-112184180D01*
X186710320Y-112273080D01*
X186748420Y-112458500D01*
X186758580Y-112638840D01*
X186745880Y-112816640D01*
X186705240Y-112989360D01*
X186644280Y-113157000D01*
X186557920Y-113317020D01*
X186451240Y-113466880D01*
X186321700Y-113604040D01*
X186176920Y-113725960D01*
X186021980Y-113825020D01*
X185861960Y-113898680D01*
X185691780Y-113949480D01*
X185513980Y-113974880D01*
X185328560Y-113977420D01*
X185160920Y-113959640D01*
X185003440Y-113924080D01*
X184851040Y-113865660D01*
X184701180Y-113786920D01*
X184561480Y-113690400D01*
X184434480Y-113581180D01*
X184320180Y-113456720D01*
X184223660Y-113324640D01*
X184150000Y-113184940D01*
X184132220Y-113141760D01*
X184073800Y-112961420D01*
X184040780Y-112778540D01*
X184033160Y-112600740D01*
X184033160Y-113591340D01*
X184150000Y-113733580D01*
X184284620Y-113865660D01*
X184434480Y-113982500D01*
X184594500Y-114084100D01*
X184762140Y-114165380D01*
X184937400Y-114226340D01*
X185112660Y-114264440D01*
X185199020Y-114274600D01*
X185280300Y-114282220D01*
X185343800Y-114284760D01*
X185397140Y-114287300D01*
X185447940Y-114287300D01*
X185498740Y-114284760D01*
X185544460Y-114282220D01*
X185740040Y-114254280D01*
X185925460Y-114206020D01*
X186100720Y-114132360D01*
X186270900Y-114038380D01*
X186430920Y-113919000D01*
X186588400Y-113774220D01*
X186590940Y-113769140D01*
X186728100Y-113614200D01*
X186839860Y-113454180D01*
X186926220Y-113286540D01*
X186992260Y-113111280D01*
X187032900Y-112923320D01*
X187053220Y-112727740D01*
X187058300Y-112623600D01*
X187048140Y-112440720D01*
X187025280Y-112270540D01*
X186984640Y-112110520D01*
X186923680Y-111953040D01*
X186875420Y-111856520D01*
X186771280Y-111681260D01*
X186649360Y-111523780D01*
X186509660Y-111381540D01*
X186354720Y-111257080D01*
X186189620Y-111152940D01*
X186011820Y-111066580D01*
X185826400Y-111005620D01*
X185709560Y-110980220D01*
X185625740Y-110967520D01*
X185524140Y-110962440D01*
X185412380Y-110959900D01*
X185300620Y-110959900D01*
X185196480Y-110967520D01*
X185105040Y-110977680D01*
X185084720Y-110980220D01*
X184891680Y-111028480D01*
X184706260Y-111097060D01*
X184531000Y-111188500D01*
X184370980Y-111300260D01*
X184223660Y-111429800D01*
X184091580Y-111574580D01*
X183977280Y-111734600D01*
X183883300Y-111907320D01*
X183809640Y-112092740D01*
X183794400Y-112138460D01*
X183771540Y-112227360D01*
X183756300Y-112311180D01*
X183743600Y-112397540D01*
X183738520Y-112491520D01*
X183738520Y-112600740D01*
X183738520Y-112600740D01*
G37*
X183738520Y-112600740D02*
X183738520Y-112692180D01*
X183743600Y-112814100D01*
X183753760Y-112920780D01*
X183771540Y-113014760D01*
X183794400Y-113106200D01*
X183824880Y-113200180D01*
X183850280Y-113266220D01*
X183929020Y-113431320D01*
X184030620Y-113588800D01*
X184033160Y-113591340D01*
X184033160Y-112600740D01*
X184045860Y-112422940D01*
X184083960Y-112250220D01*
X184142380Y-112082580D01*
X184221120Y-111925100D01*
X184322720Y-111780320D01*
X184442100Y-111645700D01*
X184581800Y-111526320D01*
X184739280Y-111424720D01*
X184746900Y-111419640D01*
X184899300Y-111348520D01*
X185064400Y-111297720D01*
X185234580Y-111269780D01*
X185409840Y-111259620D01*
X185582560Y-111272320D01*
X185752740Y-111305340D01*
X185915300Y-111361220D01*
X186019440Y-111409480D01*
X186164220Y-111500920D01*
X186298840Y-111612680D01*
X186423300Y-111739680D01*
X186529980Y-111879380D01*
X186616340Y-112029240D01*
X186684920Y-112184180D01*
X186710320Y-112273080D01*
X186748420Y-112458500D01*
X186758580Y-112638840D01*
X186745880Y-112816640D01*
X186705240Y-112989360D01*
X186644280Y-113157000D01*
X186557920Y-113317020D01*
X186451240Y-113466880D01*
X186321700Y-113604040D01*
X186176920Y-113725960D01*
X186021980Y-113825020D01*
X185861960Y-113898680D01*
X185691780Y-113949480D01*
X185513980Y-113974880D01*
X185328560Y-113977420D01*
X185160920Y-113959640D01*
X185003440Y-113924080D01*
X184851040Y-113865660D01*
X184701180Y-113786920D01*
X184561480Y-113690400D01*
X184434480Y-113581180D01*
X184320180Y-113456720D01*
X184223660Y-113324640D01*
X184150000Y-113184940D01*
X184132220Y-113141760D01*
X184073800Y-112961420D01*
X184040780Y-112778540D01*
X184033160Y-112600740D01*
X184033160Y-113591340D01*
X184150000Y-113733580D01*
X184284620Y-113865660D01*
X184434480Y-113982500D01*
X184594500Y-114084100D01*
X184762140Y-114165380D01*
X184937400Y-114226340D01*
X185112660Y-114264440D01*
X185199020Y-114274600D01*
X185280300Y-114282220D01*
X185343800Y-114284760D01*
X185397140Y-114287300D01*
X185447940Y-114287300D01*
X185498740Y-114284760D01*
X185544460Y-114282220D01*
X185740040Y-114254280D01*
X185925460Y-114206020D01*
X186100720Y-114132360D01*
X186270900Y-114038380D01*
X186430920Y-113919000D01*
X186588400Y-113774220D01*
X186590940Y-113769140D01*
X186728100Y-113614200D01*
X186839860Y-113454180D01*
X186926220Y-113286540D01*
X186992260Y-113111280D01*
X187032900Y-112923320D01*
X187053220Y-112727740D01*
X187058300Y-112623600D01*
X187048140Y-112440720D01*
X187025280Y-112270540D01*
X186984640Y-112110520D01*
X186923680Y-111953040D01*
X186875420Y-111856520D01*
X186771280Y-111681260D01*
X186649360Y-111523780D01*
X186509660Y-111381540D01*
X186354720Y-111257080D01*
X186189620Y-111152940D01*
X186011820Y-111066580D01*
X185826400Y-111005620D01*
X185709560Y-110980220D01*
X185625740Y-110967520D01*
X185524140Y-110962440D01*
X185412380Y-110959900D01*
X185300620Y-110959900D01*
X185196480Y-110967520D01*
X185105040Y-110977680D01*
X185084720Y-110980220D01*
X184891680Y-111028480D01*
X184706260Y-111097060D01*
X184531000Y-111188500D01*
X184370980Y-111300260D01*
X184223660Y-111429800D01*
X184091580Y-111574580D01*
X183977280Y-111734600D01*
X183883300Y-111907320D01*
X183809640Y-112092740D01*
X183794400Y-112138460D01*
X183771540Y-112227360D01*
X183756300Y-112311180D01*
X183743600Y-112397540D01*
X183738520Y-112491520D01*
X183738520Y-112600740D01*
G36*
X178782980Y-114719100D02*
X178793140Y-114724180D01*
X178826160Y-114726720D01*
X178864260Y-114729260D01*
X178945540Y-114729260D01*
X178968400Y-114653060D01*
X178991260Y-114576860D01*
X179039520Y-114576860D01*
X179039520Y-114447320D01*
X179080160Y-114333020D01*
X179095400Y-114284760D01*
X179113180Y-114246660D01*
X179123340Y-114228880D01*
X179125880Y-114226340D01*
X179136040Y-114241580D01*
X179148740Y-114274600D01*
X179163980Y-114317780D01*
X179179220Y-114363500D01*
X179194460Y-114404140D01*
X179202080Y-114432080D01*
X179204620Y-114439700D01*
X179191920Y-114444780D01*
X179161440Y-114447320D01*
X179123340Y-114447320D01*
X179039520Y-114447320D01*
X179039520Y-114576860D01*
X179123340Y-114576860D01*
X179252880Y-114576860D01*
X179280820Y-114653060D01*
X179308760Y-114729260D01*
X179390040Y-114729260D01*
X179468780Y-114729260D01*
X179336700Y-114381280D01*
X179207160Y-114033300D01*
X179120800Y-114033300D01*
X179036980Y-114033300D01*
X178909980Y-114371120D01*
X178876960Y-114460020D01*
X178846480Y-114538760D01*
X178821080Y-114607340D01*
X178803300Y-114663220D01*
X178788060Y-114701320D01*
X178782980Y-114719100D01*
X178782980Y-114719100D01*
G37*
X178782980Y-114719100D02*
X178793140Y-114724180D01*
X178826160Y-114726720D01*
X178864260Y-114729260D01*
X178945540Y-114729260D01*
X178968400Y-114653060D01*
X178991260Y-114576860D01*
X179039520Y-114576860D01*
X179039520Y-114447320D01*
X179080160Y-114333020D01*
X179095400Y-114284760D01*
X179113180Y-114246660D01*
X179123340Y-114228880D01*
X179125880Y-114226340D01*
X179136040Y-114241580D01*
X179148740Y-114274600D01*
X179163980Y-114317780D01*
X179179220Y-114363500D01*
X179194460Y-114404140D01*
X179202080Y-114432080D01*
X179204620Y-114439700D01*
X179191920Y-114444780D01*
X179161440Y-114447320D01*
X179123340Y-114447320D01*
X179039520Y-114447320D01*
X179039520Y-114576860D01*
X179123340Y-114576860D01*
X179252880Y-114576860D01*
X179280820Y-114653060D01*
X179308760Y-114729260D01*
X179390040Y-114729260D01*
X179468780Y-114729260D01*
X179336700Y-114381280D01*
X179207160Y-114033300D01*
X179120800Y-114033300D01*
X179036980Y-114033300D01*
X178909980Y-114371120D01*
X178876960Y-114460020D01*
X178846480Y-114538760D01*
X178821080Y-114607340D01*
X178803300Y-114663220D01*
X178788060Y-114701320D01*
X178782980Y-114719100D01*
G36*
X181503320Y-114025680D02*
X181637940Y-114249200D01*
X181772560Y-114472720D01*
X181772560Y-114599720D01*
X181772560Y-114729260D01*
X181848760Y-114729260D01*
X181924960Y-114729260D01*
X181924960Y-114594640D01*
X181924960Y-114457480D01*
X182049420Y-114251740D01*
X182087520Y-114185700D01*
X182120540Y-114127280D01*
X182148480Y-114081560D01*
X182168800Y-114051080D01*
X182176420Y-114035840D01*
X182166260Y-114030760D01*
X182138320Y-114028220D01*
X182097680Y-114025680D01*
X182092600Y-114025680D01*
X182003700Y-114025680D01*
X181924960Y-114162840D01*
X181886860Y-114223800D01*
X181861460Y-114261900D01*
X181843680Y-114282220D01*
X181833520Y-114279680D01*
X181823360Y-114261900D01*
X181803040Y-114228880D01*
X181777640Y-114183160D01*
X181754780Y-114147600D01*
X181688740Y-114033300D01*
X181597300Y-114028220D01*
X181503320Y-114025680D01*
X181503320Y-114025680D01*
G37*
X181503320Y-114025680D02*
X181637940Y-114249200D01*
X181772560Y-114472720D01*
X181772560Y-114599720D01*
X181772560Y-114729260D01*
X181848760Y-114729260D01*
X181924960Y-114729260D01*
X181924960Y-114594640D01*
X181924960Y-114457480D01*
X182049420Y-114251740D01*
X182087520Y-114185700D01*
X182120540Y-114127280D01*
X182148480Y-114081560D01*
X182168800Y-114051080D01*
X182176420Y-114035840D01*
X182166260Y-114030760D01*
X182138320Y-114028220D01*
X182097680Y-114025680D01*
X182092600Y-114025680D01*
X182003700Y-114025680D01*
X181924960Y-114162840D01*
X181886860Y-114223800D01*
X181861460Y-114261900D01*
X181843680Y-114282220D01*
X181833520Y-114279680D01*
X181823360Y-114261900D01*
X181803040Y-114228880D01*
X181777640Y-114183160D01*
X181754780Y-114147600D01*
X181688740Y-114033300D01*
X181597300Y-114028220D01*
X181503320Y-114025680D01*
G36*
X182209440Y-114551460D02*
X182229760Y-114617500D01*
X182270400Y-114670840D01*
X182326280Y-114703860D01*
X182349140Y-114714020D01*
X182372000Y-114719100D01*
X182372000Y-114510820D01*
X182377080Y-114472720D01*
X182392320Y-114447320D01*
X182397400Y-114444780D01*
X182397400Y-114218720D01*
X182410100Y-114183160D01*
X182417720Y-114173000D01*
X182438040Y-114162840D01*
X182471060Y-114157760D01*
X182526940Y-114155220D01*
X182537100Y-114155220D01*
X182633620Y-114155220D01*
X182638700Y-114195860D01*
X182641240Y-114236500D01*
X182641240Y-114272060D01*
X182636160Y-114289840D01*
X182628540Y-114300000D01*
X182613300Y-114305080D01*
X182577740Y-114307620D01*
X182547260Y-114307620D01*
X182481220Y-114305080D01*
X182438040Y-114294920D01*
X182425340Y-114287300D01*
X182402480Y-114256820D01*
X182397400Y-114218720D01*
X182397400Y-114444780D01*
X182422800Y-114432080D01*
X182473600Y-114424460D01*
X182534560Y-114421920D01*
X182636160Y-114421920D01*
X182636160Y-114510820D01*
X182636160Y-114602260D01*
X182529480Y-114602260D01*
X182468520Y-114599720D01*
X182430420Y-114594640D01*
X182405020Y-114587020D01*
X182394860Y-114579400D01*
X182377080Y-114546380D01*
X182372000Y-114510820D01*
X182372000Y-114719100D01*
X182377080Y-114719100D01*
X182412640Y-114724180D01*
X182463440Y-114726720D01*
X182529480Y-114729260D01*
X182592980Y-114729260D01*
X182803800Y-114729260D01*
X182803800Y-114378740D01*
X182803800Y-114025680D01*
X182595520Y-114025680D01*
X182501540Y-114028220D01*
X182432960Y-114030760D01*
X182379620Y-114035840D01*
X182341520Y-114046000D01*
X182311040Y-114058700D01*
X182288180Y-114079020D01*
X182278020Y-114086640D01*
X182260240Y-114122200D01*
X182247540Y-114173000D01*
X182245000Y-114223800D01*
X182250080Y-114249200D01*
X182265320Y-114282220D01*
X182290720Y-114315240D01*
X182293260Y-114317780D01*
X182313580Y-114338100D01*
X182316120Y-114350800D01*
X182308500Y-114355880D01*
X182272940Y-114378740D01*
X182239920Y-114416840D01*
X182217060Y-114460020D01*
X182211980Y-114477800D01*
X182209440Y-114551460D01*
X182209440Y-114551460D01*
G37*
X182209440Y-114551460D02*
X182229760Y-114617500D01*
X182270400Y-114670840D01*
X182326280Y-114703860D01*
X182349140Y-114714020D01*
X182372000Y-114719100D01*
X182372000Y-114510820D01*
X182377080Y-114472720D01*
X182392320Y-114447320D01*
X182397400Y-114444780D01*
X182397400Y-114218720D01*
X182410100Y-114183160D01*
X182417720Y-114173000D01*
X182438040Y-114162840D01*
X182471060Y-114157760D01*
X182526940Y-114155220D01*
X182537100Y-114155220D01*
X182633620Y-114155220D01*
X182638700Y-114195860D01*
X182641240Y-114236500D01*
X182641240Y-114272060D01*
X182636160Y-114289840D01*
X182628540Y-114300000D01*
X182613300Y-114305080D01*
X182577740Y-114307620D01*
X182547260Y-114307620D01*
X182481220Y-114305080D01*
X182438040Y-114294920D01*
X182425340Y-114287300D01*
X182402480Y-114256820D01*
X182397400Y-114218720D01*
X182397400Y-114444780D01*
X182422800Y-114432080D01*
X182473600Y-114424460D01*
X182534560Y-114421920D01*
X182636160Y-114421920D01*
X182636160Y-114510820D01*
X182636160Y-114602260D01*
X182529480Y-114602260D01*
X182468520Y-114599720D01*
X182430420Y-114594640D01*
X182405020Y-114587020D01*
X182394860Y-114579400D01*
X182377080Y-114546380D01*
X182372000Y-114510820D01*
X182372000Y-114719100D01*
X182377080Y-114719100D01*
X182412640Y-114724180D01*
X182463440Y-114726720D01*
X182529480Y-114729260D01*
X182592980Y-114729260D01*
X182803800Y-114729260D01*
X182803800Y-114378740D01*
X182803800Y-114025680D01*
X182595520Y-114025680D01*
X182501540Y-114028220D01*
X182432960Y-114030760D01*
X182379620Y-114035840D01*
X182341520Y-114046000D01*
X182311040Y-114058700D01*
X182288180Y-114079020D01*
X182278020Y-114086640D01*
X182260240Y-114122200D01*
X182247540Y-114173000D01*
X182245000Y-114223800D01*
X182250080Y-114249200D01*
X182265320Y-114282220D01*
X182290720Y-114315240D01*
X182293260Y-114317780D01*
X182313580Y-114338100D01*
X182316120Y-114350800D01*
X182308500Y-114355880D01*
X182272940Y-114378740D01*
X182239920Y-114416840D01*
X182217060Y-114460020D01*
X182211980Y-114477800D01*
X182209440Y-114551460D01*
G36*
X179486560Y-114551460D02*
X179499260Y-114599720D01*
X179527200Y-114645440D01*
X179537360Y-114658140D01*
X179588160Y-114698780D01*
X179656740Y-114729260D01*
X179735480Y-114744500D01*
X179814220Y-114747040D01*
X179824380Y-114744500D01*
X179913280Y-114724180D01*
X179984400Y-114686080D01*
X180037740Y-114635280D01*
X180070760Y-114569240D01*
X180073300Y-114561620D01*
X180080920Y-114523520D01*
X180073300Y-114500660D01*
X180050440Y-114487960D01*
X180007260Y-114487960D01*
X179997100Y-114487960D01*
X179956460Y-114493040D01*
X179933600Y-114500660D01*
X179923440Y-114515900D01*
X179915820Y-114536220D01*
X179887880Y-114581940D01*
X179844700Y-114609880D01*
X179791360Y-114625120D01*
X179730400Y-114620040D01*
X179694840Y-114607340D01*
X179656740Y-114584480D01*
X179641500Y-114556540D01*
X179644040Y-114520980D01*
X179651660Y-114503200D01*
X179669440Y-114485420D01*
X179702460Y-114470180D01*
X179750720Y-114449860D01*
X179819300Y-114429540D01*
X179857400Y-114416840D01*
X179915820Y-114396520D01*
X179959000Y-114378740D01*
X179989480Y-114358420D01*
X180007260Y-114340640D01*
X180042820Y-114282220D01*
X180055520Y-114226340D01*
X180050440Y-114167920D01*
X180025040Y-114117120D01*
X179981860Y-114071400D01*
X179928520Y-114035840D01*
X179862480Y-114012980D01*
X179788820Y-114005360D01*
X179717700Y-114012980D01*
X179633880Y-114035840D01*
X179572920Y-114073940D01*
X179534820Y-114124740D01*
X179514500Y-114188240D01*
X179514500Y-114190780D01*
X179506880Y-114244120D01*
X179580540Y-114244120D01*
X179621180Y-114241580D01*
X179644040Y-114236500D01*
X179656740Y-114226340D01*
X179666900Y-114203480D01*
X179692300Y-114165380D01*
X179732940Y-114139980D01*
X179781200Y-114129820D01*
X179829460Y-114134900D01*
X179872640Y-114157760D01*
X179875180Y-114160300D01*
X179900580Y-114188240D01*
X179903120Y-114208560D01*
X179890420Y-114233960D01*
X179885340Y-114241580D01*
X179857400Y-114259360D01*
X179804060Y-114282220D01*
X179727860Y-114305080D01*
X179722780Y-114305080D01*
X179636420Y-114333020D01*
X179575460Y-114360960D01*
X179532280Y-114391440D01*
X179504340Y-114432080D01*
X179489100Y-114480340D01*
X179489100Y-114490500D01*
X179486560Y-114551460D01*
X179486560Y-114551460D01*
G37*
X179486560Y-114551460D02*
X179499260Y-114599720D01*
X179527200Y-114645440D01*
X179537360Y-114658140D01*
X179588160Y-114698780D01*
X179656740Y-114729260D01*
X179735480Y-114744500D01*
X179814220Y-114747040D01*
X179824380Y-114744500D01*
X179913280Y-114724180D01*
X179984400Y-114686080D01*
X180037740Y-114635280D01*
X180070760Y-114569240D01*
X180073300Y-114561620D01*
X180080920Y-114523520D01*
X180073300Y-114500660D01*
X180050440Y-114487960D01*
X180007260Y-114487960D01*
X179997100Y-114487960D01*
X179956460Y-114493040D01*
X179933600Y-114500660D01*
X179923440Y-114515900D01*
X179915820Y-114536220D01*
X179887880Y-114581940D01*
X179844700Y-114609880D01*
X179791360Y-114625120D01*
X179730400Y-114620040D01*
X179694840Y-114607340D01*
X179656740Y-114584480D01*
X179641500Y-114556540D01*
X179644040Y-114520980D01*
X179651660Y-114503200D01*
X179669440Y-114485420D01*
X179702460Y-114470180D01*
X179750720Y-114449860D01*
X179819300Y-114429540D01*
X179857400Y-114416840D01*
X179915820Y-114396520D01*
X179959000Y-114378740D01*
X179989480Y-114358420D01*
X180007260Y-114340640D01*
X180042820Y-114282220D01*
X180055520Y-114226340D01*
X180050440Y-114167920D01*
X180025040Y-114117120D01*
X179981860Y-114071400D01*
X179928520Y-114035840D01*
X179862480Y-114012980D01*
X179788820Y-114005360D01*
X179717700Y-114012980D01*
X179633880Y-114035840D01*
X179572920Y-114073940D01*
X179534820Y-114124740D01*
X179514500Y-114188240D01*
X179514500Y-114190780D01*
X179506880Y-114244120D01*
X179580540Y-114244120D01*
X179621180Y-114241580D01*
X179644040Y-114236500D01*
X179656740Y-114226340D01*
X179666900Y-114203480D01*
X179692300Y-114165380D01*
X179732940Y-114139980D01*
X179781200Y-114129820D01*
X179829460Y-114134900D01*
X179872640Y-114157760D01*
X179875180Y-114160300D01*
X179900580Y-114188240D01*
X179903120Y-114208560D01*
X179890420Y-114233960D01*
X179885340Y-114241580D01*
X179857400Y-114259360D01*
X179804060Y-114282220D01*
X179727860Y-114305080D01*
X179722780Y-114305080D01*
X179636420Y-114333020D01*
X179575460Y-114360960D01*
X179532280Y-114391440D01*
X179504340Y-114432080D01*
X179489100Y-114480340D01*
X179489100Y-114490500D01*
X179486560Y-114551460D01*
G36*
X177619660Y-115008660D02*
X177733960Y-115008660D01*
X177733960Y-113667540D01*
X177733960Y-112201960D01*
X177733960Y-110731300D01*
X177772060Y-110693200D01*
X177810160Y-110657640D01*
X182620920Y-110657640D01*
X187429140Y-110657640D01*
X187467240Y-110693200D01*
X187505340Y-110731300D01*
X187505340Y-112201960D01*
X187502800Y-113667540D01*
X187276740Y-113670080D01*
X187050680Y-113670080D01*
X186966860Y-113799620D01*
X186844940Y-113967260D01*
X186702700Y-114119660D01*
X186542680Y-114256820D01*
X186367420Y-114376200D01*
X186179460Y-114475260D01*
X185981340Y-114554000D01*
X185775600Y-114609880D01*
X185610500Y-114637820D01*
X185524140Y-114645440D01*
X185422540Y-114647980D01*
X185310780Y-114645440D01*
X185201560Y-114637820D01*
X185102500Y-114625120D01*
X185041540Y-114614960D01*
X184825640Y-114559080D01*
X184622440Y-114480340D01*
X184434480Y-114383820D01*
X184256680Y-114261900D01*
X184091580Y-114117120D01*
X184023000Y-114048540D01*
X183967120Y-113987580D01*
X183911240Y-113916460D01*
X183857900Y-113845340D01*
X183824880Y-113799620D01*
X183743600Y-113670080D01*
X180741320Y-113670080D01*
X177733960Y-113667540D01*
X177733960Y-115008660D01*
X177749200Y-115008660D01*
X177749200Y-114907060D01*
X177749200Y-114345720D01*
X177749200Y-113784380D01*
X180705760Y-113784380D01*
X183659780Y-113784380D01*
X183738520Y-113901220D01*
X183835040Y-114038380D01*
X183931560Y-114157760D01*
X184030620Y-114256820D01*
X184134760Y-114345720D01*
X184251600Y-114424460D01*
X184337960Y-114475260D01*
X184477660Y-114546380D01*
X184602120Y-114604800D01*
X184718960Y-114653060D01*
X184838340Y-114691160D01*
X184962800Y-114721640D01*
X184967880Y-114721640D01*
X185150760Y-114757200D01*
X185323480Y-114772440D01*
X185488580Y-114772440D01*
X185656220Y-114754660D01*
X185826400Y-114721640D01*
X186021980Y-114663220D01*
X186217560Y-114581940D01*
X186418220Y-114472720D01*
X186618880Y-114340640D01*
X186687460Y-114292380D01*
X186738260Y-114249200D01*
X186799220Y-114190780D01*
X186862720Y-114124740D01*
X186928760Y-114056160D01*
X186992260Y-113982500D01*
X187045600Y-113916460D01*
X187088780Y-113858040D01*
X187111640Y-113822480D01*
X187131960Y-113784380D01*
X187325000Y-113784380D01*
X187518040Y-113784380D01*
X187518040Y-114345720D01*
X187518040Y-114907060D01*
X182631080Y-114907060D01*
X177749200Y-114907060D01*
X177749200Y-115008660D01*
X182613300Y-115008660D01*
X187604400Y-115008660D01*
X187612020Y-114828320D01*
X187614560Y-114790220D01*
X187614560Y-114731800D01*
X187614560Y-114650520D01*
X187614560Y-114551460D01*
X187617100Y-114434620D01*
X187617100Y-114302540D01*
X187617100Y-114155220D01*
X187617100Y-113995200D01*
X187617100Y-113825020D01*
X187617100Y-113644680D01*
X187617100Y-113456720D01*
X187617100Y-113263680D01*
X187617100Y-113065560D01*
X187617100Y-112864900D01*
X187617100Y-112664240D01*
X187617100Y-112461040D01*
X187614560Y-112260380D01*
X187614560Y-112064800D01*
X187614560Y-111871760D01*
X187614560Y-111686340D01*
X187612020Y-111511080D01*
X187612020Y-111343440D01*
X187609480Y-111188500D01*
X187609480Y-111046260D01*
X187609480Y-110919260D01*
X187606940Y-110810040D01*
X187606940Y-110716060D01*
X187604400Y-110644940D01*
X187604400Y-110591600D01*
X187601860Y-110563660D01*
X187601860Y-110558580D01*
X187589160Y-110558580D01*
X187551060Y-110558580D01*
X187490100Y-110556040D01*
X187406280Y-110556040D01*
X187302140Y-110556040D01*
X187175140Y-110556040D01*
X187032900Y-110553500D01*
X186870340Y-110553500D01*
X186690000Y-110553500D01*
X186494420Y-110553500D01*
X186283600Y-110550960D01*
X186060080Y-110550960D01*
X185821320Y-110550960D01*
X185572400Y-110550960D01*
X185313320Y-110550960D01*
X185044080Y-110548420D01*
X184767220Y-110548420D01*
X184480200Y-110548420D01*
X184190640Y-110548420D01*
X183893460Y-110548420D01*
X183591200Y-110548420D01*
X183286400Y-110545880D01*
X182979060Y-110545880D01*
X182669180Y-110545880D01*
X182364380Y-110545880D01*
X182057040Y-110545880D01*
X181752240Y-110545880D01*
X181449980Y-110545880D01*
X181150260Y-110545880D01*
X180858160Y-110545880D01*
X180571140Y-110545880D01*
X180291740Y-110545880D01*
X180019960Y-110545880D01*
X179758340Y-110545880D01*
X179506880Y-110545880D01*
X179268120Y-110545880D01*
X179042060Y-110545880D01*
X178828700Y-110545880D01*
X178630580Y-110545880D01*
X178447700Y-110545880D01*
X178280060Y-110545880D01*
X178132740Y-110548420D01*
X178003200Y-110548420D01*
X177896520Y-110548420D01*
X177807620Y-110548420D01*
X177741580Y-110550960D01*
X177698400Y-110550960D01*
X177680620Y-110550960D01*
X177619660Y-110558580D01*
X177619660Y-112783620D01*
X177619660Y-115008660D01*
X177619660Y-115008660D01*
G37*
X177619660Y-115008660D02*
X177733960Y-115008660D01*
X177733960Y-113667540D01*
X177733960Y-112201960D01*
X177733960Y-110731300D01*
X177772060Y-110693200D01*
X177810160Y-110657640D01*
X182620920Y-110657640D01*
X187429140Y-110657640D01*
X187467240Y-110693200D01*
X187505340Y-110731300D01*
X187505340Y-112201960D01*
X187502800Y-113667540D01*
X187276740Y-113670080D01*
X187050680Y-113670080D01*
X186966860Y-113799620D01*
X186844940Y-113967260D01*
X186702700Y-114119660D01*
X186542680Y-114256820D01*
X186367420Y-114376200D01*
X186179460Y-114475260D01*
X185981340Y-114554000D01*
X185775600Y-114609880D01*
X185610500Y-114637820D01*
X185524140Y-114645440D01*
X185422540Y-114647980D01*
X185310780Y-114645440D01*
X185201560Y-114637820D01*
X185102500Y-114625120D01*
X185041540Y-114614960D01*
X184825640Y-114559080D01*
X184622440Y-114480340D01*
X184434480Y-114383820D01*
X184256680Y-114261900D01*
X184091580Y-114117120D01*
X184023000Y-114048540D01*
X183967120Y-113987580D01*
X183911240Y-113916460D01*
X183857900Y-113845340D01*
X183824880Y-113799620D01*
X183743600Y-113670080D01*
X180741320Y-113670080D01*
X177733960Y-113667540D01*
X177733960Y-115008660D01*
X177749200Y-115008660D01*
X177749200Y-114907060D01*
X177749200Y-114345720D01*
X177749200Y-113784380D01*
X180705760Y-113784380D01*
X183659780Y-113784380D01*
X183738520Y-113901220D01*
X183835040Y-114038380D01*
X183931560Y-114157760D01*
X184030620Y-114256820D01*
X184134760Y-114345720D01*
X184251600Y-114424460D01*
X184337960Y-114475260D01*
X184477660Y-114546380D01*
X184602120Y-114604800D01*
X184718960Y-114653060D01*
X184838340Y-114691160D01*
X184962800Y-114721640D01*
X184967880Y-114721640D01*
X185150760Y-114757200D01*
X185323480Y-114772440D01*
X185488580Y-114772440D01*
X185656220Y-114754660D01*
X185826400Y-114721640D01*
X186021980Y-114663220D01*
X186217560Y-114581940D01*
X186418220Y-114472720D01*
X186618880Y-114340640D01*
X186687460Y-114292380D01*
X186738260Y-114249200D01*
X186799220Y-114190780D01*
X186862720Y-114124740D01*
X186928760Y-114056160D01*
X186992260Y-113982500D01*
X187045600Y-113916460D01*
X187088780Y-113858040D01*
X187111640Y-113822480D01*
X187131960Y-113784380D01*
X187325000Y-113784380D01*
X187518040Y-113784380D01*
X187518040Y-114345720D01*
X187518040Y-114907060D01*
X182631080Y-114907060D01*
X177749200Y-114907060D01*
X177749200Y-115008660D01*
X182613300Y-115008660D01*
X187604400Y-115008660D01*
X187612020Y-114828320D01*
X187614560Y-114790220D01*
X187614560Y-114731800D01*
X187614560Y-114650520D01*
X187614560Y-114551460D01*
X187617100Y-114434620D01*
X187617100Y-114302540D01*
X187617100Y-114155220D01*
X187617100Y-113995200D01*
X187617100Y-113825020D01*
X187617100Y-113644680D01*
X187617100Y-113456720D01*
X187617100Y-113263680D01*
X187617100Y-113065560D01*
X187617100Y-112864900D01*
X187617100Y-112664240D01*
X187617100Y-112461040D01*
X187614560Y-112260380D01*
X187614560Y-112064800D01*
X187614560Y-111871760D01*
X187614560Y-111686340D01*
X187612020Y-111511080D01*
X187612020Y-111343440D01*
X187609480Y-111188500D01*
X187609480Y-111046260D01*
X187609480Y-110919260D01*
X187606940Y-110810040D01*
X187606940Y-110716060D01*
X187604400Y-110644940D01*
X187604400Y-110591600D01*
X187601860Y-110563660D01*
X187601860Y-110558580D01*
X187589160Y-110558580D01*
X187551060Y-110558580D01*
X187490100Y-110556040D01*
X187406280Y-110556040D01*
X187302140Y-110556040D01*
X187175140Y-110556040D01*
X187032900Y-110553500D01*
X186870340Y-110553500D01*
X186690000Y-110553500D01*
X186494420Y-110553500D01*
X186283600Y-110550960D01*
X186060080Y-110550960D01*
X185821320Y-110550960D01*
X185572400Y-110550960D01*
X185313320Y-110550960D01*
X185044080Y-110548420D01*
X184767220Y-110548420D01*
X184480200Y-110548420D01*
X184190640Y-110548420D01*
X183893460Y-110548420D01*
X183591200Y-110548420D01*
X183286400Y-110545880D01*
X182979060Y-110545880D01*
X182669180Y-110545880D01*
X182364380Y-110545880D01*
X182057040Y-110545880D01*
X181752240Y-110545880D01*
X181449980Y-110545880D01*
X181150260Y-110545880D01*
X180858160Y-110545880D01*
X180571140Y-110545880D01*
X180291740Y-110545880D01*
X180019960Y-110545880D01*
X179758340Y-110545880D01*
X179506880Y-110545880D01*
X179268120Y-110545880D01*
X179042060Y-110545880D01*
X178828700Y-110545880D01*
X178630580Y-110545880D01*
X178447700Y-110545880D01*
X178280060Y-110545880D01*
X178132740Y-110548420D01*
X178003200Y-110548420D01*
X177896520Y-110548420D01*
X177807620Y-110548420D01*
X177741580Y-110550960D01*
X177698400Y-110550960D01*
X177680620Y-110550960D01*
X177619660Y-110558580D01*
X177619660Y-112783620D01*
X177619660Y-115008660D01*
G04 #@! TO.C,D2*
D10*
X190476095Y-115006380D02*
X190476095Y-114006380D01*
X190238000Y-114006380D01*
X190095142Y-114054000D01*
X189999904Y-114149238D01*
X189952285Y-114244476D01*
X189904666Y-114434952D01*
X189904666Y-114577809D01*
X189952285Y-114768285D01*
X189999904Y-114863523D01*
X190095142Y-114958761D01*
X190238000Y-115006380D01*
X190476095Y-115006380D01*
X189523714Y-114101619D02*
X189476095Y-114054000D01*
X189380857Y-114006380D01*
X189142761Y-114006380D01*
X189047523Y-114054000D01*
X188999904Y-114101619D01*
X188952285Y-114196857D01*
X188952285Y-114292095D01*
X188999904Y-114434952D01*
X189571333Y-115006380D01*
X188952285Y-115006380D01*
G04 #@! TO.C,J1*
X196421333Y-97388880D02*
X196421333Y-98103166D01*
X196468952Y-98246023D01*
X196564190Y-98341261D01*
X196707047Y-98388880D01*
X196802285Y-98388880D01*
X195421333Y-98388880D02*
X195992761Y-98388880D01*
X195707047Y-98388880D02*
X195707047Y-97388880D01*
X195802285Y-97531738D01*
X195897523Y-97626976D01*
X195992761Y-97674595D01*
G04 #@! TO.C,J2*
X174577333Y-97305880D02*
X174577333Y-98020166D01*
X174624952Y-98163023D01*
X174720190Y-98258261D01*
X174863047Y-98305880D01*
X174958285Y-98305880D01*
X174148761Y-97401119D02*
X174101142Y-97353500D01*
X174005904Y-97305880D01*
X173767809Y-97305880D01*
X173672571Y-97353500D01*
X173624952Y-97401119D01*
X173577333Y-97496357D01*
X173577333Y-97591595D01*
X173624952Y-97734452D01*
X174196380Y-98305880D01*
X173577333Y-98305880D01*
G04 #@! TO.C,*
G04 #@! TD*
M02*
