G04 #@! TF.GenerationSoftware,KiCad,Pcbnew,(5.0.0-3-g5ebb6b6)*
G04 #@! TF.CreationDate,2018-08-30T23:55:37+02:00*
G04 #@! TF.ProjectId,PTL-IR_remote,50544C2D49525F72656D6F74652E6B69,v1.1*
G04 #@! TF.SameCoordinates,PXa4b7f80PY71d9820*
G04 #@! TF.FileFunction,Paste,Top*
G04 #@! TF.FilePolarity,Positive*
%FSLAX46Y46*%
G04 Gerber Fmt 4.6, Leading zero omitted, Abs format (unit mm)*
G04 Created by KiCad (PCBNEW (5.0.0-3-g5ebb6b6)) date 2018 August 30, Thursday 23:55:37*
%MOMM*%
%LPD*%
G01*
G04 APERTURE LIST*
%ADD10R,0.900000X0.800000*%
%ADD11C,0.100000*%
%ADD12C,0.975000*%
%ADD13R,1.000000X1.500000*%
%ADD14C,0.950000*%
%ADD15R,1.500000X2.400000*%
%ADD16R,1.500000X1.050000*%
%ADD17C,0.894426*%
G04 APERTURE END LIST*
D10*
G04 #@! TO.C,Q1*
X13900000Y8950000D03*
X13900000Y7050000D03*
X15900000Y8000000D03*
G04 #@! TD*
D11*
G04 #@! TO.C,R5*
G36*
X21392642Y33198826D02*
X21416303Y33195316D01*
X21439507Y33189504D01*
X21462029Y33181446D01*
X21483653Y33171218D01*
X21504170Y33158921D01*
X21523383Y33144671D01*
X21541107Y33128607D01*
X21557171Y33110883D01*
X21571421Y33091670D01*
X21583718Y33071153D01*
X21593946Y33049529D01*
X21602004Y33027007D01*
X21607816Y33003803D01*
X21611326Y32980142D01*
X21612500Y32956250D01*
X21612500Y32043750D01*
X21611326Y32019858D01*
X21607816Y31996197D01*
X21602004Y31972993D01*
X21593946Y31950471D01*
X21583718Y31928847D01*
X21571421Y31908330D01*
X21557171Y31889117D01*
X21541107Y31871393D01*
X21523383Y31855329D01*
X21504170Y31841079D01*
X21483653Y31828782D01*
X21462029Y31818554D01*
X21439507Y31810496D01*
X21416303Y31804684D01*
X21392642Y31801174D01*
X21368750Y31800000D01*
X20881250Y31800000D01*
X20857358Y31801174D01*
X20833697Y31804684D01*
X20810493Y31810496D01*
X20787971Y31818554D01*
X20766347Y31828782D01*
X20745830Y31841079D01*
X20726617Y31855329D01*
X20708893Y31871393D01*
X20692829Y31889117D01*
X20678579Y31908330D01*
X20666282Y31928847D01*
X20656054Y31950471D01*
X20647996Y31972993D01*
X20642184Y31996197D01*
X20638674Y32019858D01*
X20637500Y32043750D01*
X20637500Y32956250D01*
X20638674Y32980142D01*
X20642184Y33003803D01*
X20647996Y33027007D01*
X20656054Y33049529D01*
X20666282Y33071153D01*
X20678579Y33091670D01*
X20692829Y33110883D01*
X20708893Y33128607D01*
X20726617Y33144671D01*
X20745830Y33158921D01*
X20766347Y33171218D01*
X20787971Y33181446D01*
X20810493Y33189504D01*
X20833697Y33195316D01*
X20857358Y33198826D01*
X20881250Y33200000D01*
X21368750Y33200000D01*
X21392642Y33198826D01*
X21392642Y33198826D01*
G37*
D12*
X21125000Y32500000D03*
D11*
G36*
X23267642Y33198826D02*
X23291303Y33195316D01*
X23314507Y33189504D01*
X23337029Y33181446D01*
X23358653Y33171218D01*
X23379170Y33158921D01*
X23398383Y33144671D01*
X23416107Y33128607D01*
X23432171Y33110883D01*
X23446421Y33091670D01*
X23458718Y33071153D01*
X23468946Y33049529D01*
X23477004Y33027007D01*
X23482816Y33003803D01*
X23486326Y32980142D01*
X23487500Y32956250D01*
X23487500Y32043750D01*
X23486326Y32019858D01*
X23482816Y31996197D01*
X23477004Y31972993D01*
X23468946Y31950471D01*
X23458718Y31928847D01*
X23446421Y31908330D01*
X23432171Y31889117D01*
X23416107Y31871393D01*
X23398383Y31855329D01*
X23379170Y31841079D01*
X23358653Y31828782D01*
X23337029Y31818554D01*
X23314507Y31810496D01*
X23291303Y31804684D01*
X23267642Y31801174D01*
X23243750Y31800000D01*
X22756250Y31800000D01*
X22732358Y31801174D01*
X22708697Y31804684D01*
X22685493Y31810496D01*
X22662971Y31818554D01*
X22641347Y31828782D01*
X22620830Y31841079D01*
X22601617Y31855329D01*
X22583893Y31871393D01*
X22567829Y31889117D01*
X22553579Y31908330D01*
X22541282Y31928847D01*
X22531054Y31950471D01*
X22522996Y31972993D01*
X22517184Y31996197D01*
X22513674Y32019858D01*
X22512500Y32043750D01*
X22512500Y32956250D01*
X22513674Y32980142D01*
X22517184Y33003803D01*
X22522996Y33027007D01*
X22531054Y33049529D01*
X22541282Y33071153D01*
X22553579Y33091670D01*
X22567829Y33110883D01*
X22583893Y33128607D01*
X22601617Y33144671D01*
X22620830Y33158921D01*
X22641347Y33171218D01*
X22662971Y33181446D01*
X22685493Y33189504D01*
X22708697Y33195316D01*
X22732358Y33198826D01*
X22756250Y33200000D01*
X23243750Y33200000D01*
X23267642Y33198826D01*
X23267642Y33198826D01*
G37*
D12*
X23000000Y32500000D03*
G04 #@! TD*
D11*
G04 #@! TO.C,R1*
G36*
X15955142Y11598826D02*
X15978803Y11595316D01*
X16002007Y11589504D01*
X16024529Y11581446D01*
X16046153Y11571218D01*
X16066670Y11558921D01*
X16085883Y11544671D01*
X16103607Y11528607D01*
X16119671Y11510883D01*
X16133921Y11491670D01*
X16146218Y11471153D01*
X16156446Y11449529D01*
X16164504Y11427007D01*
X16170316Y11403803D01*
X16173826Y11380142D01*
X16175000Y11356250D01*
X16175000Y10443750D01*
X16173826Y10419858D01*
X16170316Y10396197D01*
X16164504Y10372993D01*
X16156446Y10350471D01*
X16146218Y10328847D01*
X16133921Y10308330D01*
X16119671Y10289117D01*
X16103607Y10271393D01*
X16085883Y10255329D01*
X16066670Y10241079D01*
X16046153Y10228782D01*
X16024529Y10218554D01*
X16002007Y10210496D01*
X15978803Y10204684D01*
X15955142Y10201174D01*
X15931250Y10200000D01*
X15443750Y10200000D01*
X15419858Y10201174D01*
X15396197Y10204684D01*
X15372993Y10210496D01*
X15350471Y10218554D01*
X15328847Y10228782D01*
X15308330Y10241079D01*
X15289117Y10255329D01*
X15271393Y10271393D01*
X15255329Y10289117D01*
X15241079Y10308330D01*
X15228782Y10328847D01*
X15218554Y10350471D01*
X15210496Y10372993D01*
X15204684Y10396197D01*
X15201174Y10419858D01*
X15200000Y10443750D01*
X15200000Y11356250D01*
X15201174Y11380142D01*
X15204684Y11403803D01*
X15210496Y11427007D01*
X15218554Y11449529D01*
X15228782Y11471153D01*
X15241079Y11491670D01*
X15255329Y11510883D01*
X15271393Y11528607D01*
X15289117Y11544671D01*
X15308330Y11558921D01*
X15328847Y11571218D01*
X15350471Y11581446D01*
X15372993Y11589504D01*
X15396197Y11595316D01*
X15419858Y11598826D01*
X15443750Y11600000D01*
X15931250Y11600000D01*
X15955142Y11598826D01*
X15955142Y11598826D01*
G37*
D12*
X15687500Y10900000D03*
D11*
G36*
X14080142Y11598826D02*
X14103803Y11595316D01*
X14127007Y11589504D01*
X14149529Y11581446D01*
X14171153Y11571218D01*
X14191670Y11558921D01*
X14210883Y11544671D01*
X14228607Y11528607D01*
X14244671Y11510883D01*
X14258921Y11491670D01*
X14271218Y11471153D01*
X14281446Y11449529D01*
X14289504Y11427007D01*
X14295316Y11403803D01*
X14298826Y11380142D01*
X14300000Y11356250D01*
X14300000Y10443750D01*
X14298826Y10419858D01*
X14295316Y10396197D01*
X14289504Y10372993D01*
X14281446Y10350471D01*
X14271218Y10328847D01*
X14258921Y10308330D01*
X14244671Y10289117D01*
X14228607Y10271393D01*
X14210883Y10255329D01*
X14191670Y10241079D01*
X14171153Y10228782D01*
X14149529Y10218554D01*
X14127007Y10210496D01*
X14103803Y10204684D01*
X14080142Y10201174D01*
X14056250Y10200000D01*
X13568750Y10200000D01*
X13544858Y10201174D01*
X13521197Y10204684D01*
X13497993Y10210496D01*
X13475471Y10218554D01*
X13453847Y10228782D01*
X13433330Y10241079D01*
X13414117Y10255329D01*
X13396393Y10271393D01*
X13380329Y10289117D01*
X13366079Y10308330D01*
X13353782Y10328847D01*
X13343554Y10350471D01*
X13335496Y10372993D01*
X13329684Y10396197D01*
X13326174Y10419858D01*
X13325000Y10443750D01*
X13325000Y11356250D01*
X13326174Y11380142D01*
X13329684Y11403803D01*
X13335496Y11427007D01*
X13343554Y11449529D01*
X13353782Y11471153D01*
X13366079Y11491670D01*
X13380329Y11510883D01*
X13396393Y11528607D01*
X13414117Y11544671D01*
X13433330Y11558921D01*
X13453847Y11571218D01*
X13475471Y11581446D01*
X13497993Y11589504D01*
X13521197Y11595316D01*
X13544858Y11598826D01*
X13568750Y11600000D01*
X14056250Y11600000D01*
X14080142Y11598826D01*
X14080142Y11598826D01*
G37*
D12*
X13812500Y10900000D03*
G04 #@! TD*
D11*
G04 #@! TO.C,R2*
G36*
X14062142Y5524826D02*
X14085803Y5521316D01*
X14109007Y5515504D01*
X14131529Y5507446D01*
X14153153Y5497218D01*
X14173670Y5484921D01*
X14192883Y5470671D01*
X14210607Y5454607D01*
X14226671Y5436883D01*
X14240921Y5417670D01*
X14253218Y5397153D01*
X14263446Y5375529D01*
X14271504Y5353007D01*
X14277316Y5329803D01*
X14280826Y5306142D01*
X14282000Y5282250D01*
X14282000Y4369750D01*
X14280826Y4345858D01*
X14277316Y4322197D01*
X14271504Y4298993D01*
X14263446Y4276471D01*
X14253218Y4254847D01*
X14240921Y4234330D01*
X14226671Y4215117D01*
X14210607Y4197393D01*
X14192883Y4181329D01*
X14173670Y4167079D01*
X14153153Y4154782D01*
X14131529Y4144554D01*
X14109007Y4136496D01*
X14085803Y4130684D01*
X14062142Y4127174D01*
X14038250Y4126000D01*
X13550750Y4126000D01*
X13526858Y4127174D01*
X13503197Y4130684D01*
X13479993Y4136496D01*
X13457471Y4144554D01*
X13435847Y4154782D01*
X13415330Y4167079D01*
X13396117Y4181329D01*
X13378393Y4197393D01*
X13362329Y4215117D01*
X13348079Y4234330D01*
X13335782Y4254847D01*
X13325554Y4276471D01*
X13317496Y4298993D01*
X13311684Y4322197D01*
X13308174Y4345858D01*
X13307000Y4369750D01*
X13307000Y5282250D01*
X13308174Y5306142D01*
X13311684Y5329803D01*
X13317496Y5353007D01*
X13325554Y5375529D01*
X13335782Y5397153D01*
X13348079Y5417670D01*
X13362329Y5436883D01*
X13378393Y5454607D01*
X13396117Y5470671D01*
X13415330Y5484921D01*
X13435847Y5497218D01*
X13457471Y5507446D01*
X13479993Y5515504D01*
X13503197Y5521316D01*
X13526858Y5524826D01*
X13550750Y5526000D01*
X14038250Y5526000D01*
X14062142Y5524826D01*
X14062142Y5524826D01*
G37*
D12*
X13794500Y4826000D03*
D11*
G36*
X15937142Y5524826D02*
X15960803Y5521316D01*
X15984007Y5515504D01*
X16006529Y5507446D01*
X16028153Y5497218D01*
X16048670Y5484921D01*
X16067883Y5470671D01*
X16085607Y5454607D01*
X16101671Y5436883D01*
X16115921Y5417670D01*
X16128218Y5397153D01*
X16138446Y5375529D01*
X16146504Y5353007D01*
X16152316Y5329803D01*
X16155826Y5306142D01*
X16157000Y5282250D01*
X16157000Y4369750D01*
X16155826Y4345858D01*
X16152316Y4322197D01*
X16146504Y4298993D01*
X16138446Y4276471D01*
X16128218Y4254847D01*
X16115921Y4234330D01*
X16101671Y4215117D01*
X16085607Y4197393D01*
X16067883Y4181329D01*
X16048670Y4167079D01*
X16028153Y4154782D01*
X16006529Y4144554D01*
X15984007Y4136496D01*
X15960803Y4130684D01*
X15937142Y4127174D01*
X15913250Y4126000D01*
X15425750Y4126000D01*
X15401858Y4127174D01*
X15378197Y4130684D01*
X15354993Y4136496D01*
X15332471Y4144554D01*
X15310847Y4154782D01*
X15290330Y4167079D01*
X15271117Y4181329D01*
X15253393Y4197393D01*
X15237329Y4215117D01*
X15223079Y4234330D01*
X15210782Y4254847D01*
X15200554Y4276471D01*
X15192496Y4298993D01*
X15186684Y4322197D01*
X15183174Y4345858D01*
X15182000Y4369750D01*
X15182000Y5282250D01*
X15183174Y5306142D01*
X15186684Y5329803D01*
X15192496Y5353007D01*
X15200554Y5375529D01*
X15210782Y5397153D01*
X15223079Y5417670D01*
X15237329Y5436883D01*
X15253393Y5454607D01*
X15271117Y5470671D01*
X15290330Y5484921D01*
X15310847Y5497218D01*
X15332471Y5507446D01*
X15354993Y5515504D01*
X15378197Y5521316D01*
X15401858Y5524826D01*
X15425750Y5526000D01*
X15913250Y5526000D01*
X15937142Y5524826D01*
X15937142Y5524826D01*
G37*
D12*
X15669500Y4826000D03*
G04 #@! TD*
D11*
G04 #@! TO.C,R4*
G36*
X15937142Y2349826D02*
X15960803Y2346316D01*
X15984007Y2340504D01*
X16006529Y2332446D01*
X16028153Y2322218D01*
X16048670Y2309921D01*
X16067883Y2295671D01*
X16085607Y2279607D01*
X16101671Y2261883D01*
X16115921Y2242670D01*
X16128218Y2222153D01*
X16138446Y2200529D01*
X16146504Y2178007D01*
X16152316Y2154803D01*
X16155826Y2131142D01*
X16157000Y2107250D01*
X16157000Y1194750D01*
X16155826Y1170858D01*
X16152316Y1147197D01*
X16146504Y1123993D01*
X16138446Y1101471D01*
X16128218Y1079847D01*
X16115921Y1059330D01*
X16101671Y1040117D01*
X16085607Y1022393D01*
X16067883Y1006329D01*
X16048670Y992079D01*
X16028153Y979782D01*
X16006529Y969554D01*
X15984007Y961496D01*
X15960803Y955684D01*
X15937142Y952174D01*
X15913250Y951000D01*
X15425750Y951000D01*
X15401858Y952174D01*
X15378197Y955684D01*
X15354993Y961496D01*
X15332471Y969554D01*
X15310847Y979782D01*
X15290330Y992079D01*
X15271117Y1006329D01*
X15253393Y1022393D01*
X15237329Y1040117D01*
X15223079Y1059330D01*
X15210782Y1079847D01*
X15200554Y1101471D01*
X15192496Y1123993D01*
X15186684Y1147197D01*
X15183174Y1170858D01*
X15182000Y1194750D01*
X15182000Y2107250D01*
X15183174Y2131142D01*
X15186684Y2154803D01*
X15192496Y2178007D01*
X15200554Y2200529D01*
X15210782Y2222153D01*
X15223079Y2242670D01*
X15237329Y2261883D01*
X15253393Y2279607D01*
X15271117Y2295671D01*
X15290330Y2309921D01*
X15310847Y2322218D01*
X15332471Y2332446D01*
X15354993Y2340504D01*
X15378197Y2346316D01*
X15401858Y2349826D01*
X15425750Y2351000D01*
X15913250Y2351000D01*
X15937142Y2349826D01*
X15937142Y2349826D01*
G37*
D12*
X15669500Y1651000D03*
D11*
G36*
X14062142Y2349826D02*
X14085803Y2346316D01*
X14109007Y2340504D01*
X14131529Y2332446D01*
X14153153Y2322218D01*
X14173670Y2309921D01*
X14192883Y2295671D01*
X14210607Y2279607D01*
X14226671Y2261883D01*
X14240921Y2242670D01*
X14253218Y2222153D01*
X14263446Y2200529D01*
X14271504Y2178007D01*
X14277316Y2154803D01*
X14280826Y2131142D01*
X14282000Y2107250D01*
X14282000Y1194750D01*
X14280826Y1170858D01*
X14277316Y1147197D01*
X14271504Y1123993D01*
X14263446Y1101471D01*
X14253218Y1079847D01*
X14240921Y1059330D01*
X14226671Y1040117D01*
X14210607Y1022393D01*
X14192883Y1006329D01*
X14173670Y992079D01*
X14153153Y979782D01*
X14131529Y969554D01*
X14109007Y961496D01*
X14085803Y955684D01*
X14062142Y952174D01*
X14038250Y951000D01*
X13550750Y951000D01*
X13526858Y952174D01*
X13503197Y955684D01*
X13479993Y961496D01*
X13457471Y969554D01*
X13435847Y979782D01*
X13415330Y992079D01*
X13396117Y1006329D01*
X13378393Y1022393D01*
X13362329Y1040117D01*
X13348079Y1059330D01*
X13335782Y1079847D01*
X13325554Y1101471D01*
X13317496Y1123993D01*
X13311684Y1147197D01*
X13308174Y1170858D01*
X13307000Y1194750D01*
X13307000Y2107250D01*
X13308174Y2131142D01*
X13311684Y2154803D01*
X13317496Y2178007D01*
X13325554Y2200529D01*
X13335782Y2222153D01*
X13348079Y2242670D01*
X13362329Y2261883D01*
X13378393Y2279607D01*
X13396117Y2295671D01*
X13415330Y2309921D01*
X13435847Y2322218D01*
X13457471Y2332446D01*
X13479993Y2340504D01*
X13503197Y2346316D01*
X13526858Y2349826D01*
X13550750Y2351000D01*
X14038250Y2351000D01*
X14062142Y2349826D01*
X14062142Y2349826D01*
G37*
D12*
X13794500Y1651000D03*
G04 #@! TD*
D13*
G04 #@! TO.C,D4*
X4900000Y5550000D03*
X6500000Y5550000D03*
X8100000Y5550000D03*
X4900000Y10450000D03*
X6500000Y10450000D03*
X8100000Y10450000D03*
G04 #@! TD*
D11*
G04 #@! TO.C,C1*
G36*
X12485779Y5273856D02*
X12508834Y5270437D01*
X12531443Y5264773D01*
X12553387Y5256921D01*
X12574457Y5246956D01*
X12594448Y5234974D01*
X12613168Y5221090D01*
X12630438Y5205438D01*
X12646090Y5188168D01*
X12659974Y5169448D01*
X12671956Y5149457D01*
X12681921Y5128387D01*
X12689773Y5106443D01*
X12695437Y5083834D01*
X12698856Y5060779D01*
X12700000Y5037500D01*
X12700000Y4562500D01*
X12698856Y4539221D01*
X12695437Y4516166D01*
X12689773Y4493557D01*
X12681921Y4471613D01*
X12671956Y4450543D01*
X12659974Y4430552D01*
X12646090Y4411832D01*
X12630438Y4394562D01*
X12613168Y4378910D01*
X12594448Y4365026D01*
X12574457Y4353044D01*
X12553387Y4343079D01*
X12531443Y4335227D01*
X12508834Y4329563D01*
X12485779Y4326144D01*
X12462500Y4325000D01*
X11887500Y4325000D01*
X11864221Y4326144D01*
X11841166Y4329563D01*
X11818557Y4335227D01*
X11796613Y4343079D01*
X11775543Y4353044D01*
X11755552Y4365026D01*
X11736832Y4378910D01*
X11719562Y4394562D01*
X11703910Y4411832D01*
X11690026Y4430552D01*
X11678044Y4450543D01*
X11668079Y4471613D01*
X11660227Y4493557D01*
X11654563Y4516166D01*
X11651144Y4539221D01*
X11650000Y4562500D01*
X11650000Y5037500D01*
X11651144Y5060779D01*
X11654563Y5083834D01*
X11660227Y5106443D01*
X11668079Y5128387D01*
X11678044Y5149457D01*
X11690026Y5169448D01*
X11703910Y5188168D01*
X11719562Y5205438D01*
X11736832Y5221090D01*
X11755552Y5234974D01*
X11775543Y5246956D01*
X11796613Y5256921D01*
X11818557Y5264773D01*
X11841166Y5270437D01*
X11864221Y5273856D01*
X11887500Y5275000D01*
X12462500Y5275000D01*
X12485779Y5273856D01*
X12485779Y5273856D01*
G37*
D14*
X12175000Y4800000D03*
D11*
G36*
X10735779Y5273856D02*
X10758834Y5270437D01*
X10781443Y5264773D01*
X10803387Y5256921D01*
X10824457Y5246956D01*
X10844448Y5234974D01*
X10863168Y5221090D01*
X10880438Y5205438D01*
X10896090Y5188168D01*
X10909974Y5169448D01*
X10921956Y5149457D01*
X10931921Y5128387D01*
X10939773Y5106443D01*
X10945437Y5083834D01*
X10948856Y5060779D01*
X10950000Y5037500D01*
X10950000Y4562500D01*
X10948856Y4539221D01*
X10945437Y4516166D01*
X10939773Y4493557D01*
X10931921Y4471613D01*
X10921956Y4450543D01*
X10909974Y4430552D01*
X10896090Y4411832D01*
X10880438Y4394562D01*
X10863168Y4378910D01*
X10844448Y4365026D01*
X10824457Y4353044D01*
X10803387Y4343079D01*
X10781443Y4335227D01*
X10758834Y4329563D01*
X10735779Y4326144D01*
X10712500Y4325000D01*
X10137500Y4325000D01*
X10114221Y4326144D01*
X10091166Y4329563D01*
X10068557Y4335227D01*
X10046613Y4343079D01*
X10025543Y4353044D01*
X10005552Y4365026D01*
X9986832Y4378910D01*
X9969562Y4394562D01*
X9953910Y4411832D01*
X9940026Y4430552D01*
X9928044Y4450543D01*
X9918079Y4471613D01*
X9910227Y4493557D01*
X9904563Y4516166D01*
X9901144Y4539221D01*
X9900000Y4562500D01*
X9900000Y5037500D01*
X9901144Y5060779D01*
X9904563Y5083834D01*
X9910227Y5106443D01*
X9918079Y5128387D01*
X9928044Y5149457D01*
X9940026Y5169448D01*
X9953910Y5188168D01*
X9969562Y5205438D01*
X9986832Y5221090D01*
X10005552Y5234974D01*
X10025543Y5246956D01*
X10046613Y5256921D01*
X10068557Y5264773D01*
X10091166Y5270437D01*
X10114221Y5273856D01*
X10137500Y5275000D01*
X10712500Y5275000D01*
X10735779Y5273856D01*
X10735779Y5273856D01*
G37*
D14*
X10425000Y4800000D03*
G04 #@! TD*
D15*
G04 #@! TO.C,D3*
X10900000Y9300000D03*
D16*
X10900000Y6925000D03*
G04 #@! TD*
D17*
G04 #@! TO.C,JP1*
X5334000Y27154000D03*
D11*
G36*
X6084000Y26654000D02*
X4584000Y26654000D01*
X5084000Y27654000D01*
X5584000Y27654000D01*
X6084000Y26654000D01*
X6084000Y26654000D01*
G37*
D17*
X5334000Y25654000D03*
D11*
G36*
X5584000Y25154000D02*
X5084000Y25154000D01*
X4584000Y26154000D01*
X6084000Y26154000D01*
X5584000Y25154000D01*
X5584000Y25154000D01*
G37*
G04 #@! TD*
M02*
