M48
;DRILL file {KiCad (5.0.0-3-g5ebb6b6)} date 2018 August 30, Thursday 23:55:40
;FORMAT={-:-/ absolute / metric / decimal}
FMAT,2
METRIC,TZ
T1C0.500
T2C0.800
T3C0.900
T4C1.000
T5C2.700
%
G90
G05
M71
T1
X1.778Y35.306
X2.794Y8.89
X3.25Y12.192
X3.302Y3.302
X3.302Y1.27
X3.683Y15.748
X3.834Y27.154
X4.544Y23.876
X4.572Y15.748
X4.572Y13.97
X4.572Y8.636
X4.572Y7.874
X4.826Y4.064
X5.08Y7.112
X5.334Y38.862
X5.334Y11.938
X5.334Y8.636
X5.334Y7.874
X5.8Y19.3
X5.8Y17.822
X5.842Y7.112
X6.096Y8.636
X6.096Y7.874
X6.604Y7.112
X6.83Y21.59
X6.858Y8.636
X6.858Y7.874
X7.366Y7.112
X7.62Y7.874
X8.128Y16.51
X9.652Y23.114
X9.652Y21.336
X9.652Y18.288
X10.5Y11.7
X11.6Y11.4
X12.065Y39.116
X12.446Y6.731
X12.7Y9.144
X12.954Y39.116
X13.208Y3.302
X14.9Y8.
X16.002Y3.302
X16.383Y6.223
X19.05Y5.588
X19.177Y24.511
X19.812Y28.194
X19.939Y26.035
X20.066Y38.862
X20.066Y23.114
X21.Y25.6
X21.Y17.5
X22.Y27.9
X22.Y25.4
X24.13Y34.798
T2
X18.3Y10.9
X20.84Y10.9
T3
X5.461Y2.286
X8.001Y2.286
X10.541Y2.286
X18.034Y2.54
X20.574Y2.54
X18.034Y7.112
X20.574Y7.112
T4
X23.9Y29.68
X23.9Y27.14
X23.9Y24.6
X23.939Y19.113
X23.939Y16.573
X23.939Y14.034
X23.939Y11.493
X23.939Y8.954
X23.939Y6.413
X23.939Y3.873
X23.939Y1.333
X1.27Y32.258
X1.27Y29.718
X1.27Y27.178
X1.27Y24.638
X1.27Y19.05
X1.27Y16.51
X1.27Y13.97
X1.27Y11.43
X1.27Y8.89
X1.27Y6.35
X1.27Y3.81
X1.27Y1.27
X7.239Y13.9
X9.779Y13.9
X12.319Y13.9
X14.859Y13.9
T5
X11.176Y36.83
X9.144Y26.162
T0
M30
