G04 #@! TF.GenerationSoftware,KiCad,Pcbnew,5.0.0*
G04 #@! TF.CreationDate,2018-07-29T13:09:23+02:00*
G04 #@! TF.ProjectId,PTL-IR_remote,50544C2D49525F72656D6F74652E6B69,v1.1*
G04 #@! TF.SameCoordinates,PXa4b7f80PY71d9820*
G04 #@! TF.FileFunction,Copper,L1,Top,Signal*
G04 #@! TF.FilePolarity,Positive*
%FSLAX46Y46*%
G04 Gerber Fmt 4.6, Leading zero omitted, Abs format (unit mm)*
G04 Created by KiCad (PCBNEW 5.0.0) date Sun Jul 29 13:09:23 2018*
%MOMM*%
%LPD*%
G01*
G04 APERTURE LIST*
G04 #@! TA.AperFunction,ComponentPad*
%ADD10C,4.000500*%
G04 #@! TD*
G04 #@! TA.AperFunction,ComponentPad*
%ADD11R,1.800000X1.800000*%
G04 #@! TD*
G04 #@! TA.AperFunction,ComponentPad*
%ADD12C,1.800000*%
G04 #@! TD*
G04 #@! TA.AperFunction,SMDPad,CuDef*
%ADD13R,0.900000X0.800000*%
G04 #@! TD*
G04 #@! TA.AperFunction,Conductor*
%ADD14C,0.100000*%
G04 #@! TD*
G04 #@! TA.AperFunction,SMDPad,CuDef*
%ADD15C,0.975000*%
G04 #@! TD*
G04 #@! TA.AperFunction,ComponentPad*
%ADD16R,1.700000X1.700000*%
G04 #@! TD*
G04 #@! TA.AperFunction,ComponentPad*
%ADD17O,1.700000X1.700000*%
G04 #@! TD*
G04 #@! TA.AperFunction,SMDPad,CuDef*
%ADD18R,1.000000X1.500000*%
G04 #@! TD*
G04 #@! TA.AperFunction,ComponentPad*
%ADD19C,1.600000*%
G04 #@! TD*
G04 #@! TA.AperFunction,SMDPad,CuDef*
%ADD20C,0.950000*%
G04 #@! TD*
G04 #@! TA.AperFunction,SMDPad,CuDef*
%ADD21R,1.500000X2.400000*%
G04 #@! TD*
G04 #@! TA.AperFunction,SMDPad,CuDef*
%ADD22R,1.500000X1.050000*%
G04 #@! TD*
G04 #@! TA.AperFunction,SMDPad,CuDef*
%ADD23C,0.894426*%
G04 #@! TD*
G04 #@! TA.AperFunction,ViaPad*
%ADD24C,0.600000*%
G04 #@! TD*
G04 #@! TA.AperFunction,Conductor*
%ADD25C,0.300000*%
G04 #@! TD*
G04 #@! TA.AperFunction,Conductor*
%ADD26C,0.500000*%
G04 #@! TD*
G04 #@! TA.AperFunction,Conductor*
%ADD27C,0.400000*%
G04 #@! TD*
G04 APERTURE END LIST*
D10*
G04 #@! TO.P,3V3,1*
G04 #@! TO.N,+3V3*
X22600000Y36800000D03*
G04 #@! TD*
G04 #@! TO.P,Din,1*
G04 #@! TO.N,Net-(J5-Pad1)*
X22600000Y31800000D03*
G04 #@! TD*
G04 #@! TO.P,GND,1*
G04 #@! TO.N,GNDREF*
X22600000Y26700000D03*
G04 #@! TD*
D11*
G04 #@! TO.P,U1,1*
G04 #@! TO.N,IRM*
X5461000Y2286000D03*
D12*
G04 #@! TO.P,U1,2*
G04 #@! TO.N,GNDREF*
X8001000Y2286000D03*
G04 #@! TO.P,U1,3*
G04 #@! TO.N,Net-(C1-Pad1)*
X10541000Y2286000D03*
G04 #@! TD*
D13*
G04 #@! TO.P,Q1,1*
G04 #@! TO.N,IR*
X13900000Y8950000D03*
G04 #@! TO.P,Q1,2*
G04 #@! TO.N,GNDREF*
X13900000Y7050000D03*
G04 #@! TO.P,Q1,3*
G04 #@! TO.N,Net-(Q1-Pad3)*
X15900000Y8000000D03*
G04 #@! TD*
D14*
G04 #@! TO.N,+3V3*
G04 #@! TO.C,R5*
G36*
X19784142Y35647826D02*
X19807803Y35644316D01*
X19831007Y35638504D01*
X19853529Y35630446D01*
X19875153Y35620218D01*
X19895670Y35607921D01*
X19914883Y35593671D01*
X19932607Y35577607D01*
X19948671Y35559883D01*
X19962921Y35540670D01*
X19975218Y35520153D01*
X19985446Y35498529D01*
X19993504Y35476007D01*
X19999316Y35452803D01*
X20002826Y35429142D01*
X20004000Y35405250D01*
X20004000Y34917750D01*
X20002826Y34893858D01*
X19999316Y34870197D01*
X19993504Y34846993D01*
X19985446Y34824471D01*
X19975218Y34802847D01*
X19962921Y34782330D01*
X19948671Y34763117D01*
X19932607Y34745393D01*
X19914883Y34729329D01*
X19895670Y34715079D01*
X19875153Y34702782D01*
X19853529Y34692554D01*
X19831007Y34684496D01*
X19807803Y34678684D01*
X19784142Y34675174D01*
X19760250Y34674000D01*
X18847750Y34674000D01*
X18823858Y34675174D01*
X18800197Y34678684D01*
X18776993Y34684496D01*
X18754471Y34692554D01*
X18732847Y34702782D01*
X18712330Y34715079D01*
X18693117Y34729329D01*
X18675393Y34745393D01*
X18659329Y34763117D01*
X18645079Y34782330D01*
X18632782Y34802847D01*
X18622554Y34824471D01*
X18614496Y34846993D01*
X18608684Y34870197D01*
X18605174Y34893858D01*
X18604000Y34917750D01*
X18604000Y35405250D01*
X18605174Y35429142D01*
X18608684Y35452803D01*
X18614496Y35476007D01*
X18622554Y35498529D01*
X18632782Y35520153D01*
X18645079Y35540670D01*
X18659329Y35559883D01*
X18675393Y35577607D01*
X18693117Y35593671D01*
X18712330Y35607921D01*
X18732847Y35620218D01*
X18754471Y35630446D01*
X18776993Y35638504D01*
X18800197Y35644316D01*
X18823858Y35647826D01*
X18847750Y35649000D01*
X19760250Y35649000D01*
X19784142Y35647826D01*
X19784142Y35647826D01*
G37*
D15*
G04 #@! TD*
G04 #@! TO.P,R5,2*
G04 #@! TO.N,+3V3*
X19304000Y35161500D03*
D14*
G04 #@! TO.N,Net-(J5-Pad1)*
G04 #@! TO.C,R5*
G36*
X19784142Y33772826D02*
X19807803Y33769316D01*
X19831007Y33763504D01*
X19853529Y33755446D01*
X19875153Y33745218D01*
X19895670Y33732921D01*
X19914883Y33718671D01*
X19932607Y33702607D01*
X19948671Y33684883D01*
X19962921Y33665670D01*
X19975218Y33645153D01*
X19985446Y33623529D01*
X19993504Y33601007D01*
X19999316Y33577803D01*
X20002826Y33554142D01*
X20004000Y33530250D01*
X20004000Y33042750D01*
X20002826Y33018858D01*
X19999316Y32995197D01*
X19993504Y32971993D01*
X19985446Y32949471D01*
X19975218Y32927847D01*
X19962921Y32907330D01*
X19948671Y32888117D01*
X19932607Y32870393D01*
X19914883Y32854329D01*
X19895670Y32840079D01*
X19875153Y32827782D01*
X19853529Y32817554D01*
X19831007Y32809496D01*
X19807803Y32803684D01*
X19784142Y32800174D01*
X19760250Y32799000D01*
X18847750Y32799000D01*
X18823858Y32800174D01*
X18800197Y32803684D01*
X18776993Y32809496D01*
X18754471Y32817554D01*
X18732847Y32827782D01*
X18712330Y32840079D01*
X18693117Y32854329D01*
X18675393Y32870393D01*
X18659329Y32888117D01*
X18645079Y32907330D01*
X18632782Y32927847D01*
X18622554Y32949471D01*
X18614496Y32971993D01*
X18608684Y32995197D01*
X18605174Y33018858D01*
X18604000Y33042750D01*
X18604000Y33530250D01*
X18605174Y33554142D01*
X18608684Y33577803D01*
X18614496Y33601007D01*
X18622554Y33623529D01*
X18632782Y33645153D01*
X18645079Y33665670D01*
X18659329Y33684883D01*
X18675393Y33702607D01*
X18693117Y33718671D01*
X18712330Y33732921D01*
X18732847Y33745218D01*
X18754471Y33755446D01*
X18776993Y33763504D01*
X18800197Y33769316D01*
X18823858Y33772826D01*
X18847750Y33774000D01*
X19760250Y33774000D01*
X19784142Y33772826D01*
X19784142Y33772826D01*
G37*
D15*
G04 #@! TD*
G04 #@! TO.P,R5,1*
G04 #@! TO.N,Net-(J5-Pad1)*
X19304000Y33286500D03*
D14*
G04 #@! TO.N,PhR*
G04 #@! TO.C,R1*
G36*
X15955142Y11598826D02*
X15978803Y11595316D01*
X16002007Y11589504D01*
X16024529Y11581446D01*
X16046153Y11571218D01*
X16066670Y11558921D01*
X16085883Y11544671D01*
X16103607Y11528607D01*
X16119671Y11510883D01*
X16133921Y11491670D01*
X16146218Y11471153D01*
X16156446Y11449529D01*
X16164504Y11427007D01*
X16170316Y11403803D01*
X16173826Y11380142D01*
X16175000Y11356250D01*
X16175000Y10443750D01*
X16173826Y10419858D01*
X16170316Y10396197D01*
X16164504Y10372993D01*
X16156446Y10350471D01*
X16146218Y10328847D01*
X16133921Y10308330D01*
X16119671Y10289117D01*
X16103607Y10271393D01*
X16085883Y10255329D01*
X16066670Y10241079D01*
X16046153Y10228782D01*
X16024529Y10218554D01*
X16002007Y10210496D01*
X15978803Y10204684D01*
X15955142Y10201174D01*
X15931250Y10200000D01*
X15443750Y10200000D01*
X15419858Y10201174D01*
X15396197Y10204684D01*
X15372993Y10210496D01*
X15350471Y10218554D01*
X15328847Y10228782D01*
X15308330Y10241079D01*
X15289117Y10255329D01*
X15271393Y10271393D01*
X15255329Y10289117D01*
X15241079Y10308330D01*
X15228782Y10328847D01*
X15218554Y10350471D01*
X15210496Y10372993D01*
X15204684Y10396197D01*
X15201174Y10419858D01*
X15200000Y10443750D01*
X15200000Y11356250D01*
X15201174Y11380142D01*
X15204684Y11403803D01*
X15210496Y11427007D01*
X15218554Y11449529D01*
X15228782Y11471153D01*
X15241079Y11491670D01*
X15255329Y11510883D01*
X15271393Y11528607D01*
X15289117Y11544671D01*
X15308330Y11558921D01*
X15328847Y11571218D01*
X15350471Y11581446D01*
X15372993Y11589504D01*
X15396197Y11595316D01*
X15419858Y11598826D01*
X15443750Y11600000D01*
X15931250Y11600000D01*
X15955142Y11598826D01*
X15955142Y11598826D01*
G37*
D15*
G04 #@! TD*
G04 #@! TO.P,R1,1*
G04 #@! TO.N,PhR*
X15687500Y10900000D03*
D14*
G04 #@! TO.N,GNDREF*
G04 #@! TO.C,R1*
G36*
X14080142Y11598826D02*
X14103803Y11595316D01*
X14127007Y11589504D01*
X14149529Y11581446D01*
X14171153Y11571218D01*
X14191670Y11558921D01*
X14210883Y11544671D01*
X14228607Y11528607D01*
X14244671Y11510883D01*
X14258921Y11491670D01*
X14271218Y11471153D01*
X14281446Y11449529D01*
X14289504Y11427007D01*
X14295316Y11403803D01*
X14298826Y11380142D01*
X14300000Y11356250D01*
X14300000Y10443750D01*
X14298826Y10419858D01*
X14295316Y10396197D01*
X14289504Y10372993D01*
X14281446Y10350471D01*
X14271218Y10328847D01*
X14258921Y10308330D01*
X14244671Y10289117D01*
X14228607Y10271393D01*
X14210883Y10255329D01*
X14191670Y10241079D01*
X14171153Y10228782D01*
X14149529Y10218554D01*
X14127007Y10210496D01*
X14103803Y10204684D01*
X14080142Y10201174D01*
X14056250Y10200000D01*
X13568750Y10200000D01*
X13544858Y10201174D01*
X13521197Y10204684D01*
X13497993Y10210496D01*
X13475471Y10218554D01*
X13453847Y10228782D01*
X13433330Y10241079D01*
X13414117Y10255329D01*
X13396393Y10271393D01*
X13380329Y10289117D01*
X13366079Y10308330D01*
X13353782Y10328847D01*
X13343554Y10350471D01*
X13335496Y10372993D01*
X13329684Y10396197D01*
X13326174Y10419858D01*
X13325000Y10443750D01*
X13325000Y11356250D01*
X13326174Y11380142D01*
X13329684Y11403803D01*
X13335496Y11427007D01*
X13343554Y11449529D01*
X13353782Y11471153D01*
X13366079Y11491670D01*
X13380329Y11510883D01*
X13396393Y11528607D01*
X13414117Y11544671D01*
X13433330Y11558921D01*
X13453847Y11571218D01*
X13475471Y11581446D01*
X13497993Y11589504D01*
X13521197Y11595316D01*
X13544858Y11598826D01*
X13568750Y11600000D01*
X14056250Y11600000D01*
X14080142Y11598826D01*
X14080142Y11598826D01*
G37*
D15*
G04 #@! TD*
G04 #@! TO.P,R1,2*
G04 #@! TO.N,GNDREF*
X13812500Y10900000D03*
D14*
G04 #@! TO.N,Net-(Q1-Pad3)*
G04 #@! TO.C,R2*
G36*
X14062142Y5524826D02*
X14085803Y5521316D01*
X14109007Y5515504D01*
X14131529Y5507446D01*
X14153153Y5497218D01*
X14173670Y5484921D01*
X14192883Y5470671D01*
X14210607Y5454607D01*
X14226671Y5436883D01*
X14240921Y5417670D01*
X14253218Y5397153D01*
X14263446Y5375529D01*
X14271504Y5353007D01*
X14277316Y5329803D01*
X14280826Y5306142D01*
X14282000Y5282250D01*
X14282000Y4369750D01*
X14280826Y4345858D01*
X14277316Y4322197D01*
X14271504Y4298993D01*
X14263446Y4276471D01*
X14253218Y4254847D01*
X14240921Y4234330D01*
X14226671Y4215117D01*
X14210607Y4197393D01*
X14192883Y4181329D01*
X14173670Y4167079D01*
X14153153Y4154782D01*
X14131529Y4144554D01*
X14109007Y4136496D01*
X14085803Y4130684D01*
X14062142Y4127174D01*
X14038250Y4126000D01*
X13550750Y4126000D01*
X13526858Y4127174D01*
X13503197Y4130684D01*
X13479993Y4136496D01*
X13457471Y4144554D01*
X13435847Y4154782D01*
X13415330Y4167079D01*
X13396117Y4181329D01*
X13378393Y4197393D01*
X13362329Y4215117D01*
X13348079Y4234330D01*
X13335782Y4254847D01*
X13325554Y4276471D01*
X13317496Y4298993D01*
X13311684Y4322197D01*
X13308174Y4345858D01*
X13307000Y4369750D01*
X13307000Y5282250D01*
X13308174Y5306142D01*
X13311684Y5329803D01*
X13317496Y5353007D01*
X13325554Y5375529D01*
X13335782Y5397153D01*
X13348079Y5417670D01*
X13362329Y5436883D01*
X13378393Y5454607D01*
X13396117Y5470671D01*
X13415330Y5484921D01*
X13435847Y5497218D01*
X13457471Y5507446D01*
X13479993Y5515504D01*
X13503197Y5521316D01*
X13526858Y5524826D01*
X13550750Y5526000D01*
X14038250Y5526000D01*
X14062142Y5524826D01*
X14062142Y5524826D01*
G37*
D15*
G04 #@! TD*
G04 #@! TO.P,R2,2*
G04 #@! TO.N,Net-(Q1-Pad3)*
X13794500Y4826000D03*
D14*
G04 #@! TO.N,Net-(D1-Pad1)*
G04 #@! TO.C,R2*
G36*
X15937142Y5524826D02*
X15960803Y5521316D01*
X15984007Y5515504D01*
X16006529Y5507446D01*
X16028153Y5497218D01*
X16048670Y5484921D01*
X16067883Y5470671D01*
X16085607Y5454607D01*
X16101671Y5436883D01*
X16115921Y5417670D01*
X16128218Y5397153D01*
X16138446Y5375529D01*
X16146504Y5353007D01*
X16152316Y5329803D01*
X16155826Y5306142D01*
X16157000Y5282250D01*
X16157000Y4369750D01*
X16155826Y4345858D01*
X16152316Y4322197D01*
X16146504Y4298993D01*
X16138446Y4276471D01*
X16128218Y4254847D01*
X16115921Y4234330D01*
X16101671Y4215117D01*
X16085607Y4197393D01*
X16067883Y4181329D01*
X16048670Y4167079D01*
X16028153Y4154782D01*
X16006529Y4144554D01*
X15984007Y4136496D01*
X15960803Y4130684D01*
X15937142Y4127174D01*
X15913250Y4126000D01*
X15425750Y4126000D01*
X15401858Y4127174D01*
X15378197Y4130684D01*
X15354993Y4136496D01*
X15332471Y4144554D01*
X15310847Y4154782D01*
X15290330Y4167079D01*
X15271117Y4181329D01*
X15253393Y4197393D01*
X15237329Y4215117D01*
X15223079Y4234330D01*
X15210782Y4254847D01*
X15200554Y4276471D01*
X15192496Y4298993D01*
X15186684Y4322197D01*
X15183174Y4345858D01*
X15182000Y4369750D01*
X15182000Y5282250D01*
X15183174Y5306142D01*
X15186684Y5329803D01*
X15192496Y5353007D01*
X15200554Y5375529D01*
X15210782Y5397153D01*
X15223079Y5417670D01*
X15237329Y5436883D01*
X15253393Y5454607D01*
X15271117Y5470671D01*
X15290330Y5484921D01*
X15310847Y5497218D01*
X15332471Y5507446D01*
X15354993Y5515504D01*
X15378197Y5521316D01*
X15401858Y5524826D01*
X15425750Y5526000D01*
X15913250Y5526000D01*
X15937142Y5524826D01*
X15937142Y5524826D01*
G37*
D15*
G04 #@! TD*
G04 #@! TO.P,R2,1*
G04 #@! TO.N,Net-(D1-Pad1)*
X15669500Y4826000D03*
D14*
G04 #@! TO.N,+3V3*
G04 #@! TO.C,R4*
G36*
X15937142Y2349826D02*
X15960803Y2346316D01*
X15984007Y2340504D01*
X16006529Y2332446D01*
X16028153Y2322218D01*
X16048670Y2309921D01*
X16067883Y2295671D01*
X16085607Y2279607D01*
X16101671Y2261883D01*
X16115921Y2242670D01*
X16128218Y2222153D01*
X16138446Y2200529D01*
X16146504Y2178007D01*
X16152316Y2154803D01*
X16155826Y2131142D01*
X16157000Y2107250D01*
X16157000Y1194750D01*
X16155826Y1170858D01*
X16152316Y1147197D01*
X16146504Y1123993D01*
X16138446Y1101471D01*
X16128218Y1079847D01*
X16115921Y1059330D01*
X16101671Y1040117D01*
X16085607Y1022393D01*
X16067883Y1006329D01*
X16048670Y992079D01*
X16028153Y979782D01*
X16006529Y969554D01*
X15984007Y961496D01*
X15960803Y955684D01*
X15937142Y952174D01*
X15913250Y951000D01*
X15425750Y951000D01*
X15401858Y952174D01*
X15378197Y955684D01*
X15354993Y961496D01*
X15332471Y969554D01*
X15310847Y979782D01*
X15290330Y992079D01*
X15271117Y1006329D01*
X15253393Y1022393D01*
X15237329Y1040117D01*
X15223079Y1059330D01*
X15210782Y1079847D01*
X15200554Y1101471D01*
X15192496Y1123993D01*
X15186684Y1147197D01*
X15183174Y1170858D01*
X15182000Y1194750D01*
X15182000Y2107250D01*
X15183174Y2131142D01*
X15186684Y2154803D01*
X15192496Y2178007D01*
X15200554Y2200529D01*
X15210782Y2222153D01*
X15223079Y2242670D01*
X15237329Y2261883D01*
X15253393Y2279607D01*
X15271117Y2295671D01*
X15290330Y2309921D01*
X15310847Y2322218D01*
X15332471Y2332446D01*
X15354993Y2340504D01*
X15378197Y2346316D01*
X15401858Y2349826D01*
X15425750Y2351000D01*
X15913250Y2351000D01*
X15937142Y2349826D01*
X15937142Y2349826D01*
G37*
D15*
G04 #@! TD*
G04 #@! TO.P,R4,1*
G04 #@! TO.N,+3V3*
X15669500Y1651000D03*
D14*
G04 #@! TO.N,Net-(C1-Pad1)*
G04 #@! TO.C,R4*
G36*
X14062142Y2349826D02*
X14085803Y2346316D01*
X14109007Y2340504D01*
X14131529Y2332446D01*
X14153153Y2322218D01*
X14173670Y2309921D01*
X14192883Y2295671D01*
X14210607Y2279607D01*
X14226671Y2261883D01*
X14240921Y2242670D01*
X14253218Y2222153D01*
X14263446Y2200529D01*
X14271504Y2178007D01*
X14277316Y2154803D01*
X14280826Y2131142D01*
X14282000Y2107250D01*
X14282000Y1194750D01*
X14280826Y1170858D01*
X14277316Y1147197D01*
X14271504Y1123993D01*
X14263446Y1101471D01*
X14253218Y1079847D01*
X14240921Y1059330D01*
X14226671Y1040117D01*
X14210607Y1022393D01*
X14192883Y1006329D01*
X14173670Y992079D01*
X14153153Y979782D01*
X14131529Y969554D01*
X14109007Y961496D01*
X14085803Y955684D01*
X14062142Y952174D01*
X14038250Y951000D01*
X13550750Y951000D01*
X13526858Y952174D01*
X13503197Y955684D01*
X13479993Y961496D01*
X13457471Y969554D01*
X13435847Y979782D01*
X13415330Y992079D01*
X13396117Y1006329D01*
X13378393Y1022393D01*
X13362329Y1040117D01*
X13348079Y1059330D01*
X13335782Y1079847D01*
X13325554Y1101471D01*
X13317496Y1123993D01*
X13311684Y1147197D01*
X13308174Y1170858D01*
X13307000Y1194750D01*
X13307000Y2107250D01*
X13308174Y2131142D01*
X13311684Y2154803D01*
X13317496Y2178007D01*
X13325554Y2200529D01*
X13335782Y2222153D01*
X13348079Y2242670D01*
X13362329Y2261883D01*
X13378393Y2279607D01*
X13396117Y2295671D01*
X13415330Y2309921D01*
X13435847Y2322218D01*
X13457471Y2332446D01*
X13479993Y2340504D01*
X13503197Y2346316D01*
X13526858Y2349826D01*
X13550750Y2351000D01*
X14038250Y2351000D01*
X14062142Y2349826D01*
X14062142Y2349826D01*
G37*
D15*
G04 #@! TD*
G04 #@! TO.P,R4,2*
G04 #@! TO.N,Net-(C1-Pad1)*
X13794500Y1651000D03*
D16*
G04 #@! TO.P,DHT22,1*
G04 #@! TO.N,+3V3*
X7239000Y13900000D03*
D17*
G04 #@! TO.P,DHT22,2*
G04 #@! TO.N,DHT*
X9779000Y13900000D03*
G04 #@! TO.P,DHT22,3*
G04 #@! TO.N,Net-(DHT22-Pad3)*
X12319000Y13900000D03*
G04 #@! TO.P,DHT22,4*
G04 #@! TO.N,GNDREF*
X14859000Y13900000D03*
G04 #@! TD*
G04 #@! TO.P,J1,8*
G04 #@! TO.N,Net-(J1-Pad8)*
X23939500Y1333500D03*
G04 #@! TO.P,J1,7*
G04 #@! TO.N,PhR*
X23939500Y3873500D03*
G04 #@! TO.P,J1,6*
G04 #@! TO.N,Net-(J1-Pad6)*
X23939500Y6413500D03*
G04 #@! TO.P,J1,5*
G04 #@! TO.N,IRM*
X23939500Y8953500D03*
G04 #@! TO.P,J1,4*
G04 #@! TO.N,OneW*
X23939500Y11493500D03*
G04 #@! TO.P,J1,3*
G04 #@! TO.N,Net-(J1-Pad3)*
X23939500Y14033500D03*
G04 #@! TO.P,J1,2*
G04 #@! TO.N,Net-(J1-Pad2)*
X23939500Y16573500D03*
D16*
G04 #@! TO.P,J1,1*
G04 #@! TO.N,+3V3*
X23939500Y19113500D03*
G04 #@! TD*
G04 #@! TO.P,J2,1*
G04 #@! TO.N,Net-(J2-Pad1)*
X1270000Y1270000D03*
D17*
G04 #@! TO.P,J2,2*
G04 #@! TO.N,RGB*
X1270000Y3810000D03*
G04 #@! TO.P,J2,3*
G04 #@! TO.N,SCL*
X1270000Y6350000D03*
G04 #@! TO.P,J2,4*
G04 #@! TO.N,SDA*
X1270000Y8890000D03*
G04 #@! TO.P,J2,5*
G04 #@! TO.N,IR*
X1270000Y11430000D03*
G04 #@! TO.P,J2,6*
G04 #@! TO.N,DHT*
X1270000Y13970000D03*
G04 #@! TO.P,J2,7*
G04 #@! TO.N,+5V*
X1270000Y16510000D03*
G04 #@! TO.P,J2,8*
G04 #@! TO.N,GNDREF*
X1270000Y19050000D03*
G04 #@! TD*
D18*
G04 #@! TO.P,D4,4*
G04 #@! TO.N,RGB*
X4900000Y5550000D03*
G04 #@! TO.P,D4,5*
G04 #@! TO.N,GNDREF*
X6500000Y5550000D03*
G04 #@! TO.P,D4,6*
G04 #@! TO.N,Net-(D4-Pad6)*
X8100000Y5550000D03*
G04 #@! TO.P,D4,3*
G04 #@! TO.N,Net-(D4-Pad3)*
X4900000Y10450000D03*
G04 #@! TO.P,D4,2*
G04 #@! TO.N,Net-(D4-Pad2)*
X6500000Y10450000D03*
G04 #@! TO.P,D4,1*
G04 #@! TO.N,Net-(D3-Pad2)*
X8100000Y10450000D03*
G04 #@! TD*
D19*
G04 #@! TO.P,PR1,1*
G04 #@! TO.N,+3V3*
X19700000Y13740000D03*
G04 #@! TO.P,PR1,2*
G04 #@! TO.N,PhR*
X19700000Y11200000D03*
G04 #@! TD*
D14*
G04 #@! TO.N,Net-(C1-Pad1)*
G04 #@! TO.C,C1*
G36*
X12485779Y5273856D02*
X12508834Y5270437D01*
X12531443Y5264773D01*
X12553387Y5256921D01*
X12574457Y5246956D01*
X12594448Y5234974D01*
X12613168Y5221090D01*
X12630438Y5205438D01*
X12646090Y5188168D01*
X12659974Y5169448D01*
X12671956Y5149457D01*
X12681921Y5128387D01*
X12689773Y5106443D01*
X12695437Y5083834D01*
X12698856Y5060779D01*
X12700000Y5037500D01*
X12700000Y4562500D01*
X12698856Y4539221D01*
X12695437Y4516166D01*
X12689773Y4493557D01*
X12681921Y4471613D01*
X12671956Y4450543D01*
X12659974Y4430552D01*
X12646090Y4411832D01*
X12630438Y4394562D01*
X12613168Y4378910D01*
X12594448Y4365026D01*
X12574457Y4353044D01*
X12553387Y4343079D01*
X12531443Y4335227D01*
X12508834Y4329563D01*
X12485779Y4326144D01*
X12462500Y4325000D01*
X11887500Y4325000D01*
X11864221Y4326144D01*
X11841166Y4329563D01*
X11818557Y4335227D01*
X11796613Y4343079D01*
X11775543Y4353044D01*
X11755552Y4365026D01*
X11736832Y4378910D01*
X11719562Y4394562D01*
X11703910Y4411832D01*
X11690026Y4430552D01*
X11678044Y4450543D01*
X11668079Y4471613D01*
X11660227Y4493557D01*
X11654563Y4516166D01*
X11651144Y4539221D01*
X11650000Y4562500D01*
X11650000Y5037500D01*
X11651144Y5060779D01*
X11654563Y5083834D01*
X11660227Y5106443D01*
X11668079Y5128387D01*
X11678044Y5149457D01*
X11690026Y5169448D01*
X11703910Y5188168D01*
X11719562Y5205438D01*
X11736832Y5221090D01*
X11755552Y5234974D01*
X11775543Y5246956D01*
X11796613Y5256921D01*
X11818557Y5264773D01*
X11841166Y5270437D01*
X11864221Y5273856D01*
X11887500Y5275000D01*
X12462500Y5275000D01*
X12485779Y5273856D01*
X12485779Y5273856D01*
G37*
D20*
G04 #@! TD*
G04 #@! TO.P,C1,1*
G04 #@! TO.N,Net-(C1-Pad1)*
X12175000Y4800000D03*
D14*
G04 #@! TO.N,GNDREF*
G04 #@! TO.C,C1*
G36*
X10735779Y5273856D02*
X10758834Y5270437D01*
X10781443Y5264773D01*
X10803387Y5256921D01*
X10824457Y5246956D01*
X10844448Y5234974D01*
X10863168Y5221090D01*
X10880438Y5205438D01*
X10896090Y5188168D01*
X10909974Y5169448D01*
X10921956Y5149457D01*
X10931921Y5128387D01*
X10939773Y5106443D01*
X10945437Y5083834D01*
X10948856Y5060779D01*
X10950000Y5037500D01*
X10950000Y4562500D01*
X10948856Y4539221D01*
X10945437Y4516166D01*
X10939773Y4493557D01*
X10931921Y4471613D01*
X10921956Y4450543D01*
X10909974Y4430552D01*
X10896090Y4411832D01*
X10880438Y4394562D01*
X10863168Y4378910D01*
X10844448Y4365026D01*
X10824457Y4353044D01*
X10803387Y4343079D01*
X10781443Y4335227D01*
X10758834Y4329563D01*
X10735779Y4326144D01*
X10712500Y4325000D01*
X10137500Y4325000D01*
X10114221Y4326144D01*
X10091166Y4329563D01*
X10068557Y4335227D01*
X10046613Y4343079D01*
X10025543Y4353044D01*
X10005552Y4365026D01*
X9986832Y4378910D01*
X9969562Y4394562D01*
X9953910Y4411832D01*
X9940026Y4430552D01*
X9928044Y4450543D01*
X9918079Y4471613D01*
X9910227Y4493557D01*
X9904563Y4516166D01*
X9901144Y4539221D01*
X9900000Y4562500D01*
X9900000Y5037500D01*
X9901144Y5060779D01*
X9904563Y5083834D01*
X9910227Y5106443D01*
X9918079Y5128387D01*
X9928044Y5149457D01*
X9940026Y5169448D01*
X9953910Y5188168D01*
X9969562Y5205438D01*
X9986832Y5221090D01*
X10005552Y5234974D01*
X10025543Y5246956D01*
X10046613Y5256921D01*
X10068557Y5264773D01*
X10091166Y5270437D01*
X10114221Y5273856D01*
X10137500Y5275000D01*
X10712500Y5275000D01*
X10735779Y5273856D01*
X10735779Y5273856D01*
G37*
D20*
G04 #@! TD*
G04 #@! TO.P,C1,2*
G04 #@! TO.N,GNDREF*
X10425000Y4800000D03*
D16*
G04 #@! TO.P,J3,1*
G04 #@! TO.N,SDA*
X1300000Y32200000D03*
D17*
G04 #@! TO.P,J3,2*
G04 #@! TO.N,SCL*
X1300000Y29660000D03*
G04 #@! TO.P,J3,3*
G04 #@! TO.N,GNDREF*
X1300000Y27120000D03*
G04 #@! TO.P,J3,4*
G04 #@! TO.N,+3V3*
X1300000Y24580000D03*
G04 #@! TD*
D12*
G04 #@! TO.P,D1,2*
G04 #@! TO.N,Net-(D1-Pad2)*
X20574000Y2540000D03*
D11*
G04 #@! TO.P,D1,1*
G04 #@! TO.N,Net-(D1-Pad1)*
X18034000Y2540000D03*
G04 #@! TD*
G04 #@! TO.P,D2,1*
G04 #@! TO.N,Net-(D1-Pad2)*
X20574000Y7112000D03*
D12*
G04 #@! TO.P,D2,2*
G04 #@! TO.N,+5V*
X18034000Y7112000D03*
G04 #@! TD*
D21*
G04 #@! TO.P,D3,1*
G04 #@! TO.N,+5V*
X10900000Y9300000D03*
D22*
G04 #@! TO.P,D3,2*
G04 #@! TO.N,Net-(D3-Pad2)*
X10900000Y6925000D03*
G04 #@! TD*
D23*
G04 #@! TO.P,JP1,2*
G04 #@! TO.N,OneW*
X20701000Y21463000D03*
D14*
G04 #@! TD*
G04 #@! TO.N,OneW*
G04 #@! TO.C,JP1*
G36*
X19951000Y21963000D02*
X21451000Y21963000D01*
X20951000Y20963000D01*
X20451000Y20963000D01*
X19951000Y21963000D01*
X19951000Y21963000D01*
G37*
D23*
G04 #@! TO.P,JP1,1*
G04 #@! TO.N,Net-(J5-Pad1)*
X20701000Y22963000D03*
D14*
G04 #@! TD*
G04 #@! TO.N,Net-(J5-Pad1)*
G04 #@! TO.C,JP1*
G36*
X20451000Y23463000D02*
X20951000Y23463000D01*
X21451000Y22463000D01*
X19951000Y22463000D01*
X20451000Y23463000D01*
X20451000Y23463000D01*
G37*
D24*
G04 #@! TO.N,+3V3*
X4841000Y20066000D03*
G04 #@! TO.N,+5V*
X5200000Y16500000D03*
X10500006Y11700000D03*
G04 #@! TO.N,SDA*
X3400000Y9800000D03*
G04 #@! TO.N,OneW*
X20400000Y19200000D03*
G04 #@! TO.N,IR*
X11600000Y11399998D03*
G04 #@! TD*
D25*
G04 #@! TO.N,+3V3*
X15682000Y2032000D02*
X15682000Y1732000D01*
D26*
X18161000Y36830000D02*
X22860000Y36830000D01*
X17812998Y36481998D02*
X18161000Y36830000D01*
X17812998Y34832998D02*
X17812998Y34417000D01*
X18154000Y35174000D02*
X17812998Y34832998D01*
X19304000Y35174000D02*
X18154000Y35174000D01*
X17812998Y34417000D02*
X17812998Y36481998D01*
D25*
X16332000Y1651000D02*
X16983000Y1000000D01*
X15682000Y1651000D02*
X16332000Y1651000D01*
X21200000Y1000000D02*
X22000000Y1800000D01*
X16983000Y1000000D02*
X21200000Y1000000D01*
X20950000Y13800000D02*
X19800000Y13800000D01*
X22000000Y12750000D02*
X20950000Y13800000D01*
X22000000Y1800000D02*
X22000000Y12750000D01*
D26*
X7239000Y13939000D02*
X7200000Y13900000D01*
X4841000Y20066000D02*
X5634000Y20066000D01*
X5634000Y20066000D02*
X7239000Y18461000D01*
X19800000Y15150000D02*
X18650000Y16300000D01*
X19800000Y13800000D02*
X19800000Y15150000D01*
X7639000Y16300000D02*
X7239000Y15900000D01*
X18650000Y16300000D02*
X7639000Y16300000D01*
X7239000Y18461000D02*
X7239000Y15900000D01*
X7239000Y15900000D02*
X7239000Y13939000D01*
X19800000Y16324000D02*
X22589500Y19113500D01*
X22589500Y19113500D02*
X23939500Y19113500D01*
X19800000Y15150000D02*
X19800000Y16324000D01*
X19800000Y16324000D02*
X19800000Y17900000D01*
X17812998Y19887002D02*
X17812998Y34832998D01*
X19800000Y17900000D02*
X17812998Y19887002D01*
D27*
G04 #@! TO.N,Net-(C1-Pad1)*
X10541000Y2286000D02*
X10541000Y2476500D01*
D26*
X13147000Y2286000D02*
X13782000Y1651000D01*
X12192000Y2286000D02*
X13147000Y2286000D01*
X12250000Y2636000D02*
X11900000Y2286000D01*
X12250000Y4800000D02*
X12250000Y2636000D01*
X10541000Y2286000D02*
X11900000Y2286000D01*
X11900000Y2286000D02*
X12192000Y2286000D01*
G04 #@! TO.N,+5V*
X9600000Y12300000D02*
X6200000Y12300000D01*
X6200000Y12300000D02*
X5200000Y13300000D01*
X5200000Y13300000D02*
X5200000Y16500000D01*
X10900000Y9750000D02*
X9600000Y11050000D01*
X10900000Y9300000D02*
X10900000Y9750000D01*
X9600000Y11050000D02*
X9600000Y12300000D01*
X10200007Y11999999D02*
X10500006Y11700000D01*
X9900006Y12300000D02*
X10200007Y11999999D01*
X9600000Y12300000D02*
X9900006Y12300000D01*
G04 #@! TO.N,Net-(D1-Pad2)*
X20574000Y2540000D02*
X20574000Y7112000D01*
G04 #@! TO.N,Net-(Q1-Pad3)*
X13782000Y5082000D02*
X13782000Y4826000D01*
X15900000Y8000000D02*
X15900000Y7200000D01*
X15900000Y7200000D02*
X13782000Y5082000D01*
G04 #@! TO.N,Net-(D1-Pad1)*
X15616000Y5334000D02*
X15616000Y4958000D01*
X18034000Y3940000D02*
X18034000Y2540000D01*
X17148000Y4826000D02*
X18034000Y3940000D01*
X15682000Y4826000D02*
X17148000Y4826000D01*
D25*
G04 #@! TO.N,Net-(J5-Pad1)*
X19304000Y24360000D02*
X20701000Y22963000D01*
X19304000Y33274000D02*
X19304000Y24360000D01*
X21336000Y33274000D02*
X22860000Y31750000D01*
X19304000Y33274000D02*
X21336000Y33274000D01*
D26*
G04 #@! TO.N,Net-(D3-Pad2)*
X8100000Y8475000D02*
X8100000Y10500000D01*
X10900000Y6925000D02*
X9650000Y6925000D01*
X9650000Y6925000D02*
X8100000Y8475000D01*
D25*
G04 #@! TO.N,SDA*
X3400000Y31214500D02*
X2420000Y32194500D01*
X2420000Y32194500D02*
X1270000Y32194500D01*
X3400000Y9800000D02*
X3400000Y31214500D01*
G04 #@! TO.N,SCL*
X1270000Y6350000D02*
X1651000Y6350000D01*
X1270000Y29654500D02*
X1841500Y29654500D01*
X2600000Y28324500D02*
X1270000Y29654500D01*
X2600000Y7200000D02*
X2600000Y28324500D01*
X1270000Y6350000D02*
X1750000Y6350000D01*
X1750000Y6350000D02*
X2600000Y7200000D01*
G04 #@! TO.N,RGB*
X4900000Y5200000D02*
X4900000Y5500000D01*
X3510000Y3810000D02*
X4900000Y5200000D01*
X1270000Y3810000D02*
X3510000Y3810000D01*
G04 #@! TO.N,OneW*
X20699999Y19499999D02*
X20400000Y19200000D01*
X20701000Y19501000D02*
X20699999Y19499999D01*
X20701000Y21463000D02*
X20701000Y19501000D01*
G04 #@! TO.N,IRM*
X23089501Y8103501D02*
X23939500Y8953500D01*
X5461000Y1086000D02*
X6121990Y425010D01*
X6121990Y425010D02*
X21507010Y425010D01*
X5461000Y2286000D02*
X5461000Y1086000D01*
X21507010Y425010D02*
X22739499Y1657499D01*
X22739499Y1657499D02*
X22739499Y7753499D01*
X22739499Y7753499D02*
X23089501Y8103501D01*
G04 #@! TO.N,PhR*
X19440000Y10900000D02*
X19800000Y11260000D01*
X15700000Y10900000D02*
X19440000Y10900000D01*
G04 #@! TO.N,IR*
X13850000Y8950000D02*
X11600000Y11200000D01*
X13900000Y8950000D02*
X13850000Y8950000D01*
X11600000Y11200000D02*
X11600000Y11399998D01*
D26*
G04 #@! TO.N,GNDREF*
X6500000Y4200000D02*
X6800000Y3900000D01*
X6500000Y5500000D02*
X6500000Y4200000D01*
X6800000Y3900000D02*
X7800000Y3900000D01*
X8001000Y3699000D02*
X8001000Y2286000D01*
X7800000Y3900000D02*
X8001000Y3699000D01*
X10125000Y4800000D02*
X10350000Y4800000D01*
X9225000Y3900000D02*
X10125000Y4800000D01*
X7800000Y3900000D02*
X9225000Y3900000D01*
X10350000Y5675000D02*
X10475000Y5800000D01*
X10350000Y4800000D02*
X10350000Y5675000D01*
X12600000Y5800000D02*
X13850000Y7050000D01*
X13850000Y7050000D02*
X13900000Y7050000D01*
X10475000Y5800000D02*
X12600000Y5800000D01*
X13800000Y12841000D02*
X13800000Y10900000D01*
X14859000Y13900000D02*
X13800000Y12841000D01*
D25*
X13950000Y7050000D02*
X14900000Y8000000D01*
X13900000Y7050000D02*
X13950000Y7050000D01*
X13800000Y10600000D02*
X13800000Y10900000D01*
X14900000Y9500000D02*
X13800000Y10600000D01*
X14900000Y8000000D02*
X14900000Y9500000D01*
G04 #@! TD*
M02*
