G04 #@! TF.GenerationSoftware,KiCad,Pcbnew,5.0.0*
G04 #@! TF.CreationDate,2018-07-30T20:29:51+02:00*
G04 #@! TF.ProjectId,PTL-IR_remote,50544C2D49525F72656D6F74652E6B69,v1.1*
G04 #@! TF.SameCoordinates,PXa4b7f80PY71d9820*
G04 #@! TF.FileFunction,Legend,Top*
G04 #@! TF.FilePolarity,Positive*
%FSLAX46Y46*%
G04 Gerber Fmt 4.6, Leading zero omitted, Abs format (unit mm)*
G04 Created by KiCad (PCBNEW 5.0.0) date Mon Jul 30 20:29:51 2018*
%MOMM*%
%LPD*%
G01*
G04 APERTURE LIST*
%ADD10C,0.150000*%
%ADD11C,0.200000*%
%ADD12C,0.120000*%
G04 APERTURE END LIST*
D10*
X16752380Y26576191D02*
X16752380Y26766667D01*
X16800000Y26861905D01*
X16895238Y26957143D01*
X17085714Y27004762D01*
X17419047Y27004762D01*
X17609523Y26957143D01*
X17704761Y26861905D01*
X17752380Y26766667D01*
X17752380Y26576191D01*
X17704761Y26480953D01*
X17609523Y26385715D01*
X17419047Y26338096D01*
X17085714Y26338096D01*
X16895238Y26385715D01*
X16800000Y26480953D01*
X16752380Y26576191D01*
X17085714Y27433334D02*
X17752380Y27433334D01*
X17180952Y27433334D02*
X17133333Y27480953D01*
X17085714Y27576191D01*
X17085714Y27719048D01*
X17133333Y27814286D01*
X17228571Y27861905D01*
X17752380Y27861905D01*
X17704761Y28719048D02*
X17752380Y28623810D01*
X17752380Y28433334D01*
X17704761Y28338096D01*
X17609523Y28290477D01*
X17228571Y28290477D01*
X17133333Y28338096D01*
X17085714Y28433334D01*
X17085714Y28623810D01*
X17133333Y28719048D01*
X17228571Y28766667D01*
X17323809Y28766667D01*
X17419047Y28290477D01*
X16752380Y29100000D02*
X17752380Y29338096D01*
X17038095Y29528572D01*
X17752380Y29719048D01*
X16752380Y29957143D01*
X17752380Y30338096D02*
X17085714Y30338096D01*
X16752380Y30338096D02*
X16800000Y30290477D01*
X16847619Y30338096D01*
X16800000Y30385715D01*
X16752380Y30338096D01*
X16847619Y30338096D01*
X17752380Y30814286D02*
X17085714Y30814286D01*
X17276190Y30814286D02*
X17180952Y30861905D01*
X17133333Y30909524D01*
X17085714Y31004762D01*
X17085714Y31100000D01*
X17704761Y31814286D02*
X17752380Y31719048D01*
X17752380Y31528572D01*
X17704761Y31433334D01*
X17609523Y31385715D01*
X17228571Y31385715D01*
X17133333Y31433334D01*
X17085714Y31528572D01*
X17085714Y31719048D01*
X17133333Y31814286D01*
X17228571Y31861905D01*
X17323809Y31861905D01*
X17419047Y31385715D01*
X4952380Y28023810D02*
X3952380Y28023810D01*
X4047619Y28452381D02*
X4000000Y28500000D01*
X3952380Y28595239D01*
X3952380Y28833334D01*
X4000000Y28928572D01*
X4047619Y28976191D01*
X4142857Y29023810D01*
X4238095Y29023810D01*
X4380952Y28976191D01*
X4952380Y28404762D01*
X4952380Y29023810D01*
X4857142Y30023810D02*
X4904761Y29976191D01*
X4952380Y29833334D01*
X4952380Y29738096D01*
X4904761Y29595239D01*
X4809523Y29500000D01*
X4714285Y29452381D01*
X4523809Y29404762D01*
X4380952Y29404762D01*
X4190476Y29452381D01*
X4095238Y29500000D01*
X4000000Y29595239D01*
X3952380Y29738096D01*
X3952380Y29833334D01*
X4000000Y29976191D01*
X4047619Y30023810D01*
D11*
X18224500Y37211000D02*
X18224500Y17653000D01*
X3111500Y17716500D02*
X3111500Y37211000D01*
D12*
G04 #@! TO.C,U1*
X3861000Y1786000D02*
X4261000Y2286000D01*
X3861000Y2786000D02*
X3861000Y1786000D01*
X4261000Y2286000D02*
X3861000Y2786000D01*
X10561000Y886000D02*
X10561000Y1086000D01*
X5361000Y886000D02*
X5361000Y1086000D01*
X10701000Y1136000D02*
X5301000Y1136000D01*
X10701000Y3386000D02*
X5301000Y3386000D01*
X5981000Y-1264000D02*
X5581000Y-1264000D01*
X5981000Y-1264000D02*
X5981000Y-1664000D01*
X5981000Y-1264000D02*
X5181000Y-2064000D01*
X6981000Y-1664000D02*
X6181000Y-2464000D01*
X6981000Y-1664000D02*
X6981000Y-2064000D01*
X6981000Y-1664000D02*
X6581000Y-1664000D01*
X5361000Y886000D02*
G75*
G03X10561000Y886000I2600000J0D01*
G01*
G04 #@! TO.C,Q1*
X15660000Y6420000D02*
X15660000Y7350000D01*
X15660000Y9580000D02*
X15660000Y8650000D01*
X15660000Y9580000D02*
X13500000Y9580000D01*
X15660000Y6420000D02*
X14200000Y6420000D01*
G04 #@! TO.C,R5*
X19910000Y29378922D02*
X19910000Y29896078D01*
X18490000Y29378922D02*
X18490000Y29896078D01*
G04 #@! TO.C,R1*
X15008578Y10190000D02*
X14491422Y10190000D01*
X15008578Y11610000D02*
X14491422Y11610000D01*
G04 #@! TO.C,R2*
X14990578Y5536000D02*
X14473422Y5536000D01*
X14990578Y4116000D02*
X14473422Y4116000D01*
G04 #@! TO.C,R4*
X14990578Y941000D02*
X14473422Y941000D01*
X14990578Y2361000D02*
X14473422Y2361000D01*
G04 #@! TO.C,DHT22*
X16189000Y12570000D02*
X16189000Y15230000D01*
X8509000Y12570000D02*
X16189000Y12570000D01*
X8509000Y15230000D02*
X16189000Y15230000D01*
X8509000Y12570000D02*
X8509000Y15230000D01*
X7239000Y12570000D02*
X5909000Y12570000D01*
X5909000Y12570000D02*
X5909000Y13900000D01*
G04 #@! TO.C,D4*
X3750000Y11650000D02*
X3750000Y4350000D01*
X8100000Y11650000D02*
X9250000Y11650000D01*
X9250000Y11650000D02*
X9250000Y4350000D01*
G04 #@! TO.C,PR1*
X17550000Y13790000D02*
X17550000Y11140000D01*
X21850000Y13790000D02*
X21850000Y11140000D01*
X21834388Y13815476D02*
G75*
G03X17550000Y13790000I-2134388J-1325476D01*
G01*
X17567856Y11111973D02*
G75*
G03X21850000Y11140000I2132144J1378027D01*
G01*
G04 #@! TO.C,C1*
X11471267Y4290000D02*
X11128733Y4290000D01*
X11471267Y5310000D02*
X11128733Y5310000D01*
G04 #@! TO.C,D1*
X22294000Y2540462D02*
G75*
G02X16744000Y995170I-2990000J-462D01*
G01*
X22294000Y2539538D02*
G75*
G03X16744000Y4084830I-2990000J462D01*
G01*
X21804000Y2540000D02*
G75*
G03X21804000Y2540000I-2500000J0D01*
G01*
X16744000Y4085000D02*
X16744000Y995000D01*
G04 #@! TO.C,D3*
X11900000Y7450000D02*
X11900000Y10650000D01*
X9900000Y10650000D02*
X9900000Y7450000D01*
X9900000Y10650000D02*
X11900000Y10650000D01*
G04 #@! TO.C,3V3*
D10*
X18952380Y33361905D02*
X18952380Y33980953D01*
X19333333Y33647620D01*
X19333333Y33790477D01*
X19380952Y33885715D01*
X19428571Y33933334D01*
X19523809Y33980953D01*
X19761904Y33980953D01*
X19857142Y33933334D01*
X19904761Y33885715D01*
X19952380Y33790477D01*
X19952380Y33504762D01*
X19904761Y33409524D01*
X19857142Y33361905D01*
X18952380Y34266667D02*
X19952380Y34600000D01*
X18952380Y34933334D01*
X18952380Y35171429D02*
X18952380Y35790477D01*
X19333333Y35457143D01*
X19333333Y35600000D01*
X19380952Y35695239D01*
X19428571Y35742858D01*
X19523809Y35790477D01*
X19761904Y35790477D01*
X19857142Y35742858D01*
X19904761Y35695239D01*
X19952380Y35600000D01*
X19952380Y35314286D01*
X19904761Y35219048D01*
X19857142Y35171429D01*
G04 #@! TO.C,D*
X20052380Y26838096D02*
X19052380Y26838096D01*
X19052380Y27076191D01*
X19100000Y27219048D01*
X19195238Y27314286D01*
X19290476Y27361905D01*
X19480952Y27409524D01*
X19623809Y27409524D01*
X19814285Y27361905D01*
X19909523Y27314286D01*
X20004761Y27219048D01*
X20052380Y27076191D01*
X20052380Y26838096D01*
G04 #@! TO.C,Gnd*
X18800000Y23357143D02*
X18752380Y23261905D01*
X18752380Y23119048D01*
X18800000Y22976191D01*
X18895238Y22880953D01*
X18990476Y22833334D01*
X19180952Y22785715D01*
X19323809Y22785715D01*
X19514285Y22833334D01*
X19609523Y22880953D01*
X19704761Y22976191D01*
X19752380Y23119048D01*
X19752380Y23214286D01*
X19704761Y23357143D01*
X19657142Y23404762D01*
X19323809Y23404762D01*
X19323809Y23214286D01*
X19085714Y23833334D02*
X19752380Y23833334D01*
X19180952Y23833334D02*
X19133333Y23880953D01*
X19085714Y23976191D01*
X19085714Y24119048D01*
X19133333Y24214286D01*
X19228571Y24261905D01*
X19752380Y24261905D01*
X19752380Y25166667D02*
X18752380Y25166667D01*
X19704761Y25166667D02*
X19752380Y25071429D01*
X19752380Y24880953D01*
X19704761Y24785715D01*
X19657142Y24738096D01*
X19561904Y24690477D01*
X19276190Y24690477D01*
X19180952Y24738096D01*
X19133333Y24785715D01*
X19085714Y24880953D01*
X19085714Y25071429D01*
X19133333Y25166667D01*
G04 #@! TO.C,U1*
X7299095Y4733620D02*
X7299095Y3924096D01*
X7346714Y3828858D01*
X7394333Y3781239D01*
X7489571Y3733620D01*
X7680047Y3733620D01*
X7775285Y3781239D01*
X7822904Y3828858D01*
X7870523Y3924096D01*
X7870523Y4733620D01*
X8870523Y3733620D02*
X8299095Y3733620D01*
X8584809Y3733620D02*
X8584809Y4733620D01*
X8489571Y4590762D01*
X8394333Y4495524D01*
X8299095Y4447905D01*
G04 #@! TO.C,Q1*
X17647619Y9204762D02*
X17600000Y9109524D01*
X17504761Y9014286D01*
X17361904Y8871429D01*
X17314285Y8776191D01*
X17314285Y8680953D01*
X17552380Y8728572D02*
X17504761Y8633334D01*
X17409523Y8538096D01*
X17219047Y8490477D01*
X16885714Y8490477D01*
X16695238Y8538096D01*
X16600000Y8633334D01*
X16552380Y8728572D01*
X16552380Y8919048D01*
X16600000Y9014286D01*
X16695238Y9109524D01*
X16885714Y9157143D01*
X17219047Y9157143D01*
X17409523Y9109524D01*
X17504761Y9014286D01*
X17552380Y8919048D01*
X17552380Y8728572D01*
X17552380Y10109524D02*
X17552380Y9538096D01*
X17552380Y9823810D02*
X16552380Y9823810D01*
X16695238Y9728572D01*
X16790476Y9633334D01*
X16838095Y9538096D01*
G04 #@! TO.C,R5*
X19333333Y31347620D02*
X19000000Y31823810D01*
X18761904Y31347620D02*
X18761904Y32347620D01*
X19142857Y32347620D01*
X19238095Y32300000D01*
X19285714Y32252381D01*
X19333333Y32157143D01*
X19333333Y32014286D01*
X19285714Y31919048D01*
X19238095Y31871429D01*
X19142857Y31823810D01*
X18761904Y31823810D01*
X20238095Y32347620D02*
X19761904Y32347620D01*
X19714285Y31871429D01*
X19761904Y31919048D01*
X19857142Y31966667D01*
X20095238Y31966667D01*
X20190476Y31919048D01*
X20238095Y31871429D01*
X20285714Y31776191D01*
X20285714Y31538096D01*
X20238095Y31442858D01*
X20190476Y31395239D01*
X20095238Y31347620D01*
X19857142Y31347620D01*
X19761904Y31395239D01*
X19714285Y31442858D01*
G04 #@! TO.C,R1*
X13052380Y10933334D02*
X12576190Y10600000D01*
X13052380Y10361905D02*
X12052380Y10361905D01*
X12052380Y10742858D01*
X12100000Y10838096D01*
X12147619Y10885715D01*
X12242857Y10933334D01*
X12385714Y10933334D01*
X12480952Y10885715D01*
X12528571Y10838096D01*
X12576190Y10742858D01*
X12576190Y10361905D01*
X13052380Y11885715D02*
X13052380Y11314286D01*
X13052380Y11600000D02*
X12052380Y11600000D01*
X12195238Y11504762D01*
X12290476Y11409524D01*
X12338095Y11314286D01*
G04 #@! TO.C,R2*
X14433333Y2747620D02*
X14100000Y3223810D01*
X13861904Y2747620D02*
X13861904Y3747620D01*
X14242857Y3747620D01*
X14338095Y3700000D01*
X14385714Y3652381D01*
X14433333Y3557143D01*
X14433333Y3414286D01*
X14385714Y3319048D01*
X14338095Y3271429D01*
X14242857Y3223810D01*
X13861904Y3223810D01*
X14814285Y3652381D02*
X14861904Y3700000D01*
X14957142Y3747620D01*
X15195238Y3747620D01*
X15290476Y3700000D01*
X15338095Y3652381D01*
X15385714Y3557143D01*
X15385714Y3461905D01*
X15338095Y3319048D01*
X14766666Y2747620D01*
X15385714Y2747620D01*
G04 #@! TO.C,R4*
X12852380Y1333334D02*
X12376190Y1000000D01*
X12852380Y761905D02*
X11852380Y761905D01*
X11852380Y1142858D01*
X11900000Y1238096D01*
X11947619Y1285715D01*
X12042857Y1333334D01*
X12185714Y1333334D01*
X12280952Y1285715D01*
X12328571Y1238096D01*
X12376190Y1142858D01*
X12376190Y761905D01*
X12185714Y2190477D02*
X12852380Y2190477D01*
X11804761Y1952381D02*
X12519047Y1714286D01*
X12519047Y2333334D01*
G04 #@! TO.C,DHT22*
X9080952Y19347620D02*
X9080952Y20347620D01*
X9319047Y20347620D01*
X9461904Y20300000D01*
X9557142Y20204762D01*
X9604761Y20109524D01*
X9652380Y19919048D01*
X9652380Y19776191D01*
X9604761Y19585715D01*
X9557142Y19490477D01*
X9461904Y19395239D01*
X9319047Y19347620D01*
X9080952Y19347620D01*
X10080952Y19347620D02*
X10080952Y20347620D01*
X10080952Y19871429D02*
X10652380Y19871429D01*
X10652380Y19347620D02*
X10652380Y20347620D01*
X10985714Y20347620D02*
X11557142Y20347620D01*
X11271428Y19347620D02*
X11271428Y20347620D01*
X11842857Y20252381D02*
X11890476Y20300000D01*
X11985714Y20347620D01*
X12223809Y20347620D01*
X12319047Y20300000D01*
X12366666Y20252381D01*
X12414285Y20157143D01*
X12414285Y20061905D01*
X12366666Y19919048D01*
X11795238Y19347620D01*
X12414285Y19347620D01*
X12795238Y20252381D02*
X12842857Y20300000D01*
X12938095Y20347620D01*
X13176190Y20347620D01*
X13271428Y20300000D01*
X13319047Y20252381D01*
X13366666Y20157143D01*
X13366666Y20061905D01*
X13319047Y19919048D01*
X12747619Y19347620D01*
X13366666Y19347620D01*
G04 #@! TO.C,D4*
X6952380Y7161905D02*
X5952380Y7161905D01*
X5952380Y7400000D01*
X6000000Y7542858D01*
X6095238Y7638096D01*
X6190476Y7685715D01*
X6380952Y7733334D01*
X6523809Y7733334D01*
X6714285Y7685715D01*
X6809523Y7638096D01*
X6904761Y7542858D01*
X6952380Y7400000D01*
X6952380Y7161905D01*
X6285714Y8590477D02*
X6952380Y8590477D01*
X5904761Y8352381D02*
X6619047Y8114286D01*
X6619047Y8733334D01*
G04 #@! TO.C,PR1*
X18461904Y15347620D02*
X18461904Y16347620D01*
X18842857Y16347620D01*
X18938095Y16300000D01*
X18985714Y16252381D01*
X19033333Y16157143D01*
X19033333Y16014286D01*
X18985714Y15919048D01*
X18938095Y15871429D01*
X18842857Y15823810D01*
X18461904Y15823810D01*
X20033333Y15347620D02*
X19700000Y15823810D01*
X19461904Y15347620D02*
X19461904Y16347620D01*
X19842857Y16347620D01*
X19938095Y16300000D01*
X19985714Y16252381D01*
X20033333Y16157143D01*
X20033333Y16014286D01*
X19985714Y15919048D01*
X19938095Y15871429D01*
X19842857Y15823810D01*
X19461904Y15823810D01*
X20985714Y15347620D02*
X20414285Y15347620D01*
X20700000Y15347620D02*
X20700000Y16347620D01*
X20604761Y16204762D01*
X20509523Y16109524D01*
X20414285Y16061905D01*
G04 #@! TO.C,C1*
X11733333Y3042858D02*
X11685714Y2995239D01*
X11542857Y2947620D01*
X11447619Y2947620D01*
X11304761Y2995239D01*
X11209523Y3090477D01*
X11161904Y3185715D01*
X11114285Y3376191D01*
X11114285Y3519048D01*
X11161904Y3709524D01*
X11209523Y3804762D01*
X11304761Y3900000D01*
X11447619Y3947620D01*
X11542857Y3947620D01*
X11685714Y3900000D01*
X11733333Y3852381D01*
X12685714Y2947620D02*
X12114285Y2947620D01*
X12400000Y2947620D02*
X12400000Y3947620D01*
X12304761Y3804762D01*
X12209523Y3709524D01*
X12114285Y3661905D01*
G04 #@! TO.C,D1*
X18565904Y3847620D02*
X18565904Y4847620D01*
X18804000Y4847620D01*
X18946857Y4800000D01*
X19042095Y4704762D01*
X19089714Y4609524D01*
X19137333Y4419048D01*
X19137333Y4276191D01*
X19089714Y4085715D01*
X19042095Y3990477D01*
X18946857Y3895239D01*
X18804000Y3847620D01*
X18565904Y3847620D01*
X20089714Y3847620D02*
X19518285Y3847620D01*
X19804000Y3847620D02*
X19804000Y4847620D01*
X19708761Y4704762D01*
X19613523Y4609524D01*
X19518285Y4561905D01*
G04 #@! TO.C,D3*
X13252380Y7161905D02*
X12252380Y7161905D01*
X12252380Y7400000D01*
X12300000Y7542858D01*
X12395238Y7638096D01*
X12490476Y7685715D01*
X12680952Y7733334D01*
X12823809Y7733334D01*
X13014285Y7685715D01*
X13109523Y7638096D01*
X13204761Y7542858D01*
X13252380Y7400000D01*
X13252380Y7161905D01*
X12252380Y8066667D02*
X12252380Y8685715D01*
X12633333Y8352381D01*
X12633333Y8495239D01*
X12680952Y8590477D01*
X12728571Y8638096D01*
X12823809Y8685715D01*
X13061904Y8685715D01*
X13157142Y8638096D01*
X13204761Y8590477D01*
X13252380Y8495239D01*
X13252380Y8209524D01*
X13204761Y8114286D01*
X13157142Y8066667D01*
G04 #@! TO.C,JP1*
D11*
X1352380Y33966667D02*
X2066666Y33966667D01*
X2209523Y33919048D01*
X2304761Y33823810D01*
X2352380Y33680953D01*
X2352380Y33585715D01*
X2352380Y34442858D02*
X1352380Y34442858D01*
X1352380Y34823810D01*
X1400000Y34919048D01*
X1447619Y34966667D01*
X1542857Y35014286D01*
X1685714Y35014286D01*
X1780952Y34966667D01*
X1828571Y34919048D01*
X1876190Y34823810D01*
X1876190Y34442858D01*
X2352380Y35966667D02*
X2352380Y35395239D01*
X2352380Y35680953D02*
X1352380Y35680953D01*
X1495238Y35585715D01*
X1590476Y35490477D01*
X1638095Y35395239D01*
G04 #@! TD*
M02*
