G04 #@! TF.GenerationSoftware,KiCad,Pcbnew,(5.0.0-3-g5ebb6b6)*
G04 #@! TF.CreationDate,2018-08-30T23:55:37+02:00*
G04 #@! TF.ProjectId,PTL-IR_remote,50544C2D49525F72656D6F74652E6B69,v1.1*
G04 #@! TF.SameCoordinates,PXa4b7f80PY71d9820*
G04 #@! TF.FileFunction,Copper,L2,Bot,Signal*
G04 #@! TF.FilePolarity,Positive*
%FSLAX46Y46*%
G04 Gerber Fmt 4.6, Leading zero omitted, Abs format (unit mm)*
G04 Created by KiCad (PCBNEW (5.0.0-3-g5ebb6b6)) date 2018 August 30, Thursday 23:55:37*
%MOMM*%
%LPD*%
G01*
G04 APERTURE LIST*
G04 #@! TA.AperFunction,ComponentPad*
%ADD10R,1.700000X1.700000*%
G04 #@! TD*
G04 #@! TA.AperFunction,ComponentPad*
%ADD11O,1.700000X1.700000*%
G04 #@! TD*
G04 #@! TA.AperFunction,ComponentPad*
%ADD12C,1.600000*%
G04 #@! TD*
G04 #@! TA.AperFunction,ComponentPad*
%ADD13R,1.800000X1.800000*%
G04 #@! TD*
G04 #@! TA.AperFunction,ComponentPad*
%ADD14C,1.800000*%
G04 #@! TD*
G04 #@! TA.AperFunction,ViaPad*
%ADD15C,0.600000*%
G04 #@! TD*
G04 #@! TA.AperFunction,Conductor*
%ADD16C,0.500000*%
G04 #@! TD*
G04 #@! TA.AperFunction,Conductor*
%ADD17C,0.300000*%
G04 #@! TD*
G04 #@! TA.AperFunction,Conductor*
%ADD18C,0.400000*%
G04 #@! TD*
G04 #@! TA.AperFunction,Conductor*
%ADD19C,0.254000*%
G04 #@! TD*
G04 APERTURE END LIST*
D10*
G04 #@! TO.P,DHT22,1*
G04 #@! TO.N,+3V3*
X7239000Y13900000D03*
D11*
G04 #@! TO.P,DHT22,2*
G04 #@! TO.N,DHT*
X9779000Y13900000D03*
G04 #@! TO.P,DHT22,3*
G04 #@! TO.N,N/C*
X12319000Y13900000D03*
G04 #@! TO.P,DHT22,4*
G04 #@! TO.N,GNDREF*
X14859000Y13900000D03*
G04 #@! TD*
G04 #@! TO.P,J1,8*
G04 #@! TO.N,Net-(J1-Pad8)*
X23939500Y1333500D03*
G04 #@! TO.P,J1,7*
G04 #@! TO.N,PhR*
X23939500Y3873500D03*
G04 #@! TO.P,J1,6*
G04 #@! TO.N,Net-(J1-Pad6)*
X23939500Y6413500D03*
G04 #@! TO.P,J1,5*
G04 #@! TO.N,IRM*
X23939500Y8953500D03*
G04 #@! TO.P,J1,4*
G04 #@! TO.N,OneW*
X23939500Y11493500D03*
G04 #@! TO.P,J1,3*
G04 #@! TO.N,Net-(J1-Pad3)*
X23939500Y14033500D03*
G04 #@! TO.P,J1,2*
G04 #@! TO.N,Net-(J1-Pad2)*
X23939500Y16573500D03*
D10*
G04 #@! TO.P,J1,1*
G04 #@! TO.N,+3V3*
X23939500Y19113500D03*
G04 #@! TD*
G04 #@! TO.P,J2,1*
G04 #@! TO.N,Net-(J2-Pad1)*
X1270000Y1270000D03*
D11*
G04 #@! TO.P,J2,2*
G04 #@! TO.N,Net-(J2-Pad2)*
X1270000Y3810000D03*
G04 #@! TO.P,J2,3*
G04 #@! TO.N,DHT*
X1270000Y6350000D03*
G04 #@! TO.P,J2,4*
G04 #@! TO.N,SDA*
X1270000Y8890000D03*
G04 #@! TO.P,J2,5*
G04 #@! TO.N,IR*
X1270000Y11430000D03*
G04 #@! TO.P,J2,6*
G04 #@! TO.N,RGB*
X1270000Y13970000D03*
G04 #@! TO.P,J2,7*
G04 #@! TO.N,GNDREF*
X1270000Y16510000D03*
G04 #@! TO.P,J2,8*
G04 #@! TO.N,+5V*
X1270000Y19050000D03*
G04 #@! TD*
D12*
G04 #@! TO.P,PR1,1*
G04 #@! TO.N,+3V3*
X20840000Y10900000D03*
G04 #@! TO.P,PR1,2*
G04 #@! TO.N,PhR*
X18300000Y10900000D03*
G04 #@! TD*
D13*
G04 #@! TO.P,D2,1*
G04 #@! TO.N,Net-(D1-Pad2)*
X20574000Y7112000D03*
D14*
G04 #@! TO.P,D2,2*
G04 #@! TO.N,+5V*
X18034000Y7112000D03*
G04 #@! TD*
D10*
G04 #@! TO.P,J4,1*
G04 #@! TO.N,GNDREF*
X23900000Y24600000D03*
D11*
G04 #@! TO.P,J4,2*
G04 #@! TO.N,+3V3*
X23900000Y27140000D03*
G04 #@! TO.P,J4,3*
G04 #@! TO.N,OneW*
X23900000Y29680000D03*
G04 #@! TD*
D10*
G04 #@! TO.P,bme280,1*
G04 #@! TO.N,SDA*
X1270000Y32258000D03*
D11*
G04 #@! TO.P,bme280,2*
G04 #@! TO.N,Net-(JP1-Pad2)*
X1270000Y29718000D03*
G04 #@! TO.P,bme280,3*
G04 #@! TO.N,GNDREF*
X1270000Y27178000D03*
G04 #@! TO.P,bme280,4*
G04 #@! TO.N,+3V3*
X1270000Y24638000D03*
G04 #@! TD*
D14*
G04 #@! TO.P,D1,2*
G04 #@! TO.N,Net-(D1-Pad2)*
X20574000Y2540000D03*
D13*
G04 #@! TO.P,D1,1*
G04 #@! TO.N,Net-(D1-Pad1)*
X18034000Y2540000D03*
G04 #@! TD*
G04 #@! TO.P,U1,1*
G04 #@! TO.N,IRM*
X5461000Y2286000D03*
D14*
G04 #@! TO.P,U1,2*
G04 #@! TO.N,GNDREF*
X8001000Y2286000D03*
G04 #@! TO.P,U1,3*
G04 #@! TO.N,Net-(C1-Pad1)*
X10541000Y2286000D03*
G04 #@! TD*
D15*
G04 #@! TO.N,+3V3*
X5800000Y19300000D03*
X21000000Y17499990D03*
X21000000Y25600000D03*
G04 #@! TO.N,+5V*
X10500006Y11700000D03*
X5800010Y17821990D03*
G04 #@! TO.N,DHT*
X8128000Y16510000D03*
X5334000Y11938000D03*
G04 #@! TO.N,OneW*
X22000000Y27899992D03*
X22000000Y25400000D03*
G04 #@! TO.N,IR*
X11600000Y11399998D03*
G04 #@! TO.N,GNDREF*
X6858000Y8636000D03*
X6096000Y8636000D03*
X5334000Y8636000D03*
X5334000Y7874000D03*
X6096000Y7874000D03*
X6858000Y7874000D03*
X7366000Y7112000D03*
X6604000Y7112000D03*
X5842000Y7112000D03*
X5080000Y7112000D03*
X4572000Y8636000D03*
X4572000Y7874000D03*
X7620000Y7874000D03*
X14900000Y8000000D03*
X12446000Y6731000D03*
X12700000Y9144000D03*
X20066000Y23114000D03*
X19177000Y24511000D03*
X19939000Y26035000D03*
X19812000Y28194000D03*
X24130000Y34798000D03*
X20066000Y38862000D03*
X5334000Y38862000D03*
X1778000Y35306000D03*
X16002000Y3302000D03*
X13208000Y3302000D03*
X16383000Y6223000D03*
X19050000Y5588000D03*
X4544000Y23876000D03*
X6830000Y21590000D03*
X4572000Y13970000D03*
X3302000Y1270000D03*
X3683000Y15748000D03*
X4572000Y15748000D03*
X12065000Y39116000D03*
X12954000Y39116000D03*
X9652000Y23114000D03*
X9652000Y21336000D03*
X9652000Y18288000D03*
X3302000Y3302000D03*
G04 #@! TO.N,RGB*
X3250001Y12192000D03*
X2794000Y8890000D03*
X4826000Y4064000D03*
G04 #@! TO.N,Net-(JP1-Pad2)*
X3834000Y27154000D03*
G04 #@! TD*
D16*
G04 #@! TO.N,+3V3*
X1270000Y23830000D02*
X5500001Y19599999D01*
X5500001Y19599999D02*
X5800000Y19300000D01*
X1270000Y24574500D02*
X1270000Y23830000D01*
X23939500Y19113500D02*
X22589500Y19113500D01*
X22589500Y19113500D02*
X21000000Y17524000D01*
X21000000Y17524000D02*
X21000000Y17499990D01*
X21299999Y25899999D02*
X21000000Y25600000D01*
X22500000Y27100000D02*
X21299999Y25899999D01*
X23900000Y27100000D02*
X22500000Y27100000D01*
G04 #@! TO.N,+5V*
X18034000Y7112000D02*
X12946001Y12199999D01*
X11000005Y12199999D02*
X10800005Y11999999D01*
X10800005Y11999999D02*
X10500006Y11700000D01*
X12946001Y12199999D02*
X11000005Y12199999D01*
X4699000Y19050000D02*
X5800010Y17948990D01*
X1270000Y19050000D02*
X4699000Y19050000D01*
D17*
G04 #@! TO.N,DHT*
X8929001Y14749999D02*
X8929001Y15708999D01*
X9779000Y13900000D02*
X8929001Y14749999D01*
X8929001Y15708999D02*
X8128000Y16510000D01*
X9652000Y13773000D02*
X9779000Y13900000D01*
X9652000Y12700000D02*
X9652000Y13773000D01*
X9144000Y11938000D02*
X9652000Y12700000D01*
X5334000Y11938000D02*
X9144000Y11938000D01*
G04 #@! TO.N,OneW*
X22299999Y28199991D02*
X22000000Y27899992D01*
X23900000Y29700000D02*
X23800008Y29700000D01*
X23800008Y29700000D02*
X22299999Y28199991D01*
G04 #@! TO.N,PhR*
X18300000Y10000000D02*
X18300000Y10900000D01*
X23089501Y4723499D02*
X23076501Y4723499D01*
X23939500Y3873500D02*
X23089501Y4723499D01*
X19100000Y9200000D02*
X18300000Y10000000D01*
X22300000Y5500000D02*
X22300000Y8200000D01*
X23076501Y4723499D02*
X22300000Y5500000D01*
X22300000Y8200000D02*
X21300000Y9200000D01*
X21300000Y9200000D02*
X19100000Y9200000D01*
G04 #@! TO.N,IR*
X7678001Y6461999D02*
X4767999Y6461999D01*
X11300001Y10083999D02*
X7678001Y6461999D01*
X11300001Y11099999D02*
X11300001Y10083999D01*
X11600000Y11399998D02*
X11300001Y11099999D01*
X2119999Y10580001D02*
X1270000Y11430000D01*
X3463991Y9236009D02*
X2119999Y10580001D01*
X3463991Y7766007D02*
X3463991Y9236009D01*
X4767999Y6461999D02*
X3463991Y7766007D01*
D16*
G04 #@! TO.N,GNDREF*
X7800000Y20620000D02*
X7800000Y18000000D01*
X1300000Y27120000D02*
X4544000Y23876000D01*
X13600000Y15159000D02*
X14859000Y13900000D01*
X7800000Y18000000D02*
X10200000Y15600000D01*
X13600000Y15600000D02*
X13600000Y15159000D01*
X10200000Y15600000D02*
X13600000Y15600000D01*
X22900000Y24600000D02*
X23900000Y24600000D01*
X20500000Y22200000D02*
X22900000Y24600000D01*
X20500000Y18600000D02*
X20500000Y22200000D01*
X13600000Y15600000D02*
X17500000Y15600000D01*
X17500000Y15600000D02*
X20500000Y18600000D01*
X4544000Y23876000D02*
X6830000Y21590000D01*
X6830000Y21590000D02*
X7800000Y20620000D01*
D18*
X3810000Y13970000D02*
X3810000Y13970000D01*
D16*
X1270000Y16510000D02*
X3810000Y13970000D01*
X3810000Y13970000D02*
X4572000Y13970000D01*
X1270000Y16510000D02*
X2540000Y17780000D01*
X2540000Y17780000D02*
X3556000Y17780000D01*
X4572000Y16764000D02*
X4572000Y15748000D01*
X3556000Y17780000D02*
X4572000Y16764000D01*
X4064000Y13462000D02*
X4272001Y13670001D01*
X4272001Y13670001D02*
X4572000Y13970000D01*
X4064000Y9144000D02*
X4064000Y13462000D01*
X4572000Y8636000D02*
X4064000Y9144000D01*
D17*
G04 #@! TO.N,RGB*
X1270000Y13970000D02*
X3250001Y12192000D01*
X2794000Y8890000D02*
X2794000Y6858000D01*
X2794000Y6858000D02*
X2794000Y5080000D01*
X2794000Y5080000D02*
X3810000Y4064000D01*
X3810000Y4064000D02*
X4826000Y4064000D01*
G04 #@! TO.N,Net-(JP1-Pad2)*
X1840000Y29660000D02*
X1300000Y29660000D01*
X3834000Y27154000D02*
X1270000Y29718000D01*
G04 #@! TD*
D19*
G04 #@! TO.N,GNDREF*
G36*
X16499000Y7395421D02*
X16499000Y6806670D01*
X16732690Y6242493D01*
X17164493Y5810690D01*
X17728670Y5577000D01*
X18339330Y5577000D01*
X18903507Y5810690D01*
X19072725Y5979908D01*
X19075843Y5964235D01*
X19216191Y5754191D01*
X19426235Y5613843D01*
X19674000Y5564560D01*
X21474000Y5564560D01*
X21514048Y5572526D01*
X21499622Y5500000D01*
X21515000Y5422688D01*
X21515000Y5422685D01*
X21560546Y5193709D01*
X21734047Y4934047D01*
X21799592Y4890251D01*
X22466754Y4223088D01*
X22488478Y4190576D01*
X22425408Y3873500D01*
X22540661Y3294082D01*
X22868875Y2802875D01*
X23167261Y2603500D01*
X22868875Y2404125D01*
X22540661Y1912918D01*
X22425408Y1333500D01*
X22540661Y754082D01*
X22570116Y710000D01*
X2767440Y710000D01*
X2767440Y2120000D01*
X2718157Y2367765D01*
X2577809Y2577809D01*
X2367765Y2718157D01*
X2322381Y2727184D01*
X2340625Y2739375D01*
X2668839Y3230582D01*
X2784092Y3810000D01*
X2741943Y4021900D01*
X3200253Y3563589D01*
X3244047Y3498047D01*
X3309589Y3454253D01*
X3309591Y3454251D01*
X3441430Y3366159D01*
X3503708Y3324546D01*
X3732684Y3279000D01*
X3732688Y3279000D01*
X3810000Y3263622D01*
X3887312Y3279000D01*
X3932059Y3279000D01*
X3913560Y3186000D01*
X3913560Y1386000D01*
X3962843Y1138235D01*
X4103191Y928191D01*
X4313235Y787843D01*
X4561000Y738560D01*
X6361000Y738560D01*
X6608765Y787843D01*
X6818809Y928191D01*
X6951058Y1126114D01*
X6985890Y1091282D01*
X7100447Y1205839D01*
X7186852Y949357D01*
X7760336Y739542D01*
X8370460Y765161D01*
X8815148Y949357D01*
X8901554Y1205841D01*
X8001000Y2106395D01*
X7986858Y2092252D01*
X7807253Y2271857D01*
X7821395Y2286000D01*
X8180605Y2286000D01*
X9081159Y1385446D01*
X9231562Y1436115D01*
X9239690Y1416493D01*
X9671493Y984690D01*
X10235670Y751000D01*
X10846330Y751000D01*
X11410507Y984690D01*
X11842310Y1416493D01*
X12076000Y1980670D01*
X12076000Y2591330D01*
X11842310Y3155507D01*
X11557817Y3440000D01*
X16486560Y3440000D01*
X16486560Y1640000D01*
X16535843Y1392235D01*
X16676191Y1182191D01*
X16886235Y1041843D01*
X17134000Y992560D01*
X18934000Y992560D01*
X19181765Y1041843D01*
X19391809Y1182191D01*
X19532157Y1392235D01*
X19535275Y1407908D01*
X19704493Y1238690D01*
X20268670Y1005000D01*
X20879330Y1005000D01*
X21443507Y1238690D01*
X21875310Y1670493D01*
X22109000Y2234670D01*
X22109000Y2845330D01*
X21875310Y3409507D01*
X21443507Y3841310D01*
X20879330Y4075000D01*
X20268670Y4075000D01*
X19704493Y3841310D01*
X19535275Y3672092D01*
X19532157Y3687765D01*
X19391809Y3897809D01*
X19181765Y4038157D01*
X18934000Y4087440D01*
X17134000Y4087440D01*
X16886235Y4038157D01*
X16676191Y3897809D01*
X16535843Y3687765D01*
X16486560Y3440000D01*
X11557817Y3440000D01*
X11410507Y3587310D01*
X10846330Y3821000D01*
X10235670Y3821000D01*
X9671493Y3587310D01*
X9239690Y3155507D01*
X9231562Y3135885D01*
X9081159Y3186554D01*
X8180605Y2286000D01*
X7821395Y2286000D01*
X7807253Y2300142D01*
X7986858Y2479747D01*
X8001000Y2465605D01*
X8901554Y3366159D01*
X8815148Y3622643D01*
X8241664Y3832458D01*
X7631540Y3806839D01*
X7186852Y3622643D01*
X7100447Y3366161D01*
X6985890Y3480718D01*
X6951058Y3445886D01*
X6818809Y3643809D01*
X6608765Y3784157D01*
X6361000Y3833440D01*
X5742536Y3833440D01*
X5761000Y3878017D01*
X5761000Y4249983D01*
X5618655Y4593635D01*
X5355635Y4856655D01*
X5011983Y4999000D01*
X4640017Y4999000D01*
X4296365Y4856655D01*
X4288710Y4849000D01*
X4135158Y4849000D01*
X3579000Y5405157D01*
X3579000Y6540840D01*
X4158252Y5961588D01*
X4202046Y5896046D01*
X4267588Y5852252D01*
X4267590Y5852250D01*
X4461707Y5722545D01*
X4690683Y5676999D01*
X4690687Y5676999D01*
X4767999Y5661621D01*
X4845311Y5676999D01*
X7600689Y5676999D01*
X7678001Y5661621D01*
X7755313Y5676999D01*
X7755317Y5676999D01*
X7984293Y5722545D01*
X8243954Y5896046D01*
X8287750Y5961591D01*
X11800409Y9474250D01*
X11865954Y9518046D01*
X12039455Y9777707D01*
X12085001Y10006683D01*
X12085001Y10006687D01*
X12100379Y10083999D01*
X12085001Y10161311D01*
X12085001Y10588855D01*
X12129635Y10607343D01*
X12392655Y10870363D01*
X12535000Y11214015D01*
X12535000Y11314999D01*
X12579423Y11314999D01*
X16499000Y7395421D01*
X16499000Y7395421D01*
G37*
X16499000Y7395421D02*
X16499000Y6806670D01*
X16732690Y6242493D01*
X17164493Y5810690D01*
X17728670Y5577000D01*
X18339330Y5577000D01*
X18903507Y5810690D01*
X19072725Y5979908D01*
X19075843Y5964235D01*
X19216191Y5754191D01*
X19426235Y5613843D01*
X19674000Y5564560D01*
X21474000Y5564560D01*
X21514048Y5572526D01*
X21499622Y5500000D01*
X21515000Y5422688D01*
X21515000Y5422685D01*
X21560546Y5193709D01*
X21734047Y4934047D01*
X21799592Y4890251D01*
X22466754Y4223088D01*
X22488478Y4190576D01*
X22425408Y3873500D01*
X22540661Y3294082D01*
X22868875Y2802875D01*
X23167261Y2603500D01*
X22868875Y2404125D01*
X22540661Y1912918D01*
X22425408Y1333500D01*
X22540661Y754082D01*
X22570116Y710000D01*
X2767440Y710000D01*
X2767440Y2120000D01*
X2718157Y2367765D01*
X2577809Y2577809D01*
X2367765Y2718157D01*
X2322381Y2727184D01*
X2340625Y2739375D01*
X2668839Y3230582D01*
X2784092Y3810000D01*
X2741943Y4021900D01*
X3200253Y3563589D01*
X3244047Y3498047D01*
X3309589Y3454253D01*
X3309591Y3454251D01*
X3441430Y3366159D01*
X3503708Y3324546D01*
X3732684Y3279000D01*
X3732688Y3279000D01*
X3810000Y3263622D01*
X3887312Y3279000D01*
X3932059Y3279000D01*
X3913560Y3186000D01*
X3913560Y1386000D01*
X3962843Y1138235D01*
X4103191Y928191D01*
X4313235Y787843D01*
X4561000Y738560D01*
X6361000Y738560D01*
X6608765Y787843D01*
X6818809Y928191D01*
X6951058Y1126114D01*
X6985890Y1091282D01*
X7100447Y1205839D01*
X7186852Y949357D01*
X7760336Y739542D01*
X8370460Y765161D01*
X8815148Y949357D01*
X8901554Y1205841D01*
X8001000Y2106395D01*
X7986858Y2092252D01*
X7807253Y2271857D01*
X7821395Y2286000D01*
X8180605Y2286000D01*
X9081159Y1385446D01*
X9231562Y1436115D01*
X9239690Y1416493D01*
X9671493Y984690D01*
X10235670Y751000D01*
X10846330Y751000D01*
X11410507Y984690D01*
X11842310Y1416493D01*
X12076000Y1980670D01*
X12076000Y2591330D01*
X11842310Y3155507D01*
X11557817Y3440000D01*
X16486560Y3440000D01*
X16486560Y1640000D01*
X16535843Y1392235D01*
X16676191Y1182191D01*
X16886235Y1041843D01*
X17134000Y992560D01*
X18934000Y992560D01*
X19181765Y1041843D01*
X19391809Y1182191D01*
X19532157Y1392235D01*
X19535275Y1407908D01*
X19704493Y1238690D01*
X20268670Y1005000D01*
X20879330Y1005000D01*
X21443507Y1238690D01*
X21875310Y1670493D01*
X22109000Y2234670D01*
X22109000Y2845330D01*
X21875310Y3409507D01*
X21443507Y3841310D01*
X20879330Y4075000D01*
X20268670Y4075000D01*
X19704493Y3841310D01*
X19535275Y3672092D01*
X19532157Y3687765D01*
X19391809Y3897809D01*
X19181765Y4038157D01*
X18934000Y4087440D01*
X17134000Y4087440D01*
X16886235Y4038157D01*
X16676191Y3897809D01*
X16535843Y3687765D01*
X16486560Y3440000D01*
X11557817Y3440000D01*
X11410507Y3587310D01*
X10846330Y3821000D01*
X10235670Y3821000D01*
X9671493Y3587310D01*
X9239690Y3155507D01*
X9231562Y3135885D01*
X9081159Y3186554D01*
X8180605Y2286000D01*
X7821395Y2286000D01*
X7807253Y2300142D01*
X7986858Y2479747D01*
X8001000Y2465605D01*
X8901554Y3366159D01*
X8815148Y3622643D01*
X8241664Y3832458D01*
X7631540Y3806839D01*
X7186852Y3622643D01*
X7100447Y3366161D01*
X6985890Y3480718D01*
X6951058Y3445886D01*
X6818809Y3643809D01*
X6608765Y3784157D01*
X6361000Y3833440D01*
X5742536Y3833440D01*
X5761000Y3878017D01*
X5761000Y4249983D01*
X5618655Y4593635D01*
X5355635Y4856655D01*
X5011983Y4999000D01*
X4640017Y4999000D01*
X4296365Y4856655D01*
X4288710Y4849000D01*
X4135158Y4849000D01*
X3579000Y5405157D01*
X3579000Y6540840D01*
X4158252Y5961588D01*
X4202046Y5896046D01*
X4267588Y5852252D01*
X4267590Y5852250D01*
X4461707Y5722545D01*
X4690683Y5676999D01*
X4690687Y5676999D01*
X4767999Y5661621D01*
X4845311Y5676999D01*
X7600689Y5676999D01*
X7678001Y5661621D01*
X7755313Y5676999D01*
X7755317Y5676999D01*
X7984293Y5722545D01*
X8243954Y5896046D01*
X8287750Y5961591D01*
X11800409Y9474250D01*
X11865954Y9518046D01*
X12039455Y9777707D01*
X12085001Y10006683D01*
X12085001Y10006687D01*
X12100379Y10083999D01*
X12085001Y10161311D01*
X12085001Y10588855D01*
X12129635Y10607343D01*
X12392655Y10870363D01*
X12535000Y11214015D01*
X12535000Y11314999D01*
X12579423Y11314999D01*
X16499000Y7395421D01*
G36*
X20312517Y39374239D02*
X24690000Y34814359D01*
X24690000Y30938133D01*
X24479418Y31078839D01*
X24046256Y31165000D01*
X23753744Y31165000D01*
X23320582Y31078839D01*
X22829375Y30750625D01*
X22501161Y30259418D01*
X22385908Y29680000D01*
X22433017Y29443166D01*
X21824843Y28834992D01*
X21814017Y28834992D01*
X21470365Y28692647D01*
X21207345Y28429627D01*
X21065000Y28085975D01*
X21065000Y27714009D01*
X21207345Y27370357D01*
X21363062Y27214640D01*
X20591078Y26442656D01*
X20470365Y26392655D01*
X20207345Y26129635D01*
X20065000Y25785983D01*
X20065000Y25414017D01*
X20207345Y25070365D01*
X20470365Y24807345D01*
X20814017Y24665000D01*
X21185983Y24665000D01*
X21346303Y24731407D01*
X21470365Y24607345D01*
X21814017Y24465000D01*
X22185983Y24465000D01*
X22415000Y24559862D01*
X22415000Y24472998D01*
X22573748Y24472998D01*
X22415000Y24314250D01*
X22415000Y23623690D01*
X22511673Y23390301D01*
X22690302Y23211673D01*
X22923691Y23115000D01*
X23614250Y23115000D01*
X23773000Y23273750D01*
X23773000Y24473000D01*
X23753000Y24473000D01*
X23753000Y24727000D01*
X23773000Y24727000D01*
X23773000Y24747000D01*
X24027000Y24747000D01*
X24027000Y24727000D01*
X24047000Y24727000D01*
X24047000Y24473000D01*
X24027000Y24473000D01*
X24027000Y23273750D01*
X24185750Y23115000D01*
X24690000Y23115000D01*
X24690000Y20610940D01*
X23089500Y20610940D01*
X22841735Y20561657D01*
X22631691Y20421309D01*
X22491343Y20211265D01*
X22446826Y19987459D01*
X22244190Y19947152D01*
X22149156Y19883652D01*
X22025345Y19800924D01*
X22025344Y19800923D01*
X21951451Y19751549D01*
X21902077Y19677656D01*
X20550090Y18325668D01*
X20470365Y18292645D01*
X20207345Y18029625D01*
X20065000Y17685973D01*
X20065000Y17314007D01*
X20207345Y16970355D01*
X20470365Y16707335D01*
X20814017Y16564990D01*
X21185983Y16564990D01*
X21529635Y16707335D01*
X21792655Y16970355D01*
X21859633Y17132055D01*
X22592269Y17864690D01*
X22631691Y17805691D01*
X22841735Y17665343D01*
X22887119Y17656316D01*
X22868875Y17644125D01*
X22540661Y17152918D01*
X22425408Y16573500D01*
X22540661Y15994082D01*
X22868875Y15502875D01*
X23167261Y15303500D01*
X22868875Y15104125D01*
X22540661Y14612918D01*
X22425408Y14033500D01*
X22540661Y13454082D01*
X22868875Y12962875D01*
X23167261Y12763500D01*
X22868875Y12564125D01*
X22540661Y12072918D01*
X22425408Y11493500D01*
X22540661Y10914082D01*
X22868875Y10422875D01*
X23167261Y10223500D01*
X22868875Y10024125D01*
X22540661Y9532918D01*
X22463775Y9146382D01*
X21909748Y9700409D01*
X21865953Y9765953D01*
X21787662Y9818266D01*
X22056534Y10087138D01*
X22275000Y10614561D01*
X22275000Y11185439D01*
X22056534Y11712862D01*
X21652862Y12116534D01*
X21125439Y12335000D01*
X20554561Y12335000D01*
X20027138Y12116534D01*
X19623466Y11712862D01*
X19570000Y11583784D01*
X19516534Y11712862D01*
X19112862Y12116534D01*
X18585439Y12335000D01*
X18014561Y12335000D01*
X17487138Y12116534D01*
X17083466Y11712862D01*
X16865000Y11185439D01*
X16865000Y10614561D01*
X17083466Y10087138D01*
X17487138Y9683466D01*
X17598101Y9637503D01*
X17677921Y9518046D01*
X17734047Y9434047D01*
X17799592Y9390251D01*
X18490253Y8699589D01*
X18534047Y8634047D01*
X18599589Y8590253D01*
X18599591Y8590251D01*
X18726488Y8505461D01*
X18793708Y8460546D01*
X19022684Y8415000D01*
X19022688Y8415000D01*
X19100000Y8399622D01*
X19177312Y8415000D01*
X19179569Y8415000D01*
X19075843Y8259765D01*
X19072725Y8244092D01*
X18903507Y8413310D01*
X18339330Y8647000D01*
X17750579Y8647000D01*
X13633426Y12764152D01*
X13584050Y12838048D01*
X13453643Y12925184D01*
X13602843Y13148478D01*
X13663817Y13018642D01*
X14092076Y12628355D01*
X14502110Y12458524D01*
X14732000Y12579845D01*
X14732000Y13773000D01*
X14986000Y13773000D01*
X14986000Y12579845D01*
X15215890Y12458524D01*
X15625924Y12628355D01*
X16054183Y13018642D01*
X16300486Y13543108D01*
X16179819Y13773000D01*
X14986000Y13773000D01*
X14732000Y13773000D01*
X14712000Y13773000D01*
X14712000Y14027000D01*
X14732000Y14027000D01*
X14732000Y15220155D01*
X14986000Y15220155D01*
X14986000Y14027000D01*
X16179819Y14027000D01*
X16300486Y14256892D01*
X16054183Y14781358D01*
X15625924Y15171645D01*
X15215890Y15341476D01*
X14986000Y15220155D01*
X14732000Y15220155D01*
X14502110Y15341476D01*
X14092076Y15171645D01*
X13663817Y14781358D01*
X13602843Y14651522D01*
X13389625Y14970625D01*
X12898418Y15298839D01*
X12465256Y15385000D01*
X12172744Y15385000D01*
X11739582Y15298839D01*
X11248375Y14970625D01*
X11049000Y14672239D01*
X10849625Y14970625D01*
X10358418Y15298839D01*
X9925256Y15385000D01*
X9714001Y15385000D01*
X9714001Y15631689D01*
X9729379Y15709000D01*
X9714001Y15786311D01*
X9714001Y15786315D01*
X9668455Y16015291D01*
X9576367Y16153110D01*
X9538750Y16209408D01*
X9538748Y16209410D01*
X9494954Y16274952D01*
X9429412Y16318746D01*
X9063000Y16685157D01*
X9063000Y16695983D01*
X8920655Y17039635D01*
X8657635Y17302655D01*
X8313983Y17445000D01*
X7942017Y17445000D01*
X7598365Y17302655D01*
X7335345Y17039635D01*
X7193000Y16695983D01*
X7193000Y16324017D01*
X7335345Y15980365D01*
X7598365Y15717345D01*
X7942017Y15575000D01*
X7952843Y15575000D01*
X8140682Y15387160D01*
X8089000Y15397440D01*
X6389000Y15397440D01*
X6141235Y15348157D01*
X5931191Y15207809D01*
X5790843Y14997765D01*
X5741560Y14750000D01*
X5741560Y13050000D01*
X5790843Y12802235D01*
X5829118Y12744952D01*
X5519983Y12873000D01*
X5148017Y12873000D01*
X4804365Y12730655D01*
X4541345Y12467635D01*
X4399000Y12123983D01*
X4399000Y11752017D01*
X4541345Y11408365D01*
X4804365Y11145345D01*
X5148017Y11003000D01*
X5519983Y11003000D01*
X5863635Y11145345D01*
X5871290Y11153000D01*
X8988281Y11153000D01*
X8988676Y11152837D01*
X9143869Y11153000D01*
X9221316Y11153000D01*
X9221727Y11153082D01*
X9300967Y11153165D01*
X9373377Y11183247D01*
X9450292Y11198546D01*
X9516185Y11242575D01*
X9589362Y11272975D01*
X9642706Y11326431D01*
X9707351Y11170365D01*
X9970371Y10907345D01*
X10314023Y10765000D01*
X10515001Y10765000D01*
X10515002Y10409157D01*
X7352844Y7246999D01*
X5093157Y7246999D01*
X4248991Y8091164D01*
X4248991Y9158697D01*
X4264369Y9236009D01*
X4248991Y9313321D01*
X4248991Y9313325D01*
X4203445Y9542301D01*
X4029944Y9801962D01*
X3964399Y9845758D01*
X2729750Y11080407D01*
X2729748Y11080410D01*
X2717075Y11093083D01*
X2773608Y11377292D01*
X3064018Y11257000D01*
X3435984Y11257000D01*
X3779636Y11399345D01*
X4042656Y11662365D01*
X4185001Y12006017D01*
X4185001Y12377983D01*
X4042656Y12721635D01*
X3779636Y12984655D01*
X3435984Y13127000D01*
X3383689Y13127000D01*
X2732690Y13711583D01*
X2784092Y13970000D01*
X2668839Y14549418D01*
X2340625Y15040625D01*
X2021522Y15253843D01*
X2151358Y15314817D01*
X2541645Y15743076D01*
X2711476Y16153110D01*
X2590155Y16383000D01*
X1397000Y16383000D01*
X1397000Y16363000D01*
X1143000Y16363000D01*
X1143000Y16383000D01*
X1123000Y16383000D01*
X1123000Y16637000D01*
X1143000Y16637000D01*
X1143000Y16657000D01*
X1397000Y16657000D01*
X1397000Y16637000D01*
X2590155Y16637000D01*
X2711476Y16866890D01*
X2541645Y17276924D01*
X2151358Y17705183D01*
X2021522Y17766157D01*
X2340625Y17979375D01*
X2464656Y18165000D01*
X4332422Y18165000D01*
X4867553Y17629869D01*
X5007355Y17292355D01*
X5270375Y17029335D01*
X5614027Y16886990D01*
X5985993Y16886990D01*
X6329645Y17029335D01*
X6592665Y17292355D01*
X6735010Y17636007D01*
X6735010Y18007973D01*
X6649599Y18214173D01*
X6633661Y18294301D01*
X6487434Y18513145D01*
X6411434Y18589144D01*
X6592655Y18770365D01*
X6735000Y19114017D01*
X6735000Y19485983D01*
X6592655Y19829635D01*
X6329635Y20092655D01*
X6208922Y20142656D01*
X6187427Y20164151D01*
X6187425Y20164154D01*
X2518297Y23833281D01*
X2668839Y24058582D01*
X2784092Y24638000D01*
X2668839Y25217418D01*
X2340625Y25708625D01*
X2021522Y25921843D01*
X2151358Y25982817D01*
X2541645Y26411076D01*
X2711476Y26821110D01*
X2590156Y27050998D01*
X2755000Y27050998D01*
X2755000Y27122843D01*
X2899000Y26978843D01*
X2899000Y26968017D01*
X3041345Y26624365D01*
X3304365Y26361345D01*
X3648017Y26219000D01*
X4019983Y26219000D01*
X4363635Y26361345D01*
X4559131Y26556841D01*
X7159000Y26556841D01*
X7159000Y25767159D01*
X7461199Y25037588D01*
X8019588Y24479199D01*
X8749159Y24177000D01*
X9538841Y24177000D01*
X10268412Y24479199D01*
X10826801Y25037588D01*
X11129000Y25767159D01*
X11129000Y26556841D01*
X10826801Y27286412D01*
X10268412Y27844801D01*
X9538841Y28147000D01*
X8749159Y28147000D01*
X8019588Y27844801D01*
X7461199Y27286412D01*
X7159000Y26556841D01*
X4559131Y26556841D01*
X4626655Y26624365D01*
X4769000Y26968017D01*
X4769000Y27339983D01*
X4626655Y27683635D01*
X4363635Y27946655D01*
X4019983Y28089000D01*
X4009157Y28089000D01*
X2717075Y29381082D01*
X2784092Y29718000D01*
X2668839Y30297418D01*
X2340625Y30788625D01*
X2322381Y30800816D01*
X2367765Y30809843D01*
X2577809Y30950191D01*
X2718157Y31160235D01*
X2767440Y31408000D01*
X2767440Y33108000D01*
X2718157Y33355765D01*
X2577809Y33565809D01*
X2367765Y33706157D01*
X2120000Y33755440D01*
X710000Y33755440D01*
X710000Y34516026D01*
X1692372Y35557733D01*
X3294103Y37224841D01*
X9191000Y37224841D01*
X9191000Y36435159D01*
X9493199Y35705588D01*
X10051588Y35147199D01*
X10781159Y34845000D01*
X11570841Y34845000D01*
X12300412Y35147199D01*
X12858801Y35705588D01*
X13161000Y36435159D01*
X13161000Y37224841D01*
X12858801Y37954412D01*
X12300412Y38512801D01*
X11570841Y38815000D01*
X10781159Y38815000D01*
X10051588Y38512801D01*
X9493199Y37954412D01*
X9191000Y37224841D01*
X3294103Y37224841D01*
X5374354Y39390000D01*
X17932621Y39390000D01*
X20312517Y39374239D01*
X20312517Y39374239D01*
G37*
X20312517Y39374239D02*
X24690000Y34814359D01*
X24690000Y30938133D01*
X24479418Y31078839D01*
X24046256Y31165000D01*
X23753744Y31165000D01*
X23320582Y31078839D01*
X22829375Y30750625D01*
X22501161Y30259418D01*
X22385908Y29680000D01*
X22433017Y29443166D01*
X21824843Y28834992D01*
X21814017Y28834992D01*
X21470365Y28692647D01*
X21207345Y28429627D01*
X21065000Y28085975D01*
X21065000Y27714009D01*
X21207345Y27370357D01*
X21363062Y27214640D01*
X20591078Y26442656D01*
X20470365Y26392655D01*
X20207345Y26129635D01*
X20065000Y25785983D01*
X20065000Y25414017D01*
X20207345Y25070365D01*
X20470365Y24807345D01*
X20814017Y24665000D01*
X21185983Y24665000D01*
X21346303Y24731407D01*
X21470365Y24607345D01*
X21814017Y24465000D01*
X22185983Y24465000D01*
X22415000Y24559862D01*
X22415000Y24472998D01*
X22573748Y24472998D01*
X22415000Y24314250D01*
X22415000Y23623690D01*
X22511673Y23390301D01*
X22690302Y23211673D01*
X22923691Y23115000D01*
X23614250Y23115000D01*
X23773000Y23273750D01*
X23773000Y24473000D01*
X23753000Y24473000D01*
X23753000Y24727000D01*
X23773000Y24727000D01*
X23773000Y24747000D01*
X24027000Y24747000D01*
X24027000Y24727000D01*
X24047000Y24727000D01*
X24047000Y24473000D01*
X24027000Y24473000D01*
X24027000Y23273750D01*
X24185750Y23115000D01*
X24690000Y23115000D01*
X24690000Y20610940D01*
X23089500Y20610940D01*
X22841735Y20561657D01*
X22631691Y20421309D01*
X22491343Y20211265D01*
X22446826Y19987459D01*
X22244190Y19947152D01*
X22149156Y19883652D01*
X22025345Y19800924D01*
X22025344Y19800923D01*
X21951451Y19751549D01*
X21902077Y19677656D01*
X20550090Y18325668D01*
X20470365Y18292645D01*
X20207345Y18029625D01*
X20065000Y17685973D01*
X20065000Y17314007D01*
X20207345Y16970355D01*
X20470365Y16707335D01*
X20814017Y16564990D01*
X21185983Y16564990D01*
X21529635Y16707335D01*
X21792655Y16970355D01*
X21859633Y17132055D01*
X22592269Y17864690D01*
X22631691Y17805691D01*
X22841735Y17665343D01*
X22887119Y17656316D01*
X22868875Y17644125D01*
X22540661Y17152918D01*
X22425408Y16573500D01*
X22540661Y15994082D01*
X22868875Y15502875D01*
X23167261Y15303500D01*
X22868875Y15104125D01*
X22540661Y14612918D01*
X22425408Y14033500D01*
X22540661Y13454082D01*
X22868875Y12962875D01*
X23167261Y12763500D01*
X22868875Y12564125D01*
X22540661Y12072918D01*
X22425408Y11493500D01*
X22540661Y10914082D01*
X22868875Y10422875D01*
X23167261Y10223500D01*
X22868875Y10024125D01*
X22540661Y9532918D01*
X22463775Y9146382D01*
X21909748Y9700409D01*
X21865953Y9765953D01*
X21787662Y9818266D01*
X22056534Y10087138D01*
X22275000Y10614561D01*
X22275000Y11185439D01*
X22056534Y11712862D01*
X21652862Y12116534D01*
X21125439Y12335000D01*
X20554561Y12335000D01*
X20027138Y12116534D01*
X19623466Y11712862D01*
X19570000Y11583784D01*
X19516534Y11712862D01*
X19112862Y12116534D01*
X18585439Y12335000D01*
X18014561Y12335000D01*
X17487138Y12116534D01*
X17083466Y11712862D01*
X16865000Y11185439D01*
X16865000Y10614561D01*
X17083466Y10087138D01*
X17487138Y9683466D01*
X17598101Y9637503D01*
X17677921Y9518046D01*
X17734047Y9434047D01*
X17799592Y9390251D01*
X18490253Y8699589D01*
X18534047Y8634047D01*
X18599589Y8590253D01*
X18599591Y8590251D01*
X18726488Y8505461D01*
X18793708Y8460546D01*
X19022684Y8415000D01*
X19022688Y8415000D01*
X19100000Y8399622D01*
X19177312Y8415000D01*
X19179569Y8415000D01*
X19075843Y8259765D01*
X19072725Y8244092D01*
X18903507Y8413310D01*
X18339330Y8647000D01*
X17750579Y8647000D01*
X13633426Y12764152D01*
X13584050Y12838048D01*
X13453643Y12925184D01*
X13602843Y13148478D01*
X13663817Y13018642D01*
X14092076Y12628355D01*
X14502110Y12458524D01*
X14732000Y12579845D01*
X14732000Y13773000D01*
X14986000Y13773000D01*
X14986000Y12579845D01*
X15215890Y12458524D01*
X15625924Y12628355D01*
X16054183Y13018642D01*
X16300486Y13543108D01*
X16179819Y13773000D01*
X14986000Y13773000D01*
X14732000Y13773000D01*
X14712000Y13773000D01*
X14712000Y14027000D01*
X14732000Y14027000D01*
X14732000Y15220155D01*
X14986000Y15220155D01*
X14986000Y14027000D01*
X16179819Y14027000D01*
X16300486Y14256892D01*
X16054183Y14781358D01*
X15625924Y15171645D01*
X15215890Y15341476D01*
X14986000Y15220155D01*
X14732000Y15220155D01*
X14502110Y15341476D01*
X14092076Y15171645D01*
X13663817Y14781358D01*
X13602843Y14651522D01*
X13389625Y14970625D01*
X12898418Y15298839D01*
X12465256Y15385000D01*
X12172744Y15385000D01*
X11739582Y15298839D01*
X11248375Y14970625D01*
X11049000Y14672239D01*
X10849625Y14970625D01*
X10358418Y15298839D01*
X9925256Y15385000D01*
X9714001Y15385000D01*
X9714001Y15631689D01*
X9729379Y15709000D01*
X9714001Y15786311D01*
X9714001Y15786315D01*
X9668455Y16015291D01*
X9576367Y16153110D01*
X9538750Y16209408D01*
X9538748Y16209410D01*
X9494954Y16274952D01*
X9429412Y16318746D01*
X9063000Y16685157D01*
X9063000Y16695983D01*
X8920655Y17039635D01*
X8657635Y17302655D01*
X8313983Y17445000D01*
X7942017Y17445000D01*
X7598365Y17302655D01*
X7335345Y17039635D01*
X7193000Y16695983D01*
X7193000Y16324017D01*
X7335345Y15980365D01*
X7598365Y15717345D01*
X7942017Y15575000D01*
X7952843Y15575000D01*
X8140682Y15387160D01*
X8089000Y15397440D01*
X6389000Y15397440D01*
X6141235Y15348157D01*
X5931191Y15207809D01*
X5790843Y14997765D01*
X5741560Y14750000D01*
X5741560Y13050000D01*
X5790843Y12802235D01*
X5829118Y12744952D01*
X5519983Y12873000D01*
X5148017Y12873000D01*
X4804365Y12730655D01*
X4541345Y12467635D01*
X4399000Y12123983D01*
X4399000Y11752017D01*
X4541345Y11408365D01*
X4804365Y11145345D01*
X5148017Y11003000D01*
X5519983Y11003000D01*
X5863635Y11145345D01*
X5871290Y11153000D01*
X8988281Y11153000D01*
X8988676Y11152837D01*
X9143869Y11153000D01*
X9221316Y11153000D01*
X9221727Y11153082D01*
X9300967Y11153165D01*
X9373377Y11183247D01*
X9450292Y11198546D01*
X9516185Y11242575D01*
X9589362Y11272975D01*
X9642706Y11326431D01*
X9707351Y11170365D01*
X9970371Y10907345D01*
X10314023Y10765000D01*
X10515001Y10765000D01*
X10515002Y10409157D01*
X7352844Y7246999D01*
X5093157Y7246999D01*
X4248991Y8091164D01*
X4248991Y9158697D01*
X4264369Y9236009D01*
X4248991Y9313321D01*
X4248991Y9313325D01*
X4203445Y9542301D01*
X4029944Y9801962D01*
X3964399Y9845758D01*
X2729750Y11080407D01*
X2729748Y11080410D01*
X2717075Y11093083D01*
X2773608Y11377292D01*
X3064018Y11257000D01*
X3435984Y11257000D01*
X3779636Y11399345D01*
X4042656Y11662365D01*
X4185001Y12006017D01*
X4185001Y12377983D01*
X4042656Y12721635D01*
X3779636Y12984655D01*
X3435984Y13127000D01*
X3383689Y13127000D01*
X2732690Y13711583D01*
X2784092Y13970000D01*
X2668839Y14549418D01*
X2340625Y15040625D01*
X2021522Y15253843D01*
X2151358Y15314817D01*
X2541645Y15743076D01*
X2711476Y16153110D01*
X2590155Y16383000D01*
X1397000Y16383000D01*
X1397000Y16363000D01*
X1143000Y16363000D01*
X1143000Y16383000D01*
X1123000Y16383000D01*
X1123000Y16637000D01*
X1143000Y16637000D01*
X1143000Y16657000D01*
X1397000Y16657000D01*
X1397000Y16637000D01*
X2590155Y16637000D01*
X2711476Y16866890D01*
X2541645Y17276924D01*
X2151358Y17705183D01*
X2021522Y17766157D01*
X2340625Y17979375D01*
X2464656Y18165000D01*
X4332422Y18165000D01*
X4867553Y17629869D01*
X5007355Y17292355D01*
X5270375Y17029335D01*
X5614027Y16886990D01*
X5985993Y16886990D01*
X6329645Y17029335D01*
X6592665Y17292355D01*
X6735010Y17636007D01*
X6735010Y18007973D01*
X6649599Y18214173D01*
X6633661Y18294301D01*
X6487434Y18513145D01*
X6411434Y18589144D01*
X6592655Y18770365D01*
X6735000Y19114017D01*
X6735000Y19485983D01*
X6592655Y19829635D01*
X6329635Y20092655D01*
X6208922Y20142656D01*
X6187427Y20164151D01*
X6187425Y20164154D01*
X2518297Y23833281D01*
X2668839Y24058582D01*
X2784092Y24638000D01*
X2668839Y25217418D01*
X2340625Y25708625D01*
X2021522Y25921843D01*
X2151358Y25982817D01*
X2541645Y26411076D01*
X2711476Y26821110D01*
X2590156Y27050998D01*
X2755000Y27050998D01*
X2755000Y27122843D01*
X2899000Y26978843D01*
X2899000Y26968017D01*
X3041345Y26624365D01*
X3304365Y26361345D01*
X3648017Y26219000D01*
X4019983Y26219000D01*
X4363635Y26361345D01*
X4559131Y26556841D01*
X7159000Y26556841D01*
X7159000Y25767159D01*
X7461199Y25037588D01*
X8019588Y24479199D01*
X8749159Y24177000D01*
X9538841Y24177000D01*
X10268412Y24479199D01*
X10826801Y25037588D01*
X11129000Y25767159D01*
X11129000Y26556841D01*
X10826801Y27286412D01*
X10268412Y27844801D01*
X9538841Y28147000D01*
X8749159Y28147000D01*
X8019588Y27844801D01*
X7461199Y27286412D01*
X7159000Y26556841D01*
X4559131Y26556841D01*
X4626655Y26624365D01*
X4769000Y26968017D01*
X4769000Y27339983D01*
X4626655Y27683635D01*
X4363635Y27946655D01*
X4019983Y28089000D01*
X4009157Y28089000D01*
X2717075Y29381082D01*
X2784092Y29718000D01*
X2668839Y30297418D01*
X2340625Y30788625D01*
X2322381Y30800816D01*
X2367765Y30809843D01*
X2577809Y30950191D01*
X2718157Y31160235D01*
X2767440Y31408000D01*
X2767440Y33108000D01*
X2718157Y33355765D01*
X2577809Y33565809D01*
X2367765Y33706157D01*
X2120000Y33755440D01*
X710000Y33755440D01*
X710000Y34516026D01*
X1692372Y35557733D01*
X3294103Y37224841D01*
X9191000Y37224841D01*
X9191000Y36435159D01*
X9493199Y35705588D01*
X10051588Y35147199D01*
X10781159Y34845000D01*
X11570841Y34845000D01*
X12300412Y35147199D01*
X12858801Y35705588D01*
X13161000Y36435159D01*
X13161000Y37224841D01*
X12858801Y37954412D01*
X12300412Y38512801D01*
X11570841Y38815000D01*
X10781159Y38815000D01*
X10051588Y38512801D01*
X9493199Y37954412D01*
X9191000Y37224841D01*
X3294103Y37224841D01*
X5374354Y39390000D01*
X17932621Y39390000D01*
X20312517Y39374239D01*
G36*
X1397000Y27305000D02*
X1417000Y27305000D01*
X1417000Y27051000D01*
X1397000Y27051000D01*
X1397000Y27031000D01*
X1143000Y27031000D01*
X1143000Y27051000D01*
X1123000Y27051000D01*
X1123000Y27305000D01*
X1143000Y27305000D01*
X1143000Y27325000D01*
X1397000Y27325000D01*
X1397000Y27305000D01*
X1397000Y27305000D01*
G37*
X1397000Y27305000D02*
X1417000Y27305000D01*
X1417000Y27051000D01*
X1397000Y27051000D01*
X1397000Y27031000D01*
X1143000Y27031000D01*
X1143000Y27051000D01*
X1123000Y27051000D01*
X1123000Y27305000D01*
X1143000Y27305000D01*
X1143000Y27325000D01*
X1397000Y27325000D01*
X1397000Y27305000D01*
G04 #@! TD*
M02*
