M48
;DRILL file {KiCad 5.0.0} date Sat Jul 28 11:37:40 2018
;FORMAT={-:-/ absolute / inch / decimal}
FMAT,2
INCH,TZ
T1C0.0197
T2C0.0354
T3C0.0394
T4C0.0591
%
G90
G05
M72
T1
X6.9506Y-4.295
X6.9906Y-3.91
X7.27Y-4.31
X7.46Y-3.89
X7.47Y-4.14
X7.64Y-3.935
T2
X7.015Y-4.61
X7.115Y-4.61
X7.215Y-4.61
X7.51Y-4.42
X7.61Y-4.42
X7.51Y-4.6
X7.61Y-4.6
T3
X6.85Y-3.95
X6.85Y-4.05
X6.85Y-4.15
X6.85Y-4.25
X6.85Y-4.35
X6.85Y-4.45
X6.85Y-4.55
X6.85Y-4.65
X6.85Y-3.4325
X6.85Y-3.5325
X6.85Y-3.6325
X6.85Y-3.7325
X7.6Y-4.15
X7.6Y-4.25
X7.7425Y-3.9475
X7.7425Y-4.0475
X7.7425Y-4.1475
X7.7425Y-4.2475
X7.7425Y-4.3475
X7.7425Y-4.4475
X7.7425Y-4.5475
X7.7425Y-4.6475
X7.085Y-4.075
X7.185Y-4.075
X7.285Y-4.075
X7.385Y-4.075
T4
X7.7Y-3.45
X7.7Y-3.25
X7.24Y-3.16
X7.7Y-3.65
T0
M30
