G04 #@! TF.GenerationSoftware,KiCad,Pcbnew,5.0.0*
G04 #@! TF.CreationDate,2018-08-02T12:49:40+02:00*
G04 #@! TF.ProjectId,PTL-IR_remote,50544C2D49525F72656D6F74652E6B69,v1.1*
G04 #@! TF.SameCoordinates,PXa4b7f80PY71d9820*
G04 #@! TF.FileFunction,Copper,L2,Bot,Signal*
G04 #@! TF.FilePolarity,Positive*
%FSLAX46Y46*%
G04 Gerber Fmt 4.6, Leading zero omitted, Abs format (unit mm)*
G04 Created by KiCad (PCBNEW 5.0.0) date Thu Aug  2 12:49:40 2018*
%MOMM*%
%LPD*%
G01*
G04 APERTURE LIST*
G04 #@! TA.AperFunction,ComponentPad*
%ADD10R,1.700000X1.700000*%
G04 #@! TD*
G04 #@! TA.AperFunction,ComponentPad*
%ADD11O,1.700000X1.700000*%
G04 #@! TD*
G04 #@! TA.AperFunction,ComponentPad*
%ADD12R,1.800000X1.800000*%
G04 #@! TD*
G04 #@! TA.AperFunction,ComponentPad*
%ADD13C,1.800000*%
G04 #@! TD*
G04 #@! TA.AperFunction,ComponentPad*
%ADD14C,1.600000*%
G04 #@! TD*
G04 #@! TA.AperFunction,ViaPad*
%ADD15C,0.600000*%
G04 #@! TD*
G04 #@! TA.AperFunction,Conductor*
%ADD16C,0.500000*%
G04 #@! TD*
G04 #@! TA.AperFunction,Conductor*
%ADD17C,0.300000*%
G04 #@! TD*
G04 #@! TA.AperFunction,Conductor*
%ADD18C,0.254000*%
G04 #@! TD*
G04 APERTURE END LIST*
D10*
G04 #@! TO.P,J3,1*
G04 #@! TO.N,SDA*
X1300000Y32200000D03*
D11*
G04 #@! TO.P,J3,2*
G04 #@! TO.N,/SCL*
X1300000Y29660000D03*
G04 #@! TO.P,J3,3*
G04 #@! TO.N,GNDREF*
X1300000Y27120000D03*
G04 #@! TO.P,J3,4*
G04 #@! TO.N,+3V3*
X1300000Y24580000D03*
G04 #@! TD*
D12*
G04 #@! TO.P,U1,1*
G04 #@! TO.N,IRM*
X5461000Y2286000D03*
D13*
G04 #@! TO.P,U1,2*
G04 #@! TO.N,GNDREF*
X8001000Y2286000D03*
G04 #@! TO.P,U1,3*
G04 #@! TO.N,Net-(C1-Pad1)*
X10541000Y2286000D03*
G04 #@! TD*
D10*
G04 #@! TO.P,DHT22,1*
G04 #@! TO.N,+3V3*
X7239000Y13900000D03*
D11*
G04 #@! TO.P,DHT22,2*
G04 #@! TO.N,DHT*
X9779000Y13900000D03*
G04 #@! TO.P,DHT22,3*
G04 #@! TO.N,N/C*
X12319000Y13900000D03*
G04 #@! TO.P,DHT22,4*
G04 #@! TO.N,GNDREF*
X14859000Y13900000D03*
G04 #@! TD*
G04 #@! TO.P,J1,8*
G04 #@! TO.N,N/C*
X23939500Y1333500D03*
G04 #@! TO.P,J1,7*
G04 #@! TO.N,PhR*
X23939500Y3873500D03*
G04 #@! TO.P,J1,6*
G04 #@! TO.N,N/C*
X23939500Y6413500D03*
G04 #@! TO.P,J1,5*
G04 #@! TO.N,IRM*
X23939500Y8953500D03*
G04 #@! TO.P,J1,4*
G04 #@! TO.N,OneW*
X23939500Y11493500D03*
G04 #@! TO.P,J1,3*
G04 #@! TO.N,N/C*
X23939500Y14033500D03*
G04 #@! TO.P,J1,2*
X23939500Y16573500D03*
D10*
G04 #@! TO.P,J1,1*
G04 #@! TO.N,+3V3*
X23939500Y19113500D03*
G04 #@! TD*
G04 #@! TO.P,J2,1*
G04 #@! TO.N,N/C*
X1270000Y1270000D03*
D11*
G04 #@! TO.P,J2,2*
X1270000Y3810000D03*
G04 #@! TO.P,J2,3*
G04 #@! TO.N,D2*
X1270000Y6350000D03*
G04 #@! TO.P,J2,4*
G04 #@! TO.N,SDA*
X1270000Y8890000D03*
G04 #@! TO.P,J2,5*
G04 #@! TO.N,IR*
X1270000Y11430000D03*
G04 #@! TO.P,J2,6*
G04 #@! TO.N,DHT*
X1270000Y13970000D03*
G04 #@! TO.P,J2,7*
G04 #@! TO.N,+5V*
X1270000Y16510000D03*
G04 #@! TO.P,J2,8*
G04 #@! TO.N,GNDREF*
X1270000Y19050000D03*
G04 #@! TD*
D14*
G04 #@! TO.P,PR1,1*
G04 #@! TO.N,+3V3*
X20840000Y10900000D03*
G04 #@! TO.P,PR1,2*
G04 #@! TO.N,PhR*
X18300000Y10900000D03*
G04 #@! TD*
D13*
G04 #@! TO.P,D1,2*
G04 #@! TO.N,Net-(D1-Pad2)*
X20574000Y2540000D03*
D12*
G04 #@! TO.P,D1,1*
G04 #@! TO.N,Net-(D1-Pad1)*
X18034000Y2540000D03*
G04 #@! TD*
G04 #@! TO.P,D2,1*
G04 #@! TO.N,Net-(D1-Pad2)*
X20574000Y7112000D03*
D13*
G04 #@! TO.P,D2,2*
G04 #@! TO.N,+5V*
X18034000Y7112000D03*
G04 #@! TD*
D10*
G04 #@! TO.P,J4,1*
G04 #@! TO.N,GNDREF*
X23900000Y24600000D03*
D11*
G04 #@! TO.P,J4,2*
G04 #@! TO.N,+3V3*
X23900000Y27140000D03*
G04 #@! TO.P,J4,3*
G04 #@! TO.N,OneW*
X23900000Y29680000D03*
G04 #@! TD*
D15*
G04 #@! TO.N,+3V3*
X5800000Y19300000D03*
X21000000Y17499990D03*
X21000000Y25600000D03*
G04 #@! TO.N,+5V*
X10500006Y11700000D03*
X5800010Y15700000D03*
G04 #@! TO.N,OneW*
X22000000Y27899992D03*
G04 #@! TO.N,IR*
X11600000Y11399998D03*
G04 #@! TO.N,/SCL*
X4200000Y27300000D03*
G04 #@! TD*
D16*
G04 #@! TO.N,+3V3*
X1270000Y23830000D02*
X5500001Y19599999D01*
X5500001Y19599999D02*
X5800000Y19300000D01*
X1270000Y24574500D02*
X1270000Y23830000D01*
X23939500Y19113500D02*
X22589500Y19113500D01*
X22589500Y19113500D02*
X21000000Y17524000D01*
X21000000Y17524000D02*
X21000000Y17499990D01*
X21299999Y25899999D02*
X21000000Y25600000D01*
X22500000Y27100000D02*
X21299999Y25899999D01*
X23900000Y27100000D02*
X22500000Y27100000D01*
G04 #@! TO.N,+5V*
X18034000Y7112000D02*
X12946001Y12199999D01*
X11000005Y12199999D02*
X10800005Y11999999D01*
X10800005Y11999999D02*
X10500006Y11700000D01*
X12946001Y12199999D02*
X11000005Y12199999D01*
X4990010Y16510000D02*
X5500011Y15999999D01*
X5500011Y15999999D02*
X5800010Y15700000D01*
X1270000Y16510000D02*
X4990010Y16510000D01*
D17*
G04 #@! TO.N,DHT*
X9600000Y12200000D02*
X9000000Y12200000D01*
X1270000Y13970000D02*
X3040000Y12200000D01*
X3040000Y12200000D02*
X9600000Y12200000D01*
X9779000Y12379000D02*
X9779000Y13900000D01*
X9600000Y12200000D02*
X9779000Y12379000D01*
G04 #@! TO.N,OneW*
X22299999Y28199991D02*
X22000000Y27899992D01*
X23900000Y29700000D02*
X23800008Y29700000D01*
X23800008Y29700000D02*
X22299999Y28199991D01*
G04 #@! TO.N,PhR*
X18300000Y10000000D02*
X18300000Y10900000D01*
X23089501Y4723499D02*
X23076501Y4723499D01*
X23939500Y3873500D02*
X23089501Y4723499D01*
X19100000Y9200000D02*
X18300000Y10000000D01*
X22300000Y5500000D02*
X22300000Y8200000D01*
X23076501Y4723499D02*
X22300000Y5500000D01*
X22300000Y8200000D02*
X21300000Y9200000D01*
X21300000Y9200000D02*
X19100000Y9200000D01*
G04 #@! TO.N,IR*
X10780003Y10580001D02*
X11300001Y11099999D01*
X11300001Y11099999D02*
X11600000Y11399998D01*
X2119999Y10580001D02*
X10780003Y10580001D01*
X1270000Y11430000D02*
X2119999Y10580001D01*
D16*
G04 #@! TO.N,GNDREF*
X7800000Y20620000D02*
X7800000Y18000000D01*
X1300000Y27120000D02*
X7800000Y20620000D01*
X13600000Y15159000D02*
X14859000Y13900000D01*
X7800000Y18000000D02*
X10200000Y15600000D01*
X13600000Y15600000D02*
X13600000Y15159000D01*
X10200000Y15600000D02*
X13600000Y15600000D01*
X2320000Y18000000D02*
X1270000Y19050000D01*
X7800000Y18000000D02*
X2320000Y18000000D01*
X22900000Y24600000D02*
X23900000Y24600000D01*
X20500000Y22200000D02*
X22900000Y24600000D01*
X20500000Y18600000D02*
X20500000Y22200000D01*
X13600000Y15600000D02*
X17500000Y15600000D01*
X17500000Y15600000D02*
X20500000Y18600000D01*
D17*
G04 #@! TO.N,/SCL*
X1840000Y29660000D02*
X1300000Y29660000D01*
X4200000Y27300000D02*
X1840000Y29660000D01*
G04 #@! TD*
D18*
G04 #@! TO.N,GNDREF*
G36*
X16499000Y7395421D02*
X16499000Y6806670D01*
X16732690Y6242493D01*
X17164493Y5810690D01*
X17728670Y5577000D01*
X18339330Y5577000D01*
X18903507Y5810690D01*
X19072725Y5979908D01*
X19075843Y5964235D01*
X19216191Y5754191D01*
X19426235Y5613843D01*
X19674000Y5564560D01*
X21474000Y5564560D01*
X21514048Y5572526D01*
X21499622Y5500000D01*
X21515000Y5422688D01*
X21515000Y5422685D01*
X21560546Y5193709D01*
X21734047Y4934047D01*
X21799592Y4890251D01*
X22466754Y4223088D01*
X22488478Y4190576D01*
X22425408Y3873500D01*
X22540661Y3294082D01*
X22868875Y2802875D01*
X23167261Y2603500D01*
X22868875Y2404125D01*
X22540661Y1912918D01*
X22425408Y1333500D01*
X22540661Y754082D01*
X22570116Y710000D01*
X2767440Y710000D01*
X2767440Y2120000D01*
X2718157Y2367765D01*
X2577809Y2577809D01*
X2367765Y2718157D01*
X2322381Y2727184D01*
X2340625Y2739375D01*
X2639050Y3186000D01*
X3913560Y3186000D01*
X3913560Y1386000D01*
X3962843Y1138235D01*
X4103191Y928191D01*
X4313235Y787843D01*
X4561000Y738560D01*
X6361000Y738560D01*
X6608765Y787843D01*
X6818809Y928191D01*
X6951058Y1126114D01*
X6985890Y1091282D01*
X7100447Y1205839D01*
X7186852Y949357D01*
X7760336Y739542D01*
X8370460Y765161D01*
X8815148Y949357D01*
X8901554Y1205841D01*
X8001000Y2106395D01*
X7986858Y2092252D01*
X7807253Y2271857D01*
X7821395Y2286000D01*
X8180605Y2286000D01*
X9081159Y1385446D01*
X9231562Y1436115D01*
X9239690Y1416493D01*
X9671493Y984690D01*
X10235670Y751000D01*
X10846330Y751000D01*
X11410507Y984690D01*
X11842310Y1416493D01*
X12076000Y1980670D01*
X12076000Y2591330D01*
X11842310Y3155507D01*
X11557817Y3440000D01*
X16486560Y3440000D01*
X16486560Y1640000D01*
X16535843Y1392235D01*
X16676191Y1182191D01*
X16886235Y1041843D01*
X17134000Y992560D01*
X18934000Y992560D01*
X19181765Y1041843D01*
X19391809Y1182191D01*
X19532157Y1392235D01*
X19535275Y1407908D01*
X19704493Y1238690D01*
X20268670Y1005000D01*
X20879330Y1005000D01*
X21443507Y1238690D01*
X21875310Y1670493D01*
X22109000Y2234670D01*
X22109000Y2845330D01*
X21875310Y3409507D01*
X21443507Y3841310D01*
X20879330Y4075000D01*
X20268670Y4075000D01*
X19704493Y3841310D01*
X19535275Y3672092D01*
X19532157Y3687765D01*
X19391809Y3897809D01*
X19181765Y4038157D01*
X18934000Y4087440D01*
X17134000Y4087440D01*
X16886235Y4038157D01*
X16676191Y3897809D01*
X16535843Y3687765D01*
X16486560Y3440000D01*
X11557817Y3440000D01*
X11410507Y3587310D01*
X10846330Y3821000D01*
X10235670Y3821000D01*
X9671493Y3587310D01*
X9239690Y3155507D01*
X9231562Y3135885D01*
X9081159Y3186554D01*
X8180605Y2286000D01*
X7821395Y2286000D01*
X7807253Y2300142D01*
X7986858Y2479747D01*
X8001000Y2465605D01*
X8901554Y3366159D01*
X8815148Y3622643D01*
X8241664Y3832458D01*
X7631540Y3806839D01*
X7186852Y3622643D01*
X7100447Y3366161D01*
X6985890Y3480718D01*
X6951058Y3445886D01*
X6818809Y3643809D01*
X6608765Y3784157D01*
X6361000Y3833440D01*
X4561000Y3833440D01*
X4313235Y3784157D01*
X4103191Y3643809D01*
X3962843Y3433765D01*
X3913560Y3186000D01*
X2639050Y3186000D01*
X2668839Y3230582D01*
X2784092Y3810000D01*
X2668839Y4389418D01*
X2340625Y4880625D01*
X2042239Y5080000D01*
X2340625Y5279375D01*
X2668839Y5770582D01*
X2784092Y6350000D01*
X2668839Y6929418D01*
X2340625Y7420625D01*
X2042239Y7620000D01*
X2340625Y7819375D01*
X2668839Y8310582D01*
X2784092Y8890000D01*
X2668839Y9469418D01*
X2451291Y9795001D01*
X10702691Y9795001D01*
X10780003Y9779623D01*
X10857315Y9795001D01*
X10857319Y9795001D01*
X11086295Y9840547D01*
X11345956Y10014048D01*
X11389752Y10079593D01*
X11775158Y10464998D01*
X11785983Y10464998D01*
X12129635Y10607343D01*
X12392655Y10870363D01*
X12535000Y11214015D01*
X12535000Y11314999D01*
X12579423Y11314999D01*
X16499000Y7395421D01*
X16499000Y7395421D01*
G37*
X16499000Y7395421D02*
X16499000Y6806670D01*
X16732690Y6242493D01*
X17164493Y5810690D01*
X17728670Y5577000D01*
X18339330Y5577000D01*
X18903507Y5810690D01*
X19072725Y5979908D01*
X19075843Y5964235D01*
X19216191Y5754191D01*
X19426235Y5613843D01*
X19674000Y5564560D01*
X21474000Y5564560D01*
X21514048Y5572526D01*
X21499622Y5500000D01*
X21515000Y5422688D01*
X21515000Y5422685D01*
X21560546Y5193709D01*
X21734047Y4934047D01*
X21799592Y4890251D01*
X22466754Y4223088D01*
X22488478Y4190576D01*
X22425408Y3873500D01*
X22540661Y3294082D01*
X22868875Y2802875D01*
X23167261Y2603500D01*
X22868875Y2404125D01*
X22540661Y1912918D01*
X22425408Y1333500D01*
X22540661Y754082D01*
X22570116Y710000D01*
X2767440Y710000D01*
X2767440Y2120000D01*
X2718157Y2367765D01*
X2577809Y2577809D01*
X2367765Y2718157D01*
X2322381Y2727184D01*
X2340625Y2739375D01*
X2639050Y3186000D01*
X3913560Y3186000D01*
X3913560Y1386000D01*
X3962843Y1138235D01*
X4103191Y928191D01*
X4313235Y787843D01*
X4561000Y738560D01*
X6361000Y738560D01*
X6608765Y787843D01*
X6818809Y928191D01*
X6951058Y1126114D01*
X6985890Y1091282D01*
X7100447Y1205839D01*
X7186852Y949357D01*
X7760336Y739542D01*
X8370460Y765161D01*
X8815148Y949357D01*
X8901554Y1205841D01*
X8001000Y2106395D01*
X7986858Y2092252D01*
X7807253Y2271857D01*
X7821395Y2286000D01*
X8180605Y2286000D01*
X9081159Y1385446D01*
X9231562Y1436115D01*
X9239690Y1416493D01*
X9671493Y984690D01*
X10235670Y751000D01*
X10846330Y751000D01*
X11410507Y984690D01*
X11842310Y1416493D01*
X12076000Y1980670D01*
X12076000Y2591330D01*
X11842310Y3155507D01*
X11557817Y3440000D01*
X16486560Y3440000D01*
X16486560Y1640000D01*
X16535843Y1392235D01*
X16676191Y1182191D01*
X16886235Y1041843D01*
X17134000Y992560D01*
X18934000Y992560D01*
X19181765Y1041843D01*
X19391809Y1182191D01*
X19532157Y1392235D01*
X19535275Y1407908D01*
X19704493Y1238690D01*
X20268670Y1005000D01*
X20879330Y1005000D01*
X21443507Y1238690D01*
X21875310Y1670493D01*
X22109000Y2234670D01*
X22109000Y2845330D01*
X21875310Y3409507D01*
X21443507Y3841310D01*
X20879330Y4075000D01*
X20268670Y4075000D01*
X19704493Y3841310D01*
X19535275Y3672092D01*
X19532157Y3687765D01*
X19391809Y3897809D01*
X19181765Y4038157D01*
X18934000Y4087440D01*
X17134000Y4087440D01*
X16886235Y4038157D01*
X16676191Y3897809D01*
X16535843Y3687765D01*
X16486560Y3440000D01*
X11557817Y3440000D01*
X11410507Y3587310D01*
X10846330Y3821000D01*
X10235670Y3821000D01*
X9671493Y3587310D01*
X9239690Y3155507D01*
X9231562Y3135885D01*
X9081159Y3186554D01*
X8180605Y2286000D01*
X7821395Y2286000D01*
X7807253Y2300142D01*
X7986858Y2479747D01*
X8001000Y2465605D01*
X8901554Y3366159D01*
X8815148Y3622643D01*
X8241664Y3832458D01*
X7631540Y3806839D01*
X7186852Y3622643D01*
X7100447Y3366161D01*
X6985890Y3480718D01*
X6951058Y3445886D01*
X6818809Y3643809D01*
X6608765Y3784157D01*
X6361000Y3833440D01*
X4561000Y3833440D01*
X4313235Y3784157D01*
X4103191Y3643809D01*
X3962843Y3433765D01*
X3913560Y3186000D01*
X2639050Y3186000D01*
X2668839Y3230582D01*
X2784092Y3810000D01*
X2668839Y4389418D01*
X2340625Y4880625D01*
X2042239Y5080000D01*
X2340625Y5279375D01*
X2668839Y5770582D01*
X2784092Y6350000D01*
X2668839Y6929418D01*
X2340625Y7420625D01*
X2042239Y7620000D01*
X2340625Y7819375D01*
X2668839Y8310582D01*
X2784092Y8890000D01*
X2668839Y9469418D01*
X2451291Y9795001D01*
X10702691Y9795001D01*
X10780003Y9779623D01*
X10857315Y9795001D01*
X10857319Y9795001D01*
X11086295Y9840547D01*
X11345956Y10014048D01*
X11389752Y10079593D01*
X11775158Y10464998D01*
X11785983Y10464998D01*
X12129635Y10607343D01*
X12392655Y10870363D01*
X12535000Y11214015D01*
X12535000Y11314999D01*
X12579423Y11314999D01*
X16499000Y7395421D01*
G36*
X20312517Y39374239D02*
X24690000Y34814359D01*
X24690000Y30938133D01*
X24479418Y31078839D01*
X24046256Y31165000D01*
X23753744Y31165000D01*
X23320582Y31078839D01*
X22829375Y30750625D01*
X22501161Y30259418D01*
X22385908Y29680000D01*
X22433017Y29443166D01*
X21824843Y28834992D01*
X21814017Y28834992D01*
X21470365Y28692647D01*
X21207345Y28429627D01*
X21065000Y28085975D01*
X21065000Y27714009D01*
X21207345Y27370357D01*
X21363062Y27214640D01*
X20591078Y26442656D01*
X20470365Y26392655D01*
X20207345Y26129635D01*
X20065000Y25785983D01*
X20065000Y25414017D01*
X20207345Y25070365D01*
X20470365Y24807345D01*
X20814017Y24665000D01*
X21185983Y24665000D01*
X21529635Y24807345D01*
X21792655Y25070365D01*
X21842656Y25191078D01*
X21987423Y25335845D01*
X22785948Y26134369D01*
X22829375Y26069375D01*
X22851033Y26054904D01*
X22690302Y25988327D01*
X22511673Y25809699D01*
X22415000Y25576310D01*
X22415000Y24885750D01*
X22573750Y24727000D01*
X23773000Y24727000D01*
X23773000Y24747000D01*
X24027000Y24747000D01*
X24027000Y24727000D01*
X24047000Y24727000D01*
X24047000Y24473000D01*
X24027000Y24473000D01*
X24027000Y23273750D01*
X24185750Y23115000D01*
X24690000Y23115000D01*
X24690000Y20610940D01*
X23089500Y20610940D01*
X22841735Y20561657D01*
X22631691Y20421309D01*
X22491343Y20211265D01*
X22446826Y19987459D01*
X22244190Y19947152D01*
X22136380Y19875115D01*
X22025345Y19800924D01*
X22025344Y19800923D01*
X21951451Y19751549D01*
X21902077Y19677656D01*
X20550090Y18325668D01*
X20470365Y18292645D01*
X20207345Y18029625D01*
X20065000Y17685973D01*
X20065000Y17314007D01*
X20207345Y16970355D01*
X20470365Y16707335D01*
X20814017Y16564990D01*
X21185983Y16564990D01*
X21529635Y16707335D01*
X21792655Y16970355D01*
X21859633Y17132055D01*
X22592269Y17864690D01*
X22631691Y17805691D01*
X22841735Y17665343D01*
X22887119Y17656316D01*
X22868875Y17644125D01*
X22540661Y17152918D01*
X22425408Y16573500D01*
X22540661Y15994082D01*
X22868875Y15502875D01*
X23167261Y15303500D01*
X22868875Y15104125D01*
X22540661Y14612918D01*
X22425408Y14033500D01*
X22540661Y13454082D01*
X22868875Y12962875D01*
X23167261Y12763500D01*
X22868875Y12564125D01*
X22540661Y12072918D01*
X22425408Y11493500D01*
X22540661Y10914082D01*
X22868875Y10422875D01*
X23167261Y10223500D01*
X22868875Y10024125D01*
X22540661Y9532918D01*
X22463775Y9146382D01*
X21909748Y9700409D01*
X21865953Y9765953D01*
X21787662Y9818266D01*
X22056534Y10087138D01*
X22275000Y10614561D01*
X22275000Y11185439D01*
X22056534Y11712862D01*
X21652862Y12116534D01*
X21125439Y12335000D01*
X20554561Y12335000D01*
X20027138Y12116534D01*
X19623466Y11712862D01*
X19570000Y11583784D01*
X19516534Y11712862D01*
X19112862Y12116534D01*
X18585439Y12335000D01*
X18014561Y12335000D01*
X17487138Y12116534D01*
X17083466Y11712862D01*
X16865000Y11185439D01*
X16865000Y10614561D01*
X17083466Y10087138D01*
X17487138Y9683466D01*
X17598101Y9637503D01*
X17734047Y9434047D01*
X17799592Y9390251D01*
X18490253Y8699589D01*
X18534047Y8634047D01*
X18599589Y8590253D01*
X18599591Y8590251D01*
X18779845Y8469809D01*
X18793708Y8460546D01*
X19022684Y8415000D01*
X19022688Y8415000D01*
X19100000Y8399622D01*
X19177312Y8415000D01*
X19179569Y8415000D01*
X19075843Y8259765D01*
X19072725Y8244092D01*
X18903507Y8413310D01*
X18339330Y8647000D01*
X17750579Y8647000D01*
X13633426Y12764152D01*
X13584050Y12838048D01*
X13453643Y12925184D01*
X13602843Y13148478D01*
X13663817Y13018642D01*
X14092076Y12628355D01*
X14502110Y12458524D01*
X14732000Y12579845D01*
X14732000Y13773000D01*
X14986000Y13773000D01*
X14986000Y12579845D01*
X15215890Y12458524D01*
X15625924Y12628355D01*
X16054183Y13018642D01*
X16300486Y13543108D01*
X16179819Y13773000D01*
X14986000Y13773000D01*
X14732000Y13773000D01*
X14712000Y13773000D01*
X14712000Y14027000D01*
X14732000Y14027000D01*
X14732000Y15220155D01*
X14986000Y15220155D01*
X14986000Y14027000D01*
X16179819Y14027000D01*
X16300486Y14256892D01*
X16054183Y14781358D01*
X15625924Y15171645D01*
X15215890Y15341476D01*
X14986000Y15220155D01*
X14732000Y15220155D01*
X14502110Y15341476D01*
X14092076Y15171645D01*
X13663817Y14781358D01*
X13602843Y14651522D01*
X13389625Y14970625D01*
X12898418Y15298839D01*
X12465256Y15385000D01*
X12172744Y15385000D01*
X11739582Y15298839D01*
X11248375Y14970625D01*
X11049000Y14672239D01*
X10849625Y14970625D01*
X10358418Y15298839D01*
X9925256Y15385000D01*
X9632744Y15385000D01*
X9199582Y15298839D01*
X8708375Y14970625D01*
X8696184Y14952381D01*
X8687157Y14997765D01*
X8546809Y15207809D01*
X8336765Y15348157D01*
X8089000Y15397440D01*
X6686722Y15397440D01*
X6735010Y15514017D01*
X6735010Y15885983D01*
X6592665Y16229635D01*
X6329645Y16492655D01*
X6208932Y16542656D01*
X5677435Y17074153D01*
X5628059Y17148049D01*
X5335320Y17343652D01*
X5077175Y17395000D01*
X5077171Y17395000D01*
X4990010Y17412337D01*
X4902849Y17395000D01*
X2464656Y17395000D01*
X2340625Y17580625D01*
X2021522Y17793843D01*
X2151358Y17854817D01*
X2541645Y18283076D01*
X2711476Y18693110D01*
X2590155Y18923000D01*
X1397000Y18923000D01*
X1397000Y18903000D01*
X1143000Y18903000D01*
X1143000Y18923000D01*
X1123000Y18923000D01*
X1123000Y19177000D01*
X1143000Y19177000D01*
X1143000Y20370819D01*
X1397000Y20370819D01*
X1397000Y19177000D01*
X2590155Y19177000D01*
X2711476Y19406890D01*
X2541645Y19816924D01*
X2151358Y20245183D01*
X1626892Y20491486D01*
X1397000Y20370819D01*
X1143000Y20370819D01*
X913108Y20491486D01*
X710000Y20396101D01*
X710000Y23138422D01*
X4935846Y18912575D01*
X4935849Y18912573D01*
X4957344Y18891078D01*
X5007345Y18770365D01*
X5270365Y18507345D01*
X5614017Y18365000D01*
X5985983Y18365000D01*
X6329635Y18507345D01*
X6592655Y18770365D01*
X6735000Y19114017D01*
X6735000Y19485983D01*
X6592655Y19829635D01*
X6329635Y20092655D01*
X6208922Y20142656D01*
X6187427Y20164151D01*
X6187425Y20164154D01*
X2559513Y23792065D01*
X2698839Y24000582D01*
X2814092Y24580000D01*
X2698839Y25159418D01*
X2370625Y25650625D01*
X2051522Y25863843D01*
X2181358Y25924817D01*
X2518573Y26294841D01*
X7715000Y26294841D01*
X7715000Y25505159D01*
X8017199Y24775588D01*
X8575588Y24217199D01*
X9305159Y23915000D01*
X10094841Y23915000D01*
X10824412Y24217199D01*
X10921463Y24314250D01*
X22415000Y24314250D01*
X22415000Y23623690D01*
X22511673Y23390301D01*
X22690302Y23211673D01*
X22923691Y23115000D01*
X23614250Y23115000D01*
X23773000Y23273750D01*
X23773000Y24473000D01*
X22573750Y24473000D01*
X22415000Y24314250D01*
X10921463Y24314250D01*
X11382801Y24775588D01*
X11685000Y25505159D01*
X11685000Y26294841D01*
X11382801Y27024412D01*
X10824412Y27582801D01*
X10094841Y27885000D01*
X9305159Y27885000D01*
X8575588Y27582801D01*
X8017199Y27024412D01*
X7715000Y26294841D01*
X2518573Y26294841D01*
X2571645Y26353076D01*
X2741476Y26763110D01*
X2620155Y26993000D01*
X1427000Y26993000D01*
X1427000Y26973000D01*
X1173000Y26973000D01*
X1173000Y26993000D01*
X1153000Y26993000D01*
X1153000Y27247000D01*
X1173000Y27247000D01*
X1173000Y27267000D01*
X1427000Y27267000D01*
X1427000Y27247000D01*
X2620155Y27247000D01*
X2741476Y27476890D01*
X2620237Y27769606D01*
X3265000Y27124842D01*
X3265000Y27114017D01*
X3407345Y26770365D01*
X3670365Y26507345D01*
X4014017Y26365000D01*
X4385983Y26365000D01*
X4729635Y26507345D01*
X4992655Y26770365D01*
X5135000Y27114017D01*
X5135000Y27485983D01*
X4992655Y27829635D01*
X4729635Y28092655D01*
X4385983Y28235000D01*
X4375158Y28235000D01*
X2780307Y29829850D01*
X2698839Y30239418D01*
X2370625Y30730625D01*
X2352381Y30742816D01*
X2397765Y30751843D01*
X2607809Y30892191D01*
X2748157Y31102235D01*
X2797440Y31350000D01*
X2797440Y33050000D01*
X2748157Y33297765D01*
X2607809Y33507809D01*
X2397765Y33648157D01*
X2150000Y33697440D01*
X710000Y33697440D01*
X710000Y34517948D01*
X1612651Y35474758D01*
X3265279Y37194841D01*
X9115000Y37194841D01*
X9115000Y36405159D01*
X9417199Y35675588D01*
X9975588Y35117199D01*
X10705159Y34815000D01*
X11494841Y34815000D01*
X12224412Y35117199D01*
X12782801Y35675588D01*
X13085000Y36405159D01*
X13085000Y37194841D01*
X12782801Y37924412D01*
X12224412Y38482801D01*
X11494841Y38785000D01*
X10705159Y38785000D01*
X9975588Y38482801D01*
X9417199Y37924412D01*
X9115000Y37194841D01*
X3265279Y37194841D01*
X5374354Y39390000D01*
X17932621Y39390000D01*
X20312517Y39374239D01*
X20312517Y39374239D01*
G37*
X20312517Y39374239D02*
X24690000Y34814359D01*
X24690000Y30938133D01*
X24479418Y31078839D01*
X24046256Y31165000D01*
X23753744Y31165000D01*
X23320582Y31078839D01*
X22829375Y30750625D01*
X22501161Y30259418D01*
X22385908Y29680000D01*
X22433017Y29443166D01*
X21824843Y28834992D01*
X21814017Y28834992D01*
X21470365Y28692647D01*
X21207345Y28429627D01*
X21065000Y28085975D01*
X21065000Y27714009D01*
X21207345Y27370357D01*
X21363062Y27214640D01*
X20591078Y26442656D01*
X20470365Y26392655D01*
X20207345Y26129635D01*
X20065000Y25785983D01*
X20065000Y25414017D01*
X20207345Y25070365D01*
X20470365Y24807345D01*
X20814017Y24665000D01*
X21185983Y24665000D01*
X21529635Y24807345D01*
X21792655Y25070365D01*
X21842656Y25191078D01*
X21987423Y25335845D01*
X22785948Y26134369D01*
X22829375Y26069375D01*
X22851033Y26054904D01*
X22690302Y25988327D01*
X22511673Y25809699D01*
X22415000Y25576310D01*
X22415000Y24885750D01*
X22573750Y24727000D01*
X23773000Y24727000D01*
X23773000Y24747000D01*
X24027000Y24747000D01*
X24027000Y24727000D01*
X24047000Y24727000D01*
X24047000Y24473000D01*
X24027000Y24473000D01*
X24027000Y23273750D01*
X24185750Y23115000D01*
X24690000Y23115000D01*
X24690000Y20610940D01*
X23089500Y20610940D01*
X22841735Y20561657D01*
X22631691Y20421309D01*
X22491343Y20211265D01*
X22446826Y19987459D01*
X22244190Y19947152D01*
X22136380Y19875115D01*
X22025345Y19800924D01*
X22025344Y19800923D01*
X21951451Y19751549D01*
X21902077Y19677656D01*
X20550090Y18325668D01*
X20470365Y18292645D01*
X20207345Y18029625D01*
X20065000Y17685973D01*
X20065000Y17314007D01*
X20207345Y16970355D01*
X20470365Y16707335D01*
X20814017Y16564990D01*
X21185983Y16564990D01*
X21529635Y16707335D01*
X21792655Y16970355D01*
X21859633Y17132055D01*
X22592269Y17864690D01*
X22631691Y17805691D01*
X22841735Y17665343D01*
X22887119Y17656316D01*
X22868875Y17644125D01*
X22540661Y17152918D01*
X22425408Y16573500D01*
X22540661Y15994082D01*
X22868875Y15502875D01*
X23167261Y15303500D01*
X22868875Y15104125D01*
X22540661Y14612918D01*
X22425408Y14033500D01*
X22540661Y13454082D01*
X22868875Y12962875D01*
X23167261Y12763500D01*
X22868875Y12564125D01*
X22540661Y12072918D01*
X22425408Y11493500D01*
X22540661Y10914082D01*
X22868875Y10422875D01*
X23167261Y10223500D01*
X22868875Y10024125D01*
X22540661Y9532918D01*
X22463775Y9146382D01*
X21909748Y9700409D01*
X21865953Y9765953D01*
X21787662Y9818266D01*
X22056534Y10087138D01*
X22275000Y10614561D01*
X22275000Y11185439D01*
X22056534Y11712862D01*
X21652862Y12116534D01*
X21125439Y12335000D01*
X20554561Y12335000D01*
X20027138Y12116534D01*
X19623466Y11712862D01*
X19570000Y11583784D01*
X19516534Y11712862D01*
X19112862Y12116534D01*
X18585439Y12335000D01*
X18014561Y12335000D01*
X17487138Y12116534D01*
X17083466Y11712862D01*
X16865000Y11185439D01*
X16865000Y10614561D01*
X17083466Y10087138D01*
X17487138Y9683466D01*
X17598101Y9637503D01*
X17734047Y9434047D01*
X17799592Y9390251D01*
X18490253Y8699589D01*
X18534047Y8634047D01*
X18599589Y8590253D01*
X18599591Y8590251D01*
X18779845Y8469809D01*
X18793708Y8460546D01*
X19022684Y8415000D01*
X19022688Y8415000D01*
X19100000Y8399622D01*
X19177312Y8415000D01*
X19179569Y8415000D01*
X19075843Y8259765D01*
X19072725Y8244092D01*
X18903507Y8413310D01*
X18339330Y8647000D01*
X17750579Y8647000D01*
X13633426Y12764152D01*
X13584050Y12838048D01*
X13453643Y12925184D01*
X13602843Y13148478D01*
X13663817Y13018642D01*
X14092076Y12628355D01*
X14502110Y12458524D01*
X14732000Y12579845D01*
X14732000Y13773000D01*
X14986000Y13773000D01*
X14986000Y12579845D01*
X15215890Y12458524D01*
X15625924Y12628355D01*
X16054183Y13018642D01*
X16300486Y13543108D01*
X16179819Y13773000D01*
X14986000Y13773000D01*
X14732000Y13773000D01*
X14712000Y13773000D01*
X14712000Y14027000D01*
X14732000Y14027000D01*
X14732000Y15220155D01*
X14986000Y15220155D01*
X14986000Y14027000D01*
X16179819Y14027000D01*
X16300486Y14256892D01*
X16054183Y14781358D01*
X15625924Y15171645D01*
X15215890Y15341476D01*
X14986000Y15220155D01*
X14732000Y15220155D01*
X14502110Y15341476D01*
X14092076Y15171645D01*
X13663817Y14781358D01*
X13602843Y14651522D01*
X13389625Y14970625D01*
X12898418Y15298839D01*
X12465256Y15385000D01*
X12172744Y15385000D01*
X11739582Y15298839D01*
X11248375Y14970625D01*
X11049000Y14672239D01*
X10849625Y14970625D01*
X10358418Y15298839D01*
X9925256Y15385000D01*
X9632744Y15385000D01*
X9199582Y15298839D01*
X8708375Y14970625D01*
X8696184Y14952381D01*
X8687157Y14997765D01*
X8546809Y15207809D01*
X8336765Y15348157D01*
X8089000Y15397440D01*
X6686722Y15397440D01*
X6735010Y15514017D01*
X6735010Y15885983D01*
X6592665Y16229635D01*
X6329645Y16492655D01*
X6208932Y16542656D01*
X5677435Y17074153D01*
X5628059Y17148049D01*
X5335320Y17343652D01*
X5077175Y17395000D01*
X5077171Y17395000D01*
X4990010Y17412337D01*
X4902849Y17395000D01*
X2464656Y17395000D01*
X2340625Y17580625D01*
X2021522Y17793843D01*
X2151358Y17854817D01*
X2541645Y18283076D01*
X2711476Y18693110D01*
X2590155Y18923000D01*
X1397000Y18923000D01*
X1397000Y18903000D01*
X1143000Y18903000D01*
X1143000Y18923000D01*
X1123000Y18923000D01*
X1123000Y19177000D01*
X1143000Y19177000D01*
X1143000Y20370819D01*
X1397000Y20370819D01*
X1397000Y19177000D01*
X2590155Y19177000D01*
X2711476Y19406890D01*
X2541645Y19816924D01*
X2151358Y20245183D01*
X1626892Y20491486D01*
X1397000Y20370819D01*
X1143000Y20370819D01*
X913108Y20491486D01*
X710000Y20396101D01*
X710000Y23138422D01*
X4935846Y18912575D01*
X4935849Y18912573D01*
X4957344Y18891078D01*
X5007345Y18770365D01*
X5270365Y18507345D01*
X5614017Y18365000D01*
X5985983Y18365000D01*
X6329635Y18507345D01*
X6592655Y18770365D01*
X6735000Y19114017D01*
X6735000Y19485983D01*
X6592655Y19829635D01*
X6329635Y20092655D01*
X6208922Y20142656D01*
X6187427Y20164151D01*
X6187425Y20164154D01*
X2559513Y23792065D01*
X2698839Y24000582D01*
X2814092Y24580000D01*
X2698839Y25159418D01*
X2370625Y25650625D01*
X2051522Y25863843D01*
X2181358Y25924817D01*
X2518573Y26294841D01*
X7715000Y26294841D01*
X7715000Y25505159D01*
X8017199Y24775588D01*
X8575588Y24217199D01*
X9305159Y23915000D01*
X10094841Y23915000D01*
X10824412Y24217199D01*
X10921463Y24314250D01*
X22415000Y24314250D01*
X22415000Y23623690D01*
X22511673Y23390301D01*
X22690302Y23211673D01*
X22923691Y23115000D01*
X23614250Y23115000D01*
X23773000Y23273750D01*
X23773000Y24473000D01*
X22573750Y24473000D01*
X22415000Y24314250D01*
X10921463Y24314250D01*
X11382801Y24775588D01*
X11685000Y25505159D01*
X11685000Y26294841D01*
X11382801Y27024412D01*
X10824412Y27582801D01*
X10094841Y27885000D01*
X9305159Y27885000D01*
X8575588Y27582801D01*
X8017199Y27024412D01*
X7715000Y26294841D01*
X2518573Y26294841D01*
X2571645Y26353076D01*
X2741476Y26763110D01*
X2620155Y26993000D01*
X1427000Y26993000D01*
X1427000Y26973000D01*
X1173000Y26973000D01*
X1173000Y26993000D01*
X1153000Y26993000D01*
X1153000Y27247000D01*
X1173000Y27247000D01*
X1173000Y27267000D01*
X1427000Y27267000D01*
X1427000Y27247000D01*
X2620155Y27247000D01*
X2741476Y27476890D01*
X2620237Y27769606D01*
X3265000Y27124842D01*
X3265000Y27114017D01*
X3407345Y26770365D01*
X3670365Y26507345D01*
X4014017Y26365000D01*
X4385983Y26365000D01*
X4729635Y26507345D01*
X4992655Y26770365D01*
X5135000Y27114017D01*
X5135000Y27485983D01*
X4992655Y27829635D01*
X4729635Y28092655D01*
X4385983Y28235000D01*
X4375158Y28235000D01*
X2780307Y29829850D01*
X2698839Y30239418D01*
X2370625Y30730625D01*
X2352381Y30742816D01*
X2397765Y30751843D01*
X2607809Y30892191D01*
X2748157Y31102235D01*
X2797440Y31350000D01*
X2797440Y33050000D01*
X2748157Y33297765D01*
X2607809Y33507809D01*
X2397765Y33648157D01*
X2150000Y33697440D01*
X710000Y33697440D01*
X710000Y34517948D01*
X1612651Y35474758D01*
X3265279Y37194841D01*
X9115000Y37194841D01*
X9115000Y36405159D01*
X9417199Y35675588D01*
X9975588Y35117199D01*
X10705159Y34815000D01*
X11494841Y34815000D01*
X12224412Y35117199D01*
X12782801Y35675588D01*
X13085000Y36405159D01*
X13085000Y37194841D01*
X12782801Y37924412D01*
X12224412Y38482801D01*
X11494841Y38785000D01*
X10705159Y38785000D01*
X9975588Y38482801D01*
X9417199Y37924412D01*
X9115000Y37194841D01*
X3265279Y37194841D01*
X5374354Y39390000D01*
X17932621Y39390000D01*
X20312517Y39374239D01*
G04 #@! TD*
M02*
