G04 #@! TF.GenerationSoftware,KiCad,Pcbnew,5.0.0*
G04 #@! TF.CreationDate,2018-07-29T15:04:23+02:00*
G04 #@! TF.ProjectId,PTL-IR_remote,50544C2D49525F72656D6F74652E6B69,v1.1*
G04 #@! TF.SameCoordinates,PXa4b7f80PY71d9820*
G04 #@! TF.FileFunction,Soldermask,Top*
G04 #@! TF.FilePolarity,Negative*
%FSLAX46Y46*%
G04 Gerber Fmt 4.6, Leading zero omitted, Abs format (unit mm)*
G04 Created by KiCad (PCBNEW 5.0.0) date Sun Jul 29 15:04:23 2018*
%MOMM*%
%LPD*%
G01*
G04 APERTURE LIST*
%ADD10C,3.100000*%
%ADD11C,4.400500*%
%ADD12R,2.200000X2.200000*%
%ADD13C,2.200000*%
%ADD14R,1.300000X1.200000*%
%ADD15C,0.100000*%
%ADD16C,1.375000*%
%ADD17R,2.100000X2.100000*%
%ADD18O,2.100000X2.100000*%
%ADD19R,1.400000X1.900000*%
%ADD20C,2.000000*%
%ADD21C,1.350000*%
%ADD22R,1.900000X2.800000*%
%ADD23R,1.900000X1.450000*%
%ADD24C,1.294426*%
G04 APERTURE END LIST*
D10*
G04 #@! TO.C,bscrew*
X9700000Y25900000D03*
G04 #@! TD*
D11*
G04 #@! TO.C,3V3*
X22600000Y36800000D03*
G04 #@! TD*
G04 #@! TO.C,Din*
X22600000Y31800000D03*
G04 #@! TD*
G04 #@! TO.C,GND*
X22600000Y26700000D03*
G04 #@! TD*
D12*
G04 #@! TO.C,U1*
X5461000Y2286000D03*
D13*
X8001000Y2286000D03*
X10541000Y2286000D03*
G04 #@! TD*
D14*
G04 #@! TO.C,Q1*
X13900000Y8950000D03*
X13900000Y7050000D03*
X15900000Y8000000D03*
G04 #@! TD*
D15*
G04 #@! TO.C,R5*
G36*
X19893943Y35847345D02*
X19927312Y35842395D01*
X19960035Y35834198D01*
X19991797Y35822834D01*
X20022293Y35808410D01*
X20051227Y35791068D01*
X20078323Y35770972D01*
X20103318Y35748318D01*
X20125972Y35723323D01*
X20146068Y35696227D01*
X20163410Y35667293D01*
X20177834Y35636797D01*
X20189198Y35605035D01*
X20197395Y35572312D01*
X20202345Y35538943D01*
X20204000Y35505250D01*
X20204000Y34817750D01*
X20202345Y34784057D01*
X20197395Y34750688D01*
X20189198Y34717965D01*
X20177834Y34686203D01*
X20163410Y34655707D01*
X20146068Y34626773D01*
X20125972Y34599677D01*
X20103318Y34574682D01*
X20078323Y34552028D01*
X20051227Y34531932D01*
X20022293Y34514590D01*
X19991797Y34500166D01*
X19960035Y34488802D01*
X19927312Y34480605D01*
X19893943Y34475655D01*
X19860250Y34474000D01*
X18747750Y34474000D01*
X18714057Y34475655D01*
X18680688Y34480605D01*
X18647965Y34488802D01*
X18616203Y34500166D01*
X18585707Y34514590D01*
X18556773Y34531932D01*
X18529677Y34552028D01*
X18504682Y34574682D01*
X18482028Y34599677D01*
X18461932Y34626773D01*
X18444590Y34655707D01*
X18430166Y34686203D01*
X18418802Y34717965D01*
X18410605Y34750688D01*
X18405655Y34784057D01*
X18404000Y34817750D01*
X18404000Y35505250D01*
X18405655Y35538943D01*
X18410605Y35572312D01*
X18418802Y35605035D01*
X18430166Y35636797D01*
X18444590Y35667293D01*
X18461932Y35696227D01*
X18482028Y35723323D01*
X18504682Y35748318D01*
X18529677Y35770972D01*
X18556773Y35791068D01*
X18585707Y35808410D01*
X18616203Y35822834D01*
X18647965Y35834198D01*
X18680688Y35842395D01*
X18714057Y35847345D01*
X18747750Y35849000D01*
X19860250Y35849000D01*
X19893943Y35847345D01*
X19893943Y35847345D01*
G37*
D16*
X19304000Y35161500D03*
D15*
G36*
X19893943Y33972345D02*
X19927312Y33967395D01*
X19960035Y33959198D01*
X19991797Y33947834D01*
X20022293Y33933410D01*
X20051227Y33916068D01*
X20078323Y33895972D01*
X20103318Y33873318D01*
X20125972Y33848323D01*
X20146068Y33821227D01*
X20163410Y33792293D01*
X20177834Y33761797D01*
X20189198Y33730035D01*
X20197395Y33697312D01*
X20202345Y33663943D01*
X20204000Y33630250D01*
X20204000Y32942750D01*
X20202345Y32909057D01*
X20197395Y32875688D01*
X20189198Y32842965D01*
X20177834Y32811203D01*
X20163410Y32780707D01*
X20146068Y32751773D01*
X20125972Y32724677D01*
X20103318Y32699682D01*
X20078323Y32677028D01*
X20051227Y32656932D01*
X20022293Y32639590D01*
X19991797Y32625166D01*
X19960035Y32613802D01*
X19927312Y32605605D01*
X19893943Y32600655D01*
X19860250Y32599000D01*
X18747750Y32599000D01*
X18714057Y32600655D01*
X18680688Y32605605D01*
X18647965Y32613802D01*
X18616203Y32625166D01*
X18585707Y32639590D01*
X18556773Y32656932D01*
X18529677Y32677028D01*
X18504682Y32699682D01*
X18482028Y32724677D01*
X18461932Y32751773D01*
X18444590Y32780707D01*
X18430166Y32811203D01*
X18418802Y32842965D01*
X18410605Y32875688D01*
X18405655Y32909057D01*
X18404000Y32942750D01*
X18404000Y33630250D01*
X18405655Y33663943D01*
X18410605Y33697312D01*
X18418802Y33730035D01*
X18430166Y33761797D01*
X18444590Y33792293D01*
X18461932Y33821227D01*
X18482028Y33848323D01*
X18504682Y33873318D01*
X18529677Y33895972D01*
X18556773Y33916068D01*
X18585707Y33933410D01*
X18616203Y33947834D01*
X18647965Y33959198D01*
X18680688Y33967395D01*
X18714057Y33972345D01*
X18747750Y33974000D01*
X19860250Y33974000D01*
X19893943Y33972345D01*
X19893943Y33972345D01*
G37*
D16*
X19304000Y33286500D03*
G04 #@! TD*
D15*
G04 #@! TO.C,R1*
G36*
X16064943Y11798345D02*
X16098312Y11793395D01*
X16131035Y11785198D01*
X16162797Y11773834D01*
X16193293Y11759410D01*
X16222227Y11742068D01*
X16249323Y11721972D01*
X16274318Y11699318D01*
X16296972Y11674323D01*
X16317068Y11647227D01*
X16334410Y11618293D01*
X16348834Y11587797D01*
X16360198Y11556035D01*
X16368395Y11523312D01*
X16373345Y11489943D01*
X16375000Y11456250D01*
X16375000Y10343750D01*
X16373345Y10310057D01*
X16368395Y10276688D01*
X16360198Y10243965D01*
X16348834Y10212203D01*
X16334410Y10181707D01*
X16317068Y10152773D01*
X16296972Y10125677D01*
X16274318Y10100682D01*
X16249323Y10078028D01*
X16222227Y10057932D01*
X16193293Y10040590D01*
X16162797Y10026166D01*
X16131035Y10014802D01*
X16098312Y10006605D01*
X16064943Y10001655D01*
X16031250Y10000000D01*
X15343750Y10000000D01*
X15310057Y10001655D01*
X15276688Y10006605D01*
X15243965Y10014802D01*
X15212203Y10026166D01*
X15181707Y10040590D01*
X15152773Y10057932D01*
X15125677Y10078028D01*
X15100682Y10100682D01*
X15078028Y10125677D01*
X15057932Y10152773D01*
X15040590Y10181707D01*
X15026166Y10212203D01*
X15014802Y10243965D01*
X15006605Y10276688D01*
X15001655Y10310057D01*
X15000000Y10343750D01*
X15000000Y11456250D01*
X15001655Y11489943D01*
X15006605Y11523312D01*
X15014802Y11556035D01*
X15026166Y11587797D01*
X15040590Y11618293D01*
X15057932Y11647227D01*
X15078028Y11674323D01*
X15100682Y11699318D01*
X15125677Y11721972D01*
X15152773Y11742068D01*
X15181707Y11759410D01*
X15212203Y11773834D01*
X15243965Y11785198D01*
X15276688Y11793395D01*
X15310057Y11798345D01*
X15343750Y11800000D01*
X16031250Y11800000D01*
X16064943Y11798345D01*
X16064943Y11798345D01*
G37*
D16*
X15687500Y10900000D03*
D15*
G36*
X14189943Y11798345D02*
X14223312Y11793395D01*
X14256035Y11785198D01*
X14287797Y11773834D01*
X14318293Y11759410D01*
X14347227Y11742068D01*
X14374323Y11721972D01*
X14399318Y11699318D01*
X14421972Y11674323D01*
X14442068Y11647227D01*
X14459410Y11618293D01*
X14473834Y11587797D01*
X14485198Y11556035D01*
X14493395Y11523312D01*
X14498345Y11489943D01*
X14500000Y11456250D01*
X14500000Y10343750D01*
X14498345Y10310057D01*
X14493395Y10276688D01*
X14485198Y10243965D01*
X14473834Y10212203D01*
X14459410Y10181707D01*
X14442068Y10152773D01*
X14421972Y10125677D01*
X14399318Y10100682D01*
X14374323Y10078028D01*
X14347227Y10057932D01*
X14318293Y10040590D01*
X14287797Y10026166D01*
X14256035Y10014802D01*
X14223312Y10006605D01*
X14189943Y10001655D01*
X14156250Y10000000D01*
X13468750Y10000000D01*
X13435057Y10001655D01*
X13401688Y10006605D01*
X13368965Y10014802D01*
X13337203Y10026166D01*
X13306707Y10040590D01*
X13277773Y10057932D01*
X13250677Y10078028D01*
X13225682Y10100682D01*
X13203028Y10125677D01*
X13182932Y10152773D01*
X13165590Y10181707D01*
X13151166Y10212203D01*
X13139802Y10243965D01*
X13131605Y10276688D01*
X13126655Y10310057D01*
X13125000Y10343750D01*
X13125000Y11456250D01*
X13126655Y11489943D01*
X13131605Y11523312D01*
X13139802Y11556035D01*
X13151166Y11587797D01*
X13165590Y11618293D01*
X13182932Y11647227D01*
X13203028Y11674323D01*
X13225682Y11699318D01*
X13250677Y11721972D01*
X13277773Y11742068D01*
X13306707Y11759410D01*
X13337203Y11773834D01*
X13368965Y11785198D01*
X13401688Y11793395D01*
X13435057Y11798345D01*
X13468750Y11800000D01*
X14156250Y11800000D01*
X14189943Y11798345D01*
X14189943Y11798345D01*
G37*
D16*
X13812500Y10900000D03*
G04 #@! TD*
D15*
G04 #@! TO.C,R2*
G36*
X14171943Y5724345D02*
X14205312Y5719395D01*
X14238035Y5711198D01*
X14269797Y5699834D01*
X14300293Y5685410D01*
X14329227Y5668068D01*
X14356323Y5647972D01*
X14381318Y5625318D01*
X14403972Y5600323D01*
X14424068Y5573227D01*
X14441410Y5544293D01*
X14455834Y5513797D01*
X14467198Y5482035D01*
X14475395Y5449312D01*
X14480345Y5415943D01*
X14482000Y5382250D01*
X14482000Y4269750D01*
X14480345Y4236057D01*
X14475395Y4202688D01*
X14467198Y4169965D01*
X14455834Y4138203D01*
X14441410Y4107707D01*
X14424068Y4078773D01*
X14403972Y4051677D01*
X14381318Y4026682D01*
X14356323Y4004028D01*
X14329227Y3983932D01*
X14300293Y3966590D01*
X14269797Y3952166D01*
X14238035Y3940802D01*
X14205312Y3932605D01*
X14171943Y3927655D01*
X14138250Y3926000D01*
X13450750Y3926000D01*
X13417057Y3927655D01*
X13383688Y3932605D01*
X13350965Y3940802D01*
X13319203Y3952166D01*
X13288707Y3966590D01*
X13259773Y3983932D01*
X13232677Y4004028D01*
X13207682Y4026682D01*
X13185028Y4051677D01*
X13164932Y4078773D01*
X13147590Y4107707D01*
X13133166Y4138203D01*
X13121802Y4169965D01*
X13113605Y4202688D01*
X13108655Y4236057D01*
X13107000Y4269750D01*
X13107000Y5382250D01*
X13108655Y5415943D01*
X13113605Y5449312D01*
X13121802Y5482035D01*
X13133166Y5513797D01*
X13147590Y5544293D01*
X13164932Y5573227D01*
X13185028Y5600323D01*
X13207682Y5625318D01*
X13232677Y5647972D01*
X13259773Y5668068D01*
X13288707Y5685410D01*
X13319203Y5699834D01*
X13350965Y5711198D01*
X13383688Y5719395D01*
X13417057Y5724345D01*
X13450750Y5726000D01*
X14138250Y5726000D01*
X14171943Y5724345D01*
X14171943Y5724345D01*
G37*
D16*
X13794500Y4826000D03*
D15*
G36*
X16046943Y5724345D02*
X16080312Y5719395D01*
X16113035Y5711198D01*
X16144797Y5699834D01*
X16175293Y5685410D01*
X16204227Y5668068D01*
X16231323Y5647972D01*
X16256318Y5625318D01*
X16278972Y5600323D01*
X16299068Y5573227D01*
X16316410Y5544293D01*
X16330834Y5513797D01*
X16342198Y5482035D01*
X16350395Y5449312D01*
X16355345Y5415943D01*
X16357000Y5382250D01*
X16357000Y4269750D01*
X16355345Y4236057D01*
X16350395Y4202688D01*
X16342198Y4169965D01*
X16330834Y4138203D01*
X16316410Y4107707D01*
X16299068Y4078773D01*
X16278972Y4051677D01*
X16256318Y4026682D01*
X16231323Y4004028D01*
X16204227Y3983932D01*
X16175293Y3966590D01*
X16144797Y3952166D01*
X16113035Y3940802D01*
X16080312Y3932605D01*
X16046943Y3927655D01*
X16013250Y3926000D01*
X15325750Y3926000D01*
X15292057Y3927655D01*
X15258688Y3932605D01*
X15225965Y3940802D01*
X15194203Y3952166D01*
X15163707Y3966590D01*
X15134773Y3983932D01*
X15107677Y4004028D01*
X15082682Y4026682D01*
X15060028Y4051677D01*
X15039932Y4078773D01*
X15022590Y4107707D01*
X15008166Y4138203D01*
X14996802Y4169965D01*
X14988605Y4202688D01*
X14983655Y4236057D01*
X14982000Y4269750D01*
X14982000Y5382250D01*
X14983655Y5415943D01*
X14988605Y5449312D01*
X14996802Y5482035D01*
X15008166Y5513797D01*
X15022590Y5544293D01*
X15039932Y5573227D01*
X15060028Y5600323D01*
X15082682Y5625318D01*
X15107677Y5647972D01*
X15134773Y5668068D01*
X15163707Y5685410D01*
X15194203Y5699834D01*
X15225965Y5711198D01*
X15258688Y5719395D01*
X15292057Y5724345D01*
X15325750Y5726000D01*
X16013250Y5726000D01*
X16046943Y5724345D01*
X16046943Y5724345D01*
G37*
D16*
X15669500Y4826000D03*
G04 #@! TD*
D15*
G04 #@! TO.C,R4*
G36*
X16046943Y2549345D02*
X16080312Y2544395D01*
X16113035Y2536198D01*
X16144797Y2524834D01*
X16175293Y2510410D01*
X16204227Y2493068D01*
X16231323Y2472972D01*
X16256318Y2450318D01*
X16278972Y2425323D01*
X16299068Y2398227D01*
X16316410Y2369293D01*
X16330834Y2338797D01*
X16342198Y2307035D01*
X16350395Y2274312D01*
X16355345Y2240943D01*
X16357000Y2207250D01*
X16357000Y1094750D01*
X16355345Y1061057D01*
X16350395Y1027688D01*
X16342198Y994965D01*
X16330834Y963203D01*
X16316410Y932707D01*
X16299068Y903773D01*
X16278972Y876677D01*
X16256318Y851682D01*
X16231323Y829028D01*
X16204227Y808932D01*
X16175293Y791590D01*
X16144797Y777166D01*
X16113035Y765802D01*
X16080312Y757605D01*
X16046943Y752655D01*
X16013250Y751000D01*
X15325750Y751000D01*
X15292057Y752655D01*
X15258688Y757605D01*
X15225965Y765802D01*
X15194203Y777166D01*
X15163707Y791590D01*
X15134773Y808932D01*
X15107677Y829028D01*
X15082682Y851682D01*
X15060028Y876677D01*
X15039932Y903773D01*
X15022590Y932707D01*
X15008166Y963203D01*
X14996802Y994965D01*
X14988605Y1027688D01*
X14983655Y1061057D01*
X14982000Y1094750D01*
X14982000Y2207250D01*
X14983655Y2240943D01*
X14988605Y2274312D01*
X14996802Y2307035D01*
X15008166Y2338797D01*
X15022590Y2369293D01*
X15039932Y2398227D01*
X15060028Y2425323D01*
X15082682Y2450318D01*
X15107677Y2472972D01*
X15134773Y2493068D01*
X15163707Y2510410D01*
X15194203Y2524834D01*
X15225965Y2536198D01*
X15258688Y2544395D01*
X15292057Y2549345D01*
X15325750Y2551000D01*
X16013250Y2551000D01*
X16046943Y2549345D01*
X16046943Y2549345D01*
G37*
D16*
X15669500Y1651000D03*
D15*
G36*
X14171943Y2549345D02*
X14205312Y2544395D01*
X14238035Y2536198D01*
X14269797Y2524834D01*
X14300293Y2510410D01*
X14329227Y2493068D01*
X14356323Y2472972D01*
X14381318Y2450318D01*
X14403972Y2425323D01*
X14424068Y2398227D01*
X14441410Y2369293D01*
X14455834Y2338797D01*
X14467198Y2307035D01*
X14475395Y2274312D01*
X14480345Y2240943D01*
X14482000Y2207250D01*
X14482000Y1094750D01*
X14480345Y1061057D01*
X14475395Y1027688D01*
X14467198Y994965D01*
X14455834Y963203D01*
X14441410Y932707D01*
X14424068Y903773D01*
X14403972Y876677D01*
X14381318Y851682D01*
X14356323Y829028D01*
X14329227Y808932D01*
X14300293Y791590D01*
X14269797Y777166D01*
X14238035Y765802D01*
X14205312Y757605D01*
X14171943Y752655D01*
X14138250Y751000D01*
X13450750Y751000D01*
X13417057Y752655D01*
X13383688Y757605D01*
X13350965Y765802D01*
X13319203Y777166D01*
X13288707Y791590D01*
X13259773Y808932D01*
X13232677Y829028D01*
X13207682Y851682D01*
X13185028Y876677D01*
X13164932Y903773D01*
X13147590Y932707D01*
X13133166Y963203D01*
X13121802Y994965D01*
X13113605Y1027688D01*
X13108655Y1061057D01*
X13107000Y1094750D01*
X13107000Y2207250D01*
X13108655Y2240943D01*
X13113605Y2274312D01*
X13121802Y2307035D01*
X13133166Y2338797D01*
X13147590Y2369293D01*
X13164932Y2398227D01*
X13185028Y2425323D01*
X13207682Y2450318D01*
X13232677Y2472972D01*
X13259773Y2493068D01*
X13288707Y2510410D01*
X13319203Y2524834D01*
X13350965Y2536198D01*
X13383688Y2544395D01*
X13417057Y2549345D01*
X13450750Y2551000D01*
X14138250Y2551000D01*
X14171943Y2549345D01*
X14171943Y2549345D01*
G37*
D16*
X13794500Y1651000D03*
G04 #@! TD*
D17*
G04 #@! TO.C,DHT22*
X7239000Y13900000D03*
D18*
X9779000Y13900000D03*
X12319000Y13900000D03*
X14859000Y13900000D03*
G04 #@! TD*
G04 #@! TO.C,J1*
X23939500Y1333500D03*
X23939500Y3873500D03*
X23939500Y6413500D03*
X23939500Y8953500D03*
X23939500Y11493500D03*
X23939500Y14033500D03*
X23939500Y16573500D03*
D17*
X23939500Y19113500D03*
G04 #@! TD*
G04 #@! TO.C,J2*
X1270000Y1270000D03*
D18*
X1270000Y3810000D03*
X1270000Y6350000D03*
X1270000Y8890000D03*
X1270000Y11430000D03*
X1270000Y13970000D03*
X1270000Y16510000D03*
X1270000Y19050000D03*
G04 #@! TD*
D19*
G04 #@! TO.C,D4*
X4900000Y5550000D03*
X6500000Y5550000D03*
X8100000Y5550000D03*
X4900000Y10450000D03*
X6500000Y10450000D03*
X8100000Y10450000D03*
G04 #@! TD*
D20*
G04 #@! TO.C,PR1*
X19700000Y13740000D03*
X19700000Y11200000D03*
G04 #@! TD*
D15*
G04 #@! TO.C,C1*
G36*
X12595581Y5473375D02*
X12628343Y5468515D01*
X12660471Y5460467D01*
X12691656Y5449309D01*
X12721596Y5435148D01*
X12750005Y5418121D01*
X12776608Y5398391D01*
X12801149Y5376149D01*
X12823391Y5351608D01*
X12843121Y5325005D01*
X12860148Y5296596D01*
X12874309Y5266656D01*
X12885467Y5235471D01*
X12893515Y5203343D01*
X12898375Y5170581D01*
X12900000Y5137500D01*
X12900000Y4462500D01*
X12898375Y4429419D01*
X12893515Y4396657D01*
X12885467Y4364529D01*
X12874309Y4333344D01*
X12860148Y4303404D01*
X12843121Y4274995D01*
X12823391Y4248392D01*
X12801149Y4223851D01*
X12776608Y4201609D01*
X12750005Y4181879D01*
X12721596Y4164852D01*
X12691656Y4150691D01*
X12660471Y4139533D01*
X12628343Y4131485D01*
X12595581Y4126625D01*
X12562500Y4125000D01*
X11787500Y4125000D01*
X11754419Y4126625D01*
X11721657Y4131485D01*
X11689529Y4139533D01*
X11658344Y4150691D01*
X11628404Y4164852D01*
X11599995Y4181879D01*
X11573392Y4201609D01*
X11548851Y4223851D01*
X11526609Y4248392D01*
X11506879Y4274995D01*
X11489852Y4303404D01*
X11475691Y4333344D01*
X11464533Y4364529D01*
X11456485Y4396657D01*
X11451625Y4429419D01*
X11450000Y4462500D01*
X11450000Y5137500D01*
X11451625Y5170581D01*
X11456485Y5203343D01*
X11464533Y5235471D01*
X11475691Y5266656D01*
X11489852Y5296596D01*
X11506879Y5325005D01*
X11526609Y5351608D01*
X11548851Y5376149D01*
X11573392Y5398391D01*
X11599995Y5418121D01*
X11628404Y5435148D01*
X11658344Y5449309D01*
X11689529Y5460467D01*
X11721657Y5468515D01*
X11754419Y5473375D01*
X11787500Y5475000D01*
X12562500Y5475000D01*
X12595581Y5473375D01*
X12595581Y5473375D01*
G37*
D21*
X12175000Y4800000D03*
D15*
G36*
X10845581Y5473375D02*
X10878343Y5468515D01*
X10910471Y5460467D01*
X10941656Y5449309D01*
X10971596Y5435148D01*
X11000005Y5418121D01*
X11026608Y5398391D01*
X11051149Y5376149D01*
X11073391Y5351608D01*
X11093121Y5325005D01*
X11110148Y5296596D01*
X11124309Y5266656D01*
X11135467Y5235471D01*
X11143515Y5203343D01*
X11148375Y5170581D01*
X11150000Y5137500D01*
X11150000Y4462500D01*
X11148375Y4429419D01*
X11143515Y4396657D01*
X11135467Y4364529D01*
X11124309Y4333344D01*
X11110148Y4303404D01*
X11093121Y4274995D01*
X11073391Y4248392D01*
X11051149Y4223851D01*
X11026608Y4201609D01*
X11000005Y4181879D01*
X10971596Y4164852D01*
X10941656Y4150691D01*
X10910471Y4139533D01*
X10878343Y4131485D01*
X10845581Y4126625D01*
X10812500Y4125000D01*
X10037500Y4125000D01*
X10004419Y4126625D01*
X9971657Y4131485D01*
X9939529Y4139533D01*
X9908344Y4150691D01*
X9878404Y4164852D01*
X9849995Y4181879D01*
X9823392Y4201609D01*
X9798851Y4223851D01*
X9776609Y4248392D01*
X9756879Y4274995D01*
X9739852Y4303404D01*
X9725691Y4333344D01*
X9714533Y4364529D01*
X9706485Y4396657D01*
X9701625Y4429419D01*
X9700000Y4462500D01*
X9700000Y5137500D01*
X9701625Y5170581D01*
X9706485Y5203343D01*
X9714533Y5235471D01*
X9725691Y5266656D01*
X9739852Y5296596D01*
X9756879Y5325005D01*
X9776609Y5351608D01*
X9798851Y5376149D01*
X9823392Y5398391D01*
X9849995Y5418121D01*
X9878404Y5435148D01*
X9908344Y5449309D01*
X9939529Y5460467D01*
X9971657Y5468515D01*
X10004419Y5473375D01*
X10037500Y5475000D01*
X10812500Y5475000D01*
X10845581Y5473375D01*
X10845581Y5473375D01*
G37*
D21*
X10425000Y4800000D03*
G04 #@! TD*
D17*
G04 #@! TO.C,J3*
X1300000Y32200000D03*
D18*
X1300000Y29660000D03*
X1300000Y27120000D03*
X1300000Y24580000D03*
G04 #@! TD*
D13*
G04 #@! TO.C,D1*
X20574000Y2540000D03*
D12*
X18034000Y2540000D03*
G04 #@! TD*
G04 #@! TO.C,D2*
X20574000Y7112000D03*
D13*
X18034000Y7112000D03*
G04 #@! TD*
D22*
G04 #@! TO.C,D3*
X10900000Y9300000D03*
D23*
X10900000Y6925000D03*
G04 #@! TD*
D24*
G04 #@! TO.C,JP1*
X20701000Y21463000D03*
D15*
G36*
X19627393Y22163000D02*
X21774607Y22163000D01*
X21074607Y20763000D01*
X20327393Y20763000D01*
X19627393Y22163000D01*
X19627393Y22163000D01*
G37*
D24*
X20701000Y22963000D03*
D15*
G36*
X20327393Y23663000D02*
X21074607Y23663000D01*
X21774607Y22263000D01*
X19627393Y22263000D01*
X20327393Y23663000D01*
X20327393Y23663000D01*
G37*
G04 #@! TD*
D10*
G04 #@! TO.C,dscrew*
X11100000Y36800000D03*
G04 #@! TD*
M02*
