G04 #@! TF.GenerationSoftware,KiCad,Pcbnew,(5.0.0-3-g5ebb6b6)*
G04 #@! TF.CreationDate,2018-08-30T23:55:37+02:00*
G04 #@! TF.ProjectId,PTL-IR_remote,50544C2D49525F72656D6F74652E6B69,v1.1*
G04 #@! TF.SameCoordinates,PXa4b7f80PY71d9820*
G04 #@! TF.FileFunction,Soldermask,Bot*
G04 #@! TF.FilePolarity,Negative*
%FSLAX46Y46*%
G04 Gerber Fmt 4.6, Leading zero omitted, Abs format (unit mm)*
G04 Created by KiCad (PCBNEW (5.0.0-3-g5ebb6b6)) date 2018 August 30, Thursday 23:55:37*
%MOMM*%
%LPD*%
G01*
G04 APERTURE LIST*
%ADD10C,0.000120*%
%ADD11C,3.100000*%
%ADD12R,2.100000X2.100000*%
%ADD13O,2.100000X2.100000*%
%ADD14C,2.000000*%
%ADD15R,2.200000X2.200000*%
%ADD16C,2.200000*%
G04 APERTURE END LIST*
D10*
G04 #@! TO.C,*
G36*
X12596865Y21466103D02*
X10459076Y23603892D01*
X10563422Y23819041D01*
X10782483Y23793932D01*
X13341308Y21162913D01*
X13341308Y21158283D01*
X13340982Y21156196D01*
X13340982Y21154044D01*
X13347699Y21014611D01*
X13367134Y20879157D01*
X13398633Y20747877D01*
X13441480Y20621553D01*
X12596865Y21466103D01*
G37*
X12596865Y21466103D02*
X10459076Y23603892D01*
X10563422Y23819041D01*
X10782483Y23793932D01*
X13341308Y21162913D01*
X13341308Y21158283D01*
X13340982Y21156196D01*
X13340982Y21154044D01*
X13347699Y21014611D01*
X13367134Y20879157D01*
X13398633Y20747877D01*
X13441480Y20621553D01*
X12596865Y21466103D01*
G36*
X11895985Y18597371D02*
X11897420Y18567958D01*
X11902703Y18539328D01*
X11911181Y18511742D01*
X11922529Y18485199D01*
X11167455Y17706451D01*
X10557096Y18482003D01*
X10659746Y18643674D01*
X11041522Y18250616D01*
X11531883Y18756172D01*
X11568665Y18733934D01*
X11608317Y18717629D01*
X11649729Y18707717D01*
X11692185Y18704195D01*
X11768944Y18715151D01*
X11837617Y18746651D01*
X11894942Y18794780D01*
X11938441Y18857062D01*
X11953311Y18841801D01*
X11983701Y18811410D01*
X11998571Y18796215D01*
X11956506Y18758716D01*
X11923898Y18711630D01*
X11903029Y18657109D01*
X11895985Y18597371D01*
G37*
X11895985Y18597371D02*
X11897420Y18567958D01*
X11902703Y18539328D01*
X11911181Y18511742D01*
X11922529Y18485199D01*
X11167455Y17706451D01*
X10557096Y18482003D01*
X10659746Y18643674D01*
X11041522Y18250616D01*
X11531883Y18756172D01*
X11568665Y18733934D01*
X11608317Y18717629D01*
X11649729Y18707717D01*
X11692185Y18704195D01*
X11768944Y18715151D01*
X11837617Y18746651D01*
X11894942Y18794780D01*
X11938441Y18857062D01*
X11953311Y18841801D01*
X11983701Y18811410D01*
X11998571Y18796215D01*
X11956506Y18758716D01*
X11923898Y18711630D01*
X11903029Y18657109D01*
X11895985Y18597371D01*
G36*
X9938976Y20856462D02*
X9891890Y20759550D01*
X9836000Y20759550D01*
X9812000Y20983177D01*
X9938976Y20856462D01*
G37*
X9938976Y20856462D02*
X9891890Y20759550D01*
X9836000Y20759550D01*
X9812000Y20983177D01*
X9938976Y20856462D01*
G36*
X11841856Y17828145D02*
X11298018Y17635300D01*
X12023353Y18382940D01*
X12048852Y18370875D01*
X12075395Y18362397D01*
X12102982Y18357440D01*
X12130894Y18355679D01*
X12190698Y18363440D01*
X12244827Y18386135D01*
X12291196Y18421482D01*
X12328369Y18467134D01*
X12346760Y18448352D01*
X12402977Y18392135D01*
X11841856Y17828145D01*
G37*
X11841856Y17828145D02*
X11298018Y17635300D01*
X12023353Y18382940D01*
X12048852Y18370875D01*
X12075395Y18362397D01*
X12102982Y18357440D01*
X12130894Y18355679D01*
X12190698Y18363440D01*
X12244827Y18386135D01*
X12291196Y18421482D01*
X12328369Y18467134D01*
X12346760Y18448352D01*
X12402977Y18392135D01*
X11841856Y17828145D01*
G36*
X11692185Y18848584D02*
X11638381Y18859866D01*
X11594491Y18890648D01*
X11564817Y18935973D01*
X11553861Y18991864D01*
X11562339Y19041037D01*
X11584969Y19082775D01*
X11619664Y19114275D01*
X11662837Y19132340D01*
X11826987Y18968125D01*
X11811074Y18921104D01*
X11781009Y18882887D01*
X11740314Y18857779D01*
X11692185Y18848584D01*
G37*
X11692185Y18848584D02*
X11638381Y18859866D01*
X11594491Y18890648D01*
X11564817Y18935973D01*
X11553861Y18991864D01*
X11562339Y19041037D01*
X11584969Y19082775D01*
X11619664Y19114275D01*
X11662837Y19132340D01*
X11826987Y18968125D01*
X11811074Y18921104D01*
X11781009Y18882887D01*
X11740314Y18857779D01*
X11692185Y18848584D01*
G36*
X10152298Y20409600D02*
X10186993Y20411752D01*
X10221362Y20418796D01*
X10254231Y20430469D01*
X10286122Y20446773D01*
X11497905Y19198469D01*
X11460797Y19154252D01*
X11433537Y19104036D01*
X11416907Y19049515D01*
X11410907Y18991864D01*
X11412994Y18959973D01*
X11418342Y18928539D01*
X11427146Y18897757D01*
X11439863Y18867627D01*
X11432102Y18859866D01*
X11424668Y18852105D01*
X11417233Y18844671D01*
X11409798Y18836910D01*
X10988045Y19271707D01*
X10747853Y19868631D01*
X10315078Y19964890D01*
X9981497Y20308776D01*
X9884847Y20308776D01*
X9851978Y20615162D01*
X9891890Y20615162D01*
X9928737Y20531685D01*
X9987432Y20466925D01*
X10063930Y20424469D01*
X10152298Y20409600D01*
G37*
X10152298Y20409600D02*
X10186993Y20411752D01*
X10221362Y20418796D01*
X10254231Y20430469D01*
X10286122Y20446773D01*
X11497905Y19198469D01*
X11460797Y19154252D01*
X11433537Y19104036D01*
X11416907Y19049515D01*
X11410907Y18991864D01*
X11412994Y18959973D01*
X11418342Y18928539D01*
X11427146Y18897757D01*
X11439863Y18867627D01*
X11432102Y18859866D01*
X11424668Y18852105D01*
X11417233Y18844671D01*
X11409798Y18836910D01*
X10988045Y19271707D01*
X10747853Y19868631D01*
X10315078Y19964890D01*
X9981497Y20308776D01*
X9884847Y20308776D01*
X9851978Y20615162D01*
X9891890Y20615162D01*
X9928737Y20531685D01*
X9987432Y20466925D01*
X10063930Y20424469D01*
X10152298Y20409600D01*
G36*
X14803000Y22616062D02*
X14685872Y22611105D01*
X14571222Y22597279D01*
X14459376Y22574649D01*
X14350791Y22543867D01*
X11813552Y25158974D01*
X12201654Y25402035D01*
X14910150Y22610388D01*
X14883281Y22612475D01*
X14856738Y22614301D01*
X14829869Y22615344D01*
X14803000Y22616062D01*
G37*
X14803000Y22616062D02*
X14685872Y22611105D01*
X14571222Y22597279D01*
X14459376Y22574649D01*
X14350791Y22543867D01*
X11813552Y25158974D01*
X12201654Y25402035D01*
X14910150Y22610388D01*
X14883281Y22612475D01*
X14856738Y22614301D01*
X14829869Y22615344D01*
X14803000Y22616062D01*
G36*
X14206076Y22487586D02*
X14058557Y22411152D01*
X13921602Y22319197D01*
X13796322Y22213025D01*
X13683498Y22093419D01*
X11740314Y24096797D01*
X11894942Y24251033D01*
X11699945Y25070867D01*
X14206076Y22487586D01*
G37*
X14206076Y22487586D02*
X14058557Y22411152D01*
X13921602Y22319197D01*
X13796322Y22213025D01*
X13683498Y22093419D01*
X11740314Y24096797D01*
X11894942Y24251033D01*
X11699945Y25070867D01*
X14206076Y22487586D01*
G36*
X13356177Y21352888D02*
X11007153Y23768433D01*
X11418994Y23721347D01*
X11642294Y23992059D01*
X13596108Y21978116D01*
X13510088Y21835488D01*
X13441089Y21683013D01*
X13389438Y21521668D01*
X13356177Y21352888D01*
G37*
X13356177Y21352888D02*
X11007153Y23768433D01*
X11418994Y23721347D01*
X11642294Y23992059D01*
X13596108Y21978116D01*
X13510088Y21835488D01*
X13441089Y21683013D01*
X13389438Y21521668D01*
X13356177Y21352888D01*
G36*
X17816448Y19043124D02*
X17919424Y19018407D01*
X18007531Y19036080D01*
X18079334Y19084536D01*
X18127855Y19156404D01*
X18145855Y19244512D01*
X18127855Y19332227D01*
X18079334Y19404031D01*
X18007531Y19452878D01*
X17919424Y19470551D01*
X17831317Y19452878D01*
X17759514Y19404031D01*
X17710993Y19332227D01*
X17693319Y19244512D01*
X17698993Y19193904D01*
X17716341Y19145774D01*
X16295735Y17767298D01*
X15828721Y18234312D01*
X17848991Y20250016D01*
X17883686Y20233386D01*
X17920468Y20220995D01*
X17958684Y20213951D01*
X17997619Y20211473D01*
X18115790Y20235212D01*
X18212376Y20300624D01*
X18277853Y20397209D01*
X18301918Y20515381D01*
X18277853Y20633944D01*
X18212376Y20730529D01*
X18115790Y20796006D01*
X17997619Y20819680D01*
X17879055Y20796006D01*
X17782470Y20730529D01*
X17717058Y20633944D01*
X17693319Y20515381D01*
X17696515Y20471164D01*
X17706428Y20428382D01*
X17722341Y20387296D01*
X17744645Y20348427D01*
X15727832Y18335136D01*
X15438793Y18624240D01*
X16434776Y19610310D01*
X16472667Y19587353D01*
X16512253Y19570332D01*
X16553665Y19559702D01*
X16596512Y19555137D01*
X16602838Y19555137D01*
X16717163Y19578875D01*
X16811270Y19643244D01*
X16876029Y19738786D01*
X16901138Y19855914D01*
X16896507Y19915652D01*
X16880986Y19972651D01*
X16854769Y20025737D01*
X16818704Y20073149D01*
X16773770Y20112410D01*
X16723162Y20141757D01*
X16667924Y20160539D01*
X16609230Y20167974D01*
X16602512Y20167974D01*
X16488580Y20144235D01*
X16394472Y20079867D01*
X16330039Y19984651D01*
X16304604Y19867914D01*
X16305974Y19828262D01*
X16312691Y19790046D01*
X16323713Y19752938D01*
X16339626Y19717525D01*
X15337578Y18725455D01*
X15124255Y18938778D01*
X15204537Y18961082D01*
X15269688Y19009537D01*
X15313513Y19077819D01*
X15330534Y19159926D01*
X15314948Y19248751D01*
X15268970Y19321989D01*
X15199580Y19372531D01*
X15113625Y19392357D01*
X15027670Y19375401D01*
X14956911Y19329032D01*
X14908064Y19260033D01*
X14887520Y19175122D01*
X14269075Y19793632D01*
X14395725Y19750459D01*
X14527331Y19718569D01*
X14663177Y19698808D01*
X14803000Y19692091D01*
X14939889Y19698417D01*
X15073256Y19717199D01*
X15202776Y19747590D01*
X15327339Y19789002D01*
X15446554Y19841371D01*
X15560161Y19903652D01*
X15666985Y19975129D01*
X15767157Y20055802D01*
X15859504Y20144952D01*
X15944024Y20241929D01*
X16019740Y20345949D01*
X16086652Y20456686D01*
X16143259Y20573423D01*
X16189954Y20695508D01*
X16225302Y20822875D01*
X16249758Y20954482D01*
X16483232Y20942808D01*
X16509775Y20892592D01*
X16548383Y20853984D01*
X16596512Y20829267D01*
X16651294Y20820723D01*
X16722119Y20835267D01*
X16779770Y20875244D01*
X16819030Y20934656D01*
X16833182Y21007242D01*
X16819030Y21080088D01*
X16779770Y21139892D01*
X16722119Y21179869D01*
X16651294Y21194739D01*
X16600034Y21186978D01*
X16554383Y21165391D01*
X16516166Y21131414D01*
X16487862Y21086088D01*
X16262149Y21097762D01*
X16264953Y21153718D01*
X16262149Y21244955D01*
X16253605Y21334823D01*
X16239845Y21422930D01*
X16221062Y21508950D01*
X16196998Y21593145D01*
X16168368Y21675252D01*
X16134781Y21755207D01*
X16096891Y21832684D01*
X16212584Y21827401D01*
X16243366Y21770076D01*
X16288692Y21726186D01*
X16344582Y21697882D01*
X16407907Y21687643D01*
X16489297Y21704599D01*
X16555817Y21750251D01*
X16600751Y21818141D01*
X16616990Y21901291D01*
X16600751Y21984834D01*
X16555817Y22053115D01*
X16489297Y22099092D01*
X16407907Y22115723D01*
X16343473Y22105484D01*
X16286866Y22075745D01*
X16241279Y22030485D01*
X16210432Y21972051D01*
X16007740Y21981312D01*
X15838243Y22185113D01*
X15740223Y22274589D01*
X15634768Y22354936D01*
X15521553Y22425695D01*
X15402338Y22486216D01*
X15276731Y22535715D01*
X15145842Y22573606D01*
X12326217Y25480229D01*
X12631560Y25671313D01*
X12697754Y25618553D01*
X15799309Y22421456D01*
X17006201Y22362370D01*
X17042983Y22280263D01*
X17102069Y22215895D01*
X17178176Y22173765D01*
X17265175Y22158570D01*
X17369586Y22180156D01*
X17455215Y22239568D01*
X17512866Y22327349D01*
X17534127Y22434891D01*
X17512866Y22542106D01*
X17455215Y22629822D01*
X17369586Y22688908D01*
X17265175Y22710495D01*
X17177133Y22695626D01*
X17101025Y22653887D01*
X17042657Y22589519D01*
X17006201Y22506694D01*
X15862308Y22562976D01*
X13350504Y25151865D01*
X13727715Y25271472D01*
X15789396Y23146400D01*
X15779157Y23121292D01*
X15771722Y23095792D01*
X15767157Y23069641D01*
X15765723Y23043489D01*
X15784114Y22950034D01*
X15834330Y22873275D01*
X15909003Y22821949D01*
X15999914Y22802841D01*
X16091217Y22821949D01*
X16165498Y22873275D01*
X16216106Y22950034D01*
X16234497Y23043489D01*
X16216106Y23136879D01*
X16165498Y23213312D01*
X16091217Y23264572D01*
X15999914Y23283680D01*
X15970567Y23281594D01*
X15941937Y23275920D01*
X15913633Y23266007D01*
X15886699Y23252572D01*
X13890429Y25310015D01*
X14184815Y25366623D01*
X14228380Y25477360D01*
X16048044Y23601414D01*
X16060826Y23600697D01*
X16797835Y23576632D01*
X16829269Y23522176D01*
X16873877Y23480047D01*
X16928398Y23453178D01*
X16989571Y23443591D01*
X17070243Y23460221D01*
X17136047Y23505872D01*
X17180654Y23573502D01*
X17196893Y23656261D01*
X17180654Y23739086D01*
X17136047Y23806976D01*
X17070243Y23852627D01*
X16989571Y23869257D01*
X16924094Y23858692D01*
X16867160Y23828236D01*
X16821509Y23781150D01*
X16792161Y23721021D01*
X16109999Y23743325D01*
X14285314Y25623835D01*
X14440659Y26021263D01*
X16198758Y24209295D01*
X16211541Y24209295D01*
X17385173Y24190513D01*
X17417716Y24141339D01*
X17461215Y24103840D01*
X17513257Y24079775D01*
X17570909Y24071297D01*
X17651581Y24088253D01*
X17717710Y24133905D01*
X17761992Y24201534D01*
X17778622Y24284294D01*
X17761992Y24367118D01*
X17717710Y24434682D01*
X17651581Y24480334D01*
X17570909Y24496964D01*
X17509018Y24487377D01*
X17454171Y24460182D01*
X17409564Y24417661D01*
X17378455Y24362488D01*
X16270953Y24379509D01*
X14541483Y26162000D01*
X15598704Y26113153D01*
X15846395Y25289146D01*
X16106086Y25216625D01*
X16358734Y25128192D01*
X16603947Y25024824D01*
X16841008Y24906652D01*
X17568104Y25358862D01*
X18420089Y24657591D01*
X18124986Y23849105D01*
X18234680Y23709347D01*
X18338700Y23564306D01*
X18436328Y23415287D01*
X18528348Y23261768D01*
X19386007Y23258964D01*
X19735567Y22212308D01*
X19055883Y21683730D01*
X19070752Y21550689D01*
X19081708Y21416604D01*
X19088426Y21281411D01*
X19090904Y21145174D01*
X19090578Y21102066D01*
X19089534Y21058893D01*
X19088100Y21015720D01*
X19086339Y20972221D01*
X19812000Y20515055D01*
X19552635Y19442247D01*
X18697128Y19354858D01*
X18618608Y19193904D01*
X18533631Y19036798D01*
X18442393Y18883931D01*
X18345091Y18734977D01*
X18716563Y17962556D01*
X17927576Y17190917D01*
X17155546Y17571258D01*
X16733793Y17329241D01*
X16396951Y17665756D01*
X17816448Y19043124D01*
G37*
X17816448Y19043124D02*
X17919424Y19018407D01*
X18007531Y19036080D01*
X18079334Y19084536D01*
X18127855Y19156404D01*
X18145855Y19244512D01*
X18127855Y19332227D01*
X18079334Y19404031D01*
X18007531Y19452878D01*
X17919424Y19470551D01*
X17831317Y19452878D01*
X17759514Y19404031D01*
X17710993Y19332227D01*
X17693319Y19244512D01*
X17698993Y19193904D01*
X17716341Y19145774D01*
X16295735Y17767298D01*
X15828721Y18234312D01*
X17848991Y20250016D01*
X17883686Y20233386D01*
X17920468Y20220995D01*
X17958684Y20213951D01*
X17997619Y20211473D01*
X18115790Y20235212D01*
X18212376Y20300624D01*
X18277853Y20397209D01*
X18301918Y20515381D01*
X18277853Y20633944D01*
X18212376Y20730529D01*
X18115790Y20796006D01*
X17997619Y20819680D01*
X17879055Y20796006D01*
X17782470Y20730529D01*
X17717058Y20633944D01*
X17693319Y20515381D01*
X17696515Y20471164D01*
X17706428Y20428382D01*
X17722341Y20387296D01*
X17744645Y20348427D01*
X15727832Y18335136D01*
X15438793Y18624240D01*
X16434776Y19610310D01*
X16472667Y19587353D01*
X16512253Y19570332D01*
X16553665Y19559702D01*
X16596512Y19555137D01*
X16602838Y19555137D01*
X16717163Y19578875D01*
X16811270Y19643244D01*
X16876029Y19738786D01*
X16901138Y19855914D01*
X16896507Y19915652D01*
X16880986Y19972651D01*
X16854769Y20025737D01*
X16818704Y20073149D01*
X16773770Y20112410D01*
X16723162Y20141757D01*
X16667924Y20160539D01*
X16609230Y20167974D01*
X16602512Y20167974D01*
X16488580Y20144235D01*
X16394472Y20079867D01*
X16330039Y19984651D01*
X16304604Y19867914D01*
X16305974Y19828262D01*
X16312691Y19790046D01*
X16323713Y19752938D01*
X16339626Y19717525D01*
X15337578Y18725455D01*
X15124255Y18938778D01*
X15204537Y18961082D01*
X15269688Y19009537D01*
X15313513Y19077819D01*
X15330534Y19159926D01*
X15314948Y19248751D01*
X15268970Y19321989D01*
X15199580Y19372531D01*
X15113625Y19392357D01*
X15027670Y19375401D01*
X14956911Y19329032D01*
X14908064Y19260033D01*
X14887520Y19175122D01*
X14269075Y19793632D01*
X14395725Y19750459D01*
X14527331Y19718569D01*
X14663177Y19698808D01*
X14803000Y19692091D01*
X14939889Y19698417D01*
X15073256Y19717199D01*
X15202776Y19747590D01*
X15327339Y19789002D01*
X15446554Y19841371D01*
X15560161Y19903652D01*
X15666985Y19975129D01*
X15767157Y20055802D01*
X15859504Y20144952D01*
X15944024Y20241929D01*
X16019740Y20345949D01*
X16086652Y20456686D01*
X16143259Y20573423D01*
X16189954Y20695508D01*
X16225302Y20822875D01*
X16249758Y20954482D01*
X16483232Y20942808D01*
X16509775Y20892592D01*
X16548383Y20853984D01*
X16596512Y20829267D01*
X16651294Y20820723D01*
X16722119Y20835267D01*
X16779770Y20875244D01*
X16819030Y20934656D01*
X16833182Y21007242D01*
X16819030Y21080088D01*
X16779770Y21139892D01*
X16722119Y21179869D01*
X16651294Y21194739D01*
X16600034Y21186978D01*
X16554383Y21165391D01*
X16516166Y21131414D01*
X16487862Y21086088D01*
X16262149Y21097762D01*
X16264953Y21153718D01*
X16262149Y21244955D01*
X16253605Y21334823D01*
X16239845Y21422930D01*
X16221062Y21508950D01*
X16196998Y21593145D01*
X16168368Y21675252D01*
X16134781Y21755207D01*
X16096891Y21832684D01*
X16212584Y21827401D01*
X16243366Y21770076D01*
X16288692Y21726186D01*
X16344582Y21697882D01*
X16407907Y21687643D01*
X16489297Y21704599D01*
X16555817Y21750251D01*
X16600751Y21818141D01*
X16616990Y21901291D01*
X16600751Y21984834D01*
X16555817Y22053115D01*
X16489297Y22099092D01*
X16407907Y22115723D01*
X16343473Y22105484D01*
X16286866Y22075745D01*
X16241279Y22030485D01*
X16210432Y21972051D01*
X16007740Y21981312D01*
X15838243Y22185113D01*
X15740223Y22274589D01*
X15634768Y22354936D01*
X15521553Y22425695D01*
X15402338Y22486216D01*
X15276731Y22535715D01*
X15145842Y22573606D01*
X12326217Y25480229D01*
X12631560Y25671313D01*
X12697754Y25618553D01*
X15799309Y22421456D01*
X17006201Y22362370D01*
X17042983Y22280263D01*
X17102069Y22215895D01*
X17178176Y22173765D01*
X17265175Y22158570D01*
X17369586Y22180156D01*
X17455215Y22239568D01*
X17512866Y22327349D01*
X17534127Y22434891D01*
X17512866Y22542106D01*
X17455215Y22629822D01*
X17369586Y22688908D01*
X17265175Y22710495D01*
X17177133Y22695626D01*
X17101025Y22653887D01*
X17042657Y22589519D01*
X17006201Y22506694D01*
X15862308Y22562976D01*
X13350504Y25151865D01*
X13727715Y25271472D01*
X15789396Y23146400D01*
X15779157Y23121292D01*
X15771722Y23095792D01*
X15767157Y23069641D01*
X15765723Y23043489D01*
X15784114Y22950034D01*
X15834330Y22873275D01*
X15909003Y22821949D01*
X15999914Y22802841D01*
X16091217Y22821949D01*
X16165498Y22873275D01*
X16216106Y22950034D01*
X16234497Y23043489D01*
X16216106Y23136879D01*
X16165498Y23213312D01*
X16091217Y23264572D01*
X15999914Y23283680D01*
X15970567Y23281594D01*
X15941937Y23275920D01*
X15913633Y23266007D01*
X15886699Y23252572D01*
X13890429Y25310015D01*
X14184815Y25366623D01*
X14228380Y25477360D01*
X16048044Y23601414D01*
X16060826Y23600697D01*
X16797835Y23576632D01*
X16829269Y23522176D01*
X16873877Y23480047D01*
X16928398Y23453178D01*
X16989571Y23443591D01*
X17070243Y23460221D01*
X17136047Y23505872D01*
X17180654Y23573502D01*
X17196893Y23656261D01*
X17180654Y23739086D01*
X17136047Y23806976D01*
X17070243Y23852627D01*
X16989571Y23869257D01*
X16924094Y23858692D01*
X16867160Y23828236D01*
X16821509Y23781150D01*
X16792161Y23721021D01*
X16109999Y23743325D01*
X14285314Y25623835D01*
X14440659Y26021263D01*
X16198758Y24209295D01*
X16211541Y24209295D01*
X17385173Y24190513D01*
X17417716Y24141339D01*
X17461215Y24103840D01*
X17513257Y24079775D01*
X17570909Y24071297D01*
X17651581Y24088253D01*
X17717710Y24133905D01*
X17761992Y24201534D01*
X17778622Y24284294D01*
X17761992Y24367118D01*
X17717710Y24434682D01*
X17651581Y24480334D01*
X17570909Y24496964D01*
X17509018Y24487377D01*
X17454171Y24460182D01*
X17409564Y24417661D01*
X17378455Y24362488D01*
X16270953Y24379509D01*
X14541483Y26162000D01*
X15598704Y26113153D01*
X15846395Y25289146D01*
X16106086Y25216625D01*
X16358734Y25128192D01*
X16603947Y25024824D01*
X16841008Y24906652D01*
X17568104Y25358862D01*
X18420089Y24657591D01*
X18124986Y23849105D01*
X18234680Y23709347D01*
X18338700Y23564306D01*
X18436328Y23415287D01*
X18528348Y23261768D01*
X19386007Y23258964D01*
X19735567Y22212308D01*
X19055883Y21683730D01*
X19070752Y21550689D01*
X19081708Y21416604D01*
X19088426Y21281411D01*
X19090904Y21145174D01*
X19090578Y21102066D01*
X19089534Y21058893D01*
X19088100Y21015720D01*
X19086339Y20972221D01*
X19812000Y20515055D01*
X19552635Y19442247D01*
X18697128Y19354858D01*
X18618608Y19193904D01*
X18533631Y19036798D01*
X18442393Y18883931D01*
X18345091Y18734977D01*
X18716563Y17962556D01*
X17927576Y17190917D01*
X17155546Y17571258D01*
X16733793Y17329241D01*
X16396951Y17665756D01*
X17816448Y19043124D01*
G36*
X12422085Y17616192D02*
X12086678Y17870601D01*
X12504584Y18290593D01*
X12797861Y17997251D01*
X12422085Y17616192D01*
G37*
X12422085Y17616192D02*
X12086678Y17870601D01*
X12504584Y18290593D01*
X12797861Y17997251D01*
X12422085Y17616192D01*
G36*
X12622038Y16829293D02*
X12625886Y17484586D01*
X12544170Y17536237D01*
X12899403Y17896035D01*
X13301005Y17494107D01*
X12622038Y16829293D01*
G37*
X12622038Y16829293D02*
X12625886Y17484586D01*
X12544170Y17536237D01*
X12899403Y17896035D01*
X13301005Y17494107D01*
X12622038Y16829293D01*
G36*
X15755810Y17876601D02*
X14512136Y19120666D01*
X13765540Y18374070D01*
X14760870Y17379131D01*
X15009605Y17627866D01*
X14263401Y18374070D01*
X14512136Y18623196D01*
X15258340Y17876601D01*
X15009605Y17627866D01*
X14760870Y17379131D01*
X14263401Y16881661D01*
X14512136Y16632601D01*
X15755810Y17876601D01*
G37*
X15755810Y17876601D02*
X14512136Y19120666D01*
X13765540Y18374070D01*
X14760870Y17379131D01*
X15009605Y17627866D01*
X14263401Y18374070D01*
X14512136Y18623196D01*
X15258340Y17876601D01*
X15009605Y17627866D01*
X14760870Y17379131D01*
X14263401Y16881661D01*
X14512136Y16632601D01*
X15755810Y17876601D01*
G36*
X13417024Y19717916D02*
X13914885Y19220447D01*
X14163620Y19469182D01*
X12919555Y20713182D01*
X12670820Y20464121D01*
X13168289Y19966651D01*
X12173350Y18971647D01*
X12422085Y18722586D01*
X13417024Y19717916D01*
G37*
X13417024Y19717916D02*
X13914885Y19220447D01*
X14163620Y19469182D01*
X12919555Y20713182D01*
X12670820Y20464121D01*
X13168289Y19966651D01*
X12173350Y18971647D01*
X12422085Y18722586D01*
X13417024Y19717916D01*
G36*
X12571430Y21061371D02*
X12322304Y21310106D01*
X11327365Y20315167D01*
X10332100Y21310106D01*
X10083365Y21061371D01*
X11327365Y19817306D01*
X12571430Y21061371D01*
G37*
X12571430Y21061371D02*
X12322304Y21310106D01*
X11327365Y20315167D01*
X10332100Y21310106D01*
X10083365Y21061371D01*
X11327365Y19817306D01*
X12571430Y21061371D01*
G04 #@! TD*
D11*
G04 #@! TO.C,*
X11176000Y36830000D03*
G04 #@! TD*
D12*
G04 #@! TO.C,DHT22*
X7239000Y13900000D03*
D13*
X9779000Y13900000D03*
X12319000Y13900000D03*
X14859000Y13900000D03*
G04 #@! TD*
G04 #@! TO.C,J1*
X23939500Y1333500D03*
X23939500Y3873500D03*
X23939500Y6413500D03*
X23939500Y8953500D03*
X23939500Y11493500D03*
X23939500Y14033500D03*
X23939500Y16573500D03*
D12*
X23939500Y19113500D03*
G04 #@! TD*
G04 #@! TO.C,J2*
X1270000Y1270000D03*
D13*
X1270000Y3810000D03*
X1270000Y6350000D03*
X1270000Y8890000D03*
X1270000Y11430000D03*
X1270000Y13970000D03*
X1270000Y16510000D03*
X1270000Y19050000D03*
G04 #@! TD*
D14*
G04 #@! TO.C,PR1*
X20840000Y10900000D03*
X18300000Y10900000D03*
G04 #@! TD*
D15*
G04 #@! TO.C,D2*
X20574000Y7112000D03*
D16*
X18034000Y7112000D03*
G04 #@! TD*
D12*
G04 #@! TO.C,J4*
X23900000Y24600000D03*
D13*
X23900000Y27140000D03*
X23900000Y29680000D03*
G04 #@! TD*
D12*
G04 #@! TO.C,bme280*
X1270000Y32258000D03*
D13*
X1270000Y29718000D03*
X1270000Y27178000D03*
X1270000Y24638000D03*
G04 #@! TD*
D16*
G04 #@! TO.C,D1*
X20574000Y2540000D03*
D15*
X18034000Y2540000D03*
G04 #@! TD*
G04 #@! TO.C,U1*
X5461000Y2286000D03*
D16*
X8001000Y2286000D03*
X10541000Y2286000D03*
G04 #@! TD*
D11*
G04 #@! TO.C,*
X9144000Y26162000D03*
G04 #@! TD*
M02*
