M48
;DRILL file {KiCad 5.0.0} date Mon Jul 30 20:29:38 2018
;FORMAT={-:-/ absolute / metric / decimal}
FMAT,2
METRIC,TZ
T1C0.500
T2C0.800
T3C0.900
T4C1.000
T5C1.501
%
G90
G05
M71
T1
X4.841Y20.066
X5.2Y16.5
X5.5Y36.1
X10.5Y11.7
X11.6Y11.4
X21.5Y20.9
T2
X19.7Y13.74
X19.7Y11.2
T3
X18.034Y7.112
X20.574Y7.112
X5.461Y2.286
X8.001Y2.286
X10.541Y2.286
X18.034Y2.54
X20.574Y2.54
T4
X23.939Y19.113
X23.939Y16.573
X23.939Y14.034
X23.939Y11.493
X23.939Y8.954
X23.939Y6.413
X23.939Y3.873
X23.939Y1.333
X7.239Y13.9
X9.779Y13.9
X12.319Y13.9
X14.859Y13.9
X1.27Y19.05
X1.27Y16.51
X1.27Y13.97
X1.27Y11.43
X1.27Y8.89
X1.27Y6.35
X1.27Y3.81
X1.27Y1.27
X1.3Y32.2
X1.3Y29.66
X1.3Y27.12
X1.3Y24.58
T5
X22.6Y23.9
X22.6Y28.7
X22.6Y33.5
T0
M30
