G04 #@! TF.GenerationSoftware,KiCad,Pcbnew,(5.0.0-3-g5ebb6b6)*
G04 #@! TF.CreationDate,2018-08-30T23:55:37+02:00*
G04 #@! TF.ProjectId,PTL-IR_remote,50544C2D49525F72656D6F74652E6B69,v1.1*
G04 #@! TF.SameCoordinates,PXa4b7f80PY71d9820*
G04 #@! TF.FileFunction,Legend,Top*
G04 #@! TF.FilePolarity,Positive*
%FSLAX46Y46*%
G04 Gerber Fmt 4.6, Leading zero omitted, Abs format (unit mm)*
G04 Created by KiCad (PCBNEW (5.0.0-3-g5ebb6b6)) date 2018 August 30, Thursday 23:55:37*
%MOMM*%
%LPD*%
G01*
G04 APERTURE LIST*
%ADD10C,0.100000*%
%ADD11C,0.150000*%
%ADD12C,0.200000*%
%ADD13C,0.120000*%
G04 APERTURE END LIST*
D10*
X9271000Y11049000D02*
X8636000Y11684000D01*
D11*
X20257142Y25000000D02*
X20161904Y25047620D01*
X20019047Y25047620D01*
X19876190Y25000000D01*
X19780952Y24904762D01*
X19733333Y24809524D01*
X19685714Y24619048D01*
X19685714Y24476191D01*
X19733333Y24285715D01*
X19780952Y24190477D01*
X19876190Y24095239D01*
X20019047Y24047620D01*
X20114285Y24047620D01*
X20257142Y24095239D01*
X20304761Y24142858D01*
X20304761Y24476191D01*
X20114285Y24476191D01*
X20733333Y24714286D02*
X20733333Y24047620D01*
X20733333Y24619048D02*
X20780952Y24666667D01*
X20876190Y24714286D01*
X21019047Y24714286D01*
X21114285Y24666667D01*
X21161904Y24571429D01*
X21161904Y24047620D01*
X22066666Y24047620D02*
X22066666Y25047620D01*
X22066666Y24095239D02*
X21971428Y24047620D01*
X21780952Y24047620D01*
X21685714Y24095239D01*
X21638095Y24142858D01*
X21590476Y24238096D01*
X21590476Y24523810D01*
X21638095Y24619048D01*
X21685714Y24666667D01*
X21780952Y24714286D01*
X21971428Y24714286D01*
X22066666Y24666667D01*
X19661904Y27647620D02*
X20280952Y27647620D01*
X19947619Y27266667D01*
X20090476Y27266667D01*
X20185714Y27219048D01*
X20233333Y27171429D01*
X20280952Y27076191D01*
X20280952Y26838096D01*
X20233333Y26742858D01*
X20185714Y26695239D01*
X20090476Y26647620D01*
X19804761Y26647620D01*
X19709523Y26695239D01*
X19661904Y26742858D01*
X20566666Y27647620D02*
X20900000Y26647620D01*
X21233333Y27647620D01*
X21471428Y27647620D02*
X22090476Y27647620D01*
X21757142Y27266667D01*
X21900000Y27266667D01*
X21995238Y27219048D01*
X22042857Y27171429D01*
X22090476Y27076191D01*
X22090476Y26838096D01*
X22042857Y26742858D01*
X21995238Y26695239D01*
X21900000Y26647620D01*
X21614285Y26647620D01*
X21519047Y26695239D01*
X21471428Y26742858D01*
X20261904Y29247620D02*
X20261904Y30247620D01*
X20500000Y30247620D01*
X20642857Y30200000D01*
X20738095Y30104762D01*
X20785714Y30009524D01*
X20833333Y29819048D01*
X20833333Y29676191D01*
X20785714Y29485715D01*
X20738095Y29390477D01*
X20642857Y29295239D01*
X20500000Y29247620D01*
X20261904Y29247620D01*
X21690476Y30247620D02*
X21500000Y30247620D01*
X21404761Y30200000D01*
X21357142Y30152381D01*
X21261904Y30009524D01*
X21214285Y29819048D01*
X21214285Y29438096D01*
X21261904Y29342858D01*
X21309523Y29295239D01*
X21404761Y29247620D01*
X21595238Y29247620D01*
X21690476Y29295239D01*
X21738095Y29342858D01*
X21785714Y29438096D01*
X21785714Y29676191D01*
X21738095Y29771429D01*
X21690476Y29819048D01*
X21595238Y29866667D01*
X21404761Y29866667D01*
X21309523Y29819048D01*
X21261904Y29771429D01*
X21214285Y29676191D01*
X16752380Y26576191D02*
X16752380Y26766667D01*
X16800000Y26861905D01*
X16895238Y26957143D01*
X17085714Y27004762D01*
X17419047Y27004762D01*
X17609523Y26957143D01*
X17704761Y26861905D01*
X17752380Y26766667D01*
X17752380Y26576191D01*
X17704761Y26480953D01*
X17609523Y26385715D01*
X17419047Y26338096D01*
X17085714Y26338096D01*
X16895238Y26385715D01*
X16800000Y26480953D01*
X16752380Y26576191D01*
X17085714Y27433334D02*
X17752380Y27433334D01*
X17180952Y27433334D02*
X17133333Y27480953D01*
X17085714Y27576191D01*
X17085714Y27719048D01*
X17133333Y27814286D01*
X17228571Y27861905D01*
X17752380Y27861905D01*
X17704761Y28719048D02*
X17752380Y28623810D01*
X17752380Y28433334D01*
X17704761Y28338096D01*
X17609523Y28290477D01*
X17228571Y28290477D01*
X17133333Y28338096D01*
X17085714Y28433334D01*
X17085714Y28623810D01*
X17133333Y28719048D01*
X17228571Y28766667D01*
X17323809Y28766667D01*
X17419047Y28290477D01*
X16752380Y29100000D02*
X17752380Y29338096D01*
X17038095Y29528572D01*
X17752380Y29719048D01*
X16752380Y29957143D01*
X17752380Y30338096D02*
X17085714Y30338096D01*
X16752380Y30338096D02*
X16800000Y30290477D01*
X16847619Y30338096D01*
X16800000Y30385715D01*
X16752380Y30338096D01*
X16847619Y30338096D01*
X17752380Y30814286D02*
X17085714Y30814286D01*
X17276190Y30814286D02*
X17180952Y30861905D01*
X17133333Y30909524D01*
X17085714Y31004762D01*
X17085714Y31100000D01*
X17704761Y31814286D02*
X17752380Y31719048D01*
X17752380Y31528572D01*
X17704761Y31433334D01*
X17609523Y31385715D01*
X17228571Y31385715D01*
X17133333Y31433334D01*
X17085714Y31528572D01*
X17085714Y31719048D01*
X17133333Y31814286D01*
X17228571Y31861905D01*
X17323809Y31861905D01*
X17419047Y31385715D01*
X674809Y33837620D02*
X674809Y34837620D01*
X1103380Y34742381D02*
X1151000Y34790000D01*
X1246238Y34837620D01*
X1484333Y34837620D01*
X1579571Y34790000D01*
X1627190Y34742381D01*
X1674809Y34647143D01*
X1674809Y34551905D01*
X1627190Y34409048D01*
X1055761Y33837620D01*
X1674809Y33837620D01*
X2674809Y33932858D02*
X2627190Y33885239D01*
X2484333Y33837620D01*
X2389095Y33837620D01*
X2246238Y33885239D01*
X2151000Y33980477D01*
X2103380Y34075715D01*
X2055761Y34266191D01*
X2055761Y34409048D01*
X2103380Y34599524D01*
X2151000Y34694762D01*
X2246238Y34790000D01*
X2389095Y34837620D01*
X2484333Y34837620D01*
X2627190Y34790000D01*
X2674809Y34742381D01*
D12*
X18224500Y37211000D02*
X18224500Y17653000D01*
X3111500Y17716500D02*
X3111500Y37211000D01*
D13*
G04 #@! TO.C,Q1*
X15660000Y6420000D02*
X15660000Y7350000D01*
X15660000Y9580000D02*
X15660000Y8650000D01*
X15660000Y9580000D02*
X13500000Y9580000D01*
X15660000Y6420000D02*
X14200000Y6420000D01*
G04 #@! TO.C,R5*
X22321078Y33210000D02*
X21803922Y33210000D01*
X22321078Y31790000D02*
X21803922Y31790000D01*
G04 #@! TO.C,R1*
X15008578Y10190000D02*
X14491422Y10190000D01*
X15008578Y11610000D02*
X14491422Y11610000D01*
G04 #@! TO.C,R2*
X14990578Y5536000D02*
X14473422Y5536000D01*
X14990578Y4116000D02*
X14473422Y4116000D01*
G04 #@! TO.C,R4*
X14990578Y941000D02*
X14473422Y941000D01*
X14990578Y2361000D02*
X14473422Y2361000D01*
G04 #@! TO.C,DHT22*
X16189000Y12570000D02*
X16189000Y15230000D01*
X8509000Y12570000D02*
X16189000Y12570000D01*
X8509000Y15230000D02*
X16189000Y15230000D01*
X8509000Y12570000D02*
X8509000Y15230000D01*
X7239000Y12570000D02*
X5909000Y12570000D01*
X5909000Y12570000D02*
X5909000Y13900000D01*
G04 #@! TO.C,D4*
X3750000Y11650000D02*
X3750000Y4350000D01*
X8100000Y11650000D02*
X9250000Y11650000D01*
X9250000Y11650000D02*
X9250000Y4350000D01*
G04 #@! TO.C,PR1*
X20890000Y13050000D02*
X18240000Y13050000D01*
X20890000Y8750000D02*
X18240000Y8750000D01*
X20915476Y8765612D02*
G75*
G03X20890000Y13050000I-1325476J2134388D01*
G01*
X18211973Y13032144D02*
G75*
G03X18240000Y8750000I1378027J-2132144D01*
G01*
G04 #@! TO.C,C1*
X11471267Y4290000D02*
X11128733Y4290000D01*
X11471267Y5310000D02*
X11128733Y5310000D01*
G04 #@! TO.C,D3*
X11900000Y7450000D02*
X11900000Y10650000D01*
X9900000Y10650000D02*
X9900000Y7450000D01*
X9900000Y10650000D02*
X11900000Y10650000D01*
G04 #@! TO.C,J4*
X25230000Y31010000D02*
X22570000Y31010000D01*
X25230000Y25870000D02*
X25230000Y31010000D01*
X22570000Y25870000D02*
X22570000Y31010000D01*
X25230000Y25870000D02*
X22570000Y25870000D01*
X25230000Y24600000D02*
X25230000Y23270000D01*
X25230000Y23270000D02*
X23900000Y23270000D01*
G04 #@! TO.C,bme280*
X-60000Y23308000D02*
X2600000Y23308000D01*
X-60000Y30988000D02*
X-60000Y23308000D01*
X2600000Y30988000D02*
X2600000Y23308000D01*
X-60000Y30988000D02*
X2600000Y30988000D01*
X-60000Y32258000D02*
X-60000Y33588000D01*
X-60000Y33588000D02*
X1270000Y33588000D01*
G04 #@! TO.C,D1*
X22266124Y2540459D02*
G75*
G02X21844000Y1016000I-2962124J-459D01*
G01*
X22294000Y2539538D02*
G75*
G03X16744000Y4084830I-2990000J462D01*
G01*
X16744000Y4085000D02*
X16744000Y995000D01*
D11*
X16764000Y1016000D02*
X21844000Y1016000D01*
X17272000Y1016000D02*
G75*
G02X21336000Y1016000I2032000J1524000D01*
G01*
D13*
G04 #@! TO.C,U1*
X3861000Y1786000D02*
X4261000Y2286000D01*
X3861000Y2786000D02*
X3861000Y1786000D01*
X4261000Y2286000D02*
X3861000Y2786000D01*
X10561000Y886000D02*
X10561000Y1086000D01*
X5361000Y886000D02*
X5361000Y1086000D01*
X10701000Y1136000D02*
X5301000Y1136000D01*
X10701000Y3386000D02*
X5301000Y3386000D01*
X5981000Y-1264000D02*
X5581000Y-1264000D01*
X5981000Y-1264000D02*
X5981000Y-1664000D01*
X5981000Y-1264000D02*
X5181000Y-2064000D01*
X6981000Y-1664000D02*
X6181000Y-2464000D01*
X6981000Y-1664000D02*
X6981000Y-2064000D01*
X6981000Y-1664000D02*
X6581000Y-1664000D01*
X5361000Y886000D02*
G75*
G03X10561000Y886000I2600000J0D01*
G01*
G04 #@! TO.C,*
D11*
G04 #@! TO.C,Q1*
X13247619Y8032762D02*
X13200000Y7937524D01*
X13104761Y7842286D01*
X12961904Y7699429D01*
X12914285Y7604191D01*
X12914285Y7508953D01*
X13152380Y7556572D02*
X13104761Y7461334D01*
X13009523Y7366096D01*
X12819047Y7318477D01*
X12485714Y7318477D01*
X12295238Y7366096D01*
X12200000Y7461334D01*
X12152380Y7556572D01*
X12152380Y7747048D01*
X12200000Y7842286D01*
X12295238Y7937524D01*
X12485714Y7985143D01*
X12819047Y7985143D01*
X13009523Y7937524D01*
X13104761Y7842286D01*
X13152380Y7747048D01*
X13152380Y7556572D01*
X13152380Y8937524D02*
X13152380Y8366096D01*
X13152380Y8651810D02*
X12152380Y8651810D01*
X12295238Y8556572D01*
X12390476Y8461334D01*
X12438095Y8366096D01*
G04 #@! TO.C,R5*
X21733333Y33647620D02*
X21400000Y34123810D01*
X21161904Y33647620D02*
X21161904Y34647620D01*
X21542857Y34647620D01*
X21638095Y34600000D01*
X21685714Y34552381D01*
X21733333Y34457143D01*
X21733333Y34314286D01*
X21685714Y34219048D01*
X21638095Y34171429D01*
X21542857Y34123810D01*
X21161904Y34123810D01*
X22638095Y34647620D02*
X22161904Y34647620D01*
X22114285Y34171429D01*
X22161904Y34219048D01*
X22257142Y34266667D01*
X22495238Y34266667D01*
X22590476Y34219048D01*
X22638095Y34171429D01*
X22685714Y34076191D01*
X22685714Y33838096D01*
X22638095Y33742858D01*
X22590476Y33695239D01*
X22495238Y33647620D01*
X22257142Y33647620D01*
X22161904Y33695239D01*
X22114285Y33742858D01*
G04 #@! TO.C,R1*
X13025380Y10933334D02*
X12549190Y10600000D01*
X13025380Y10361905D02*
X12025380Y10361905D01*
X12025380Y10742858D01*
X12073000Y10838096D01*
X12120619Y10885715D01*
X12215857Y10933334D01*
X12358714Y10933334D01*
X12453952Y10885715D01*
X12501571Y10838096D01*
X12549190Y10742858D01*
X12549190Y10361905D01*
X13025380Y11885715D02*
X13025380Y11314286D01*
X13025380Y11600000D02*
X12025380Y11600000D01*
X12168238Y11504762D01*
X12263476Y11409524D01*
X12311095Y11314286D01*
G04 #@! TO.C,R2*
X14438333Y2976620D02*
X14105000Y3452810D01*
X13866904Y2976620D02*
X13866904Y3976620D01*
X14247857Y3976620D01*
X14343095Y3929000D01*
X14390714Y3881381D01*
X14438333Y3786143D01*
X14438333Y3643286D01*
X14390714Y3548048D01*
X14343095Y3500429D01*
X14247857Y3452810D01*
X13866904Y3452810D01*
X14819285Y3881381D02*
X14866904Y3929000D01*
X14962142Y3976620D01*
X15200238Y3976620D01*
X15295476Y3929000D01*
X15343095Y3881381D01*
X15390714Y3786143D01*
X15390714Y3690905D01*
X15343095Y3548048D01*
X14771666Y2976620D01*
X15390714Y2976620D01*
G04 #@! TO.C,R4*
X13025380Y1357334D02*
X12549190Y1024000D01*
X13025380Y785905D02*
X12025380Y785905D01*
X12025380Y1166858D01*
X12073000Y1262096D01*
X12120619Y1309715D01*
X12215857Y1357334D01*
X12358714Y1357334D01*
X12453952Y1309715D01*
X12501571Y1262096D01*
X12549190Y1166858D01*
X12549190Y785905D01*
X12358714Y2214477D02*
X13025380Y2214477D01*
X11977761Y1976381D02*
X12692047Y1738286D01*
X12692047Y2357334D01*
G04 #@! TO.C,DHT22*
X9080952Y19347620D02*
X9080952Y20347620D01*
X9319047Y20347620D01*
X9461904Y20300000D01*
X9557142Y20204762D01*
X9604761Y20109524D01*
X9652380Y19919048D01*
X9652380Y19776191D01*
X9604761Y19585715D01*
X9557142Y19490477D01*
X9461904Y19395239D01*
X9319047Y19347620D01*
X9080952Y19347620D01*
X10080952Y19347620D02*
X10080952Y20347620D01*
X10080952Y19871429D02*
X10652380Y19871429D01*
X10652380Y19347620D02*
X10652380Y20347620D01*
X10985714Y20347620D02*
X11557142Y20347620D01*
X11271428Y19347620D02*
X11271428Y20347620D01*
X11842857Y20252381D02*
X11890476Y20300000D01*
X11985714Y20347620D01*
X12223809Y20347620D01*
X12319047Y20300000D01*
X12366666Y20252381D01*
X12414285Y20157143D01*
X12414285Y20061905D01*
X12366666Y19919048D01*
X11795238Y19347620D01*
X12414285Y19347620D01*
X12795238Y20252381D02*
X12842857Y20300000D01*
X12938095Y20347620D01*
X13176190Y20347620D01*
X13271428Y20300000D01*
X13319047Y20252381D01*
X13366666Y20157143D01*
X13366666Y20061905D01*
X13319047Y19919048D01*
X12747619Y19347620D01*
X13366666Y19347620D01*
G04 #@! TO.C,D4*
X3627380Y5484905D02*
X2627380Y5484905D01*
X2627380Y5723000D01*
X2675000Y5865858D01*
X2770238Y5961096D01*
X2865476Y6008715D01*
X3055952Y6056334D01*
X3198809Y6056334D01*
X3389285Y6008715D01*
X3484523Y5961096D01*
X3579761Y5865858D01*
X3627380Y5723000D01*
X3627380Y5484905D01*
X2960714Y6913477D02*
X3627380Y6913477D01*
X2579761Y6675381D02*
X3294047Y6437286D01*
X3294047Y7056334D01*
G04 #@! TO.C,PR1*
X18761904Y13347620D02*
X18761904Y14347620D01*
X19142857Y14347620D01*
X19238095Y14300000D01*
X19285714Y14252381D01*
X19333333Y14157143D01*
X19333333Y14014286D01*
X19285714Y13919048D01*
X19238095Y13871429D01*
X19142857Y13823810D01*
X18761904Y13823810D01*
X20333333Y13347620D02*
X20000000Y13823810D01*
X19761904Y13347620D02*
X19761904Y14347620D01*
X20142857Y14347620D01*
X20238095Y14300000D01*
X20285714Y14252381D01*
X20333333Y14157143D01*
X20333333Y14014286D01*
X20285714Y13919048D01*
X20238095Y13871429D01*
X20142857Y13823810D01*
X19761904Y13823810D01*
X21285714Y13347620D02*
X20714285Y13347620D01*
X21000000Y13347620D02*
X21000000Y14347620D01*
X20904761Y14204762D01*
X20809523Y14109524D01*
X20714285Y14061905D01*
G04 #@! TO.C,C1*
X11733333Y3042858D02*
X11685714Y2995239D01*
X11542857Y2947620D01*
X11447619Y2947620D01*
X11304761Y2995239D01*
X11209523Y3090477D01*
X11161904Y3185715D01*
X11114285Y3376191D01*
X11114285Y3519048D01*
X11161904Y3709524D01*
X11209523Y3804762D01*
X11304761Y3900000D01*
X11447619Y3947620D01*
X11542857Y3947620D01*
X11685714Y3900000D01*
X11733333Y3852381D01*
X12685714Y2947620D02*
X12114285Y2947620D01*
X12400000Y2947620D02*
X12400000Y3947620D01*
X12304761Y3804762D01*
X12209523Y3709524D01*
X12114285Y3661905D01*
G04 #@! TO.C,D3*
X9675904Y10850620D02*
X9675904Y11850620D01*
X9914000Y11850620D01*
X10056857Y11803000D01*
X10152095Y11707762D01*
X10199714Y11612524D01*
X10247333Y11422048D01*
X10247333Y11279191D01*
X10199714Y11088715D01*
X10152095Y10993477D01*
X10056857Y10898239D01*
X9914000Y10850620D01*
X9675904Y10850620D01*
X10580666Y11850620D02*
X11199714Y11850620D01*
X10866380Y11469667D01*
X11009238Y11469667D01*
X11104476Y11422048D01*
X11152095Y11374429D01*
X11199714Y11279191D01*
X11199714Y11041096D01*
X11152095Y10945858D01*
X11104476Y10898239D01*
X11009238Y10850620D01*
X10723523Y10850620D01*
X10628285Y10898239D01*
X10580666Y10945858D01*
G04 #@! TO.C,JP1*
D12*
X4400666Y29151620D02*
X4400666Y28437334D01*
X4353047Y28294477D01*
X4257809Y28199239D01*
X4114952Y28151620D01*
X4019714Y28151620D01*
X4876857Y28151620D02*
X4876857Y29151620D01*
X5257809Y29151620D01*
X5353047Y29104000D01*
X5400666Y29056381D01*
X5448285Y28961143D01*
X5448285Y28818286D01*
X5400666Y28723048D01*
X5353047Y28675429D01*
X5257809Y28627810D01*
X4876857Y28627810D01*
X6400666Y28151620D02*
X5829238Y28151620D01*
X6114952Y28151620D02*
X6114952Y29151620D01*
X6019714Y29008762D01*
X5924476Y28913524D01*
X5829238Y28865905D01*
G04 #@! TO.C,D1*
D11*
X18565904Y3847620D02*
X18565904Y4847620D01*
X18804000Y4847620D01*
X18946857Y4800000D01*
X19042095Y4704762D01*
X19089714Y4609524D01*
X19137333Y4419048D01*
X19137333Y4276191D01*
X19089714Y4085715D01*
X19042095Y3990477D01*
X18946857Y3895239D01*
X18804000Y3847620D01*
X18565904Y3847620D01*
X20089714Y3847620D02*
X19518285Y3847620D01*
X19804000Y3847620D02*
X19804000Y4847620D01*
X19708761Y4704762D01*
X19613523Y4609524D01*
X19518285Y4561905D01*
G04 #@! TO.C,U1*
X7112095Y1182620D02*
X7112095Y373096D01*
X7159714Y277858D01*
X7207333Y230239D01*
X7302571Y182620D01*
X7493047Y182620D01*
X7588285Y230239D01*
X7635904Y277858D01*
X7683523Y373096D01*
X7683523Y1182620D01*
X8683523Y182620D02*
X8112095Y182620D01*
X8397809Y182620D02*
X8397809Y1182620D01*
X8302571Y1039762D01*
X8207333Y944524D01*
X8112095Y896905D01*
G04 #@! TO.C,*
G04 #@! TD*
M02*
